<svg xmlns="http://www.w3.org/2000/svg" xmlns:xlink="http://www.w3.org/1999/xlink" width="286.868" height="364.691" viewBox="0 0 286.868 364.691">
  <defs>
    <clipPath id="clip-path">
      <path id="Trazado_114857" data-name="Trazado 114857" d="M956.913-118.288l-.018,6.455c-.06,21.127-13.949,42.226-41.7,58.353-55.824,32.441-146.624,32.441-202.811,0-28.276-16.324-42.4-37.753-42.336-59.149l.017-6.455C670-97.687,684.125-76.258,712.4-59.934c56.189,32.439,146.989,32.441,202.813,0C942.964-76.063,956.852-97.161,956.913-118.288Z" transform="translate(-670.045 119.083)" fill="none"/>
    </clipPath>
    <linearGradient id="linear-gradient" x1="-0.298" y1="0.891" x2="0.894" y2="0.004" gradientUnits="objectBoundingBox">
      <stop offset="0" stop-color="#bac2d4"/>
      <stop offset="0.145" stop-color="#a9b0c7"/>
      <stop offset="0.174" stop-color="#a9b0c7"/>
      <stop offset="0.598" stop-color="#a9b0c7"/>
      <stop offset="0.616" stop-color="#c8ccd8"/>
      <stop offset="0.633" stop-color="#e1e1e6"/>
      <stop offset="0.644" stop-color="#eaeaeb"/>
      <stop offset="0.65" stop-color="#e5e6e8"/>
      <stop offset="0.657" stop-color="#d9dbe1"/>
      <stop offset="0.664" stop-color="#c4c9d6"/>
      <stop offset="0.667" stop-color="#bac0d1"/>
      <stop offset="1" stop-color="#bdc4d2"/>
    </linearGradient>
  </defs>
  <g id="Grupo_129041" data-name="Grupo 129041" transform="translate(-670.045 309.061)">
    <g id="Grupo_127778" data-name="Grupo 127778" transform="translate(670.045 -116.979)">
      <g id="Grupo_127777" data-name="Grupo 127777">
        <g id="Grupo_127776" data-name="Grupo 127776">
          <g id="Grupo_127775" data-name="Grupo 127775" style="isolation: isolate">
            <g id="Grupo_127773" data-name="Grupo 127773" transform="translate(0 82.674)" style="isolation: isolate">
              <g id="Grupo_127772" data-name="Grupo 127772" clip-path="url(#clip-path)">
                <g id="Grupo_127771" data-name="Grupo 127771" style="isolation: isolate">
                  <path id="Trazado_114856" data-name="Trazado 114856" d="M956.913-118.288l-.018,6.455c-.06,21.127-13.949,42.226-41.7,58.353-55.824,32.441-146.624,32.441-202.811,0-28.276-16.324-42.4-37.753-42.336-59.149l.017-6.455C670-97.687,684.125-76.258,712.4-59.934c56.189,32.439,146.989,32.441,202.813,0,27.752-16.127,41.64-37.225,41.7-58.352Z" transform="translate(-670.045 119.083)" fill="#bfbfbf"/>
                </g>
              </g>
            </g>
            <g id="Grupo_127774" data-name="Grupo 127774" transform="translate(0.018)">
              <path id="Trazado_114858" data-name="Trazado 114858" d="M914.575-151.919c56.187,32.44,56.485,85.035.631,117.494-55.824,32.442-146.624,32.441-202.813,0s-56.486-85.035-.662-117.478C767.585-184.36,858.388-184.359,914.575-151.919Z" transform="translate(-670.057 176.247)" fill="#f0f0f0"/>
            </g>
          </g>
        </g>
      </g>
    </g>
    <g id="Grupo_127793" data-name="Grupo 127793" transform="translate(696.84 -309.061)">
      <path id="Trazado_114859" data-name="Trazado 114859" d="M726.884-71.414l135.875-78.448L824.448-171.98,688.573-93.532Z" transform="translate(-688.573 370.234)" fill="#cdd2d6" style="mix-blend-mode: multiply;isolation: isolate"/>
      <g id="Grupo_127792" data-name="Grupo 127792" transform="translate(28.256)">
        <g id="Grupo_127791" data-name="Grupo 127791">
          <g id="Grupo_127786" data-name="Grupo 127786">
            <g id="Grupo_127785" data-name="Grupo 127785">
              <g id="Grupo_127782" data-name="Grupo 127782">
                <g id="Grupo_127779" data-name="Grupo 127779" transform="translate(13.274 7.714)">
                  <path id="Trazado_114860" data-name="Trazado 114860" d="M816.935-302.347c5.571-3.216,10.095-.615,10.112,5.765l.552,194.515c.018,6.4-4.476,14.185-10.047,17.4l-89.6,51.73c-5.571,3.216-10.095.641-10.114-5.76l-.551-194.517c-.019-6.378,4.476-14.186,10.047-17.4Z" transform="translate(-717.288 303.727)" fill="#d9d4f7"/>
                  <path id="Trazado_114861" data-name="Trazado 114861" d="M723.024-33.246c-2.675,0-4.279-2.188-4.29-5.853l-.551-194.515c-.018-5.976,4.2-13.28,9.4-16.283l89.6-51.728a8.019,8.019,0,0,1,3.872-1.206c2.682,0,4.289,2.188,4.3,5.853l.551,194.515c.019,5.972-4.2,13.277-9.4,16.281l-89.6,51.728A8.048,8.048,0,0,1,723.024-33.246Z" transform="translate(-716.889 304.127)" fill="#464469"/>
                </g>
                <g id="Grupo_127780" data-name="Grupo 127780" transform="translate(17.471 14.707)">
                  <path id="Trazado_114862" data-name="Trazado 114862" d="M813.371-297.774c4.509-2.6,8.189-.5,8.2,4.674l.538,189.749c.014,5.183-3.642,11.514-8.151,14.117L728.931-40.143c-4.51,2.6-8.189.508-8.2-4.674l-.538-189.749c-.015-5.181,3.64-11.512,8.15-14.115l13.187-7.613,6.03,2.745,46.633-26.924,5.994-9.688Z" transform="translate(-720.19 298.892)" fill="#3455b3"/>
                </g>
                <g id="Grupo_127781" data-name="Grupo 127781" transform="translate(17.471 14.7)">
                  <path id="Trazado_114863" data-name="Trazado 114863" d="M813.411-297.795c4.475-2.583,8.148-.469,8.163,4.7l.538,189.749c.014,5.167-3.634,11.509-8.11,14.094L728.931-40.14c-4.5,2.6-8.189.473-8.2-4.721l-.538-189.656c-.015-5.193,3.653-11.566,8.15-14.162l10.825-6.25a5.3,5.3,0,0,1,4.843-.233l1.818.829a3.692,3.692,0,0,0,3.376-.163l41.749-24.1a14.856,14.856,0,0,0,5.206-5.05l2.918-4.716a8.369,8.369,0,0,1,2.932-2.845Z" transform="translate(-720.19 298.897)" fill="#519bf6"/>
                </g>
                <path id="Trazado_114864" data-name="Trazado 114864" d="M814.926-308.378c-1.832-1.067-4.367-.92-7.169.7l-89.6,51.728c-5.571,3.219-10.066,11.026-10.047,17.406l.551,194.517c.009,3.177,1.131,5.416,2.938,6.468l13.274,7.711c-1.809-1.051-2.93-3.286-2.939-6.468l-.551-194.514c-.019-6.378,4.476-14.189,10.047-17.4l89.6-51.732c2.8-1.615,5.337-1.762,7.169-.7Z" transform="translate(-708.11 309.061)" fill="url(#linear-gradient)"/>
              </g>
              <g id="Grupo_127784" data-name="Grupo 127784" transform="translate(17.933 43.127)">
                <path id="Trazado_114865" data-name="Trazado 114865" d="M741.322-274.972a3.178,3.178,0,0,1-1.1,1.007.158.158,0,0,1-.045.027l-3.466,2-5.2,3-2.561,1.478a6.462,6.462,0,0,1-5.791.237l-1.65-.949c-1.477-.856-1.289-2.362.418-3.344l11.225-6.484a6.469,6.469,0,0,1,5.791-.241l1.65.953a2.2,2.2,0,0,1,.732.639A1.442,1.442,0,0,1,741.322-274.972Z" transform="translate(-720.51 279.434)" fill="#64c95c"/>
                <path id="Trazado_114866" data-name="Trazado 114866" d="M721.507-268.169l.117.068c.094-.064.194-.127.3-.188l11.227-6.482a6.458,6.458,0,0,1,5.791-.24l1.532.884c1.426-.981,1.5-2.354.117-3.156l-1.649-.952a6.461,6.461,0,0,0-5.791.24l-11.227,6.482C720.216-270.526,720.029-269.022,721.507-268.169Z" transform="translate(-720.51 279.434)" fill="#d8d9dd"/>
                <g id="Grupo_127783" data-name="Grupo 127783" transform="translate(8.759 4.177)">
                  <path id="Trazado_114867" data-name="Trazado 114867" d="M737.519-275.062a.166.166,0,0,1-.045.027l-3.467,2-5.2,3-1.24-.716a1.712,1.712,0,0,1-1-1.436v-.013a2.384,2.384,0,0,1,1.413-1.895l2.508-1.449a6.477,6.477,0,0,1,5.8-.242Z" transform="translate(-726.566 276.353)" fill="#d8d9dd"/>
                </g>
                <path id="Trazado_114868" data-name="Trazado 114868" d="M738.62-277.311v1.67a3.184,3.184,0,0,1-1.1,1.007.166.166,0,0,1-.045.028l-3.467,2-7.441.852v-4.171Z" transform="translate(-717.807 280.103)" fill="#d8d9dd"/>
                <path id="Trazado_114869" data-name="Trazado 114869" d="M728.9-272.859l-1.341-.774c-1.48-.853-1.292-2.357.415-3.344l2.511-1.449a6.457,6.457,0,0,1,5.791-.24l1.341.774c1.479.853,1.292,2.359-.415,3.344L734.7-273.1A6.458,6.458,0,0,1,728.9-272.859Z" transform="translate(-717.807 279.241)" fill="#c8ccd8"/>
              </g>
            </g>
          </g>
          <g id="Grupo_127787" data-name="Grupo 127787" transform="translate(17.471 14.71)">
            <path id="Trazado_114870" data-name="Trazado 114870" d="M813.369-297.772c4.51-2.6,8.189-.5,8.2,4.674l.538,189.747c.014,5.182-3.64,11.512-8.15,14.115L728.931-40.143c-4.51,2.6-8.189.508-8.2-4.674l-.538-189.747c-.015-5.179,3.64-11.512,8.15-14.115l13.187-7.613,6.03,2.746,46.633-26.925,5.994-9.687Z" transform="translate(-720.19 298.89)" fill="#3455b3"/>
          </g>
          <g id="Grupo_127788" data-name="Grupo 127788" transform="translate(17.471 14.71)">
            <path id="Trazado_114871" data-name="Trazado 114871" d="M813.369-297.772c4.51-2.6,8.189-.5,8.2,4.674l.538,189.747c.014,5.182-3.64,11.512-8.15,14.115L728.931-40.143c-4.51,2.6-8.189.508-8.2-4.674l-.538-189.747c-.015-5.179,3.64-11.512,8.15-14.115l13.187-7.613,6.03,2.746,46.633-26.925,5.994-9.687Z" transform="translate(-720.19 298.89)" fill="#1b3f5e"/>
          </g>
          <g id="Grupo_127789" data-name="Grupo 127789" transform="translate(27.216 70.19)">
            <path id="Trazado_114872" data-name="Trazado 114872" d="M809.125-259.864a4.835,4.835,0,0,0-4.894,0l-7.775,4.486v4.136l9.571-5.526a1.29,1.29,0,0,1,1.308,0,1.3,1.3,0,0,1,.656,1.14v13.016l3.579-2.065v-10.951A4.832,4.832,0,0,0,809.125-259.864Zm-1.134,58.4v9.6a9.718,9.718,0,0,1-4.846,8.391l-6.689,3.86v4.136l8.479-4.894a13.306,13.306,0,0,0,6.635-11.493v-11.667Zm-76.827,58.8a1.29,1.29,0,0,1-.655-1.14v-12.919l-3.581,2.065v10.854a4.833,4.833,0,0,0,2.447,4.238,4.873,4.873,0,0,0,2.44.662,4.883,4.883,0,0,0,2.447-.662l7.781-4.493v-4.129l-9.571,5.525A1.281,1.281,0,0,1,731.164-142.669Zm2.4-76.4a13.308,13.308,0,0,0-6.635,11.493v11.762l3.581-2.065v-9.7a9.711,9.711,0,0,1,4.845-8.39l6.689-3.861v-4.135Z" transform="translate(-726.928 260.529)" fill="#d9d9d9"/>
          </g>
          <path id="Trazado_114873" data-name="Trazado 114873" d="M799.077-251.565v57.849l-65.548,37.844v-57.849Z" transform="translate(-696.767 334.719)" fill="#d9d9d9"/>
          <g id="Grupo_127790" data-name="Grupo 127790" transform="translate(46.765 97.757)">
            <path id="Trazado_114874" data-name="Trazado 114874" d="M743.011-224.312v40.191l-2.566,1.483v-40.191Z" transform="translate(-740.445 249.124)" fill="#343343"/>
            <path id="Trazado_114875" data-name="Trazado 114875" d="M746.8-226.459v40.191l-2.79,1.61v-40.191Z" transform="translate(-738.854 248.166)" fill="#343343"/>
            <path id="Trazado_114876" data-name="Trazado 114876" d="M752.653-229.558v40.191l-4.36,2.517v-40.191Z" transform="translate(-736.943 246.783)" fill="#343343"/>
            <path id="Trazado_114877" data-name="Trazado 114877" d="M755.547-231.569v40.2L753.1-189.96v-40.191Z" transform="translate(-734.8 245.885)" fill="#343343"/>
            <path id="Trazado_114878" data-name="Trazado 114878" d="M758.531-233.256v40.2l-2.656,1.532v-40.2Z" transform="translate(-733.559 245.133)" fill="#343343"/>
            <path id="Trazado_114879" data-name="Trazado 114879" d="M762.659-235.6v40.2l-2.876,1.659v-40.191Z" transform="translate(-731.816 244.087)" fill="#343343"/>
            <path id="Trazado_114880" data-name="Trazado 114880" d="M765.19-237.171v40.2l-2.263,1.307v-40.2Z" transform="translate(-730.413 243.385)" fill="#343343"/>
            <path id="Trazado_114881" data-name="Trazado 114881" d="M769.957-239.671v40.2l-3.677,2.125v-40.2Z" transform="translate(-728.916 242.27)" fill="#343343"/>
            <path id="Trazado_114882" data-name="Trazado 114882" d="M772.527-241.468v40.2l-1.916,1.107v-40.2Z" transform="translate(-726.983 241.468)" fill="#343343"/>
          </g>
        </g>
      </g>
    </g>
    <g id="Grupo_127808" data-name="Grupo 127808" transform="translate(858.121 -203.941)">
      <ellipse id="Elipse_4739" data-name="Elipse 4739" cx="11.952" cy="20.703" rx="11.952" ry="20.703" transform="matrix(0.005, -1, 1, 0.005, 19.368, 169.951)" fill="#cdd2d6" style="mix-blend-mode: multiply;isolation: isolate"/>
      <g id="Grupo_127807" data-name="Grupo 127807" transform="translate(0 2.615)">
        <g id="Grupo_127794" data-name="Grupo 127794" transform="translate(42.134 149.705)">
          <path id="Trazado_114883" data-name="Trazado 114883" d="M845.294-129.125s.859.139,1.14,1.5a3.818,3.818,0,0,1-.075,2.327,10.85,10.85,0,0,1-1.733,2.561c-.557.327-.7.288-.7.288s-2,4.071-3.268,5.344a11.577,11.577,0,0,1-7.492,2.856c-3.2-.006-3.928-2.052-3.939-2.352s.159-1.575,3.024-3.533S845.294-129.125,845.294-129.125Z" transform="translate(-829.222 131.919)" fill="#2e3442"/>
          <path id="Trazado_114884" data-name="Trazado 114884" d="M836.217-130.862c-.055.176.278,3.487-.729,4.595s-5.446,6.4-5.672,7.192a10.874,10.874,0,0,0-.106,2.839c.036.421,2.252,2.613,5.771,1.74s5.8-4.151,7.036-6.381,3.106-4.157,3.413-5.275a30.629,30.629,0,0,0,.23-4.9C846.161-131.1,836.217-130.862,836.217-130.862Z" transform="translate(-829.024 131.057)" fill="#40485c"/>
        </g>
        <g id="Grupo_127795" data-name="Grupo 127795" transform="translate(19.754 140.586)">
          <path id="Trazado_114885" data-name="Trazado 114885" d="M831.6-135.552c.763.583,2.5,2.046,2.525,3.15a5.544,5.544,0,0,1-.185,1.981c-.137.338-3.363,1.588-4.184,1.877s-1.216-.31-2.109.331-3.154,2.391-4.3,3.222a10.537,10.537,0,0,1-6.625,1.245c-2.51-.392-2.758-1.264-2.941-2.307a4.349,4.349,0,0,1,.712-2.719c.284-.417,1.927-1.534,4.91-1.961S831.6-135.552,831.6-135.552Z" transform="translate(-813.747 138.17)" fill="#2e3442"/>
          <path id="Trazado_114886" data-name="Trazado 114886" d="M825.667-137.362a10.644,10.644,0,0,1-1.13,2.694s-8.165,4.008-9.343,5.442a5.6,5.6,0,0,0-1.154,3.269s.478,1.668,3.657,1.685c3.241.016,5.483-1.075,6.3-1.944a11.531,11.531,0,0,1,4.319-2.489c2.892-.68,5.293-1.681,5.254-3.121-.041-1.485-.275-4.676-.275-4.676Z" transform="translate(-813.616 137.362)" fill="#40485c"/>
        </g>
        <path id="Trazado_114887" data-name="Trazado 114887" d="M829.921-217.406c-5.7-.821-8.974,4.214-10.808,11.227-.865,3.308-4.465,16.3-4.875,18.936s2.011,5.283,3.346,5.421,2.738,1.3,5.169-1.575S838.415-218.012,829.921-217.406Z" transform="translate(-793.795 242.189)" fill="#dbe6ff"/>
        <path id="Trazado_114888" data-name="Trazado 114888" d="M819.307-199.085c-1.883,1.015-6.584,7.314-11.605,10.417-2.784,3.971.229,7.3,2.145,7.3s16.742-8.213,17.226-11.615C826.187-195.97,825.069-199.554,819.307-199.085Z" transform="translate(-797.195 250.385)" fill="#e0e9ff"/>
        <path id="Trazado_114889" data-name="Trazado 114889" d="M808.355-192.589s-1.916.227-2.67.341a1.356,1.356,0,0,0-1,.571l.091.866s-.753.457-.548,1.028,1.141.341,1.141.341l1.37-.845s1.232.32,1.346.571a1.569,1.569,0,0,0,1.482,1.3,1.6,1.6,0,0,0,1.552-2.3C810.591-191.562,808.355-192.589,808.355-192.589Z" transform="translate(-798.258 253.302)" fill="#ffadb7"/>
        <path id="Trazado_114890" data-name="Trazado 114890" d="M821.6-184.928c-1.323,6.436-3.423,9.722-3.012,17.709s.221,28.5,1.481,32.337,7.488,1.78,9.542.753a6.586,6.586,0,0,0,3.423-4.107c.341-1.3,4.791-38,3.765-41.626S821.6-184.928,821.6-184.928Z" transform="translate(-791.856 256.721)" fill="#2f337d"/>
        <path id="Trazado_114891" data-name="Trazado 114891" d="M825.029-177.192s-.908,8.627,0,13.077,5.085,4.861,5.5,6.231.761,19.338,2.062,23.583,13.82,5.523,14.094,1.514-.684-5.928.616-13.938,2.091-13.556.943-23a127.92,127.92,0,0,0-2.517-14.857C845.586-185.2,825.029-177.192,825.029-177.192Z" transform="translate(-789.139 256.859)" fill="#2e3287"/>
        <path id="Trazado_114892" data-name="Trazado 114892" d="M833.646-146.465c-.123,2.54-.448,11.531-.778,16.565-.161,2.477-.331,4.77-.494,6.4-1.462,2.191-9.608,1.89-10.11-.622-.153-.764-.487-3.218-.877-6.262-.892-6.967-2.081-17.025-2.081-17.025s11.822-14.966,11.914-14.51S833.826-150.252,833.646-146.465Z" transform="translate(-791.513 266.983)" fill="#2f337d"/>
        <path id="Trazado_114893" data-name="Trazado 114893" d="M847.351-121.159a7.42,7.42,0,0,1-.711,3.348c-1.258,2.485-9.214,5.279-10.995.349a39.483,39.483,0,0,0-.644-4.515c-1.394-7.558-4.548-20.206-4.872-24.5l12.133-10.691s1.857-1.9,3.132,7.424A277.239,277.239,0,0,1,847.351-121.159Z" transform="translate(-786.683 269.037)" fill="#2e3287"/>
        <g id="Grupo_127796" data-name="Grupo 127796" transform="translate(51.944 76.65)">
          <path id="Trazado_114894" data-name="Trazado 114894" d="M844.193-96.968l-2.712-.162c.489-8.155-2.265-30.814-4.115-43.181a12.4,12.4,0,0,1-.082-3.017c2.332-24.416,1.792-26.375-1.206-37.255l-.072-.265,2.618-.722.074.266c3.039,11.026,3.67,13.321,1.292,38.233a9.609,9.609,0,0,0,.065,2.356C841.919-128.239,844.693-105.332,844.193-96.968Z" transform="translate(-836.005 181.57)" fill="#bfc8de"/>
        </g>
        <path id="Trazado_114895" data-name="Trazado 114895" d="M838.266-216.072a51.566,51.566,0,0,1,14.675,7.839c1.37,1.472-5.25,37.108-4.2,43.633-6.618,6.573-18.119,4.52-21.269,4.382s-6.709-2.556-7.4-5.295.411-17.892-.5-25.97-.519-14.328,1.005-18.849c4.107-12.188,12.186-4.154,12.186-4.154Z" transform="translate(-791.609 242.372)" fill="#d4dff7"/>
        <path id="Trazado_114896" data-name="Trazado 114896" d="M827.687-201.827s-.65,8.728-.616,9.79,4.964,2.191,4.964,2.191,4.793-.513,5.033-1.54.377-9.551.377-9.551Z" transform="translate(-788.048 249.18)" fill="#e0e9ff"/>
        <path id="Trazado_114897" data-name="Trazado 114897" d="M849.021-166.132c.039,1.867-7.774,5.364-16.8,4.1q-1.072-.152-2.045-.341v0c-.99-.187-1.9-.408-2.748-.648-5.618-1.579-8.115-3.966-8.262-4.394-.187-.531.622-17.657,0-22.752a64.681,64.681,0,0,1,1.051-18.178c1.092-5.007,3.455-7.14,7.195-8.452s6.877-1.553,6.812-1.406-7.389,2.736-8.405,10.487a33.507,33.507,0,0,0,1.886,15.663,19.727,19.727,0,0,0,1.358,2.907c.493-.8.943-1.549,1.358-2.252,5.708-9.7,4.394-10.792,12.527-19.43,1.452-1.545,1.743-1.526,1.782-1.51-.145-.136-2.5-2.247-4.092-2.356-1.637-.116,1.913-.116,1.913-.116,4.029,1.847,8.309,4.535,9.636,6.465-5.072,1.54-7.537,3.384-9.966,9.934s.043,15.116,3.195,16.7,3.624.764,3.539.955S848.986-168,849.021-166.132Z" transform="translate(-791.688 241.853)" fill="#3741d6"/>
        <g id="Grupo_127797" data-name="Grupo 127797" transform="translate(35.62 49.794)">
          <path id="Trazado_114898" data-name="Trazado 114898" d="M827.834-197.179c-.007.2-.694,17.887-.245,26.72-.989-.187-1.9-.408-2.748-.648-.381-9.051.233-25.074.276-26.153v-2.88a19.806,19.806,0,0,0,1.358,2.907c.493-.8.943-1.549,1.358-2.252Z" transform="translate(-824.717 200.139)" fill="#bfc8de"/>
        </g>
        <path id="Trazado_114899" data-name="Trazado 114899" d="M837.451-177.05c-.318-2.327-1.223-14.423-.4-21.617s1.612-9.12,4.761-11.2c3.154-1.26,3.265-1.1,3.265-1.1,1.337.644,3.2,2.2,3.613,17.725.276,10.471-.406,13.978-.882,14.869S837.451-177.05,837.451-177.05Z" transform="translate(-783.744 245.1)" fill="#e0e9ff"/>
        <path id="Trazado_114900" data-name="Trazado 114900" d="M825.068-212.17s3.023,5.646,2.921,7.574,6.432.3,7.823-1.973,2.313-3.216,2.032-4.765a52.049,52.049,0,0,1-1.54-7.483c-.337-3.607-2.7-10.524-5.267-9.688S825.068-212.17,825.068-212.17Z" transform="translate(-788.941 237.243)" fill="#ffadb7"/>
        <path id="Trazado_114901" data-name="Trazado 114901" d="M836.245-218.584l.4,1.507s-.363,2.34-3.813,4.671a20.824,20.824,0,0,1-5.759,2.92l1.642,4.862a17.115,17.115,0,0,0,2.669-1.4c1.374-.891,6.721-4.534,7.451-6.183a3.366,3.366,0,0,0,.4-2.435l-2.015-3.878Z" transform="translate(-788.046 241.702)" fill="#e0e9ff"/>
        <path id="Trazado_114902" data-name="Trazado 114902" d="M826.636-214.069c-.016.609.843,1.741,1.457,2.568a9.544,9.544,0,0,1-3.169,3.448s-.22-4.243-.091-5.12S826.636-214.069,826.636-214.069Z" transform="translate(-789.064 243.717)" fill="#e0e9ff"/>
        <path id="Trazado_114903" data-name="Trazado 114903" d="M811.925-191.365a6.314,6.314,0,0,1,.616,2.625,9.465,9.465,0,0,1-.616,3.172,8.389,8.389,0,0,1-2.236,1.552,5.917,5.917,0,0,1-2.762,0s-4.038-5.066-4.038-5.295a6.984,6.984,0,0,1,.136-.866l3.1-1.78,4.107.229Z" transform="translate(-798.839 253.584)" fill="#ffadb7"/>
        <path id="Trazado_114904" data-name="Trazado 114904" d="M826.766-181.344s-1.446.046-1.945.137-1.684.457-1.684.457a1.587,1.587,0,0,1-1.437.684c-1.07,0-1.073-.6-1.073-.9s1.437-1.05,1.917-1.461a16.253,16.253,0,0,1,3.1-.674,15.9,15.9,0,0,1,3.871.707c.734.395,1.174.681,1.174.681A8.176,8.176,0,0,1,826.766-181.344Z" transform="translate(-790.923 257.535)" fill="#ffadb7"/>
        <g id="Grupo_127805" data-name="Grupo 127805" transform="translate(0 55.106)">
          <g id="Grupo_127804" data-name="Grupo 127804" style="isolation: isolate">
            <g id="Grupo_127798" data-name="Grupo 127798" transform="translate(38.659 32.246)">
              <path id="Trazado_114905" data-name="Trazado 114905" d="M828.022-173.421l-.959,1.195c.094-.117.02-.369-.245-.749l.957-1.195C828.042-173.79,828.115-173.538,828.022-173.421Z" transform="translate(-826.819 174.17)" fill="#2e3442"/>
            </g>
            <g id="Grupo_127799" data-name="Grupo 127799" transform="translate(0.038)">
              <path id="Trazado_114906" data-name="Trazado 114906" d="M800.115-195.2l.959-1.195c.142-.178.67-.042,1.488.431l-.958,1.195C800.786-195.238,800.258-195.374,800.115-195.2Z" transform="translate(-800.115 196.466)" fill="#2e3442"/>
            </g>
            <g id="Grupo_127800" data-name="Grupo 127800" transform="translate(27.794 16.706)">
              <path id="Trazado_114907" data-name="Trazado 114907" d="M819.306-183.72l.958-1.195,10.865,15.54-.958,1.195Z" transform="translate(-819.306 184.915)" fill="#2e3442"/>
            </g>
            <g id="Grupo_127801" data-name="Grupo 127801" transform="translate(1.528 0.506)">
              <path id="Trazado_114908" data-name="Trazado 114908" d="M801.145-194.922l.958-1.195L824.7-183.072l-.959,1.195Z" transform="translate(-801.145 196.116)" fill="#2e3442"/>
            </g>
            <g id="Grupo_127802" data-name="Grupo 127802" transform="translate(24.121 13.55)">
              <path id="Trazado_114909" data-name="Trazado 114909" d="M816.767-185.9l.957-1.195a13.551,13.551,0,0,1,3.674,3.156l-.959,1.195A13.542,13.542,0,0,0,816.767-185.9Z" transform="translate(-816.767 187.097)" fill="#2e3442"/>
            </g>
            <g id="Grupo_127803" data-name="Grupo 127803" transform="translate(0 1.194)">
              <path id="Trazado_114910" data-name="Trazado 114910" d="M824.21-182.09a13.542,13.542,0,0,1,3.672,3.156l10.866,15.54c.67.959.113,1.1-1.244.318l-22.595-13.045a13.493,13.493,0,0,1-3.672-3.156l-10.864-15.54c-.671-.959-.113-1.1,1.244-.317Z" transform="translate(-800.089 195.64)" fill="#2e3442"/>
            </g>
          </g>
        </g>
        <path id="Trazado_114911" data-name="Trazado 114911" d="M804.688-189.223a9.009,9.009,0,0,1,2.015.286c.24.188.1.788.1.788l1.009-.839s.8.515.813,1.037c.283.366.762.777.8,1.36l.033.581a1.421,1.421,0,0,1,.257,1.182c-.222.529-1.865,1.385-1.865,1.385s-2.141-.531-2.414-.941a2.751,2.751,0,0,1-.153-1.386l-.205-.445a1.335,1.335,0,0,1-1.114-.24c-.564-.411-.324-1.438-.324-1.438a3.8,3.8,0,0,1-1.2-.992c-.308-.513.531-1.763.531-1.763l.285-.08.434,1.054Z" transform="translate(-799.07 254.133)" fill="#ffadb7"/>
        <path id="Trazado_114912" data-name="Trazado 114912" d="M828.181-172.033c.959,1.388,1.631,1.248,3.6.764s22.423-10.294,20.97-16.808-8.731-3.9-9.925-2.754a66.1,66.1,0,0,1-8.953,7.784c-4.935,3.522-7.893,4.774-8.222,5.49S828.181-172.033,828.181-172.033Z" transform="translate(-788.691 253.42)" fill="#e0e9ff"/>
        <path id="Trazado_114913" data-name="Trazado 114913" d="M831.024-181.975a10.817,10.817,0,0,0-2.24-.73,31.481,31.481,0,0,0-4.564.775s-2.762,1.255-2.807,1.689-.114,1.734-.114,1.734l.182.388a3.043,3.043,0,0,0-.182,1.279,1.818,1.818,0,0,0,.593.8,1.948,1.948,0,0,0,.32,1.05c.3.3.525.252.525.252a4.231,4.231,0,0,0,.5,1.118,5.286,5.286,0,0,0,1.529.434,10.112,10.112,0,0,0,2.945,0c.868-.275,3.643-2.534,4.191-2.693a1.912,1.912,0,0,0,.889-.616S832.316-181.049,831.024-181.975Z" transform="translate(-790.635 257.71)" fill="#ffadb7"/>
        <path id="Trazado_114914" data-name="Trazado 114914" d="M820.612-227.71c-.58,1.18-1.445,1.8-.927,4.849a68.159,68.159,0,0,0,3.031,10.629c.721,1.588,2.6,5.115,3.249,5.661s2.5.665,3.543.626,6.459-3.95,7.17-6.054.583-10.535-.741-13.31S823.03-228.52,820.612-227.71Z" transform="translate(-791.414 237.467)" fill="#ffadb7"/>
        <path id="Trazado_114915" data-name="Trazado 114915" d="M823.709-220.971a15.256,15.256,0,0,0,2.437-.026c.953-.088,1.841-.444,2.79-.522a1.543,1.543,0,0,1,.656.058c.608.227.517,1.3.635,1.841a3.559,3.559,0,0,0,.638,1.666c.8.84,2.776,1.4,3.274,3.618l.277,1.811,1.394-1.038a29.256,29.256,0,0,1-.116-3.717c.113-1.176,1.4-3.2,2.737-.968-.246,1.812-.141,2.383.946,4.682.847-3.919,1.653-4.726,1.789-9.521s-1.025-9.528-6.214-10.192c-4.577-2.343-8.29-1.474-12.49,2.444-4.154,3.876-3.423,7.616-3.407,7.7a2.893,2.893,0,0,0,.83,1.29,7.648,7.648,0,0,0,3.467.848C823.47-220.99,823.59-220.98,823.709-220.971Z" transform="translate(-791.651 234.569)" fill="#202459"/>
        <g id="Grupo_127806" data-name="Grupo 127806" transform="translate(36.912 8.891)">
          <path id="Trazado_114916" data-name="Trazado 114916" d="M826.545-219.988a2.641,2.641,0,0,1-.934-.15l.383-1.025c1.18.451,4.087-.872,6.9-2.139l.478-.215c3.618-1.63,4.009-3.973,4.009-4.9h1.092c0,1.144-.453,4.008-4.651,5.9l-.478.215C830.62-221.077,828.2-219.988,826.545-219.988Z" transform="translate(-825.611 228.421)" fill="#d4dff7"/>
        </g>
        <path id="Trazado_114917" data-name="Trazado 114917" d="M831.313-222.435c.206-1.355.807-1.738,1.844-1.707s1.394.618,1.08,2.842-1.161,3.339-2.126,3.457-.856-.975-.813-1.63S831.313-222.435,831.313-222.435Z" transform="translate(-786.173 239.221)" fill="#ffadb7"/>
      </g>
      <path id="Trazado_114918" data-name="Trazado 114918" d="M842.226-225.167c-.259,3.62-8.15,7.311-13.852,8.215s-9.042-.453-10.4-2.589a17.451,17.451,0,0,1,.365-8.174,14.814,14.814,0,0,1,2.262-4.612c4.572-4.43,11.867-4,13.416-3.629,4.894,1.827,7.687,5.494,8.146,9.473A9.873,9.873,0,0,1,842.226-225.167Z" transform="translate(-792.247 236.468)" fill="#ffae00"/>
      <path id="Trazado_114919" data-name="Trazado 114919" d="M836.564-232.941c.556,2.707-2.887,5.7-7.692,6.689s-9.149-.411-9.7-3.12,2.888-5.7,7.691-6.689S836.009-235.65,836.564-232.941Z" transform="translate(-791.6 236.377)" fill="#ffae00"/>
      <path id="Trazado_114920" data-name="Trazado 114920" d="M818.076-225.28a4.055,4.055,0,0,0-.613,4.064c1,2.142,6.289,3.19,9.845,2.324s6.139-4.184,6.139-4.184-7.169,2.547-12.351.654C818.755-223.7,818.551-223.922,818.076-225.28Z" transform="translate(-792.482 241.329)" fill="#ffbb29"/>
      <path id="Trazado_114921" data-name="Trazado 114921" d="M833.371-233.106c.4,1.961-2.09,4.128-5.566,4.842s-6.621-.3-7.023-2.258,2.09-4.128,5.567-4.842S832.969-235.066,833.371-233.106Z" transform="translate(-790.873 236.727)" fill="#ffbb29"/>
      <path id="Trazado_114922" data-name="Trazado 114922" d="M842.226-227.777c-.259,3.62-8.15,7.311-13.852,8.215s-9.042-.453-10.4-2.589a17.451,17.451,0,0,1,.365-8.174c.394,3.678,2.278,6.4,7.277,7.295,4.51.813,13.563-1.6,16.546-6.063A9.872,9.872,0,0,1,842.226-227.777Z" transform="translate(-792.247 239.077)" fill="#f59200"/>
    </g>
    <g id="Grupo_127816" data-name="Grupo 127816" transform="translate(749.664 -121.129)">
      <path id="Trazado_114923" data-name="Trazado 114923" d="M761.724-90.9l35.922-20.74,35.732,20.63-35.922,20.74Z" transform="translate(-708.752 209.228)" fill="#cdd2d6" style="mix-blend-mode: multiply;isolation: isolate"/>
      <path id="Trazado_114924" data-name="Trazado 114924" d="M725.1-104.082,775.18-133,825-104.236,774.914-75.32Z" transform="translate(-725.097 199.698)" fill="#cdd2d6" style="mix-blend-mode: multiply;isolation: isolate"/>
      <g id="Grupo_127815" data-name="Grupo 127815" transform="translate(7.511)">
        <g id="Grupo_127809" data-name="Grupo 127809" transform="translate(0 24.846)">
          <path id="Trazado_114925" data-name="Trazado 114925" d="M730.291-98.751,772.6-74.326v-46.192l-42.306-24.425Z" transform="translate(-730.291 169.522)" fill="#ae835b"/>
          <path id="Trazado_114926" data-name="Trazado 114926" d="M802.114-98.857,759.542-74.279v-46.192l42.571-24.579Z" transform="translate(-717.237 169.474)" fill="#c99a6b"/>
          <path id="Trazado_114927" data-name="Trazado 114927" d="M786.431-103.7v34.485l30.12-17.39v-34.485Z" transform="translate(-705.237 180.168)" fill="#c99a6b"/>
          <path id="Trazado_114928" data-name="Trazado 114928" d="M765.735-86.526l29.932,17.281v-34.486l-29.932-17.281Z" transform="translate(-714.473 180.201)" fill="#ae835b"/>
          <path id="Trazado_114929" data-name="Trazado 114929" d="M765.735-115.646l29.932,17.281,30.12-17.39-29.932-17.281Z" transform="translate(-714.473 174.835)" fill="#e8b687"/>
          <path id="Trazado_114930" data-name="Trazado 114930" d="M730.291-137.359,772.6-112.934l42.571-24.578-42.306-24.425Z" transform="translate(-730.291 161.938)" fill="#e8b687"/>
        </g>
        <g id="Grupo_127810" data-name="Grupo 127810" transform="translate(63.813 73.892)">
          <path id="Trazado_114931" data-name="Trazado 114931" d="M800.126-100.024l-5.017,2.9V-113.18l5.017-2.9Z" transform="translate(-765.178 133.357)" fill="#4c70f5"/>
          <path id="Trazado_114932" data-name="Trazado 114932" d="M809.362-110.744l-5.016,2.9-29.932-17.281,5.017-2.9Z" transform="translate(-774.413 128.025)" fill="#6182ff"/>
        </g>
        <g id="Grupo_127811" data-name="Grupo 127811" transform="translate(18.645 35.61)">
          <path id="Trazado_114933" data-name="Trazado 114933" d="M743.182-117.223l5.016,2.9V-134.6l-5.016-2.9Z" transform="translate(-743.182 162.079)" fill="#415dd6"/>
          <path id="Trazado_114934" data-name="Trazado 114934" d="M743.182-129.916l5.016,2.9L790.77-151.6l-5.016-2.9Z" transform="translate(-743.182 154.495)" fill="#6182ff"/>
        </g>
        <path id="Trazado_114935" data-name="Trazado 114935" d="M737.985-142.737,768.1-160.127l29.959,17.3-30.119,17.389Z" transform="translate(-726.857 187.592)" fill="#ae835b"/>
        <g id="Grupo_127814" data-name="Grupo 127814" transform="translate(15.647)">
          <g id="Grupo_127812" data-name="Grupo 127812">
            <path id="Trazado_114936" data-name="Trazado 114936" d="M766.709-154.183v29.87l-25.6-14.779v-29.87Z" transform="translate(-741.11 183.649)" fill="#ae835b"/>
            <path id="Trazado_114937" data-name="Trazado 114937" d="M784.249-139.028,758.81-124.341v-29.87L784.249-168.9Z" transform="translate(-733.211 183.678)" fill="#c99a6b"/>
            <path id="Trazado_114938" data-name="Trazado 114938" d="M792.147-164.338l-25.439,14.687-25.6-14.779,25.439-14.687Z" transform="translate(-741.11 179.117)" fill="#e8b687"/>
          </g>
          <g id="Grupo_127813" data-name="Grupo 127813" transform="translate(10.211 5.896)">
            <path id="Trazado_114939" data-name="Trazado 114939" d="M770.887-150.088l-5.017,2.9v-14.734l5.017-2.9Z" transform="translate(-740.271 179.601)" fill="#4c70f5"/>
            <path id="Trazado_114940" data-name="Trazado 114940" d="M778.785-160.262l-5.017,2.9-25.6-14.779,5.016-2.9Z" transform="translate(-748.17 175.041)" fill="#6182ff"/>
          </g>
        </g>
      </g>
    </g>
  </g>
</svg>
