<svg xmlns="http://www.w3.org/2000/svg" xmlns:xlink="http://www.w3.org/1999/xlink" width="417.077" height="333.782" viewBox="0 0 417.077 333.782">
  <defs>
    <clipPath id="clip-path">
      <path id="Trazado_114944" data-name="Trazado 114944" d="M1748.479,167.069l-4.621,8.848,46.025,24.043V188.7Z" fill="#1b3f5e"/>
    </clipPath>
    <clipPath id="clip-path-2">
      <path id="Trazado_114947" data-name="Trazado 114947" d="M1836.221,212.9,1789.882,188.7V199.96l41.718,21.793Z" fill="none"/>
    </clipPath>
    <clipPath id="clip-path-3">
      <path id="Trazado_114950" data-name="Trazado 114950" d="M1831.6,232.117l-41.718,21.793v11.262l46.338-24.207Z" fill="none"/>
    </clipPath>
    <clipPath id="clip-path-4">
      <path id="Trazado_114953" data-name="Trazado 114953" d="M1743.858,277.953l4.621,8.848,41.4-21.629V253.91Z" fill="none"/>
    </clipPath>
    <clipPath id="clip-path-5">
      <path id="Trazado_114956" data-name="Trazado 114956" d="M1743.858,308.563l46.025,24.043V321.344l-41.4-21.629Z" fill="none"/>
    </clipPath>
    <clipPath id="clip-path-6">
      <path id="Trazado_114959" data-name="Trazado 114959" d="M1836.221,373.889l-4.621-8.848-41.718,21.793V398.1Z" fill="none"/>
    </clipPath>
    <clipPath id="clip-path-7">
      <path id="Trazado_114962" data-name="Trazado 114962" d="M1831.6,354.4l4.621-8.848-46.338-24.207v11.262Z" fill="none"/>
    </clipPath>
    <clipPath id="clip-path-8">
      <path id="Trazado_114965" data-name="Trazado 114965" d="M1748.479,419.724l41.4-21.629V386.833l-46.025,24.043Z" fill="none"/>
    </clipPath>
  </defs>
  <g id="Grupo_129540" data-name="Grupo 129540" transform="translate(-591 -4713.3)">
    <g id="Grupo_129036" data-name="Grupo 129036" transform="translate(-987.214 4586.794)">
      <g id="Grupo_127854" data-name="Grupo 127854">
        <g id="Grupo_127832" data-name="Grupo 127832">
          <path id="Trazado_114941" data-name="Trazado 114941" d="M1748.479,167.069l-4.621,8.848,46.025,24.043V188.7Z" fill="#f05669"/>
          <g id="Grupo_127831" data-name="Grupo 127831">
            <path id="Trazado_114942" data-name="Trazado 114942" d="M1748.479,167.069l-4.621,8.848,46.025,24.043V188.7Z" fill="#102538"/>
            <g id="Grupo_127830" data-name="Grupo 127830" clip-path="url(#clip-path)">
              <path id="Trazado_114943" data-name="Trazado 114943" d="M1725.791,205.873a38.633,38.633,0,0,0,0-77.266" fill="#5e5e5e" style="mix-blend-mode: hard-light;isolation: isolate"/>
            </g>
          </g>
        </g>
        <g id="Grupo_127835" data-name="Grupo 127835">
          <path id="Trazado_114945" data-name="Trazado 114945" d="M1836.221,212.9,1789.882,188.7V199.96l41.718,21.793Z" fill="#15324b"/>
          <g id="Grupo_127834" data-name="Grupo 127834">
            <g id="Grupo_127833" data-name="Grupo 127833" clip-path="url(#clip-path-2)">
              <path id="Trazado_114946" data-name="Trazado 114946" d="M1848.24,190.371a38.633,38.633,0,0,0,0,77.266" fill="#6e6e6e" style="mix-blend-mode: hard-light;isolation: isolate"/>
            </g>
          </g>
        </g>
        <g id="Grupo_127838" data-name="Grupo 127838">
          <path id="Trazado_114948" data-name="Trazado 114948" d="M1831.6,232.117l-41.718,21.793v11.262l46.338-24.207Z" fill="#15324b"/>
          <g id="Grupo_127837" data-name="Grupo 127837">
            <g id="Grupo_127836" data-name="Grupo 127836" clip-path="url(#clip-path-3)">
              <path id="Trazado_114949" data-name="Trazado 114949" d="M1848.24,190.371a38.633,38.633,0,0,0,0,77.266" fill="#6e6e6e" style="mix-blend-mode: hard-light;isolation: isolate"/>
            </g>
          </g>
        </g>
        <g id="Grupo_127841" data-name="Grupo 127841">
          <path id="Trazado_114951" data-name="Trazado 114951" d="M1743.858,277.953l4.621,8.848,41.4-21.629V253.91Z" fill="#1b3f5e"/>
          <g id="Grupo_127840" data-name="Grupo 127840">
            <g id="Grupo_127839" data-name="Grupo 127839" clip-path="url(#clip-path-4)">
              <path id="Trazado_114952" data-name="Trazado 114952" d="M1727.529,334.786a38.633,38.633,0,0,0,0-77.266" fill="#6e6e6e" style="mix-blend-mode: hard-light;isolation: isolate"/>
            </g>
          </g>
        </g>
        <g id="Grupo_127844" data-name="Grupo 127844">
          <path id="Trazado_114954" data-name="Trazado 114954" d="M1743.858,308.563l46.025,24.043V321.344l-41.4-21.629Z" fill="#1b3f5e"/>
          <g id="Grupo_127843" data-name="Grupo 127843">
            <g id="Grupo_127842" data-name="Grupo 127842" clip-path="url(#clip-path-5)">
              <path id="Trazado_114955" data-name="Trazado 114955" d="M1727.529,334.786a38.633,38.633,0,0,0,0-77.266" fill="#6e6e6e" style="mix-blend-mode: hard-light;isolation: isolate"/>
            </g>
          </g>
        </g>
        <g id="Grupo_127847" data-name="Grupo 127847">
          <path id="Trazado_114957" data-name="Trazado 114957" d="M1836.221,373.889l-4.621-8.848-41.718,21.793V398.1Z" fill="#afbcc7"/>
          <g id="Grupo_127846" data-name="Grupo 127846">
            <g id="Grupo_127845" data-name="Grupo 127845" clip-path="url(#clip-path-6)">
              <path id="Trazado_114958" data-name="Trazado 114958" d="M1846.61,323.281a38.633,38.633,0,0,0,0,77.266" fill="#6e6e6e" style="mix-blend-mode: hard-light;isolation: isolate"/>
            </g>
          </g>
        </g>
        <g id="Grupo_127850" data-name="Grupo 127850">
          <path id="Trazado_114960" data-name="Trazado 114960" d="M1831.6,354.4l4.621-8.848-46.338-24.207v11.262Z" fill="#afbcc7"/>
          <g id="Grupo_127849" data-name="Grupo 127849">
            <g id="Grupo_127848" data-name="Grupo 127848" clip-path="url(#clip-path-7)">
              <path id="Trazado_114961" data-name="Trazado 114961" d="M1846.61,323.281a38.633,38.633,0,0,0,0,77.266" fill="#6e6e6e" style="mix-blend-mode: hard-light;isolation: isolate"/>
            </g>
          </g>
        </g>
        <g id="Grupo_127853" data-name="Grupo 127853">
          <path id="Trazado_114963" data-name="Trazado 114963" d="M1748.479,419.724l41.4-21.629V386.833l-46.025,24.043Z" fill="#dde2e7"/>
          <g id="Grupo_127852" data-name="Grupo 127852">
            <g id="Grupo_127851" data-name="Grupo 127851" clip-path="url(#clip-path-8)">
              <path id="Trazado_114964" data-name="Trazado 114964" d="M1726.536,460.222a38.633,38.633,0,0,0,0-77.266" fill="#6e6e6e" style="mix-blend-mode: hard-light;isolation: isolate"/>
            </g>
          </g>
        </g>
      </g>
      <g id="Grupo_127862" data-name="Grupo 127862">
        <g id="Grupo_127855" data-name="Grupo 127855">
          <circle id="Elipse_4740" data-name="Elipse 4740" cx="38.633" cy="38.633" r="38.633" transform="translate(1682.841 126.506)" fill="#102538"/>
          <path id="Trazado_114966" data-name="Trazado 114966" d="M1605.2,203.8h114.92V126.541H1605.189a9.537,9.537,0,0,0-8.178,4.63l-17.437,29.051a9.536,9.536,0,0,0-.005,9.809l17.444,29.129A9.536,9.536,0,0,0,1605.2,203.8Z" fill="#102538"/>
        </g>
        <g id="Grupo_127857" data-name="Grupo 127857">
          <g id="Grupo_127856" data-name="Grupo 127856">
            <circle id="Elipse_4741" data-name="Elipse 4741" cx="38.633" cy="38.633" r="38.633" transform="translate(1683.738 383.022)" fill="#dde2e7"/>
            <path id="Trazado_114967" data-name="Trazado 114967" d="M1607.728,460.254h114.921V383H1607.722a9.538,9.538,0,0,0-8.178,4.629l-17.438,29.052a9.538,9.538,0,0,0-.005,9.809l17.444,29.129A9.538,9.538,0,0,0,1607.728,460.254Z" fill="#dde2e7"/>
          </g>
        </g>
        <g id="Grupo_127858" data-name="Grupo 127858">
          <circle id="Elipse_4742" data-name="Elipse 4742" cx="38.633" cy="38.633" r="38.633" transform="translate(1814.618 190.138)" fill="#15324b"/>
          <path id="Trazado_114968" data-name="Trazado 114968" d="M1968.309,190.13H1853.388v77.256h114.927a9.538,9.538,0,0,0,8.178-4.629l17.438-29.052a9.541,9.541,0,0,0,.005-9.809l-17.444-29.129A9.537,9.537,0,0,0,1968.309,190.13Z" fill="#15324b"/>
        </g>
        <g id="Grupo_127860" data-name="Grupo 127860">
          <g id="Grupo_127859" data-name="Grupo 127859">
            <circle id="Elipse_4743" data-name="Elipse 4743" cx="38.633" cy="38.633" r="38.633" transform="translate(1675.956 267.426) rotate(-13.18)" fill="#1b3f5e"/>
            <path id="Trazado_114969" data-name="Trazado 114969" d="M1605.273,334.812h114.92V257.555H1605.266a9.538,9.538,0,0,0-8.178,4.629l-17.438,29.052a9.539,9.539,0,0,0,0,9.809l17.444,29.129A9.536,9.536,0,0,0,1605.273,334.812Z" fill="#1b3f5e"/>
          </g>
        </g>
        <g id="Grupo_127861" data-name="Grupo 127861">
          <path id="Trazado_114971" data-name="Trazado 114971" d="M38.633,0A38.633,38.633,0,1,1,0,38.633,38.633,38.633,0,0,1,38.633,0Z" transform="matrix(0.987, -0.16, 0.16, 0.987, 1808.078, 330.522)" fill="#afbcc7"/>
          <path id="Trazado_114970" data-name="Trazado 114970" d="M1968.309,323.838H1853.388v77.256h114.927a9.538,9.538,0,0,0,8.178-4.629l17.438-29.052a9.541,9.541,0,0,0,.005-9.809l-17.444-29.129A9.54,9.54,0,0,0,1968.309,323.838Z" fill="#afbcc7"/>
        </g>
      </g>
    </g>
    <text id="Justo_a_tiempo" data-name="Justo a tiempo" transform="translate(627 4756)" fill="#fff" font-size="16" font-family="Roboto-Black, Roboto" font-weight="800"><tspan x="0" y="0">Justo a tiempo</tspan></text>
    <text id="Niveles_mínimos_de_mercancía" data-name="Niveles mínimos
de mercancía" transform="translate(921 4813)" fill="#fff" font-size="16" font-family="Roboto-Black, Roboto" font-weight="800"><tspan x="-60.313" y="0">Niveles mínimos</tspan><tspan x="-48.648" y="20">de mercancía</tspan></text>
    <text id="Sistema_ABC" data-name="Sistema ABC" transform="translate(684 4888)" fill="#fff" font-size="16" font-family="Roboto-Black, Roboto" font-weight="800"><tspan x="-47.395" y="0">Sistema ABC</tspan></text>
    <text id="FIFO_o_PEP" data-name="FIFO o PEP" transform="translate(918 4956)" fill="#12263f" font-size="16" font-family="Roboto-Black, Roboto" font-weight="800"><tspan x="-40.055" y="0">FIFO o PEP</tspan></text>
    <text id="EOQ" transform="translate(689 5014)" fill="#12263f" font-size="16" font-family="Roboto-Black, Roboto" font-weight="800"><tspan x="-15.523" y="0">EOQ</tspan></text>
  </g>
</svg>
