<svg xmlns="http://www.w3.org/2000/svg" width="1331" height="500.048" viewBox="0 0 1331 500.048">
  <g id="Grupo_129520" data-name="Grupo 129520" transform="translate(8731.141 14466.727)">
    <path id="Trazado_189829" data-name="Trazado 189829" d="M2049.515,274.9a18.943,18.943,0,0,0,.3-3.43c0-14.7-15.342-26.613-34.272-26.613s-34.272,11.912-34.272,26.613a18.943,18.943,0,0,0,.3,3.43h-30.317v-94.61a19.366,19.366,0,0,0,4.779.572c14.062,0,25.448-14.244,25.448-31.826s-11.386-31.826-25.448-31.826a19.416,19.416,0,0,0-4.779.571V82.27c106.362,0,192.6,86.242,192.6,192.626Z" transform="translate(-10008.15 -14548.996)" fill="#1b3f5e"/>
    <path id="Trazado_189830" data-name="Trazado 189830" d="M2144,281.863c0,106.363-86.242,192.6-192.6,192.6V412.942a23.919,23.919,0,0,0,5.739.686c15.8,0,28.6-15.342,28.6-34.273s-12.8-34.272-28.6-34.272a23.867,23.867,0,0,0-5.739.686v-63.9h47.67c-5.692-3.269-9.694-8.208-10.86-13.855a15.621,15.621,0,0,1-.366-3.43c0-11.89,12.392-21.515,27.688-21.515s27.71,9.625,27.71,21.515a15.57,15.57,0,0,1-.366,3.43c-1.166,5.647-5.167,10.586-10.86,13.855Z" transform="translate(-10008.143 -14540.107)" fill="#fff59d"/>
    <path id="Trazado_189831" data-name="Trazado 189831" d="M1989.163,377.42c0,15.3-10.357,27.688-23.116,27.688a20.15,20.15,0,0,1-5.738-.846,23.453,23.453,0,0,1-12.644-10.083v76.479c-106.385,0-192.626-86.242-192.626-192.6h57.914a20.492,20.492,0,0,0-.549,4.755c0,14.7,14.975,26.591,33.426,26.591s33.4-11.89,33.4-26.591a20.531,20.531,0,0,0-.548-4.755h68.979v82.583a23.456,23.456,0,0,1,12.644-10.082,20.15,20.15,0,0,1,5.738-.846C1978.806,349.709,1989.163,362.125,1989.163,377.42Z" transform="translate(-10018.996 -14538.174)" fill="#1b3f5e"/>
    <path id="Trazado_189832" data-name="Trazado 189832" d="M1985.285,149.032c0,14.061-9.1,25.447-20.348,25.447a16.652,16.652,0,0,1-4.779-.709c-5.349-1.6-9.9-5.853-12.667-11.591V274.9h-82.9a22.078,22.078,0,0,1,8.8,11.981,18.352,18.352,0,0,1,.64,4.755c0,12.392-12.621,22.452-28.192,22.452s-28.213-10.06-28.213-22.452a18.351,18.351,0,0,1,.64-4.755,22.013,22.013,0,0,1,8.825-11.981h-72.226c0-106.385,86.243-192.626,192.626-192.626v53.592c2.767-5.739,7.317-9.991,12.667-11.592a16.687,16.687,0,0,1,4.779-.708C1976.185,123.562,1985.285,134.971,1985.285,149.032Z" transform="translate(-10019.006 -14548.996)" fill="#fff59d"/>
    <text id="Demanda" transform="translate(-8003.141 -14360.383)" fill="#fff" font-size="18" font-family="Roboto-Black, Roboto" font-weight="800"><tspan x="0" y="19">Demanda</tspan></text>
    <text id="Tipo_de_Producto" data-name="Tipo de 
Producto" transform="translate(-8206.141 -14371.383)" fill="#12263f" font-size="18" font-family="Roboto-Black, Roboto" font-weight="800"><tspan x="22.528" y="19">Tipo de </tspan><tspan x="16.011" y="39">Producto</tspan></text>
    <text id="Costos" transform="translate(-8003.141 -14196.383)" fill="#12263f" font-size="18" font-family="Roboto-Black, Roboto" font-weight="800"><tspan x="4.809" y="19">Costos</tspan></text>
    <text id="Capacidad_de_almacenamiento" data-name="Capacidad de almacenamiento" transform="translate(-8224.141 -14206.383)" fill="#fff" font-size="18" font-family="Roboto-Black, Roboto" font-weight="800"><tspan x="14.718" y="19">Capacidad de </tspan><tspan x="2.079" y="39">almacenamiento</tspan></text>
    <g id="Grupo_129519" data-name="Grupo 129519" transform="translate(-8960.004 -14441.285)">
      <path id="Trazado_114975" data-name="Trazado 114975" d="M812.618,386.057h-43.4l32.891,69.9-32.891,69.9h43.4l32.891-69.9Z" transform="translate(-540.358 -386.057)" fill="#f0f8ff"/>
      <path id="Trazado_114976" data-name="Trazado 114976" d="M828.9,386.057h-43.4l32.89,69.9-32.89,69.9h43.4l32.89-69.9Z" transform="translate(-475.715 -386.057)" fill="#f0f8ff"/>
      <path id="Trazado_114977" data-name="Trazado 114977" d="M845.189,386.057h-43.4l32.89,69.9-32.89,69.9h43.4l32.89-69.9Z" transform="translate(-411.072 -386.057)" fill="#f0f8ff"/>
      <path id="Trazado_114978" data-name="Trazado 114978" d="M861.475,386.058h-43.4l32.89,69.9-32.89,69.9h43.4l32.89-69.9Z" transform="translate(-346.429 -386.057)" fill="#f0f8ff"/>
      <path id="Trazado_114979" data-name="Trazado 114979" d="M877.76,386.058h-43.4l32.89,69.9-32.89,69.9h43.4l32.89-69.9Z" transform="translate(-281.786 -386.057)" fill="#f0f8ff"/>
    </g>
    <path id="Trazado_189833" data-name="Trazado 189833" d="M812.618,386.057h-43.4l32.891,69.9-32.891,69.9h43.4l32.891-69.9Z" transform="translate(-6630.92 -13580.621) rotate(180)" fill="#f0f8ff"/>
    <path id="Trazado_189834" data-name="Trazado 189834" d="M828.9,386.057h-43.4l32.89,69.9-32.89,69.9h43.4l32.89-69.9Z" transform="translate(-6695.563 -13580.621) rotate(180)" fill="#f0f8ff"/>
    <path id="Trazado_189835" data-name="Trazado 189835" d="M845.189,386.057h-43.4l32.89,69.9-32.89,69.9h43.4l32.89-69.9Z" transform="translate(-6760.206 -13580.621) rotate(180)" fill="#f0f8ff"/>
    <path id="Trazado_189836" data-name="Trazado 189836" d="M861.475,386.058h-43.4l32.89,69.9-32.89,69.9h43.4l32.89-69.9Z" transform="translate(-6824.849 -13580.621) rotate(180)" fill="#f0f8ff"/>
    <path id="Trazado_189837" data-name="Trazado 189837" d="M877.76,386.058h-43.4l32.89,69.9-32.89,69.9h43.4l32.89-69.9Z" transform="translate(-6889.492 -13580.621) rotate(180)" fill="#f0f8ff"/>
  </g>
</svg>
