<svg xmlns="http://www.w3.org/2000/svg" width="1084" height="595" viewBox="0 0 1084 595">
  <g id="Grupo_129424" data-name="Grupo 129424" transform="translate(-258.333 -526)">
    <g id="Grupo_129423" data-name="Grupo 129423">
      <g id="Grupo_129422" data-name="Grupo 129422">
        <g id="Grupo_129415" data-name="Grupo 129415" transform="translate(-57 -17)">
          <rect id="Rectángulo_41200" data-name="Rectángulo 41200" width="295" height="61" transform="translate(705.333 730)" fill="#1b3f5e"/>
          <text id="Manejo_de_los_inventarios" data-name="Manejo de los inventarios" transform="translate(733.333 748)" fill="#fff" font-size="20" font-family="Roboto-Black, Roboto" font-weight="800"><tspan x="0" y="21">Manejo de los inventarios</tspan></text>
          <g id="Rectángulo_41203" data-name="Rectángulo 41203" transform="translate(546.333 850)" fill="#dde2e7" stroke="#1b3f5e" stroke-width="1">
            <rect width="105" height="45" stroke="none"/>
            <rect x="0.5" y="0.5" width="104" height="44" fill="none"/>
          </g>
          <text id="Tecnología" transform="translate(558.333 862)" fill="#12263f" font-size="16" font-family="Roboto-Bold, Roboto" font-weight="700"><tspan x="0" y="17">Tecnología</tspan></text>
          <g id="Rectángulo_41207" data-name="Rectángulo 41207" transform="translate(315.333 559)" fill="#f0f8ff" stroke="#1b3f5e" stroke-width="1">
            <rect width="177" height="126" stroke="none"/>
            <rect x="0.5" y="0.5" width="176" height="125" fill="none"/>
          </g>
          <g id="Grupo_129410" data-name="Grupo 129410" transform="translate(63.333 55)">
            <text id="Tipo_de_producto_Demanda_Almacenamiento_Costos" data-name="Tipo de producto
Demanda
Almacenamiento 
Costos" transform="translate(288.333 520)" fill="#12263f" font-size="16" font-family="Roboto-Regular, Roboto"><tspan x="0" y="17">Tipo de producto</tspan><tspan x="0" y="41">Demanda</tspan><tspan x="0" y="65">Almacenamiento </tspan><tspan x="0" y="89">Costos</tspan></text>
            <g id="Grupo_129409" data-name="Grupo 129409">
              <g id="Grupo_423" data-name="Grupo 423" transform="translate(268 574.536)">
                <path id="Trazado_635" data-name="Trazado 635" d="M7.995,6.448,1.77.223a.763.763,0,0,0-1.078,0l0,0L.229.682a.763.763,0,0,0,0,1.078l0,0L5.456,6.991.223,12.224a.763.763,0,0,0,0,1.078l0,0,.459.459a.763.763,0,0,0,1.078,0l0,0L7.995,7.532a.772.772,0,0,0,0-1.086Z" transform="translate(0.002 0.002)" fill="#1b3f5e"/>
              </g>
              <g id="Grupo_423-2" data-name="Grupo 423" transform="translate(268 600.513)">
                <path id="Trazado_635-2" data-name="Trazado 635" d="M7.995,6.448,1.77.223a.763.763,0,0,0-1.078,0l0,0L.229.682a.763.763,0,0,0,0,1.078l0,0L5.456,6.991.223,12.224a.763.763,0,0,0,0,1.078l0,0,.459.459a.763.763,0,0,0,1.078,0l0,0L7.995,7.532a.772.772,0,0,0,0-1.086Z" transform="translate(0.002 0.002)" fill="#1b3f5e"/>
              </g>
              <g id="Grupo_423-3" data-name="Grupo 423" transform="translate(268 522.583)">
                <path id="Trazado_635-3" data-name="Trazado 635" d="M7.995,6.448,1.77.223a.763.763,0,0,0-1.078,0l0,0L.229.682a.763.763,0,0,0,0,1.078l0,0L5.456,6.991.223,12.224a.763.763,0,0,0,0,1.078l0,0,.459.459a.763.763,0,0,0,1.078,0l0,0L7.995,7.532a.772.772,0,0,0,0-1.086Z" transform="translate(0.002 0.002)" fill="#1b3f5e"/>
              </g>
              <g id="Grupo_423-4" data-name="Grupo 423" transform="translate(268 548.56)">
                <path id="Trazado_635-4" data-name="Trazado 635" d="M7.995,6.448,1.77.223a.763.763,0,0,0-1.078,0l0,0L.229.682a.763.763,0,0,0,0,1.078l0,0L5.456,6.991.223,12.224a.763.763,0,0,0,0,1.078l0,0,.459.459a.763.763,0,0,0,1.078,0l0,0L7.995,7.532a.772.772,0,0,0,0-1.086Z" transform="translate(0.002 0.002)" fill="#1b3f5e"/>
              </g>
            </g>
          </g>
          <path id="Trazado_189742" data-name="Trazado 189742" d="M-12321-9502.492h56.667" transform="translate(12813 10164.992)" fill="none" stroke="#707070" stroke-width="1"/>
          <path id="Trazado_189743" data-name="Trazado 189743" d="M-12108-9502.492h89.026v67.989" transform="translate(12759.333 10164.992)" fill="none" stroke="#707070" stroke-width="1"/>
          <path id="Trazado_189744" data-name="Trazado 189744" d="M-12108-9342.977h53.667" transform="translate(12759.333 10110)" fill="none" stroke="#707070" stroke-width="1"/>
          <g id="Rectángulo_41208" data-name="Rectángulo 41208" transform="translate(315.333 735)" fill="#f0f8ff" stroke="#1b3f5e" stroke-width="1">
            <rect width="177" height="62" stroke="none"/>
            <rect x="0.5" y="0.5" width="176" height="61" fill="none"/>
          </g>
          <path id="Trazado_189745" data-name="Trazado 189745" d="M-12321-9342h54.333" transform="translate(12813 10110)" fill="none" stroke="#707070" stroke-width="1"/>
          <text id="Software_horizontal_y_vertical_" data-name="Software horizontal y vertical
" transform="translate(329.333 744)" fill="#12263f" font-size="16" font-family="Roboto-Regular, Roboto"><tspan x="0" y="17">Software horizontal </tspan><tspan x="0" y="41">y vertical</tspan></text>
          <g id="Rectángulo_41215" data-name="Rectángulo 41215" transform="translate(546.333 745)" fill="#dde2e7" stroke="#1b3f5e" stroke-width="1">
            <rect width="105" height="45" stroke="none"/>
            <rect x="0.5" y="0.5" width="104" height="44" fill="none"/>
          </g>
          <text id="SIL" transform="translate(585.333 757)" fill="#12263f" font-size="16" font-family="Roboto-Bold, Roboto" font-weight="700"><tspan x="0" y="17">SIL</tspan></text>
          <g id="Rectángulo_41216" data-name="Rectángulo 41216" transform="translate(546.333 640)" fill="#dde2e7" stroke="#1b3f5e" stroke-width="1">
            <rect width="105" height="45" stroke="none"/>
            <rect x="0.5" y="0.5" width="104" height="44" fill="none"/>
          </g>
          <text id="Políticas" transform="translate(565.333 652)" fill="#12263f" font-size="16" font-family="Roboto-Bold, Roboto" font-weight="700"><tspan x="0" y="17">Políticas</tspan></text>
          <path id="Trazado_189746" data-name="Trazado 189746" d="M-12018.974-9319v81.523h-90.183" transform="translate(12759.333 10110)" fill="none" stroke="#707070" stroke-width="1"/>
          <g id="Rectángulo_41217" data-name="Rectángulo 41217" transform="translate(315.333 944)" fill="#f0f8ff" stroke="#1b3f5e" stroke-width="1">
            <rect width="177" height="41" stroke="none"/>
            <rect x="0.5" y="0.5" width="176" height="40" fill="none"/>
          </g>
          <path id="Trazado_189747" data-name="Trazado 189747" d="M-12321-9342h54.333" transform="translate(12813 10217)" fill="none" stroke="#707070" stroke-width="1"/>
          <text id="Productividad" transform="translate(354.333 953)" fill="#12263f" font-size="16" font-family="Roboto-Regular, Roboto"><tspan x="0" y="17">Productividad</tspan></text>
          <g id="Rectángulo_41218" data-name="Rectángulo 41218" transform="translate(315.333 995)" fill="#f0f8ff" stroke="#1b3f5e" stroke-width="1">
            <rect width="177" height="41" stroke="none"/>
            <rect x="0.5" y="0.5" width="176" height="40" fill="none"/>
          </g>
          <text id="Comunicación" transform="translate(351.333 1004)" fill="#12263f" font-size="16" font-family="Roboto-Regular, Roboto"><tspan x="0" y="17">Comunicación</tspan></text>
          <g id="Rectángulo_41219" data-name="Rectángulo 41219" transform="translate(315.333 842)" fill="#f0f8ff" stroke="#1b3f5e" stroke-width="1">
            <rect width="177" height="41" stroke="none"/>
            <rect x="0.5" y="0.5" width="176" height="40" fill="none"/>
          </g>
          <text id="Sucursales" transform="translate(363.333 851)" fill="#12263f" font-size="16" font-family="Roboto-Regular, Roboto"><tspan x="0" y="17">Sucursales</tspan></text>
          <g id="Rectángulo_41220" data-name="Rectángulo 41220" transform="translate(315.333 893)" fill="#f0f8ff" stroke="#1b3f5e" stroke-width="1">
            <rect width="177" height="41" stroke="none"/>
            <rect x="0.5" y="0.5" width="176" height="40" fill="none"/>
          </g>
          <text id="Omnipresentes" transform="translate(348.333 902)" fill="#12263f" font-size="16" font-family="Roboto-Regular, Roboto"><tspan x="0" y="17">Omnipresentes</tspan></text>
          <g id="Rectángulo_41221" data-name="Rectángulo 41221" transform="translate(315.333 1046)" fill="#f0f8ff" stroke="#1b3f5e" stroke-width="1">
            <rect width="177" height="41" stroke="none"/>
            <rect x="0.5" y="0.5" width="176" height="40" fill="none"/>
          </g>
          <text id="Competitividad" transform="translate(348.333 1055)" fill="#12263f" font-size="16" font-family="Roboto-Regular, Roboto"><tspan x="0" y="17">Competitividad</tspan></text>
          <g id="Rectángulo_41222" data-name="Rectángulo 41222" transform="translate(315.333 1097)" fill="#f0f8ff" stroke="#1b3f5e" stroke-width="1">
            <rect width="177" height="41" stroke="none"/>
            <rect x="0.5" y="0.5" width="176" height="40" fill="none"/>
          </g>
          <text id="Optimización" transform="translate(355.333 1106)" fill="#12263f" font-size="16" font-family="Roboto-Regular, Roboto"><tspan x="0" y="17">Optimización</tspan></text>
          <path id="Trazado_189748" data-name="Trazado 189748" d="M-12198-9215v18.617h-66.333" transform="translate(12756.333 10110)" fill="none" stroke="#707070" stroke-width="1"/>
          <path id="Trazado_189749" data-name="Trazado 189749" d="M-12198-9196.5v50.71h-66.333" transform="translate(12756.333 10110)" fill="none" stroke="#707070" stroke-width="1"/>
          <path id="Trazado_189750" data-name="Trazado 189750" d="M-12198-9196.5v50.71h-66.333" transform="translate(12756.333 10160.71)" fill="none" stroke="#707070" stroke-width="1"/>
          <path id="Trazado_189751" data-name="Trazado 189751" d="M-12198-9196.5v50.71h-66.333" transform="translate(12756.333 10209.71)" fill="none" stroke="#707070" stroke-width="1"/>
          <path id="Trazado_189752" data-name="Trazado 189752" d="M-12198-9196.5v50.71h-66.333" transform="translate(12756.333 10260.42)" fill="none" stroke="#707070" stroke-width="1"/>
          <g id="Rectángulo_41223" data-name="Rectángulo 41223" transform="translate(1054.333 883)" fill="#dde2e7" stroke="#1b3f5e" stroke-width="1">
            <rect width="105" height="45" stroke="none"/>
            <rect x="0.5" y="0.5" width="104" height="44" fill="none"/>
          </g>
          <text id="Tecnología-2" data-name="Tecnología" transform="translate(1066.333 895)" fill="#12263f" font-size="16" font-family="Roboto-Bold, Roboto" font-weight="700"><tspan x="0" y="17">Tecnología</tspan></text>
          <g id="Rectángulo_41224" data-name="Rectángulo 41224" transform="translate(1054.333 745)" fill="#dde2e7" stroke="#1b3f5e" stroke-width="1">
            <rect width="105" height="45" stroke="none"/>
            <rect x="0.5" y="0.5" width="104" height="44" fill="none"/>
          </g>
          <text id="SIL-2" data-name="SIL" transform="translate(1093.333 757)" fill="#12263f" font-size="16" font-family="Roboto-Bold, Roboto" font-weight="700"><tspan x="0" y="17">SIL</tspan></text>
          <g id="Rectángulo_41225" data-name="Rectángulo 41225" transform="translate(1054.333 606.756)" fill="#dde2e7" stroke="#1b3f5e" stroke-width="1">
            <rect width="105" height="45" stroke="none"/>
            <rect x="0.5" y="0.5" width="104" height="44" fill="none"/>
          </g>
          <text id="Normas" transform="translate(1073.333 618.756)" fill="#12263f" font-size="16" font-family="Roboto-Bold, Roboto" font-weight="700"><tspan x="0" y="17">Normas</tspan></text>
          <g id="Rectángulo_41226" data-name="Rectángulo 41226" transform="translate(1213.333 543)" fill="#f0f8ff" stroke="#1b3f5e" stroke-width="1">
            <rect width="186" height="109" stroke="none"/>
            <rect x="0.5" y="0.5" width="185" height="108" fill="none"/>
          </g>
          <g id="Grupo_129411" data-name="Grupo 129411" transform="translate(961.333 39)">
            <text id="Decreto_2649_de_1993_NIC_2_" data-name="Decreto 2649 de 1993
NIC 2
" transform="translate(288.333 520)" fill="#12263f" font-size="16" font-family="Roboto-Regular, Roboto"><tspan x="0" y="17">Decreto 2649 de </tspan><tspan x="0" y="41">1993</tspan><tspan x="0" y="65">NIC 2</tspan></text>
            <g id="Grupo_129409-2" data-name="Grupo 129409">
              <g id="Grupo_423-5" data-name="Grupo 423" transform="translate(268 574.536)">
                <path id="Trazado_635-5" data-name="Trazado 635" d="M7.995,6.448,1.77.223a.763.763,0,0,0-1.078,0l0,0L.229.682a.763.763,0,0,0,0,1.078l0,0L5.456,6.991.223,12.224a.763.763,0,0,0,0,1.078l0,0,.459.459a.763.763,0,0,0,1.078,0l0,0L7.995,7.532a.772.772,0,0,0,0-1.086Z" transform="translate(0.002 0.002)" fill="#1b3f5e"/>
              </g>
              <g id="Grupo_423-6" data-name="Grupo 423" transform="translate(268 522.583)">
                <path id="Trazado_635-6" data-name="Trazado 635" d="M7.995,6.448,1.77.223a.763.763,0,0,0-1.078,0l0,0L.229.682a.763.763,0,0,0,0,1.078l0,0L5.456,6.991.223,12.224a.763.763,0,0,0,0,1.078l0,0,.459.459a.763.763,0,0,0,1.078,0l0,0L7.995,7.532a.772.772,0,0,0,0-1.086Z" transform="translate(0.002 0.002)" fill="#1b3f5e"/>
              </g>
            </g>
          </g>
          <path id="Trazado_189753" data-name="Trazado 189753" d="M-12321-9502.492h55" transform="translate(13479.333 10131.748)" fill="none" stroke="#707070" stroke-width="1"/>
          <path id="Trazado_189754" data-name="Trazado 189754" d="M-11806.086-9349.439v-101.232h81.734" transform="translate(12778.419 10079.928)" fill="none" stroke="#707070" stroke-width="1"/>
          <g id="Grupo_129413" data-name="Grupo 129413" transform="translate(1213.333 673)">
            <g id="Rectángulo_41227" data-name="Rectángulo 41227" fill="#f0f8ff" stroke="#1b3f5e" stroke-width="1">
              <rect width="186" height="190" stroke="none"/>
              <rect x="0.5" y="0.5" width="185" height="189" fill="none"/>
            </g>
            <g id="Grupo_129412" data-name="Grupo 129412" transform="translate(16 13)">
              <text id="Justo_a_tiempo_PEPS_o_FIFO_UEPS_o_LIFO_Sistema_ABC_EOQ_Niveles_mínimos_de_mercancía" data-name="Justo a tiempo
PEPS o FIFO
UEPS o LIFO
Sistema ABC
EOQ
Niveles mínimos de mercancía" transform="translate(20.333)" fill="#12263f" font-size="16" font-family="Roboto-Regular, Roboto"><tspan x="0" y="17">Justo a tiempo</tspan><tspan x="0" y="41">PEPS o FIFO</tspan><tspan x="0" y="65">UEPS o LIFO</tspan><tspan x="0" y="89">Sistema ABC</tspan><tspan x="0" y="113">EOQ</tspan><tspan x="0" y="137">Niveles mínimos </tspan><tspan x="0" y="161">de mercancía</tspan></text>
              <g id="Grupo_129409-3" data-name="Grupo 129409" transform="translate(0 2.583)">
                <g id="Grupo_423-7" data-name="Grupo 423" transform="translate(0 49.953)">
                  <path id="Trazado_635-7" data-name="Trazado 635" d="M7.995,6.448,1.77.223a.763.763,0,0,0-1.078,0l0,0L.229.682a.763.763,0,0,0,0,1.078l0,0L5.456,6.991.223,12.224a.763.763,0,0,0,0,1.078l0,0,.459.459a.763.763,0,0,0,1.078,0l0,0L7.995,7.532a.772.772,0,0,0,0-1.086Z" transform="translate(0.002 0.002)" fill="#1b3f5e"/>
                </g>
                <g id="Grupo_423-8" data-name="Grupo 423" transform="translate(0 73.93)">
                  <path id="Trazado_635-8" data-name="Trazado 635" d="M7.995,6.448,1.77.223a.763.763,0,0,0-1.078,0l0,0L.229.682a.763.763,0,0,0,0,1.078l0,0L5.456,6.991.223,12.224a.763.763,0,0,0,0,1.078l0,0,.459.459a.763.763,0,0,0,1.078,0l0,0L7.995,7.532a.772.772,0,0,0,0-1.086Z" transform="translate(0.002 0.002)" fill="#1b3f5e"/>
                </g>
                <g id="Grupo_423-9" data-name="Grupo 423">
                  <path id="Trazado_635-9" data-name="Trazado 635" d="M7.995,6.448,1.77.223a.763.763,0,0,0-1.078,0l0,0L.229.682a.763.763,0,0,0,0,1.078l0,0L5.456,6.991.223,12.224a.763.763,0,0,0,0,1.078l0,0,.459.459a.763.763,0,0,0,1.078,0l0,0L7.995,7.532a.772.772,0,0,0,0-1.086Z" transform="translate(0.002 0.002)" fill="#1b3f5e"/>
                </g>
                <g id="Grupo_423-10" data-name="Grupo 423" transform="translate(0 25.977)">
                  <path id="Trazado_635-10" data-name="Trazado 635" d="M7.995,6.448,1.77.223a.763.763,0,0,0-1.078,0l0,0L.229.682a.763.763,0,0,0,0,1.078l0,0L5.456,6.991.223,12.224a.763.763,0,0,0,0,1.078l0,0,.459.459a.763.763,0,0,0,1.078,0l0,0L7.995,7.532a.772.772,0,0,0,0-1.086Z" transform="translate(0.002 0.002)" fill="#1b3f5e"/>
                </g>
                <g id="Grupo_423-11" data-name="Grupo 423" transform="translate(0 120.953)">
                  <path id="Trazado_635-11" data-name="Trazado 635" d="M7.995,6.448,1.77.223a.763.763,0,0,0-1.078,0l0,0L.229.682a.763.763,0,0,0,0,1.078l0,0L5.456,6.991.223,12.224a.763.763,0,0,0,0,1.078l0,0,.459.459a.763.763,0,0,0,1.078,0l0,0L7.995,7.532a.772.772,0,0,0,0-1.086Z" transform="translate(0.002 0.002)" fill="#1b3f5e"/>
                </g>
                <g id="Grupo_423-12" data-name="Grupo 423" transform="translate(0 146.929)">
                  <path id="Trazado_635-12" data-name="Trazado 635" d="M7.995,6.448,1.77.223a.763.763,0,0,0-1.078,0l0,0L.229.682a.763.763,0,0,0,0,1.078l0,0L5.456,6.991.223,12.224a.763.763,0,0,0,0,1.078l0,0,.459.459a.763.763,0,0,0,1.078,0l0,0L7.995,7.532a.772.772,0,0,0,0-1.086Z" transform="translate(0.002 0.002)" fill="#1b3f5e"/>
                </g>
                <g id="Grupo_423-13" data-name="Grupo 423" transform="translate(0 97.977)">
                  <path id="Trazado_635-13" data-name="Trazado 635" d="M7.995,6.448,1.77.223a.763.763,0,0,0-1.078,0l0,0L.229.682a.763.763,0,0,0,0,1.078l0,0L5.456,6.991.223,12.224a.763.763,0,0,0,0,1.078l0,0,.459.459a.763.763,0,0,0,1.078,0l0,0L7.995,7.532a.772.772,0,0,0,0-1.086Z" transform="translate(0.002 0.002)" fill="#1b3f5e"/>
                </g>
              </g>
            </g>
          </g>
          <path id="Trazado_189755" data-name="Trazado 189755" d="M-12108-9342.977h53.667" transform="translate(13109 10110)" fill="none" stroke="#707070" stroke-width="1"/>
          <path id="Trazado_189756" data-name="Trazado 189756" d="M-12108-9342.977h53.667" transform="translate(13267.666 10110)" fill="none" stroke="#707070" stroke-width="1"/>
          <path id="Trazado_189757" data-name="Trazado 189757" d="M-11787-9319v114.5h82.244" transform="translate(12759.333 10110)" fill="none" stroke="#707070" stroke-width="1"/>
          <g id="Rectángulo_41228" data-name="Rectángulo 41228" transform="translate(1213.333 884)" fill="#f0f8ff" stroke="#1b3f5e" stroke-width="1">
            <rect width="186" height="126" stroke="none"/>
            <rect x="0.5" y="0.5" width="185" height="125" fill="none"/>
          </g>
          <g id="Grupo_129414" data-name="Grupo 129414" transform="translate(961.333 380)">
            <text id="Aprovisionamiento_Mantenimiento_y_almacenamiento_Ruptura_de_stock_" data-name="Aprovisionamiento
Mantenimiento y almacenamiento
Ruptura de stock
" transform="translate(288.333 520)" fill="#12263f" font-size="16" font-family="Roboto-Regular, Roboto"><tspan x="0" y="17">Aprovisionamiento</tspan><tspan x="0" y="41">Mantenimiento y </tspan><tspan x="0" y="65">almacenamiento</tspan><tspan x="0" y="89">Ruptura de stock</tspan><tspan x="0" y="113"></tspan></text>
            <g id="Grupo_129409-4" data-name="Grupo 129409" transform="translate(268 522.583)">
              <g id="Grupo_423-14" data-name="Grupo 423" transform="translate(0 72.93)">
                <path id="Trazado_635-14" data-name="Trazado 635" d="M7.995,6.448,1.77.223a.763.763,0,0,0-1.078,0l0,0L.229.682a.763.763,0,0,0,0,1.078l0,0L5.456,6.991.223,12.224a.763.763,0,0,0,0,1.078l0,0,.459.459a.763.763,0,0,0,1.078,0l0,0L7.995,7.532a.772.772,0,0,0,0-1.086Z" transform="translate(0.002 0.002)" fill="#1b3f5e"/>
              </g>
              <g id="Grupo_423-15" data-name="Grupo 423">
                <path id="Trazado_635-15" data-name="Trazado 635" d="M7.995,6.448,1.77.223a.763.763,0,0,0-1.078,0l0,0L.229.682a.763.763,0,0,0,0,1.078l0,0L5.456,6.991.223,12.224a.763.763,0,0,0,0,1.078l0,0,.459.459a.763.763,0,0,0,1.078,0l0,0L7.995,7.532a.772.772,0,0,0,0-1.086Z" transform="translate(0.002 0.002)" fill="#1b3f5e"/>
              </g>
              <g id="Grupo_423-16" data-name="Grupo 423" transform="translate(0 25.977)">
                <path id="Trazado_635-16" data-name="Trazado 635" d="M7.995,6.448,1.77.223a.763.763,0,0,0-1.078,0l0,0L.229.682a.763.763,0,0,0,0,1.078l0,0L5.456,6.991.223,12.224a.763.763,0,0,0,0,1.078l0,0,.459.459a.763.763,0,0,0,1.078,0l0,0L7.995,7.532a.772.772,0,0,0,0-1.086Z" transform="translate(0.002 0.002)" fill="#1b3f5e"/>
              </g>
            </g>
          </g>
          <path id="Trazado_189758" data-name="Trazado 189758" d="M-11600-9204.5h54" transform="translate(12759.333 10110)" fill="none" stroke="#707070" stroke-width="1"/>
        </g>
      </g>
    </g>
  </g>
</svg>
