<svg xmlns="http://www.w3.org/2000/svg" width="84.01" height="84.011" viewBox="0 0 84.01 84.011">
  <g id="Grupo_129590" data-name="Grupo 129590" transform="translate(-1335.989 -400.704)">
    <g id="Grupo_129061" data-name="Grupo 129061" transform="translate(987.915 142.63)">
      <path id="Trazado_189065" data-name="Trazado 189065" d="M386.634,258.074h.82a.213.213,0,0,0,.328,0h.984a1.255,1.255,0,0,0,.985,0h1.8c.144.141.325.063.489.084h.612c.13-.009.27.029.376-.084h.328c1.56.213,3.136.215,4.694.519a43.182,43.182,0,0,1,14.687,5.852c.868.541.871.543,1.587-.168q1.367-1.358,2.725-2.724a5.683,5.683,0,0,1,1.073-.883,1.779,1.779,0,0,1,2.843,1.523c.044,2.076.12,4.161-.019,6.228a6.456,6.456,0,0,0,1.736,4.921,40.6,40.6,0,0,1,9.17,20.706c.123.858.018,1.736.227,2.587v.492c-.121.112-.074.26-.085.4s0,.283,0,.424v.425c.011.136-.037.284.084.4v2.954c-.142.144-.063.327-.084.492.021.165-.058.348.084.492v.82c-.191,1.508-.236,3.029-.524,4.531a42.892,42.892,0,0,1-5.848,14.687c-.54.866-.544.868.168,1.585q1.358,1.366,2.724,2.725a5.686,5.686,0,0,1,.884,1.073,1.78,1.78,0,0,1-1.522,2.845c-2.076.045-4.161.121-6.228-.019a6.463,6.463,0,0,0-4.921,1.736,40.551,40.551,0,0,1-20.706,9.169c-.966.138-1.952.042-2.914.229H392.7a.212.212,0,0,0-.328,0h-1.149a.888.888,0,0,0-.821,0h-1.8c-.107-.114-.248-.076-.379-.085h-.715c-.132.009-.274-.031-.383.084h-.656c-1.644-.2-3.3-.295-4.929-.635a42.838,42.838,0,0,1-14.122-5.735c-.859-.539-.876-.539-1.59.17q-1.367,1.357-2.725,2.723a5.661,5.661,0,0,1-1.073.883,1.779,1.779,0,0,1-2.841-1.526c-.043-2.185-.121-4.379.022-6.555a5.832,5.832,0,0,0-1.644-4.459,40.531,40.531,0,0,1-8.21-15.7,40.048,40.048,0,0,1-1.282-7.555v-.656c.12-.11.074-.257.085-.391s0-.28,0-.42c-.022-.168.059-.354-.085-.5v-3.282c.1-.091.081-.213.085-.328s.016-.237-.085-.328v-1.149c.191-1.508.234-3.029.525-4.53a42.689,42.689,0,0,1,5.845-14.686c.541-.863.542-.873-.169-1.589q-1.357-1.367-2.724-2.725a5.671,5.671,0,0,1-.883-1.073,1.779,1.779,0,0,1,1.525-2.842c2.131-.043,4.27-.125,6.391.022a6.148,6.148,0,0,0,4.69-1.692,40.8,40.8,0,0,1,20.853-9.23C384.957,258.169,385.809,258.27,386.634,258.074Z"/>
      <path id="Trazado_189066" data-name="Trazado 189066" d="M534.987,258.074a.745.745,0,0,1-.985,0Z" transform="translate(-145.236)" fill="#202020"/>
      <path id="Trazado_189067" data-name="Trazado 189067" d="M541.5,641.281a.555.555,0,0,1,.82,0Z" transform="translate(-151.092 -299.196)" fill="#212121"/>
      <path id="Trazado_189068" data-name="Trazado 189068" d="M731.281,440.547q0-.25.007-.5c.052-.057.1-.049.134.016v.492Q731.346,440.667,731.281,440.547Z" transform="translate(-299.338 -142.116)" fill="#474747"/>
      <path id="Trazado_189069" data-name="Trazado 189069" d="M731.421,438.3a.77.77,0,0,0-.134-.016q0-.243-.007-.485c.051-.063.1-.064.141.008Z" transform="translate(-299.337 -140.354)" fill="#737373"/>
      <path id="Trazado_189070" data-name="Trazado 189070" d="M348.074,457.5c.21.126.162.32.134.508-.052.054-.1.052-.134-.016Z" transform="translate(0 -155.778)" fill="#454545"/>
      <path id="Trazado_189071" data-name="Trazado 189071" d="M731.21,458c-.027-.189-.061-.379.141-.5v.492Q731.289,458.093,731.21,458Z" transform="translate(-299.266 -155.778)" fill="#494949"/>
      <path id="Trazado_189072" data-name="Trazado 189072" d="M348.074,459.747a.791.791,0,0,0,.134.016q0,.242.007.485c-.051.067-.1.061-.141-.009Z" transform="translate(0 -157.535)" fill="#717171"/>
      <path id="Trazado_189073" data-name="Trazado 189073" d="M731.188,459.759c.047-.005.094-.009.141-.012v.492C731.06,460.144,731.2,459.93,731.188,459.759Z" transform="translate(-299.244 -157.535)" fill="#737373"/>
      <path id="Trazado_189074" data-name="Trazado 189074" d="M547.248,258.223c-.186.014-.378.051-.5-.149h.492c.052.03.07.062.055.1S547.264,258.223,547.248,258.223Z" transform="translate(-155.191)" fill="#3a3a3a"/>
      <path id="Trazado_189075" data-name="Trazado 189075" d="M527.785,641.285l.487.006c.061.025.084.053.067.085s-.036.05-.055.05h-.492c-.052-.029-.07-.059-.055-.091S527.769,641.285,527.785,641.285Z" transform="translate(-140.338 -299.341)" fill="#737373"/>
      <path id="Trazado_189076" data-name="Trazado 189076" d="M348.074,439.505c.174.05.154.185.141.318-.041.082-.088.086-.141.01Z" transform="translate(0 -141.723)" fill="#5c5c5c"/>
      <path id="Trazado_189077" data-name="Trazado 189077" d="M731.357,436.834c-.047,0-.095,0-.141-.008-.016-.135-.07-.286.141-.32Z" transform="translate(-299.272 -139.38)" fill="#9f9f9f"/>
      <path id="Trazado_189078" data-name="Trazado 189078" d="M348.074,440.969l.141-.01a.277.277,0,0,1-.141.338Z" transform="translate(0 -142.858)" fill="#3f3f3f"/>
      <path id="Trazado_189079" data-name="Trazado 189079" d="M731.253,442.47l.141.007v.328A.277.277,0,0,1,731.253,442.47Z" transform="translate(-299.31 -144.039)" fill="#363636"/>
      <path id="Trazado_189080" data-name="Trazado 189080" d="M348.074,462c.047,0,.094,0,.141.009.016.135.07.286-.141.32Z" transform="translate(0 -159.291)" fill="#9d9d9d"/>
      <path id="Trazado_189081" data-name="Trazado 189081" d="M552.109,258.074c-.04.2-.187.157-.322.137q-.086-.042-.06-.089c.018-.032.036-.048.054-.048Z" transform="translate(-159.076)" fill="#939393"/>
      <path id="Trazado_189082" data-name="Trazado 189082" d="M550.609,258.074c0,.046,0,.091.006.137l-.327,0q-.087-.043-.061-.091c.018-.033.036-.05.054-.05Z" transform="translate(-157.905)" fill="#787878"/>
      <path id="Trazado_189083" data-name="Trazado 189083" d="M549.323,258.074a1.051,1.051,0,0,0,.007.141l-.327.008a.827.827,0,0,1-.008-.149Z" transform="translate(-156.947)" fill="#5c5c5c"/>
      <path id="Trazado_189084" data-name="Trazado 189084" d="M526.826,641.221a.868.868,0,0,1,.007.141h-.328C526.542,641.154,526.691,641.2,526.826,641.221Z" transform="translate(-139.379 -299.276)" fill="#959595"/>
      <path id="Trazado_189085" data-name="Trazado 189085" d="M530.21,641.424c0-.045-.008-.09-.013-.135l.331-.006q.09.041.064.09c-.017.034-.035.051-.054.051Z" transform="translate(-142.263 -299.339)" fill="#4e4e4e"/>
      <path id="Trazado_189086" data-name="Trazado 189086" d="M531.719,641.4c0-.047,0-.094-.01-.141a.28.28,0,0,1,.338.141Z" transform="translate(-143.444 -299.31)" fill="#363636"/>
      <path id="Trazado_189087" data-name="Trazado 189087" d="M528.333,258.074c-.109.206-.219.244-.328,0Z" transform="translate(-140.551)" fill="#7a7a7a"/>
      <path id="Trazado_189088" data-name="Trazado 189088" d="M550.5,641.323c.109-.207.219-.244.328,0Z" transform="translate(-158.12 -299.238)" fill="#7c7c7c"/>
      <path id="Trazado_189089" data-name="Trazado 189089" d="M472.537,371.415c-1.463-1.478-2.856-2.866-4.226-4.278a1.708,1.708,0,0,0-3.083,1.273c.009,3.691-.008,7.381.016,11.072a1.187,1.187,0,0,1-.583,1.135c-7.988,5.369-16.388,6.067-25.2,2.28-.529-.228-.669-.381-.175-.849,1.249-1.185,2.431-2.44,3.668-3.638a1.846,1.846,0,0,0,.687-2.174c-.381-.9-1.182-1.015-2.052-1.012-3.636.014-7.272,0-10.908.012a1.057,1.057,0,0,1-1.031-.462c-5.489-8.109-6.189-16.63-2.23-25.559.052-.118.129-.224.235-.405,1.412,1.414,2.791,2.77,4.139,4.156a1.829,1.829,0,0,0,2.177.664c.855-.373,1-1.137.993-1.982-.012-3.663,0-7.326-.015-10.989a1.12,1.12,0,0,1,.549-1.069c8.159-5.491,16.71-6.109,25.645-2.107.046.021.079.071.206.191l-1.174,1.177c-.986.986-1.957,1.987-2.963,2.952a1.825,1.825,0,0,0-.68,2.106c.36.906,1.148,1.057,2.025,1.054,3.609-.012,7.217.012,10.826-.022a1.375,1.375,0,0,1,1.323.7c5.319,8.021,5.969,16.428,2.127,25.217C472.767,371,472.683,371.139,472.537,371.415Z" transform="translate(-60.014 -60.013)" fill="#fefefe"/>
      <path id="Trazado_189090" data-name="Trazado 189090" d="M432.4,280.851a30.766,30.766,0,0,1,5.61-3.6q20.914-10.132,40.3,2.708c1.318.876,1.873.86,2.991-.273.631-.639,1.238-1.3,1.846-1.944.337.223.222.463.223.657.008,4.648-.007,9.3.021,13.944,0,.647-.172.821-.818.817-4.675-.028-9.351-.015-14.027-.015h-.7c1.056-1.056,1.97-1.971,2.886-2.885a3.071,3.071,0,0,0,.712-.891,1.645,1.645,0,0,0-.807-2.158,27.312,27.312,0,0,0-10.077-3.709,28.267,28.267,0,0,0-19.3,3.706c-.111.065-.233.111-.448.213,0-1.531,0-2.971,0-4.41,0-1.626-.539-2.159-2.169-2.161C436.653,280.848,434.658,280.851,432.4,280.851Z" transform="translate(-65.874 -11.483)" fill="#1b3f5e"/>
      <path id="Trazado_189091" data-name="Trazado 189091" d="M368.132,324.653h.539q7.012,0,14.024,0c.424,0,.772-.06.768.6-.03,4.892-.016,9.784-.016,14.678-.3.112-.394-.156-.531-.29-.821-.8-1.625-1.623-2.441-2.43-1.191-1.179-2.276-1.059-3.1.425-5.326,9.587-5.3,19.194-.06,28.808.1.192.22.377.328.567a1.1,1.1,0,0,1,.025.207c-.724,0-1.439.01-2.155,0-4.646-.072-4.4-.043-4.362,4.4.011,1.255,0,2.511,0,3.773-.32.057-.365-.217-.476-.371a38.756,38.756,0,0,1-.375-45.355c.86-1.218.805-1.819-.245-2.865-.658-.655-1.332-1.295-2-1.942Z" transform="translate(-11.786 -52.005)" fill="#c0c6cc"/>
      <path id="Trazado_189092" data-name="Trazado 189092" d="M457.177,539.778c0,1.576,0,3.021,0,4.465,0,1.579.553,2.137,2.107,2.139,2.019,0,4.038,0,6.071,0,.01.352-.282.405-.459.534a38.757,38.757,0,0,1-45.232.345c-1.277-.894-1.842-.842-2.932.239q-.932.924-1.865,1.846a.53.53,0,0,1-.144.069c-.2-.138-.106-.347-.106-.518-.006-4.675,0-9.351-.011-14.026,0-.485,0-.8.664-.8,4.812.028,9.624.015,14.436.018a2.967,2.967,0,0,1,.386.078c-.983.973-1.889,1.863-2.787,2.76-1.346,1.344-1.243,2.4.409,3.311,9.556,5.237,19.12,5.2,28.677-.01C456.605,540.112,456.813,539.987,457.177,539.778Z" transform="translate(-51.963 -215.592)" fill="#d84318"/>
      <path id="Trazado_189093" data-name="Trazado 189093" d="M639.572,394.029a.923.923,0,0,1-.755.18c-4.648.006-9.3,0-13.944.012-.5,0-.786-.026-.782-.676.029-4.785.016-9.57.016-14.354v-.532c1.073,1.082,1.983,2.009,2.9,2.926,1.267,1.262,2.34,1.148,3.2-.415,5.281-9.569,5.255-19.154.031-28.739-.1-.192-.224-.375-.327-.568-.021-.04,0-.1,0-.218,1.44,0,2.882,0,4.324,0,1.629,0,2.159-.536,2.161-2.167q0-2.994,0-5.987c.285-.107.329.153.424.282a38.772,38.772,0,0,1,.432,45.425c-.865,1.235-.824,1.793.238,2.861C638.159,392.728,638.862,393.359,639.572,394.029Z" transform="translate(-215.607 -66.703)" fill="#fccc56"/>
      <path id="Trazado_189094" data-name="Trazado 189094" d="M510.258,392.928a3.542,3.542,0,0,0,3.189,3.292c.837.128,1.687.081,2.521.279a6.824,6.824,0,0,1,5.456,6.073,6.571,6.571,0,0,1-4.851,6.6c-.6.186-.777.448-.7,1.021a3.428,3.428,0,0,1-.012.9,1.567,1.567,0,0,1-1.421,1.357,1.647,1.647,0,0,1-1.694-1.027.677.677,0,0,1-.071-.318c.24-1.425-.613-1.909-1.787-2.3a6.8,6.8,0,0,1-2.542-1.895,1.625,1.625,0,0,1,2.191-2.392c.436.328.823.721,1.267,1.037a4.372,4.372,0,0,0,5.18-.242,2.87,2.87,0,0,0,1.051-3.146,3.533,3.533,0,0,0-3.125-2.518,18.881,18.881,0,0,1-3.07-.446,6.7,6.7,0,0,1-4.865-6.285,6.626,6.626,0,0,1,4.824-6.222c.593-.186.866-.419.74-1.06a3.391,3.391,0,0,1,0-.98,1.607,1.607,0,0,1,3.156-.214,5.857,5.857,0,0,1,.111,1.464c-.02.466.141.657.59.787a8.037,8.037,0,0,1,3.834,2.244,1.735,1.735,0,0,1,.435,1.954c-.489,1.158-1.849,1.27-2.828.327a4.922,4.922,0,0,0-5.093-1.4A3.346,3.346,0,0,0,510.258,392.928Z" transform="translate(-124.124 -97.761)"/>
    </g>
  </g>
</svg>
