<svg xmlns="http://www.w3.org/2000/svg" width="150" height="149.982" viewBox="0 0 150 149.982">
  <g id="Grupo_128220" data-name="Grupo 128220" transform="translate(-2151.976 -1790.295)">
    <g id="Grupo_128221" data-name="Grupo 128221" transform="translate(2151.976 1790.295)">
      <path id="Trazado_155224" data-name="Trazado 155224" d="M2235.558,2011.6a19.451,19.451,0,0,1,3.007.578q27.358,5.484,54.714,10.974a2.215,2.215,0,0,0,2.018-.47,19.553,19.553,0,0,1,7.768-3.884,1.583,1.583,0,0,0,1.362-1.406q4.671-21.028,9.458-42.031c.2-.9.14-1.252-.9-1.442q-6.825-1.249-13.608-2.721c-1.105-.242-1.5-.047-1.793,1.041-1.234,4.554-2.561,9.083-3.85,13.622-.177.624-.291,1.152-1.224.96q-13.594-2.789-27.209-5.476c-.97-.191-.725-.583-.551-1.187,1.327-4.63,2.6-9.275,3.966-13.893.259-.877.161-1.214-.763-1.36-1.393-.22-2.781-.5-4.15-.838-.945-.233-1.163.068-1.136.989.063,2.145.02,4.294.02,6.441s-.065,4.3.027,6.44c.048,1.1-.257,1.385-1.364,1.375-6.295-.058-12.59-.006-18.885-.05-1.037-.008-1.488.213-1.727,1.335-2.058,9.716-4.189,19.416-6.326,29.115C2234.175,2010.787,2234.067,2011.547,2235.558,2011.6Z" transform="translate(-2209.437 -1911.576)" fill="none"/>
      <path id="Trazado_155225" data-name="Trazado 155225" d="M2210.15,1864.409c1.085,0,1.38-.244,1.375-1.356-.049-9.226-.028-18.452-.028-27.679q0-13.912.014-27.825c0-.852-.075-1.272-1.138-1.267q-13.4.073-26.8.006c-.927,0-1.125.273-1.115,1.151.047,3.954-.026,7.909.05,11.862.022,1.162-.183,1.57-1.465,1.537-3.9-.1-7.811.006-11.715-.064-1.08-.019-1.373.231-1.37,1.35q.066,20.429,0,40.859c0,1.2.371,1.427,1.479,1.424Q2189.794,1864.353,2210.15,1864.409Z" transform="translate(-2163.135 -1801.458)" fill="none"/>
      <path id="Trazado_155226" data-name="Trazado 155226" d="M2355.667,1982.6c1.907.362,3.816.723,5.711,1.148.571.128.748,0,.9-.545.928-3.316,1.892-6.622,2.853-9.928.137-.473.173-.759-.476-.876-2.006-.362-4-.8-6.123-1.241-.48-.212-.612.153-.75.643-.922,3.267-1.844,6.534-2.825,9.784C2354.724,1982.356,2355.066,1982.484,2355.667,1982.6Z" transform="translate(-2293.65 -1916.532)" fill="none"/>
      <path id="Trazado_155227" data-name="Trazado 155227" d="M2186.055,1825.083c.589.006.738-.288.734-.813-.015-1.688-.006-3.376-.006-4.982l-5.78,5.789C2182.6,1825.077,2184.327,1825.066,2186.055,1825.083Z" transform="translate(-2172.243 -1810.539)" fill="none"/>
      <path id="Trazado_155228" data-name="Trazado 155228" d="M2395.639,1990.813c1.96.373,3.918.76,5.784,1.123.681.279.859-.094.991-.56.936-3.323,1.857-6.65,2.831-9.963.186-.632-.025-.719-.562-.818q-2.872-.528-5.725-1.153c-.671-.146-.954.069-1.132.716-.891,3.235-1.792,6.467-2.759,9.68C2394.863,1990.516,2395.054,1990.7,2395.639,1990.813Z" transform="translate(-2321.652 -1922.331)" fill="none"/>
      <path id="Trazado_155229" data-name="Trazado 155229" d="M2483.112,1958.563c-.285.879.161.96.714,1.015a15.874,15.874,0,0,1,3.03.416c.989.3,1.229-.021,1.431-.91q8.454-37.091,16.933-74.176c.287-1.26,1.255-2.875.582-3.712-.641-.8-2.43-.635-3.689-.984-.974-.271-1.362-.165-1.622,1q-7.054,31.645-14.227,63.263C2485.193,1949.221,2484.138,1953.973,2483.112,1958.563Z" transform="translate(-2383.12 -1852.989)" fill="none"/>
      <path id="Trazado_155230" data-name="Trazado 155230" d="M2441.519,2159.111a16.911,16.911,0,1,0,16.914,16.9A16.893,16.893,0,0,0,2441.519,2159.111Z" transform="translate(-2342.348 -2047.809)" fill="none"/>
      <path id="Trazado_155231" data-name="Trazado 155231" d="M2568.521,1844.239c-6.726-1.353-13.463-2.654-20.182-4.041-.85-.175-1,.131-1.14.785-.353,1.665-.686,3.338-1.129,4.98-.282,1.048-.063,1.5,1.07,1.7,3.305.587,6.589,1.3,9.882,1.949,3.675.73,7.35,1.453,10.7,2.114a4.388,4.388,0,0,0,2.444-.455,3.523,3.523,0,0,0,1.918-3.9C2571.817,1845.7,2570.706,1844.679,2568.521,1844.239Z" transform="translate(-2427.063 -1825.104)" fill="none"/>
      <path id="Trazado_155232" data-name="Trazado 155232" d="M2545.95,1989.756c-.173.729.248.8.739.9q2.212.443,4.423.889c.265.053.64.266.728-.145.278-1.3,1.141-2.636.583-3.913-1.178-2.7-2.605-5.287-4.067-8.192C2547.515,1982.973,2546.755,1986.37,2545.95,1989.756Z" transform="translate(-2427.028 -1922.257)" fill="none"/>
      <path id="Trazado_155233" data-name="Trazado 155233" d="M2538.251,2033.208c-1.531-.293-3.062-.589-4.578-.947-.614-.145-.77.119-.883.619-1.2,5.32-2.392,10.641-3.623,15.954-.139.6-.133.847.567.957,1.539.242,3.069.553,4.584.914.589.14.748-.016.871-.56q1.815-8.051,3.679-16.116C2539.091,2033.46,2538.759,2033.305,2538.251,2033.208Z" transform="translate(-2415.289 -1959.213)" fill="none"/>
      <path id="Trazado_155234" data-name="Trazado 155234" d="M2213.661,2135.347c-2.273-.452-3.6.409-4.211,2.684-.328,1.222-.618,2.454-.922,3.683-.6,2.433.086,3.566,2.593,4.039q14.647,2.762,29.3,5.467,13.794,2.554,27.592,5.085c.488.09.915.329,1.044-.461a22.212,22.212,0,0,1,3.47-8.737c-3.206-.644-6.252-1.26-9.3-1.868Q2238.446,2140.288,2213.661,2135.347Z" transform="translate(-2191.32 -2031.136)" fill="none"/>
      <path id="Trazado_155235" data-name="Trazado 155235" d="M2301.467,1810.479c-1.158-3.36-3.681-5.132-7.091-5.8-8.078-1.591-16.161-3.158-24.219-4.846-1.332-.279-1.616.108-1.872,1.261-3.4,15.308-6.853,30.6-10.257,45.911-.207.932-.559,1.15-1.463.968q-25-5.033-50.015-10c-1.077-.213-1.353-.629-1.35-1.7q.056-22.408.028-44.816c0-.388.041-.777.063-1.165h-37.5a6.746,6.746,0,0,0-1.493,1.141q-6.58,6.6-13.184,13.185a6.726,6.726,0,0,0-1.142,1.493v51.851c.536.014,1.073.039,1.609.039,7.908,0,15.817.029,23.726-.027,1.18-.008,1.3.261,1.063,1.352q-3.211,14.478-6.3,28.984a1.823,1.823,0,0,1-1.468,1.659,6.223,6.223,0,0,0-3.7,2.707,18.488,18.488,0,0,0-2.7,10.152c.072,3.789,2.7,6.135,6.914,6.917q28.6,5.307,57.211,10.564c.976.179,1.218.547,1.347,1.465a21.727,21.727,0,1,0,41.344-12.038,2.92,2.92,0,0,1-.215-1.951q5.887-25.7,11.716-51.422a2.885,2.885,0,0,0-.279-2.09c-2.274-4.466-4.519-8.947-6.77-13.424a2.072,2.072,0,0,1-.372-1.5q2.227-9.607,4.39-19.227c.178-.793.523-.8,1.222-.65,3.383.723,6.771,1.421,10.175,2.033,3.347.6,6.449.089,8.828-2.588A8.069,8.069,0,0,0,2301.467,1810.479Zm-32.119,8.036c.26-1.164.647-1.27,1.622-1,1.259.349,3.048.187,3.688.985.673.838-.295,2.453-.582,3.712q-8.447,37.092-16.933,74.176c-.2.89-.442,1.212-1.432.91a15.867,15.867,0,0,0-3.03-.416c-.553-.055-1-.136-.714-1.015,1.026-4.59,2.082-9.342,3.152-14.091Q2262.25,1850.15,2269.348,1818.515Zm-43.956,39.287c.966-3.212,1.868-6.445,2.759-9.68.178-.647.461-.863,1.132-.716q2.853.623,5.726,1.153c.536.1.748.186.562.818-.974,3.312-1.9,6.639-2.831,9.962-.132.467-.31.839-.991.56-1.866-.363-3.823-.75-5.784-1.123C2225.378,1858.666,2225.188,1858.481,2225.392,1857.8Zm-12.108-2.458c.981-3.249,1.9-6.517,2.825-9.784.138-.489.269-.855.75-.643,2.126.437,4.117.88,6.123,1.241.649.117.614.4.476.876-.961,3.306-1.925,6.612-2.853,9.928-.152.542-.329.674-.9.545-1.894-.425-3.8-.786-5.711-1.148C2213.392,1856.247,2213.05,1856.119,2213.284,1855.344Zm-46.768-56.3c0,1.606-.01,3.294.006,4.982,0,.525-.144.819-.734.813-1.728-.017-3.456-.006-5.052-.006Zm-8.237,54.2c-1.109,0-1.484-.223-1.48-1.424q.069-20.429,0-40.859c0-1.119.289-1.369,1.37-1.35,3.9.069,7.812-.036,11.715.064,1.282.033,1.487-.375,1.465-1.537-.075-3.953,0-7.908-.05-11.861-.01-.879.188-1.155,1.115-1.151q13.4.055,26.8-.005c1.062-.006,1.14.415,1.138,1.266q-.034,13.913-.014,27.825c0,9.226-.021,18.453.028,27.679.005,1.112-.29,1.359-1.375,1.356Q2178.635,1853.187,2158.279,1853.244Zm18.672,35.19c2.138-9.7,4.269-19.4,6.327-29.115.238-1.122.689-1.342,1.727-1.335,6.295.044,12.59-.008,18.885.05,1.107.01,1.412-.276,1.364-1.375-.093-2.143-.027-4.293-.027-6.44s.043-4.3-.02-6.441c-.027-.92.19-1.222,1.136-.989,1.369.338,2.757.618,4.151.839.924.146,1.022.482.763,1.36-1.365,4.618-2.639,9.263-3.966,13.893-.173.6-.419,1,.551,1.188q13.617,2.675,27.209,5.476c.934.192,1.047-.336,1.224-.96,1.288-4.539,2.616-9.068,3.85-13.622.295-1.089.688-1.283,1.793-1.042q6.778,1.484,13.608,2.721c1.039.19,1.1.545.9,1.443q-4.773,21.005-9.458,42.031a1.582,1.582,0,0,1-1.362,1.406,19.552,19.552,0,0,0-7.768,3.884,2.215,2.215,0,0,1-2.017.469q-27.355-5.5-54.714-10.974a19.428,19.428,0,0,0-3.007-.578C2176.606,1890.267,2176.714,1889.506,2176.951,1888.434ZM2229.717,1915c-.129.789-.556.551-1.044.461q-13.794-2.553-27.591-5.085-14.655-2.713-29.3-5.467c-2.506-.473-3.193-1.606-2.593-4.039.3-1.229.594-2.461.922-3.683.61-2.274,1.938-3.136,4.211-2.683q24.787,4.935,49.57,9.89c3.048.608,6.095,1.224,9.3,1.868A22.208,22.208,0,0,0,2229.717,1915Zm21.454,20.417a16.911,16.911,0,1,1,16.89-16.925A16.887,16.887,0,0,1,2251.171,1935.419Zm19.321-47.938c-1.211,5.1-2.344,10.225-3.509,15.339a3.132,3.132,0,0,1-.275.537,21.481,21.481,0,0,0-4.577-3.564,1.019,1.019,0,0,1-.548-1.312c.953-4.066,1.913-8.131,2.808-12.211.161-.734.44-.825,1.083-.681,1.422.319,2.856.58,4.286.864C2270.325,1886.566,2270.684,1886.672,2270.492,1887.481Zm5.064-22.37q-1.85,8.081-3.679,16.116c-.123.544-.281.7-.871.56-1.515-.36-3.046-.672-4.584-.914-.7-.11-.706-.358-.567-.957,1.231-5.312,2.426-10.634,3.622-15.954.113-.5.269-.764.883-.619,1.516.358,3.047.654,4.578.946C2275.446,1864.387,2275.778,1864.542,2275.556,1865.111Zm1.815-9.588c.558,1.277-.305,2.615-.583,3.913-.088.412-.464.2-.729.145q-2.212-.443-4.423-.889c-.492-.1-.913-.169-.74-.9.805-3.386,1.565-6.783,2.407-10.463C2274.766,1850.237,2276.193,1852.826,2277.372,1855.523Zm17.707-39.065a4.388,4.388,0,0,1-2.444.455c-3.348-.661-7.024-1.384-10.7-2.114-3.293-.654-6.577-1.362-9.882-1.949-1.133-.2-1.352-.649-1.07-1.7.443-1.642.775-3.315,1.129-4.98.138-.655.29-.961,1.14-.785,6.719,1.387,13.456,2.688,20.183,4.041,2.185.44,3.3,1.459,3.562,3.132A3.523,3.523,0,0,1,2295.078,1816.459Z" transform="translate(-2151.976 -1790.295)" fill="#fff59d"/>
    </g>
    <path id="Trazado_155236" data-name="Trazado 155236" d="M2183.969,1894.1c0-4.782.028-9.565-.023-14.346-.01-.972.154-1.341,1.238-1.314,3.267.08,6.538.053,9.807.012.8-.01,1.062.18,1.075,1.031.058,3.778.089,3.777-3.737,3.777-3.5,0-3.5,0-3.5,3.454,0,5.661.024,11.322-.022,16.982-.008,1.032.169,1.435,1.335,1.421,5.611-.067,11.223-.053,16.835-.008.963.008,1.258-.255,1.232-1.223-.064-2.438.009-4.88-.038-7.319-.016-.827.108-1.179,1.083-1.186,3.73-.026,3.73-.069,3.73,3.634,0,3.27-.024,6.539.017,9.808.01.8-.167,1.075-1.026,1.072q-13.468-.048-26.937.006c-.961,0-1.1-.312-1.091-1.16C2183.988,1903.861,2183.969,1898.981,2183.969,1894.1Z" transform="translate(-22.321 -61.544)" fill="#fff59d"/>
    <path id="Trazado_155237" data-name="Trazado 155237" d="M2236.14,1876.831c-.229.248-.418.469-.624.673q-8.645,8.649-17.283,17.306c-.516.519-.807.594-1.354.021-1.685-1.765-3.42-3.483-5.175-5.179-.518-.5-.694-.832-.06-1.387.916-.8,1.654-2.227,2.646-2.408,1.077-.2,1.817,1.369,2.634,2.217.754.783,1.041.141,1.445-.262q6.789-6.777,13.554-13.578c.629-.636,1.018-.821,1.654-.037.613.754,1.364,1.394,2.052,2.087C2235.794,1876.45,2235.949,1876.626,2236.14,1876.831Z" transform="translate(-41.378 -58.221)" fill="#fff59d"/>
    <path id="Trazado_155238" data-name="Trazado 155238" d="M2452.652,2199.245a12.1,12.1,0,0,1,.056-24.2,12.1,12.1,0,1,1-.056,24.2Z" transform="translate(-201.558 -268.643)" fill="#fff59d"/>
  </g>
</svg>
