<svg xmlns="http://www.w3.org/2000/svg" width="149.554" height="150" viewBox="0 0 149.554 150">
  <g id="Grupo_128222" data-name="Grupo 128222" transform="translate(-2913.877 -1768.861)">
    <path id="Trazado_155239" data-name="Trazado 155239" d="M2996.191,1888.835v5c2.627,0,5.154-.04,7.679.008a12.471,12.471,0,0,1,12.267,12.724c-.1,6.5-5.344,12.127-11.821,12.191q-20.574.2-41.153,0c-6.6-.062-11.877-5.81-11.867-12.461a12.461,12.461,0,0,1,11.912-12.44c2.593-.087,5.192-.014,7.913-.014v-5.013h-1.771q-22.292,0-44.583,0c-6.757,0-10.889-4.125-10.89-10.871q0-41.54,0-83.081c0-6.9,4.069-11,10.915-11q44.661,0,89.323.026a2.207,2.207,0,0,0,2.352-1.422,24.79,24.79,0,0,1,46.794,8.646c.927,8.845-1.963,16.163-8.76,21.883a2.594,2.594,0,0,0-.953,2.274q.025,31.233.012,62.466c0,7-4.047,11.075-11,11.076q-22.136,0-44.271,0Zm52.325-71.955c-9.271,3.668-17.874,2.476-25.518-3.724s-10.564-14.4-8.939-24.275h-89.244c-4.035,0-5.948,1.888-5.948,5.877q0,38.647,0,77.293v1.691h129.651Zm-10-3.012a20.035,20.035,0,0,0,20.03-19.719,19.952,19.952,0,1,0-39.9-.155A20.038,20.038,0,0,0,3038.516,1813.868Zm9.99,65.066H2918.933c.23,3.214,2.218,4.9,5.7,4.9q59.081,0,118.163,0c.311,0,.624.008.935-.008A4.934,4.934,0,0,0,3048.505,1878.934Zm-77.134,19.921a79.523,79.523,0,0,0-8.206.081,8.768,8.768,0,0,0-4.187,1.8,7.1,7.1,0,0,0-2.132,8.179,7.4,7.4,0,0,0,7.084,4.9c9.191.026,18.382.01,27.574.01,4.1,0,8.206.055,12.307-.023a7.472,7.472,0,0,0,.479-14.911c-2.738-.167-5.494-.032-8.259-.032-1.884,6.121-5.865,9.674-12.308,9.872C2978.061,1908.9,2974.049,1905.568,2971.371,1898.855Zm19.808-9.907h-14.922c0,2.711-.112,5.315.027,7.906a7.454,7.454,0,0,0,14.868,0C2991.3,1894.264,2991.179,1891.66,2991.179,1888.949Z" transform="translate(0 0)" fill="#fff59d"/>
    <path id="Trazado_155240" data-name="Trazado 155240" d="M3067.953,1890.778q10.907,0,21.813,0c6.331.008,10.558,4.223,10.563,10.559q.019,20.681,0,41.363c-.006,6.321-4.244,10.54-10.581,10.544q-21.813.014-43.625,0c-6.426,0-10.636-4.215-10.64-10.641q-.012-20.6,0-41.206c0-6.432,4.209-10.614,10.658-10.62Q3057.047,1890.77,3067.953,1890.778Zm-15.012,5c-2.417,0-4.6,0-6.775,0-3.708.008-5.694,1.973-5.7,5.662q-.007,20.533,0,41.066c0,3.8,1.948,5.744,5.769,5.745q21.665.006,43.331,0c3.83,0,5.771-1.931,5.773-5.742q.008-14.834,0-29.668c0-3.956.02-7.911-.008-11.867-.02-2.7-1.776-4.938-4.288-5.113-2.671-.187-5.365-.042-8.176-.042,0,2.462.016,4.792,0,7.123a7.482,7.482,0,0,1-7.87,7.823q-7.092.03-14.184,0c-4.737-.02-7.851-3.188-7.873-7.977C3052.932,1900.508,3052.941,1898.229,3052.941,1895.776Zm24.934.105h-19.938c0,2.539-.044,4.975.017,7.408a2.363,2.363,0,0,0,2.482,2.458q7.467.067,14.934,0a2.37,2.37,0,0,0,2.489-2.454C3077.922,1900.86,3077.875,1898.424,3077.875,1895.881Z" transform="translate(-84.187 -84.405)" fill="#fff59d"/>
    <path id="Trazado_155241" data-name="Trazado 155241" d="M3294.283,1829.351c3.624-3.646,6.989-7.029,10.35-10.417a2.665,2.665,0,0,1,2.9-.985c1.878.635,2.334,2.708.873,4.264s-2.994,3.024-4.5,4.53q-3.63,3.637-7.263,7.271c-1.694,1.685-2.853,1.7-4.511.058-1.44-1.423-2.882-2.844-4.284-4.3-1.208-1.257-1.25-2.667-.185-3.723s2.464-1,3.717.22C3292.344,1827.2,3293.224,1828.217,3294.283,1829.351Z" transform="translate(-258.26 -33.891)" fill="#fff59d"/>
    <path id="Trazado_155242" data-name="Trazado 155242" d="M3077.966,2012.6c2.331,0,4.662-.015,6.993,0,1.81.015,2.951,1,2.957,2.485s-1.137,2.5-2.94,2.5q-6.992.025-13.985,0c-1.808-.006-2.949-.995-2.955-2.486s1.136-2.485,2.939-2.5C3073.3,2012.587,3075.635,2012.6,3077.966,2012.6Z" transform="translate(-106.729 -168.746)" fill="#fff59d"/>
    <path id="Trazado_155243" data-name="Trazado 155243" d="M3075.4,2050.065c-1.552,0-3.106.03-4.657-.008a2.5,2.5,0,1,1,0-4.976q4.734-.049,9.47,0a2.5,2.5,0,1,1,0,4.975C3078.61,2050.094,3077.006,2050.065,3075.4,2050.065Z" transform="translate(-106.726 -191.219)" fill="#fff59d"/>
  </g>
</svg>
