<svg xmlns="http://www.w3.org/2000/svg" xmlns:xlink="http://www.w3.org/1999/xlink" width="80.06" height="101.778" viewBox="0 0 80.06 101.778">
  <defs>
    <clipPath id="clip-path">
      <path id="Trazado_114857" data-name="Trazado 114857" d="M750.1-118.861l-.005,1.8c-.017,5.9-3.893,11.785-11.638,16.285-15.579,9.054-40.92,9.054-56.6,0-7.891-4.556-11.832-10.536-11.815-16.507l0-1.8c-.017,5.971,3.924,11.952,11.815,16.507,15.681,9.053,41.022,9.054,56.6,0C746.211-107.077,750.087-112.965,750.1-118.861Z" transform="translate(-670.045 119.083)" fill="none"/>
    </clipPath>
    <linearGradient id="linear-gradient" x1="-0.298" y1="0.891" x2="0.894" y2="0.004" gradientUnits="objectBoundingBox">
      <stop offset="0" stop-color="#bac2d4"/>
      <stop offset="0.145" stop-color="#a9b0c7"/>
      <stop offset="0.174" stop-color="#a9b0c7"/>
      <stop offset="0.598" stop-color="#a9b0c7"/>
      <stop offset="0.616" stop-color="#c8ccd8"/>
      <stop offset="0.633" stop-color="#e1e1e6"/>
      <stop offset="0.644" stop-color="#eaeaeb"/>
      <stop offset="0.65" stop-color="#e5e6e8"/>
      <stop offset="0.657" stop-color="#d9dbe1"/>
      <stop offset="0.664" stop-color="#c4c9d6"/>
      <stop offset="0.667" stop-color="#bac0d1"/>
      <stop offset="1" stop-color="#bdc4d2"/>
    </linearGradient>
  </defs>
  <g id="Grupo_129568" data-name="Grupo 129568" transform="translate(-317 -4252)">
    <g id="Grupo_129041" data-name="Grupo 129041" transform="translate(-353.045 4561.061)">
      <g id="Grupo_127778" data-name="Grupo 127778" transform="translate(670.045 -255.455)">
        <g id="Grupo_127777" data-name="Grupo 127777">
          <g id="Grupo_127776" data-name="Grupo 127776">
            <g id="Grupo_127775" data-name="Grupo 127775" style="isolation: isolate">
              <g id="Grupo_127773" data-name="Grupo 127773" transform="translate(0 23.073)" style="isolation: isolate">
                <g id="Grupo_127772" data-name="Grupo 127772" clip-path="url(#clip-path)">
                  <g id="Grupo_127771" data-name="Grupo 127771" style="isolation: isolate">
                    <path id="Trazado_114856" data-name="Trazado 114856" d="M750.1-118.861l-.005,1.8c-.017,5.9-3.893,11.785-11.638,16.285-15.579,9.054-40.92,9.054-56.6,0-7.891-4.556-11.832-10.536-11.815-16.507l0-1.8c-.017,5.971,3.924,11.952,11.815,16.507,15.681,9.053,41.022,9.054,56.6,0,7.745-4.5,11.621-10.389,11.638-16.285Z" transform="translate(-670.045 119.083)" fill="#bfbfbf"/>
                  </g>
                </g>
              </g>
              <g id="Grupo_127774" data-name="Grupo 127774" transform="translate(0.005)">
                <path id="Trazado_114858" data-name="Trazado 114858" d="M738.3-169.458c15.681,9.053,15.764,23.732.176,32.79s-40.92,9.054-56.6,0-15.764-23.732-.185-32.786S722.617-178.511,738.3-169.458Z" transform="translate(-670.057 176.247)" fill="#f0f0f0"/>
              </g>
            </g>
          </g>
        </g>
      </g>
      <g id="Grupo_127793" data-name="Grupo 127793" transform="translate(677.523 -309.061)">
        <path id="Trazado_114859" data-name="Trazado 114859" d="M699.264-143.914l37.92-21.893-10.692-6.173-37.92,21.893Z" transform="translate(-688.572 227.309)" fill="#cdd2d6" style="mix-blend-mode: multiply;isolation: isolate"/>
        <g id="Grupo_127792" data-name="Grupo 127792" transform="translate(7.886)">
          <g id="Grupo_127791" data-name="Grupo 127791">
            <g id="Grupo_127786" data-name="Grupo 127786">
              <g id="Grupo_127785" data-name="Grupo 127785">
                <g id="Grupo_127782" data-name="Grupo 127782">
                  <g id="Grupo_127779" data-name="Grupo 127779" transform="translate(3.704 2.153)">
                    <path id="Trazado_114860" data-name="Trazado 114860" d="M745.1-303.342c1.555-.9,2.817-.172,2.822,1.609l.154,54.286a6.175,6.175,0,0,1-2.8,4.856l-25.006,14.437c-1.555.9-2.817.179-2.823-1.608l-.154-54.286a6.186,6.186,0,0,1,2.8-4.857Z" transform="translate(-717.288 303.727)" fill="#d9d4f7"/>
                    <path id="Trazado_114861" data-name="Trazado 114861" d="M719.534-227.6c-.747,0-1.194-.611-1.2-1.633l-.154-54.286a5.791,5.791,0,0,1,2.623-4.544L745.812-302.5a2.238,2.238,0,0,1,1.081-.337c.749,0,1.2.611,1.2,1.633l.154,54.286a5.79,5.79,0,0,1-2.623,4.544l-25.006,14.436A2.246,2.246,0,0,1,719.534-227.6Z" transform="translate(-717.822 303.193)" fill="#464469"/>
                  </g>
                  <g id="Grupo_127780" data-name="Grupo 127780" transform="translate(4.876 4.104)">
                    <path id="Trazado_114862" data-name="Trazado 114862" d="M746.2-298.58c1.258-.727,2.285-.141,2.289,1.3l.15,52.955a5.019,5.019,0,0,1-2.275,3.94l-23.73,13.7c-1.259.727-2.285.142-2.289-1.3l-.15-52.955a5.019,5.019,0,0,1,2.274-3.939l3.68-2.125,1.683.766,13.014-7.514,1.673-2.7Z" transform="translate(-720.19 298.892)" fill="#3455b3"/>
                  </g>
                  <g id="Grupo_127781" data-name="Grupo 127781" transform="translate(4.876 4.102)">
                    <path id="Trazado_114863" data-name="Trazado 114863" d="M746.206-298.59c1.249-.721,2.274-.131,2.278,1.311l.15,52.955a5.019,5.019,0,0,1-2.263,3.933L722.63-226.683c-1.255.724-2.285.132-2.289-1.317l-.15-52.929a5.043,5.043,0,0,1,2.274-3.952l3.021-1.744a1.479,1.479,0,0,1,1.352-.065l.507.231a1.03,1.03,0,0,0,.942-.046l11.651-6.727a4.146,4.146,0,0,0,1.453-1.409l.815-1.316a2.335,2.335,0,0,1,.818-.794Z" transform="translate(-720.19 298.897)" fill="#519bf6"/>
                  </g>
                  <path id="Trazado_114864" data-name="Trazado 114864" d="M737.92-308.871a1.98,1.98,0,0,0-2,.195l-25.006,14.436a6.188,6.188,0,0,0-2.8,4.858l.154,54.286a1.971,1.971,0,0,0,.82,1.8l3.7,2.152a1.969,1.969,0,0,1-.82-1.8l-.154-54.285a6.186,6.186,0,0,1,2.8-4.857l25.006-14.438a1.985,1.985,0,0,1,2-.195Z" transform="translate(-708.11 309.061)" fill="url(#linear-gradient)"/>
                </g>
                <g id="Grupo_127784" data-name="Grupo 127784" transform="translate(5.005 12.036)">
                  <path id="Trazado_114865" data-name="Trazado 114865" d="M726.318-277.738a.887.887,0,0,1-.307.281.045.045,0,0,1-.013.008l-.967.559-1.452.838-.715.413a1.8,1.8,0,0,1-1.616.066l-.461-.265c-.412-.239-.36-.659.117-.933l3.133-1.809a1.805,1.805,0,0,1,1.616-.067l.461.266a.616.616,0,0,1,.2.178A.4.4,0,0,1,726.318-277.738Z" transform="translate(-720.51 278.983)" fill="#64c95c"/>
                  <path id="Trazado_114866" data-name="Trazado 114866" d="M720.788-275.84l.033.019c.026-.018.054-.036.084-.052l3.133-1.809a1.8,1.8,0,0,1,1.616-.067l.427.247c.4-.274.42-.657.033-.881l-.46-.266a1.8,1.8,0,0,0-1.616.067l-3.133,1.809C720.428-276.5,720.375-276.078,720.788-275.84Z" transform="translate(-720.51 278.984)" fill="#d8d9dd"/>
                  <g id="Grupo_127783" data-name="Grupo 127783" transform="translate(2.445 1.166)">
                    <path id="Trazado_114867" data-name="Trazado 114867" d="M729.623-275.993a.047.047,0,0,1-.013.008l-.968.559-1.452.838-.346-.2a.478.478,0,0,1-.279-.4v0a.665.665,0,0,1,.394-.529l.7-.4a1.808,1.808,0,0,1,1.617-.067Z" transform="translate(-726.566 276.353)" fill="#d8d9dd"/>
                  </g>
                  <path id="Trazado_114868" data-name="Trazado 114868" d="M729.93-277.311v.466a.888.888,0,0,1-.307.281.047.047,0,0,1-.013.008l-.968.559-2.077.238v-1.164Z" transform="translate(-724.121 278.09)" fill="#d8d9dd"/>
                  <path id="Trazado_114869" data-name="Trazado 114869" d="M727.219-277.46l-.374-.216c-.413-.238-.36-.658.116-.933l.7-.4a1.8,1.8,0,0,1,1.616-.067l.374.216c.413.238.36.658-.116.933l-.7.4A1.8,1.8,0,0,1,727.219-277.46Z" transform="translate(-724.122 279.241)" fill="#c8ccd8"/>
                </g>
              </g>
            </g>
            <g id="Grupo_127787" data-name="Grupo 127787" transform="translate(4.876 4.105)">
              <path id="Trazado_114870" data-name="Trazado 114870" d="M746.195-298.578c1.259-.727,2.285-.141,2.289,1.3l.15,52.955a5.019,5.019,0,0,1-2.274,3.939l-23.73,13.7c-1.259.727-2.285.142-2.289-1.3l-.15-52.955a5.019,5.019,0,0,1,2.274-3.939l3.68-2.125,1.683.766,13.014-7.514,1.673-2.7Z" transform="translate(-720.19 298.89)" fill="#3455b3"/>
            </g>
            <g id="Grupo_127788" data-name="Grupo 127788" transform="translate(4.876 4.105)">
              <path id="Trazado_114871" data-name="Trazado 114871" d="M746.195-298.578c1.259-.727,2.285-.141,2.289,1.3l.15,52.955a5.019,5.019,0,0,1-2.274,3.939l-23.73,13.7c-1.259.727-2.285.142-2.289-1.3l-.15-52.955a5.019,5.019,0,0,1,2.274-3.939l3.68-2.125,1.683.766,13.014-7.514,1.673-2.7Z" transform="translate(-720.19 298.89)" fill="#1b3f5e"/>
            </g>
            <g id="Grupo_127789" data-name="Grupo 127789" transform="translate(7.595 19.589)">
              <path id="Trazado_114872" data-name="Trazado 114872" d="M749.868-260.343a1.35,1.35,0,0,0-1.366,0l-2.17,1.252v1.154L749-259.479a.36.36,0,0,1,.365,0,.361.361,0,0,1,.183.318v3.633l1-.576v-3.056A1.349,1.349,0,0,0,749.868-260.343Zm-.316,16.3v2.68a2.712,2.712,0,0,1-1.353,2.342l-1.867,1.077v1.154l2.366-1.366a3.713,3.713,0,0,0,1.852-3.208v-3.256ZM728.11-227.636a.36.36,0,0,1-.183-.318v-3.606l-1,.576v3.029a1.349,1.349,0,0,0,.683,1.183,1.36,1.36,0,0,0,.681.185,1.363,1.363,0,0,0,.683-.185l2.172-1.254v-1.152l-2.671,1.542A.358.358,0,0,1,728.11-227.636Zm.67-21.321a3.714,3.714,0,0,0-1.852,3.208v3.283l1-.576v-2.706a2.71,2.71,0,0,1,1.352-2.341l1.867-1.078v-1.154Z" transform="translate(-726.928 260.529)" fill="#d9d9d9"/>
            </g>
            <path id="Trazado_114873" data-name="Trazado 114873" d="M751.822-251.565v16.145l-18.293,10.562V-241Z" transform="translate(-723.269 274.772)" fill="#d9d9d9"/>
            <g id="Grupo_127790" data-name="Grupo 127790" transform="translate(13.051 27.282)">
              <path id="Trazado_114874" data-name="Trazado 114874" d="M741.161-224.312v11.217l-.716.414V-223.9Z" transform="translate(-740.445 231.236)" fill="#343343"/>
              <path id="Trazado_114875" data-name="Trazado 114875" d="M744.789-226.459v11.217l-.779.449v-11.217Z" transform="translate(-742.571 232.517)" fill="#343343"/>
              <path id="Trazado_114876" data-name="Trazado 114876" d="M749.51-229.558v11.217l-1.217.7v-11.217Z" transform="translate(-745.125 234.365)" fill="#343343"/>
              <path id="Trazado_114877" data-name="Trazado 114877" d="M753.78-231.569v11.218l-.684.395v-11.217Z" transform="translate(-747.99 235.565)" fill="#343343"/>
              <path id="Trazado_114878" data-name="Trazado 114878" d="M756.617-233.256v11.218l-.741.428v-11.218Z" transform="translate(-749.647 236.57)" fill="#343343"/>
              <path id="Trazado_114879" data-name="Trazado 114879" d="M760.585-235.6v11.218l-.8.463v-11.217Z" transform="translate(-751.977 237.969)" fill="#343343"/>
              <path id="Trazado_114880" data-name="Trazado 114880" d="M763.558-237.171v11.218l-.632.365v-11.218Z" transform="translate(-753.853 238.905)" fill="#343343"/>
              <path id="Trazado_114881" data-name="Trazado 114881" d="M767.306-239.671v11.218l-1.026.593v-11.218Z" transform="translate(-755.853 240.397)" fill="#343343"/>
              <path id="Trazado_114882" data-name="Trazado 114882" d="M771.146-241.468v11.218l-.535.309v-11.218Z" transform="translate(-758.435 241.468)" fill="#343343"/>
            </g>
          </g>
        </g>
      </g>
      <g id="Grupo_127808" data-name="Grupo 127808" transform="translate(722.533 -279.724)">
        <ellipse id="Elipse_4739" data-name="Elipse 4739" cx="3.336" cy="5.778" rx="3.336" ry="5.778" transform="matrix(0.005, -1, 1, 0.005, 5.405, 47.43)" fill="#cdd2d6" style="mix-blend-mode: multiply;isolation: isolate"/>
        <g id="Grupo_127807" data-name="Grupo 127807" transform="translate(0 0.73)">
          <g id="Grupo_127794" data-name="Grupo 127794" transform="translate(11.759 41.78)">
            <path id="Trazado_114883" data-name="Trazado 114883" d="M833.707-129.125s.24.039.318.419a1.065,1.065,0,0,1-.021.649,3.028,3.028,0,0,1-.484.715c-.155.091-.2.08-.2.08a8.374,8.374,0,0,1-.912,1.491,3.231,3.231,0,0,1-2.091.8c-.893,0-1.1-.573-1.1-.656s.044-.44.844-.986S833.707-129.125,833.707-129.125Z" transform="translate(-829.222 129.905)" fill="#2e3442"/>
            <path id="Trazado_114884" data-name="Trazado 114884" d="M831.493-131c-.015.049.078.973-.2,1.282a18.6,18.6,0,0,0-1.583,2.007,3.032,3.032,0,0,0-.029.792,1.452,1.452,0,0,0,1.61.486,3.427,3.427,0,0,0,1.964-1.781c.345-.623.867-1.16.953-1.472a8.549,8.549,0,0,0,.064-1.367C834.269-131.07,831.493-131,831.493-131Z" transform="translate(-829.486 131.057)" fill="#40485c"/>
          </g>
          <g id="Grupo_127795" data-name="Grupo 127795" transform="translate(5.513 39.235)">
            <path id="Trazado_114885" data-name="Trazado 114885" d="M818.729-135.552c.213.163.7.571.7.879a1.547,1.547,0,0,1-.052.553,5.983,5.983,0,0,1-1.168.524c-.229.081-.339-.086-.589.092s-.88.667-1.2.9a2.941,2.941,0,0,1-1.849.348c-.7-.109-.77-.353-.821-.644a1.214,1.214,0,0,1,.2-.759,2.357,2.357,0,0,1,1.37-.547A22.283,22.283,0,0,0,818.729-135.552Z" transform="translate(-813.747 136.283)" fill="#2e3442"/>
            <path id="Trazado_114886" data-name="Trazado 114886" d="M817.285-137.362a2.97,2.97,0,0,1-.315.752,16.593,16.593,0,0,0-2.607,1.519,1.564,1.564,0,0,0-.322.912s.134.465,1.021.47a2.54,2.54,0,0,0,1.758-.542,3.219,3.219,0,0,1,1.205-.695c.807-.19,1.477-.469,1.466-.871s-.077-1.3-.077-1.3Z" transform="translate(-813.922 137.362)" fill="#40485c"/>
          </g>
          <path id="Trazado_114887" data-name="Trazado 114887" d="M818.582-217.469c-1.59-.229-2.5,1.176-3.016,3.133-.241.923-1.246,4.549-1.361,5.285a1.474,1.474,0,0,0,.934,1.513c.373.038.764.363,1.443-.44S820.952-217.638,818.582-217.469Z" transform="translate(-808.499 224.386)" fill="#dbe6ff"/>
          <path id="Trazado_114888" data-name="Trazado 114888" d="M810.128-199.115c-.526.283-1.837,2.041-3.239,2.907a1.222,1.222,0,0,0,.6,2.038c.535,0,4.672-2.292,4.807-3.241C812.048-198.246,811.736-199.246,810.128-199.115Z" transform="translate(-803.957 213.432)" fill="#e0e9ff"/>
          <path id="Trazado_114889" data-name="Trazado 114889" d="M805.352-192.589s-.535.063-.745.1a.378.378,0,0,0-.28.159l.025.242s-.21.128-.153.287.319.1.319.1l.382-.236s.344.089.376.159a.438.438,0,0,0,.414.363.446.446,0,0,0,.433-.643A2.473,2.473,0,0,0,805.352-192.589Z" transform="translate(-802.534 209.533)" fill="#ffadb7"/>
          <path id="Trazado_114890" data-name="Trazado 114890" d="M819.392-184.928c-.369,1.8-.955,2.713-.841,4.942s.062,7.955.413,9.025,2.09.5,2.663.21a1.838,1.838,0,0,0,.955-1.146c.1-.363,1.337-10.6,1.051-11.617S819.392-184.928,819.392-184.928Z" transform="translate(-811.091 204.964)" fill="#2f337d"/>
          <path id="Trazado_114891" data-name="Trazado 114891" d="M824.738-182.547a16.428,16.428,0,0,0,0,3.65c.253,1.242,1.419,1.357,1.534,1.739s.212,5.4.576,6.581,3.857,1.541,3.933.423a20.4,20.4,0,0,1,.172-3.89,19.766,19.766,0,0,0,.263-6.42,35.713,35.713,0,0,0-.7-4.146C830.475-184.782,824.738-182.547,824.738-182.547Z" transform="translate(-814.721 204.781)" fill="#2e3287"/>
          <path id="Trazado_114892" data-name="Trazado 114892" d="M823.308-157.616c-.034.709-.125,3.218-.217,4.623-.045.691-.092,1.331-.138,1.785-.408.611-2.681.528-2.821-.174-.043-.213-.136-.9-.245-1.748-.249-1.944-.581-4.751-.581-4.751s3.3-4.177,3.325-4.05A28.374,28.374,0,0,1,823.308-157.616Z" transform="translate(-811.549 191.25)" fill="#2f337d"/>
          <path id="Trazado_114893" data-name="Trazado 114893" d="M834.935-147.235a2.072,2.072,0,0,1-.2.934c-.351.693-2.571,1.473-3.068.1a11.017,11.017,0,0,0-.18-1.26c-.389-2.109-1.269-5.639-1.36-6.838l3.386-2.984s.518-.53.874,2.072A77.4,77.4,0,0,1,834.935-147.235Z" transform="translate(-818.004 188.505)" fill="#2e3287"/>
          <g id="Grupo_127796" data-name="Grupo 127796" transform="translate(14.497 21.392)">
            <path id="Trazado_114894" data-name="Trazado 114894" d="M838.29-157.959l-.757-.045c.136-2.276-.632-8.6-1.148-12.051a3.457,3.457,0,0,1-.023-.842c.651-6.814.5-7.361-.337-10.4l-.02-.074.731-.2.021.074c.848,3.077,1.024,3.718.36,10.67a2.68,2.68,0,0,0,.018.658C837.655-166.686,838.43-160.293,838.29-157.959Z" transform="translate(-836.005 181.57)" fill="#bfc8de"/>
          </g>
          <path id="Trazado_114895" data-name="Trazado 114895" d="M824.441-216.8a14.391,14.391,0,0,1,4.1,2.188c.382.411-1.465,10.356-1.172,12.177-1.847,1.834-5.057,1.261-5.936,1.223a2.35,2.35,0,0,1-2.064-1.478c-.191-.764.115-4.993-.14-7.248a12.546,12.546,0,0,1,.281-5.26c1.146-3.4,3.4-1.159,3.4-1.159Z" transform="translate(-811.42 224.141)" fill="#d4dff7"/>
          <path id="Trazado_114896" data-name="Trazado 114896" d="M827.241-201.827s-.181,2.436-.172,2.732,1.385.611,1.385.611,1.338-.143,1.4-.43.105-2.666.105-2.666Z" transform="translate(-816.179 215.042)" fill="#e0e9ff"/>
          <path id="Trazado_114897" data-name="Trazado 114897" d="M827.316-203.7c.011.521-2.169,1.5-4.688,1.144q-.3-.042-.571-.1h0c-.276-.052-.531-.114-.767-.181a4.392,4.392,0,0,1-2.306-1.226c-.052-.148.174-4.928,0-6.35a18.051,18.051,0,0,1,.293-5.073,2.817,2.817,0,0,1,2.008-2.359,5.589,5.589,0,0,1,1.9-.392,3.9,3.9,0,0,0-2.346,2.927,9.351,9.351,0,0,0,.526,4.371,5.51,5.51,0,0,0,.379.811c.138-.223.263-.432.379-.628,1.593-2.707,1.226-3.012,3.5-5.423.405-.431.486-.426.5-.421a2.721,2.721,0,0,0-1.142-.658c-.457-.032.534-.032.534-.032a7.885,7.885,0,0,1,2.689,1.8,3.663,3.663,0,0,0-2.781,2.772c-.679,1.827.012,4.219.892,4.662s1.011.213.988.266S827.306-204.223,827.316-203.7Z" transform="translate(-811.315 224.835)" fill="#3741d6"/>
          <g id="Grupo_127797" data-name="Grupo 127797" transform="translate(9.941 13.897)">
            <path id="Trazado_114898" data-name="Trazado 114898" d="M825.587-199.313c0,.055-.194,4.992-.068,7.457-.276-.052-.531-.114-.767-.181-.106-2.526.065-7,.077-7.3v-.8a5.534,5.534,0,0,0,.379.811c.138-.223.263-.432.379-.628Z" transform="translate(-824.717 200.139)" fill="#bfc8de"/>
          </g>
          <path id="Trazado_114899" data-name="Trazado 114899" d="M836.92-201.5a34.433,34.433,0,0,1-.112-6.033c.229-2.008.45-2.545,1.329-3.125.88-.352.911-.306.911-.306.373.18.894.613,1.008,4.947.077,2.922-.113,3.9-.246,4.15S836.92-201.5,836.92-201.5Z" transform="translate(-821.931 220.494)" fill="#e0e9ff"/>
          <path id="Trazado_114900" data-name="Trazado 114900" d="M825.068-224a7.613,7.613,0,0,1,.815,2.114c-.029.538,1.795.084,2.183-.551s.645-.9.567-1.33a14.522,14.522,0,0,1-.43-2.088c-.094-1.007-.754-2.937-1.47-2.7S825.068-224,825.068-224Z" transform="translate(-814.986 230.994)" fill="#ffadb7"/>
          <path id="Trazado_114901" data-name="Trazado 114901" d="M829.633-218.584l.112.421a2.23,2.23,0,0,1-1.064,1.3,5.811,5.811,0,0,1-1.607.815l.458,1.357a4.775,4.775,0,0,0,.745-.391,8.826,8.826,0,0,0,2.079-1.725.939.939,0,0,0,.111-.68l-.562-1.082Z" transform="translate(-816.182 225.036)" fill="#e0e9ff"/>
          <path id="Trazado_114902" data-name="Trazado 114902" d="M825.307-214.069c0,.17.235.486.406.717a2.663,2.663,0,0,1-.884.962s-.061-1.184-.026-1.429S825.307-214.069,825.307-214.069Z" transform="translate(-814.821 222.343)" fill="#e0e9ff"/>
          <path id="Trazado_114903" data-name="Trazado 114903" d="M805.411-191.793a1.763,1.763,0,0,1,.172.733,2.642,2.642,0,0,1-.172.885,2.342,2.342,0,0,1-.624.433,1.652,1.652,0,0,1-.771,0s-1.127-1.414-1.127-1.478a1.948,1.948,0,0,1,.038-.242l.866-.5,1.146.064Z" transform="translate(-801.759 209.157)" fill="#ffadb7"/>
          <path id="Trazado_114904" data-name="Trazado 114904" d="M822.34-182.613s-.4.013-.543.038-.47.128-.47.128a.443.443,0,0,1-.4.191c-.3,0-.3-.169-.3-.251s.4-.293.535-.408a4.536,4.536,0,0,1,.866-.188,4.438,4.438,0,0,1,1.08.2c.2.11.328.19.328.19A2.282,2.282,0,0,1,822.34-182.613Z" transform="translate(-812.337 203.876)" fill="#ffadb7"/>
          <g id="Grupo_127805" data-name="Grupo 127805" transform="translate(0 15.379)">
            <g id="Grupo_127804" data-name="Grupo 127804" style="isolation: isolate">
              <g id="Grupo_127798" data-name="Grupo 127798" transform="translate(10.789 8.999)">
                <path id="Trazado_114905" data-name="Trazado 114905" d="M827.155-173.961l-.268.333c.026-.033.006-.1-.068-.209l.267-.333C827.16-174.064,827.181-173.994,827.155-173.961Z" transform="translate(-826.819 174.17)" fill="#2e3442"/>
              </g>
              <g id="Grupo_127799" data-name="Grupo 127799" transform="translate(0.011)">
                <path id="Trazado_114906" data-name="Trazado 114906" d="M800.115-196.112l.268-.333c.04-.05.187-.012.415.12l-.267.333C800.3-196.123,800.155-196.161,800.115-196.112Z" transform="translate(-800.115 196.466)" fill="#2e3442"/>
              </g>
              <g id="Grupo_127800" data-name="Grupo 127800" transform="translate(7.757 4.662)">
                <path id="Trazado_114907" data-name="Trazado 114907" d="M819.306-184.581l.267-.333,3.032,4.337-.267.333Z" transform="translate(-819.306 184.915)" fill="#2e3442"/>
              </g>
              <g id="Grupo_127801" data-name="Grupo 127801" transform="translate(0.426 0.141)">
                <path id="Trazado_114908" data-name="Trazado 114908" d="M801.145-195.783l.267-.333,6.306,3.64-.268.333Z" transform="translate(-801.145 196.116)" fill="#2e3442"/>
              </g>
              <g id="Grupo_127802" data-name="Grupo 127802" transform="translate(6.732 3.782)">
                <path id="Trazado_114909" data-name="Trazado 114909" d="M816.767-186.764l.267-.333a3.782,3.782,0,0,1,1.025.881l-.268.333A3.78,3.78,0,0,0,816.767-186.764Z" transform="translate(-816.767 187.097)" fill="#2e3442"/>
              </g>
              <g id="Grupo_127803" data-name="Grupo 127803" transform="translate(0 0.333)">
                <path id="Trazado_114910" data-name="Trazado 114910" d="M806.82-191.859a3.78,3.78,0,0,1,1.025.881l3.032,4.337c.187.268.031.307-.347.089l-6.306-3.641a3.766,3.766,0,0,1-1.025-.881l-3.032-4.337c-.187-.268-.032-.307.347-.088Z" transform="translate(-800.089 195.64)" fill="#2e3442"/>
              </g>
            </g>
          </g>
          <path id="Trazado_114911" data-name="Trazado 114911" d="M803.018-190.307a2.514,2.514,0,0,1,.562.08c.067.052.029.22.029.22l.282-.234s.224.144.227.289c.079.1.213.217.222.379l.009.162a.4.4,0,0,1,.072.33c-.062.148-.521.387-.521.387s-.6-.148-.674-.263a.768.768,0,0,1-.043-.387l-.057-.124a.373.373,0,0,1-.311-.067c-.157-.115-.09-.4-.09-.4a1.059,1.059,0,0,1-.335-.277c-.086-.143.148-.492.148-.492l.08-.022.121.294Z" transform="translate(-801.45 208.423)" fill="#ffadb7"/>
          <path id="Trazado_114912" data-name="Trazado 114912" d="M826.34-186.662c.268.387.455.348,1.006.213s6.258-2.873,5.852-4.691-2.437-1.087-2.77-.769a18.445,18.445,0,0,1-2.5,2.172c-1.377.983-2.2,1.332-2.295,1.532S826.34-186.662,826.34-186.662Z" transform="translate(-815.32 209.376)" fill="#e0e9ff"/>
          <path id="Trazado_114913" data-name="Trazado 114913" d="M823.994-182.506a3.018,3.018,0,0,0-.625-.2,8.786,8.786,0,0,0-1.274.216s-.771.35-.783.471-.032.484-.032.484l.051.108a.849.849,0,0,0-.051.357.508.508,0,0,0,.165.223.543.543,0,0,0,.089.293c.083.083.146.07.146.07a1.181,1.181,0,0,0,.14.312,1.475,1.475,0,0,0,.427.121,2.822,2.822,0,0,0,.822,0c.242-.077,1.017-.707,1.17-.752a.534.534,0,0,0,.248-.172S824.354-182.248,823.994-182.506Z" transform="translate(-812.722 203.642)" fill="#ffadb7"/>
          <path id="Trazado_114914" data-name="Trazado 114914" d="M819.829-227.972a1.575,1.575,0,0,0-.259,1.353,19.017,19.017,0,0,0,.846,2.966,8.655,8.655,0,0,0,.907,1.58,1.9,1.9,0,0,0,.989.175,4.635,4.635,0,0,0,2-1.69,8.378,8.378,0,0,0-.207-3.715C823.737-228.076,820.5-228.2,819.829-227.972Z" transform="translate(-811.681 230.695)" fill="#ffadb7"/>
          <path id="Trazado_114915" data-name="Trazado 114915" d="M820.311-230.774a4.257,4.257,0,0,0,.68-.007c.266-.025.514-.124.779-.146a.431.431,0,0,1,.183.016c.17.063.144.362.177.514a.993.993,0,0,0,.178.465c.224.234.775.391.914,1.01l.077.505.389-.29a8.16,8.16,0,0,1-.032-1.037c.031-.328.39-.894.764-.27a1.8,1.8,0,0,0,.264,1.307,10.158,10.158,0,0,0,.5-2.657c.038-1.338-.286-2.659-1.734-2.844-1.277-.654-2.314-.411-3.486.682a2.463,2.463,0,0,0-.951,2.148.807.807,0,0,0,.232.36,2.134,2.134,0,0,0,.968.237Z" transform="translate(-811.364 234.569)" fill="#202459"/>
          <g id="Grupo_127806" data-name="Grupo 127806" transform="translate(10.301 2.481)">
            <path id="Trazado_114916" data-name="Trazado 114916" d="M825.872-226.068a.737.737,0,0,1-.261-.042l.107-.286c.329.126,1.141-.243,1.925-.6l.134-.06c1.01-.455,1.119-1.109,1.119-1.368h.3a1.844,1.844,0,0,1-1.3,1.646l-.134.06A5.774,5.774,0,0,1,825.872-226.068Z" transform="translate(-825.611 228.421)" fill="#d4dff7"/>
          </g>
          <path id="Trazado_114917" data-name="Trazado 114917" d="M831.283-223.666c.057-.378.225-.485.515-.476s.389.172.3.793-.324.932-.593.965-.239-.272-.227-.455S831.283-223.666,831.283-223.666Z" transform="translate(-818.685 228.351)" fill="#ffadb7"/>
        </g>
        <path id="Trazado_114918" data-name="Trazado 114918" d="M824.516-233.1c-.072,1.01-2.274,2.04-3.866,2.293s-2.523-.126-2.9-.723a4.87,4.87,0,0,1,.1-2.281,4.134,4.134,0,0,1,.631-1.287,4.66,4.66,0,0,1,3.744-1.013,3.282,3.282,0,0,1,2.274,2.644A2.766,2.766,0,0,1,824.516-233.1Z" transform="translate(-810.568 236.255)" fill="#ffae00"/>
        <path id="Trazado_114919" data-name="Trazado 114919" d="M823.981-235.418c.155.756-.806,1.591-2.147,1.867s-2.553-.115-2.708-.871.806-1.591,2.146-1.867S823.826-236.174,823.981-235.418Z" transform="translate(-811.432 236.377)" fill="#ffae00"/>
        <path id="Trazado_114920" data-name="Trazado 114920" d="M817.4-225.28a1.132,1.132,0,0,0-.171,1.134c.28.6,1.755.89,2.747.649a3.6,3.6,0,0,0,1.713-1.168,6.088,6.088,0,0,1-3.447.182C817.587-224.839,817.53-224.9,817.4-225.28Z" transform="translate(-810.254 229.759)" fill="#ffbb29"/>
        <path id="Trazado_114921" data-name="Trazado 114921" d="M824.264-234.9c.112.547-.583,1.152-1.554,1.351s-1.848-.083-1.96-.63.583-1.152,1.554-1.351S824.152-235.445,824.264-234.9Z" transform="translate(-812.404 235.909)" fill="#ffbb29"/>
        <path id="Trazado_114922" data-name="Trazado 114922" d="M824.516-229.614c-.072,1.01-2.274,2.04-3.866,2.293s-2.523-.126-2.9-.722a4.87,4.87,0,0,1,.1-2.281,2.152,2.152,0,0,0,2.031,2.036c1.259.227,3.785-.448,4.618-1.692A2.766,2.766,0,0,1,824.516-229.614Z" transform="translate(-810.568 232.768)" fill="#f59200"/>
      </g>
      <g id="Grupo_127816" data-name="Grupo 127816" transform="translate(692.265 -256.613)">
        <path id="Trazado_114923" data-name="Trazado 114923" d="M761.724-105.856l10.025-5.788,9.972,5.757L771.7-100.1Z" transform="translate(-746.94 138.878)" fill="#cdd2d6" style="mix-blend-mode: multiply;isolation: isolate"/>
        <path id="Trazado_114924" data-name="Trazado 114924" d="M725.1-124.928,739.074-133l13.9,8.027L739-116.9Z" transform="translate(-725.097 151.613)" fill="#cdd2d6" style="mix-blend-mode: multiply;isolation: isolate"/>
        <g id="Grupo_127815" data-name="Grupo 127815" transform="translate(2.096)">
          <g id="Grupo_127809" data-name="Grupo 127809" transform="translate(0 6.934)">
            <path id="Trazado_114925" data-name="Trazado 114925" d="M730.291-132.052l11.807,6.817v-12.891l-11.807-6.817Z" transform="translate(-730.291 151.803)" fill="#ae835b"/>
            <path id="Trazado_114926" data-name="Trazado 114926" d="M771.423-132.158,759.542-125.3V-138.19l11.881-6.859Z" transform="translate(-747.736 151.866)" fill="#c99a6b"/>
            <path id="Trazado_114927" data-name="Trazado 114927" d="M786.431-116.234v9.624l8.406-4.853v-9.624Z" transform="translate(-763.771 137.575)" fill="#c99a6b"/>
            <path id="Trazado_114928" data-name="Trazado 114928" d="M765.735-111.388l8.354,4.823v-9.624l-8.354-4.823Z" transform="translate(-751.429 137.53)" fill="#ae835b"/>
            <path id="Trazado_114929" data-name="Trazado 114929" d="M765.735-128.183l8.354,4.823,8.406-4.853-8.353-4.823Z" transform="translate(-751.429 144.701)" fill="#e8b687"/>
            <path id="Trazado_114930" data-name="Trazado 114930" d="M730.291-155.078l11.807,6.817,11.881-6.859-11.807-6.817Z" transform="translate(-730.291 161.938)" fill="#e8b687"/>
          </g>
          <g id="Grupo_127810" data-name="Grupo 127810" transform="translate(17.809 20.622)">
            <path id="Trazado_114931" data-name="Trazado 114931" d="M796.51-111.6l-1.4.808v-4.48l1.4-.808Z" transform="translate(-786.756 120.899)" fill="#4c70f5"/>
            <path id="Trazado_114932" data-name="Trazado 114932" d="M784.167-123.2l-1.4.808-8.353-4.823,1.4-.808Z" transform="translate(-774.413 128.025)" fill="#6182ff"/>
          </g>
          <g id="Grupo_127811" data-name="Grupo 127811" transform="translate(5.203 9.938)">
            <path id="Trazado_114933" data-name="Trazado 114933" d="M743.182-131.841l1.4.808v-5.659l-1.4-.808Z" transform="translate(-743.182 144.36)" fill="#415dd6"/>
            <path id="Trazado_114934" data-name="Trazado 114934" d="M743.182-147.635l1.4.808,11.881-6.859-1.4-.808Z" transform="translate(-743.182 154.495)" fill="#6182ff"/>
          </g>
          <path id="Trazado_114935" data-name="Trazado 114935" d="M737.985-155.274l8.406-4.853,8.361,4.827-8.406,4.853Z" transform="translate(-734.879 167.792)" fill="#ae835b"/>
          <g id="Grupo_127814" data-name="Grupo 127814" transform="translate(4.367)">
            <g id="Grupo_127812" data-name="Grupo 127812">
              <path id="Trazado_114936" data-name="Trazado 114936" d="M748.254-164.837v8.336l-7.144-4.125v-8.336Z" transform="translate(-741.11 173.061)" fill="#ae835b"/>
              <path id="Trazado_114937" data-name="Trazado 114937" d="M765.909-160.562l-7.1,4.1V-164.8l7.1-4.1Z" transform="translate(-751.666 173.023)" fill="#c99a6b"/>
              <path id="Trazado_114938" data-name="Trazado 114938" d="M755.353-174.993l-7.1,4.1-7.144-4.125,7.1-4.1Z" transform="translate(-741.11 179.117)" fill="#e8b687"/>
            </g>
            <g id="Grupo_127813" data-name="Grupo 127813" transform="translate(2.85 1.645)">
              <path id="Trazado_114939" data-name="Trazado 114939" d="M767.27-160.71l-1.4.808v-4.112l1.4-.808Z" transform="translate(-758.726 168.946)" fill="#4c70f5"/>
              <path id="Trazado_114940" data-name="Trazado 114940" d="M756.714-170.916l-1.4.808-7.144-4.125,1.4-.808Z" transform="translate(-748.17 175.041)" fill="#6182ff"/>
            </g>
          </g>
        </g>
      </g>
    </g>
  </g>
</svg>
