<svg xmlns="http://www.w3.org/2000/svg" width="389.05" height="406.92" viewBox="0 0 389.05 406.92">
  <g id="Grupo_129598" data-name="Grupo 129598" transform="translate(-281.646 -889.984)">
    <g id="Grupo_129282" data-name="Grupo 129282" transform="translate(281.646 889.984)">
      <path id="Trazado_187754" data-name="Trazado 187754" d="M1771.925,2566.385c58.622-6.012,120.084,25.3,111.049,70.7s48.3-16.125,71.181.242c16.291,11.653,19.026,51.9,26.908,66.2,18.069,32.772,27.3-13.276,50.3,11.486s13.435,256.318,4.071,256.285l-354.641-1.148-4.243.241s-26.009-66.514-2.464-105.355,9.568-63.713,6.707-78.725c-3.286-17.235-13.141-40.226,20.259-62.316,13.708-9.066-14.084-26.925,5.592-36.18.505-2.267,15.135-14.44,15.471-16.982,2.139-16.193.42-41.134,0-46.23-.821-9.953-8.81-52.2,49.812-58.213Z" transform="translate(-1656.567 -2565.646)" fill="#fffef0"/>
      <rect id="Rectángulo_40615" data-name="Rectángulo 40615" width="32.756" height="321.81" transform="translate(285.509 83.091)" fill="#fff59d" opacity="0.6"/>
      <rect id="Rectángulo_40616" data-name="Rectángulo 40616" width="32.756" height="352.024" transform="translate(241.53 52.877)" fill="#fff59d" opacity="0.6"/>
      <rect id="Rectángulo_40617" data-name="Rectángulo 40617" width="32.756" height="297.621" transform="translate(197.551 107.279)" fill="#fff59d" opacity="0.6"/>
      <g id="Grupo_128245" data-name="Grupo 128245" transform="translate(194.951 160.561)">
        <rect id="Rectángulo_40618" data-name="Rectángulo 40618" width="32.756" height="221.088" transform="translate(91.49 23.251)" fill="#9bc1f9" opacity="0.3" style="mix-blend-mode: multiply;isolation: isolate"/>
        <rect id="Rectángulo_40619" data-name="Rectángulo 40619" width="32.756" height="244.339" transform="translate(45.745)" fill="#9bc1f9" opacity="0.3" style="mix-blend-mode: multiply;isolation: isolate"/>
        <rect id="Rectángulo_40620" data-name="Rectángulo 40620" width="32.756" height="111.747" transform="translate(0 132.592)" fill="#9bc1f9" opacity="0.3" style="mix-blend-mode: multiply;isolation: isolate"/>
      </g>
      <g id="Grupo_128247" data-name="Grupo 128247" transform="translate(31.418 217.886)">
        <path id="Trazado_187755" data-name="Trazado 187755" d="M1833.879,2785.832c-37.455-29.827-68.927-68.405-92.755-113.7l-51.517,41.384c27.551,52.375,63.939,96.98,107.246,131.466Z" transform="translate(-1689.607 -2672.129)" fill="#3c8f7c"/>
        <path id="Trazado_187756" data-name="Trazado 187756" d="M1733.692,2683.684l-32,26.117c2.541,4.736,1.619,11.125-2.165,14.366,24.22,42.824,54.573,80.033,89.919,110.226a8.2,8.2,0,0,1,12.251-2l23.348-36.725c-3.6-2.924-4.117-8.9-1.228-13.232-31.039-26.513-57.694-59.189-78.963-96.8C1741.07,2688.877,1736.03,2688.042,1733.692,2683.684Z" transform="translate(-1690.241 -2672.868)" fill="#96d9c9"/>
        <g id="Grupo_128246" data-name="Grupo 128246" transform="translate(50.31 67.042)">
          <path id="Trazado_187757" data-name="Trazado 187757" d="M1779.6,2785.422c8-10.321,7.92-25.547.376-34.655-7.563-9.085-20.488-9.512-29.428-.327-8.926,9.165-9.779,25.457-1.275,35.686S1771.621,2795.725,1779.6,2785.422Z" transform="translate(-1743.352 -2743.749)" fill="#50bfa5"/>
          <path id="Trazado_187758" data-name="Trazado 187758" d="M1779.686,2756.727q-1.508,1.674-3.015,3.346c2.4,4.407,1.9,8.96-.7,11.936-2.617,3-5.547,3.274-10.014.627-3.243-1.833-4.8-2.374-5.791-1.3-.836.9-1.113,2.545.659,4.786a12.237,12.237,0,0,0,2.777,2.6,3,3,0,0,1,.794,3.813h0a2.156,2.156,0,0,1-3.2.928,17.105,17.105,0,0,1-2.925-2.714l-2.608,2.877q-1.367-1.712-2.716-3.443l2.839-3.078c-2.3-4.435-1.84-8.843.825-11.64,2.941-3.09,6.344-2.141,10.243.3,2.7,1.688,4.271,1.954,5.391.708,1.18-1.316.8-3.322-.691-5.219a13.263,13.263,0,0,0-3.374-3.03,2.877,2.877,0,0,1-.688-3.812l.085-.145a2.166,2.166,0,0,1,3.058-.94,18,18,0,0,1,3.7,3.292l2.832-3.087Q1778.42,2755.14,1779.686,2756.727Z" transform="translate(-1743.966 -2744.341)" fill="#3c8f7c"/>
          <path id="Trazado_187759" data-name="Trazado 187759" d="M1811.641,2815.054q-12.8-10.964-24.656-23.212l-4.059,5.279q12.009,12.41,25,23.538Z" transform="translate(-1745.882 -2746.823)" fill="#50bfa5"/>
        </g>
      </g>
      <g id="Grupo_128249" data-name="Grupo 128249" transform="translate(7.656 273.171)">
        <path id="Trazado_187760" data-name="Trazado 187760" d="M1824.619,2777.582c-47.045-5.967-93.185-21.708-135.986-46.393q-12.206,28.6-24.411,57.193c49.488,28.543,102.835,46.743,157.231,53.641Q1823.036,2809.8,1824.619,2777.582Z" transform="translate(-1664.222 -2731.189)" fill="#3c8f7c"/>
        <path id="Trazado_187761" data-name="Trazado 187761" d="M1687.459,2744.177l-14.962,35.854c4.517,2.558,6.843,8.063,5.147,12.425a417.882,417.882,0,0,0,131.83,44.974c.384-4.809,4.693-8.051,9.638-7.381q1.139-20.09,2.276-40.181c-4.551-.618-7.919-5.115-7.534-9.921a366.935,366.935,0,0,1-115.767-39.494A7.254,7.254,0,0,1,1687.459,2744.177Z" transform="translate(-1664.751 -2731.781)" fill="#96d9c9"/>
        <g id="Grupo_128248" data-name="Grupo 128248" transform="translate(64.878 40.951)">
          <path id="Trazado_187762" data-name="Trazado 187762" d="M1776.593,2803.7c1.884-11.971-5.628-24.018-16.619-27.681a19.747,19.747,0,0,0-25.664,13.65c-3.254,11.493,3.974,24.826,16.345,28.924S1774.716,2815.649,1776.593,2803.7Z" transform="translate(-1733.531 -2774.937)" fill="#50bfa5"/>
          <path id="Trazado_187763" data-name="Trazado 187763" d="M1762.655,2781.009l-.977,4.081c4.238,2.361,6.024,6.216,5.233,9.8-.8,3.614-3.206,5.219-8.371,5.231-3.708.079-5.323.386-5.656,1.7-.284,1.113.279,2.546,2.911,3.487a12.752,12.752,0,0,0,3.678.751,2.779,2.779,0,0,1,2.554,2.652h0a2.123,2.123,0,0,1-2.32,2.248,17.891,17.891,0,0,1-3.862-.771q-.426,1.758-.853,3.517-2.022-.713-4.037-1.449.477-1.893.956-3.784c-4.159-2.434-5.919-6.148-4.977-9.628,1.039-3.843,4.451-4.7,9.027-4.6,3.169.061,4.658-.469,5.018-1.987.38-1.6-.934-3.012-3.15-3.814a13.927,13.927,0,0,0-4.406-.81,2.652,2.652,0,0,1-2.46-2.7l0-.155a2.13,2.13,0,0,1,2.19-2.191,18.832,18.832,0,0,1,4.817.864q.473-1.894.944-3.788Q1760.782,2780.347,1762.655,2781.009Z" transform="translate(-1734.372 -2775.239)" fill="#3c8f7c"/>
        </g>
      </g>
      <path id="Trazado_187764" data-name="Trazado 187764" d="M1811.056,2679.126a29.2,29.2,0,0,1-3.349-1.336,16.839,16.839,0,0,0-3.818-1.434c-2.113-.325-5.743-.109-7.747,2.058-2.5,2.7-6.934.488-6.04,14.627,1.012,16,9.941,14.247,10.157,13.977s7.964-10.239,7.964-10.239,2.708,5.9,2.708,5.688S1824.761,2683.726,1811.056,2679.126Z" transform="translate(-1669.373 -2449.738)" fill="#0e2e35"/>
      <g id="Grupo_128251" data-name="Grupo 128251" transform="translate(35.492 330.126)">
        <path id="Trazado_187765" data-name="Trazado 187765" d="M1814.329,2792.034c-37.015,14.625-77.855,21.31-120.369,19.7q4.232,27.134,8.464,54.271c49.156,1.857,96.376-5.872,139.174-22.782Z" transform="translate(-1693.96 -2792.034)" fill="#3c8f7c"/>
        <path id="Trazado_187766" data-name="Trazado 187766" d="M1698.713,2822.443q2.777,16.941,5.554,33.882c4.466.132,8.687,3.445,9.453,7.515,40.894.3,80.285-6.148,116.689-19.1a6.814,6.814,0,0,1,3.635-9.657q-8.392-16.021-16.784-32.044c-3.6,1.384-8.116-.722-10.042-4.6-31.969,11.374-66.56,17.036-102.471,16.773C1705.514,2819.279,1702.823,2822.564,1698.713,2822.443Z" transform="translate(-1694.264 -2792.444)" fill="#96d9c9"/>
        <g id="Grupo_128250" data-name="Grupo 128250" transform="translate(54.841 24.615)">
          <path id="Trazado_187767" data-name="Trazado 187767" d="M1790.559,2833.23c-4.122-10.039-15.124-16.295-24.813-14.634-9.681,1.684-15.345,10.818-12.434,21.066,2.9,10.231,14.289,17.6,25.184,15.711S1794.675,2843.251,1790.559,2833.23Z" transform="translate(-1752.547 -2818.33)" fill="#50bfa5"/>
          <path id="Trazado_187768" data-name="Trazado 187768" d="M1769.893,2821.688q.581,1.779,1.162,3.559c4.172.094,7.241,2.348,8.311,5.45,1.074,3.126.059,5.352-3.7,7.475-2.665,1.577-3.7,2.477-3.339,3.633.305.977,1.372,1.857,3.722,1.509a10.161,10.161,0,0,0,3.025-.923,2.5,2.5,0,0,1,3.077,1.008h0a1.792,1.792,0,0,1-.657,2.69,14.183,14.183,0,0,1-3.168.982q.5,1.536.993,3.072-1.8.275-3.607.53-.519-1.661-1.041-3.321c-4.147-.185-7.134-2.34-8.045-5.42-1.007-3.4,1.087-5.458,4.466-7.254,2.337-1.249,3.178-2.268,2.744-3.592-.459-1.4-2.063-1.95-4.046-1.664a10.99,10.99,0,0,0-3.581,1.175,2.391,2.391,0,0,1-3.032-1.085l-.069-.121a1.8,1.8,0,0,1,.59-2.592,14.952,14.952,0,0,1,3.906-1.3q-.525-1.659-1.051-3.319Q1768.226,2821.942,1769.893,2821.688Z" transform="translate(-1753.202 -2818.544)" fill="#3c8f7c"/>
          <path id="Trazado_187769" data-name="Trazado 187769" d="M1824.823,2823.294q-13.205,4.681-26.945,8.144,1.062,2.557,2.121,5.113,13.919-3.51,27.321-8.258Z" transform="translate(-1755.445 -2818.647)" fill="#50bfa5"/>
        </g>
      </g>
      <g id="Grupo_128253" data-name="Grupo 128253" transform="translate(90.219 385.768)">
        <path id="Trazado_187770" data-name="Trazado 187770" d="M1757.308,2855.77v13.253c0,2.142,23.9,3.879,53.383,3.879s53.383-1.737,53.383-3.879V2855.77Z" transform="translate(-1757.308 -2851.75)" fill="#e59f39"/>
        <g id="Grupo_128252" data-name="Grupo 128252" transform="translate(0 4.02)">
          <path id="Trazado_187771" data-name="Trazado 187771" d="M1795.941,2872.752V2855.77h-38.633v13.253C1757.308,2870.793,1773.632,2872.287,1795.941,2872.752Z" transform="translate(-1757.308 -2855.77)" fill="#eab054"/>
          <path id="Trazado_187772" data-name="Trazado 187772" d="M1800.5,2872.787c4.148.075,8.486.115,12.953.115,6.655,0,13.027-.089,18.9-.25V2855.77H1800.5Z" transform="translate(-1760.069 -2855.77)" fill="#eab054"/>
          <path id="Trazado_187773" data-name="Trazado 187773" d="M1836.817,2872.59c19.019-.594,32.34-1.968,32.34-3.567V2855.77h-32.34Z" transform="translate(-1762.391 -2855.77)" fill="#eab054"/>
        </g>
        <ellipse id="Elipse_5046" data-name="Elipse 5046" cx="53.383" cy="3.879" rx="53.383" ry="3.879" fill="#e59f39"/>
        <path id="Trazado_187774" data-name="Trazado 187774" d="M1855.295,2855.436c0,1.486-19.682,2.689-43.96,2.689s-43.96-1.2-43.96-2.689,19.681-2.689,43.96-2.689S1855.295,2853.951,1855.295,2855.436Z" transform="translate(-1757.952 -2851.557)" fill="#f7cc7f"/>
      </g>
      <g id="Grupo_128255" data-name="Grupo 128255" transform="translate(81.526 371.745)">
        <path id="Trazado_187775" data-name="Trazado 187775" d="M1747.551,2840.789v13.253c0,2.142,23.9,3.879,53.383,3.879s53.383-1.737,53.383-3.879v-13.253Z" transform="translate(-1747.551 -2836.769)" fill="#e59f39"/>
        <g id="Grupo_128254" data-name="Grupo 128254" transform="translate(0 4.02)">
          <path id="Trazado_187776" data-name="Trazado 187776" d="M1786.183,2857.77v-16.981h-38.632v13.253C1747.551,2855.812,1763.875,2857.306,1786.183,2857.77Z" transform="translate(-1747.551 -2840.789)" fill="#eab054"/>
          <path id="Trazado_187777" data-name="Trazado 187777" d="M1790.742,2857.806c4.148.075,8.486.115,12.953.115,6.656,0,13.027-.089,18.9-.251v-16.881h-31.857Z" transform="translate(-1750.312 -2840.789)" fill="#eab054"/>
          <path id="Trazado_187778" data-name="Trazado 187778" d="M1827.06,2857.608c19.019-.594,32.339-1.967,32.339-3.566v-13.253H1827.06Z" transform="translate(-1752.634 -2840.789)" fill="#eab054"/>
        </g>
        <ellipse id="Elipse_5047" data-name="Elipse 5047" cx="53.383" cy="3.879" rx="53.383" ry="3.879" fill="#e59f39"/>
        <path id="Trazado_187779" data-name="Trazado 187779" d="M1845.538,2840.456c0,1.485-19.682,2.689-43.96,2.689s-43.96-1.2-43.96-2.689,19.681-2.689,43.96-2.689S1845.538,2838.97,1845.538,2840.456Z" transform="translate(-1748.194 -2836.576)" fill="#f7cc7f"/>
      </g>
      <g id="Grupo_128257" data-name="Grupo 128257" transform="translate(87.318 357.349)">
        <path id="Trazado_187780" data-name="Trazado 187780" d="M1754.052,2825.41v13.252c0,2.143,23.9,3.879,53.382,3.879s53.383-1.737,53.383-3.879V2825.41Z" transform="translate(-1754.052 -2821.39)" fill="#e59f39"/>
        <g id="Grupo_128256" data-name="Grupo 128256" transform="translate(0 4.02)">
          <path id="Trazado_187781" data-name="Trazado 187781" d="M1792.684,2842.391V2825.41h-38.632v13.252C1754.052,2840.433,1770.376,2841.926,1792.684,2842.391Z" transform="translate(-1754.052 -2825.41)" fill="#eab054"/>
          <path id="Trazado_187782" data-name="Trazado 187782" d="M1797.243,2842.426c4.147.076,8.485.115,12.952.115,6.656,0,13.028-.088,18.9-.25V2825.41h-31.856Z" transform="translate(-1756.813 -2825.41)" fill="#eab054"/>
          <path id="Trazado_187783" data-name="Trazado 187783" d="M1833.56,2842.228c19.02-.593,32.34-1.967,32.34-3.566V2825.41h-32.34Z" transform="translate(-1759.135 -2825.41)" fill="#eab054"/>
        </g>
        <ellipse id="Elipse_5048" data-name="Elipse 5048" cx="53.383" cy="3.879" rx="53.383" ry="3.879" fill="#e59f39"/>
        <path id="Trazado_187784" data-name="Trazado 187784" d="M1852.038,2825.075c0,1.486-19.681,2.69-43.96,2.69s-43.96-1.2-43.96-2.69,19.682-2.689,43.96-2.689S1852.038,2823.591,1852.038,2825.075Z" transform="translate(-1754.695 -2821.197)" fill="#f7cc7f"/>
      </g>
      <g id="Grupo_128259" data-name="Grupo 128259" transform="translate(81.526 343.15)">
        <path id="Trazado_187785" data-name="Trazado 187785" d="M1747.551,2810.241v13.252c0,2.142,23.9,3.88,53.383,3.88s53.383-1.738,53.383-3.88v-13.252Z" transform="translate(-1747.551 -2806.221)" fill="#e59f39"/>
        <g id="Grupo_128258" data-name="Grupo 128258" transform="translate(0 4.02)">
          <path id="Trazado_187786" data-name="Trazado 187786" d="M1786.183,2827.223v-16.982h-38.632v13.252C1747.551,2825.264,1763.875,2826.758,1786.183,2827.223Z" transform="translate(-1747.551 -2810.241)" fill="#eab054"/>
          <path id="Trazado_187787" data-name="Trazado 187787" d="M1790.742,2827.258c4.148.075,8.486.115,12.953.115,6.656,0,13.027-.089,18.9-.251v-16.881h-31.857Z" transform="translate(-1750.312 -2810.241)" fill="#eab054"/>
          <path id="Trazado_187788" data-name="Trazado 187788" d="M1827.06,2827.06c19.019-.594,32.339-1.967,32.339-3.566v-13.252H1827.06Z" transform="translate(-1752.634 -2810.241)" fill="#eab054"/>
        </g>
        <ellipse id="Elipse_5049" data-name="Elipse 5049" cx="53.383" cy="3.879" rx="53.383" ry="3.879" fill="#e59f39"/>
        <path id="Trazado_187789" data-name="Trazado 187789" d="M1845.538,2809.907c0,1.486-19.682,2.689-43.96,2.689s-43.96-1.2-43.96-2.689,19.681-2.689,43.96-2.689S1845.538,2808.422,1845.538,2809.907Z" transform="translate(-1748.194 -2806.028)" fill="#f7cc7f"/>
      </g>
      <g id="Grupo_128272" data-name="Grupo 128272" transform="translate(247.901 256.897)">
        <g id="Grupo_128261" data-name="Grupo 128261" transform="translate(0 127.187)">
          <path id="Trazado_187790" data-name="Trazado 187790" d="M2038.828,2853.806v12.745c0,2.06-22.984,3.73-51.336,3.73s-51.336-1.67-51.336-3.73v-12.745Z" transform="translate(-1936.156 -2849.941)" fill="#e59f39"/>
          <g id="Grupo_128260" data-name="Grupo 128260" transform="translate(0 3.865)">
            <path id="Trazado_187791" data-name="Trazado 187791" d="M2006.152,2870.137v-16.331H2043.3v12.745C2043.3,2868.254,2027.6,2869.69,2006.152,2870.137Z" transform="translate(-1940.63 -2853.806)" fill="#eab054"/>
            <path id="Trazado_187792" data-name="Trazado 187792" d="M2002.212,2870.171c-3.988.072-8.16.11-12.456.11-6.4,0-12.528-.085-18.179-.241v-16.234h30.635Z" transform="translate(-1938.42 -2853.806)" fill="#eab054"/>
            <path id="Trazado_187793" data-name="Trazado 187793" d="M1967.256,2869.981c-18.291-.571-31.1-1.892-31.1-3.43v-12.745h31.1Z" transform="translate(-1936.156 -2853.806)" fill="#eab054"/>
          </g>
          <ellipse id="Elipse_5050" data-name="Elipse 5050" cx="51.336" cy="3.73" rx="51.336" ry="3.73" fill="#e59f39"/>
          <path id="Trazado_187794" data-name="Trazado 187794" d="M1945.836,2853.485c0,1.428,18.927,2.586,42.275,2.586s42.274-1.158,42.274-2.586-18.927-2.586-42.274-2.586S1945.836,2852.057,1945.836,2853.485Z" transform="translate(-1936.775 -2849.755)" fill="#f7cc7f"/>
        </g>
        <g id="Grupo_128263" data-name="Grupo 128263" transform="translate(8.783 113.701)">
          <path id="Trazado_187795" data-name="Trazado 187795" d="M2048.211,2839.4v12.743c0,2.061-22.984,3.73-51.336,3.73s-51.337-1.67-51.337-3.73V2839.4Z" transform="translate(-1945.538 -2835.534)" fill="#e59f39"/>
          <g id="Grupo_128262" data-name="Grupo 128262" transform="translate(0 3.866)">
            <path id="Trazado_187796" data-name="Trazado 187796" d="M2015.535,2855.73V2839.4h37.151v12.743C2052.686,2853.847,2036.988,2855.282,2015.535,2855.73Z" transform="translate(-1950.013 -2839.4)" fill="#eab054"/>
            <path id="Trazado_187797" data-name="Trazado 187797" d="M2011.595,2855.764c-3.988.072-8.16.11-12.455.11-6.4,0-12.528-.085-18.18-.24V2839.4h30.635Z" transform="translate(-1947.802 -2839.4)" fill="#eab054"/>
            <path id="Trazado_187798" data-name="Trazado 187798" d="M1976.639,2855.574c-18.291-.571-31.1-1.892-31.1-3.43V2839.4h31.1Z" transform="translate(-1945.538 -2839.4)" fill="#eab054"/>
          </g>
          <ellipse id="Elipse_5051" data-name="Elipse 5051" cx="51.336" cy="3.73" rx="51.336" ry="3.73" transform="translate(0)" fill="#e59f39"/>
          <ellipse id="Elipse_5052" data-name="Elipse 5052" cx="42.274" cy="2.586" rx="42.274" ry="2.586" transform="translate(9.062 1.144)" fill="#f7cc7f"/>
        </g>
        <g id="Grupo_128265" data-name="Grupo 128265" transform="translate(2.931 99.857)">
          <path id="Trazado_187799" data-name="Trazado 187799" d="M2041.959,2824.61v12.744c0,2.06-22.983,3.73-51.336,3.73s-51.336-1.67-51.336-3.73V2824.61Z" transform="translate(-1939.287 -2820.744)" fill="#e59f39"/>
          <g id="Grupo_128264" data-name="Grupo 128264" transform="translate(0 3.866)">
            <path id="Trazado_187800" data-name="Trazado 187800" d="M2009.283,2840.94v-16.33h37.151v12.744C2046.434,2839.056,2030.736,2840.493,2009.283,2840.94Z" transform="translate(-1943.762 -2824.61)" fill="#eab054"/>
            <path id="Trazado_187801" data-name="Trazado 187801" d="M2005.344,2840.974c-3.989.072-8.161.11-12.456.11-6.4,0-12.529-.084-18.18-.241V2824.61h30.636Z" transform="translate(-1941.551 -2824.61)" fill="#eab054"/>
            <path id="Trazado_187802" data-name="Trazado 187802" d="M1970.387,2840.783c-18.29-.571-31.1-1.892-31.1-3.43V2824.61h31.1Z" transform="translate(-1939.287 -2824.61)" fill="#eab054"/>
          </g>
          <ellipse id="Elipse_5053" data-name="Elipse 5053" cx="51.336" cy="3.73" rx="51.336" ry="3.73" fill="#e59f39"/>
          <ellipse id="Elipse_5054" data-name="Elipse 5054" cx="42.274" cy="2.586" rx="42.274" ry="2.586" transform="translate(9.062 1.144)" fill="#f7cc7f"/>
        </g>
        <g id="Grupo_128267" data-name="Grupo 128267" transform="translate(8.783 86.203)">
          <path id="Trazado_187803" data-name="Trazado 187803" d="M2048.211,2810.023v12.744c0,2.06-22.984,3.731-51.336,3.731s-51.337-1.671-51.337-3.731v-12.744Z" transform="translate(-1945.538 -2806.157)" fill="#e59f39"/>
          <g id="Grupo_128266" data-name="Grupo 128266" transform="translate(0 3.866)">
            <path id="Trazado_187804" data-name="Trazado 187804" d="M2015.535,2826.353v-16.33h37.151v12.744C2052.686,2824.47,2036.988,2825.906,2015.535,2826.353Z" transform="translate(-1950.013 -2810.023)" fill="#eab054"/>
            <path id="Trazado_187805" data-name="Trazado 187805" d="M2011.595,2826.386c-3.988.073-8.16.112-12.455.112-6.4,0-12.528-.085-18.18-.241v-16.233h30.635Z" transform="translate(-1947.802 -2810.023)" fill="#eab054"/>
            <path id="Trazado_187806" data-name="Trazado 187806" d="M1976.639,2826.2c-18.291-.571-31.1-1.892-31.1-3.43v-12.744h31.1Z" transform="translate(-1945.538 -2810.023)" fill="#eab054"/>
          </g>
          <ellipse id="Elipse_5055" data-name="Elipse 5055" cx="51.336" cy="3.73" rx="51.336" ry="3.73" transform="translate(0)" fill="#e59f39"/>
          <ellipse id="Elipse_5056" data-name="Elipse 5056" cx="42.274" cy="2.586" rx="42.274" ry="2.586" transform="translate(9.062 1.144)" fill="#f7cc7f"/>
        </g>
        <g id="Grupo_128269" data-name="Grupo 128269" transform="translate(45.512 49.226)">
          <path id="Trazado_187807" data-name="Trazado 187807" d="M2074.605,2791.782l-3.083,10.766c-.5,1.74-20.32-2.41-44.272-9.271s-42.964-13.833-42.465-15.573l3.083-10.766Z" transform="translate(-1984.776 -2766.427)" fill="#e59f39"/>
          <g id="Grupo_128268" data-name="Grupo 128268" transform="translate(0 0.512)">
            <path id="Trazado_187808" data-name="Trazado 187808" d="M2042.99,2797.671l3.952-13.8,31.385,8.99-3.083,10.766C2074.832,2805.07,2061.222,2802.484,2042.99,2797.671Z" transform="translate(-1988.497 -2768.021)" fill="#eab054"/>
            <path id="Trazado_187809" data-name="Trazado 187809" d="M2039.656,2796.746c-3.386-.9-6.92-1.88-10.55-2.92-5.407-1.548-10.562-3.1-15.3-4.6l3.929-13.714,25.88,7.413Z" transform="translate(-1986.632 -2767.486)" fill="#eab054"/>
            <path id="Trazado_187810" data-name="Trazado 187810" d="M2010.228,2788.126c-15.313-4.907-25.815-9.123-25.442-10.422l3.083-10.766,26.273,7.525Z" transform="translate(-1984.776 -2766.938)" fill="#eab054"/>
          </g>
          <path id="Trazado_187811" data-name="Trazado 187811" d="M1988.114,2766.788c-.5,1.741,18.514,8.714,42.466,15.574s43.773,11.011,44.271,9.271-18.513-8.714-42.466-15.574S1988.613,2765.048,1988.114,2766.788Z" transform="translate(-1984.989 -2766.391)" fill="#e59f39"/>
          <path id="Trazado_187812" data-name="Trazado 187812" d="M1996.293,2769.142c-.345,1.207,15.364,6.765,35.088,12.414s35.993,9.251,36.338,8.045-15.364-6.765-35.087-12.414S1996.638,2767.936,1996.293,2769.142Z" transform="translate(-1985.512 -2766.552)" fill="#f7cc7f"/>
        </g>
        <g id="Grupo_128271" data-name="Grupo 128271" transform="translate(20.987)">
          <path id="Trazado_187813" data-name="Trazado 187813" d="M2044.884,2714.32l3.284,10.707c.531,1.731-18.349,9.055-42.169,16.361s-43.559,11.823-44.091,10.093l-3.283-10.707Z" transform="translate(-1958.58 -2713.837)" fill="#e59f39"/>
          <g id="Grupo_128270" data-name="Grupo 128270" transform="translate(0.046 0.484)">
            <path id="Trazado_187814" data-name="Trazado 187814" d="M2021.639,2737.613l-4.208-13.72,31.212-9.572,3.284,10.707C2052.365,2726.457,2039.547,2731.709,2021.639,2737.613Z" transform="translate(-1962.384 -2714.32)" fill="#eab054"/>
            <path id="Trazado_187815" data-name="Trazado 187815" d="M2018.339,2738.77c-3.333,1.088-6.828,2.2-10.437,3.3-5.377,1.649-10.547,3.156-15.335,4.482l-4.182-13.638,25.737-7.893Z" transform="translate(-1960.527 -2715.004)" fill="#eab054"/>
            <path id="Trazado_187816" data-name="Trazado 187816" d="M1988.92,2747.608c-15.514,4.233-26.615,6.425-27.012,5.132l-3.283-10.707,26.128-8.013Z" transform="translate(-1958.625 -2715.58)" fill="#eab054"/>
          </g>
          <path id="Trazado_187817" data-name="Trazado 187817" d="M1958.587,2740.627c.53,1.731,20.271-2.788,44.09-10.093s42.7-14.63,42.169-16.362-20.271,2.789-44.091,10.093S1958.056,2738.9,1958.587,2740.627Z" transform="translate(-1958.576 -2713.804)" fill="#e59f39"/>
          <path id="Trazado_187818" data-name="Trazado 187818" d="M1966.721,2738.462c.368,1.2,16.568-2.7,36.182-8.719s35.219-11.865,34.851-13.064-16.568,2.7-36.183,8.718S1966.352,2737.261,1966.721,2738.462Z" transform="translate(-1959.097 -2713.973)" fill="#f7cc7f"/>
        </g>
      </g>
      <path id="Trazado_187819" data-name="Trazado 187819" d="M1851.079,2857.275s1.269,6.733,1.27,6.748c.071.877.045,3.094.234,3.861.712,2.879,12.823-4.119,9.646-4.681a13.187,13.187,0,0,1-2.849-3.052,26.731,26.731,0,0,1-1.593-4.448Z" transform="translate(-1675.179 -2465.978)" fill="#f7a491"/>
      <path id="Trazado_187820" data-name="Trazado 187820" d="M1861.568,2863.2a47.361,47.361,0,0,1-4.718.933c-1.59.158-3.633-2.313-4.774-1.845-1.255.514-1.94,8.355-1.94,8.355s19.976.91,24.7-.394C1876.7,2869.733,1867.784,2865.582,1861.568,2863.2Z" transform="translate(-1675.319 -2466.395)" fill="#f47458"/>
      <path id="Trazado_187821" data-name="Trazado 187821" d="M1880.836,2856.947s1.268,6.733,1.269,6.748c.071.877.045,3.1.234,3.862.713,2.88,12.6-3.658,9.423-4.221a17.9,17.9,0,0,1-2.627-3.513,26.72,26.72,0,0,1-1.593-4.448Z" transform="translate(-1678.095 -2465.957)" fill="#f7a491"/>
      <path id="Trazado_187822" data-name="Trazado 187822" d="M1891,2863.2a47.367,47.367,0,0,1-4.718.933c-1.59.158-3.633-2.313-4.774-1.845-1.255.514-1.94,8.355-1.94,8.355s19.976.91,24.7-.394C1906.133,2869.733,1897.212,2865.582,1891,2863.2Z" transform="translate(-1678.242 -2466.395)" fill="#d84318"/>
      <path id="Trazado_187823" data-name="Trazado 187823" d="M1806.8,2784.356l36.34-8.43s16.3-4.308,20.231.75,20.639,74.86,20.639,74.86-8.617.749-9.179.375l-20.171-35.8a31.232,31.232,0,0,1-3.721-11.012l-1.43-10.251-14.8,4.309s-17.047,3.746-23.978-.562S1806.8,2784.356,1806.8,2784.356Z" transform="translate(-1671.815 -2460.769)" fill="#0e2e35"/>
      <path id="Trazado_187824" data-name="Trazado 187824" d="M1821.378,2718.117c.575.023,2.147.548,4.447,4.881,2.937,5.532,7.23,22.244,7.23,22.244L1820.241,2750l-1.646-3.488-2.712-26.855S1821.219,2718.111,1821.378,2718.117Z" transform="translate(-1671.804 -2453.647)" fill="#ccc47d"/>
      <path id="Trazado_187825" data-name="Trazado 187825" d="M1802.1,2715.544c3.665,0,12.732,1.07,16.939,2.409,0,0,3.092,26.48-2.783,46.6-1.315,4.5,1.088,18.672,1.088,18.672l-37.971-.5s4.5-34.251,2.8-39.783-1.734-24.812-1.734-24.812.26-.04,8.531-1.465A86.114,86.114,0,0,1,1802.1,2715.544Z" transform="translate(-1668.479 -2454.263)" fill="#fff59d"/>
      <path id="Trazado_187826" data-name="Trazado 187826" d="M1779.674,2721.45c3.551-1.327,5.287,30.553,5.766,43.675,6.287.6,17.244,0,19.973-.2,1.283-.1,4.242-1.176,5.518-1.342a12.8,12.8,0,0,1,3.137-.148c.236.04,6.789,2.712,7.35,3.3.694.727,2.574,2.56,2.257,3.351s-3.614-2.207-3.614-2.207l-1.612-.9c2.006,1.954,5.833,4.526,5.281,5.462-.537.914-3.989-1.7-6.448-3.476,2.11,1.9,4.731,5.3,4.127,5.828-.543.476-3.524-3.459-6.712-4.592-1.18-.419-2.358.743-3.287.883a6.715,6.715,0,0,1-2.407.134l-3.2-.309a16.734,16.734,0,0,0-2.641.384c-1.378.293-3.64.6-5.394,1.028-10.1,2.461-13.476,3.6-16.569,3.6C1771.828,2775.911,1771.284,2724.587,1779.674,2721.45Z" transform="translate(-1668.029 -2454.484)" fill="#f7a491"/>
      <path id="Trazado_187827" data-name="Trazado 187827" d="M1772.863,2751.176c-.665-13.44-.568-30.007,6.992-32.833,2.982-1.116,8.241,5.59,7.3,33.106C1783.115,2751.782,1777.191,2752.048,1772.863,2751.176Z" transform="translate(-1667.51 -2453.694)" fill="#ccc47d"/>
      <path id="Trazado_187828" data-name="Trazado 187828" d="M1858.21,2744.651l-35.774,2.337a2.336,2.336,0,0,0-2.063,1.589l-9.261,27.585-19.722,1.288a1,1,0,0,0-.933,1.063h0a1,1,0,0,0,1.064.933l56.131-3.667a3.925,3.925,0,0,0,3.423-2.547l9.478-25.432A2.338,2.338,0,0,0,1858.21,2744.651Z" transform="translate(-1670.039 -2456.183)" fill="#d84318"/>
      <path id="Trazado_187829" data-name="Trazado 187829" d="M1843.528,2762.7a1.973,1.973,0,1,1-1.823-2.341A2.11,2.11,0,0,1,1843.528,2762.7Z" transform="translate(-1673.933 -2456.932)" fill="#fff"/>
      <path id="Trazado_187830" data-name="Trazado 187830" d="M1779.38,2785.879l39.6-6.837s17.122-2.609,21.055,2.449,15.361,70.621,15.361,70.621-8.617.749-9.179.375c-.435-.29-10.868-22.148-15.553-32a37.4,37.4,0,0,1-3.109-9.854l-1.506-8.924-4.984,1.716a60.829,60.829,0,0,1-27.279,2.92c-3.848-.479-7.439-1.3-9.667-2.685C1777.189,2799.355,1779.38,2785.879,1779.38,2785.879Z" transform="translate(-1668.944 -2461.034)" fill="#184655"/>
      <path id="Trazado_187831" data-name="Trazado 187831" d="M1804.627,2709.767l.771,5.718s1.727,8.24-.494,9.828-9.447-10.062-9.447-10.062l.763-14.49Z" transform="translate(-1669.709 -2451.889)" fill="#f7a491"/>
      <path id="Trazado_187832" data-name="Trazado 187832" d="M1796.008,2705.457a16.443,16.443,0,0,0,9.308,9.159l-.654-4.849-8.407-9.006Z" transform="translate(-1669.747 -2451.68)" fill="#f47458"/>
      <path id="Trazado_187833" data-name="Trazado 187833" d="M1804.1,2683.909a7.642,7.642,0,0,1,8.811,7.712,57.749,57.749,0,0,1-.644,7.334c-1.024,6.6-5.542,12.414-8.531,11.9s-10.506-6.214-9.183-15.608C1795.374,2689.443,1799.164,2684.7,1804.1,2683.909Z" transform="translate(-1669.702 -2450.368)" fill="#f7a491"/>
      <path id="Trazado_187834" data-name="Trazado 187834" d="M1796.485,2697.014a2.226,2.226,0,1,1-1.692-3A2.46,2.46,0,0,1,1796.485,2697.014Z" transform="translate(-1669.311 -2450.906)" fill="#f7a491"/>
      <path id="Trazado_187835" data-name="Trazado 187835" d="M1794.9,2693.212s3.613.895,4.954-1.421,6.135-7.314,12.23-5.241-5.364-5.038-5.852-5.038-6.338-.041-6.338-.041-4.51,3.7-4.672,4.1-1.463,4.835-1.463,4.835Z" transform="translate(-1669.658 -2449.879)" fill="#0e2e35"/>
      <rect id="Rectángulo_40621" data-name="Rectángulo 40621" width="389.05" height="3.452" transform="translate(0 403.468)" fill="#99935e"/>
    </g>
  </g>
</svg>
