<svg xmlns="http://www.w3.org/2000/svg" xmlns:xlink="http://www.w3.org/1999/xlink" width="389.047" height="406.916" viewBox="0 0 389.047 406.916">
  <defs>
    <linearGradient id="linear-gradient" x1="-1.224" y1="-0.158" x2="3.769" y2="2.235" gradientUnits="objectBoundingBox">
      <stop offset="0" stop-color="#a737d5"/>
      <stop offset="1" stop-color="#ef497a"/>
    </linearGradient>
    <linearGradient id="linear-gradient-2" x1="-30.702" y1="-2.444" x2="159.8" y2="15.533" xlink:href="#linear-gradient"/>
    <linearGradient id="linear-gradient-3" x1="0.727" y1="-2.869" x2="0.282" y2="3.71" gradientUnits="objectBoundingBox">
      <stop offset="0" stop-color="#fff59d"/>
      <stop offset="1" stop-color="#fff59d"/>
    </linearGradient>
    <linearGradient id="linear-gradient-4" x1="-0.03" y1="0.905" x2="1.632" y2="-0.366" gradientUnits="objectBoundingBox">
      <stop offset="0" stop-color="#f0f8ff"/>
      <stop offset="1" stop-color="#f0f8ff"/>
    </linearGradient>
    <linearGradient id="linear-gradient-7" x1="2.351" y1="-7.349" x2="1.047" y2="-1.82" gradientUnits="objectBoundingBox">
      <stop offset="0" stop-color="#d84318"/>
      <stop offset="1" stop-color="#d84318"/>
    </linearGradient>
    <linearGradient id="linear-gradient-12" x1="-0.124" y1="1.467" x2="3.97" y2="-4.874" gradientUnits="objectBoundingBox">
      <stop offset="0" stop-color="#c0c6cc"/>
      <stop offset="1" stop-color="#4042e2"/>
    </linearGradient>
    <linearGradient id="linear-gradient-15" x1="0.348" y1="0.735" x2="4.443" y2="-5.606" xlink:href="#linear-gradient-12"/>
    <linearGradient id="linear-gradient-19" x1="-267.199" y1="0.5" x2="-266.199" y2="0.5" gradientUnits="objectBoundingBox">
      <stop offset="0" stop-color="#4f52ff"/>
      <stop offset="1" stop-color="#4042e2"/>
    </linearGradient>
    <linearGradient id="linear-gradient-20" x1="-274.976" y1="0.5" x2="-273.976" y2="0.5" gradientUnits="objectBoundingBox">
      <stop offset="0" stop-color="#09005d"/>
      <stop offset="1" stop-color="#1a0f91"/>
    </linearGradient>
    <linearGradient id="linear-gradient-21" x1="-950.421" y1="0.5" x2="-949.422" y2="0.5" gradientUnits="objectBoundingBox">
      <stop offset="0" stop-color="#febbba"/>
      <stop offset="1" stop-color="#ff928e"/>
    </linearGradient>
    <linearGradient id="linear-gradient-22" x1="-709.266" y1="0.5" x2="-708.266" y2="0.5" xlink:href="#linear-gradient-19"/>
    <linearGradient id="linear-gradient-23" x1="-482.868" y1="0.5" x2="-481.868" y2="0.5" xlink:href="#linear-gradient-20"/>
    <linearGradient id="linear-gradient-24" x1="-805.845" y1="0.5" x2="-804.845" y2="0.5" xlink:href="#linear-gradient-21"/>
    <linearGradient id="linear-gradient-25" x1="-595.151" y1="5.021" x2="-594.793" y2="4.213" xlink:href="#linear-gradient-19"/>
    <linearGradient id="linear-gradient-26" x1="-379.511" y1="-0.004" x2="-379.525" y2="1.888" xlink:href="#linear-gradient-21"/>
    <linearGradient id="linear-gradient-27" x1="-541.63" y1="89.158" x2="-543.15" y2="90.496" xlink:href="#linear-gradient-21"/>
    <linearGradient id="linear-gradient-28" x1="-1470.653" y1="254.558" x2="-1467.363" y2="252.202" xlink:href="#linear-gradient-21"/>
    <linearGradient id="linear-gradient-29" x1="-775.182" y1="0.5" x2="-774.182" y2="0.5" xlink:href="#linear-gradient-21"/>
    <linearGradient id="linear-gradient-30" x1="-31.904" y1="-0.218" x2="-33.248" y2="1.835" gradientUnits="objectBoundingBox">
      <stop offset="0" stop-color="#81280e"/>
      <stop offset="1" stop-color="#e9605a"/>
    </linearGradient>
    <linearGradient id="linear-gradient-31" x1="-160.755" y1="-50.214" x2="-161.244" y2="-47.982" xlink:href="#linear-gradient-21"/>
    <linearGradient id="linear-gradient-32" x1="-36.084" y1="-0.454" x2="-36.747" y2="1.454" xlink:href="#linear-gradient-21"/>
    <linearGradient id="linear-gradient-33" x1="-36.05" y1="-0.454" x2="-36.713" y2="1.454" xlink:href="#linear-gradient-21"/>
    <linearGradient id="linear-gradient-34" x1="-378.151" y1="-1.222" x2="-379.844" y2="3.819" xlink:href="#linear-gradient-21"/>
  </defs>
  <g id="Grupo_128274" data-name="Grupo 128274" transform="translate(-579.1 -2489.551)">
    <g id="Grupo_128303" data-name="Grupo 128303" transform="translate(579.1 2545.464)">
      <path id="Trazado_187836" data-name="Trazado 187836" d="M965.83,2946.773l-335.219-.194s-56.649-130.159-26.436-217.233,74.341-25.61,78.02-88.516c.125-2.13.026-4.236.026-6.3,0-.489,0-.972.019-1.455,1.13-36.127,15.27-59.477,33.93-72.91.6-.436,1.209-.856,1.82-1.27,29.756-20.1,69.992-15.967,87.8,1.318,30.3,29.412,30.116,64.811,92.7,53.133S973,2699.32,956.712,2749.067C933.6,2819.657,1020.809,2808.064,965.83,2946.773Z" transform="translate(-595.304 -2601.378)" fill="#fffcdd"/>
      <g id="Grupo_128275" data-name="Grupo 128275" transform="translate(132.57 38.457)">
        <path id="Trazado_187837" data-name="Trazado 187837" d="M693.45,2638.165a19.314,19.314,0,0,1,19.314-19.314H877A17.016,17.016,0,0,1,894,2635l12.123,238.118a12.548,12.548,0,0,1-12.3,13.184l-188.241,3.421a11.91,11.91,0,0,1-12.127-11.908Z" transform="translate(-693.45 -2582.788)" fill="#909599"/>
        <path id="Trazado_187838" data-name="Trazado 187838" d="M733,2882.311h-.006l-21.063-.272a12.99,12.99,0,0,1-12.772-12.94v-31.8a.449.449,0,1,1,.9,0v31.8a12.088,12.088,0,0,0,11.886,12.04l21.062.272a.45.45,0,0,1-.005.9Z" transform="translate(-693.362 -2579.421)" fill="url(#linear-gradient)"/>
        <path id="Trazado_187839" data-name="Trazado 187839" d="M699.609,2828.125a.449.449,0,0,1-.45-.45v-5.15a.449.449,0,1,1,.9,0v5.15A.449.449,0,0,1,699.609,2828.125Z" transform="translate(-693.362 -2579.649)" fill="url(#linear-gradient-2)"/>
        <g id="Grupo_128274-2" data-name="Grupo 128274" transform="translate(13.455 34.081)">
          <path id="Trazado_187840" data-name="Trazado 187840" d="M706.7,2622.547a5.611,5.611,0,0,1,6.363-5.6c22.429,3.042,99.555,12.449,163.322,7.554a5.188,5.188,0,0,1,5.587,4.892l12.711,239.181a5.969,5.969,0,0,1-5.608,6.277c-26.819,1.587-137.269,7.723-176.665,3.6a4.731,4.731,0,0,1-4.231-4.681Z" transform="translate(-706.701 -2616.899)" fill="#dde2e7"/>
          <path id="Trazado_187841" data-name="Trazado 187841" d="M709.3,2628.446a5.4,5.4,0,0,1,6.123-5.384c21.584,2.927,95.806,11.979,157.171,7.268a4.993,4.993,0,0,1,5.377,4.709l12.233,230.174a5.746,5.746,0,0,1-5.4,6.042c-25.81,1.527-132.1,7.431-170.013,3.46a4.553,4.553,0,0,1-4.073-4.5Z" transform="translate(-706.661 -2616.805)" fill="#fdfeff"/>
          <rect id="Rectángulo_40623" data-name="Rectángulo 40623" width="146.595" height="19.734" rx="9.717" transform="translate(16.997 26.233)" fill="#ccc47d" opacity="0.58"/>
          <rect id="Rectángulo_40624" data-name="Rectángulo 40624" width="149.327" height="9.867" rx="4.858" transform="translate(16.673 128.473)" fill="#ccc47d" opacity="0.58"/>
          <path id="Rectángulo_40625" data-name="Rectángulo 40625" d="M4.279,0H145.047a4.279,4.279,0,0,1,4.279,4.279V5.587a4.28,4.28,0,0,1-4.28,4.28H4.279A4.279,4.279,0,0,1,0,5.588V4.279A4.279,4.279,0,0,1,4.279,0Z" transform="translate(16.673 143.696)" fill="#ccc47d" opacity="0.58"/>
          <rect id="Rectángulo_40626" data-name="Rectángulo 40626" width="152.447" height="9.867" rx="4.858" transform="translate(16.797 230.62)" fill="#ccc47d" opacity="0.58"/>
          <path id="Trazado_187842" data-name="Trazado 187842" d="M868.7,2734.157h-142a3.58,3.58,0,0,1-3.579-3.581v-53.169a3.579,3.579,0,0,1,3.579-3.58H866.294a3.579,3.579,0,0,1,3.575,3.418l2.409,53.169A3.581,3.581,0,0,1,868.7,2734.157Z" transform="translate(-706.447 -2616.02)" fill="#ccc47d" opacity="0.25"/>
          <path id="Trazado_187843" data-name="Trazado 187843" d="M868.791,2734.729h-142a4.149,4.149,0,0,1-4.144-4.144v-53.169a4.149,4.149,0,0,1,4.144-4.144H866.383a4.138,4.138,0,0,1,4.14,3.957l2.408,53.169a4.144,4.144,0,0,1-4.14,4.332Zm-142-60.329a3.019,3.019,0,0,0-3.016,3.016v53.169a3.019,3.019,0,0,0,3.016,3.016h142a3.018,3.018,0,0,0,3.014-3.152l-2.408-53.17a3.012,3.012,0,0,0-3.014-2.88Z" transform="translate(-706.455 -2616.029)" fill="#ccc47d"/>
          <path id="Trazado_187844" data-name="Trazado 187844" d="M870.969,2839H727.783a4.541,4.541,0,0,1-4.541-4.54v-51.248a4.541,4.541,0,0,1,4.541-4.54h141.2a4.54,4.54,0,0,1,4.537,4.364l1.986,51.247A4.541,4.541,0,0,1,870.969,2839Z" transform="translate(-706.445 -2614.401)" fill="#ccc47d" opacity="0.25"/>
          <path id="Trazado_187845" data-name="Trazado 187845" d="M870.977,2839.575H727.792a5.111,5.111,0,0,1-5.1-5.1v-51.248a5.11,5.11,0,0,1,5.1-5.1h141.2a5.09,5.09,0,0,1,5.1,4.907l1.986,51.248a5.1,5.1,0,0,1-5.1,5.3Zm-143.186-60.329a3.982,3.982,0,0,0-3.978,3.977v51.248a3.982,3.982,0,0,0,3.978,3.977H870.977a3.977,3.977,0,0,0,3.974-4.131l-1.986-51.249a3.965,3.965,0,0,0-3.974-3.822Z" transform="translate(-706.454 -2614.409)" fill="#ccc47d"/>
          <rect id="Rectángulo_40627" data-name="Rectángulo 40627" width="1.128" height="60.338" transform="translate(60.336 57.817) rotate(-0.952)" fill="#ccc47d"/>
          <rect id="Rectángulo_40628" data-name="Rectángulo 40628" width="1.127" height="60.351" transform="translate(114.968 57.822) rotate(-1.547)" fill="#ccc47d"/>
          <rect id="Rectángulo_40629" data-name="Rectángulo 40629" width="102.755" height="1.128" transform="translate(61.393 76.294) rotate(-0.82)" fill="#ccc47d"/>
          <rect id="Rectángulo_40630" data-name="Rectángulo 40630" width="103.373" height="1.128" transform="translate(61.652 99.052)" fill="#ccc47d"/>
          <rect id="Rectángulo_40631" data-name="Rectángulo 40631" width="60.334" height="1.128" transform="matrix(0.012, -1, 1, 0.012, 60.339, 224.594)" fill="#ccc47d"/>
          <rect id="Rectángulo_40632" data-name="Rectángulo 40632" width="105.629" height="1.128" transform="translate(62.028 178.368)" fill="#ccc47d"/>
          <rect id="Rectángulo_40633" data-name="Rectángulo 40633" width="106.756" height="1.128" transform="translate(61.276 192.276)" fill="#ccc47d"/>
          <rect id="Rectángulo_40634" data-name="Rectángulo 40634" width="1.128" height="107.272" transform="translate(61.395 208.909) rotate(-89.286)" fill="#ccc47d"/>
        </g>
        <path id="Trazado_187846" data-name="Trazado 187846" d="M803.676,2586.934c-5.933-4.128-11.092-4.045-14.723-2.974a7.244,7.244,0,0,0-5.144,7.615l1.566,17.093,18.635,1.654S815.311,2595.028,803.676,2586.934Zm-8.2,13.79a4.647,4.647,0,1,1,4.647-4.647A4.647,4.647,0,0,1,795.48,2600.724Z" transform="translate(-692.055 -2583.336)" fill="#909599"/>
        <path id="Trazado_187847" data-name="Trazado 187847" d="M787.2,2601.439a.449.449,0,0,1-.447-.408l-.25-2.722a.45.45,0,1,1,.9-.081l.25,2.721a.451.451,0,0,1-.407.49Zm-.488-5.334a.45.45,0,0,1-.447-.409l-.19-2.066a6.915,6.915,0,0,1,4.9-7.254,13.932,13.932,0,0,1,6.812-.279.45.45,0,0,1-.181.881,13.039,13.039,0,0,0-6.376.261,6.013,6.013,0,0,0-4.261,6.31l.189,2.067a.448.448,0,0,1-.406.488A.3.3,0,0,1,786.712,2596.1Z" transform="translate(-692.02 -2583.298)" fill="#91b3fa"/>
        <path id="Trazado_187848" data-name="Trazado 187848" d="M760.3,2619.372v-8.594a5.245,5.245,0,0,1,5.425-5.242l59.251,2.031a5.1,5.1,0,0,1,4.917,4.792l.495,8.258Z" transform="translate(-692.418 -2582.994)" fill="#909599"/>
        <path id="Trazado_187849" data-name="Trazado 187849" d="M782.107,2608.739h-2.548a.449.449,0,1,1,0-.9h2.548a.449.449,0,1,1,0,.9Z" transform="translate(-692.127 -2582.958)" fill="#91b3fa"/>
        <path id="Trazado_187850" data-name="Trazado 187850" d="M763.469,2616.637a.449.449,0,0,1-.45-.449v-3.477a4.877,4.877,0,0,1,4.871-4.871h9.369a.449.449,0,1,1,0,.9H767.89a3.977,3.977,0,0,0-3.971,3.972v3.477A.45.45,0,0,1,763.469,2616.637Z" transform="translate(-692.376 -2582.958)" fill="#91b3fa"/>
        <path id="Trazado_187851" data-name="Trazado 187851" d="M736.532,2621.379a5.583,5.583,0,0,1,5.577-5.315l103.613,0a7.658,7.658,0,0,1,7.546,6.351l.087.507a6.577,6.577,0,0,1-6.48,7.7h-106.3a4.277,4.277,0,0,1-4.271-4.482Z" transform="translate(-692.788 -2582.831)" fill="url(#linear-gradient-3)"/>
      </g>
      <g id="Grupo_128285" data-name="Grupo 128285" transform="translate(89.888 79.675)">
        <g id="Grupo_128284" data-name="Grupo 128284" transform="translate(0 0)">
          <g id="Grupo_128279" data-name="Grupo 128279" transform="translate(18.547)">
            <path id="Trazado_187854" data-name="Trazado 187854" d="M699.866,2649.6a.437.437,0,0,1-.206.007.447.447,0,0,1-.347-.528,21.954,21.954,0,0,1,19.65-17.454.447.447,0,1,1,.075.891,21.284,21.284,0,0,0-3.75.663,20.941,20.941,0,0,0-15.1,16.08A.447.447,0,0,1,699.866,2649.6Z" transform="translate(-691.124 -2623.809)" fill="#fff" opacity="0.58"/>
          </g>
          <g id="Grupo_128350" data-name="Grupo 128350" transform="translate(-1227.371 -2653.478)">
            <circle id="Elipse_5063" data-name="Elipse 5063" cx="15.424" cy="15.424" r="15.424" transform="translate(1230.375 2707.727)" fill="#ef7c00"/>
            <circle id="Elipse_5064" data-name="Elipse 5064" cx="15.424" cy="15.424" r="15.424" transform="translate(1226.249 2735.168) rotate(-78.427)" fill="#ffc459"/>
            <g id="Grupo_128320" data-name="Grupo 128320" transform="translate(1230.401 2709.281)">
              <path id="Trazado_187936" data-name="Trazado 187936" d="M1248.418,2741.525a14.053,14.053,0,1,1,9.937-4.116A13.96,13.96,0,0,1,1248.418,2741.525Zm0-27.267a13.215,13.215,0,1,0,13.215,13.214A13.229,13.229,0,0,0,1248.418,2714.258Z" transform="translate(-1234.365 -2713.419)" fill="#ff9f00"/>
            </g>
            <g id="Grupo_128321" data-name="Grupo 128321" transform="translate(1238.299 2712.955)">
              <path id="Trazado_187937" data-name="Trazado 187937" d="M1257.894,2735.059a2.316,2.316,0,0,0-.033-.816,1.688,1.688,0,0,0-.345-.677,3.206,3.206,0,0,0-.69-.609,8.4,8.4,0,0,0-1.069-.6,22.367,22.367,0,0,1-1.974-1.085,6.977,6.977,0,0,1-1.476-1.2,4.11,4.11,0,0,1-.872-1.464,4.644,4.644,0,0,1,.375-3.512,3.908,3.908,0,0,1,1.089-1.21,4.893,4.893,0,0,1,1.559-.742,6.5,6.5,0,0,1,1.947-.224l.275-2.316,1.864.221-.278,2.349a5.827,5.827,0,0,1,1.755.746,4.405,4.405,0,0,1,1.964,2.818,5.861,5.861,0,0,1,.077,1.99l-3.367-.4a2.86,2.86,0,0,0-.346-2.011,1.984,1.984,0,0,0-1.468-.827,2.511,2.511,0,0,0-.92.039,1.724,1.724,0,0,0-.671.326,1.591,1.591,0,0,0-.432.558,2.34,2.34,0,0,0-.205.733,2.144,2.144,0,0,0,.031.739,1.578,1.578,0,0,0,.331.648,3.2,3.2,0,0,0,.7.609,10.8,10.8,0,0,0,1.111.643q1.08.556,1.954,1.109a7.09,7.09,0,0,1,1.469,1.212,4.169,4.169,0,0,1,.871,1.469,4.661,4.661,0,0,1-.384,3.533,3.867,3.867,0,0,1-1.093,1.2,4.724,4.724,0,0,1-1.568.714,7.052,7.052,0,0,1-1.956.207l-.256,2.154-1.853-.22.254-2.144a7.869,7.869,0,0,1-1.82-.644,4.978,4.978,0,0,1-1.491-1.126,4.464,4.464,0,0,1-.936-1.675,5.433,5.433,0,0,1-.155-2.28l3.368.4a3.345,3.345,0,0,0,.063,1.309,2.163,2.163,0,0,0,.479.891,2.1,2.1,0,0,0,.77.531,3.593,3.593,0,0,0,.923.236,3,3,0,0,0,.978-.027,2,2,0,0,0,.74-.308,1.594,1.594,0,0,0,.49-.54A1.944,1.944,0,0,0,1257.894,2735.059Z" transform="translate(-1249.805 -2720.602)" fill="#ff9f00"/>
            </g>
          </g>
          <g id="Grupo_128351" data-name="Grupo 128351" transform="translate(-2923.641 324.012) rotate(-70)">
            <circle id="Elipse_5063-2" data-name="Elipse 5063" cx="21.951" cy="21.951" r="21.951" transform="translate(1232.121 2708.904)" fill="#ef7c00"/>
            <circle id="Elipse_5064-2" data-name="Elipse 5064" cx="21.951" cy="21.951" r="21.951" transform="translate(1226.249 2747.955) rotate(-78.427)" fill="#ffc459"/>
            <g id="Grupo_128320-2" data-name="Grupo 128320" transform="translate(1232.158 2711.115)">
              <path id="Trazado_187936-2" data-name="Trazado 187936" d="M1254.364,2753.417a20,20,0,1,1,14.142-5.858A19.866,19.866,0,0,1,1254.364,2753.417Zm0-38.8a18.806,18.806,0,1,0,18.807,18.806A18.827,18.827,0,0,0,1254.364,2714.613Z" transform="translate(-1234.365 -2713.419)" fill="#ff9f00"/>
            </g>
            <g id="Grupo_128321-2" data-name="Grupo 128321" transform="translate(1243.398 2716.344)">
              <path id="Trazado_187937-2" data-name="Trazado 187937" d="M1261.317,2741.177a3.3,3.3,0,0,0-.047-1.161,2.4,2.4,0,0,0-.491-.964,4.565,4.565,0,0,0-.982-.867,11.955,11.955,0,0,0-1.522-.852,31.8,31.8,0,0,1-2.81-1.544,9.927,9.927,0,0,1-2.1-1.71,5.848,5.848,0,0,1-1.241-2.083,6.61,6.61,0,0,1,.534-5,5.561,5.561,0,0,1,1.549-1.722,6.961,6.961,0,0,1,2.219-1.057,9.25,9.25,0,0,1,2.771-.319l.391-3.3,2.653.315-.4,3.343a8.285,8.285,0,0,1,2.5,1.062,6.269,6.269,0,0,1,2.795,4.01,8.34,8.34,0,0,1,.109,2.833l-4.792-.568a4.071,4.071,0,0,0-.493-2.863,2.823,2.823,0,0,0-2.089-1.177,3.568,3.568,0,0,0-1.31.055,2.452,2.452,0,0,0-.955.464,2.265,2.265,0,0,0-.615.794,3.334,3.334,0,0,0-.292,1.043,3.047,3.047,0,0,0,.044,1.051,2.245,2.245,0,0,0,.47.923,4.549,4.549,0,0,0,.99.867,15.354,15.354,0,0,0,1.582.915q1.537.791,2.78,1.579a10.09,10.09,0,0,1,2.091,1.725,5.931,5.931,0,0,1,1.24,2.091,6.633,6.633,0,0,1-.546,5.028,5.5,5.5,0,0,1-1.556,1.706,6.721,6.721,0,0,1-2.231,1.016,10.036,10.036,0,0,1-2.784.294l-.364,3.065-2.637-.313.362-3.051a11.2,11.2,0,0,1-2.59-.916,7.082,7.082,0,0,1-2.122-1.6,6.354,6.354,0,0,1-1.331-2.384,7.734,7.734,0,0,1-.221-3.244l4.792.569a4.762,4.762,0,0,0,.09,1.862,3.077,3.077,0,0,0,.681,1.268,2.991,2.991,0,0,0,1.1.755,5.1,5.1,0,0,0,1.314.336,4.272,4.272,0,0,0,1.391-.038,2.845,2.845,0,0,0,1.053-.438,2.269,2.269,0,0,0,.7-.769A2.767,2.767,0,0,0,1261.317,2741.177Z" transform="translate(-1249.805 -2720.602)" fill="#ff9f00"/>
            </g>
          </g>
          <g id="Grupo_128352" data-name="Grupo 128352" transform="matrix(0.588, -0.809, 0.809, 0.588, -2842.257, -563.74)">
            <circle id="Elipse_5063-3" data-name="Elipse 5063" cx="18.491" cy="18.491" r="18.491" transform="translate(1231.196 2708.28)" fill="#ef7c00"/>
            <circle id="Elipse_5064-3" data-name="Elipse 5064" cx="18.491" cy="18.491" r="18.491" transform="translate(1226.249 2741.177) rotate(-78.427)" fill="#ffc459"/>
            <g id="Grupo_128320-3" data-name="Grupo 128320" transform="translate(1231.226 2710.143)">
              <path id="Trazado_187936-3" data-name="Trazado 187936" d="M1251.212,2747.114a16.847,16.847,0,1,1,11.913-4.935A16.736,16.736,0,0,1,1251.212,2747.114Zm0-32.69a15.843,15.843,0,1,0,15.843,15.842A15.86,15.86,0,0,0,1251.212,2714.424Z" transform="translate(-1234.365 -2713.419)" fill="#ff9f00"/>
            </g>
            <g id="Grupo_128321-3" data-name="Grupo 128321" transform="translate(1240.695 2714.548)">
              <path id="Trazado_187937-3" data-name="Trazado 187937" d="M1259.5,2737.934a2.777,2.777,0,0,0-.04-.978,2.023,2.023,0,0,0-.414-.812,3.843,3.843,0,0,0-.827-.73,10.043,10.043,0,0,0-1.282-.717,26.957,26.957,0,0,1-2.367-1.3,8.373,8.373,0,0,1-1.769-1.441,4.929,4.929,0,0,1-1.046-1.755,5.57,5.57,0,0,1,.45-4.211,4.686,4.686,0,0,1,1.305-1.451,5.867,5.867,0,0,1,1.869-.89,7.78,7.78,0,0,1,2.334-.269l.329-2.777,2.235.266-.334,2.815a6.978,6.978,0,0,1,2.1.895,5.28,5.28,0,0,1,2.354,3.378,7.028,7.028,0,0,1,.092,2.387l-4.036-.479a3.429,3.429,0,0,0-.415-2.412,2.378,2.378,0,0,0-1.76-.991,3.012,3.012,0,0,0-1.1.046,2.07,2.07,0,0,0-.8.391,1.908,1.908,0,0,0-.518.669,2.812,2.812,0,0,0-.246.879,2.57,2.57,0,0,0,.037.886,1.89,1.89,0,0,0,.4.777,3.843,3.843,0,0,0,.834.731,13.034,13.034,0,0,0,1.333.77q1.294.667,2.342,1.33a8.494,8.494,0,0,1,1.761,1.453,4.992,4.992,0,0,1,1.044,1.762,5.587,5.587,0,0,1-.46,4.235,4.635,4.635,0,0,1-1.311,1.437,5.67,5.67,0,0,1-1.88.856,8.474,8.474,0,0,1-2.345.248l-.307,2.582-2.221-.263.3-2.57a9.449,9.449,0,0,1-2.182-.771,5.969,5.969,0,0,1-1.788-1.351,5.349,5.349,0,0,1-1.122-2.008,6.515,6.515,0,0,1-.186-2.733l4.037.479a4.012,4.012,0,0,0,.076,1.569,2.594,2.594,0,0,0,.574,1.068,2.517,2.517,0,0,0,.924.636,4.284,4.284,0,0,0,1.107.283,3.579,3.579,0,0,0,1.172-.032,2.4,2.4,0,0,0,.887-.369,1.911,1.911,0,0,0,.587-.647A2.329,2.329,0,0,0,1259.5,2737.934Z" transform="translate(-1249.805 -2720.602)" fill="#ff9f00"/>
            </g>
          </g>
        </g>
        <g id="Grupo_128349" data-name="Grupo 128349" transform="translate(-1206.136 -2702.569)">
          <circle id="Elipse_5063-4" data-name="Elipse 5063" cx="23.088" cy="23.088" r="23.088" transform="translate(1232.425 2709.109)" fill="#ef7c00"/>
          <circle id="Elipse_5064-4" data-name="Elipse 5064" cx="23.088" cy="23.088" r="23.088" transform="translate(1226.249 2750.183) rotate(-78.427)" fill="#ffc459"/>
          <g id="Grupo_128320-4" data-name="Grupo 128320" transform="translate(1232.464 2711.434)">
            <path id="Trazado_187936-4" data-name="Trazado 187936" d="M1255.4,2755.49a21.035,21.035,0,1,1,14.874-6.161A20.9,20.9,0,0,1,1255.4,2755.49Zm0-40.815a19.78,19.78,0,1,0,19.781,19.78A19.8,19.8,0,0,0,1255.4,2714.674Z" transform="translate(-1234.365 -2713.419)" fill="#ff9f00"/>
          </g>
          <g id="Grupo_128321-4" data-name="Grupo 128321" transform="translate(1244.286 2716.934)">
            <path id="Trazado_187937-4" data-name="Trazado 187937" d="M1261.913,2742.242a3.463,3.463,0,0,0-.05-1.221,2.526,2.526,0,0,0-.516-1.014,4.791,4.791,0,0,0-1.033-.912,12.571,12.571,0,0,0-1.6-.9,33.349,33.349,0,0,1-2.956-1.624,10.448,10.448,0,0,1-2.209-1.8,6.151,6.151,0,0,1-1.306-2.191,6.953,6.953,0,0,1,.562-5.257,5.85,5.85,0,0,1,1.63-1.811,7.326,7.326,0,0,1,2.334-1.111,9.738,9.738,0,0,1,2.914-.336l.411-3.467,2.79.332-.417,3.516a8.727,8.727,0,0,1,2.626,1.116,6.6,6.6,0,0,1,2.94,4.218,8.774,8.774,0,0,1,.115,2.979l-5.04-.6a4.28,4.28,0,0,0-.518-3.011,2.97,2.97,0,0,0-2.2-1.238,3.759,3.759,0,0,0-1.378.058,2.575,2.575,0,0,0-1,.488,2.382,2.382,0,0,0-.647.835,3.5,3.5,0,0,0-.307,1.1,3.208,3.208,0,0,0,.046,1.106,2.36,2.36,0,0,0,.495.971,4.791,4.791,0,0,0,1.041.912,16.213,16.213,0,0,0,1.664.962q1.616.832,2.924,1.661a10.6,10.6,0,0,1,2.2,1.814,6.238,6.238,0,0,1,1.3,2.2,6.977,6.977,0,0,1-.574,5.288,5.792,5.792,0,0,1-1.636,1.794,7.066,7.066,0,0,1-2.347,1.069,10.549,10.549,0,0,1-2.928.31l-.383,3.224-2.773-.329.381-3.208a11.779,11.779,0,0,1-2.724-.963,7.451,7.451,0,0,1-2.232-1.686,6.68,6.68,0,0,1-1.4-2.508,8.129,8.129,0,0,1-.232-3.412l5.041.6a5.013,5.013,0,0,0,.095,1.959,3.238,3.238,0,0,0,.717,1.333,3.143,3.143,0,0,0,1.153.794,5.369,5.369,0,0,0,1.382.353,4.484,4.484,0,0,0,1.463-.04,3,3,0,0,0,1.107-.46,2.391,2.391,0,0,0,.733-.809A2.911,2.911,0,0,0,1261.913,2742.242Z" transform="translate(-1249.805 -2720.602)" fill="#ff9f00"/>
          </g>
        </g>
      </g>
      <g id="Grupo_128291" data-name="Grupo 128291" transform="translate(26.755 190.395)">
        <g id="Grupo_128289" data-name="Grupo 128289">
          <g id="Grupo_128286" data-name="Grupo 128286">
            <path id="Trazado_187860" data-name="Trazado 187860" d="M623.861,2741.087c-.711,25.39-3.017,112.971-1.916,144.007.117,3.288,3.094,5.927,6.807,6.034,18.368.532,85.7,1.882,115.748.766,6.257-.232,11.234-4.721,11.364-10.264.624-26.65,2-101.608-1.272-135.947-.392-4.115-4.039-7.39-8.68-7.8-20-1.772-87.63-6.1-113.585-4.611C627.645,2733.54,623.977,2736.935,623.861,2741.087Z" transform="translate(-621.652 -2732.964)" fill="#1b3f5e"/>
            <rect id="Rectángulo_40635" data-name="Rectángulo 40635" width="117.748" height="36.46" rx="7.358" transform="translate(7.485 11.846)" fill="#909599"/>
            <path id="Trazado_187861" data-name="Trazado 187861" d="M741.438,2751.912a4.924,4.924,0,0,0-3.462-1.5l-96.2-1.528a4.924,4.924,0,0,0-4.981,4.465l-2,21.342c-.164,1.748,2.711,3.219,6.377,3.264l94.574,1.145c3.66.045,6.685-1.351,6.715-3.1l.356-20.579A4.921,4.921,0,0,0,741.438,2751.912Z" transform="translate(-621.449 -2732.718)" fill="#f0f8ff" opacity="0.2"/>
          </g>
          <path id="Trazado_187862" data-name="Trazado 187862" d="M654.669,2802.125A6.874,6.874,0,0,1,647.8,2809h-8.368a6.874,6.874,0,0,1-6.874-6.874h0a6.874,6.874,0,0,1,6.874-6.875H647.8a6.874,6.874,0,0,1,6.874,6.875Z" transform="translate(-621.483 -2732.002)" fill="url(#linear-gradient-4)"/>
          <path id="Trazado_187863" data-name="Trazado 187863" d="M685.277,2802.125A6.873,6.873,0,0,1,678.4,2809h-8.368a6.874,6.874,0,0,1-6.874-6.874h0a6.874,6.874,0,0,1,6.874-6.875H678.4a6.874,6.874,0,0,1,6.874,6.875Z" transform="translate(-621.011 -2732.002)" fill="url(#linear-gradient-4)"/>
          <path id="Trazado_187864" data-name="Trazado 187864" d="M714.708,2802.125a6.874,6.874,0,0,1-6.874,6.874h-8.368a6.874,6.874,0,0,1-6.874-6.874h0a6.874,6.874,0,0,1,6.874-6.875h8.368a6.874,6.874,0,0,1,6.874,6.875Z" transform="translate(-620.556 -2732.002)" fill="url(#linear-gradient-4)"/>
          <path id="Trazado_187865" data-name="Trazado 187865" d="M744.541,2803.119a6.986,6.986,0,0,1-6.985,6.985h-8.088a6.985,6.985,0,0,1-6.984-6.985h0a6.984,6.984,0,0,1,6.984-6.984h8.088a6.984,6.984,0,0,1,6.985,6.984Z" transform="translate(-620.094 -2731.989)" fill="url(#linear-gradient-7)"/>
          <path id="Trazado_187866" data-name="Trazado 187866" d="M654.669,2823.315a6.874,6.874,0,0,1-6.874,6.874h-8.368a6.874,6.874,0,0,1-6.874-6.874h0a6.874,6.874,0,0,1,6.874-6.874H647.8a6.873,6.873,0,0,1,6.874,6.874Z" transform="translate(-621.483 -2731.675)" fill="url(#linear-gradient-4)"/>
          <path id="Trazado_187867" data-name="Trazado 187867" d="M685.277,2823.315a6.874,6.874,0,0,1-6.874,6.874h-8.368a6.874,6.874,0,0,1-6.874-6.874h0a6.874,6.874,0,0,1,6.874-6.874H678.4a6.873,6.873,0,0,1,6.874,6.874Z" transform="translate(-621.011 -2731.675)" fill="url(#linear-gradient-4)"/>
          <path id="Trazado_187868" data-name="Trazado 187868" d="M714.708,2823.315a6.874,6.874,0,0,1-6.874,6.874h-8.368a6.874,6.874,0,0,1-6.874-6.874h0a6.874,6.874,0,0,1,6.874-6.874h8.368a6.874,6.874,0,0,1,6.874,6.874Z" transform="translate(-620.556 -2731.675)" fill="url(#linear-gradient-4)"/>
          <path id="Trazado_187869" data-name="Trazado 187869" d="M745.316,2823.315a6.874,6.874,0,0,1-6.873,6.874h-8.368a6.874,6.874,0,0,1-6.873-6.874h0a6.873,6.873,0,0,1,6.873-6.874h8.368a6.873,6.873,0,0,1,6.873,6.874Z" transform="translate(-620.083 -2731.675)" fill="url(#linear-gradient-4)"/>
          <g id="Grupo_128287" data-name="Grupo 128287" transform="translate(11.071 103.822)">
            <path id="Trazado_187870" data-name="Trazado 187870" d="M654.669,2842.082a6.874,6.874,0,0,1-6.874,6.874h-8.368a6.874,6.874,0,0,1-6.874-6.874h0a6.874,6.874,0,0,1,6.874-6.875H647.8a6.874,6.874,0,0,1,6.874,6.875Z" transform="translate(-632.554 -2835.207)" opacity="0.63" fill="url(#linear-gradient-12)"/>
            <path id="Trazado_187871" data-name="Trazado 187871" d="M685.277,2842.082a6.874,6.874,0,0,1-6.874,6.874h-8.368a6.874,6.874,0,0,1-6.874-6.874h0a6.874,6.874,0,0,1,6.874-6.875H678.4a6.874,6.874,0,0,1,6.874,6.875Z" transform="translate(-632.081 -2835.207)" opacity="0.63" fill="url(#linear-gradient-12)"/>
            <path id="Trazado_187872" data-name="Trazado 187872" d="M714.708,2842.082a6.874,6.874,0,0,1-6.874,6.874h-8.368a6.874,6.874,0,0,1-6.874-6.874h0a6.874,6.874,0,0,1,6.874-6.875h8.368a6.874,6.874,0,0,1,6.874,6.875Z" transform="translate(-631.627 -2835.207)" opacity="0.63" fill="url(#linear-gradient-12)"/>
          </g>
          <g id="Grupo_128288" data-name="Grupo 128288" transform="translate(11.071 124.742)">
            <path id="Trazado_187873" data-name="Trazado 187873" d="M654.669,2862.683a6.873,6.873,0,0,1-6.874,6.874h-8.368a6.874,6.874,0,0,1-6.874-6.874h0a6.874,6.874,0,0,1,6.874-6.874H647.8a6.874,6.874,0,0,1,6.874,6.874Z" transform="translate(-632.554 -2855.809)" opacity="0.63" fill="url(#linear-gradient-15)"/>
            <path id="Trazado_187874" data-name="Trazado 187874" d="M685.277,2862.683a6.873,6.873,0,0,1-6.874,6.874h-8.368a6.874,6.874,0,0,1-6.874-6.874h0a6.874,6.874,0,0,1,6.874-6.874H678.4a6.873,6.873,0,0,1,6.874,6.874Z" transform="translate(-632.081 -2855.809)" opacity="0.63" fill="url(#linear-gradient-15)"/>
            <path id="Trazado_187875" data-name="Trazado 187875" d="M714.708,2862.683a6.874,6.874,0,0,1-6.874,6.874h-8.368a6.874,6.874,0,0,1-6.874-6.874h0a6.874,6.874,0,0,1,6.874-6.874h8.368a6.874,6.874,0,0,1,6.874,6.874Z" transform="translate(-631.627 -2855.809)" opacity="0.63" fill="url(#linear-gradient-15)"/>
          </g>
          <rect id="Rectángulo_40636" data-name="Rectángulo 40636" width="17.931" height="34.069" rx="8.568" transform="translate(104.313 105.686)" fill="url(#linear-gradient-4)"/>
        </g>
        <g id="Grupo_128290" data-name="Grupo 128290" transform="translate(100.727 20.812)" opacity="0.7">
          <path id="Trazado_187876" data-name="Trazado 187876" d="M730.374,2754.953a1.5,1.5,0,0,1-1.495,1.495H724.7a1.5,1.5,0,0,1-1.495-1.495h0a1.494,1.494,0,0,1,1.495-1.494h4.184a1.494,1.494,0,0,1,1.495,1.494Z" transform="translate(-720.811 -2753.459)" fill="#fff"/>
          <path id="Trazado_187877" data-name="Trazado 187877" d="M730.374,2774.966a1.5,1.5,0,0,1-1.495,1.495H724.7a1.494,1.494,0,0,1-1.495-1.495h0a1.5,1.5,0,0,1,1.495-1.494h4.184a1.5,1.5,0,0,1,1.495,1.494Z" transform="translate(-720.811 -2753.15)" fill="#fff"/>
          <path id="Trazado_187878" data-name="Trazado 187878" d="M723.836,2763.257a1.494,1.494,0,0,1-1.495,1.494h0a1.494,1.494,0,0,1-1.494-1.494v-4.183a1.494,1.494,0,0,1,1.494-1.495h0a1.5,1.5,0,0,1,1.495,1.495Z" transform="translate(-720.847 -2753.396)" fill="#fff"/>
          <path id="Trazado_187879" data-name="Trazado 187879" d="M723.836,2771.5a1.5,1.5,0,0,1-1.495,1.495h0a1.5,1.5,0,0,1-1.494-1.495v-4.184a1.494,1.494,0,0,1,1.494-1.494h0a1.494,1.494,0,0,1,1.495,1.494Z" transform="translate(-720.847 -2753.268)" fill="#fff"/>
          <path id="Trazado_187880" data-name="Trazado 187880" d="M733.841,2763.257a1.493,1.493,0,0,1-1.494,1.494h0a1.494,1.494,0,0,1-1.495-1.494v-4.183a1.5,1.5,0,0,1,1.495-1.495h0a1.494,1.494,0,0,1,1.494,1.495Z" transform="translate(-720.693 -2753.396)" fill="#fff"/>
          <path id="Trazado_187881" data-name="Trazado 187881" d="M733.841,2771.5a1.494,1.494,0,0,1-1.494,1.495h0a1.5,1.5,0,0,1-1.495-1.495v-4.184a1.494,1.494,0,0,1,1.495-1.494h0a1.493,1.493,0,0,1,1.494,1.494Z" transform="translate(-720.693 -2753.268)" fill="#fff"/>
        </g>
      </g>
      <g id="Grupo_128302" data-name="Grupo 128302" transform="translate(218.579 215.128)">
        <g id="Grupo_128297" data-name="Grupo 128297" transform="translate(60.512 10.444)">
          <g id="Grupo_128292" data-name="Grupo 128292" transform="translate(31.374 113.958)">
            <path id="Trazado_187882" data-name="Trazado 187882" d="M869.076,2888.83c2.642.227,7.229.6,10.844.758a10.446,10.446,0,0,0,4.145-.406c0,.081,0,.158-.007.229a.746.746,0,0,1-.71.706,126.777,126.777,0,0,1-14.2.014.532.532,0,0,1-.434-.8A4.373,4.373,0,0,1,869.076,2888.83Z" transform="translate(-868.64 -2879.692)" fill="url(#linear-gradient-19)"/>
            <path id="Trazado_187883" data-name="Trazado 187883" d="M879.913,2889.67c-3.615-.159-8.2-.531-10.844-.758,2.6-3.187,10.844-5.336,10.844-5.336h2.328a9.767,9.767,0,0,1,1.817,5.688A10.446,10.446,0,0,1,879.913,2889.67Z" transform="translate(-868.633 -2879.773)" fill="url(#linear-gradient-20)"/>
            <path id="Trazado_187884" data-name="Trazado 187884" d="M882.494,2879.831l-.218,4.313a.985.985,0,0,1-.841.926,3.818,3.818,0,0,1-1.75-.145,1.162,1.162,0,0,1-.783-.9l-.753-4.2Z" transform="translate(-868.493 -2879.831)" fill="url(#linear-gradient-21)"/>
          </g>
          <g id="Grupo_128294" data-name="Grupo 128294" transform="translate(67.803 109.928)">
            <g id="Grupo_128293" data-name="Grupo 128293" transform="translate(1.026 4.002)">
              <path id="Trazado_187885" data-name="Trazado 187885" d="M912.277,2889.566a2.1,2.1,0,0,0,1.883-1.392l0,.017a1.489,1.489,0,0,1-1,1.7,6.559,6.559,0,0,1-2.778.436,2.764,2.764,0,0,1-2.084-.962l-.006-.008A6.992,6.992,0,0,0,912.277,2889.566Z" transform="translate(-905.483 -2879.675)" fill="url(#linear-gradient-22)"/>
              <path id="Trazado_187886" data-name="Trazado 187886" d="M906.917,2879.8h1.92c2.926-.06,4.762,6.11,5.365,8.5a2.1,2.1,0,0,1-1.883,1.392,6.992,6.992,0,0,1-3.986-.211,18.352,18.352,0,0,1-2.741-6.9A2.423,2.423,0,0,1,906.917,2879.8Z" transform="translate(-905.526 -2879.803)" fill="url(#linear-gradient-23)"/>
            </g>
            <path id="Trazado_187887" data-name="Trazado 187887" d="M908.606,2875.862l1.066,4.241a1.151,1.151,0,0,1-.6,1.3,4.092,4.092,0,0,1-2.209.534.961.961,0,0,1-.785-.641l-1.566-4.463Z" transform="translate(-904.515 -2875.862)" fill="url(#linear-gradient-24)"/>
          </g>
          <path id="Trazado_187888" data-name="Trazado 187888" d="M910.421,2877.986c-1.327,1.177-5.643,1.332-5.643,1.332-15.545-37.312-21.905-42.613-21.905-42.613,2.244,14.084.361,45.262.361,45.262-2.565,1.132-5.872,0-5.872,0a240.3,240.3,0,0,0-7.939-59.015c10.507-.237,16.095-3.833,17.92-5.275C896.1,2831.8,910.421,2877.986,910.421,2877.986Z" transform="translate(-837.254 -2766.833)" fill="#909599"/>
          <path id="Trazado_187889" data-name="Trazado 187889" d="M884.888,2775.425c1.988,9.92,1.275,27.675.807,35.774-.131,2.277,1.458,5.432,2.742,7.584a.676.676,0,0,1-.272.95,46.853,46.853,0,0,1-17.878,4.956,1.2,1.2,0,0,1-1.211-.9c-6.263-23.385-13.537-38.328-13.537-38.328C863.569,2772.639,884.888,2775.425,884.888,2775.425Z" transform="translate(-837.468 -2767.489)" fill="#d84318"/>
          <path id="Trazado_187890" data-name="Trazado 187890" d="M881.721,2835.641a.5.5,0,0,0,.259-.073.5.5,0,0,0,.167-.684,15.627,15.627,0,0,0-6.165-5.351.5.5,0,0,0-.433.9,14.893,14.893,0,0,1,5.746,4.972A.5.5,0,0,0,881.721,2835.641Z" transform="translate(-837.164 -2766.651)" fill="url(#linear-gradient-25)"/>
          <g id="Grupo_128295" data-name="Grupo 128295" transform="translate(45.198 7.936)">
            <path id="Trazado_187891" data-name="Trazado 187891" d="M896.845,2803.47a34.126,34.126,0,0,1-6.3,15.016l-1.436-1.171a44.307,44.307,0,0,0,.715-14.351A17.187,17.187,0,0,1,896.845,2803.47Z" transform="translate(-882.148 -2774.999)" fill="#d84318"/>
            <path id="Trazado_187892" data-name="Trazado 187892" d="M882.254,2787.661l2.222-12.24s14.842,11.345,12.475,28.471a17.187,17.187,0,0,0-7.023-.506C889.249,2797.891,887.223,2791.924,882.254,2787.661Z" transform="translate(-882.254 -2775.421)" fill="#d84318"/>
          </g>
          <g id="Grupo_128296" data-name="Grupo 128296" transform="translate(0 17.973)">
            <path id="Trazado_187893" data-name="Trazado 187893" d="M855.622,2785.306l5.728,12.339c-.926,7.449-4.928,10.669-9.242,11.905a26.2,26.2,0,0,0-1.924-8.035C855.7,2795.823,855.622,2785.306,855.622,2785.306Z" transform="translate(-837.551 -2785.306)" fill="#d84318"/>
            <path id="Trazado_187894" data-name="Trazado 187894" d="M850.376,2801.268a26.2,26.2,0,0,1,1.924,8.035c-11.512,4.466-14.557-4.2-14.557-4.2l2.127-.375C844.674,2805.239,848.031,2803.69,850.376,2801.268Z" transform="translate(-837.743 -2785.059)" fill="#d84318"/>
          </g>
          <path id="Trazado_187895" data-name="Trazado 187895" d="M860.737,2770.348l2.765,10.167a1.979,1.979,0,0,0,2.645,1.317,40.166,40.166,0,0,0,3.987-1.822,2.665,2.665,0,0,0,.94-3.83l-5.75-8.573Z" transform="translate(-837.388 -2767.606)" fill="url(#linear-gradient-26)"/>
        </g>
        <g id="Grupo_128298" data-name="Grupo 128298" transform="translate(74.936)">
          <path id="Trazado_187896" data-name="Trazado 187896" d="M854.778,2762.723c-.025.175,2.306,11.6,2.306,11.6l6.5-1.47-.6-11.16S855.2,2759.8,854.778,2762.723Z" transform="translate(-851.904 -2757.262)" fill="url(#linear-gradient-27)"/>
          <path id="Trazado_187897" data-name="Trazado 187897" d="M861.563,2764.241l.776,5.85a.785.785,0,0,1,0,.223c-.065.459-.406,2.02-1.982,1.573a7.423,7.423,0,0,0-3.646-.476.825.825,0,0,0-.567.954,35.7,35.7,0,0,0,1.495,5.325.822.822,0,0,0,1,.486,26.587,26.587,0,0,0,5.727-2.343.828.828,0,0,0,.4-.742c-.063-1.477-.236-5.966-.09-7.224.137-1.182,1.586-1.889,2.217-2.143a.812.812,0,0,0,.451-.453,2.137,2.137,0,0,0-1.438-3.115.826.826,0,0,1-.523-1.067,2.141,2.141,0,0,0-1.2-2.959,3.02,3.02,0,0,0-3.6.868.826.826,0,0,1-1.051.125.652.652,0,0,0-.742.024.811.811,0,0,1-1.15-.348,2.461,2.461,0,0,0-2.859-1.424c-2.911.5-3.241,3.725-2.474,5.615s3.894,1.169,5.462.217c1.192-.725,2.739.034,3.411.441A.819.819,0,0,1,861.563,2764.241Z" transform="translate(-851.948 -2757.321)" fill="#102538"/>
          <path id="Trazado_187898" data-name="Trazado 187898" d="M864.747,2769.875s-1.2-3.352.032-4.172,3.051-.395,2.65,2.033C866.931,2770.757,864.747,2769.875,864.747,2769.875Z" transform="translate(-851.758 -2757.197)" fill="url(#linear-gradient-28)"/>
        </g>
        <path id="Trazado_187899" data-name="Trazado 187899" d="M838.652,2806.687c-.579.453-2.564-.492-3.778-1.146a1.4,1.4,0,0,1-.676-1.652c.292-.922.78-2.111,1.38-2.261C836.573,2801.38,841.04,2804.822,838.652,2806.687Z" transform="translate(-777.286 -2756.637)" fill="url(#linear-gradient-29)"/>
        <g id="Grupo_128301" data-name="Grupo 128301" transform="translate(0 31.169)">
          <g id="Grupo_128300" data-name="Grupo 128300">
            <path id="Trazado_187900" data-name="Trazado 187900" d="M930.161,2833.522,814.4,2792.352l-6.125,17.012L924,2851.684a5.4,5.4,0,0,0,6.518-2.36c1.353-2.322,2.645-5.952,2.723-11.389A4.622,4.622,0,0,0,930.161,2833.522Z" transform="translate(-777.686 -2787.948)" fill="url(#linear-gradient-30)"/>
            <g id="Grupo_128299" data-name="Grupo 128299">
              <path id="Trazado_187901" data-name="Trazado 187901" d="M779.055,2788.022l15.99,1.963a14.053,14.053,0,0,1-3.177,8.314l-13.353-8.809A.8.8,0,0,1,779.055,2788.022Z" transform="translate(-778.151 -2788.015)" fill="#81280e"/>
              <path id="Trazado_187902" data-name="Trazado 187902" d="M814.659,2792.389a22.277,22.277,0,0,1-6.125,17.012l-16.875-11.131a14.053,14.053,0,0,0,3.177-8.314Z" transform="translate(-777.942 -2787.985)" fill="url(#linear-gradient-31)"/>
            </g>
          </g>
          <path id="Trazado_187903" data-name="Trazado 187903" d="M928.583,2838.639a.34.34,0,0,0,.114-.661l-110.75-39.14a.34.34,0,0,0-.227.642l110.75,39.14A.337.337,0,0,0,928.583,2838.639Z" transform="translate(-777.543 -2787.849)" fill="url(#linear-gradient-32)"/>
          <path id="Trazado_187904" data-name="Trazado 187904" d="M926.7,2845.212a.34.34,0,0,0,.114-.661l-110.75-39.141a.34.34,0,0,0-.227.642l110.75,39.14A.342.342,0,0,0,926.7,2845.212Z" transform="translate(-777.572 -2787.747)" fill="url(#linear-gradient-33)"/>
        </g>
        <path id="Trazado_187905" data-name="Trazado 187905" d="M889.836,2816.9l-6.7-.546-2.9,2.675s.686.948,2.832.4a30.8,30.8,0,0,1,5.086-.679s2.962,1.336,3-1.163Z" transform="translate(-776.574 -2756.409)" fill="url(#linear-gradient-34)"/>
      </g>
    </g>
    <path id="Trazado_187906" data-name="Trazado 187906" d="M967.654,2891.155l-388.064-.134a.559.559,0,0,1-.49-.606v-.371a.56.56,0,0,1,.492-.606l388.064.134a.56.56,0,0,1,.491.606v.371A.561.561,0,0,1,967.654,2891.155Z" transform="translate(0 5.312)" fill="#99935e"/>
  </g>
</svg>
