<svg xmlns="http://www.w3.org/2000/svg" xmlns:xlink="http://www.w3.org/1999/xlink" width="1240" height="1128" viewBox="0 0 1240 1128">
  <defs>
    <linearGradient id="linear-gradient" x1="0.5" x2="0.5" y2="1" gradientUnits="objectBoundingBox">
      <stop offset="0" stop-color="#fffcdd"/>
      <stop offset="1" stop-color="#fff"/>
    </linearGradient>
    <linearGradient id="linear-gradient-3" x1="0.5" y1="0.086" x2="0.5" y2="0.995" gradientUnits="objectBoundingBox">
      <stop offset="0" stop-color="#fff"/>
      <stop offset="1" stop-color="#fff"/>
    </linearGradient>
    <filter id="Elipse_5075" x="196.5" y="181.626" width="847" height="847" filterUnits="userSpaceOnUse">
      <feOffset dy="9" input="SourceAlpha"/>
      <feGaussianBlur stdDeviation="4.5" result="blur"/>
      <feFlood flood-color="#77848a" flood-opacity="0.4"/>
      <feComposite operator="in" in2="blur"/>
      <feComposite in="SourceGraphic"/>
    </filter>
  </defs>
  <g id="Grupo_129519" data-name="Grupo 129519" transform="translate(-180 -3206)">
    <rect id="Rectángulo_41051" data-name="Rectángulo 41051" width="1022" height="295" transform="translate(1420 3206) rotate(90)" opacity="0.798" fill="url(#linear-gradient)"/>
    <g id="Grupo_129287" data-name="Grupo 129287" transform="translate(1648.863 3474.805) rotate(180)">
      <path id="Trazado_114975" data-name="Trazado 114975" d="M812.618,386.057h-43.4l32.891,69.9-32.891,69.9h43.4l32.891-69.9Z" transform="translate(-540.358 -386.057)" fill="#fffcdd"/>
      <path id="Trazado_114976" data-name="Trazado 114976" d="M828.9,386.057h-43.4l32.89,69.9-32.89,69.9h43.4l32.89-69.9Z" transform="translate(-475.715 -386.057)" fill="#fffcdd"/>
      <path id="Trazado_114977" data-name="Trazado 114977" d="M845.189,386.057h-43.4l32.89,69.9-32.89,69.9h43.4l32.89-69.9Z" transform="translate(-411.072 -386.057)" fill="#fffcdd"/>
      <path id="Trazado_114978" data-name="Trazado 114978" d="M861.475,386.058h-43.4l32.89,69.9-32.89,69.9h43.4l32.89-69.9Z" transform="translate(-346.429 -386.057)" fill="#fffcdd"/>
      <path id="Trazado_114979" data-name="Trazado 114979" d="M877.76,386.058h-43.4l32.89,69.9-32.89,69.9h43.4l32.89-69.9Z" transform="translate(-281.786 -386.057)" fill="#fffcdd"/>
    </g>
    <rect id="Rectángulo_41052" data-name="Rectángulo 41052" width="1003" height="295" transform="translate(180 4334) rotate(-90)" opacity="0.798" fill="url(#linear-gradient)"/>
    <g id="Grupo_129289" data-name="Grupo 129289" transform="translate(-48.863 4194.098)">
      <path id="Trazado_114975-2" data-name="Trazado 114975" d="M812.618,386.057h-43.4l32.891,69.9-32.891,69.9h43.4l32.891-69.9Z" transform="translate(-540.358 -386.057)" fill="#fffcdd"/>
      <path id="Trazado_114976-2" data-name="Trazado 114976" d="M828.9,386.057h-43.4l32.89,69.9-32.89,69.9h43.4l32.89-69.9Z" transform="translate(-475.715 -386.057)" fill="#fffcdd"/>
      <path id="Trazado_114977-2" data-name="Trazado 114977" d="M845.189,386.057h-43.4l32.89,69.9-32.89,69.9h43.4l32.89-69.9Z" transform="translate(-411.072 -386.057)" fill="#fffcdd"/>
      <path id="Trazado_114978-2" data-name="Trazado 114978" d="M861.475,386.058h-43.4l32.89,69.9-32.89,69.9h43.4l32.89-69.9Z" transform="translate(-346.429 -386.057)" fill="#fffcdd"/>
      <path id="Trazado_114979-2" data-name="Trazado 114979" d="M877.76,386.058h-43.4l32.89,69.9-32.89,69.9h43.4l32.89-69.9Z" transform="translate(-281.786 -386.057)" fill="#fffcdd"/>
    </g>
    <g id="Grupo_129290" data-name="Grupo 129290" transform="translate(0 884)">
      <g transform="matrix(1, 0, 0, 1, 180, 2322)" filter="url(#Elipse_5075)">
        <circle id="Elipse_5075-2" data-name="Elipse 5075" cx="410" cy="410" r="410" transform="translate(210 186.13)" fill="url(#linear-gradient-3)"/>
      </g>
      <g id="Grupo_128415" data-name="Grupo 128415" transform="translate(416.917 2618.617)">
        <path id="Trazado_188110" data-name="Trazado 188110" d="M2563.706,2844.68a195.811,195.811,0,0,1,68.136-148.745L2521.47,2544.021a384.51,384.51,0,0,0-131.187,403.7l178.6-58.033A197.224,197.224,0,0,1,2563.706,2844.68Z" transform="translate(-2376.298 -2544.021)" fill="#fffcdd"/>
      </g>
      <g id="Grupo_128416" data-name="Grupo 128416" transform="translate(588.382 2535.572)">
        <path id="Trazado_188111" data-name="Trazado 188111" d="M2774.68,2641.274a195.518,195.518,0,0,1,101.873,28.427l110.367-151.907a384.286,384.286,0,0,0-424.48,0L2672.807,2669.7A195.509,195.509,0,0,1,2774.68,2641.274Z" transform="translate(-2562.44 -2453.867)" fill="#fdf182"/>
      </g>
      <g id="Grupo_128417" data-name="Grupo 128417" transform="translate(816.876 2995.208)">
        <path id="Trazado_188112" data-name="Trazado 188112" d="M2810.493,3072.541v187.715c157.874-6.565,290.943-108.274,343.441-249.377l-178.6-58.031A196.268,196.268,0,0,1,2810.493,3072.541Z" transform="translate(-2810.493 -2952.848)" fill="#fdf8bb"/>
      </g>
      <g id="Grupo_128418" data-name="Grupo 128418" transform="translate(928.783 2618.618)">
        <path id="Trazado_188113" data-name="Trazado 188113" d="M3000.116,2844.68a197.161,197.161,0,0,1-5.181,45.008l178.6,58.032a384.512,384.512,0,0,0-131.187-403.7l-110.373,151.913A195.812,195.812,0,0,1,3000.116,2844.68Z" transform="translate(-2931.979 -2544.022)" fill="#fff59d"/>
      </g>
      <g id="Grupo_128419" data-name="Grupo 128419" transform="translate(440.927 2995.208)">
        <path id="Trazado_188114" data-name="Trazado 188114" d="M2580.965,2952.848l-178.6,58.031c52.5,141.1,185.567,242.811,343.441,249.377V3072.541A196.264,196.264,0,0,1,2580.965,2952.848Z" transform="translate(-2402.363 -2952.848)" fill="#fffbcc"/>
      </g>
      <g id="Grupo_128616" data-name="Grupo 128616" transform="translate(630.295 2748.421)">
        <path id="Trazado_188322" data-name="Trazado 188322" d="M169.705,0A169.705,169.705,0,1,1,0,169.705,169.705,169.705,0,0,1,169.705,0Z" transform="translate(0 0)" fill="#fffef0"/>
      </g>
      <g id="Grupo_128619" data-name="Grupo 128619" transform="translate(665.558 2926.688)">
        <text id="Calcular_precio_de_adquisición" data-name="Calcular precio 
de adquisición" transform="translate(0 0)" fill="#12263f" font-size="30" font-family="Roboto-Black, Roboto" font-weight="800"><tspan x="-102.319" y="31">Calcular precio </tspan><tspan x="-98.357" y="61">de adquisición</tspan></text>
      </g>
      <text id="Calcular_los_descuentos_que_pueden_ser_de_tipo_comercial_por_volumen_por_pronto_pago_y_unidades_bonificadas." data-name="Calcular los descuentos que pueden ser de tipo comercial, por volumen, por pronto pago y unidades bonificadas." transform="translate(671.279 2612.926)" fill="#12263f" font-size="16" font-family="Roboto-Regular, Roboto"><tspan x="0.705" y="17">Calcular los descuentos que pueden </tspan><tspan x="5.522" y="37">ser de tipo comercial, por volumen, </tspan><tspan x="32.147" y="57">por pronto pago y unidades </tspan><tspan x="85.729" y="77">bonificadas.</tspan></text>
      <g id="Grupo_128620" data-name="Grupo 128620" transform="translate(779.023 2563.28)">
        <path id="Trazado_188323" data-name="Trazado 188323" d="M3579.913,2673.229c-.055.184-.108.369-.164.553a3.8,3.8,0,0,1-2.036,2.485c-1.516.706-3.066,1.339-4.6,2a.7.7,0,0,1-.168.018v-.5c0-5.077-.026-10.154.01-15.231a9.582,9.582,0,0,0-3.331-7.56c-2.878-2.586-5.7-5.237-8.545-7.858a2.13,2.13,0,0,0-.238-.167l.062-.086q1.985.468,3.969.937c1.356.322,2.717.628,4.066.977a5.93,5.93,0,0,1,4.349,3.928c2.163,6.193,4.271,12.406,6.4,18.612.09.262.153.533.229.8Z" transform="translate(-3537.006 -2645.295)" fill="#15324b"/>
        <path id="Trazado_188324" data-name="Trazado 188324" d="M3364.633,2672.8h-12.316a4.12,4.12,0,0,1-4.373-4.389q0-9.4,0-18.8a6.614,6.614,0,0,1,2.233-5.1c3.847-3.538,7.7-7.069,11.523-10.635a4.236,4.236,0,0,1,5.8-.075q5.664,5.267,11.386,10.473a6.876,6.876,0,0,1,2.272,3.582,7.9,7.9,0,0,1,.2,1.7q.021,9.465.007,18.93a4.115,4.115,0,0,1-4.33,4.312Q3370.833,2672.8,3364.633,2672.8Zm-10.229-21.069a4.882,4.882,0,0,0,.829,2.8,3.72,3.72,0,0,0,6.273,0,4.78,4.78,0,0,0-.256-5.7,3.667,3.667,0,0,0-5.538-.24A4.563,4.563,0,0,0,3354.4,2651.732Zm12.619,10.069a12.086,12.086,0,0,0,.378,1.7,3.856,3.856,0,0,0,3.22,2.708,3.587,3.587,0,0,0,3.482-1.577,4.75,4.75,0,0,0,0-5.6,3.7,3.7,0,0,0-5.838-.317A5.043,5.043,0,0,0,3367.022,2661.8Zm-5.284,3.448a1.3,1.3,0,0,0,1.117-.95q2.045-4.908,4.105-9.811c.636-1.519,1.28-3.035,1.906-4.558a1.266,1.266,0,0,0-.947-1.791,1.288,1.288,0,0,0-1.4.891q-2.131,5.077-4.256,10.156c-.6,1.429-1.208,2.854-1.792,4.288A1.267,1.267,0,0,0,3361.738,2665.249Zm1.7-24.617a1.248,1.248,0,0,0,1.226,1.268,1.257,1.257,0,1,0,.018-2.514A1.239,1.239,0,0,0,3363.439,2640.631Z" transform="translate(-3347.941 -2632.692)" fill="#15324b"/>
        <path id="Trazado_188325" data-name="Trazado 188325" d="M2.907,2.173a5.4,5.4,0,0,1-.558,1.142,1.133,1.133,0,0,1-1.813.029A2.25,2.25,0,0,1,.535.43,1.173,1.173,0,0,1,2.363.446,2.517,2.517,0,0,1,2.907,2.173Z" transform="translate(9.371 17.031) rotate(11)" fill="#15324b"/>
        <path id="Trazado_188326" data-name="Trazado 188326" d="M3544.4,2878.042a2.154,2.154,0,0,1-.5,1.426,1.17,1.17,0,0,1-1.854.036,2.259,2.259,0,0,1-.047-2.85,1.158,1.158,0,0,1,1.925.038,7.091,7.091,0,0,1,.583,1.3Z" transform="translate(-3519.842 -2848.904)" fill="#15324b"/>
      </g>
      <text id="Cuantificar_costos_de_seguros_y_aranceles." data-name="Cuantificar costos de 
seguros y aranceles." transform="translate(832.418 3146.25)" fill="#12263f" font-size="16" font-family="Roboto-Regular, Roboto"><tspan x="-75.422" y="17">Cuantificar costos de </tspan><tspan x="-72.828" y="37">seguros y aranceles.</tspan></text>
      <text id="Deducir_costos_de_transporte." data-name="Deducir costos de transporte." transform="translate(1009.768 2849.538)" fill="#12263f" font-size="16" font-family="Roboto-Regular, Roboto"><tspan x="12.705" y="17">Deducir costos de </tspan><tspan x="37.791" y="37">transporte.</tspan></text>
      <g id="Grupo_128626" data-name="Grupo 128626" transform="translate(1065.07 2796.08)">
        <path id="Trazado_188331" data-name="Trazado 188331" d="M4472.813,2595.133h2.424c.668.088,1.34.153,2,.266a20.093,20.093,0,0,1,16.452,16.336c.129.728.206,1.466.308,2.2v2.428c-.022.125-.048.25-.066.377-.107.787-.178,1.582-.327,2.361a20.006,20.006,0,0,1-16.175,15.833c-.728.125-1.463.207-2.2.308h-2.5a2.053,2.053,0,0,0-.3-.066,19.259,19.259,0,0,1-6.084-1.455,20.058,20.058,0,0,1,3.683-38.186C4470.952,2595.355,4471.887,2595.265,4472.813,2595.133Zm2.442,10.931a4.759,4.759,0,0,1,2.544.806,2.491,2.491,0,0,1,1.192,2.082,1.247,1.247,0,1,0,2.492-.082,4.74,4.74,0,0,0-1.623-3.56,6.762,6.762,0,0,0-3.145-1.57c-.481-.1-.972-.151-1.48-.228,0-.292.008-.579,0-.865a1.249,1.249,0,0,0-2.5-.006c-.008.286,0,.572,0,.893a6.526,6.526,0,0,0-4.368,1.951,6.288,6.288,0,0,0-1.876,4.427,6.09,6.09,0,0,0,1.249,3.8,6.527,6.527,0,0,0,4.974,2.691v7.918a4.889,4.889,0,0,1-2.411-.729,2.547,2.547,0,0,1-1.327-2.206,1.238,1.238,0,0,0-1.3-1.184,1.219,1.219,0,0,0-1.186,1.255,4.741,4.741,0,0,0,1.616,3.6,6.578,6.578,0,0,0,2.843,1.495c.578.139,1.17.213,1.789.323,0,.268-.006.553,0,.838a1.249,1.249,0,1,0,2.5-.009c.007-.282,0-.565,0-.843a6.585,6.585,0,0,0,6.246-6.312,6.192,6.192,0,0,0-1.292-3.941,6.5,6.5,0,0,0-4.934-2.635Z" transform="translate(-4453.982 -2595.133)" fill="#15324b"/>
        <path id="Trazado_188332" data-name="Trazado 188332" d="M4601.335,2707.973a3.867,3.867,0,0,1,0-7.729Z" transform="translate(-4582.607 -2689.265)" fill="#15324b"/>
        <path id="Trazado_188333" data-name="Trazado 188333" d="M4657.662,2807.843v-7.719a3.862,3.862,0,0,1,0,7.719Z" transform="translate(-4636.388 -2778.713)" fill="#15324b"/>
      </g>
      <text id="Determinar_gastos_de_embalaje." data-name="Determinar 
gastos de embalaje." transform="translate(446.256 2846.132)" fill="#12263f" font-size="16" font-family="Roboto-Regular, Roboto"><tspan x="-39.469" y="17">Determinar </tspan><tspan x="-71.535" y="37">gastos de embalaje.</tspan></text>
      <g id="Grupo_128627" data-name="Grupo 128627" transform="translate(501.558 2805.614)">
        <path id="Trazado_188327" data-name="Trazado 188327" d="M3846.81,2675.942a1.049,1.049,0,0,1,1.119-.682q11.959.013,23.918.006c.843,0,1.124.283,1.124,1.135q0,10.453,0,20.905c0,.828-.281,1.116-1.1,1.117q-5.131,0-10.262,0c-.784,0-1.017-.193-1.157-.957a4.824,4.824,0,0,0-5.982-3.8,4.539,4.539,0,0,0-3.726,3.917.9.9,0,0,1-1.007.844c-.586.009-1.174-.02-1.759.009a1.122,1.122,0,0,1-1.169-.615Z" transform="translate(-3846.81 -2675.26)" fill="#15324b"/>
        <path id="Trazado_188328" data-name="Trazado 188328" d="M4165.808,2738.381q0-4.043,0-8.086c0-.866.292-1.164,1.147-1.165,1.9,0,3.8.006,5.7-.005a1.384,1.384,0,0,1,1.157.54q3.307,3.977,6.638,7.935a1.508,1.508,0,0,1,.374,1.031c-.01,2.612,0,5.223-.006,7.835,0,.819-.29,1.107-1.108,1.114-.14,0-.279,0-.419,0-.748-.007-1.018-.219-1.138-.941a4.818,4.818,0,0,0-6-3.816,4.549,4.549,0,0,0-3.692,3.855c-.137.694-.383.891-1.082.9-1.426.022-1.565-.115-1.565-1.531Zm6.21-1.529c1.172,0,2.344-.006,3.517,0a.916.916,0,0,0,.968-.508.936.936,0,0,0-.23-1.037q-1.668-1.988-3.322-3.989a1.206,1.206,0,0,0-1.017-.467c-1.117.013-2.233,0-3.35.006-.75,0-1.068.318-1.072,1.069q-.01,1.926,0,3.853c0,.751.322,1.065,1.073,1.068C4169.729,2736.856,4170.874,2736.852,4172.018,2736.852Z" transform="translate(-4137.914 -2724.415)" fill="#15324b"/>
        <path id="Trazado_188329" data-name="Trazado 188329" d="M4213.594,2909.922a3.643,3.643,0,1,1,3.662-3.644A3.661,3.661,0,0,1,4213.594,2909.922Zm.015-2.579a1.062,1.062,0,1,0-1.06-1.062A1.074,1.074,0,0,0,4213.608,2907.344Z" transform="translate(-4178.215 -2882.754)" fill="#15324b"/>
        <path id="Trazado_188330" data-name="Trazado 188330" d="M3913.016,2906.294a3.638,3.638,0,1,1-3.6-3.656A3.649,3.649,0,0,1,3913.016,2906.294Zm-3.634,1.051a1.061,1.061,0,1,0-1.075-1.059A1.094,1.094,0,0,0,3909.382,2907.344Z" transform="translate(-3900.587 -2882.756)" fill="#15324b"/>
      </g>
      <text id="Los_gastos_de_cargue_y_descargue_se_deben_tener_en_cuenta_aparte_del_costo_de_transporte." data-name="Los gastos de cargue y descargue se deben tener en cuenta aparte del costo de transporte." transform="translate(535.012 3140.81)" fill="#12263f" font-size="16" font-family="Roboto-Regular, Roboto"><tspan x="1.027" y="17">Los gastos de cargue y descargue </tspan><tspan x="8.105" y="37">se deben tener en cuenta aparte </tspan><tspan x="37.965" y="57">del costo de transporte.</tspan></text>
      <g id="Grupo_128631" data-name="Grupo 128631" transform="translate(624.657 3087.936)">
        <path id="Trazado_188334" data-name="Trazado 188334" d="M5162.048,2738.847l-7.551,1.665c-2.3.507-4.606,1.008-6.908,1.522a.492.492,0,0,1-.658-.3,7.717,7.717,0,0,0-4.457-3.778.8.8,0,0,1-.611-.663c-.724-3.248-1.476-6.49-2.235-9.807l5.957-1.3c.234,1.009.457,1.979.686,2.947.125.528.278.63.8.515q2.83-.617,5.656-1.247c.521-.116.62-.277.5-.812-.211-.959-.436-1.915-.668-2.933l5.983-1.353C5159.71,2728.464,5160.873,2733.63,5162.048,2738.847Zm-15.213-4.294.425-.1,4.814-1.056c.9-.2,1.79-.4,2.686-.587.318-.068.548-.206.472-.573s-.34-.367-.63-.3c-.093.021-.187.037-.279.057l-5,1.1c-.817.18-1.64.342-2.446.564a.685.685,0,0,0-.351.5C5146.51,2734.286,5146.741,2734.443,5146.835,2734.553Zm.6,2.3c.248-.045.358-.061.466-.084l3.983-.885c1.143-.254,2.287-.5,3.428-.764.455-.106.642-.489.356-.737a.8.8,0,0,0-.6-.1c-1.116.225-2.226.482-3.337.729-1.405.313-2.812.615-4.21.956a.658.658,0,0,0-.407.459C5147.1,2736.573,5147.345,2736.743,5147.437,2736.855Z" transform="translate(-5123.661 -2709.226)" fill="#15324b"/>
        <path id="Trazado_188335" data-name="Trazado 188335" d="M5133.588,2626.186l-16.687,3.664c-1.031-4.595-2.053-9.145-3.084-13.734l5.188-1.1c.194.852.381,1.667.564,2.482.143.638.248.718.875.585q2.439-.513,4.875-1.04c.534-.115.637-.263.523-.8-.18-.849-.377-1.7-.576-2.578l5.245-1.159C5131.535,2617.056,5132.551,2621.578,5133.588,2626.186Zm-13.452-3.723c.169-.041.231-.057.292-.071q3.36-.736,6.72-1.474c.307-.067.554-.214.452-.586-.091-.334-.336-.356-.641-.287-1.558.353-3.12.693-4.68,1.036-.7.153-1.4.279-2.081.474a.687.687,0,0,0-.384.487C5119.8,2622.178,5120.039,2622.345,5120.136,2622.463Zm.5,2.067c1.023-.228,1.917-.429,2.811-.626q2.083-.461,4.166-.917c.311-.068.556-.2.467-.573s-.381-.363-.682-.292c-.231.055-.462.1-.693.156q-2.984.663-5.969,1.323c-.276.06-.523.177-.456.484C5120.32,2624.263,5120.531,2624.406,5120.637,2624.53Z" transform="translate(-5101.127 -2612.507)" fill="#15324b"/>
        <path id="Trazado_188336" data-name="Trazado 188336" d="M5092.853,2856.525a7.071,7.071,0,1,1,7.172-7.037A7.086,7.086,0,0,1,5092.853,2856.525Zm4.657-7.028a4.618,4.618,0,1,0-4.7,4.523A4.553,4.553,0,0,0,5097.509,2849.5Z" transform="translate(-5076.649 -2813.187)" fill="#15324b"/>
        <path id="Trazado_188337" data-name="Trazado 188337" d="M5217.192,2829.682l2.349-.522,1.1,4.469-18.108,4.127c-.134-.789-.261-1.546-.4-2.356.944-.21,1.912-.427,2.88-.639l11.914-2.6c.69-.151.747-.247.594-.945C5217.417,2830.722,5217.311,2830.229,5217.192,2829.682Z" transform="translate(-5178.23 -2801.643)" fill="#15324b"/>
        <path id="Trazado_188338" data-name="Trazado 188338" d="M5079.356,2663.95l-1.724.459c-.274-1.258-.544-2.492-.813-3.726q-1.959-9.033-3.922-18.068a2.113,2.113,0,0,0-1.177-1.779c-.078-.031-.139-.239-.12-.35.086-.513.2-1.021.315-1.569a3.061,3.061,0,0,1,2.432,1.934,23.358,23.358,0,0,1,.752,2.89q2.084,9.81,4.14,19.626C5079.279,2663.552,5079.314,2663.739,5079.356,2663.95Z" transform="translate(-5064.271 -2635.562)" fill="#15324b"/>
        <path id="Trazado_188339" data-name="Trazado 188339" d="M5194.387,2739.323c-.215-.941-.415-1.818-.625-2.743l5.188-1.158.672,2.734Z" transform="translate(-5170.919 -2719.811)" fill="#15324b"/>
        <path id="Trazado_188340" data-name="Trazado 188340" d="M5020.727,2627.137l-.47,2.07-6.347-1.393.471-2.018Z" transform="translate(-5013.91 -2624.109)" fill="#15324b"/>
        <path id="Trazado_188341" data-name="Trazado 188341" d="M5166.078,2622.737c.181.8.35,1.554.53,2.359l-4.52,1.008c-.182-.811-.349-1.561-.526-2.357Z" transform="translate(-5142.809 -2621.438)" fill="#15324b"/>
        <path id="Trazado_188342" data-name="Trazado 188342" d="M5119.808,2872.538a3.691,3.691,0,1,1-3.652-3.7A3.617,3.617,0,0,1,5119.808,2872.538Z" transform="translate(-5099.913 -2836.283)" fill="#15324b"/>
      </g>
      <g id="Grupo_128633" data-name="Grupo 128633" transform="translate(946.043 3096.604)">
        <path id="Trazado_188343" data-name="Trazado 188343" d="M5547.823,2558.778h.639c.392.332.807.638,1.169,1a17.945,17.945,0,0,0,12.657,5.4c.99.023,1.423.458,1.423,1.456,0,3.852.026,7.7-.015,11.556a22.986,22.986,0,0,1-.319,3.9,22.191,22.191,0,0,1-11.834,16.281c-.986.533-2.052.919-3.081,1.373h-.639c-.116-.055-.229-.121-.35-.165a22.542,22.542,0,0,1-14.9-21.344q-.006-5.838,0-11.676a1.254,1.254,0,0,1,1.343-1.383,29.277,29.277,0,0,0,3.482-.372,17.673,17.673,0,0,0,9.285-5.046C5547.036,2559.4,5547.442,2559.1,5547.823,2558.778Zm-10.458,20.4a10.778,10.778,0,1,0,10.792-10.8A10.809,10.809,0,0,0,5537.365,2579.182Z" transform="translate(-5532.574 -2558.778)" fill="#15324b"/>
        <path id="Trazado_188344" data-name="Trazado 188344" d="M5616.723,2679.661a8.382,8.382,0,1,1-8.392-8.379A8.406,8.406,0,0,1,5616.723,2679.661Zm-9.976,2.3c-.112-.1-.21-.19-.3-.282-.679-.677-1.347-1.364-2.036-2.03a1.2,1.2,0,1,0-1.691,1.689q1.564,1.6,3.158,3.166a1.159,1.159,0,0,0,1.714.018q3.2-3.179,6.377-6.386a1.136,1.136,0,0,0,.32-1.137,1.194,1.194,0,0,0-2.075-.491q-2.576,2.563-5.137,5.142C5606.974,2681.75,5606.867,2681.846,5606.747,2681.961Z" transform="translate(-5592.771 -2659.283)" fill="#15324b"/>
      </g>
      <g id="Grupo_128634" data-name="Grupo 128634" transform="translate(740.884 2799.303)">
        <path id="Trazado_188345" data-name="Trazado 188345" d="M6239.007,2706.212l-55.855,20.945v-1.319q0-32.224-.023-64.447a1.535,1.535,0,0,1,1.2-1.731c5.381-1.964,10.735-4,16.1-6.01.393-.147.793-.274,1.3-.449v18.569c.473-.16.822-.267,1.163-.395,4.243-1.583,8.477-3.194,12.734-4.734a1.394,1.394,0,0,0,1.061-1.6c-.043-5.467,0-10.935-.043-16.4a1.325,1.325,0,0,1,1.045-1.486c7.116-2.631,14.215-5.305,21.318-7.967Z" transform="translate(-6119.821 -2609.56)" fill="#15324b"/>
        <path id="Trazado_188346" data-name="Trazado 188346" d="M6021.82,2727.175c-3.281-1.225-6.43-2.395-9.575-3.574q-22.507-8.442-45.021-16.866a1.6,1.6,0,0,1-1.287-1.785q.056-32.167.028-64.336v-1.39c2.665.993,5.2,1.933,7.726,2.882q23.432,8.787,46.87,17.557a1.605,1.605,0,0,1,1.287,1.785q-.055,32.168-.028,64.336Zm-26.066-20.7c0-2.435-.043-4.679.023-6.92a1.237,1.237,0,0,0-.989-1.407c-4.317-1.581-8.615-3.21-12.922-4.818-.3-.113-.62-.188-1.007-.3v5.455c0,2.424,0,2.427,2.269,3.276C5987.283,2703.315,5991.438,2704.866,5995.754,2706.478Z" transform="translate(-5965.937 -2609.587)" fill="#15324b"/>
        <path id="Trazado_188347" data-name="Trazado 188347" d="M6085.65,2559.77c-6.523,2.448-12.837,4.681-19.03,7.212a7.187,7.187,0,0,1-6.405-.229c-5.973-2.852-12.062-5.456-18.094-8.183a2.2,2.2,0,0,0-1.963-.029c-4.263,1.847-8.546,3.644-12.821,5.461-.317.135-.623.3-1.091.52l22.238,9.181c-2.33.873-4.344,1.627-6.357,2.383-5.037,1.892-10.067,3.8-15.115,5.659a2.385,2.385,0,0,1-1.529.033q-28.935-10.806-57.848-21.671c-.214-.08-.418-.188-.771-.35a8.1,8.1,0,0,1,.841-.444q28.863-10.832,57.736-21.636a2.206,2.206,0,0,1,1.421-.028q28.987,10.83,57.956,21.713C6085.023,2559.44,6085.214,2559.555,6085.65,2559.77Z" transform="translate(-5966.595 -2537.546)" fill="#15324b"/>
      </g>
    </g>
  </g>
</svg>
