<svg xmlns="http://www.w3.org/2000/svg" xmlns:xlink="http://www.w3.org/1999/xlink" width="65.422" height="60.059" viewBox="0 0 65.422 60.059">
  <defs>
    <clipPath id="clip-path">
      <path id="Trazado_189192" data-name="Trazado 189192" d="M1407.08,299.733l-3.747-1.289-.149,1.7,3.9,2.5Z" fill="none"/>
    </clipPath>
    <clipPath id="clip-path-2">
      <path id="Trazado_189193" data-name="Trazado 189193" d="M1413.557,306.957l-3.363,8.676a6.49,6.49,0,0,0-.436,2.338V335.1h2.524l2.761-16.8,6.114-9.778Z" fill="none"/>
    </clipPath>
    <clipPath id="clip-path-3">
      <path id="Trazado_189194" data-name="Trazado 189194" d="M1416.484,307.075l.862,10.853a4.718,4.718,0,0,0,.495,1.757l7.845,15.419,2.235-1.209-4.928-15.58.829-9.517Z" fill="none"/>
    </clipPath>
    <clipPath id="clip-path-4">
      <path id="Trazado_189195" data-name="Trazado 189195" d="M1418.509,289.685a2.562,2.562,0,0,1,2.759-2.324,2.636,2.636,0,0,1,1.678,3.241,2.562,2.562,0,0,1-2.759,2.325A2.637,2.637,0,0,1,1418.509,289.685Z" fill="none"/>
    </clipPath>
    <clipPath id="clip-path-5">
      <path id="Trazado_189196" data-name="Trazado 189196" d="M1424.818,299.55c.111-2.4-1.2-4.433-3.1-4.827h0l-1.083-.224h0c-1.908-.394-3.872.962-4.667,3.223l-3.637,10.344,11.985,2.474Z" fill="none"/>
    </clipPath>
    <clipPath id="clip-path-6">
      <path id="Trazado_189197" data-name="Trazado 189197" d="M1425.67,302.865l.527,2a2.071,2.071,0,0,1,.034.9h0a2,2,0,0,1-1.265,1.526l-7.812,2.882-1.061-1.407,7.222-3.873-.576-1.527Z" fill="none"/>
    </clipPath>
    <clipPath id="clip-path-7">
      <path id="Trazado_189198" data-name="Trazado 189198" d="M1381.2,288.208a2.626,2.626,0,0,1,2.97,2.219,2.723,2.723,0,0,1-1.536,3.434,2.627,2.627,0,0,1-2.971-2.219A2.723,2.723,0,0,1,1381.2,288.208Z" fill="none"/>
    </clipPath>
    <clipPath id="clip-path-8">
      <path id="Trazado_189199" data-name="Trazado 189199" d="M1387.755,293.715l1.833-.811,8.185-5.47.763,1.444-6.833,6.508-2.56,1.318Z" fill="none"/>
    </clipPath>
  </defs>
  <g id="Grupo_129600" data-name="Grupo 129600" transform="translate(-325.578 -2056.06)">
    <g id="Grupo_129278" data-name="Grupo 129278" transform="translate(-1046.62 1778.303)">
      <g id="Grupo_128391" data-name="Grupo 128391">
        <path id="Trazado_188046" data-name="Trazado 188046" d="M1426.03,334.156l.093.788-1.724,1.844a.779.779,0,0,0-.149.825h0l4.344-1.888-1.1-2.207Z" fill="#617e9b"/>
        <g id="Grupo_128365" data-name="Grupo 128365">
          <g id="Grupo_128364" data-name="Grupo 128364">
            <path id="Trazado_188047" data-name="Trazado 188047" d="M1407.08,299.733l-3.746-1.289-.149,1.7,3.9,2.5Z" fill="#f4d2c6"/>
            <g id="Grupo_129298" data-name="Grupo 129298">
              <g id="Grupo_129297" data-name="Grupo 129297" clip-path="url(#clip-path)">
                <g id="Grupo_128363" data-name="Grupo 128363">
                  <path id="Trazado_188048" data-name="Trazado 188048" d="M1406.222,298.861l-.521,3.336,2.231,1.39.26-4.611Z" fill="#eda19d"/>
                </g>
              </g>
            </g>
          </g>
          <path id="Trazado_188050" data-name="Trazado 188050" d="M1403.5,298.5s-1.578-1.778-1.752-1.667c-.468.3.569,1.241.379,1.287s-2.553-.218-2.609.012a4.407,4.407,0,0,0,.792,2.012,26.9,26.9,0,0,0,3.11.069Z" fill="#f4d2c6"/>
        </g>
        <g id="Grupo_128367" data-name="Grupo 128367">
          <path id="Trazado_188051" data-name="Trazado 188051" d="M1413.557,306.957l-3.363,8.676a6.49,6.49,0,0,0-.436,2.338V335.1h2.524l2.761-16.8,6.114-9.778Z" fill="#fff"/>
          <g id="Grupo_129300" data-name="Grupo 129300">
            <g id="Grupo_129299" data-name="Grupo 129299" clip-path="url(#clip-path-2)">
              <g id="Grupo_128366" data-name="Grupo 128366">
                <path id="Trazado_188052" data-name="Trazado 188052" d="M1417.113,314.993l-.354-4.453s-3.949,6.933-4.014,8.076-1.565,16.946-1.565,16.946h1.826l2.739-17.215,1.367-3.354" fill="#c8cace"/>
              </g>
            </g>
          </g>
        </g>
        <g id="Grupo_128369" data-name="Grupo 128369">
          <path id="Trazado_188054" data-name="Trazado 188054" d="M1416.484,307.075l.862,10.853a4.718,4.718,0,0,0,.495,1.757l7.845,15.419,2.235-1.209-4.928-15.58.829-9.517Z" fill="#fff"/>
          <g id="Grupo_129302" data-name="Grupo 129302">
            <g id="Grupo_129301" data-name="Grupo 129301" clip-path="url(#clip-path-3)">
              <g id="Grupo_128368" data-name="Grupo 128368">
                <path id="Trazado_188055" data-name="Trazado 188055" d="M1416.744,309.277a12.1,12.1,0,0,0,7.623,4.378l.273-3.919-7.657-1.031-.243.57" fill="#c8cace"/>
              </g>
            </g>
          </g>
        </g>
        <path id="Trazado_188057" data-name="Trazado 188057" d="M1410.163,335.1l-.211.764-2.283,1.009a.767.767,0,0,0-.448.7h4.715l-.179-2.473Z" fill="#617e9b"/>
        <g id="Grupo_128376" data-name="Grupo 128376">
          <g id="Grupo_128373" data-name="Grupo 128373">
            <path id="Trazado_188058" data-name="Trazado 188058" d="M1418.614,289.274s.1-3.662,3.7-2.146C1422.316,287.128,1420.093,289.482,1418.614,289.274Z" fill="#59445a"/>
            <g id="Grupo_128372" data-name="Grupo 128372">
              <g id="Grupo_128371" data-name="Grupo 128371">
                <path id="Trazado_188108" data-name="Trazado 188108" d="M1418.509,289.685a2.562,2.562,0,0,1,2.759-2.324,2.636,2.636,0,0,1,1.678,3.241,2.562,2.562,0,0,1-2.759,2.325A2.637,2.637,0,0,1,1418.509,289.685Z" fill="#f4d2c6"/>
                <g id="Grupo_129304" data-name="Grupo 129304">
                  <g id="Grupo_129303" data-name="Grupo 129303" clip-path="url(#clip-path-4)">
                    <g id="Grupo_128370" data-name="Grupo 128370">
                      <path id="Trazado_188059" data-name="Trazado 188059" d="M1418.614,289.273a4.389,4.389,0,0,0,2.741.371l.309.388.215-.851-3.121-.825-.144.917" fill="#eda19d"/>
                    </g>
                  </g>
                </g>
              </g>
              <path id="Trazado_188060" data-name="Trazado 188060" d="M1422.977,290.417s-1.052,4.252-.859,5.616a5.226,5.226,0,0,1-2.742-.566,23.526,23.526,0,0,0,1.566-4.368Z" fill="#f4d2c6"/>
            </g>
            <path id="Trazado_188061" data-name="Trazado 188061" d="M1420.413,292.959a1.963,1.963,0,0,0,1.194-.3,1.385,1.385,0,0,1-1.455.975Z" fill="#eda19d"/>
            <path id="Trazado_188062" data-name="Trazado 188062" d="M1418.863,288.691a9.739,9.739,0,0,0,2.63.591,1.779,1.779,0,0,1,.1,1.2c-.392,1.094,1.05,1.391,1.05,1.391s1.374-2.156,1.1-3.346c-.187-.808-1.04-1.27-1.8-1.55a2.58,2.58,0,0,0-2.085.135A3.356,3.356,0,0,0,1418.863,288.691Z" fill="#59445a"/>
            <path id="Trazado_188063" data-name="Trazado 188063" d="M1422.273,290.628a.5.5,0,0,1-.583.4h0a.511.511,0,0,1-.389-.6.5.5,0,0,1,.583-.4h0A.51.51,0,0,1,1422.273,290.628Z" fill="#f4d2c6"/>
          </g>
          <g id="Grupo_128375" data-name="Grupo 128375">
            <g id="Grupo_128374" data-name="Grupo 128374">
              <path id="Trazado_188064" data-name="Trazado 188064" d="M1419.352,287.2l3.8,3.884a2.5,2.5,0,0,0,.418-3.511,2.464,2.464,0,0,0-.234-.257C1420.975,284.9,1419.352,287.2,1419.352,287.2Z" fill="#cbe2f7"/>
              <path id="Trazado_188065" data-name="Trazado 188065" d="M1421.3,289.193l-2.281-.139a2.517,2.517,0,0,1-1.782-.914l-.81-.978,2.926.043Z" fill="#617e9b"/>
            </g>
            <path id="Trazado_188066" data-name="Trazado 188066" d="M1423.339,287.451c-.06.075-.254.011-.436-.142s-.28-.338-.22-.413.255-.011.437.142S1423.4,287.376,1423.339,287.451Z" fill="#617e9b"/>
          </g>
        </g>
        <g id="Grupo_128378" data-name="Grupo 128378">
          <path id="Trazado_188067" data-name="Trazado 188067" d="M1424.818,299.55c.111-2.4-1.2-4.433-3.1-4.827h0l-1.083-.224h0c-1.908-.394-3.872.962-4.667,3.223l-3.637,10.344,11.985,2.474Z" fill="#cbe2f7"/>
          <g id="Grupo_129306" data-name="Grupo 129306">
            <g id="Grupo_129305" data-name="Grupo 129305" clip-path="url(#clip-path-5)">
              <g id="Grupo_128377" data-name="Grupo 128377">
                <path id="Trazado_188068" data-name="Trazado 188068" d="M1421.946,303.527s0,5.47,2.684,6.343l.194-7.194-2.878.851" fill="#9dc2ea"/>
              </g>
            </g>
          </g>
        </g>
        <g id="Grupo_128386" data-name="Grupo 128386">
          <g id="Grupo_128381" data-name="Grupo 128381">
            <g id="Grupo_128379" data-name="Grupo 128379">
              <rect id="Rectángulo_40769" data-name="Rectángulo 40769" width="8.882" height="9.983" transform="translate(1405.205 289.77)" fill="#f3ac4a"/>
              <rect id="Rectángulo_40770" data-name="Rectángulo 40770" width="4.917" height="9.983" transform="translate(1414.089 289.77)" fill="#f08f3c"/>
            </g>
            <g id="Grupo_128380" data-name="Grupo 128380">
              <rect id="Rectángulo_40771" data-name="Rectángulo 40771" width="1.17" height="1.002" transform="translate(1409.061 289.77)" fill="#fdf1e6"/>
              <rect id="Rectángulo_40772" data-name="Rectángulo 40772" width="1.17" height="1.002" transform="translate(1416.117 289.77)" fill="#fdf1e6"/>
            </g>
          </g>
          <g id="Grupo_128385" data-name="Grupo 128385">
            <g id="Grupo_128384" data-name="Grupo 128384">
              <g id="Grupo_128382" data-name="Grupo 128382">
                <rect id="Rectángulo_40773" data-name="Rectángulo 40773" width="8.882" height="9.983" transform="translate(1407.08 299.753)" fill="#f3ac4a"/>
                <rect id="Rectángulo_40774" data-name="Rectángulo 40774" width="4.917" height="9.983" transform="translate(1415.964 299.753)" fill="#f08f3c"/>
              </g>
              <g id="Grupo_128383" data-name="Grupo 128383">
                <rect id="Rectángulo_40775" data-name="Rectángulo 40775" width="1.17" height="1.002" transform="translate(1410.936 299.753)" fill="#fdf1e6"/>
                <rect id="Rectángulo_40776" data-name="Rectángulo 40776" width="1.17" height="1.002" transform="translate(1417.992 299.753)" fill="#fdf1e6"/>
              </g>
            </g>
            <path id="Trazado_188070" data-name="Trazado 188070" d="M1407.08,299.753h7.009l-7.009,1.863Z" fill="#f08f3c" opacity="0.54" style="isolation: isolate"/>
          </g>
        </g>
        <path id="Trazado_188071" data-name="Trazado 188071" d="M1424.569,297.57l1.384,5.259-4.346.758-.451-5Z" fill="#cbe2f7"/>
        <g id="Grupo_128389" data-name="Grupo 128389">
          <g id="Grupo_128388" data-name="Grupo 128388">
            <path id="Trazado_188072" data-name="Trazado 188072" d="M1425.67,302.865l.527,2a2.071,2.071,0,0,1,.034.9h0a2,2,0,0,1-1.265,1.526l-7.812,2.882-1.061-1.407,7.222-3.873-.576-1.527Z" fill="#f4d2c6"/>
            <g id="Grupo_129308" data-name="Grupo 129308">
              <g id="Grupo_129307" data-name="Grupo 129307" clip-path="url(#clip-path-6)">
                <g id="Grupo_128387" data-name="Grupo 128387">
                  <path id="Trazado_188073" data-name="Trazado 188073" d="M1422.878,304.838a11.315,11.315,0,0,0,3.077-1.6l-.232-.749-3.4.719Z" fill="#eda19d"/>
                </g>
              </g>
            </g>
          </g>
          <path id="Trazado_188075" data-name="Trazado 188075" d="M1416.191,308.723s-2.122-.664-2.122-.6a1.567,1.567,0,0,0,.416.7,1.363,1.363,0,0,0,.256.114c-.469.273-1.188.8-1.188.8a8.689,8.689,0,0,0,2.012.8,9.527,9.527,0,0,0,1.592-.359S1416.691,308.823,1416.191,308.723Z" fill="#f4d2c6"/>
        </g>
        <g id="Grupo_128390" data-name="Grupo 128390">
          <path id="Trazado_188076" data-name="Trazado 188076" d="M1420.352,294.455l.35.8a.66.66,0,0,0,.706.395,2.183,2.183,0,0,0,1.2-.6l-.46-.288Z" fill="#fff"/>
          <path id="Trazado_188077" data-name="Trazado 188077" d="M1420.352,294.454l-.786.446a.229.229,0,0,1-.336-.242.744.744,0,0,1,.044-.153A2.72,2.72,0,0,1,1420.352,294.454Z" fill="#fff"/>
        </g>
      </g>
      <g id="Grupo_128386-2" data-name="Grupo 128386">
        <g id="Grupo_128381-2" data-name="Grupo 128381">
          <g id="Grupo_128379-2" data-name="Grupo 128379">
            <rect id="Rectángulo_40769-2" data-name="Rectángulo 40769" width="11.357" height="12.765" transform="translate(1381.712 311.967)" fill="#f3ac4a"/>
            <rect id="Rectángulo_40770-2" data-name="Rectángulo 40770" width="6.287" height="12.765" transform="translate(1393.072 311.967)" fill="#f08f3c"/>
          </g>
          <g id="Grupo_128380-2" data-name="Grupo 128380">
            <rect id="Rectángulo_40771-2" data-name="Rectángulo 40771" width="1.496" height="1.281" transform="translate(1386.643 311.967)" fill="#fdf1e6"/>
            <rect id="Rectángulo_40772-2" data-name="Rectángulo 40772" width="1.496" height="1.281" transform="translate(1395.665 311.967)" fill="#fdf1e6"/>
          </g>
        </g>
        <g id="Grupo_128385-2" data-name="Grupo 128385">
          <g id="Grupo_128384-2" data-name="Grupo 128384">
            <g id="Grupo_128382-2" data-name="Grupo 128382">
              <rect id="Rectángulo_40773-2" data-name="Rectángulo 40773" width="11.357" height="12.765" transform="translate(1384.11 324.732)" fill="#f3ac4a"/>
              <rect id="Rectángulo_40774-2" data-name="Rectángulo 40774" width="6.287" height="12.765" transform="translate(1395.469 324.732)" fill="#f08f3c"/>
            </g>
            <g id="Grupo_128383-2" data-name="Grupo 128383">
              <rect id="Rectángulo_40775-2" data-name="Rectángulo 40775" width="1.496" height="1.281" transform="translate(1389.04 324.732)" fill="#fdf1e6"/>
              <rect id="Rectángulo_40776-2" data-name="Rectángulo 40776" width="1.496" height="1.281" transform="translate(1398.063 324.732)" fill="#fdf1e6"/>
            </g>
          </g>
          <path id="Trazado_188070-2" data-name="Trazado 188070" d="M1384.11,324.732h8.962l-8.962,2.382Z" fill="#f08f3c" opacity="0.54" style="isolation: isolate"/>
        </g>
      </g>
      <g id="Grupo_128408" data-name="Grupo 128408">
        <path id="Trazado_188079" data-name="Trazado 188079" d="M1387.53,293.2l1.9-.7,5.033-4.249,2.311-.1-6.022,5.376-2.5,1.23Z" fill="#eda19d"/>
        <g id="Grupo_128396" data-name="Grupo 128396">
          <path id="Trazado_188080" data-name="Trazado 188080" d="M1374.811,334.1l-.118.784,1.664,1.9a.78.78,0,0,1,.123.83h0l-4.282-2.035,1.167-2.169Z" fill="#617e9b"/>
          <path id="Trazado_188081" data-name="Trazado 188081" d="M1385.683,335.141l.211.764,2.283,1.009a.763.763,0,0,1,.448.7h-4.715l.179-2.473Z" fill="#617e9b"/>
        </g>
        <g id="Grupo_128400" data-name="Grupo 128400">
          <path id="Trazado_188082" data-name="Trazado 188082" d="M1383.31,288.309a2.887,2.887,0,0,1,.888,1.515,2.463,2.463,0,0,1-.026.6l-1.226-1.556Z" fill="#1a1949"/>
          <g id="Grupo_128399" data-name="Grupo 128399">
            <g id="Grupo_128398" data-name="Grupo 128398">
              <path id="Trazado_188102" data-name="Trazado 188102" d="M1381.2,288.208a2.626,2.626,0,0,1,2.97,2.219,2.723,2.723,0,0,1-1.536,3.434,2.627,2.627,0,0,1-2.971-2.219A2.723,2.723,0,0,1,1381.2,288.208Z" fill="#f4d2c6"/>
              <g id="Grupo_129310" data-name="Grupo 129310">
                <g id="Grupo_129309" data-name="Grupo 129309" clip-path="url(#clip-path-7)">
                  <g id="Grupo_128397" data-name="Grupo 128397">
                    <path id="Trazado_188083" data-name="Trazado 188083" d="M1383.936,289.5s-2.326,1.523-3.514.506h0l2.745-1.478Z" fill="#eda19d"/>
                  </g>
                </g>
              </g>
            </g>
            <path id="Trazado_188084" data-name="Trazado 188084" d="M1379.62,291.455s1.329,4.307,1.211,5.721a5.393,5.393,0,0,0,2.786-.752s-1.818-3.492-1.865-4.393Z" fill="#f4d2c6"/>
          </g>
          <path id="Trazado_188085" data-name="Trazado 188085" d="M1382.4,293.909a2.018,2.018,0,0,1-1.246-.237,1.42,1.42,0,0,0,1.553.913Z" fill="#eda19d"/>
          <path id="Trazado_188086" data-name="Trazado 188086" d="M1383.307,288.868a7.944,7.944,0,0,1-2.552,1.113,2.112,2.112,0,0,1-1.4-.171s-.8-.911-.242-1.476a21.092,21.092,0,0,1,3.85-1.78S1383.77,288.167,1383.307,288.868Z" fill="#59445a"/>
          <path id="Trazado_188087" data-name="Trazado 188087" d="M1380.17,289.336a5.475,5.475,0,0,1,.574,1.872,14.315,14.315,0,0,1-.637,1.948,8.475,8.475,0,0,1-1.62-2.186,3.325,3.325,0,0,1,.511-1.739Z" fill="#59445a"/>
          <path id="Trazado_188088" data-name="Trazado 188088" d="M1379.664,291.839a.594.594,0,0,0,.714.441l.011,0a.615.615,0,0,0,.424-.748.592.592,0,0,0-.714-.44l-.011,0A.616.616,0,0,0,1379.664,291.839Z" fill="#f4d2c6"/>
        </g>
        <g id="Grupo_128403" data-name="Grupo 128403">
          <g id="Grupo_128401" data-name="Grupo 128401">
            <path id="Trazado_188104" data-name="Trazado 188104" d="M1393.648,278.3l8.876-.347.366,9.976-8.875.347Z" fill="#f3ac4a"/>
            <path id="Trazado_188105" data-name="Trazado 188105" d="M1402.525,277.95l4.912-.193.369,9.972-4.913.193Z" fill="#f08f3c"/>
          </g>
          <g id="Grupo_128402" data-name="Grupo 128402">
            <path id="Trazado_188106" data-name="Trazado 188106" d="M1397.5,278.144l1.17-.044.037,1-1.169.044Z" fill="#fdf1e6"/>
            <path id="Trazado_188107" data-name="Trazado 188107" d="M1404.551,277.868l1.169-.045.038,1-1.169.045Z" fill="#fdf1e6"/>
          </g>
        </g>
        <g id="Grupo_128406" data-name="Grupo 128406">
          <g id="Grupo_128405" data-name="Grupo 128405">
            <path id="Trazado_188089" data-name="Trazado 188089" d="M1387.755,293.715l1.833-.811,8.185-5.47.763,1.444-6.833,6.508-2.56,1.318Z" fill="#f4d2c6"/>
            <g id="Grupo_129312" data-name="Grupo 129312">
              <g id="Grupo_129311" data-name="Grupo 129311" clip-path="url(#clip-path-8)">
                <g id="Grupo_128404" data-name="Grupo 128404">
                  <path id="Trazado_188090" data-name="Trazado 188090" d="M1388.005,293.247l3.59,2.447-2.916,1.511-1.333-3.444Z" fill="#eda19d"/>
                </g>
              </g>
            </g>
          </g>
          <path id="Trazado_188092" data-name="Trazado 188092" d="M1397.777,287.434s1.48-1.89,1.865-1.619c.177.124-.544,1.067-.386,1.175s2.721-.887,2.732-.578a4.135,4.135,0,0,1-.576,1.735,14.729,14.729,0,0,1-2.873.731Z" fill="#f4d2c6"/>
        </g>
        <path id="Trazado_188093" data-name="Trazado 188093" d="M1378.374,307.408l-1.7,15.206-3.891,11.228,2.176.915,5.946-9.393a7.864,7.864,0,0,0,1.022-2.088l3.079-9.679Z" fill="#c8cace"/>
        <path id="Trazado_188094" data-name="Trazado 188094" d="M1387,313.653l-.619-12.417h-7.2l-.7,5.224a14.962,14.962,0,0,0,.886,7.507c.037.093.075.186.113.278l2.092,4.99.609,2.493,1.592,13.413h2.158l1.576-14.177-.5-7.311Z" fill="#fff"/>
        <path id="Trazado_188095" data-name="Trazado 188095" d="M1379.176,301.236l.184-2.612a3.5,3.5,0,0,1,3.256-3.317h.136a3.4,3.4,0,0,1,3.369,2.8l.257,3.126Z" fill="#cbe2f7"/>
        <path id="Trazado_188096" data-name="Trazado 188096" d="M1381.36,295.661l6.05-2.721,2.017,4.343-4.833,2.565Z" fill="#cbe2f7"/>
        <path id="Trazado_188097" data-name="Trazado 188097" d="M1380.007,301.407s-.908-4.771,1.558-5.877c0,0-2.988.343-2.389,5.706Z" fill="#fff"/>
        <path id="Trazado_188098" data-name="Trazado 188098" d="M1386.194,299l-2.242,1.117,2.426,1.119Z" fill="#9dc2ea"/>
        <g id="Grupo_128407" data-name="Grupo 128407">
          <path id="Trazado_188099" data-name="Trazado 188099" d="M1381.063,307.736h3.775l.1,3.384a1.872,1.872,0,0,1-1.785,1.958l-.056,0h0a1.869,1.869,0,0,1-1.839-1.791Z" fill="#c8cace"/>
          <rect id="Rectángulo_40787" data-name="Rectángulo 40787" width="3.755" height="0.147" transform="translate(1381.109 308.48)" fill="#324d90"/>
        </g>
      </g>
      <g id="Grupo_128413" data-name="Grupo 128413">
        <g id="Grupo_128409" data-name="Grupo 128409">
          <rect id="Rectángulo_40788" data-name="Rectángulo 40788" width="11.707" height="8.781" transform="translate(1419.933 325.832)" fill="#f3ac4a"/>
          <rect id="Rectángulo_40789" data-name="Rectángulo 40789" width="1.491" height="1.682" transform="translate(1425.041 325.832)" fill="#fdf1e6"/>
        </g>
        <g id="Grupo_128412" data-name="Grupo 128412">
          <g id="Grupo_128410" data-name="Grupo 128410">
            <path id="Trazado_188100" data-name="Trazado 188100" d="M1434.852,300.3h-2.875a.552.552,0,0,0-.552.552h0v33.587h-11.207a.731.731,0,0,0-.73.731h0a.732.732,0,0,0,.73.731H1432v-34.98h2.859Z" fill="#94b2ed"/>
            <path id="Rectángulo_40790" data-name="Rectángulo 40790" d="M1433.927,299.98h3.058a.634.634,0,0,1,.635.634h0a.635.635,0,0,1-.635.635h-3.058a.635.635,0,0,1-.635-.635h0A.635.635,0,0,1,1433.927,299.98Z" fill="#617e9b"/>
          </g>
          <g id="Grupo_128411" data-name="Grupo 128411">
            <circle id="Elipse_5073" data-name="Elipse 5073" cx="2.585" cy="2.585" r="2.585" transform="translate(1429.051 332.544)" fill="#617e9b"/>
            <circle id="Elipse_5074" data-name="Elipse 5074" cx="1.037" cy="1.037" r="1.037" transform="translate(1430.599 334.092)" fill="#324d90"/>
          </g>
        </g>
      </g>
      <path id="Trazado_188101" data-name="Trazado 188101" d="M1373.784,337.715c20.966-.134,42.869-.135,63.835,0-20.966.135-42.869.134-63.835,0Z" fill="#152e60"/>
    </g>
  </g>
</svg>
