<svg xmlns="http://www.w3.org/2000/svg" width="60.85" height="76.377" viewBox="0 0 60.85 76.377">
  <g id="Grupo_129601" data-name="Grupo 129601" transform="translate(-329.15 -3587)">
    <g id="Grupo_129315" data-name="Grupo 129315" transform="translate(-58.355 3328.926)">
      <path id="Trazado_189201" data-name="Trazado 189201" d="M395.022,334.451a3.529,3.529,0,0,1-2.3-2.4,5.35,5.35,0,0,1-.086-1.259q0-22.1.013-44.2c0-.63-.115-.816-.789-.815a4.108,4.108,0,0,1-4.345-4.345q-.026-5.367,0-10.734a4.1,4.1,0,0,1,4.428-4.4c.618.006.721-.2.7-.744-.038-1.216-.012-2.435-.012-3.652,0-2.217.544-3.038,2.535-3.826h36.392a14.35,14.35,0,0,1,5.466,1.271,18.606,18.606,0,0,1,11.145,14.312,13.121,13.121,0,0,1,.17,2.375q-.008,18.044,0,36.088c0,.348.006.7-.011,1.044a1.259,1.259,0,0,1-.984,1.321,1.371,1.371,0,0,1-1.656-1.367,8.559,8.559,0,0,1-.036-1.191c0-11.478-.04-22.957.027-34.435a6.331,6.331,0,0,0-5.746-6.215c-.5.014-.993,0-1.49-.006a3.381,3.381,0,0,1-3.394-3.491,8.066,8.066,0,0,0-.521-3.366,6.274,6.274,0,0,0-5.865-3.87c-2.757-.023-5.514-.005-8.271-.006q-11.885,0-23.771,0c-1.331,0-1.512.181-1.519,1.5-.006.919,0,1.838,0,2.758,0,1.254,0,1.256,1.225,1.256,4.223,0,8.445,0,12.668,0a4.308,4.308,0,0,1,3.861,2.122,3.794,3.794,0,0,1,.588,2.05c0,1.838.023,3.677-.006,5.515a4.188,4.188,0,0,1-3.976,4.162c-1.437.085-2.881.054-4.321.007-.953-.031-1.364-.455-1.5-1.41a1.426,1.426,0,0,1,1.587-1.251c1.141-.037,2.284,0,3.426-.015,1.557-.02,2.089-.562,2.095-2.129.005-1.44.008-2.881,0-4.321s-.6-2.032-2.052-2.035c-4.867-.012-9.733,0-14.6,0-.745,0-1.49-.022-2.234.01a1.685,1.685,0,0,0-1.828,1.878c-.014,2.061.007,4.123-.011,6.184,0,.531.146.739.7.565a5.527,5.527,0,0,1,1.7-.144c2.309,0,4.619-.018,6.927.01,1.055.013,1.456.356,1.674,1.321a1.4,1.4,0,0,1-1.555,1.361c-1.142.046-2.285,0-3.428.019-.831.012-.9.081-.921.886-.009.273,0,.547,0,.82q0,24.039,0,48.077a4.429,4.429,0,0,1-.012.521c0,.074-.01.149-.007.223.058,1.328.219,1.494,1.548,1.495q23.778.006,47.556,0c1.316,0,1.438-.128,1.44-1.467q.005-5.4,0-10.81a6.519,6.519,0,0,1,.048-1.116A1.5,1.5,0,0,1,447,317.17c.977.161,1.326.5,1.331,1.456.022,4.318.036,8.637-.005,12.955-.014,1.516-.921,2.458-2.6,2.87Z"/>
      <path id="Trazado_189202" data-name="Trazado 189202" d="M433.393,287.523c.2.933.483,1.181,1.4,1.185,1.317.006,2.634.015,3.951,0a4.046,4.046,0,0,0,4.1-3.967c.063-1.837.064-3.679,0-5.516a4.048,4.048,0,0,0-4.128-3.944q-6.783-.027-13.566.007c-.54,0-.717-.1-.7-.678.049-1.39.01-2.783.018-4.175.005-.825.3-1.125,1.12-1.125,10.958,0,21.915-.019,32.873.011a6.251,6.251,0,0,1,6.3,6.532c-.074,2.772,1.374,4.5,4.3,4.187a2.443,2.443,0,0,1,.444.031,1,1,0,0,1,.94.807,9.154,9.154,0,0,1,.483,2.626c0,3.227.007,6.453-.006,9.679,0,.4.107.867-.374,1.12-2.874-.291-5.756-.128-8.634-.135q-15.132-.034-30.265-.009c-.323,0-.646-.01-.969.01a2.3,2.3,0,0,0-2.212,2.042,7.264,7.264,0,0,0-.038,1.042q0,18.453,0,36.906a3.778,3.778,0,0,0,.13,1.4,2.439,2.439,0,0,0,2.033,1.646,7.958,7.958,0,0,0,1.117.029q14.909,0,29.818,0a2.322,2.322,0,0,1,1.379.189c.1.412-.245.508-.486.62a15.451,15.451,0,0,1-5.288,1.452c-2.976.244-5.957.141-8.936.146q-11.18.02-22.36,0c-.47,0-1.018.162-1.352-.377-.008-.248-.023-.5-.023-.743q0-24.478-.02-48.956c0-.723.167-.917.885-.878,1.238.067,2.483.023,3.724.017.918,0,1.2-.252,1.4-1.185A3.759,3.759,0,0,1,433.393,287.523Z" transform="translate(-29.596 -8.993)" fill="#f8f5f8"/>
      <path id="Trazado_189203" data-name="Trazado 189203" d="M424.566,382.631a1.393,1.393,0,0,0,.865.148c9.892,0,19.784.03,29.675-.019a15.282,15.282,0,0,0,7.914-1.894c.289-.324.683-.254,1.046-.257,1.59-.012,3.18,0,4.77-.008,1.865-.014,2.746-.89,2.747-2.742q.006-18.824.006-37.647a2.763,2.763,0,0,0-.763-2.178.443.443,0,0,1-.179-.46c.218-.232.125-.52.125-.782.007-3.177-.012-6.354.014-9.531a10.647,10.647,0,0,0-.48-2.986,1.051,1.051,0,0,0-.72-.841,6.4,6.4,0,0,1,5.971,5.712c.037.47.043.943.043,1.414q0,17.286,0,34.572c0,1.225.312,1.559,1.438,1.567a.735.735,0,0,0-.3.692c.02.758.006,1.517.005,2.276-.951.308-1.138.551-1.139,1.553q-.006,6,0,12c0,1.139-.214,1.351-1.342,1.351H426.416C424.555,384.569,424.473,384.483,424.566,382.631Z" transform="translate(-29.668 -52.356)" fill="#eeebee"/>
      <path id="Trazado_189204" data-name="Trazado 189204" d="M412.8,320.57h-2.934a1.294,1.294,0,0,0-1.474-1.058c-2.509.019-5.017.013-7.526,0a5.519,5.519,0,0,0-2.019.408,1.254,1.254,0,0,1-.09-.747c-.006-2.161-.014-4.323,0-6.484a1.907,1.907,0,0,1,2.108-2.132q8.532-.009,17.065,0a1.9,1.9,0,0,1,2.1,2.062q.035,2.422,0,4.844a1.888,1.888,0,0,1-2.11,2.051c-1.217.009-2.435.02-3.651-.005A1.286,1.286,0,0,0,412.8,320.57Z" transform="translate(-9.001 -42.04)" fill="#f1bdae"/>
      <path id="Trazado_189205" data-name="Trazado 189205" d="M638.964,284.761a9.184,9.184,0,0,0-6-1.755c-1,.037-1.266-.257-1.245-1.3a9.148,9.148,0,0,0-1.728-5.895C632.808,276.105,637.894,281.126,638.964,284.761Z" transform="translate(-194.248 -14.211)" fill="#e1dee1"/>
      <path id="Trazado_189206" data-name="Trazado 189206" d="M401.729,368.547a8.387,8.387,0,0,0,.009,1.114c.092.679-.153.9-.839.844a1.951,1.951,0,0,1-2.025-2.211,2.114,2.114,0,0,1,2.577-1.65c.294.056.277.219.278.416C401.73,367.556,401.729,368.051,401.729,368.547Z" transform="translate(-9.093 -86.937)" fill="#f1bdae"/>
      <path id="Trazado_189207" data-name="Trazado 189207" d="M485.662,393.123a3.074,3.074,0,0,1,1.237,2.71q-.028,18.747-.013,37.493c0,2.086-.973,3.059-3.041,3.064q-2.906.008-5.811.025c-.273-.009-.546-.025-.818-.025h-30.87c-2.069,0-3.06-.989-3.061-3.055q0-18.757,0-37.513c0-2.072.973-3.039,3.065-3.039q18.753,0,37.506,0A3.953,3.953,0,0,1,485.662,393.123Z" transform="translate(-44.684 -107.906)"/>
      <path id="Trazado_189208" data-name="Trazado 189208" d="M550.336,410.2a1.2,1.2,0,0,0-1.39-1.047c-.448.042-.536-.158-.53-.558.019-1.341.022-2.682,0-4.023-.008-.433.148-.548.56-.546q4.022.022,8.044,0c.385,0,.519.113.513.507-.02,1.365-.025,2.732,0,4.1.009.449-.169.537-.567.524-.769-.025-1.539.009-2.308-.012a1.211,1.211,0,0,0-1.383,1.056.676.676,0,0,1-.232.15A6.044,6.044,0,0,1,550.336,410.2Z" transform="translate(-128.898 -116.915)" fill="#d84318"/>
      <path id="Trazado_189209" data-name="Trazado 189209" d="M495.969,409.138c-1.315,0-2.63-.013-3.944.008-.418.007-.63-.053-.617-.554.034-1.339.026-2.679,0-4.019-.007-.42.122-.559.548-.556q4.018.024,8.037,0c.443,0,.536.164.531.564-.02,1.339-.022,2.68,0,4.019.007.418-.114.556-.541.548C498.648,409.122,497.309,409.138,495.969,409.138Z" transform="translate(-83.233 -116.909)" fill="#d84318"/>
      <path id="Trazado_189210" data-name="Trazado 189210" d="M609.941,409.134c-1.315,0-2.63-.017-3.944.01-.445.009-.606-.106-.6-.576.03-1.314.024-2.63,0-3.945-.007-.43.088-.616.57-.612,2.629.021,5.259.017,7.889,0,.479,0,.663.174.656.654-.018,1.315-.023,2.63,0,3.945.009.443-.159.535-.562.529C612.62,409.121,611.281,409.134,609.941,409.134Z" transform="translate(-174.548 -116.904)" fill="#d84318"/>
      <path id="Trazado_189211" data-name="Trazado 189211" d="M553.153,435.057l.129-.006c.182.912.491,1.177,1.4,1.184.795.007,1.59.016,2.383-.005.347-.009.478.088.472.455-.02,1.216-.017,2.434,0,3.65,0,.356-.12.474-.474.473q-4.06-.015-8.12,0c-.378,0-.528-.107-.521-.507q.032-1.787,0-3.576c-.008-.4.13-.527.513-.494a1.222,1.222,0,0,0,1.406-1.035,12.182,12.182,0,0,1,2.024-.073A1.836,1.836,0,0,0,553.153,435.057Z" transform="translate(-128.905 -141.77)" fill="#f1bdae"/>
      <path id="Trazado_189212" data-name="Trazado 189212" d="M495.969,509.333c1.339,0,2.679.015,4.018-.009.42-.007.559.118.549.544-.025,1.165-.021,2.332,0,3.5.007.4-.077.568-.528.565q-4.018-.03-8.037,0c-.419,0-.562-.115-.552-.543.025-1.165.031-2.333,0-3.5-.014-.487.182-.571.609-.563C493.34,509.347,494.654,509.333,495.969,509.333Z" transform="translate(-83.239 -201.267)" fill="#f1bdae"/>
      <path id="Trazado_189213" data-name="Trazado 189213" d="M552.991,577.724c1.314,0,2.628.014,3.942-.008.428-.007.624.082.611.566-.032,1.165-.017,2.331-.006,3.5,0,.339-.023.536-.467.533-2.727-.022-5.454-.017-8.181,0-.359,0-.47-.114-.464-.468.018-1.19.022-2.381,0-3.57-.008-.423.13-.559.552-.552C550.314,577.737,551.653,577.724,552.991,577.724Z" transform="translate(-128.905 -256.053)" fill="#f1bdae"/>
      <path id="Trazado_189214" data-name="Trazado 189214" d="M495.923,582.3c-1.289,0-2.579-.027-3.867.013-.538.017-.665-.16-.647-.669.038-1.115.033-2.232,0-3.347-.013-.47.155-.584.6-.582q3.979.026,7.958,0c.407,0,.573.1.563.536q-.039,1.784,0,3.57c.009.413-.148.489-.517.484C498.651,582.288,497.287,582.3,495.923,582.3Z" transform="translate(-83.232 -256.052)" fill="#f1bdae"/>
      <path id="Trazado_189215" data-name="Trazado 189215" d="M496,445.543c-1.317,0-2.634-.017-3.95.009-.467.009-.662-.1-.644-.615.039-1.142.03-2.286,0-3.428-.01-.428.129-.544.548-.541q4.024.026,8.049,0c.36,0,.532.06.522.48q-.041,1.788,0,3.577c.011.462-.192.526-.579.521C498.635,445.533,497.318,445.543,496,445.543Z" transform="translate(-83.231 -146.509)" fill="#f1bdae"/>
      <path id="Trazado_189216" data-name="Trazado 189216" d="M609.926,445.542c-1.316,0-2.633-.013-3.949.007-.412.006-.57-.112-.56-.546.026-1.167.019-2.335,0-3.5,0-.356.05-.537.478-.534q4.1.027,8.2,0c.389,0,.442.162.438.488-.014,1.167-.025,2.336,0,3.5.011.456-.123.6-.587.594C612.609,445.524,611.267,445.542,609.926,445.542Z" transform="translate(-174.56 -146.509)" fill="#f1bdae"/>
      <path id="Trazado_189217" data-name="Trazado 189217" d="M609.924,513.924c-1.314,0-2.629-.013-3.943.008-.406.006-.573-.094-.564-.533.026-1.19.022-2.381,0-3.571-.007-.4.147-.5.522-.5q4.017.019,8.034,0c.408,0,.57.095.56.533-.027,1.19-.023,2.381,0,3.571.007.4-.14.5-.519.5C612.652,513.913,611.288,513.924,609.924,513.924Z" transform="translate(-174.561 -201.271)" fill="#f1bdae"/>
      <path id="Trazado_189218" data-name="Trazado 189218" d="M553.016,509.341c1.314,0,2.629.011,3.943-.007.384,0,.589.052.578.514-.029,1.19-.021,2.381,0,3.571.006.375-.1.519-.5.517q-4.055-.023-8.109,0c-.4,0-.512-.132-.506-.515.019-1.19.026-2.382,0-3.571-.011-.464.2-.52.581-.515C550.338,509.351,551.677,509.341,553.016,509.341Z" transform="translate(-128.9 -201.275)" fill="#f1bdae"/>
      <path id="Trazado_189219" data-name="Trazado 189219" d="M609.941,548.182c-1.315,0-2.629-.018-3.943.01-.46.01-.6-.14-.586-.593.028-1.14.026-2.282,0-3.423-.01-.424.124-.548.547-.545q4.018.026,8.036,0c.427,0,.545.131.536.546-.026,1.116-.034,2.233,0,3.348.017.51-.113.686-.65.67C612.571,548.155,611.256,548.182,609.941,548.182Z" transform="translate(-174.557 -228.748)" fill="#f1bdae"/>
      <path id="Trazado_189220" data-name="Trazado 189220" d="M553,543.645c1.339,0,2.679.012,4.018-.008.374-.005.524.082.516.49q-.038,1.785,0,3.572c.008.4-.141.5-.517.495q-4.018-.019-8.036,0c-.4,0-.576-.092-.565-.535.027-1.165.029-2.332,0-3.5-.012-.454.174-.53.568-.524C550.321,543.656,551.661,543.645,553,543.645Z" transform="translate(-128.897 -228.754)" fill="#f1bdae"/>
      <path id="Trazado_189221" data-name="Trazado 189221" d="M495.959,548.185c-1.315,0-2.63-.016-3.944.009-.44.008-.617-.1-.6-.576.033-1.14.036-2.283,0-3.423-.016-.493.181-.564.608-.561q3.981.025,7.962,0c.407,0,.563.091.552.53q-.044,1.748,0,3.5c.011.44-.15.538-.556.532C498.638,548.171,497.3,548.185,495.959,548.185Z" transform="translate(-83.235 -228.751)" fill="#f1bdae"/>
      <path id="Trazado_189222" data-name="Trazado 189222" d="M496,479.741c-1.341,0-2.681-.013-4.022.008-.406.006-.571-.09-.559-.534.029-1.166.027-2.334,0-3.5-.01-.442.166-.539.568-.537q4.022.019,8.043,0c.391,0,.513.119.506.508-.021,1.191-.024,2.384,0,3.575.009.41-.147.493-.517.488C498.684,479.731,497.343,479.741,496,479.741Z" transform="translate(-83.243 -173.913)" fill="#f1bdae"/>
      <path id="Trazado_189223" data-name="Trazado 189223" d="M552.988,479.739c-1.34,0-2.681-.015-4.021.009-.425.008-.555-.125-.546-.547.025-1.166.02-2.334,0-3.5-.006-.378.105-.527.5-.525q4.059.019,8.117,0c.407,0,.5.148.494.521-.019,1.167-.034,2.335.006,3.5.018.5-.193.558-.609.551C555.62,479.726,554.3,479.739,552.988,479.739Z" transform="translate(-128.903 -173.911)" fill="#f1bdae"/>
      <path id="Trazado_189224" data-name="Trazado 189224" d="M609.961,479.745c-1.315,0-2.631-.014-3.947.008-.419.007-.631-.052-.615-.555.037-1.166.024-2.334.005-3.5-.006-.386.121-.519.511-.517q4.058.019,8.117,0c.335,0,.492.077.486.452-.019,1.216-.025,2.433,0,3.649.01.438-.2.469-.539.466C612.642,479.737,611.3,479.745,609.961,479.745Z" transform="translate(-174.546 -173.916)" fill="#f1bdae"/>
      <path id="Trazado_189225" data-name="Trazado 189225" d="M611.015,582.355c-1.709.008-3.419.018-5.128.021-.2,0-.5.085-.487-.274a32.044,32.044,0,0,1,.1-4.2,12.312,12.312,0,0,1,2.289-.064c1.957-.015,3.914,0,5.871-.01.436,0,.75.12.5.584A9.051,9.051,0,0,1,611.015,582.355Z" transform="translate(-174.528 -256.132)" fill="#f1bdae"/>
      <path id="Trazado_189226" data-name="Trazado 189226" d="M459.627,406.637c0,.694-.01,1.389,0,2.083.007.314-.1.437-.426.435q-2.157-.019-4.314,0c-.3,0-.379-.121-.377-.4q.013-2.083,0-4.166c0-.434.223-.555.605-.554,1.339.005,2.678.015,4.016-.006.4-.006.509.151.5.524C459.612,405.248,459.627,405.943,459.627,406.637Z" transform="translate(-53.679 -116.92)" fill="#d84318"/>
      <path id="Trazado_189227" data-name="Trazado 189227" d="M457.071,509.341c.669,0,1.339.014,2.008-.006.355-.01.549.052.541.478-.023,1.215-.017,2.43,0,3.645,0,.347-.1.481-.466.477q-2.12-.025-4.24,0c-.337,0-.418-.135-.415-.441.011-1.24.017-2.48,0-3.72-.006-.388.169-.446.494-.438C455.682,509.353,456.376,509.341,457.071,509.341Z" transform="translate(-53.662 -201.276)" fill="#d84318"/>
      <path id="Trazado_189228" data-name="Trazado 189228" d="M457.078,440.971c.644,0,1.289.021,1.931-.008.422-.019.623.057.606.555-.039,1.163-.022,2.328-.007,3.492,0,.359-.068.544-.486.538-1.386-.02-2.773-.015-4.16,0-.34,0-.484-.086-.478-.457.02-1.213.024-2.427,0-3.64-.009-.412.147-.5.516-.484C455.691,440.989,456.385,440.971,457.078,440.971Z" transform="translate(-53.653 -146.504)" fill="#d84318"/>
      <path id="Trazado_189229" data-name="Trazado 189229" d="M457.014,577.708c.671,0,1.343.018,2.013-.007.4-.015.582.085.572.533-.027,1.193-.019,2.386,0,3.579,0,.341-.077.485-.453.48q-2.012-.029-4.026,0c-.493.007-.652-.205-.644-.674.019-1.119.032-2.238-.006-3.355-.017-.5.181-.581.609-.562C455.721,577.729,456.368,577.708,457.014,577.708Z" transform="translate(-53.64 -256.038)" fill="#d84318"/>
      <path id="Trazado_189230" data-name="Trazado 189230" d="M457.032,543.645c.669,0,1.339.018,2.008-.007.39-.014.581.062.57.518-.03,1.165-.027,2.331,0,3.5.01.431-.141.547-.554.541q-2.008-.032-4.016,0c-.4.006-.57-.079-.559-.526.03-1.19.022-2.381,0-3.57-.006-.363.118-.47.468-.458C455.643,543.66,456.338,543.645,457.032,543.645Z" transform="translate(-53.65 -228.753)" fill="#d84318"/>
      <path id="Trazado_189231" data-name="Trazado 189231" d="M456.995,479.744c-.67,0-1.341-.022-2.01.009-.4.018-.5-.128-.495-.51q.033-1.75,0-3.5c-.007-.4.083-.57.526-.561,1.365.026,2.73.022,4.1,0,.4-.006.51.136.5.518-.019,1.167-.022,2.334,0,3.5.008.412-.106.571-.538.551C458.386,479.721,457.69,479.745,456.995,479.744Z" transform="translate(-53.658 -173.917)" fill="#d84318"/>
      <path id="Trazado_189232" data-name="Trazado 189232" d="M611.5,582.212a17.09,17.09,0,0,0,2.868-3.762c.312-.564.208-.7-.424-.691-2.654.021-5.308,0-7.962,0,.156-.187.369-.1.555-.1,2.575-.006,5.15.015,7.725-.019.609-.008.751.2.729.762-.041,1.038-.031,2.08,0,3.12.014.55-.192.75-.74.726C613.334,582.2,612.417,582.22,611.5,582.212Z" transform="translate(-175.015 -255.989)" fill="#d84318"/>
      <path id="Trazado_189233" data-name="Trazado 189233" d="M560.884,435.062a11.551,11.551,0,0,1-2.811.141v-.145Z" transform="translate(-136.635 -141.775)" fill="#afefc6"/>
    </g>
  </g>
</svg>
