<svg xmlns="http://www.w3.org/2000/svg" width="87.996" height="91.126" viewBox="0 0 87.996 91.126">
  <g id="Grupo_128173" data-name="Grupo 128173" transform="translate(-2246.044 -1318.873)">
    <path id="Trazado_154883" data-name="Trazado 154883" d="M2292.917,1409.978q-20.02,0-40.041.021c-.806,0-.992-.187-.983-.988.045-4.161.014-8.323.03-12.485a1.575,1.575,0,0,0-.473-1.209,18.936,18.936,0,0,1-.028-26.469,1.773,1.773,0,0,0,.5-1.384c-.008-10.986,0-21.972-.025-32.958,0-.758.166-.965.935-.943,2.016.059,2.017.018,2.017-2,0-1.1.021-2.2-.01-3.3-.012-.444.124-.563.562-.56q5.314.025,10.629,0c.443,0,.566.125.559.564-.025,1.56.012,3.122-.022,4.681-.011.525.148.648.659.654,2.485.031,2.446.044,2.668-2.423.349-3.868.764-7.73,1.133-11.6.05-.522.207-.712.776-.7,2.321.04,4.643.051,6.963,0,.714-.017.92.219.983.886.414,4.384.875,8.763,1.277,13.148.052.573.221.766.756.677a.389.389,0,0,1,.092,0c.75.063,1.748-.335,2.181.162.367.422.116,1.4.117,2.125,0,3.886.014,7.773-.011,11.659,0,.583.124.77.739.76,2.443-.039,4.887,0,7.33-.03.584-.008.777.127.758.743-.048,1.5.005,3-.028,4.5-.011.511.121.676.649.663,1.465-.036,2.933.027,4.4-.03.679-.026.852.146.849.841-.029,7.252-.005,14.505-.037,21.757,0,.753.159.956.932.946,3.42-.048,6.841-.035,10.261-.007.574.005.753-.153.823-.728.625-5.189,1.285-10.375,1.934-15.562.273-2.184.556-4.367.806-6.554.059-.516.214-.7.778-.693q4.994.051,9.987,0c.609-.007.76.217.825.747q.749,6.191,1.531,12.378c.41,3.276.838,6.55,1.224,9.828.056.479.222.586.669.579,1.588-.025,3.177.006,4.764-.019.473-.008.689.052.688.621q-.028,15.561,0,31.121c0,.734-.407.585-.809.585q-14.8,0-29.6,0Z"/>
    <path id="Trazado_154884" data-name="Trazado 154884" d="M2358.378,1540.424c-.147-.293.122-.448.232-.64a17.473,17.473,0,0,0,1.9-4.541c.144-.59.386-.75.98-.748,6.9.023,13.8.015,20.706.015,8.368,0,16.736.009,25.1-.016.7,0,.9.149.9.883q-.049,9.409,0,18.818c0,.7-.151.919-.884.9-2.064-.05-2.065-.014-2.065-2.086,0-3.948-.017-7.9.017-11.842.005-.647-.158-.8-.8-.8q-5.084.052-10.169,0c-.651-.007-.8.168-.793.8.03,4.375,0,8.751.032,13.127.005.656-.172.814-.806.792q-2.2-.075-4.4,0c-.591.019-.694-.175-.691-.719.022-4.376-.008-8.751.033-13.127.007-.748-.223-.883-.908-.876-3.329.035-6.658.043-9.986-.005-.754-.011-.875.235-.87.914.03,4.284-.015,8.568.04,12.852.011.854-.252,1-1.011.964-1.28-.062-2.567-.063-3.846,0-.791.039-1.068-.131-1.057-1.01.054-4.283.01-8.567.04-12.851,0-.65-.1-.877-.825-.868-3.633.049-7.268.03-10.9.035Z" transform="translate(-77.094 -148.037)" fill="#e5e8ec"/>
    <path id="Trazado_154885" data-name="Trazado 154885" d="M2334.145,1440.764c4.093,0,8.185.018,12.278-.018.69-.006.846.17.843.851q-.043,9.456,0,18.911c0,.7-.183.847-.854.84-3.542-.036-7.086-.029-10.628,0-.562,0-.831-.106-1.012-.709a18.8,18.8,0,0,0-13.132-13.238c-.569-.177-.833-.357-.805-1.029.067-1.619.049-3.244.007-4.865-.016-.6.15-.758.75-.754C2325.776,1440.777,2329.96,1440.764,2334.145,1440.764Z" transform="translate(-51.347 -83.673)" fill="#fff59d"/>
    <path id="Trazado_154886" data-name="Trazado 154886" d="M2302.16,1388.315c0-4.129.016-8.258-.016-12.386-.006-.658.184-.8.813-.794q8.012.039,16.025,0c.663,0,.794.2.788.819q-.046,5.092,0,10.184c.008.677-.218.789-.827.78-2.411-.034-4.823,0-7.234-.027-.577-.007-.79.119-.77.743.048,1.5-.007,3,.028,4.495.012.524-.142.675-.663.663-1.495-.034-2.992.021-4.486-.028-.625-.02-.748.2-.741.772.03,2.446,0,4.894.024,7.34.006.571-.1.87-.741.739a3.318,3.318,0,0,0-.64-.019c-1.563-.009-1.563-.009-1.563-1.627Z" transform="translate(-38.516 -38.626)" fill="#d84318"/>
    <path id="Trazado_154887" data-name="Trazado 154887" d="M2274.091,1571.911c6.885,3.966,13.651,3.968,20.527.008,0,2.094.006,4.093,0,6.091,0,.881.3,2.063-.144,2.566-.513.578-1.718.18-2.62.182-5.644.016-11.288-.005-16.932.026-.7,0-.856-.188-.845-.863C2274.115,1577.294,2274.091,1574.666,2274.091,1571.911Z" transform="translate(-19.244 -173.726)" fill="#959ea9"/>
    <path id="Trazado_154888" data-name="Trazado 154888" d="M2467.609,1474.176c-1.68,0-3.359-.011-5.039.007-.451.005-.641-.058-.57-.6.562-4.334,1.111-8.67,1.613-13.012.1-.854.359-1.153,1.269-1.112,1.981.088,3.969.037,5.954.019.431,0,.63.081.689.575q.829,6.826,1.723,13.645c.078.6-.289.476-.6.477C2470.969,1474.179,2469.289,1474.176,2467.609,1474.176Z" transform="translate(-148.258 -96.518)" fill="#d84318"/>
    <path id="Trazado_154889" data-name="Trazado 154889" d="M2390.918,1518.62c-7.511,0-15.022-.011-22.533.017-.719,0-.956-.167-.857-.9.089-.653-.2-1.652.127-1.9.45-.345,1.33-.149,2.025-.15q21.891-.006,43.782-.023c.836,0,1.06.207,1.032,1.038-.065,1.919-.02,1.921-1.961,1.921Z" transform="translate(-83.383 -135.086)" fill="#cbd0d8"/>
    <path id="Trazado_154890" data-name="Trazado 154890" d="M2479.93,1568.521c0-1.741.018-3.482-.011-5.223-.008-.507.124-.682.653-.67q2.285.051,4.572,0c.519-.011.666.138.663.661q-.034,5.222,0,10.445c0,.506-.123.682-.652.67q-2.285-.051-4.572,0c-.519.011-.673-.137-.663-.661C2479.95,1572,2479.93,1570.262,2479.93,1568.521Z" transform="translate(-160.569 -167.352)" fill="#a9b1bc"/>
    <path id="Trazado_154891" data-name="Trazado 154891" d="M2423.8,1568.521c0-1.741.017-3.482-.011-5.223-.009-.507.124-.682.653-.67q2.285.051,4.572,0c.519-.011.666.138.663.661q-.034,5.222,0,10.445c0,.506-.123.682-.653.67q-2.284-.051-4.572,0c-.519.011-.673-.137-.663-.661C2423.815,1572,2423.8,1570.262,2423.8,1568.521Z" transform="translate(-122.028 -167.352)" fill="#a9b1bc"/>
    <path id="Trazado_154892" data-name="Trazado 154892" d="M2373.526,1568.526c0,1.741-.02,3.482.012,5.222.01.529-.161.665-.669.655-1.523-.031-3.048-.034-4.572,0-.537.013-.649-.177-.646-.676q.029-5.223,0-10.445c0-.528.161-.665.668-.655,1.524.031,3.049.034,4.572,0,.537-.013.655.177.647.676C2373.51,1565.044,2373.526,1566.784,2373.526,1568.526Z" transform="translate(-83.49 -167.352)" fill="#a9b1bc"/>
    <path id="Trazado_154893" data-name="Trazado 154893" d="M2294.049,1502.89c-1.679,0-3.358-.02-5.037.011-.569.011-.81-.09-.74-.743.159-1.489.283-2.981.521-4.461.081-.5.252-.705.813-.7q4.487.05,8.975,0c.561-.006.733.2.814.7.244,1.511.374,3.032.523,4.553.055.561-.155.656-.649.65C2297.529,1502.875,2295.789,1502.89,2294.049,1502.89Z" transform="translate(-28.984 -122.293)" fill="#f0f8ff"/>
    <path id="Trazado_154894" data-name="Trazado 154894" d="M2294.115,1525.141c1.71,0,3.42.022,5.128-.013.564-.011.739.127.678.714-.155,1.49-.284,2.98-.514,4.462-.087.56-.306.734-.882.728-2.96-.032-5.922-.036-8.883,0-.616.008-.768-.233-.853-.762-.24-1.481-.367-2.972-.511-4.462-.05-.517.075-.692.617-.682C2290.634,1525.161,2292.375,1525.141,2294.115,1525.141Z" transform="translate(-28.989 -141.607)" fill="#f0f8ff"/>
    <path id="Trazado_154895" data-name="Trazado 154895" d="M2333.618,1340.025a16.062,16.062,0,0,0-1.92.015c-.815.1-.859-.279-.788-.932.367-3.371.724-6.744,1.027-10.122.056-.622.267-.791.822-.718a4.218,4.218,0,0,0,.549,0c1.969,0,1.949,0,2.136,2q.416,4.426.893,8.846c.073.672,0,1.015-.8.923A16.682,16.682,0,0,0,2333.618,1340.025Z" transform="translate(-58.249 -6.439)" fill="#cbd0d8"/>
    <path id="Trazado_154896" data-name="Trazado 154896" d="M2346.868,1424.959c-2.2,0-4.393-.02-6.589.014-.562.009-.71-.135-.711-.705,0-2.247-.027-2.247,2.178-2.247,3.9,0,7.809.016,11.713-.016.639-.005.812.151.8.8-.028,2.155,0,2.155-2.18,2.155Z" transform="translate(-64.21 -70.806)" fill="#fff59d"/>
    <path id="Trazado_154897" data-name="Trazado 154897" d="M2337.292,1502.894c-1.008,0-2.017-.025-3.023.011-.477.017-.612-.136-.638-.608a35.175,35.175,0,0,0-.481-4.65c-.084-.439-.022-.654.521-.642,1.679.036,3.36.025,5.04,0a.713.713,0,0,1,.767.478,17.82,17.82,0,0,1,1.394,4.727c.09.615-.1.713-.647.691C2339.248,1502.866,2338.269,1502.895,2337.292,1502.894Z" transform="translate(-59.781 -122.298)" fill="#f0f8ff"/>
    <path id="Trazado_154898" data-name="Trazado 154898" d="M2259.438,1525.149c.974,0,1.948.019,2.922-.008.463-.013.7.054.722.613a30.806,30.806,0,0,0,.482,4.633c.112.554-.1.658-.6.649-1.643-.029-3.287-.019-4.931,0a.707.707,0,0,1-.784-.444,16.948,16.948,0,0,1-1.419-4.889c-.058-.473.067-.57.506-.558C2257.367,1525.168,2258.4,1525.149,2259.438,1525.149Z" transform="translate(-6.707 -141.615)" fill="#f0f8ff"/>
    <path id="Trazado_154899" data-name="Trazado 154899" d="M2259.374,1502.9c-.974,0-1.948-.021-2.921.009-.481.015-.7-.043-.616-.628a17.353,17.353,0,0,1,1.406-4.8.712.712,0,0,1,.771-.467c1.674.019,3.349.029,5.022,0,.517-.01.622.17.533.628a35.02,35.02,0,0,0-.489,4.724c-.025.45-.186.554-.6.544C2261.444,1502.88,2260.409,1502.9,2259.374,1502.9Z" transform="translate(-6.712 -122.301)" fill="#f0f8ff"/>
    <path id="Trazado_154900" data-name="Trazado 154900" d="M2336.145,1531.03c-.825,0-1.651-.035-2.473.012-.547.032-.606-.2-.522-.642a37.407,37.407,0,0,0,.49-4.742c.024-.393.148-.516.54-.513q3.115.025,6.231,0c.381,0,.529.061.476.5a16.578,16.578,0,0,1-1.452,4.991.647.647,0,0,1-.724.392C2337.856,1531.023,2337,1531.03,2336.145,1531.03Z" transform="translate(-59.782 -141.619)" fill="#f0f8ff"/>
    <path id="Trazado_154901" data-name="Trazado 154901" d="M2351.905,1553.34c-.006,4.611-.026,9.221,0,13.831,0,.65-.1.882-.824.866-2.123-.047-2.124-.008-2.124-2.113,0-2.809.01-5.619-.01-8.428a1.42,1.42,0,0,1,.479-1.2c.982-.848,1.563-2.046,2.507-2.93Z" transform="translate(-70.647 -160.976)" fill="#e5e8ec"/>
    <path id="Trazado_154902" data-name="Trazado 154902" d="M2292.88,1474.768a12.516,12.516,0,0,1,2.483-4.8c1.3-1.4,2.5-1.386,3.822.011a11.912,11.912,0,0,1,2.406,4.792Z" transform="translate(-32.156 -103.016)" fill="#f0f8ff"/>
    <path id="Trazado_154903" data-name="Trazado 154903" d="M2301.661,1553.487a12.82,12.82,0,0,1-2.438,4.725c-1.323,1.458-2.556,1.462-3.879.011a12.8,12.8,0,0,1-2.446-4.736Z" transform="translate(-32.168 -161.077)" fill="#f0f8ff"/>
    <path id="Trazado_154904" data-name="Trazado 154904" d="M2274.118,1456.093c0-1.913.009-3.7-.007-5.5,0-.4.191-.441.51-.44,1.619.009,3.238.016,4.856,0,.414-.005.553.151.505.535a.72.72,0,0,0,0,.092,7.1,7.1,0,0,1-.079,2.631c-.332.755-1.49.6-2.257.925A34.741,34.741,0,0,0,2274.118,1456.093Z" transform="translate(-19.27 -90.132)" fill="#d84318"/>
    <path id="Trazado_154905" data-name="Trazado 154905" d="M2472.324,1443.579c-.946,0-1.893-.02-2.838.009-.452.013-.6-.11-.491-.571.188-.762-.1-1.824.449-2.245.489-.373,1.461-.122,2.22-.128,1.1-.009,2.2.017,3.3-.012.429-.012.585.116.615.551a15.152,15.152,0,0,0,.258,1.906c.091.463-.13.5-.488.495C2474.338,1443.57,2473.331,1443.579,2472.324,1443.579Z" transform="translate(-153.045 -83.55)" fill="#d84318"/>
    <path id="Trazado_154906" data-name="Trazado 154906" d="M2276.952,1396.842c-.764,0-1.529-.029-2.291.01-.5.026-.6-.159-.611-.626-.066-2.323-.08-2.322,2.208-2.322,1.008,0,2.017.029,3.023-.012.535-.022.65.166.659.674.037,2.276.054,2.276-2.164,2.276Z" transform="translate(-19.215 -51.504)" fill="#d84318"/>
    <path id="Trazado_154907" data-name="Trazado 154907" d="M2276.95,1415.591c-.764,0-1.529-.03-2.291.011-.5.026-.6-.167-.608-.63-.065-2.319-.079-2.319,2.21-2.319,1.008,0,2.017.029,3.024-.012.535-.022.646.175.654.677.038,2.273.054,2.273-2.166,2.273Z" transform="translate(-19.216 -64.377)" fill="#d84318"/>
    <path id="Trazado_154908" data-name="Trazado 154908" d="M2277.012,1431.391c.764,0,1.531.047,2.29-.013.727-.058.7.451.57.81-.258.7.756,1.909-.535,2.09a39.037,39.037,0,0,1-4.758.061c-.457.007-.54-.167-.559-.584-.1-2.363-.115-2.363,2.258-2.363Z" transform="translate(-19.185 -77.238)" fill="#d84318"/>
    <path id="Trazado_154909" data-name="Trazado 154909" d="M2286.317,1359.345c-.792,0-1.585-.025-2.376.01-.454.02-.54-.15-.557-.573-.093-2.375-.1-2.375,2.224-2.375,1.005,0,2.012.03,3.016-.012.532-.023.643.165.649.667.03,2.283.046,2.283-2.225,2.283Z" transform="translate(-25.615 -25.76)" fill="#cbd0d8"/>
    <path id="Trazado_154910" data-name="Trazado 154910" d="M2276.99,1378.11c-.305,0-.612.017-.916,0-.66-.045-1.679.3-1.9-.143a6.289,6.289,0,0,1-.143-2.421c-.012-.361.215-.372.478-.371,1.619,0,3.238.01,4.857-.005.378,0,.589.09.531.508a.5.5,0,0,0,0,.092c.108,2.345.108,2.345-2.173,2.345Z" transform="translate(-19.184 -38.648)" fill="#d84318"/>
    <path id="Trazado_154911" data-name="Trazado 154911" d="M2324.252,1472.05a16.253,16.253,0,0,1,6.962,4.9c-1.631,0-3.08-.011-4.529.007-.422,0-.476-.265-.569-.568A20.615,20.615,0,0,0,2324.252,1472.05Z" transform="translate(-53.694 -105.166)" fill="#f0f8ff"/>
    <path id="Trazado_154912" data-name="Trazado 154912" d="M2331.322,1553.28a16.324,16.324,0,0,1-6.939,4.873,21.739,21.739,0,0,0,1.856-4.458.515.515,0,0,1,.594-.421C2328.257,1553.288,2329.681,1553.28,2331.322,1553.28Z" transform="translate(-53.784 -160.931)" fill="#f0f8ff"/>
    <path id="Trazado_154913" data-name="Trazado 154913" d="M2274.2,1472.087a19.552,19.552,0,0,0-1.844,4.345c-.127.452-.349.556-.776.549-1.37-.022-2.741-.008-4.341-.008A16.364,16.364,0,0,1,2274.2,1472.087Z" transform="translate(-14.55 -105.191)" fill="#f0f8ff"/>
    <path id="Trazado_154914" data-name="Trazado 154914" d="M2274.191,1558.182a16.486,16.486,0,0,1-6.937-4.883c1.659,0,3.158,0,4.657,0,.279,0,.351.2.41.41A22.1,22.1,0,0,0,2274.191,1558.182Z" transform="translate(-14.562 -160.947)" fill="#f0f8ff"/>
    <path id="Trazado_154915" data-name="Trazado 154915" d="M2386.4,1489.076c0-1.4,0-1.4,1.441-1.4,1.491,0,1.491,0,1.491,1.536,0,1.4,0,1.4-1.441,1.4C2386.4,1490.612,2386.4,1490.612,2386.4,1489.076Z" transform="translate(-96.362 -115.892)"/>
    <path id="Trazado_154916" data-name="Trazado 154916" d="M2370.62,1489.191c0,1.421,0,1.421-1.423,1.421-1.51,0-1.51,0-1.51-1.517,0-1.421,0-1.421,1.424-1.421C2370.62,1487.674,2370.62,1487.674,2370.62,1489.191Z" transform="translate(-83.515 -115.892)"/>
    <path id="Trazado_154917" data-name="Trazado 154917" d="M2387.821,1471.864c-1.422,0-1.422,0-1.422-1.422,0-1.517,0-1.517,1.51-1.517,1.422,0,1.422,0,1.422,1.422C2389.332,1471.864,2389.332,1471.864,2387.821,1471.864Z" transform="translate(-96.362 -103.021)"/>
    <path id="Trazado_154918" data-name="Trazado 154918" d="M2387.9,1450.178c1.436,0,1.436,0,1.436,1.409,0,1.53,0,1.53-1.5,1.53-1.435,0-1.435,0-1.435-1.408C2386.4,1450.178,2386.4,1450.178,2387.9,1450.178Z" transform="translate(-96.362 -90.149)"/>
    <path id="Trazado_154919" data-name="Trazado 154919" d="M2367.687,1451.563c0-1.385,0-1.385,1.367-1.385,1.565,0,1.565,0,1.565,1.553,0,1.385,0,1.385-1.367,1.385C2367.687,1453.116,2367.687,1453.116,2367.687,1451.563Z" transform="translate(-83.515 -90.149)"/>
    <path id="Trazado_154920" data-name="Trazado 154920" d="M2351.907,1451.569c0,1.547,0,1.547-1.571,1.547-1.362,0-1.362,0-1.362-1.391,0-1.547,0-1.547,1.571-1.547C2351.907,1450.178,2351.907,1450.178,2351.907,1451.569Z" transform="translate(-70.668 -90.149)"/>
    <path id="Trazado_154921" data-name="Trazado 154921" d="M2331.774,1450.178c1.422,0,1.422,0,1.422,1.422,0,1.517,0,1.517-1.51,1.517-1.422,0-1.422,0-1.422-1.421C2330.264,1450.178,2330.264,1450.178,2331.774,1450.178Z" transform="translate(-57.822 -90.149)"/>
    <path id="Trazado_154922" data-name="Trazado 154922" d="M2369.11,1471.864c-1.423,0-1.423,0-1.423-1.422,0-1.517,0-1.517,1.51-1.517,1.422,0,1.422,0,1.422,1.422C2370.62,1471.864,2370.62,1471.864,2369.11,1471.864Z" transform="translate(-83.515 -103.021)"/>
  </g>
</svg>
