<svg xmlns="http://www.w3.org/2000/svg" width="400" height="425" viewBox="0 0 400 425">
  <g id="Grupo_128862" data-name="Grupo 128862" transform="translate(-32.64 -21.147)">
    <ellipse id="Floor" cx="200" cy="104.051" rx="200" ry="104.051" transform="translate(32.64 238.045)" fill="#f0f0f0"/>
    <ellipse id="Shadow" cx="64.065" cy="36.988" rx="64.065" ry="36.988" transform="translate(243.66 273.579)" fill="#e0e0e0"/>
    <ellipse id="Shadow-2" data-name="Shadow" cx="58.888" cy="33.999" rx="58.888" ry="33.999" transform="translate(82.769 316.892)" fill="#e0e0e0"/>
    <path id="Shadow-3" data-name="Shadow" d="M163.975,406.939l101,58.311a2.167,2.167,0,0,0,1.96,0l53.2-30.712a.6.6,0,0,0,0-1.132l-101-58.312a2.167,2.167,0,0,0-1.96,0l-53.2,30.713A.6.6,0,0,0,163.975,406.939Z" transform="translate(-9.162 -28.768)" fill="#e0e0e0"/>
    <g id="Speach_Bubble" data-name="Speach Bubble" transform="translate(174.065 21.147)">
      <g id="Grupo_128782" data-name="Grupo 128782" transform="translate(8.782)">
        <path id="Trazado_188609" data-name="Trazado 188609" d="M262.069,21.394,196.4,59.317a2.24,2.24,0,0,0-1.013,1.755V88.378a2.209,2.209,0,0,0,1.019,1.744l3.629,2.035a2.272,2.272,0,0,0,2.031-.01l65.667-37.923a2.237,2.237,0,0,0,1.013-1.754V25.164a2.209,2.209,0,0,0-1.018-1.744l-3.63-2.035A2.266,2.266,0,0,0,262.069,21.394Z" transform="translate(-195.388 -21.148)" fill="#dec13c"/>
        <path id="Trazado_188610" data-name="Trazado 188610" d="M201.649,91.907V64.6a2.24,2.24,0,0,1,1.013-1.754l65.667-37.923c.559-.323,1.013-.062,1.013.585V52.814a2.237,2.237,0,0,1-1.013,1.754L202.662,92.492C202.1,92.814,201.649,92.553,201.649,91.907Z" transform="translate(-195.981 -21.492)" fill="#dec13c"/>
        <path id="Trazado_188611" data-name="Trazado 188611" d="M202.069,96.219a2.327,2.327,0,0,1-2.033.012l-3.627-2.039a2.2,2.2,0,0,1-1.02-1.741V65.143a2.089,2.089,0,0,1,.323-1.034l5.643,3.222a2.026,2.026,0,0,0-.3,1v27.3C201.056,96.224,201.472,96.564,202.069,96.219Z" transform="translate(-195.388 -25.219)" opacity="0.2"/>
        <path id="Trazado_188612" data-name="Trazado 188612" d="M268.768,24.98c-.08-.511-.5-.692-1-.4L202.1,62.5a2.081,2.081,0,0,0-.716.758l-5.649-3.222a2.03,2.03,0,0,1,.7-.721L262.1,21.392a2.266,2.266,0,0,1,2.031-.009l3.627,2.033A2.239,2.239,0,0,1,268.768,24.98Z" transform="translate(-195.421 -21.147)" fill="#fff" opacity="0.4"/>
      </g>
      <g id="Grupo_128783" data-name="Grupo 128783" transform="translate(0 47.675)">
        <path id="Trazado_188613" data-name="Trazado 188613" d="M191.693,87.353c-.636-.378-5.4-3.061-5.554-3.149a.945.945,0,0,1-.2-1.446l8.62-8.944,5.578,3.17-8.614,8.948A.956.956,0,0,0,191.693,87.353Z" transform="translate(-185.686 -73.814)" fill="#dec13c"/>
        <path id="Trazado_188614" data-name="Trazado 188614" d="M191.693,87.353c-.636-.378-5.4-3.061-5.554-3.149a.945.945,0,0,1-.2-1.446l8.62-8.944,5.578,3.17-8.614,8.948A.956.956,0,0,0,191.693,87.353Z" transform="translate(-185.686 -73.814)" fill="#fff" opacity="0.4"/>
        <path id="Trazado_188615" data-name="Trazado 188615" d="M200.718,77.319,192.1,86.264a.908.908,0,0,0,.579,1.553l8.037-.034Z" transform="translate(-186.268 -74.146)" fill="#dec13c"/>
      </g>
      <g id="Grupo_128784" data-name="Grupo 128784" transform="translate(18.982 20.482)">
        <path id="Trazado_188616" data-name="Trazado 188616" d="M213.258,68.068a.19.19,0,0,1,.253.018.439.439,0,0,1,.107.329v1.457a1.315,1.315,0,0,1-.1.479q-.1.253-.194.451l-1.946,4.286a2.453,2.453,0,0,1,1.086-.177,1.39,1.39,0,0,1,.834.371,2.084,2.084,0,0,1,.533.934,5.179,5.179,0,0,1,.187,1.493,7.665,7.665,0,0,1-.274,2.057,7.99,7.99,0,0,1-.76,1.846,7.769,7.769,0,0,1-1.146,1.545,6.424,6.424,0,0,1-1.434,1.135,4.077,4.077,0,0,1-1.62.6,1.92,1.92,0,0,1-1.147-.21,1.706,1.706,0,0,1-.7-.808,3.365,3.365,0,0,1-.281-1.172.862.862,0,0,1,.1-.459.717.717,0,0,1,.26-.3l1.053-.608a.174.174,0,0,1,.222.005,1.043,1.043,0,0,1,.179.277,1.043,1.043,0,0,0,.213.339.679.679,0,0,0,.354.186,1.193,1.193,0,0,0,.553-.043,3.517,3.517,0,0,0,.814-.366,3.75,3.75,0,0,0,1.313-1.263,3.142,3.142,0,0,0,.5-1.714q0-.925-.5-1.036a1.944,1.944,0,0,0-1.313.359l-1.106.638a.194.194,0,0,1-.253-.018.435.435,0,0,1-.107-.329V76.907a1.328,1.328,0,0,1,.1-.48c.067-.167.13-.318.194-.451l1.867-4.094-3.68,2.125a.193.193,0,0,1-.253-.019.433.433,0,0,1-.108-.327V72.2a1.042,1.042,0,0,1,.108-.451.668.668,0,0,1,.253-.31Z" transform="translate(-206.655 -46.073)" fill="#fafafa"/>
        <path id="Trazado_188617" data-name="Trazado 188617" d="M217.561,66.163a1.061,1.061,0,0,1,.107-.453.674.674,0,0,1,.254-.31l5.014-2.895a.193.193,0,0,1,.253.018.439.439,0,0,1,.107.329V64.31a1.047,1.047,0,0,1-.107.452.674.674,0,0,1-.253.31l-3.749,2.163-.146,2.713a3.673,3.673,0,0,1,.713-.679q.353-.246.58-.376a3.472,3.472,0,0,1,1.387-.493,1.582,1.582,0,0,1,1.107.274,2.205,2.205,0,0,1,.733,1.066,5.562,5.562,0,0,1,.266,1.877,9.911,9.911,0,0,1-.273,2.406A8.446,8.446,0,0,1,222.809,76a6.64,6.64,0,0,1-1.113,1.525,6.464,6.464,0,0,1-1.361,1.063,3.952,3.952,0,0,1-1.581.584,1.59,1.59,0,0,1-1.094-.262,1.892,1.892,0,0,1-.653-.917,4.448,4.448,0,0,1-.248-1.387.888.888,0,0,1,.1-.458.71.71,0,0,1,.261-.3l1.079-.624a.213.213,0,0,1,.241,0,.409.409,0,0,1,.147.273,1.291,1.291,0,0,0,.253.624.7.7,0,0,0,.4.242.948.948,0,0,0,.506-.056,3.619,3.619,0,0,0,.588-.278,3.183,3.183,0,0,0,1.227-1.344,4.338,4.338,0,0,0,.466-2.015,1.5,1.5,0,0,0-.466-1.27,1.091,1.091,0,0,0-1.227.072,3.193,3.193,0,0,0-.634.459,3.136,3.136,0,0,0-.379.435c-.1.139-.186.262-.267.371a1.027,1.027,0,0,1-.307.268l-1.227.709a.194.194,0,0,1-.253-.019.436.436,0,0,1-.106-.328Z" transform="translate(-207.613 -45.545)" fill="#fafafa"/>
        <path id="Trazado_188618" data-name="Trazado 188618" d="M228.35,72.086a.192.192,0,0,1,.253.017.439.439,0,0,1,.107.329v2.012a1.04,1.04,0,0,1-.107.451.68.68,0,0,1-.253.311l-1.24.716a.2.2,0,0,1-.253-.019.439.439,0,0,1-.106-.328V73.563a1.059,1.059,0,0,1,.106-.452.671.671,0,0,1,.253-.31Z" transform="translate(-208.56 -46.453)" fill="#fafafa"/>
        <path id="Trazado_188619" data-name="Trazado 188619" d="M232.931,69.44a.194.194,0,0,1,.254.019.439.439,0,0,1,.106.328V71.8a1.052,1.052,0,0,1-.106.451.669.669,0,0,1-.254.311l-1.24.716a.193.193,0,0,1-.253-.018.439.439,0,0,1-.106-.328V70.918a1.059,1.059,0,0,1,.106-.452.678.678,0,0,1,.253-.31Z" transform="translate(-208.994 -46.203)" fill="#fafafa"/>
        <path id="Trazado_188620" data-name="Trazado 188620" d="M237.512,66.794a.2.2,0,0,1,.254.019.439.439,0,0,1,.106.328v2.012a1.059,1.059,0,0,1-.106.452.674.674,0,0,1-.254.31l-1.24.716a.192.192,0,0,1-.253-.018.439.439,0,0,1-.107-.329V68.272a1.04,1.04,0,0,1,.107-.451.672.672,0,0,1,.253-.31Z" transform="translate(-209.428 -45.952)" fill="#fafafa"/>
        <path id="Trazado_188621" data-name="Trazado 188621" d="M246.814,48.694a.193.193,0,0,1,.253.018.442.442,0,0,1,.106.329V50.5a1.293,1.293,0,0,1-.1.478q-.1.254-.194.451l-1.947,4.286a2.461,2.461,0,0,1,1.088-.177,1.386,1.386,0,0,1,.832.372,2.081,2.081,0,0,1,.534.933,5.188,5.188,0,0,1,.186,1.494,7.7,7.7,0,0,1-.272,2.057,8.088,8.088,0,0,1-.76,1.846,7.777,7.777,0,0,1-1.148,1.545,6.435,6.435,0,0,1-1.434,1.135,4.061,4.061,0,0,1-1.619.6,1.9,1.9,0,0,1-1.146-.211,1.7,1.7,0,0,1-.7-.807,3.365,3.365,0,0,1-.28-1.173.882.882,0,0,1,.1-.459.723.723,0,0,1,.26-.3l1.054-.608a.171.171,0,0,1,.22.006,1.049,1.049,0,0,1,.181.276,1.006,1.006,0,0,0,.212.339.681.681,0,0,0,.354.186,1.206,1.206,0,0,0,.554-.043,3.518,3.518,0,0,0,.812-.367,3.732,3.732,0,0,0,1.313-1.262,3.139,3.139,0,0,0,.5-1.714c0-.617-.166-.962-.5-1.036a1.945,1.945,0,0,0-1.313.358l-1.105.639a.194.194,0,0,1-.254-.019.437.437,0,0,1-.107-.328V57.533a1.3,1.3,0,0,1,.1-.479q.1-.253.194-.451l1.867-4.1-3.681,2.124a.193.193,0,0,1-.253-.017.44.44,0,0,1-.107-.328V52.828a1.06,1.06,0,0,1,.107-.452.678.678,0,0,1,.253-.31Z" transform="translate(-209.835 -44.236)" fill="#fafafa"/>
        <path id="Trazado_188622" data-name="Trazado 188622" d="M250.392,56.228a8.656,8.656,0,0,1,.28-2.173q.266-.975.614-1.934l2.534-6.967c.036-.1.081-.218.14-.347a.631.631,0,0,1,.273-.3l1.2-.693a.193.193,0,0,1,.253.018.439.439,0,0,1,.107.329.7.7,0,0,1-.019.175.98.98,0,0,1-.047.13l-1.654,4.609a3.157,3.157,0,0,1,1.447-.446,1.7,1.7,0,0,1,1.133.373,2.452,2.452,0,0,1,.734,1.158,5.954,5.954,0,0,1,.26,1.882,9.293,9.293,0,0,1-.266,2.217,9.448,9.448,0,0,1-.748,2.032,8.027,8.027,0,0,1-1.147,1.7,5.86,5.86,0,0,1-1.466,1.217,3.128,3.128,0,0,1-1.467.477,1.691,1.691,0,0,1-1.147-.375,2.5,2.5,0,0,1-.746-1.17A5.92,5.92,0,0,1,250.392,56.228Zm5.44-3.141a1.952,1.952,0,0,0-.473-1.484c-.317-.289-.762-.266-1.341.067a3.315,3.315,0,0,0-1.34,1.481,4.619,4.619,0,0,0-.474,2.03,2.018,2.018,0,0,0,.474,1.5q.473.455,1.34-.045a3.311,3.311,0,0,0,1.341-1.5A4.761,4.761,0,0,0,255.832,53.087Z" transform="translate(-210.8 -43.774)" fill="#fafafa"/>
        <path id="Trazado_188623" data-name="Trazado 188623" d="M262.054,52.627a.192.192,0,0,1,.253.017.439.439,0,0,1,.107.329v2.012a1.041,1.041,0,0,1-.107.451.681.681,0,0,1-.253.311l-1.24.716a.2.2,0,0,1-.253-.019.435.435,0,0,1-.106-.328V54.1a1.046,1.046,0,0,1,.106-.452.67.67,0,0,1,.253-.31Z" transform="translate(-211.754 -44.609)" fill="#fafafa"/>
        <path id="Trazado_188624" data-name="Trazado 188624" d="M266.635,49.981a.193.193,0,0,1,.254.019.439.439,0,0,1,.106.328V52.34a1.062,1.062,0,0,1-.106.452.671.671,0,0,1-.254.31l-1.24.716a.193.193,0,0,1-.253-.018.439.439,0,0,1-.106-.328V51.459a1.059,1.059,0,0,1,.106-.452.678.678,0,0,1,.253-.31Z" transform="translate(-212.188 -44.358)" fill="#fafafa"/>
        <path id="Trazado_188625" data-name="Trazado 188625" d="M271.216,47.336a.2.2,0,0,1,.254.018.439.439,0,0,1,.106.328v2.012a1.059,1.059,0,0,1-.106.452.674.674,0,0,1-.254.31l-1.24.716a.192.192,0,0,1-.253-.018.439.439,0,0,1-.107-.329V48.813a1.041,1.041,0,0,1,.107-.451.672.672,0,0,1,.253-.31Z" transform="translate(-212.622 -44.108)" fill="#fafafa"/>
      </g>
    </g>
    <g id="Chair" transform="translate(248.022 145.616)">
      <g id="Grupo_128792" data-name="Grupo 128792" transform="translate(4.919 95.651)">
        <g id="Grupo_128785" data-name="Grupo 128785" transform="translate(53.797 12.102)">
          <path id="Trazado_188626" data-name="Trazado 188626" d="M331.243,363.852a1.343,1.343,0,0,0,1.343-1.343V276.153a1.343,1.343,0,0,0-2.687,0v86.356A1.343,1.343,0,0,0,331.243,363.852Z" transform="translate(-329.9 -274.81)" fill="#455a64"/>
        </g>
        <g id="Grupo_128786" data-name="Grupo 128786" transform="translate(0.368)">
          <path id="Trazado_188627" data-name="Trazado 188627" d="M272.22,331.153a1.344,1.344,0,0,0,1.249-.851l26.48-67.024a1.343,1.343,0,0,0-2.5-.987l-26.481,67.025a1.346,1.346,0,0,0,1.249,1.837Z" transform="translate(-270.877 -261.441)" fill="#455a64"/>
        </g>
        <g id="Grupo_128787" data-name="Grupo 128787" transform="translate(3.549 5.802)">
          <path id="Trazado_188628" data-name="Trazado 188628" d="M275.734,323.71a1.336,1.336,0,0,0,.976-.421l49.273-52.141,49.184,51.921a1.343,1.343,0,0,0,1.949-1.848L326.957,268.27a1.343,1.343,0,0,0-.975-.42h0a1.338,1.338,0,0,0-.974.421l-50.248,53.174a1.342,1.342,0,0,0,.976,2.265Z" transform="translate(-274.391 -267.85)" fill="#455a64"/>
        </g>
        <g id="Grupo_128788" data-name="Grupo 128788" transform="translate(80.744)">
          <path id="Trazado_188629" data-name="Trazado 188629" d="M387.493,331.153a1.346,1.346,0,0,0,1.248-1.837l-26.48-67.025a1.343,1.343,0,0,0-2.5.987l26.48,67.024A1.342,1.342,0,0,0,387.493,331.153Z" transform="translate(-359.669 -261.441)" fill="#455a64"/>
        </g>
        <g id="Grupo_128789" data-name="Grupo 128789" transform="translate(0 59.591)">
          <path id="Trazado_188630" data-name="Trazado 188630" d="M274.008,327.271l-3.5,9.239a.92.92,0,0,0-.032.236.871.871,0,0,0,0,.168,1.1,1.1,0,0,0,.528.582,2.345,2.345,0,0,0,2.131,0,.928.928,0,0,0,.415-.435.017.017,0,0,1,.005-.015l.026-.126,3.245-8.662Z" transform="translate(-270.47 -327.271)" fill="#dec13c"/>
        </g>
        <g id="Grupo_128790" data-name="Grupo 128790" transform="translate(103.925 59.591)">
          <path id="Trazado_188631" data-name="Trazado 188631" d="M388.094,327.271l3.5,9.239a.92.92,0,0,1,.031.236.866.866,0,0,1,0,.168,1.091,1.091,0,0,1-.527.582,2.346,2.346,0,0,1-2.131,0,.924.924,0,0,1-.415-.435.017.017,0,0,0-.005-.015l-.026-.126-3.246-8.662Z" transform="translate(-385.276 -327.271)" fill="#dec13c"/>
        </g>
        <g id="Grupo_128791" data-name="Grupo 128791" transform="translate(53.591 92.727)">
          <path id="Trazado_188632" data-name="Trazado 188632" d="M329.673,364.264v7.642a.768.768,0,0,0,.453.632,2.418,2.418,0,0,0,2.19,0,.768.768,0,0,0,.454-.632v-7.642A3.281,3.281,0,0,0,329.673,364.264Z" transform="translate(-329.673 -363.876)" fill="#dec13c"/>
        </g>
      </g>
      <g id="Grupo_128796" data-name="Grupo 128796">
        <path id="Trazado_188633" data-name="Trazado 188633" d="M265.042,252.355c0-2.4,2.11-4.967,6.566-7.857,8.233-5.341,32.2-18.719,43.717-25.1a.12.12,0,0,1,.1-.094c8.865-5.381,11.56-28.341,17.7-47.809,2.091-6.635,4.652-10.391,7.688-12.154.721-.418,3.376-1.882,3.97-2.238,6.019-3.607,13.92.726,23.762,6.113,9.066,4.962,16.148,11.313,17.573,28.169.867,10.262.042,29.873-2.042,44.735l.005-.013c-3.018,24.83-6.722,24.873-12.1,29.028-9.255,7.149-30.1,17.2-38.885,20.657-15.935,6.269-28.956-3.4-38.661-8.19a225.811,225.811,0,0,1-25.719-15.236c-2.43-1.765-3.686-3.548-3.661-5.428C265.056,256.19,265.04,253.134,265.042,252.355Z" transform="translate(-265.037 -155.776)" fill="#dec13c"/>
        <path id="Trazado_188634" data-name="Trazado 188634" d="M265.042,252.355c0-2.4,2.11-4.967,6.566-7.857,8.233-5.341,32.2-18.719,43.717-25.1a.12.12,0,0,1,.1-.094c8.865-5.381,11.56-28.341,17.7-47.809,2.091-6.635,4.652-10.391,7.688-12.154.721-.418,3.376-1.882,3.97-2.238,6.019-3.607,13.92.726,23.762,6.113,9.066,4.962,16.148,11.313,17.573,28.169.867,10.262.042,29.873-2.042,44.735l.005-.013c-3.018,24.83-6.722,24.873-12.1,29.028-9.255,7.149-30.1,17.2-38.885,20.657-15.935,6.269-28.956-3.4-38.661-8.19a225.811,225.811,0,0,1-25.719-15.236c-2.43-1.765-3.686-3.548-3.661-5.428C265.056,256.19,265.04,253.134,265.042,252.355Z" transform="translate(-265.037 -155.776)" opacity="0.3"/>
        <g id="Grupo_128793" data-name="Grupo 128793" transform="translate(0 60.124)">
          <path id="Trazado_188635" data-name="Trazado 188635" d="M294.426,279.276a225.885,225.885,0,0,1-25.719-15.237c-5.522-4.009-5.014-8.113,2.9-13.246,10.995-7.132,50.043-28.6,50.043-28.6s56.661,33.439,54.225,39.613-31.739,21.311-42.787,25.657C317.153,293.734,304.131,284.069,294.426,279.276Z" transform="translate(-265.037 -222.195)" fill="#dec13c"/>
        </g>
        <path id="Trazado_188636" data-name="Trazado 188636" d="M349.126,159.135c5.965-3.13,13.715,1.126,23.3,6.378,6.141,3.367,11.375,7.357,14.554,14.821l4.048-2.34c-3.179-7.435-8.4-11.424-14.525-14.781-9.844-5.392-17.743-9.717-23.767-6.112C352.216,157.407,350.124,158.572,349.126,159.135Z" transform="translate(-273.007 -155.776)" fill="#dec13c"/>
        <path id="Trazado_188637" data-name="Trazado 188637" d="M349.126,159.135c5.965-3.13,13.715,1.126,23.3,6.378,6.141,3.367,11.375,7.357,14.554,14.821l4.048-2.34c-3.179-7.435-8.4-11.424-14.525-14.781-9.844-5.392-17.743-9.717-23.767-6.112C352.216,157.407,350.124,158.572,349.126,159.135Z" transform="translate(-273.007 -155.776)" fill="#fff" opacity="0.5"/>
        <g id="Grupo_128794" data-name="Grupo 128794" transform="translate(50.383 2.294)">
          <path id="Trazado_188638" data-name="Trazado 188638" d="M369.737,165.757c-14.73-8.062-25.118-13.79-31.347,5.975-6.136,19.469-8.83,42.429-17.7,47.809,0,0,5.783,1.9,26.394,12.021,8.464,4.156,14.023,8.343,21.947,13.329,11.658,7.335,10.772,12.785,10.772,12.785,5.792-4.8,8.928-46.9,7.5-63.752S378.8,170.72,369.737,165.757Z" transform="translate(-320.695 -158.309)" fill="#dec13c"/>
        </g>
        <g id="Grupo_128795" data-name="Grupo 128795" transform="translate(50.383 2.294)" opacity="0.1">
          <path id="Trazado_188639" data-name="Trazado 188639" d="M369.737,165.757c-14.73-8.062-25.118-13.79-31.347,5.975-6.136,19.469-8.83,42.429-17.7,47.809,0,0,5.783,1.9,26.394,12.021,8.464,4.156,14.023,8.343,21.947,13.329,11.658,7.335,10.772,12.785,10.772,12.785,5.792-4.8,8.928-46.9,7.5-63.752S378.8,170.72,369.737,165.757Z" transform="translate(-320.695 -158.309)"/>
        </g>
      </g>
    </g>
    <g id="Character" transform="translate(69.321 38.018)">
      <g id="Boy" transform="translate(0 0)">
        <g id="Grupo_128797" data-name="Grupo 128797" transform="translate(76.827 61.28)">
          <path id="Trazado_188640" data-name="Trazado 188640" d="M158.033,106.529c8.064.378,13.269,1.8,17.49,6.771,4.121,4.855,25.455,35.159,25.455,35.159s-3.732,10.462-11.9,9.572l-16.031-19.393Z" transform="translate(-158.033 -106.359)" fill="#b16668"/>
          <path id="Trazado_188641" data-name="Trazado 188641" d="M158.738,106.341s8.588.138,12.506,2.88,4.588,3.321,10.351,11.321,10.956,15.182,10.956,15.182A24.616,24.616,0,0,1,178.6,146.338L161.62,125.873Z" transform="translate(-158.1 -106.341)" fill="#37474f"/>
        </g>
        <g id="Botom" transform="translate(33.297 128.706)">
          <g id="Grupo_128801" data-name="Grupo 128801">
            <g id="Grupo_128800" data-name="Grupo 128800">
              <path id="Trazado_188642" data-name="Trazado 188642" d="M112.953,370.121h13.383l-.269-20.5-13.114,2.052Z" transform="translate(-110.23 -193.1)" fill="#b16668"/>
              <path id="Trazado_188643" data-name="Trazado 188643" d="M162.81,354.76l12.69.436-.5-21.826-14.029-.824Z" transform="translate(-114.781 -191.482)" fill="#b16668"/>
              <g id="Grupo_128798" data-name="Grupo 128798" transform="translate(0 171.038)">
                <path id="Trazado_188644" data-name="Trazado 188644" d="M140.115,394.128c.387.363.271,2.847-.156,3.517-.457.717-4.892,2.956-9.638,3.295-4.534.325-8.584-.287-11.246-1.977s-3.951-3.556-4.2-6.138.037-5.076-1.195-7.064c-1.137-1.836-2.948-3.905-3.343-4.9-.859-2.166-.031-5.262-.031-5.262Z" transform="translate(-109.945 -366.6)" fill="#263238"/>
                <path id="Trazado_188645" data-name="Trazado 188645" d="M127.716,370.633a10.007,10.007,0,0,0,.522,2.876,26.354,26.354,0,0,0,2.778,5.682,23.142,23.142,0,0,0,1.891,2.668c1.371,1.633,3.075,2.973,4.527,4.538a9.273,9.273,0,0,1,2.8,5.567c.194,3.557-5.477,4.765-8.449,5.295a21.807,21.807,0,0,1-9.659-.485,8.867,8.867,0,0,1-6.5-7.087c-.165-.988-.1-2-.221-2.992a13.973,13.973,0,0,0-2.765-6.223,18.792,18.792,0,0,1-2.123-3.386c-.927-2.2-.184-4.679.409-6.872.512-1.894,1.092-4.037,1.759-3.859.007.982,0,1.084.7,1.75.892.842.93,2.108,1.871,2.852a13.062,13.062,0,0,1-.661-2.529,1.451,1.451,0,0,1,.2-1.007,2.648,2.648,0,0,1,1.092-.583,21.81,21.81,0,0,1,4.32-.983,26.2,26.2,0,0,1,6.025-.031,1.829,1.829,0,0,1,1.06.613,2.122,2.122,0,0,1,.377,1.216C127.73,368.221,127.686,369.688,127.716,370.633Z" transform="translate(-109.957 -365.658)" fill="#455a64"/>
                <path id="Trazado_188646" data-name="Trazado 188646" d="M132.272,381.137c-1.324-.992-6.1-1.006-7.725-.832a9.836,9.836,0,0,0-4.612,1.619,1.052,1.052,0,0,1-1.358-.107h0a.991.991,0,0,1,.1-1.512,10,10,0,0,1,5.191-1.923,26.19,26.19,0,0,1,6.976.4S132.664,379.958,132.272,381.137Z" transform="translate(-110.735 -366.858)" fill="#f5f5f5"/>
                <path id="Trazado_188647" data-name="Trazado 188647" d="M135.584,385.174c-1.666-.984-6.74-.843-8.363-.668a9.235,9.235,0,0,0-4.485,1.705,1.053,1.053,0,0,1-1.358-.107h0a.99.99,0,0,1,.1-1.512,19.47,19.47,0,0,1,7.112-2.076c3.993-.282,5.034.534,5.034.534A3.3,3.3,0,0,1,135.584,385.174Z" transform="translate(-111 -367.25)" fill="#f5f5f5"/>
                <path id="Trazado_188648" data-name="Trazado 188648" d="M122.118,374.155a19.454,19.454,0,0,1,6.83.422c.7.394,1.167,1.505.714,1.787-.889-.493-4.3-.7-6.261-.611a13.192,13.192,0,0,0-4.318,1.187c-.342.151-.746.364-1.1.56a.948.948,0,0,1-1.314-.409h0a.886.886,0,0,1,.346-1.141A12.823,12.823,0,0,1,122.118,374.155Z" transform="translate(-110.574 -366.453)" fill="#f5f5f5"/>
              </g>
              <g id="Grupo_128799" data-name="Grupo 128799" transform="translate(43.365 156.925)">
                <path id="Trazado_188649" data-name="Trazado 188649" d="M200.115,372.575a4.3,4.3,0,0,1-.177,3.166c-.443.926-5.28,3.654-11.807,3.214a27.171,27.171,0,0,1-13.5-4.717c-2.488-1.648-5.079-1.955-8.311-2.14s-7.475-1.8-8.184-3.308.107-4.115.107-4.115Z" transform="translate(-157.85 -351.452)" fill="#263238"/>
                <path id="Trazado_188650" data-name="Trazado 188650" d="M173.784,350.821q.255-.054.517-.106a2.04,2.04,0,0,1,.861-.047,1.675,1.675,0,0,1,.806.544,16.057,16.057,0,0,1,1.667,2.617c1.368,2.232,4.24,4.08,7.377,5.765,2.132,1.147,4.221,2.036,6.422,3.025,2.246,1.01,5.226,1.628,6.983,2.812,2.562,1.726,2.892,6.063-.025,7.776-2.517,1.477-9.14,3.078-16.087,1.111-3.784-1.073-7.984-5.115-12.951-5.5-3.158-.247-9.131-1.134-11.164-3.533-.751-1.064.252-4.436,1.075-7.347.9-3.177,1.755-8.135,2.808-7.856a1.447,1.447,0,0,0,.55,1.187c.389.4.913.659,1.338,1.021a8.358,8.358,0,0,1,1.747,2.514,1.877,1.877,0,0,0,.9.972c.532.2.931-.136,1.4-.35a2.713,2.713,0,0,1,1.886-.135,11.837,11.837,0,0,0-.332-1.865,1.089,1.089,0,0,1-.047-.6.964.964,0,0,1,.4-.454A10.115,10.115,0,0,1,173.784,350.821Z" transform="translate(-157.857 -350.067)" fill="#455a64"/>
                <path id="Trazado_188651" data-name="Trazado 188651" d="M183.717,358.527a2.929,2.929,0,0,0-2.332-1.562c-1.437-.267-3.976.792-5.554,2.092A1.18,1.18,0,0,0,176,361h0a1.178,1.178,0,0,0,1.346-.149A9.008,9.008,0,0,1,183.717,358.527Z" transform="translate(-159.513 -350.717)" fill="#f5f5f5"/>
                <path id="Trazado_188652" data-name="Trazado 188652" d="M188.54,361.3a3.373,3.373,0,0,0-2.764-1.423s-3.753.108-6.076,2.273a1.153,1.153,0,0,0,.158,1.882h0a1.126,1.126,0,0,0,1.3-.15A9.034,9.034,0,0,1,188.54,361.3Z" transform="translate(-159.882 -350.997)" fill="#f5f5f5"/>
                <path id="Trazado_188653" data-name="Trazado 188653" d="M193.988,363.8a3.777,3.777,0,0,0-2.87-1.285,10.1,10.1,0,0,0-5.82,2.3,1.153,1.153,0,0,0,.158,1.882h0a1.124,1.124,0,0,0,1.3-.15A8.626,8.626,0,0,1,193.988,363.8Z" transform="translate(-160.413 -351.247)" fill="#f5f5f5"/>
              </g>
              <path id="Trazado_188654" data-name="Trazado 188654" d="M114.983,190.06c-.82,24.912-.878,75.874-.878,75.874-.263,3.1-.53,8.609-.762,19.772-.337,16.188-.389,57.778-.389,57.778a23.609,23.609,0,0,0,14.086-.966s9.871-56.179,11.893-72.2c1.763-13.984,4.756-51.974,4.756-51.974l6.114,45.653a157.735,157.735,0,0,0-.418,21.484c.527,7.411,8.066,45.521,8.066,45.521s5.619,2.606,13.332,0c0,0,.114-60.209.244-67.009.149-7.753-.7-87.276-.7-87.276Z" transform="translate(-110.23 -176.712)" fill="#dec13c"/>
              <path id="Trazado_188655" data-name="Trazado 188655" d="M114.983,190.06c-.82,24.912-.878,75.874-.878,75.874-.263,3.1-.53,8.609-.762,19.772-.337,16.188-.389,57.778-.389,57.778a23.609,23.609,0,0,0,14.086-.966s9.871-56.179,11.893-72.2c1.763-13.984,4.756-51.974,4.756-51.974l6.114,45.653a157.735,157.735,0,0,0-.418,21.484c.527,7.411,8.066,45.521,8.066,45.521s5.619,2.606,13.332,0c0,0,.114-60.209.244-67.009.149-7.753-.7-87.276-.7-87.276Z" transform="translate(-110.23 -176.712)" opacity="0.3"/>
              <path id="Trazado_188656" data-name="Trazado 188656" d="M146.906,221.755a41.772,41.772,0,0,0,15.706-9.005s-3.031,5.674-12.043,10.955l1.928,39.8Z" transform="translate(-113.448 -180.128)" opacity="0.2"/>
            </g>
          </g>
        </g>
        <g id="Chest" transform="translate(33.368 2.758)">
          <path id="Trazado_188657" data-name="Trazado 188657" d="M136.83,105.355c-5.048.49-12.114.548-17.125,1.055-3.472,1.428-10.153,7.252-9.655,11.409,1.858,15.52,5.1,41.156,5.1,41.156l-.993,26.767c6.944,6.929,39.728,9.628,56.469-1.46,0,0-.541-48.441-1.691-56.609-2.066-14.683-3.875-20.133-11.451-21.432S136.83,105.355,136.83,105.355Z" transform="translate(-110.024 -48.751)" fill="#455a64"/>
          <g id="Grupo_128804" data-name="Grupo 128804" transform="translate(9.233)">
            <g id="Grupo_128802" data-name="Grupo 128802">
              <circle id="Elipse_5081" data-name="Elipse 5081" cx="15.646" cy="15.646" r="15.646" transform="translate(11.738 29.197) rotate(-68.915)" fill="#263238"/>
              <path id="Trazado_188658" data-name="Trazado 188658" d="M125.551,77.2s2.431,11.933,3.431,13.9a5.392,5.392,0,0,0,3.1,2.541l-.1-8.381Z" transform="translate(-120.728 -46.089)" fill="#263238"/>
              <path id="Trazado_188659" data-name="Trazado 188659" d="M128.6,58.378a5.869,5.869,0,0,0-4.874,1.667c-2.106,2.116-1,8.805,1.543,15.37l4.771.59Z" transform="translate(-120.451 -44.3)" fill="#263238"/>
              <path id="Trazado_188660" data-name="Trazado 188660" d="M131.25,75.276c-.963.564-2.313-1.288-3.483-2.534s-5.01-2.968-6.968,1.067c-2,4.112,1.613,9.6,4.64,10.579,5.216,1.688,6.031-1.66,6.031-1.66l.216,19.447h0c6.43,8.4,24.483,7.848,17.039-.927l.036-5.742a33,33,0,0,0,7.047.424c3.852-.561,6.3-3.575,7.5-7.728,1.933-6.672,2.691-12.065,1.217-25.231-1.617-14.431-18.382-14.728-27.487-9.108S131.25,75.276,131.25,75.276Z" transform="translate(-120.223 -43.555)" fill="#b16668"/>
              <path id="Trazado_188661" data-name="Trazado 188661" d="M131.962,76.4c-.482,0-2.286-3.051-3.469-4.145-1.638-1.517.611-15.109.611-15.109a6.6,6.6,0,0,1,1.2-7.337c2.285-2.471,5.468-5.484,15.724-4.18,7.311.929,15.258,3.282,21.721.177a10.955,10.955,0,0,1-3.918,11.6s-2.343,1.481-8.477,2.173-15.668-.281-16.972-.471c-1.774-.258-2.169,1.46-3.167,6.156C134.34,69.388,133.581,76.381,131.962,76.4Z" transform="translate(-120.951 -43.066)" fill="#263238"/>
              <path id="Trazado_188662" data-name="Trazado 188662" d="M128.628,59.033l-5.763-3.159a3.191,3.191,0,0,1,4.4-1.411A3.453,3.453,0,0,1,128.628,59.033Z" transform="translate(-120.474 -43.896)" fill="#263238"/>
              <path id="Trazado_188663" data-name="Trazado 188663" d="M150.107,99.429s-8.572-1.805-11.56-3.427a9.886,9.886,0,0,1-4.113-4.142,13.52,13.52,0,0,0,2.315,4.864c2.171,2.825,13.338,4.991,13.338,4.991Z" transform="translate(-121.57 -47.478)" fill="#9a4a4d"/>
            </g>
            <g id="Grupo_128803" data-name="Grupo 128803" transform="translate(25.118 22.052)">
              <path id="Trazado_188664" data-name="Trazado 188664" d="M153.049,77.036a1.722,1.722,0,1,1-1.7-1.808A1.749,1.749,0,0,1,153.049,77.036Z" transform="translate(-148.127 -67.953)" fill="#263238"/>
              <path id="Trazado_188665" data-name="Trazado 188665" d="M151.854,68.265l-3.59,2.189a2.206,2.206,0,0,1,.731-2.965A2.051,2.051,0,0,1,151.854,68.265Z" transform="translate(-147.971 -67.192)" fill="#263238"/>
              <path id="Trazado_188666" data-name="Trazado 188666" d="M168.253,72.571l-3.248-2.721a2.034,2.034,0,0,1,2.934-.328A2.226,2.226,0,0,1,168.253,72.571Z" transform="translate(-149.586 -67.367)" fill="#263238"/>
              <path id="Trazado_188667" data-name="Trazado 188667" d="M166.709,77.043a1.651,1.651,0,1,1-1.635-1.733A1.676,1.676,0,0,1,166.709,77.043Z" transform="translate(-149.435 -67.961)" fill="#263238"/>
              <path id="Trazado_188668" data-name="Trazado 188668" d="M158.274,74.761,157.631,85.1l5.581-1.2Z" transform="translate(-148.887 -67.909)" fill="#9a4a4d"/>
              <path id="Trazado_188669" data-name="Trazado 188669" d="M153.738,91.036a1.65,1.65,0,1,1-1.65-1.649A1.65,1.65,0,0,1,153.738,91.036Z" transform="translate(-148.205 -69.295)" fill="#9a4a4d"/>
            </g>
          </g>
        </g>
        <g id="Grupo_128805" data-name="Grupo 128805">
          <path id="Trazado_188670" data-name="Trazado 188670" d="M96,80.89c3.844-4.137,6.5-7.289,9.983-10.815,1.977-2,3.258-3.444,5.175-5.512,1.319-1.422,2.135-2.653,3.466-3a10.826,10.826,0,0,0,4.03-2.178,23.5,23.5,0,0,0,2.018-2.077,34.012,34.012,0,0,1,7.527-6.122c2.927-1.753,6.1-2.987,9.088-4.636,1.781-.983,3.765-2.721,1.939-4.735a4.864,4.864,0,0,0-2.131-1.287c-4.837-1.578-9.341-.282-14.338.421a37.357,37.357,0,0,0-6.055,1.372,10.617,10.617,0,0,0-2.867,1.263,14.19,14.19,0,0,0-3.2,3.677c-2.559,3.566-6.89,6.907-10.345,9.526-4.054,3.072-8.019,6.378-12.168,9.283A142.933,142.933,0,0,0,75.91,75.492c-3.2,2.8-2.873,4.658-2.555,5.543,1.826,5.059,4.261,7.063,7.072,10.376,5.864,6.915,31.339,32.939,31.339,32.939l3.961-7.307a18.527,18.527,0,0,0-4.129-22.81C106.266,89.594,100.5,84.574,96,80.89Z" transform="translate(-73.162 -39.784)" fill="#b16668"/>
          <path id="Trazado_188671" data-name="Trazado 188671" d="M120.87,104.235c-7.292-5.648-20.045-16.545-20.045-16.545s-.5,12.813-9.76,19.072c0,0,16.935,18.117,21.375,22.457,4.134-.941,7.666-4.233,8.856-10.629C123.306,107.777,120.87,104.235,120.87,104.235Z" transform="translate(-74.859 -44.325)" fill="#37474f"/>
          <path id="Trazado_188672" data-name="Trazado 188672" d="M97.425,85.194a18.737,18.737,0,0,1-9.258,5.018s4.194,1.25,10.944-3.624Z" transform="translate(-74.584 -44.088)" fill="#9a4a4d"/>
        </g>
      </g>
      <g id="Lista" transform="translate(66.098 94.766)">
        <g id="Paper">
          <path id="Trazado_188673" data-name="Trazado 188673" d="M217.046,385.512c-1.765-1.023-3.349-1.222-4.481-.57-1.267.733-2,2.562-2,5.006v17.7c0,5.25-1.856,9.242-5.223,11.27l19.987-11.523v-6.825C225.328,395,221.535,388.1,217.046,385.512Z" transform="translate(-151.788 -162.472)" fill="#f0f0f0"/>
          <path id="Trazado_188674" data-name="Trazado 188674" d="M251.967,424.227c-1.285-.742-2.426-.905-3.214-.453-.905.516-1.421,1.865-1.421,3.693v11.614c0,3.159-1.177,5.649-3.232,6.834l14.321-8.256v-1.7C258.422,431.623,255.471,426.246,251.967,424.227Z" transform="translate(-155.462 -166.164)" fill="#f0f0f0"/>
          <path id="Trazado_188675" data-name="Trazado 188675" d="M217.046,385.512c-1.765-1.023-3.349-1.222-4.481-.57-1.267.733-2,2.562-2,5.006v17.7c0,5.25-1.856,9.242-5.223,11.27l19.987-11.523v-6.825C225.328,395,221.535,388.1,217.046,385.512Z" transform="translate(-151.788 -162.472)" opacity="0.15"/>
          <path id="Trazado_188676" data-name="Trazado 188676" d="M251.967,424.227c-1.285-.742-2.426-.905-3.214-.453-.905.516-1.421,1.865-1.421,3.693v11.614c0,3.159-1.177,5.649-3.232,6.834l14.321-8.256v-1.7C258.422,431.623,255.471,426.246,251.967,424.227Z" transform="translate(-155.462 -166.164)" opacity="0.15"/>
          <path id="Trazado_188677" data-name="Trazado 188677" d="M325.857,421.292l-12.03,6.943-1.566.905-32.4,18.684v8.491c0,2.879-1.041,5.105-2.942,6.264l47.687-27.5c1.973-1.141,3.06-3.395,3.06-6.337v-8.491Z" transform="translate(-158.572 -165.854)" fill="#f0f0f0"/>
          <path id="Trazado_188678" data-name="Trazado 188678" d="M325.976,420.251l-12.492,7.206-1.566.905-33.747,19.462h1.81l32.4-18.684,1.566-.905,12.03-6.943,1.81-1.041Z" transform="translate(-158.691 -165.854)" fill="#fafafa"/>
          <path id="Trazado_188679" data-name="Trazado 188679" d="M159.216,190.4v18.684c0,3.748-2.471,5.359-5.522,3.6a12.2,12.2,0,0,1-5.513-9.55v-6.373Z" transform="translate(-146.371 -144.07)" fill="#f0f0f0"/>
          <path id="Trazado_188680" data-name="Trazado 188680" d="M164.9,172.142a2.13,2.13,0,0,0-1.964-.344,2.793,2.793,0,0,0-.833,2.381V207.31c0,2.462-.923,4.436-2.526,5.44l9.93-5.73V180.552C169.511,177.438,167.4,173.581,164.9,172.142Z" transform="translate(-147.451 -142.295)" fill="#e6e6e6"/>
          <path id="Trazado_188681" data-name="Trazado 188681" d="M159.026,189.251v1.041l-11.035,6.364h-1.81Z" transform="translate(-146.181 -143.961)" fill="#fafafa"/>
          <path id="Trazado_188682" data-name="Trazado 188682" d="M308.45,416.923V405.309c0-5-3.3-10.953-7.359-13.3-1.892-1.1-3.621-1.213-4.924-.507l-.281.163-16.774,9.677-1.693.969-28.958,16.71c1.294-.643,2.978-.507,4.825.561,4.064,2.345,7.359,8.3,7.359,13.3V444.5c0,5.006,3.3,10.953,7.35,13.307s7.359.444,7.359-4.255v-8.491L309.1,425.6l1.566-.905A16.421,16.421,0,0,1,308.45,416.923Z" transform="translate(-155.875 -163.088)" fill="#fafafa"/>
          <path id="Trazado_188683" data-name="Trazado 188683" d="M275.631,396.249V369.916c0-6.255-4.11-13.7-9.188-16.629-2.363-1.358-4.517-1.5-6.146-.643l-.416.244-32,18.448-1.539.9-13.75,7.93c1.62-.806,3.73-.634,6.047.7,5.078,2.933,9.188,10.374,9.188,16.629v26.333c0,5.006,3.295,10.953,7.359,13.3s7.35.2,7.35-4.807V420.7c0-2.652.932-4.508,2.408-5.3l.118-.063,28.958-16.71,1.693-.969A12.263,12.263,0,0,1,275.631,396.249Z" transform="translate(-152.475 -159.396)" fill="#f5f5f5"/>
          <path id="Trazado_188684" data-name="Trazado 188684" d="M219.4,337.3V149.9c0-3.748-2.471-8.219-5.513-9.976a3.769,3.769,0,0,0-3.693-.38l-.217.127-47.524,27.41a3.809,3.809,0,0,1,3.63.416c3.042,1.756,5.513,6.228,5.513,9.976v187.4c0,10,7.025,22.16,15.678,27.157l1.738,1c8.663,5,15.678,1.122,15.678-8.645v-17.7c0-3.186,1.068-5.449,2.8-6.509l.353-.2,13.75-7.93,1.539-.9A31.078,31.078,0,0,1,219.4,337.3Z" transform="translate(-147.723 -139.219)" fill="#fafafa"/>
          <path id="Trazado_188685" data-name="Trazado 188685" d="M267.472,424.075v8.491c0,2.879-1.041,5.105-2.942,6.264l-.217.127a5.631,5.631,0,0,1-2.725.679,8.48,8.48,0,0,1-4.191-1.249c-4.626-2.679-8.256-9.206-8.256-14.873V411.9c0-4.336-2.951-9.713-6.454-11.732-1.285-.742-2.426-.905-3.214-.453-.905.516-1.421,1.865-1.421,3.693v11.614c0,3.159-1.177,5.649-3.232,6.834-1.946,1.122-4.381.96-6.834-.462-4.635-2.67-8.265-9.2-8.265-14.864V380.2c0-5.567-3.793-12.465-8.283-15.054-1.765-1.023-3.349-1.222-4.481-.57-1.267.733-2,2.562-2,5.006v17.7c0,5.25-1.856,9.242-5.223,11.27l-.281.163-.018.009c-3.53,1.964-8.1,1.53-12.872-1.231l-1.738-1c-9.143-5.277-16.584-18.168-16.584-28.723v-187.4c0-3.114-2.109-6.97-4.608-8.41a2.13,2.13,0,0,0-1.964-.344,2.793,2.793,0,0,0-.833,2.381v33.131c0,2.462-.923,4.436-2.526,5.44l-.272.154a5.5,5.5,0,0,1-5.44-.425,14.018,14.018,0,0,1-6.418-11.125V194.8h1.81v6.373a12.2,12.2,0,0,0,5.513,9.55c3.051,1.756,5.522.145,5.522-3.6V173.989c0-1.928.652-3.286,1.7-3.92l.181-.1a3.809,3.809,0,0,1,3.63.416c3.042,1.756,5.513,6.228,5.513,9.976v187.4c0,10,7.025,22.16,15.678,27.157l1.738,1c8.663,5,15.678,1.122,15.678-8.645v-17.7c0-3.186,1.068-5.449,2.8-6.509l.353-.2c1.62-.806,3.73-.634,6.047.7,5.078,2.933,9.188,10.374,9.188,16.629v26.333c0,5.006,3.3,10.953,7.359,13.3s7.35.2,7.35-4.807V403.409c0-2.652.932-4.508,2.408-5.3l.118-.063c1.294-.643,2.978-.507,4.825.561,4.064,2.345,7.359,8.3,7.359,13.3v11.614c0,5.006,3.3,10.953,7.35,13.307s7.359.444,7.359-4.255v-8.491Z" transform="translate(-146.181 -142.105)" fill="#455a64"/>
          <path id="Trazado_188686" data-name="Trazado 188686" d="M225.875,407.391v-6.825c0-5.567-3.793-12.465-8.283-15.054-1.765-1.023-3.349-1.222-4.481-.57-1.267.733-2,2.562-2,5.006v1.423c0-4.851,8.4-4.687,8.4,8.869v10.823Z" transform="translate(-152.335 -162.472)" opacity="0.07"/>
          <path id="Trazado_188687" data-name="Trazado 188687" d="M258.76,437.661v-1.7c0-4.336-2.951-9.713-6.454-11.732-1.285-.742-2.426-.905-3.214-.453-.905.516-1.421,1.865-1.421,3.693v5.809c0-5.809,6.309-2.638,6.309,1.681v5.458Z" transform="translate(-155.8 -166.164)" opacity="0.07"/>
          <path id="Trazado_188688" data-name="Trazado 188688" d="M169.776,207.02V180.552c0-3.114-2.109-6.97-4.608-8.41a2.13,2.13,0,0,0-1.964-.344,2.793,2.793,0,0,0-.833,2.381v5.949c0-4.035,4.4-2.591,4.4,4.906v23.721Z" transform="translate(-147.715 -142.295)" opacity="0.08"/>
        </g>
        <g id="Text" transform="translate(4.518 2.807)">
          <g id="Grupo_128806" data-name="Grupo 128806" transform="translate(135.259 227.68)">
            <path id="Trazado_188689" data-name="Trazado 188689" d="M309.8,407.315a2.782,2.782,0,0,0-1.258,2.182c0,.8.563,1.128,1.258.727a2.782,2.782,0,0,0,1.259-2.181C311.062,407.239,310.5,406.914,309.8,407.315Z" transform="translate(-301.346 -395.099)" fill="#dec13c"/>
            <path id="Trazado_188690" data-name="Trazado 188690" d="M309.8,423.292a2.782,2.782,0,0,0-1.258,2.182c0,.8.563,1.128,1.258.727a2.782,2.782,0,0,0,1.259-2.181C311.062,423.216,310.5,422.891,309.8,423.292Z" transform="translate(-301.346 -396.614)" fill="#dec13c"/>
            <path id="Trazado_188691" data-name="Trazado 188691" d="M300.989,395.393a2.781,2.781,0,0,0,2.479.44.767.767,0,0,0,.254-1.431,2.783,2.783,0,0,0-2.48-.44A.767.767,0,0,0,300.989,395.393Z" transform="translate(-300.593 -393.838)" fill="#dec13c"/>
          </g>
          <g id="Grupo_128814" data-name="Grupo 128814" transform="translate(96.121 230.631)" opacity="0.3">
            <g id="Grupo_128807" data-name="Grupo 128807">
              <path id="Trazado_188692" data-name="Trazado 188692" d="M257.81,418.487a.452.452,0,0,1-.226-.844l35.478-20.483a.452.452,0,0,1,.453.783l-35.478,20.482A.447.447,0,0,1,257.81,418.487Z" transform="translate(-257.357 -397.099)" fill="#455a64"/>
            </g>
            <g id="Grupo_128808" data-name="Grupo 128808" transform="translate(4.84 5.025)">
              <path id="Trazado_188693" data-name="Trazado 188693" d="M263.157,424.039a.453.453,0,0,1-.226-.845l35.477-20.483a.453.453,0,1,1,.453.784l-35.477,20.483A.447.447,0,0,1,263.157,424.039Z" transform="translate(-262.704 -402.65)" fill="#455a64"/>
            </g>
            <g id="Grupo_128809" data-name="Grupo 128809" transform="translate(7.284 11.955)">
              <path id="Trazado_188694" data-name="Trazado 188694" d="M265.857,431.694a.452.452,0,0,1-.226-.844l35.478-20.483a.452.452,0,0,1,.453.783l-35.478,20.482A.447.447,0,0,1,265.857,431.694Z" transform="translate(-265.404 -410.305)" fill="#455a64"/>
            </g>
            <g id="Grupo_128810" data-name="Grupo 128810" transform="translate(7.353 19.107)">
              <path id="Trazado_188695" data-name="Trazado 188695" d="M265.933,439.595a.453.453,0,0,1-.226-.845l35.478-20.482a.452.452,0,0,1,.453.783l-35.478,20.482A.448.448,0,0,1,265.933,439.595Z" transform="translate(-265.48 -418.206)" fill="#455a64"/>
            </g>
            <g id="Grupo_128811" data-name="Grupo 128811" transform="translate(7.435 26.257)">
              <path id="Trazado_188696" data-name="Trazado 188696" d="M266.024,447.494a.453.453,0,0,1-.226-.845l35.477-20.483a.453.453,0,0,1,.453.784L266.25,447.433A.447.447,0,0,1,266.024,447.494Z" transform="translate(-265.571 -426.105)" fill="#455a64"/>
            </g>
            <g id="Grupo_128812" data-name="Grupo 128812" transform="translate(9.88 48.694)">
              <path id="Trazado_188697" data-name="Trazado 188697" d="M277.233,450.891v1.041l-8.283,4.78a.43.43,0,0,1-.226.063.452.452,0,0,1-.226-.842Z" transform="translate(-268.272 -450.891)" fill="#455a64"/>
            </g>
            <g id="Grupo_128813" data-name="Grupo 128813" transform="translate(14.705 56.506)">
              <path id="Trazado_188698" data-name="Trazado 188698" d="M277.738,459.521v.516c0,.181-.009.362-.018.534l-3.44,1.982a.409.409,0,0,1-.226.063.452.452,0,0,1-.226-.842Z" transform="translate(-273.602 -459.521)" fill="#455a64"/>
            </g>
          </g>
          <g id="Grupo_128815" data-name="Grupo 128815" transform="translate(104.106 192.084)">
            <path id="Trazado_188699" data-name="Trazado 188699" d="M277.268,368.328a2.786,2.786,0,0,0-1.259,2.182c0,.8.564,1.128,1.259.727a2.784,2.784,0,0,0,1.259-2.181C278.527,368.252,277.963,367.927,277.268,368.328Z" transform="translate(-267.11 -355.808)" fill="#dec13c"/>
            <path id="Trazado_188700" data-name="Trazado 188700" d="M277.268,385.769a2.784,2.784,0,0,0-1.259,2.181c0,.8.564,1.129,1.259.727a2.783,2.783,0,0,0,1.259-2.181C278.527,385.693,277.963,385.367,277.268,385.769Z" transform="translate(-267.11 -357.461)" fill="#dec13c"/>
            <path id="Trazado_188701" data-name="Trazado 188701" d="M278.527,403.937a1.574,1.574,0,0,1-.054.407l-2.417,1.394a1.32,1.32,0,0,1-.045-.344,2.77,2.77,0,0,1,1.258-2.182C277.966,402.805,278.527,403.131,278.527,403.937Z" transform="translate(-267.11 -359.114)" fill="#dec13c"/>
            <path id="Trazado_188702" data-name="Trazado 188702" d="M266.575,356.07a2.784,2.784,0,0,0,2.479.44.768.768,0,0,0,.254-1.432,2.783,2.783,0,0,0-2.48-.439A.767.767,0,0,0,266.575,356.07Z" transform="translate(-266.178 -354.515)" fill="#dec13c"/>
          </g>
          <g id="Grupo_128825" data-name="Grupo 128825" transform="translate(64.867 195.232)" opacity="0.4">
            <g id="Grupo_128816" data-name="Grupo 128816">
              <path id="Trazado_188703" data-name="Trazado 188703" d="M223.284,379.646a.453.453,0,0,1-.226-.845l35.982-20.748a.453.453,0,1,1,.453.785L223.51,379.585A.457.457,0,0,1,223.284,379.646Z" transform="translate(-222.831 -357.993)" fill="#455a64"/>
            </g>
            <g id="Grupo_128817" data-name="Grupo 128817" transform="translate(5.332 5.179)">
              <path id="Trazado_188704" data-name="Trazado 188704" d="M229.175,385.366a.452.452,0,0,1-.226-.845l35.982-20.747a.453.453,0,0,1,.453.785L229.4,385.306A.458.458,0,0,1,229.175,385.366Z" transform="translate(-228.721 -363.714)" fill="#455a64"/>
            </g>
            <g id="Grupo_128818" data-name="Grupo 128818" transform="translate(8.641 12.455)">
              <path id="Trazado_188705" data-name="Trazado 188705" d="M232.83,393.4a.453.453,0,0,1-.226-.845l35.982-20.748a.453.453,0,0,1,.453.785l-35.982,20.748A.457.457,0,0,1,232.83,393.4Z" transform="translate(-232.377 -371.751)" fill="#455a64"/>
            </g>
            <g id="Grupo_128819" data-name="Grupo 128819" transform="translate(9.187 20.085)">
              <path id="Trazado_188706" data-name="Trazado 188706" d="M233.433,401.834a.453.453,0,0,1-.226-.845l35.982-20.748a.453.453,0,1,1,.453.785l-35.982,20.748A.456.456,0,0,1,233.433,401.834Z" transform="translate(-232.98 -380.181)" fill="#455a64"/>
            </g>
            <g id="Grupo_128820" data-name="Grupo 128820" transform="translate(9.187 27.82)">
              <path id="Trazado_188707" data-name="Trazado 188707" d="M233.433,410.379a.453.453,0,0,1-.226-.845l35.982-20.748a.453.453,0,1,1,.453.785l-35.982,20.748A.455.455,0,0,1,233.433,410.379Z" transform="translate(-232.98 -388.726)" fill="#455a64"/>
            </g>
            <g id="Grupo_128821" data-name="Grupo 128821" transform="translate(9.187 35.556)">
              <path id="Trazado_188708" data-name="Trazado 188708" d="M233.433,418.924a.453.453,0,0,1-.226-.846l35.982-20.747a.453.453,0,1,1,.453.785l-35.982,20.748A.455.455,0,0,1,233.433,418.924Z" transform="translate(-232.98 -397.271)" fill="#455a64"/>
            </g>
            <g id="Grupo_128822" data-name="Grupo 128822" transform="translate(9.192 43.276)">
              <path id="Trazado_188709" data-name="Trazado 188709" d="M233.438,427.452a.453.453,0,0,1-.226-.845l35.982-20.748a.453.453,0,1,1,.453.785l-35.982,20.748A.456.456,0,0,1,233.438,427.452Z" transform="translate(-232.985 -405.799)" fill="#455a64"/>
            </g>
            <g id="Grupo_128823" data-name="Grupo 128823" transform="translate(11.425 66.36)">
              <path id="Trazado_188710" data-name="Trazado 188710" d="M244.7,431.3v1.05l-8.572,4.943a.5.5,0,0,1-.226.063.448.448,0,0,1-.389-.226.457.457,0,0,1,.163-.625Z" transform="translate(-235.452 -431.301)" fill="#455a64"/>
            </g>
            <g id="Grupo_128824" data-name="Grupo 128824" transform="translate(16.549 74.815)">
              <path id="Trazado_188711" data-name="Trazado 188711" d="M245.239,440.641v.063a9.132,9.132,0,0,1-.054,1.014l-3.395,1.955a.43.43,0,0,1-.226.063.452.452,0,0,1-.226-.842Z" transform="translate(-241.112 -440.641)" fill="#455a64"/>
            </g>
          </g>
          <g id="Grupo_128826" data-name="Grupo 128826" transform="translate(58.04)">
            <path id="Trazado_188712" data-name="Trazado 188712" d="M221.645,158.267a2.783,2.783,0,0,0-1.259,2.181c0,.8.564,1.129,1.259.727a2.783,2.783,0,0,0,1.259-2.181C222.9,158.191,222.34,157.865,221.645,158.267Z" transform="translate(-215.772 -143.815)" fill="#dec13c"/>
            <path id="Trazado_188713" data-name="Trazado 188713" d="M215.685,143.875a2.784,2.784,0,0,0,2.479.44.768.768,0,0,0,.254-1.432,2.783,2.783,0,0,0-2.48-.439A.767.767,0,0,0,215.685,143.875Z" transform="translate(-215.289 -142.32)" fill="#dec13c"/>
            <path id="Trazado_188714" data-name="Trazado 188714" d="M221.645,183.081a2.783,2.783,0,0,0-1.259,2.181c0,.8.564,1.129,1.259.727a2.783,2.783,0,0,0,1.259-2.181C222.9,183,222.34,182.679,221.645,183.081Z" transform="translate(-215.772 -146.167)" fill="#dec13c"/>
            <path id="Trazado_188715" data-name="Trazado 188715" d="M221.645,199.624a2.783,2.783,0,0,0-1.259,2.181c0,.8.564,1.128,1.259.727a2.784,2.784,0,0,0,1.259-2.181C222.9,199.547,222.34,199.222,221.645,199.624Z" transform="translate(-215.772 -147.735)" fill="#dec13c"/>
            <path id="Trazado_188716" data-name="Trazado 188716" d="M221.645,216.166a2.786,2.786,0,0,0-1.259,2.182c0,.8.564,1.128,1.259.727a2.786,2.786,0,0,0,1.259-2.182C222.9,216.09,222.34,215.765,221.645,216.166Z" transform="translate(-215.772 -149.303)" fill="#dec13c"/>
            <path id="Trazado_188717" data-name="Trazado 188717" d="M221.645,232.709a2.784,2.784,0,0,0-1.259,2.181c0,.8.564,1.129,1.259.727a2.783,2.783,0,0,0,1.259-2.181C222.9,232.633,222.34,232.307,221.645,232.709Z" transform="translate(-215.772 -150.871)" fill="#dec13c"/>
            <path id="Trazado_188718" data-name="Trazado 188718" d="M221.645,249.252a2.783,2.783,0,0,0-1.259,2.181c0,.8.564,1.129,1.259.727a2.783,2.783,0,0,0,1.259-2.181C222.9,249.176,222.34,248.85,221.645,249.252Z" transform="translate(-215.772 -152.439)" fill="#dec13c"/>
            <path id="Trazado_188719" data-name="Trazado 188719" d="M221.645,265.795a2.783,2.783,0,0,0-1.259,2.181c0,.8.564,1.128,1.259.727a2.784,2.784,0,0,0,1.259-2.181C222.9,265.719,222.34,265.393,221.645,265.795Z" transform="translate(-215.772 -154.006)" fill="#dec13c"/>
            <path id="Trazado_188720" data-name="Trazado 188720" d="M221.645,282.337a2.786,2.786,0,0,0-1.259,2.182c0,.8.564,1.128,1.259.727a2.786,2.786,0,0,0,1.259-2.182C222.9,282.261,222.34,281.936,221.645,282.337Z" transform="translate(-215.772 -155.574)" fill="#dec13c"/>
            <path id="Trazado_188721" data-name="Trazado 188721" d="M221.645,298.88a2.784,2.784,0,0,0-1.259,2.181c0,.8.564,1.129,1.259.727a2.783,2.783,0,0,0,1.259-2.181C222.9,298.8,222.34,298.478,221.645,298.88Z" transform="translate(-215.772 -157.142)" fill="#dec13c"/>
            <path id="Trazado_188722" data-name="Trazado 188722" d="M221.645,315.423a2.783,2.783,0,0,0-1.259,2.181c0,.8.564,1.129,1.259.727a2.783,2.783,0,0,0,1.259-2.181C222.9,315.347,222.34,315.021,221.645,315.423Z" transform="translate(-215.772 -158.71)" fill="#dec13c"/>
            <path id="Trazado_188723" data-name="Trazado 188723" d="M221.645,331.966a2.783,2.783,0,0,0-1.259,2.181c0,.8.564,1.128,1.259.727a2.784,2.784,0,0,0,1.259-2.181C222.9,331.889,222.34,331.564,221.645,331.966Z" transform="translate(-215.772 -160.278)" fill="#dec13c"/>
            <path id="Trazado_188724" data-name="Trazado 188724" d="M221.645,348.508a2.784,2.784,0,0,0-1.259,2.182c0,.8.564,1.128,1.259.727a2.786,2.786,0,0,0,1.259-2.182C222.9,348.432,222.34,348.107,221.645,348.508Z" transform="translate(-215.772 -161.846)" fill="#dec13c"/>
            <path id="Trazado_188725" data-name="Trazado 188725" d="M221.645,365.051a2.784,2.784,0,0,0-1.259,2.181c0,.8.564,1.129,1.259.727a2.783,2.783,0,0,0,1.259-2.181C222.9,364.975,222.34,364.65,221.645,365.051Z" transform="translate(-215.772 -163.414)" fill="#dec13c"/>
          </g>
          <g id="Grupo_128859" data-name="Grupo 128859" transform="translate(18.974 2.729)" opacity="0.5">
            <g id="Grupo_128827" data-name="Grupo 128827">
              <path id="Trazado_188726" data-name="Trazado 188726" d="M172.586,167.428a.453.453,0,0,1-.226-.845l36.7-21.187a.452.452,0,0,1,.453.783l-36.7,21.187A.448.448,0,0,1,172.586,167.428Z" transform="translate(-172.132 -145.335)" fill="#455a64"/>
            </g>
            <g id="Grupo_128828" data-name="Grupo 128828" transform="translate(3.358 6.465)">
              <path id="Trazado_188727" data-name="Trazado 188727" d="M176.3,174.569a.452.452,0,0,1-.226-.844l36.7-21.187a.452.452,0,0,1,.453.783l-36.7,21.187A.447.447,0,0,1,176.3,174.569Z" transform="translate(-175.842 -152.477)" fill="#455a64"/>
            </g>
            <g id="Grupo_128829" data-name="Grupo 128829" transform="translate(4.258 13.879)">
              <path id="Trazado_188728" data-name="Trazado 188728" d="M177.289,182.76a.453.453,0,0,1-.226-.845l36.7-21.187a.452.452,0,1,1,.453.783l-36.7,21.188A.457.457,0,0,1,177.289,182.76Z" transform="translate(-176.836 -160.666)" fill="#455a64"/>
            </g>
            <g id="Grupo_128830" data-name="Grupo 128830" transform="translate(4.258 21.392)">
              <path id="Trazado_188729" data-name="Trazado 188729" d="M177.289,191.059a.453.453,0,0,1-.226-.845l36.7-21.187a.452.452,0,1,1,.453.783L177.515,191A.448.448,0,0,1,177.289,191.059Z" transform="translate(-176.836 -168.966)" fill="#455a64"/>
            </g>
            <g id="Grupo_128831" data-name="Grupo 128831" transform="translate(4.258 28.904)">
              <path id="Trazado_188730" data-name="Trazado 188730" d="M177.289,199.359a.453.453,0,0,1-.226-.845l36.7-21.188a.452.452,0,1,1,.453.783l-36.7,21.188A.448.448,0,0,1,177.289,199.359Z" transform="translate(-176.836 -177.265)" fill="#455a64"/>
            </g>
            <g id="Grupo_128832" data-name="Grupo 128832" transform="translate(4.258 36.417)">
              <path id="Trazado_188731" data-name="Trazado 188731" d="M177.289,207.657a.452.452,0,0,1-.226-.844l36.7-21.188a.453.453,0,0,1,.453.784l-36.7,21.187A.447.447,0,0,1,177.289,207.657Z" transform="translate(-176.836 -185.565)" fill="#455a64"/>
            </g>
            <g id="Grupo_128833" data-name="Grupo 128833" transform="translate(4.258 43.929)">
              <path id="Trazado_188732" data-name="Trazado 188732" d="M177.289,215.956a.452.452,0,0,1-.226-.844l36.7-21.188a.453.453,0,0,1,.453.784l-36.7,21.187A.447.447,0,0,1,177.289,215.956Z" transform="translate(-176.836 -193.864)" fill="#455a64"/>
            </g>
            <g id="Grupo_128834" data-name="Grupo 128834" transform="translate(4.258 51.442)">
              <path id="Trazado_188733" data-name="Trazado 188733" d="M177.289,224.255a.453.453,0,0,1-.226-.845l36.7-21.187a.452.452,0,1,1,.453.783l-36.7,21.188A.447.447,0,0,1,177.289,224.255Z" transform="translate(-176.836 -202.162)" fill="#455a64"/>
            </g>
            <g id="Grupo_128835" data-name="Grupo 128835" transform="translate(4.258 58.954)">
              <path id="Trazado_188734" data-name="Trazado 188734" d="M177.289,232.555a.453.453,0,0,1-.226-.845l36.7-21.188a.452.452,0,1,1,.453.783l-36.7,21.188A.448.448,0,0,1,177.289,232.555Z" transform="translate(-176.836 -210.461)" fill="#455a64"/>
            </g>
            <g id="Grupo_128836" data-name="Grupo 128836" transform="translate(4.258 66.467)">
              <path id="Trazado_188735" data-name="Trazado 188735" d="M177.289,240.854a.453.453,0,0,1-.226-.845l36.7-21.187a.452.452,0,1,1,.453.783l-36.7,21.187A.448.448,0,0,1,177.289,240.854Z" transform="translate(-176.836 -218.761)" fill="#455a64"/>
            </g>
            <g id="Grupo_128837" data-name="Grupo 128837" transform="translate(4.258 73.98)">
              <path id="Trazado_188736" data-name="Trazado 188736" d="M177.289,249.153a.453.453,0,0,1-.226-.845l36.7-21.187a.452.452,0,1,1,.453.783l-36.7,21.187A.448.448,0,0,1,177.289,249.153Z" transform="translate(-176.836 -227.06)" fill="#455a64"/>
            </g>
            <g id="Grupo_128838" data-name="Grupo 128838" transform="translate(4.258 81.492)">
              <path id="Trazado_188737" data-name="Trazado 188737" d="M177.289,257.452a.452.452,0,0,1-.226-.844l36.7-21.189a.453.453,0,0,1,.453.784l-36.7,21.188A.447.447,0,0,1,177.289,257.452Z" transform="translate(-176.836 -235.359)" fill="#455a64"/>
            </g>
            <g id="Grupo_128839" data-name="Grupo 128839" transform="translate(4.258 89.005)">
              <path id="Trazado_188738" data-name="Trazado 188738" d="M177.289,265.751a.452.452,0,0,1-.226-.844l36.7-21.188a.453.453,0,0,1,.453.784l-36.7,21.187A.447.447,0,0,1,177.289,265.751Z" transform="translate(-176.836 -243.659)" fill="#455a64"/>
            </g>
            <g id="Grupo_128840" data-name="Grupo 128840" transform="translate(4.258 96.517)">
              <path id="Trazado_188739" data-name="Trazado 188739" d="M177.289,274.05a.453.453,0,0,1-.226-.845l36.7-21.187a.452.452,0,1,1,.453.783l-36.7,21.188A.447.447,0,0,1,177.289,274.05Z" transform="translate(-176.836 -251.957)" fill="#455a64"/>
            </g>
            <g id="Grupo_128841" data-name="Grupo 128841" transform="translate(4.258 104.029)">
              <path id="Trazado_188740" data-name="Trazado 188740" d="M177.289,282.349a.453.453,0,0,1-.226-.845l36.7-21.187a.452.452,0,1,1,.453.783l-36.7,21.187A.448.448,0,0,1,177.289,282.349Z" transform="translate(-176.836 -260.255)" fill="#455a64"/>
            </g>
            <g id="Grupo_128842" data-name="Grupo 128842" transform="translate(4.258 111.543)">
              <path id="Trazado_188741" data-name="Trazado 188741" d="M177.289,290.649a.453.453,0,0,1-.226-.845l36.7-21.187a.452.452,0,1,1,.453.783l-36.7,21.187A.448.448,0,0,1,177.289,290.649Z" transform="translate(-176.836 -268.556)" fill="#455a64"/>
            </g>
            <g id="Grupo_128843" data-name="Grupo 128843" transform="translate(4.258 119.055)">
              <path id="Trazado_188742" data-name="Trazado 188742" d="M177.289,298.947a.452.452,0,0,1-.226-.844l36.7-21.188a.453.453,0,0,1,.453.784l-36.7,21.187A.447.447,0,0,1,177.289,298.947Z" transform="translate(-176.836 -276.855)" fill="#455a64"/>
            </g>
            <g id="Grupo_128844" data-name="Grupo 128844" transform="translate(4.258 126.567)">
              <path id="Trazado_188743" data-name="Trazado 188743" d="M177.289,307.246a.452.452,0,0,1-.226-.844l36.7-21.188a.453.453,0,1,1,.453.784l-36.7,21.187A.447.447,0,0,1,177.289,307.246Z" transform="translate(-176.836 -285.154)" fill="#455a64"/>
            </g>
            <g id="Grupo_128845" data-name="Grupo 128845" transform="translate(4.258 134.08)">
              <path id="Trazado_188744" data-name="Trazado 188744" d="M177.289,315.546a.453.453,0,0,1-.226-.845l36.7-21.188a.452.452,0,1,1,.453.783l-36.7,21.189A.447.447,0,0,1,177.289,315.546Z" transform="translate(-176.836 -293.452)" fill="#455a64"/>
            </g>
            <g id="Grupo_128846" data-name="Grupo 128846" transform="translate(4.258 141.592)">
              <path id="Trazado_188745" data-name="Trazado 188745" d="M177.289,323.845a.453.453,0,0,1-.226-.845l36.7-21.187a.452.452,0,1,1,.453.783l-36.7,21.188A.457.457,0,0,1,177.289,323.845Z" transform="translate(-176.836 -301.752)" fill="#455a64"/>
            </g>
            <g id="Grupo_128847" data-name="Grupo 128847" transform="translate(4.258 149.105)">
              <path id="Trazado_188746" data-name="Trazado 188746" d="M177.289,332.144a.453.453,0,0,1-.226-.845l36.7-21.187a.452.452,0,1,1,.453.783l-36.7,21.187A.448.448,0,0,1,177.289,332.144Z" transform="translate(-176.836 -310.051)" fill="#455a64"/>
            </g>
            <g id="Grupo_128848" data-name="Grupo 128848" transform="translate(4.258 156.617)">
              <path id="Trazado_188747" data-name="Trazado 188747" d="M177.289,340.443a.453.453,0,0,1-.226-.845l36.7-21.187a.452.452,0,1,1,.453.783l-36.7,21.187A.448.448,0,0,1,177.289,340.443Z" transform="translate(-176.836 -318.349)" fill="#455a64"/>
            </g>
            <g id="Grupo_128849" data-name="Grupo 128849" transform="translate(4.258 164.13)">
              <path id="Trazado_188748" data-name="Trazado 188748" d="M177.289,348.742a.452.452,0,0,1-.226-.844l36.7-21.188a.453.453,0,1,1,.453.784l-36.7,21.187A.447.447,0,0,1,177.289,348.742Z" transform="translate(-176.836 -326.649)" fill="#455a64"/>
            </g>
            <g id="Grupo_128850" data-name="Grupo 128850" transform="translate(4.258 171.643)">
              <path id="Trazado_188749" data-name="Trazado 188749" d="M177.289,357.041a.452.452,0,0,1-.226-.844l36.7-21.188a.453.453,0,0,1,.453.784l-36.7,21.187A.447.447,0,0,1,177.289,357.041Z" transform="translate(-176.836 -334.949)" fill="#455a64"/>
            </g>
            <g id="Grupo_128851" data-name="Grupo 128851" transform="translate(4.258 179.155)">
              <path id="Trazado_188750" data-name="Trazado 188750" d="M177.289,365.34a.453.453,0,0,1-.226-.845l36.7-21.187a.452.452,0,1,1,.453.783l-36.7,21.188A.447.447,0,0,1,177.289,365.34Z" transform="translate(-176.836 -343.247)" fill="#455a64"/>
            </g>
            <g id="Grupo_128852" data-name="Grupo 128852" transform="translate(4.258 186.667)">
              <path id="Trazado_188751" data-name="Trazado 188751" d="M177.289,373.64a.453.453,0,0,1-.226-.845l36.7-21.188a.452.452,0,1,1,.453.783l-36.7,21.188A.448.448,0,0,1,177.289,373.64Z" transform="translate(-176.836 -351.546)" fill="#455a64"/>
            </g>
            <g id="Grupo_128853" data-name="Grupo 128853" transform="translate(4.258 194.18)">
              <path id="Trazado_188752" data-name="Trazado 188752" d="M177.289,381.939a.453.453,0,0,1-.226-.845l36.7-21.187a.452.452,0,1,1,.453.783l-36.7,21.187A.448.448,0,0,1,177.289,381.939Z" transform="translate(-176.836 -359.846)" fill="#455a64"/>
            </g>
            <g id="Grupo_128854" data-name="Grupo 128854" transform="translate(4.506 201.473)">
              <path id="Trazado_188753" data-name="Trazado 188753" d="M177.563,389.994a.452.452,0,0,1-.226-.844l36.7-21.188a.453.453,0,1,1,.453.784l-36.7,21.187A.447.447,0,0,1,177.563,389.994Z" transform="translate(-177.11 -367.902)" fill="#455a64"/>
            </g>
            <g id="Grupo_128855" data-name="Grupo 128855" transform="translate(6.488 208.703)">
              <path id="Trazado_188754" data-name="Trazado 188754" d="M179.753,397.982a.453.453,0,0,1-.226-.845l36.7-21.187a.452.452,0,0,1,.453.783l-36.7,21.187A.448.448,0,0,1,179.753,397.982Z" transform="translate(-179.299 -375.889)" fill="#455a64"/>
            </g>
            <g id="Grupo_128856" data-name="Grupo 128856" transform="translate(10.122 223.514)">
              <path id="Trazado_188755" data-name="Trazado 188755" d="M183.547,405.594l23.119-13.343v1.041L184,406.382a.519.519,0,0,1-.226.054.449.449,0,0,1-.226-.842Z" transform="translate(-183.315 -392.251)" fill="#455a64"/>
            </g>
            <g id="Grupo_128857" data-name="Grupo 128857" transform="translate(16.123 232.232)">
              <path id="Trazado_188756" data-name="Trazado 188756" d="M190.168,411.732l17.126-9.851v1.041l-16.673,9.588a.408.408,0,0,1-.226.063.452.452,0,0,1-.226-.842Z" transform="translate(-189.943 -401.881)" fill="#455a64"/>
            </g>
            <g id="Grupo_128858" data-name="Grupo 128858" transform="translate(23.502 239.872)">
              <path id="Trazado_188757" data-name="Trazado 188757" d="M198.32,415.894l9.747-5.573c-.009.362-.018.715-.036,1.059l-9.258,5.292a.408.408,0,0,1-.226.063.452.452,0,0,1-.226-.842Z" transform="translate(-198.095 -410.321)" fill="#455a64"/>
            </g>
          </g>
          <g id="Grupo_128860" data-name="Grupo 128860" transform="translate(0 49.019)" opacity="0.5">
            <path id="Trazado_188758" data-name="Trazado 188758" d="M159.5,196.471v1.041l-7.649,4.417a.409.409,0,0,1-.226.063.452.452,0,0,1-.226-.842Z" transform="translate(-151.172 -196.471)" fill="#455a64"/>
            <path id="Trazado_188759" data-name="Trazado 188759" d="M159.707,205.731v1.041l-5.667,3.268a.408.408,0,0,1-.226.063.452.452,0,0,1-.226-.842Z" transform="translate(-151.38 -197.349)" fill="#455a64"/>
          </g>
        </g>
      </g>
      <g id="Hand" transform="translate(124.923 104.062)">
        <g id="Grupo_128861" data-name="Grupo 128861">
          <path id="Trazado_188760" data-name="Trazado 188760" d="M224.013,154.525s-.624,5.683-.757,7.034-4.456,4.5-7.41,5.907-6.171,3.014-3.933,7.1c2.063,3.763,7.334,3.773,9.915,3.2s5.7-3.691,6.4-7.946c.884-5.43-1.046-10.719-.864-13.83S225.254,152.468,224.013,154.525Z" transform="translate(-211.165 -153.254)" fill="#b16668"/>
        </g>
      </g>
    </g>
  </g>
</svg>
