<svg xmlns="http://www.w3.org/2000/svg" xmlns:xlink="http://www.w3.org/1999/xlink" width="295" height="293.729" viewBox="0 0 295 293.729">
  <defs>
    <clipPath id="clip-path">
      <path id="Trazado_114819" data-name="Trazado 114819" d="M1755.3,156.861l-30.621,24.85-9.9-10.835-12.849,11.736c1.51,1.672,10.514,11.472,11.746,12.913a13.3,13.3,0,0,0,19.7.049l27.881-30.949Z" transform="translate(-1701.934 -156.861)" fill="#f4d2c6"/>
    </clipPath>
    <clipPath id="clip-path-2">
      <path id="Trazado_114823" data-name="Trazado 114823" d="M1588.752,194.119l10.8-7.228L1592,173.6c-6.386,3.765-16.892,7.668-16.745,16.643.577,3.669-4.252,44.426-.294,46.182h0c4.661,5.306,9.786.963,14.059-2.181l-5.972-.06Z" transform="translate(-1573.392 -173.598)" fill="#f4d2c6"/>
    </clipPath>
    <clipPath id="clip-path-3">
      <path id="Trazado_114827" data-name="Trazado 114827" d="M1624.646,235.5l2.838,148.757h10l20.966-149.091Z" transform="translate(-1624.646 -235.161)" fill="#324d90"/>
    </clipPath>
    <clipPath id="clip-path-4">
      <path id="Trazado_114830" data-name="Trazado 114830" d="M1694.931,235.5l-2.838,148.757h-10.479l-20.489-149.091Z" transform="translate(-1661.124 -235.161)" fill="#324d90"/>
    </clipPath>
    <clipPath id="clip-path-5">
      <path id="Trazado_114835" data-name="Trazado 114835" d="M1674.152,95.931c-.283,18.215-22.481,18.213-22.762,0C1649.371,77.285,1675.568,77.1,1674.152,95.931Z" transform="translate(-1651.278 -81.878)" fill="#f4d2c6"/>
    </clipPath>
    <clipPath id="clip-path-6">
      <path id="Trazado_114846" data-name="Trazado 114846" d="M1673.925,158.119c-2.245-14.958-13.667-22.452-26.465-20.794-10.219-.376-19.427,10.018-20.7,20.811l-8.34,55.094h63.846Z" transform="translate(-1618.421 -137.099)" fill="#4292f3"/>
    </clipPath>
  </defs>
  <g id="Grupo_80532" data-name="Grupo 80532" transform="translate(-1561.257 -32.036)">
    <g id="Grupo_80528" data-name="Grupo 80528" transform="translate(1561.257 32.036)">
      <g id="Grupo_80491" data-name="Grupo 80491" transform="translate(92.705 144.07)">
        <path id="Trazado_114797" data-name="Trazado 114797" d="M1836.239,263.579h-24.7a3.257,3.257,0,0,0-3.16,2.468l-30.442,121.913,2.242,0,30.192-120.914a1.536,1.536,0,0,1,1.489-1.163h24.385a1.154,1.154,0,0,0,1.154-1.154h0A1.154,1.154,0,0,0,1836.239,263.579Z" transform="translate(-1735.818 -263.579)" fill="#1b3f5e" style="isolation: isolate"/>
        <path id="Trazado_114798" data-name="Trazado 114798" d="M1977.676,263.74h-24.744a3.257,3.257,0,0,0-3.16,2.468l-30.442,121.914,2.241,0,30.193-120.915a1.534,1.534,0,0,1,1.488-1.162h24.424a1.154,1.154,0,0,0,1.154-1.154h0A1.154,1.154,0,0,0,1977.676,263.74Z" transform="translate(-1789.234 -263.64)" fill="#1b3f5e" style="isolation: isolate"/>
        <g id="Grupo_80490" data-name="Grupo 80490" transform="translate(0 53.134)">
          <g id="Grupo_80479" data-name="Grupo 80479" transform="translate(8.5 65.028)">
            <path id="Trazado_114799" data-name="Trazado 114799" d="M1813.17,465.562c-.05-4.708-1.846-10.1-6.574-11.757-2.171-.5-4.467-.147-6.681-.23-5.863-.857-10.048,4.328-10.165,11.987.118,7.659,4.3,12.842,10.165,11.986,2.215-.082,4.51.266,6.681-.229,4.7-1.6,6.555-7.148,6.574-11.757Z" transform="translate(-1748.782 -453.483)" fill="#102660"/>
            <path id="Trazado_114800" data-name="Trazado 114800" d="M1746.516,460.407c-1.065-3.292-3.665-6.78-7.422-6.8h0c-2.349.011-4.786.006-7.089,0-4.53.107-8.17,5.547-8.1,12.2.078,6.559,3.744,11.838,8.288,11.8q3.448-.013,6.9,0h0c5.744-.261,8.264-6.985,8.234-12h0A16.638,16.638,0,0,0,1746.516,460.407Z" transform="translate(-1723.907 -453.53)" fill="#102660"/>
          </g>
          <g id="Grupo_80482" data-name="Grupo 80482" transform="translate(8.5)">
            <g id="Grupo_80480" data-name="Grupo 80480" transform="translate(79.402)">
              <rect id="Rectángulo_33782" data-name="Rectángulo 33782" width="59.214" height="73.008" fill="#1b3f5e"/>
              <rect id="Rectángulo_33783" data-name="Rectángulo 33783" width="7.015" height="8.325" transform="translate(31.479)" fill="#fdf1e6"/>
            </g>
            <g id="Grupo_80481" data-name="Grupo 80481">
              <rect id="Rectángulo_33784" data-name="Rectángulo 33784" width="89.217" height="73.008" fill="#235168"/>
              <rect id="Rectángulo_33785" data-name="Rectángulo 33785" width="10.57" height="8.325" transform="translate(39.324)" fill="#fdf1e6"/>
            </g>
          </g>
          <g id="Grupo_80489" data-name="Grupo 80489" transform="translate(0 65.021)">
            <g id="Grupo_80483" data-name="Grupo 80483" transform="translate(0 7.347)">
              <rect id="Rectángulo_33786" data-name="Rectángulo 33786" width="155.616" height="4.164" fill="#324d90"/>
              <rect id="Rectángulo_33787" data-name="Rectángulo 33787" width="77.808" height="4.164" fill="#102660"/>
            </g>
            <g id="Grupo_80488" data-name="Grupo 80488" transform="translate(86.129)">
              <g id="Grupo_80485" data-name="Grupo 80485" transform="translate(40.969)">
                <path id="Trazado_114801" data-name="Trazado 114801" d="M1929.577,453.557q-2.7.014-5.408,0c-12.237-1.737-12.945,23.609-1.545,24q2.7-.015,5.408,0C1940.269,479.3,1940.976,453.95,1929.577,453.557Z" transform="translate(-1914.513 -453.472)" fill="#102660"/>
                <g id="Grupo_80484" data-name="Grupo 80484" transform="translate(6.83 0.241)">
                  <path id="Trazado_114802" data-name="Trazado 114802" d="M1941.957,465.7c-.214,15.794-16.254,15.792-16.467,0C1925.7,449.91,1941.744,449.912,1941.957,465.7Z" transform="translate(-1925.49 -453.859)" fill="#324d90"/>
                  <path id="Trazado_114803" data-name="Trazado 114803" d="M1939.883,470.125c-.077,6.085-5.829,6.085-5.906,0C1934.054,464.04,1939.806,464.04,1939.883,470.125Z" transform="translate(-1928.696 -458.28)" fill="#102660"/>
                </g>
              </g>
              <g id="Grupo_80487" data-name="Grupo 80487">
                <path id="Trazado_114804" data-name="Trazado 114804" d="M1863.734,453.557q-2.7.014-5.408,0c-12.237-1.737-12.944,23.609-1.544,24q2.7-.015,5.407,0C1874.426,479.3,1875.134,453.95,1863.734,453.557Z" transform="translate(-1848.67 -453.472)" fill="#102660"/>
                <g id="Grupo_80486" data-name="Grupo 80486" transform="translate(6.831 0.241)">
                  <path id="Trazado_114805" data-name="Trazado 114805" d="M1876.115,465.7c-.214,15.794-16.254,15.792-16.467,0C1859.862,449.91,1875.9,449.912,1876.115,465.7Z" transform="translate(-1859.648 -453.859)" fill="#324d90"/>
                  <path id="Trazado_114806" data-name="Trazado 114806" d="M1874.04,470.125c-.077,6.085-5.829,6.085-5.905,0C1868.212,464.04,1873.964,464.04,1874.04,470.125Z" transform="translate(-1862.854 -458.28)" fill="#102660"/>
                </g>
              </g>
            </g>
          </g>
        </g>
      </g>
      <g id="Grupo_80493" data-name="Grupo 80493" transform="translate(164.223 111.378)">
        <rect id="Rectángulo_33788" data-name="Rectángulo 33788" width="65.497" height="25.605" rx="12.802" fill="#2a437d"/>
        <g id="Grupo_80492" data-name="Grupo 80492" transform="translate(5.018 4.253)">
          <rect id="Rectángulo_33789" data-name="Rectángulo 33789" width="55.462" height="3.212" fill="#deeefc"/>
          <rect id="Rectángulo_33790" data-name="Rectángulo 33790" width="55.462" height="3.212" transform="translate(0 6.943)" fill="#deeefc"/>
          <rect id="Rectángulo_33791" data-name="Rectángulo 33791" width="36.818" height="3.212" transform="translate(0 13.887)" fill="#deeefc"/>
        </g>
      </g>
      <g id="Grupo_80494" data-name="Grupo 80494" transform="translate(192.818)">
        <path id="Trazado_114807" data-name="Trazado 114807" d="M1901.559,47.027c-4.468,37.889-25.955,37.855-30.414,0C1871.486,27.04,1901.22,27.039,1901.559,47.027Z" transform="translate(-1871.145 -32.036)" fill="#5376bc"/>
        <path id="Trazado_114808" data-name="Trazado 114808" d="M1898.783,49.972c-.183,10.7-16.1,10.7-16.28,0C1882.686,39.272,1898.6,39.273,1898.783,49.972Z" transform="translate(-1875.436 -35.78)" fill="#fff"/>
      </g>
      <g id="Grupo_80497" data-name="Grupo 80497" transform="translate(106.263 40.798)">
        <rect id="Rectángulo_33792" data-name="Rectángulo 33792" width="49.87" height="19.349" rx="9.188" transform="translate(2.207 2.349)" fill="#f0f8ff" style="isolation: isolate"/>
        <g id="Grupo_80496" data-name="Grupo 80496">
          <rect id="Rectángulo_33793" data-name="Rectángulo 33793" width="50.51" height="19.746" rx="9.873" fill="#2a437d"/>
          <g id="Grupo_80495" data-name="Grupo 80495" transform="translate(3.87 3.28)">
            <rect id="Rectángulo_33794" data-name="Rectángulo 33794" width="42.771" height="2.477" fill="#deeefc"/>
            <rect id="Rectángulo_33795" data-name="Rectángulo 33795" width="42.771" height="2.477" transform="translate(0 5.355)" fill="#deeefc"/>
            <rect id="Rectángulo_33796" data-name="Rectángulo 33796" width="28.394" height="2.477" transform="translate(0 10.709)" fill="#deeefc"/>
          </g>
        </g>
      </g>
      <g id="Grupo_80500" data-name="Grupo 80500" transform="translate(221.641 52.906)">
        <g id="Grupo_80499" data-name="Grupo 80499">
          <rect id="Rectángulo_33797" data-name="Rectángulo 33797" width="45.245" height="17.687" rx="8.844" fill="#2a437d"/>
          <g id="Grupo_80498" data-name="Grupo 80498" transform="translate(3.466 2.938)">
            <rect id="Rectángulo_33798" data-name="Rectángulo 33798" width="38.312" height="2.219" fill="#deeefc"/>
            <rect id="Rectángulo_33799" data-name="Rectángulo 33799" width="38.312" height="2.219" transform="translate(0 4.796)" fill="#deeefc"/>
            <rect id="Rectángulo_33800" data-name="Rectángulo 33800" width="25.434" height="2.219" transform="translate(0 9.593)" fill="#deeefc"/>
          </g>
        </g>
      </g>
      <g id="Grupo_80504" data-name="Grupo 80504" transform="translate(121.687 118.133)">
        <g id="Grupo_80503" data-name="Grupo 80503" transform="translate(8.641)">
          <g id="Grupo_80501" data-name="Grupo 80501" transform="translate(116.023)">
            <path id="Trazado_114809" data-name="Trazado 114809" d="M1980.182,221.894l-9.3,18.71a.494.494,0,0,1-.895-.022l-2.394-5.467Z" transform="translate(-1961.114 -221.894)" fill="#1b3f5e" opacity="0.8" style="isolation: isolate"/>
            <path id="Trazado_114810" data-name="Trazado 114810" d="M1963.66,235.114l-6.48-2.153,19.068-11.066Z" transform="translate(-1957.18 -221.894)" fill="#1b3f5e"/>
            <path id="Trazado_114811" data-name="Trazado 114811" d="M1982.609,221.894l-8.592,14.679,7.718,2.585Z" transform="translate(-1963.541 -221.894)" fill="#1b3f5e"/>
          </g>
          <g id="Grupo_80502" data-name="Grupo 80502" transform="translate(0 22.44)">
            <path id="Trazado_114812" data-name="Trazado 114812" d="M1969.739,258.9l-.244-.092q.161-.428.319-.854l.245.09Q1969.9,258.476,1969.739,258.9Z" transform="translate(-1845.809 -257.959)" fill="#1b3f5e"/>
            <path id="Trazado_114813" data-name="Trazado 114813" d="M1773.447,306.674l-.044-.257a13.286,13.286,0,0,0,1.761-.433l.079.248A13.5,13.5,0,0,1,1773.447,306.674Zm2.544-.7-.092-.244a17.2,17.2,0,0,0,1.663-.737l.117.233A17.352,17.352,0,0,1,1775.991,305.972Zm2.388-1.119-.126-.228c.507-.281,1.018-.59,1.561-.946l.143.218C1779.409,304.256,1778.892,304.568,1778.379,304.853Zm2.234-1.4-.148-.215c.464-.32.95-.67,1.484-1.071l.157.208C1781.568,302.784,1781.08,303.136,1780.613,303.458Zm2.119-1.554-.158-.207c.507-.39,1.011-.787,1.443-1.129l.162.2C1783.746,301.115,1783.24,301.513,1782.732,301.9Zm2.063-1.618-.162-.2c.461-.365.957-.754,1.447-1.129l.159.207C1785.75,299.533,1785.256,299.922,1784.8,300.286Zm2.07-1.6-.156-.209c.544-.405.994-.727,1.5-1.068l.146.216C1787.852,297.964,1787.405,298.283,1786.865,298.685Zm2.142-1.492-.141-.22c.518-.334,1.047-.655,1.574-.954l.129.227C1790.046,296.544,1789.521,296.862,1789.007,297.193Zm2.247-1.327-.124-.23c.54-.291,1.094-.569,1.644-.827l.111.236C1792.338,295.3,1791.79,295.578,1791.254,295.867Zm48.989-.063h-.167v-.261c.612,0,1.233-.014,1.824-.053l.017.26C1841.375,295.785,1840.81,295.8,1840.243,295.8Zm-.956-.017c-.611-.021-1.227-.067-1.837-.115l.021-.259c.606.048,1.217.093,1.824.114Zm3.42-.1-.026-.259c.621-.063,1.228-.152,1.8-.264l.051.256C1843.952,295.529,1843.337,295.619,1842.707,295.683Zm-6.042-.078c-.589-.053-1.2-.116-1.827-.186l.029-.259c.622.07,1.235.132,1.822.185Zm-2.609-.278c-.584-.07-1.2-.15-1.821-.236l.035-.258c.624.086,1.235.165,1.817.235Zm11.25-.081-.062-.253a14.6,14.6,0,0,0,1.737-.533l.093.244A14.887,14.887,0,0,1,1845.307,295.246Zm-13.851-.265q-.908-.131-1.815-.273l.04-.258q.905.141,1.812.272Zm25.957-.072v-.261c.587,0,1.2-.027,1.823-.073l.02.26C1858.625,294.882,1858,294.907,1857.413,294.909Zm-.791-.011c-.635-.02-1.254-.068-1.841-.144l.034-.259c.578.075,1.188.122,1.815.142Zm3.419-.133-.027-.259c.588-.06,1.2-.139,1.811-.236l.041.257C1861.248,294.625,1860.633,294.7,1860.041,294.765Zm-66.443-.041-.1-.239c.561-.245,1.135-.477,1.707-.688l.09.245C1794.725,294.251,1794.155,294.481,1793.6,294.724Zm60.4-.09a13.9,13.9,0,0,1-1.8-.441l.079-.248a13.693,13.693,0,0,0,1.763.432Zm-25.135-.049q-.906-.145-1.811-.3l.043-.258q.9.15,1.809.3Zm18.946-.187-.108-.238a10.415,10.415,0,0,0,1.579-.882l.147.215A10.708,10.708,0,0,1,1847.809,294.4Zm14.836,0-.047-.256c.6-.108,1.2-.232,1.788-.374l.061.254C1863.85,294.162,1863.25,294.286,1862.644,294.394Zm-36.369-.234-1.808-.307.044-.257,1.808.306Zm25.177-.233a10.121,10.121,0,0,1-1.66-.832l.139-.22.033.021-.066-.082a7.931,7.931,0,0,0,1.255-1.288l.207.159a8.252,8.252,0,0,1-1.254,1.3,10.151,10.151,0,0,0,1.442.7Zm13.758-.105-.068-.251c.584-.157,1.172-.335,1.746-.528l.083.247C1866.392,293.485,1865.8,293.665,1865.211,293.823Zm-69.181-.043-.085-.247c.576-.2,1.168-.38,1.759-.544l.07.251C1797.187,293.4,1796.6,293.584,1796.03,293.78Zm27.661-.057-1.809-.3.043-.257q.9.149,1.809.3Zm-2.585-.431q-.906-.147-1.81-.287l.039-.258q.905.139,1.813.287Zm-22.577-.253-.064-.253c.589-.149,1.193-.283,1.8-.4l.05.256C1799.713,292.759,1799.113,292.892,1798.529,293.039Zm69.188-.011-.09-.245c.566-.207,1.136-.435,1.694-.678l.1.24C1868.863,292.59,1868.288,292.82,1867.717,293.029Zm-49.2-.141c-.639-.095-1.233-.179-1.814-.256l.034-.259c.583.078,1.178.162,1.818.256Zm30.622-.253a8.4,8.4,0,0,1-1.331-1.3l.2-.165a8.169,8.169,0,0,0,1.29,1.259Zm-33.217-.1c-.624-.078-1.236-.149-1.819-.21l.027-.259c.585.061,1.2.132,1.824.211Zm-14.843-.029-.043-.257c.6-.1,1.208-.19,1.821-.263l.031.259C1802.281,292.314,1801.672,292.4,1801.08,292.5Zm12.242-.259c-.621-.059-1.235-.108-1.824-.148l.017-.261c.593.04,1.208.09,1.832.149Zm-9.655-.085-.026-.259c.6-.058,1.215-.1,1.835-.136l.014.261C1804.873,292.054,1804.26,292.1,1803.667,292.158Zm7.047-.111c-.622-.034-1.237-.057-1.829-.07l.006-.261c.595.013,1.213.037,1.837.071Zm59.43-.024-.11-.236c.546-.254,1.094-.529,1.631-.817l.123.23C1871.247,291.489,1870.694,291.766,1870.143,292.023Zm-63.871-.034-.009-.261c.6-.021,1.224-.029,1.839-.024l0,.261C1807.492,291.961,1806.869,291.969,1806.272,291.989Zm45.543-.96-.222-.138a6.88,6.88,0,0,0,.748-1.631l.25.075A7.145,7.145,0,0,1,1851.815,291.029Zm20.662-.21-.129-.227c.524-.3,1.05-.615,1.563-.945l.142.22C1873.535,290.2,1873.006,290.519,1872.477,290.819Zm-25.141-.126a6.685,6.685,0,0,1-.809-1.681l.249-.077a6.394,6.394,0,0,0,.778,1.615Zm27.376-1.259-.146-.217c.5-.336,1-.693,1.491-1.059l.156.209C1875.72,288.735,1875.215,289.094,1874.712,289.433Zm-21.94-.878-.257-.043a4.922,4.922,0,0,0-.016-1.776l.256-.052A5.193,5.193,0,0,1,1852.773,288.555Zm-6.428-.326a4.382,4.382,0,0,1,.081-1.874l.251.071a4.119,4.119,0,0,0-.074,1.762Zm30.5-.342-.16-.206c.474-.37.95-.76,1.415-1.16l.17.2C1877.8,287.121,1877.318,287.514,1876.841,287.887Zm2.019-1.688-.174-.195c.448-.4.9-.82,1.34-1.248l.182.187C1879.765,285.374,1879.311,285.8,1878.86,286.2Zm-26.581-.19a3.435,3.435,0,0,0-1.04-1.4l.158-.207a3.7,3.7,0,0,1,1.122,1.51Zm-5.316-.279-.228-.126a3.529,3.529,0,0,1,1.313-1.347l.131.225A3.271,3.271,0,0,0,1846.964,285.729Zm33.807-1.341-.185-.184c.424-.427.85-.872,1.266-1.324l.192.177C1881.625,283.511,1881.2,283.959,1880.77,284.387Zm-30.181-.146a2.7,2.7,0,0,0-1.718-.057l-.072-.25a2.952,2.952,0,0,1,1.883.064Zm31.985-1.771-.195-.174c.4-.449.8-.917,1.194-1.389l.2.167C1883.38,281.549,1882.977,282.019,1882.574,282.47Zm1.7-2.008-.2-.164c.377-.469.756-.955,1.126-1.445l.208.157C1885.033,279.5,1884.653,279.991,1884.275,280.462Zm1.6-2.086-.211-.154c.357-.488.715-.991,1.06-1.494l.215.147C1886.593,277.382,1886.235,277.886,1885.876,278.377Zm1.507-2.153-.217-.145c.335-.5.671-1.017,1-1.536l.221.139C1888.056,275.2,1887.719,275.721,1887.383,276.223Zm1.417-2.211-.222-.136c.316-.514.632-1.043.939-1.572l.225.131C1889.435,272.966,1889.118,273.5,1888.8,274.012Zm1.333-2.26-.227-.129c.3-.526.594-1.065.882-1.6l.229.123C1890.729,270.684,1890.431,271.225,1890.133,271.753Zm1.252-2.3-.232-.121c.279-.535.557-1.083.827-1.631l.234.116C1891.944,268.362,1891.665,268.912,1891.385,269.449Zm1.174-2.344-.234-.113c.262-.545.525-1.1.778-1.659l.237.108C1893.086,266,1892.824,266.558,1892.56,267.105Zm1.1-2.382-.239-.106c.246-.551.49-1.117.728-1.682l.24.1C1894.155,263.6,1893.91,264.171,1893.664,264.723Zm1.032-2.414-.241-.1c.231-.562.459-1.134.679-1.7l.243.095C1895.157,261.172,1894.928,261.747,1894.7,262.31Z" transform="translate(-1771.729 -258.922)" fill="#1b3f5e"/>
            <path id="Trazado_114814" data-name="Trazado 114814" d="M1770.722,334.788l-.009-.261c.3-.01.6-.031.9-.063l.027.259C1771.338,334.756,1771.029,334.778,1770.722,334.788Z" transform="translate(-1770.713 -286.861)" fill="#1b3f5e"/>
          </g>
        </g>
        <path id="Trazado_114815" data-name="Trazado 114815" d="M1763.639,329.222a8.683,8.683,0,0,1-1.747-.605l.11-.236a8.449,8.449,0,0,0,1.7.587Zm-2.451-.975a8.958,8.958,0,0,1-1.492-1.092l.175-.194a8.738,8.738,0,0,0,1.449,1.061Zm-2.056-1.651a8.6,8.6,0,0,1-1.1-1.488l.225-.131a8.328,8.328,0,0,0,1.066,1.442Zm-1.468-2.191a8.911,8.911,0,0,1-.6-1.747l.254-.059a8.712,8.712,0,0,0,.588,1.7Zm-.751-2.527a8.711,8.711,0,0,1-.065-1.849l.26.019a8.424,8.424,0,0,0,.063,1.793Z" transform="translate(-1756.826 -258.968)" fill="#1b3f5e"/>
      </g>
      <path id="Trazado_114816" data-name="Trazado 114816" d="M1856.257,492.733c-96.891,1.4-198.11,1.391-295,0C1561.257,492.733,1759.367,491.33,1856.257,492.733Z" transform="translate(-1561.257 -205.843)" fill="#102660"/>
      <g id="Grupo_80527" data-name="Grupo 80527" transform="translate(0 24.403)">
        <g id="Grupo_80510" data-name="Grupo 80510" transform="translate(87.532 50.99)">
          <g id="Grupo_80506" data-name="Grupo 80506" transform="translate(0 2.276)">
            <path id="Trazado_114817" data-name="Trazado 114817" d="M1755.3,156.861l-30.621,24.85-9.9-10.835-12.849,11.736c1.51,1.672,10.514,11.472,11.746,12.913a13.3,13.3,0,0,0,19.7.049l27.881-30.949Z" transform="translate(-1701.934 -156.861)" fill="#f4d2c6"/>
            <g id="Grupo_80505" data-name="Grupo 80505" clip-path="url(#clip-path)">
              <path id="Trazado_114818" data-name="Trazado 114818" d="M1727.771,194.291l-8.392,18.236-9.264-8.169,14.654-14.2,3,4.131" transform="translate(-1705.025 -169.441)" fill="#eda19d"/>
            </g>
          </g>
          <g id="Grupo_80509" data-name="Grupo 80509" transform="translate(39.144 6.463)">
            <g id="Grupo_80507" data-name="Grupo 80507">
              <rect id="Rectángulo_33801" data-name="Rectángulo 33801" width="33.884" height="47.383" rx="11.835" transform="translate(0 1.044)" fill="#324d90"/>
              <rect id="Rectángulo_33802" data-name="Rectángulo 33802" width="27.253" height="40.122" transform="translate(3.316 4.687)" fill="#f3f5fb"/>
              <rect id="Rectángulo_33803" data-name="Rectángulo 33803" width="11.63" height="5.809" rx="2.905" transform="translate(11.127)" fill="#152e60"/>
            </g>
            <g id="Grupo_80508" data-name="Grupo 80508" transform="translate(5.626 11.382)">
              <rect id="Rectángulo_33804" data-name="Rectángulo 33804" width="22.633" height="2.729" fill="#e3eaf4"/>
              <rect id="Rectángulo_33805" data-name="Rectángulo 33805" width="22.633" height="2.729" transform="translate(0 5.995)" fill="#e3eaf4"/>
              <rect id="Rectángulo_33806" data-name="Rectángulo 33806" width="22.633" height="2.729" transform="translate(0 11.989)" fill="#e3eaf4"/>
              <rect id="Rectángulo_33807" data-name="Rectángulo 33807" width="22.633" height="2.729" transform="translate(0 17.984)" fill="#e3eaf4"/>
              <rect id="Rectángulo_33808" data-name="Rectángulo 33808" width="15.869" height="2.729" transform="translate(0 23.979)" fill="#e3eaf4"/>
            </g>
          </g>
          <path id="Trazado_114820" data-name="Trazado 114820" d="M1784.924,158.545c-.427,3.589,2.508,5.45,5.3,6.856,4.076,2.5,9.73-1.6,8.5-6.26-.439-3.3-2.549-4.9-5.632-5.663C1789.643,152.362,1785.213,154.76,1784.924,158.545Z" transform="translate(-1733.27 -153.203)" fill="#f4d2c6"/>
        </g>
        <rect id="Rectángulo_33809" data-name="Rectángulo 33809" width="37.557" height="22.854" transform="translate(68.16 62.89) rotate(152.32)" fill="#4292f3"/>
        <g id="Grupo_80512" data-name="Grupo 80512" transform="translate(7.551 63.68)">
          <path id="Trazado_114821" data-name="Trazado 114821" d="M1588.752,194.119l10.8-7.228L1592,173.6c-6.386,3.765-16.892,7.668-16.745,16.643.577,3.669-4.252,44.426-.294,46.182h0c4.661,5.306,9.786.963,14.059-2.181l-5.972-.06Z" transform="translate(-1573.392 -173.598)" fill="#f4d2c6"/>
          <g id="Grupo_80511" data-name="Grupo 80511" clip-path="url(#clip-path-2)">
            <path id="Trazado_114822" data-name="Trazado 114822" d="M1595.664,171.835l3.906,15.634,8.956-5.831-6.134-13.378Z" transform="translate(-1581.806 -171.581)" fill="#eda19d"/>
          </g>
        </g>
        <rect id="Rectángulo_33810" data-name="Rectángulo 33810" width="37.557" height="22.854" transform="translate(84.31 47.55) rotate(45)" fill="#4292f3"/>
        <path id="Trazado_114824" data-name="Trazado 114824" d="M1711.66,200.6l-4.458-24.415,7.535,21.338Z" transform="translate(-1616.392 -110.897)" fill="#3c7ed7"/>
        <g id="Grupo_80514" data-name="Grupo 80514" transform="translate(39.442 101.986)">
          <path id="Trazado_114825" data-name="Trazado 114825" d="M1624.646,235.5l2.838,148.757h10l20.966-149.091Z" transform="translate(-1624.646 -235.161)" fill="#324d90"/>
          <g id="Grupo_80513" data-name="Grupo 80513" clip-path="url(#clip-path-3)">
            <path id="Trazado_114826" data-name="Trazado 114826" d="M1657.769,299.375c-14.535,19.309-18.913,83.364-20.06,111.155h8.776l10.854-68.151.43-43" transform="translate(-1629.581 -259.42)" fill="#2a437d"/>
          </g>
        </g>
        <g id="Grupo_80516" data-name="Grupo 80516" transform="translate(62.139 101.986)">
          <path id="Trazado_114828" data-name="Trazado 114828" d="M1694.931,235.5l-2.838,148.757h-10.479l-20.489-149.091Z" transform="translate(-1661.124 -235.161)" fill="#324d90"/>
          <g id="Grupo_80515" data-name="Grupo 80515" clip-path="url(#clip-path-4)">
            <path id="Trazado_114829" data-name="Trazado 114829" d="M1669.949,299.375c12.359,15.7,19.174,87.751,19.475,110.285h-8.063l-11.412-110.285" transform="translate(-1664.458 -259.42)" fill="#2a437d"/>
          </g>
        </g>
        <g id="Grupo_80523" data-name="Grupo 80523" transform="translate(53.244)">
          <g id="Grupo_80522" data-name="Grupo 80522" transform="translate(0.579 6.61)">
            <g id="Grupo_80521" data-name="Grupo 80521">
              <g id="Grupo_80517" data-name="Grupo 80517" transform="translate(0 10.336)">
                <path id="Trazado_114831" data-name="Trazado 114831" d="M1651.866,101.632c.769,4.623-3.209,5.3-4.009.681C1647.088,97.69,1651.065,97.014,1651.866,101.632Z" transform="translate(-1647.759 -98.488)" fill="#eda19d"/>
                <path id="Trazado_114832" data-name="Trazado 114832" d="M1685.076,101.632c-.769,4.623,3.209,5.3,4.01.681C1689.854,97.69,1685.876,97.014,1685.076,101.632Z" transform="translate(-1661.819 -98.488)" fill="#eda19d"/>
              </g>
              <g id="Grupo_80520" data-name="Grupo 80520" transform="translate(2.19)">
                <g id="Grupo_80519" data-name="Grupo 80519">
                  <path id="Trazado_114833" data-name="Trazado 114833" d="M1674.152,95.931c-.283,18.215-22.481,18.213-22.762,0C1649.371,77.285,1675.568,77.1,1674.152,95.931Z" transform="translate(-1651.278 -81.878)" fill="#f4d2c6"/>
                  <g id="Grupo_80518" data-name="Grupo 80518" clip-path="url(#clip-path-5)">
                    <path id="Trazado_114834" data-name="Trazado 114834" d="M1653.039,90.556s8.6,1.779,20.137-1.424h0l-1.248-4.122-16.787.6-2.1,4.246" transform="translate(-1651.943 -83.061)" fill="#eda19d"/>
                  </g>
                </g>
                <path id="Trazado_114836" data-name="Trazado 114836" d="M1671.043,109.84h-11.8c1.423,4.062-1.682,24.409-1.682,24.409h15.161S1669.62,113.9,1671.043,109.84Z" transform="translate(-1653.653 -92.441)" fill="#f4d2c6"/>
              </g>
            </g>
            <path id="Trazado_114837" data-name="Trazado 114837" d="M1660.328,123.685a9.98,9.98,0,0,0,11.475,0l.322,3.69s-6.6,3.084-12.122.039Z" transform="translate(-1652.384 -97.672)" fill="#eda19d"/>
          </g>
          <path id="Trazado_114838" data-name="Trazado 114838" d="M1653.507,82.1s14.883,1.482,18.722-.808,3.031-10.035,3.031-10.035C1673.077,71.6,1648.352,71,1653.507,82.1Z" transform="translate(-1649.085 -71.255)" fill="#59445a"/>
          <path id="Trazado_114839" data-name="Trazado 114839" d="M1651.534,80.688s-4.158,1.248-4.657,2.952,2.985,8.294,2.985,8.294h0a2.028,2.028,0,0,0,1.956-1.569l1.3-5.561Z" transform="translate(-1646.828 -74.819)" fill="#59445a"/>
          <path id="Trazado_114840" data-name="Trazado 114840" d="M1684.1,80.688s4.157,1.248,4.656,2.952-2.985,8.294-2.985,8.294a2.054,2.054,0,0,1-1.957-1.57c-.025-.109-1.294-5.56-1.294-5.56Z" transform="translate(-1660.311 -74.819)" fill="#59445a"/>
          <path id="Trazado_114841" data-name="Trazado 114841" d="M1682.517,85.7s3.358-1.944,3.436-3.878C1685.953,81.822,1687.22,86.486,1682.517,85.7Z" transform="translate(-1660.311 -75.247)" fill="#34254b"/>
        </g>
        <path id="Trazado_114842" data-name="Trazado 114842" d="M1622.578,474.773l-1.1,3.867-11.925,5.111a3.863,3.863,0,0,0-2.341,3.551h24.626l-.934-12.529Z" transform="translate(-1578.617 -223.696)" fill="#152e60"/>
        <path id="Trazado_114843" data-name="Trazado 114843" d="M1701.808,474.773l1.1,3.867,11.924,5.111a3.862,3.862,0,0,1,2.342,3.551h-24.626l.934-12.529Z" transform="translate(-1610.858 -223.696)" fill="#152e60"/>
        <g id="Grupo_80525" data-name="Grupo 80525" transform="translate(35.569 40.969)">
          <path id="Trazado_114844" data-name="Trazado 114844" d="M1673.925,158.119c-2.245-14.958-13.667-22.452-26.465-20.794-10.219-.376-19.427,10.018-20.7,20.811l-8.34,55.094h63.846Z" transform="translate(-1618.421 -137.099)" fill="#4292f3"/>
          <g id="Grupo_80524" data-name="Grupo 80524" clip-path="url(#clip-path-6)">
            <path id="Trazado_114845" data-name="Trazado 114845" d="M1641.028,229.74l11.756-12.594-24.626-39.981,8.4,37.12-25.225,17.746Z" transform="translate(-1615.745 -152.235)" fill="#3c7ed7"/>
          </g>
        </g>
        <g id="Grupo_80526" data-name="Grupo 80526" transform="translate(0 65.9)">
          <rect id="Rectángulo_33811" data-name="Rectángulo 33811" width="52.536" height="43.259" transform="translate(0 21.396) rotate(-24.033)" fill="#f3ac4a"/>
          <rect id="Rectángulo_33812" data-name="Rectángulo 33812" width="8.167" height="6.504" transform="translate(20.261 12.361) rotate(-24.032)" fill="#fdf1e6"/>
        </g>
        <path id="Trazado_114847" data-name="Trazado 114847" d="M1582.966,265.343c2.537.556,7.427.392,7.9,3.855l-7.9.4Z" transform="translate(-1569.458 -144.578)" fill="#f4d2c6"/>
        <path id="Trazado_114848" data-name="Trazado 114848" d="M1659.055,137.282c2.3,6.834,11,6.832,13.306,0C1672.361,137.282,1666.67,134.2,1659.055,137.282Z" transform="translate(-1598.203 -95.682)" fill="#f4d2c6"/>
        <path id="Trazado_114849" data-name="Trazado 114849" d="M1625.041,259.474h55.976l-55.733,10.83Z" transform="translate(-1585.354 -142.36)" fill="#2a437d"/>
        <path id="Trazado_114850" data-name="Trazado 114850" d="M1657.737,138.113l6.348,5.145-2.628,1.662c-4.192,2.2-4.873-3.6-5.892-6.189A9.229,9.229,0,0,1,1657.737,138.113Z" transform="translate(-1596.885 -96.513)" fill="#f3f5fb"/>
        <path id="Trazado_114851" data-name="Trazado 114851" d="M1671.814,143.136l2.472,1.534a2.913,2.913,0,0,0,4.4-1.923l.766-3.971s-1.732-.574-2.266-.662Z" transform="translate(-1603.023 -96.513)" fill="#f3f5fb"/>
      </g>
    </g>
    <g id="Grupo_80531" data-name="Grupo 80531" transform="translate(1777.169 275.216)">
      <g id="Grupo_80529" data-name="Grupo 80529" transform="translate(0 0)">
        <rect id="Rectángulo_33813" data-name="Rectángulo 33813" width="41.839" height="50.549" fill="#235168"/>
        <rect id="Rectángulo_33814" data-name="Rectángulo 33814" width="6.465" height="4.904" transform="translate(17.687)" fill="#fdfdfd"/>
      </g>
      <g id="Grupo_80530" data-name="Grupo 80530" transform="translate(41.839 0)">
        <rect id="Rectángulo_33815" data-name="Rectángulo 33815" width="21.854" height="50.549" fill="#1b3f5e"/>
        <rect id="Rectángulo_33816" data-name="Rectángulo 33816" width="5.538" height="4.904" transform="translate(9.331)" fill="#fdfdfd"/>
      </g>
    </g>
  </g>
</svg>
