<svg xmlns="http://www.w3.org/2000/svg" width="190" height="105.561" viewBox="0 0 190 105.561">
  <g id="Grupo_129279" data-name="Grupo 129279" transform="translate(-3696.201 -1810.885)">
    <ellipse id="Elipse_5043" data-name="Elipse 5043" cx="69.72" cy="20.514" rx="69.72" ry="20.514" transform="translate(3723.854 1875.419)" fill="#dde2e7"/>
    <g id="Grupo_128234" data-name="Grupo 128234" transform="translate(3737.868 1835.566)">
      <g id="Grupo_128227" data-name="Grupo 128227" transform="translate(11.778 29.936)">
        <path id="Trazado_187694" data-name="Trazado 187694" d="M3936.282,2056.783c0,8.166-22.3,14.785-49.814,14.785s-49.814-6.62-49.814-14.785,22.3-14.786,49.814-14.786S3936.282,2048.618,3936.282,2056.783Z" transform="translate(-3836.65 -2041.998)" fill="#fdca50"/>
        <ellipse id="Elipse_5044" data-name="Elipse 5044" cx="38.035" cy="11.289" rx="38.035" ry="11.289" transform="translate(11.783 3.496)" fill="#bf6718"/>
        <path id="Trazado_187695" data-name="Trazado 187695" d="M3976.432,2070.14c0,5.883-16.07,10.653-35.89,10.653s-35.89-4.77-35.89-10.653,16.069-10.653,35.89-10.653S3976.432,2064.257,3976.432,2070.14Z" transform="translate(-3888.579 -2055.354)" fill="#f5a23d"/>
        <path id="Trazado_187696" data-name="Trazado 187696" d="M4008.13,2076.54c-4.136-1.27-10.629-1.409-14.927-1.5a8.41,8.41,0,0,1-3.779-.64c-.545-.39-.072-.9,1.267-1.356a21.876,21.876,0,0,1,6.031-.662,29,29,0,0,1,5.464.369,8.889,8.889,0,0,0,4.506.374c1.642-.262,2.255-.87,1.372-1.357-1.754-.966-6.28-1.255-8.492-1.34v-.9c0-.553-1.511-1-3.374-1s-3.375.448-3.375,1v.992a30.007,30.007,0,0,0-7.235,1.216c-3.045,1.044-3.944,2.328-2.4,3.434,1.5,1.075,5.063,1.776,9.527,1.87,3.469.075,8.219.177,10.561.9,1.242.381,1.871.9,1.773,1.461s-.937,1.108-2.3,1.5a31.493,31.493,0,0,1-10.387.658c-1.618-.153-4.432-.566-5.084-1.6-.344-.544-2.11-.9-3.939-.8s-3.039.625-2.7,1.169c.949,1.5,4.471,2.648,9.665,3.141.828.078,1.667.135,2.513.176v.918c0,.553,1.511,1,3.375,1s3.374-.449,3.374-1v-.985a39.11,39.11,0,0,0,7.864-1.236c2.616-.749,4.163-1.755,4.354-2.835C4011.987,2078.376,4010.687,2077.325,4008.13,2076.54Z" transform="translate(-3946.569 -2062.253)" fill="#d38319"/>
        <path id="Trazado_187697" data-name="Trazado 187697" d="M4018.007,2076.54c-4.135-1.27-10.63-1.409-14.927-1.5a8.407,8.407,0,0,1-3.778-.64c-.545-.39-.071-.9,1.266-1.356a21.841,21.841,0,0,1,6.031-.662,29.01,29.01,0,0,1,5.464.369,8.89,8.89,0,0,0,4.506.374c1.641-.262,2.255-.87,1.372-1.357-1.755-.966-6.281-1.255-8.492-1.34v-.9c0-.554-1.51-1-3.374-1s-3.375.448-3.375,1v.992a30.012,30.012,0,0,0-7.235,1.216c-3.045,1.044-3.943,2.328-2.4,3.434,1.5,1.075,5.063,1.776,9.528,1.87,3.468.075,8.218.177,10.559.9,1.242.381,1.871.9,1.773,1.461s-.938,1.108-2.3,1.5a31.49,31.49,0,0,1-10.386.658c-1.618-.153-4.431-.566-5.084-1.6-.344-.545-2.111-.9-3.939-.8s-3.038.625-2.7,1.169c.948,1.5,4.471,2.648,9.665,3.141.827.078,1.668.135,2.513.176v.918c0,.553,1.51,1,3.375,1s3.374-.449,3.374-1v-.985a39.109,39.109,0,0,0,7.864-1.236c2.616-.749,4.162-1.755,4.353-2.835C4021.863,2078.376,4020.564,2077.325,4018.007,2076.54Z" transform="translate(-3954.112 -2062.253)" fill="#fdca50"/>
        <path id="Trazado_187698" data-name="Trazado 187698" d="M3849.7,2098.624l-10.355,1.9c-1.755-1.509-2.709-3.126-2.709-4.81,0-.127.009-.249.019-.373l12.891-2.366a4.235,4.235,0,0,0-1.128,2.739A4.356,4.356,0,0,0,3849.7,2098.624Z" transform="translate(-3836.64 -2080.926)" fill="#fff051"/>
        <path id="Trazado_187699" data-name="Trazado 187699" d="M4109.672,2050.949l-10.345,1.9a91.614,91.614,0,0,0-16.96-2.569l12.9-2.365A95.853,95.853,0,0,1,4109.672,2050.949Z" transform="translate(-4024.296 -2046.515)" fill="#fff051"/>
        <path id="Trazado_187700" data-name="Trazado 187700" d="M3872.261,2126.31l-10.038,1.84a30.688,30.688,0,0,1-4.164-2.076l10.075-1.848A23.864,23.864,0,0,0,3872.261,2126.31Z" transform="translate(-3852.998 -2104.794)" fill="#bf6718"/>
        <path id="Trazado_187701" data-name="Trazado 187701" d="M4186.767,2068.618l-10.036,1.845a27.1,27.1,0,0,0-4.445-2.029l10.075-1.849A34.813,34.813,0,0,1,4186.767,2068.618Z" transform="translate(-4092.965 -2060.775)" fill="#bf6718"/>
        <path id="Trazado_187702" data-name="Trazado 187702" d="M3931.646,2144.864l-12.909,2.368a101.514,101.514,0,0,1-12.13-2.39l10.578-1.94A97.668,97.668,0,0,0,3931.646,2144.864Z" transform="translate(-3890.072 -2119.056)" fill="#f59e1c"/>
        <path id="Trazado_187703" data-name="Trazado 187703" d="M4216.248,2091.9c0,.125-.009.252-.019.374l-12.978,2.38a4.136,4.136,0,0,0,1.216-2.755,3.655,3.655,0,0,0-.617-1.97l10.625-1.948A5.8,5.8,0,0,1,4216.248,2091.9Z" transform="translate(-4116.612 -2077.116)" fill="#f59e1c"/>
        <path id="Trazado_187704" data-name="Trazado 187704" d="M3886.468,2119.35c-27.512,0-49.814-6.62-49.814-14.785v11.651c0,8.166,22.3,14.786,49.814,14.786s49.814-6.62,49.814-14.786l-.177-10.448C3934.04,2113.37,3912.614,2119.35,3886.468,2119.35Z" transform="translate(-3836.65 -2089.779)" fill="#f5a54a"/>
        <g id="Grupo_128225" data-name="Grupo 128225" transform="translate(6.533 22.1)">
          <path id="Trazado_187705" data-name="Trazado 187705" d="M3864.283,2147.168a45.5,45.5,0,0,0,7.76,3.046v-11.651a45.562,45.562,0,0,1-7.76-3.046Z" transform="translate(-3864.283 -2135.516)" fill="#c05836"/>
          <path id="Trazado_187706" data-name="Trazado 187706" d="M3950.927,2160q-4.057-.434-7.76-1.065v11.651q3.7.626,7.76,1.065Z" transform="translate(-3924.525 -2153.398)" fill="#fdca50"/>
          <path id="Trazado_187707" data-name="Trazado 187707" d="M3913.825,2152.863q-2.015-.422-3.879-.9v11.651q1.863.478,3.879.9Z" transform="translate(-3899.155 -2148.078)" fill="#fff051"/>
        </g>
        <g id="Grupo_128226" data-name="Grupo 128226" transform="translate(69.141 23.399)">
          <path id="Trazado_187708" data-name="Trazado 187708" d="M4129.21,2168.329c3.635-.455,7.046-1.034,10.179-1.72v-11.654c-3.133.685-6.544,1.265-10.179,1.719Z" transform="translate(-4129.21 -2151.66)" fill="#fdca50"/>
          <path id="Trazado_187709" data-name="Trazado 187709" d="M4195.149,2141.012a58.447,58.447,0,0,1-7.279,2.406v11.656a58.475,58.475,0,0,0,7.279-2.406Z" transform="translate(-4174.008 -2141.012)" fill="#fff051"/>
        </g>
      </g>
      <g id="Grupo_128230" data-name="Grupo 128230" transform="translate(0 18.608)">
        <path id="Trazado_187710" data-name="Trazado 187710" d="M3886.441,2008.847c0,8.166-22.3,14.786-49.814,14.786s-49.815-6.62-49.815-14.786,22.3-14.785,49.815-14.785S3886.441,2000.682,3886.441,2008.847Z" transform="translate(-3786.809 -1994.062)" fill="#fdca50"/>
        <path id="Trazado_187711" data-name="Trazado 187711" d="M3912.727,2020.146c0,6.235-17.029,11.289-38.035,11.289s-38.035-5.054-38.035-11.289,17.029-11.289,38.035-11.289S3912.727,2013.911,3912.727,2020.146Z" transform="translate(-3824.874 -2005.361)" fill="#bf6718"/>
        <ellipse id="Elipse_5045" data-name="Elipse 5045" cx="35.89" cy="10.652" rx="35.89" ry="10.652" transform="translate(16.073 4.133)" fill="#f5a23d"/>
        <path id="Trazado_187712" data-name="Trazado 187712" d="M3958.289,2028.6c-4.136-1.27-10.63-1.409-14.928-1.5a8.421,8.421,0,0,1-3.778-.64c-.545-.39-.072-.9,1.266-1.356a21.85,21.85,0,0,1,6.031-.663,28.964,28.964,0,0,1,5.465.37,8.879,8.879,0,0,0,4.505.373c1.642-.262,2.255-.869,1.372-1.357-1.754-.966-6.28-1.256-8.492-1.34v-.9c0-.554-1.511-1-3.375-1s-3.375.448-3.375,1v.992a30.024,30.024,0,0,0-7.234,1.216c-3.046,1.044-3.944,2.328-2.4,3.434,1.5,1.076,5.063,1.776,9.527,1.871,3.468.074,8.219.176,10.56.9,1.242.381,1.872.9,1.773,1.46s-.937,1.109-2.3,1.5a31.5,31.5,0,0,1-10.386.659c-1.619-.153-4.432-.566-5.084-1.6-.344-.543-2.111-.9-3.939-.8s-3.039.625-2.7,1.168c.949,1.5,4.471,2.648,9.665,3.14.828.079,1.668.136,2.513.177v.919c0,.553,1.511,1,3.375,1s3.375-.448,3.375-1v-.985a39.237,39.237,0,0,0,7.863-1.236c2.617-.75,4.163-1.757,4.354-2.836C3962.145,2030.436,3960.846,2029.386,3958.289,2028.6Z" transform="translate(-3896.728 -2014.314)" fill="#d38319"/>
        <path id="Trazado_187713" data-name="Trazado 187713" d="M3968.165,2028.6c-4.135-1.27-10.629-1.409-14.927-1.5a8.406,8.406,0,0,1-3.778-.64c-.546-.39-.072-.9,1.265-1.356a21.847,21.847,0,0,1,6.031-.663,28.967,28.967,0,0,1,5.465.37,8.9,8.9,0,0,0,4.507.373c1.641-.262,2.254-.87,1.371-1.357-1.754-.967-6.281-1.256-8.492-1.34v-.9c0-.554-1.51-1-3.374-1s-3.374.448-3.374,1v.992a30.037,30.037,0,0,0-7.235,1.216c-3.046,1.044-3.943,2.328-2.4,3.434,1.5,1.076,5.064,1.776,9.528,1.871,3.468.075,8.218.177,10.56.9,1.243.381,1.871.9,1.773,1.46s-.937,1.109-2.3,1.5a31.507,31.507,0,0,1-10.387.659c-1.618-.153-4.431-.566-5.084-1.6-.344-.543-2.11-.9-3.939-.8s-3.038.625-2.7,1.168c.949,1.5,4.471,2.648,9.666,3.14.827.079,1.667.136,2.513.177v.919c0,.553,1.51,1,3.374,1s3.374-.448,3.374-1v-.985a39.25,39.25,0,0,0,7.864-1.236c2.617-.75,4.163-1.757,4.353-2.836C3972.022,2030.436,3970.722,2029.386,3968.165,2028.6Z" transform="translate(-3904.27 -2014.314)" fill="#fdca50"/>
        <path id="Trazado_187714" data-name="Trazado 187714" d="M3799.864,2050.687l-10.355,1.9c-1.755-1.509-2.709-3.125-2.709-4.811,0-.126.009-.248.019-.372l12.891-2.366a4.232,4.232,0,0,0-1.128,2.738A4.36,4.36,0,0,0,3799.864,2050.687Z" transform="translate(-3786.799 -2032.989)" fill="#fff051"/>
        <path id="Trazado_187715" data-name="Trazado 187715" d="M4059.831,2003.011l-10.345,1.9a91.719,91.719,0,0,0-16.959-2.57l12.9-2.364A96.01,96.01,0,0,1,4059.831,2003.011Z" transform="translate(-3974.457 -1998.578)" fill="#fff051"/>
        <path id="Trazado_187716" data-name="Trazado 187716" d="M3822.42,2078.373l-10.037,1.839a30.817,30.817,0,0,1-4.165-2.074l10.075-1.849A23.892,23.892,0,0,0,3822.42,2078.373Z" transform="translate(-3803.156 -2056.857)" fill="#bf6718"/>
        <path id="Trazado_187717" data-name="Trazado 187717" d="M4136.928,2020.68l-10.036,1.846a27.134,27.134,0,0,0-4.445-2.029l10.075-1.848A35.13,35.13,0,0,1,4136.928,2020.68Z" transform="translate(-4043.125 -2012.839)" fill="#bf6718"/>
        <path id="Trazado_187718" data-name="Trazado 187718" d="M3881.806,2096.927l-12.91,2.367a101.374,101.374,0,0,1-12.129-2.391l10.577-1.939A97.728,97.728,0,0,0,3881.806,2096.927Z" transform="translate(-3840.232 -2071.118)" fill="#f59e1c"/>
        <path id="Trazado_187719" data-name="Trazado 187719" d="M4166.407,2043.962c0,.126-.009.252-.019.375l-12.978,2.381a4.148,4.148,0,0,0,1.215-2.756,3.65,3.65,0,0,0-.617-1.969l10.625-1.949A5.8,5.8,0,0,1,4166.407,2043.962Z" transform="translate(-4066.773 -2029.177)" fill="#f59e1c"/>
        <path id="Trazado_187720" data-name="Trazado 187720" d="M3836.627,2071.412c-27.512,0-49.815-6.62-49.815-14.786v11.651c0,8.167,22.3,14.786,49.815,14.786s49.814-6.619,49.814-14.786l-.177-10.448C3884.2,2065.432,3862.773,2071.412,3836.627,2071.412Z" transform="translate(-3786.809 -2041.841)" fill="#f5a54a"/>
        <g id="Grupo_128228" data-name="Grupo 128228" transform="translate(6.533 22.1)">
          <path id="Trazado_187721" data-name="Trazado 187721" d="M3814.443,2099.229a45.494,45.494,0,0,0,7.759,3.047v-11.651a45.414,45.414,0,0,1-7.759-3.047Z" transform="translate(-3814.443 -2087.578)" fill="#c05836"/>
          <path id="Trazado_187722" data-name="Trazado 187722" d="M3901.086,2112.057q-4.057-.433-7.76-1.065v11.651q3.7.625,7.76,1.065Z" transform="translate(-3874.685 -2105.458)" fill="#fdca50"/>
          <path id="Trazado_187723" data-name="Trazado 187723" d="M3863.984,2104.925q-2.016-.421-3.88-.9v11.651q1.864.478,3.88.9Z" transform="translate(-3849.313 -2100.14)" fill="#fff051"/>
        </g>
        <g id="Grupo_128229" data-name="Grupo 128229" transform="translate(69.141 23.398)">
          <path id="Trazado_187724" data-name="Trazado 187724" d="M4079.371,2120.39c3.633-.455,7.045-1.035,10.18-1.72v-11.655c-3.134.686-6.546,1.265-10.18,1.719Z" transform="translate(-4079.371 -2103.72)" fill="#fdca50"/>
          <path id="Trazado_187725" data-name="Trazado 187725" d="M4145.309,2093.073a58.737,58.737,0,0,1-7.279,2.407v11.654a58.319,58.319,0,0,0,7.279-2.4Z" transform="translate(-4124.167 -2093.073)" fill="#fff051"/>
        </g>
      </g>
      <g id="Grupo_128233" data-name="Grupo 128233" transform="translate(3.526 0)">
        <path id="Trazado_187726" data-name="Trazado 187726" d="M3901.358,1936.938c0,8.165-22.3,14.786-49.815,14.786s-49.815-6.62-49.815-14.786,22.3-14.786,49.815-14.786S3901.358,1928.772,3901.358,1936.938Z" transform="translate(-3801.726 -1920.538)" fill="#fdca50"/>
        <path id="Trazado_187727" data-name="Trazado 187727" d="M3927.644,1948.235c0,6.234-17.029,11.289-38.036,11.289s-38.035-5.055-38.035-11.289,17.03-11.29,38.035-11.29S3927.644,1942,3927.644,1948.235Z" transform="translate(-3839.791 -1931.835)" fill="#bf6718"/>
        <path id="Trazado_187728" data-name="Trazado 187728" d="M3941.508,1950.292c0,5.883-16.07,10.653-35.891,10.653s-35.89-4.77-35.89-10.653,16.069-10.653,35.89-10.653S3941.508,1944.409,3941.508,1950.292Z" transform="translate(-3853.655 -1933.893)" fill="#f5a23d"/>
        <path id="Trazado_187729" data-name="Trazado 187729" d="M3973.207,1956.693c-4.135-1.27-10.63-1.41-14.927-1.5a8.415,8.415,0,0,1-3.778-.64c-.545-.391-.072-.9,1.266-1.357a21.877,21.877,0,0,1,6.031-.662,28.916,28.916,0,0,1,5.464.369,8.892,8.892,0,0,0,4.506.373c1.642-.262,2.255-.87,1.372-1.357-1.754-.966-6.281-1.256-8.491-1.34v-.9c0-.553-1.511-1-3.375-1s-3.375.449-3.375,1v.992a30.013,30.013,0,0,0-7.235,1.216c-3.046,1.044-3.943,2.328-2.4,3.434,1.5,1.075,5.064,1.776,9.528,1.871,3.468.074,8.218.177,10.56.9,1.242.381,1.872.9,1.773,1.461s-.938,1.109-2.3,1.5a31.505,31.505,0,0,1-10.386.659c-1.619-.153-4.432-.565-5.085-1.6-.343-.543-2.109-.9-3.938-.8s-3.039.625-2.7,1.169c.949,1.5,4.472,2.648,9.666,3.14.826.078,1.667.136,2.512.177v.919c0,.553,1.511,1,3.375,1s3.375-.448,3.375-1v-.985a39.1,39.1,0,0,0,7.863-1.236c2.617-.75,4.163-1.756,4.353-2.835C3977.063,1958.529,3975.764,1957.478,3973.207,1956.693Z" transform="translate(-3911.646 -1940.792)" fill="#d38319"/>
        <path id="Trazado_187730" data-name="Trazado 187730" d="M3983.083,1956.693c-4.136-1.269-10.63-1.409-14.928-1.5a8.411,8.411,0,0,1-3.778-.64c-.545-.39-.072-.9,1.266-1.356a21.858,21.858,0,0,1,6.032-.662,28.877,28.877,0,0,1,5.463.369,8.9,8.9,0,0,0,4.507.373c1.641-.262,2.254-.87,1.371-1.357-1.754-.966-6.28-1.256-8.491-1.34v-.9c0-.554-1.511-1-3.374-1s-3.375.448-3.375,1v.992a30.026,30.026,0,0,0-7.235,1.216c-3.045,1.044-3.942,2.328-2.4,3.434,1.5,1.075,5.064,1.776,9.527,1.871,3.469.074,8.218.177,10.56.9,1.242.381,1.872.9,1.773,1.461s-.937,1.109-2.3,1.5a31.509,31.509,0,0,1-10.387.659c-1.618-.153-4.432-.565-5.085-1.6-.344-.544-2.109-.9-3.938-.8s-3.039.625-2.7,1.169c.949,1.5,4.472,2.648,9.666,3.14.827.078,1.667.136,2.513.177v.919c0,.553,1.511,1,3.375,1s3.374-.448,3.374-1v-.985a39.109,39.109,0,0,0,7.864-1.236c2.616-.75,4.163-1.756,4.353-2.835C3986.939,1958.529,3985.639,1957.478,3983.083,1956.693Z" transform="translate(-3919.188 -1940.792)" fill="#fdca50"/>
        <path id="Trazado_187731" data-name="Trazado 187731" d="M3814.782,1978.776l-10.354,1.9c-1.755-1.508-2.709-3.125-2.709-4.811,0-.126.01-.249.019-.372l12.891-2.367a4.232,4.232,0,0,0-1.128,2.739A4.361,4.361,0,0,0,3814.782,1978.776Z" transform="translate(-3801.719 -1959.464)" fill="#fff051"/>
        <path id="Trazado_187732" data-name="Trazado 187732" d="M4074.749,1931.1,4064.4,1933a91.654,91.654,0,0,0-16.959-2.569l12.9-2.364A95.813,95.813,0,0,1,4074.749,1931.1Z" transform="translate(-3989.374 -1925.056)" fill="#fff051"/>
        <path id="Trazado_187733" data-name="Trazado 187733" d="M3837.34,2006.464l-10.037,1.84a30.72,30.72,0,0,1-4.164-2.075l10.075-1.848A23.876,23.876,0,0,0,3837.34,2006.464Z" transform="translate(-3818.077 -1983.335)" fill="#bf6718"/>
        <path id="Trazado_187734" data-name="Trazado 187734" d="M4151.847,1948.771l-10.038,1.845a27.017,27.017,0,0,0-4.444-2.029l10.075-1.849A35.01,35.01,0,0,1,4151.847,1948.771Z" transform="translate(-4058.044 -1939.315)" fill="#bf6718"/>
        <path id="Trazado_187735" data-name="Trazado 187735" d="M3896.726,2025.016l-12.91,2.367a101.423,101.423,0,0,1-12.129-2.39l10.577-1.94A97.671,97.671,0,0,0,3896.726,2025.016Z" transform="translate(-3855.152 -1997.595)" fill="#f59e1c"/>
        <path id="Trazado_187736" data-name="Trazado 187736" d="M4181.325,1972.055c0,.126-.008.251-.019.375l-12.977,2.38a4.139,4.139,0,0,0,1.215-2.755,3.658,3.658,0,0,0-.617-1.97l10.625-1.948A5.794,5.794,0,0,1,4181.325,1972.055Z" transform="translate(-4081.691 -1955.657)" fill="#f59e1c"/>
        <path id="Trazado_187737" data-name="Trazado 187737" d="M3851.544,1999.5c-27.512,0-49.815-6.62-49.815-14.786v11.651c0,8.166,22.3,14.785,49.815,14.785s49.814-6.619,49.814-14.785l-.177-10.449C3899.117,1993.523,3877.689,1999.5,3851.544,1999.5Z" transform="translate(-3801.726 -1968.318)" fill="#f5a54a"/>
        <g id="Grupo_128231" data-name="Grupo 128231" transform="translate(6.532 23.714)">
          <path id="Trazado_187738" data-name="Trazado 187738" d="M3829.357,2027.321a45.48,45.48,0,0,0,7.76,3.046v-11.651a45.52,45.52,0,0,1-7.76-3.046Z" transform="translate(-3829.357 -2015.67)" fill="#c05836"/>
          <path id="Trazado_187739" data-name="Trazado 187739" d="M3916.006,2040.148q-4.057-.434-7.76-1.065v11.651q3.7.626,7.76,1.065Z" transform="translate(-3889.603 -2033.55)" fill="#fdca50"/>
          <path id="Trazado_187740" data-name="Trazado 187740" d="M3878.9,2033.016q-2.016-.421-3.88-.9v11.651q1.863.476,3.88.9Z" transform="translate(-3864.232 -2028.232)" fill="#fff051"/>
        </g>
        <path id="Trazado_187741" data-name="Trazado 187741" d="M4109.515,1927.805c-10.743.96-11.521,1.737-12.481,12.481-.959-10.744-1.738-11.521-12.481-12.481,10.744-.959,11.522-1.737,12.481-12.481C4097.994,1926.068,4098.772,1926.846,4109.515,1927.805Z" transform="translate(-4017.712 -1915.324)" fill="#fff"/>
        <g id="Grupo_128232" data-name="Grupo 128232" transform="translate(69.14 25.013)">
          <path id="Trazado_187742" data-name="Trazado 187742" d="M4094.285,2048.481c3.635-.455,7.046-1.034,10.181-1.719v-11.655c-3.134.686-6.546,1.265-10.181,1.719Z" transform="translate(-4094.285 -2031.812)" fill="#fdca50"/>
          <path id="Trazado_187743" data-name="Trazado 187743" d="M4160.226,2021.166a58.533,58.533,0,0,1-7.28,2.406v11.656a58.681,58.681,0,0,0,7.28-2.406Z" transform="translate(-4139.083 -2021.166)" fill="#fff051"/>
        </g>
      </g>
      <path id="Trazado_187744" data-name="Trazado 187744" d="M3858.646,2068.613c-10.743.96-11.521,1.737-12.48,12.48-.96-10.744-1.738-11.52-12.481-12.48,10.743-.959,11.521-1.737,12.481-12.481C3847.125,2066.876,3847.9,2067.654,3858.646,2068.613Z" transform="translate(-3822.604 -2022.856)" fill="#fff"/>
    </g>
    <g id="Grupo_128239" data-name="Grupo 128239" transform="translate(3696.201 1810.885)">
      <path id="Trazado_187745" data-name="Trazado 187745" d="M4093.1,1812.047a1.163,1.163,0,0,1-1.163,1.163h-23.678a1.163,1.163,0,0,1-1.163-1.163h0a1.163,1.163,0,0,1,1.163-1.162h23.678a1.162,1.162,0,0,1,1.163,1.162Z" transform="translate(-3979.443 -1810.885)" fill="#c0c6cc"/>
      <g id="Grupo_128235" data-name="Grupo 128235" transform="translate(0 45.341)">
        <path id="Trazado_187746" data-name="Trazado 187746" d="M3727.512,1935.335a1.162,1.162,0,0,1,1.163-1.163h11.258a1.162,1.162,0,0,1,1.162,1.163h0a1.162,1.162,0,0,1-1.162,1.163h-11.258a1.163,1.163,0,0,1-1.163-1.163Z" transform="translate(-3720.112 -1934.172)" fill="#c0c6cc"/>
        <path id="Trazado_187747" data-name="Trazado 187747" d="M3696.2,1935.335a1.163,1.163,0,0,1,1.163-1.163h2.537a1.162,1.162,0,0,1,1.162,1.163h0a1.162,1.162,0,0,1-1.162,1.163h-2.537a1.163,1.163,0,0,1-1.163-1.163Z" transform="translate(-3696.2 -1934.172)" fill="#c0c6cc"/>
      </g>
      <g id="Grupo_128236" data-name="Grupo 128236" transform="translate(169.018 58.61)">
        <path id="Trazado_187748" data-name="Trazado 187748" d="M4300.7,2060.056a1.162,1.162,0,0,1-1.162,1.162h-11.258a1.161,1.161,0,0,1-1.162-1.162h0a1.162,1.162,0,0,1,1.162-1.163h11.258a1.162,1.162,0,0,1,1.162,1.163Z" transform="translate(-4287.115 -2058.893)" fill="#c0c6cc"/>
        <path id="Trazado_187749" data-name="Trazado 187749" d="M4360.187,2060.056a1.163,1.163,0,0,1-1.163,1.162h-2.537a1.161,1.161,0,0,1-1.162-1.162h0a1.161,1.161,0,0,1,1.162-1.163h2.537a1.163,1.163,0,0,1,1.163,1.163Z" transform="translate(-4339.205 -2058.893)" fill="#c0c6cc"/>
      </g>
      <g id="Grupo_128237" data-name="Grupo 128237" transform="translate(161.991 21.493)">
        <path id="Trazado_187750" data-name="Trazado 187750" d="M4269.927,1902.993a1.162,1.162,0,0,1-1.162,1.163H4258.54a1.162,1.162,0,0,1-1.162-1.163h0a1.162,1.162,0,0,1,1.162-1.162h10.226a1.161,1.161,0,0,1,1.162,1.162Z" transform="translate(-4257.377 -1901.831)" fill="#c0c6cc"/>
        <path id="Trazado_187751" data-name="Trazado 187751" d="M4326.082,1902.993a1.163,1.163,0,0,1-1.164,1.163h-2.537a1.162,1.162,0,0,1-1.163-1.163h0a1.162,1.162,0,0,1,1.163-1.162h2.537a1.162,1.162,0,0,1,1.164,1.162Z" transform="translate(-4306.132 -1901.831)" fill="#c0c6cc"/>
      </g>
      <g id="Grupo_128238" data-name="Grupo 128238" transform="translate(21.797 10.093)">
        <path id="Trazado_187752" data-name="Trazado 187752" d="M3793.3,1820.471a1.162,1.162,0,0,1-1.163,1.162H3789.6a1.162,1.162,0,0,1-1.163-1.162h0a1.162,1.162,0,0,1,1.163-1.163h2.537a1.162,1.162,0,0,1,1.163,1.163Z" transform="translate(-3788.435 -1819.309)" fill="#c0c6cc"/>
        <path id="Trazado_187753" data-name="Trazado 187753" d="M3832.534,1820.471a1.162,1.162,0,0,1-1.163,1.162h-7.331a1.162,1.162,0,0,1-1.164-1.162h0a1.162,1.162,0,0,1,1.164-1.163h7.331a1.162,1.162,0,0,1,1.163,1.163Z" transform="translate(-3814.738 -1819.309)" fill="#c0c6cc"/>
      </g>
    </g>
  </g>
</svg>
