<svg xmlns="http://www.w3.org/2000/svg" xmlns:xlink="http://www.w3.org/1999/xlink" width="510.253" height="360.581" viewBox="0 0 510.253 360.581">
  <defs>
    <linearGradient id="linear-gradient" x1="0.499" y1="0.441" x2="0.518" y2="0.939" gradientUnits="objectBoundingBox">
      <stop offset="0" stop-color="#4042e2"/>
      <stop offset="1" stop-color="#4f52ff"/>
    </linearGradient>
    <linearGradient id="linear-gradient-2" x1="0.475" y1="0.185" x2="0.551" y2="1.273" xlink:href="#linear-gradient"/>
    <linearGradient id="linear-gradient-3" x1="0.387" y1="1.084" x2="0.565" y2="0.172" xlink:href="#linear-gradient"/>
    <linearGradient id="linear-gradient-4" x1="0.541" y1="0.849" x2="0.626" y2="1.561" xlink:href="#linear-gradient"/>
    <linearGradient id="linear-gradient-5" x1="0.515" y1="4.474" x2="0.531" y2="8.118" gradientUnits="objectBoundingBox">
      <stop offset="0" stop-color="#09005d"/>
      <stop offset="1" stop-color="#1a0f91"/>
    </linearGradient>
    <linearGradient id="linear-gradient-6" x1="0.604" y1="1.164" x2="0.341" y2="-0.58" gradientUnits="objectBoundingBox">
      <stop offset="0" stop-color="#ff928e"/>
      <stop offset="1" stop-color="#feb3b1"/>
    </linearGradient>
    <linearGradient id="linear-gradient-7" x1="0.523" y1="3.704" x2="0.55" y2="7.135" xlink:href="#linear-gradient-5"/>
    <linearGradient id="linear-gradient-8" x1="0.661" y1="1.13" x2="0.376" y2="-0.791" xlink:href="#linear-gradient-6"/>
    <linearGradient id="linear-gradient-9" x1="0" y1="0.5" x2="1" y2="0.5" xlink:href="#linear-gradient"/>
    <linearGradient id="linear-gradient-10" x1="-4.759" y1="2.369" x2="-3.377" y2="1.878" xlink:href="#linear-gradient"/>
    <linearGradient id="linear-gradient-11" x1="0.747" y1="0.161" x2="0.154" y2="1.632" xlink:href="#linear-gradient-5"/>
    <linearGradient id="linear-gradient-13" x1="0" y1="0.5" x2="1" y2="0.5" xlink:href="#linear-gradient-6"/>
    <linearGradient id="linear-gradient-15" x1="0.668" y1="0.262" x2="0.253" y2="1.286" xlink:href="#linear-gradient-6"/>
    <linearGradient id="linear-gradient-16" x1="1.216" y1="0.492" x2="-0.053" y2="0.506" xlink:href="#linear-gradient-6"/>
    <linearGradient id="linear-gradient-17" x1="0" y1="0.5" x2="1" y2="0.5" xlink:href="#linear-gradient-5"/>
    <linearGradient id="linear-gradient-18" x1="0.185" y1="1.276" x2="-0.864" y2="4.226" xlink:href="#linear-gradient-6"/>
    <linearGradient id="linear-gradient-20" x1="-0.281" y1="0.954" x2="1.881" y2="-0.303" xlink:href="#linear-gradient-5"/>
    <linearGradient id="linear-gradient-21" x1="0.509" y1="0.127" x2="0.756" y2="-20.757" xlink:href="#linear-gradient-5"/>
    <linearGradient id="linear-gradient-22" x1="0.34" y1="4.039" x2="0.537" y2="-0.315" xlink:href="#linear-gradient-5"/>
    <linearGradient id="linear-gradient-23" x1="0.434" y1="0.469" x2="0.261" y2="1.17" gradientUnits="objectBoundingBox">
      <stop offset="0" stop-color="#ff928e"/>
      <stop offset="0.477" stop-color="#ffa29f"/>
      <stop offset="1" stop-color="#feb3b1"/>
    </linearGradient>
    <linearGradient id="linear-gradient-24" x1="0.532" y1="0.006" x2="0.327" y2="3.202" xlink:href="#linear-gradient-5"/>
    <linearGradient id="linear-gradient-26" y1="0.5" x2="1" y2="0.5" gradientUnits="objectBoundingBox">
      <stop offset="0" stop-color="#e1473d"/>
      <stop offset="1" stop-color="#e9605a"/>
    </linearGradient>
    <linearGradient id="linear-gradient-27" x1="0.554" y1="-2.158" x2="0.395" y2="6.275" xlink:href="#linear-gradient-5"/>
    <linearGradient id="linear-gradient-28" x1="0.984" y1="0.116" x2="0.443" y2="0.59" xlink:href="#linear-gradient-5"/>
    <linearGradient id="linear-gradient-29" x1="0.5" y1="0.813" x2="0.5" y2="1.857" xlink:href="#linear-gradient-6"/>
    <linearGradient id="linear-gradient-30" x1="1.076" y1="0.622" x2="0.303" y2="0.473" xlink:href="#linear-gradient-6"/>
    <linearGradient id="linear-gradient-31" x1="1.274" y1="-0.084" x2="0.205" y2="0.706" xlink:href="#linear-gradient-5"/>
    <linearGradient id="linear-gradient-32" x1="1.067" y1="0.617" x2="-1.746" y2="0.138" xlink:href="#linear-gradient-6"/>
    <linearGradient id="linear-gradient-33" x1="-1.537" y1="0.5" x2="-0.537" y2="0.5" xlink:href="#linear-gradient-6"/>
    <linearGradient id="linear-gradient-34" x1="-0.996" y1="21.731" x2="-1.735" y2="24.168" xlink:href="#linear-gradient-5"/>
    <linearGradient id="linear-gradient-35" x1="0.733" y1="0.134" x2="0.333" y2="0.8" xlink:href="#linear-gradient-5"/>
    <linearGradient id="linear-gradient-36" x1="1.343" y1="-0.281" x2="-0.634" y2="1.551" xlink:href="#linear-gradient"/>
    <linearGradient id="linear-gradient-37" y1="0.5" x2="1" y2="0.5" gradientUnits="objectBoundingBox">
      <stop offset="0" stop-color="#fe7062"/>
      <stop offset="1" stop-color="#ff928e"/>
    </linearGradient>
    <linearGradient id="linear-gradient-38" x1="0.509" y1="4.298" x2="0.505" y2="2.583" gradientUnits="objectBoundingBox">
      <stop offset="0" stop-color="#a22b25"/>
      <stop offset="1" stop-color="#c0423c"/>
    </linearGradient>
    <linearGradient id="linear-gradient-39" x1="0.855" y1="-0.353" x2="0.145" y2="1.353" xlink:href="#linear-gradient-5"/>
    <linearGradient id="linear-gradient-40" x1="1.297" y1="-0.28" x2="0.11" y2="0.881" xlink:href="#linear-gradient-5"/>
    <linearGradient id="linear-gradient-41" x1="1.297" y1="-0.28" x2="0.11" y2="0.881" xlink:href="#linear-gradient-5"/>
  </defs>
  <g id="Grupo_128699" data-name="Grupo 128699" transform="translate(-2488.875 -3676.065)">
    <path id="Trazado_188486" data-name="Trazado 188486" d="M2591.59,3708.919c-28.888,20.367-49.3,4.64-66.765,26.21-54.469,67.293,14.555,92.8-17.508,103.118-34.819,11.208-13.158,60.669,6.435,74.964s34.164,22.9,6.326,37.508-32.7,30.772-21.028,57.066,33.785,34.581,125.684,36.139,269.872-1.746,318.422-16.708,13.157-53.46,33.569-82.217,24.427-45.642-6.834-73.538-13.453-56.764-4.067-77.125,16.606-57.286-21.067-67.819-81.476,31.494-100.423,10.143-10.607-49.665-51.985-42.537-55.291,62.305-91.375,59.27S2652.826,3665.746,2591.59,3708.919Z" transform="translate(0 -16.936)" fill="#f0f8ff"/>
    <rect id="Rectángulo_40797" data-name="Rectángulo 40797" width="41.757" height="151.644" rx="17.609" transform="translate(2593.954 3875.717)" fill="#afbcc7"/>
    <path id="Trazado_188487" data-name="Trazado 188487" d="M3410,4380.069h-33.24c-2.329,0-4.259,2.241-4.259,4.852V4544.83c0,2.61,1.929,5.016,4.259,5.016H3410a5.264,5.264,0,0,0,4.808-5.016V4384.921A5.106,5.106,0,0,0,3410,4380.069Z" transform="translate(-671.96 -522.484)" fill="#afbcc7"/>
    <rect id="Rectángulo_40798" data-name="Rectángulo 40798" width="41.757" height="225.896" rx="17.609" transform="translate(2646.15 3801.465)" fill="#afbcc7"/>
    <rect id="Rectángulo_40799" data-name="Rectángulo 40799" width="41.757" height="317.476" rx="17.609" transform="translate(2826.915 3709.885)" fill="#afbcc7"/>
    <rect id="Rectángulo_40800" data-name="Rectángulo 40800" width="41.757" height="276.664" rx="17.609" transform="translate(2764.829 3750.697)" fill="#afbcc7"/>
    <g id="Grupo_128699-2" data-name="Grupo 128699" transform="matrix(0.999, -0.035, 0.035, 0.999, 2543.221, 3726.055)">
      <path id="Trazado_188488" data-name="Trazado 188488" d="M3765.006,4182.248l83.737-160.422h-17.156a3.747,3.747,0,0,1-2.9-6.123l89.247-108.773a6.3,6.3,0,0,1,11.15,4.363l-6.274,106.367a10.628,10.628,0,0,1-11.818,9.933l-11.962-1.369-83.084,179.929a13.228,13.228,0,0,1-12.011,7.683h-28.8Z" transform="translate(-3483.711 -3904.612)" fill="url(#linear-gradient)"/>
      <path id="Trazado_188489" data-name="Trazado 188489" d="M3499.794,4473.01l59.116,131.32a21.679,21.679,0,0,0,19.769,12.78h30.476a11.128,11.128,0,0,0,9.73-5.729l1.084-1.954h0a8.713,8.713,0,0,1-7.761-4.752l-78.765-154.33Z" transform="translate(-3287.731 -4307.883)" fill="url(#linear-gradient-2)"/>
      <path id="Trazado_188490" data-name="Trazado 188490" d="M3208.7,4422.751h0a12.929,12.929,0,0,0-18.775,2.983l-86.917,130.588a37.545,37.545,0,0,1-31.257,16.742h-12.23l-9.953-28.672s80.8-123.9,101.63-142.639c0,0,20.74-18.693,41.19-4.56a34.114,34.114,0,0,1,12.01,15.134Z" transform="translate(-2955.036 -4264.703)" fill="url(#linear-gradient-3)"/>
      <path id="Trazado_188491" data-name="Trazado 188491" d="M2687.431,4621.139s14.549-18.187,42.743-21.016c0,0,13.391,4.563,40.067,52.365s44.385,69.6,65.165,57.695l-1.72,2.856a31.336,31.336,0,0,1-26.844,15.169H2795.35a39.315,39.315,0,0,1-31.92-16.355C2742.667,4682.991,2700.186,4625.62,2687.431,4621.139Z" transform="translate(-2687.431 -4418.564)" fill="url(#linear-gradient-4)"/>
      <path id="Trazado_188492" data-name="Trazado 188492" d="M4352.438,4039.518a.852.852,0,0,1-.1-.006.9.9,0,0,1-.792-.993l.589-5.195a.9.9,0,0,1,1.785.2l-.588,5.194A.9.9,0,0,1,4352.438,4039.518Z" transform="translate(-3917.133 -3999.135)" fill="#91b3fa"/>
      <path id="Trazado_188493" data-name="Trazado 188493" d="M4067.048,4031.792a.9.9,0,0,1-.711-1.446l73.695-95.757a3.16,3.16,0,0,1,5.645,2.283l-1.3,11.478a.9.9,0,1,1-1.784-.2l1.3-11.477a1.364,1.364,0,0,0-2.436-.985l-73.7,95.757A.9.9,0,0,1,4067.048,4031.792Z" transform="translate(-3706.243 -3925.849)" fill="#91b3fa"/>
      <path id="Trazado_188494" data-name="Trazado 188494" d="M3426.6,4522.65a.9.9,0,0,1-.744-1.4l38.114-56.5a6.788,6.788,0,0,1,11.76.894.9.9,0,0,1-1.624.768,4.99,4.99,0,0,0-8.647-.655l-38.114,56.495A.9.9,0,0,1,3426.6,4522.65Z" transform="translate(-3232.977 -4316.321)" fill="#91b3fa"/>
      <path id="Trazado_188495" data-name="Trazado 188495" d="M3388.654,4735.91a.9.9,0,0,1-.744-1.4l2.443-3.623a.9.9,0,0,1,1.49,1.005l-2.444,3.622A.9.9,0,0,1,3388.654,4735.91Z" transform="translate(-3204.94 -4514.899)" fill="#91b3fa"/>
    </g>
    <g id="Grupo_128711" data-name="Grupo 128711" transform="translate(2538.056 3889.586)">
      <g id="Grupo_128703" data-name="Grupo 128703" transform="translate(0 0)">
        <g id="Grupo_128700" data-name="Grupo 128700" transform="translate(0 64.915)">
          <path id="Trazado_188496" data-name="Trazado 188496" d="M2850.526,5069.558a35.939,35.939,0,0,0-.433,3.776,1.626,1.626,0,0,0,1.465,1.717c3.033.295,9.937.837,14.345.2a.74.74,0,0,0,.406-1.272,22.891,22.891,0,0,0-13.432-5.708Z" transform="translate(-2812.744 -5000.333)" fill="url(#linear-gradient-5)"/>
          <path id="Trazado_188497" data-name="Trazado 188497" d="M2845.619,5052.232l1.533,3.759a1.252,1.252,0,0,0,1.286.777,6.781,6.781,0,0,0,1.252-.242,1.645,1.645,0,0,0,1.095-2.046l-1.157-3.871Z" transform="translate(-2809.344 -4986.899)" fill="url(#linear-gradient-6)"/>
          <path id="Trazado_188498" data-name="Trazado 188498" d="M2720.693,5086.136a16.1,16.1,0,0,1,4.267,5.865,1.4,1.4,0,0,1-1.33,1.862h-6.319a1.491,1.491,0,0,1-1.473-1.743C2716.24,5089.844,2717.4,5086.146,2720.693,5086.136Z" transform="translate(-2710.634 -5013.916)" fill="url(#linear-gradient-7)"/>
          <path id="Trazado_188499" data-name="Trazado 188499" d="M2720.3,5070.692s.62,2.744,1.1,4.558a.579.579,0,0,0,.758.4,5.285,5.285,0,0,1,2.3-.417.448.448,0,0,0,.493-.446l.059-4.56Z" transform="translate(-2714.044 -5001.815)" fill="url(#linear-gradient-8)"/>
          <path id="Trazado_188500" data-name="Trazado 188500" d="M2716.771,4791.754l18.676,56.977s-3.582,2.346-5.288,2.249l-22.184-45.791s-3.882,28.215-2,48.471l-6.354.484s-10.332-51.764-2.506-69.494Z" transform="translate(-2694.185 -4784.649)" fill="url(#linear-gradient-9)"/>
          <path id="Trazado_188501" data-name="Trazado 188501" d="M2751.68,4848.924h-.023a.182.182,0,0,1-.157-.2l.725-5.753a.181.181,0,0,1,.359.046l-.725,5.752A.18.18,0,0,1,2751.68,4848.924Z" transform="translate(-2737.77 -4828.879)" fill="url(#linear-gradient-10)"/>
        </g>
        <path id="Trazado_188502" data-name="Trazado 188502" d="M2722.807,4605s-15.132,1.343-12.991,12.125a147.007,147.007,0,0,0-12.275,34.284,1.09,1.09,0,0,0,.885,1.3l25.2,4.315a1.356,1.356,0,0,0,1.542-1l6.021-23.27,2.346,10.817,7.454-1.941-6.276-31.792S2733.837,4605.2,2722.807,4605Z" transform="translate(-2696.719 -4583.12)" fill="url(#linear-gradient-11)"/>
        <path id="Trazado_188503" data-name="Trazado 188503" d="M2838.016,4684.7a.186.186,0,0,1-.184-.228l2.1-9.645a.188.188,0,1,1,.367.079l-2.1,9.645A.187.187,0,0,1,2838.016,4684.7Z" transform="translate(-2803.418 -4636.108)" fill="url(#linear-gradient-9)"/>
        <path id="Trazado_188504" data-name="Trazado 188504" d="M2789.167,4783.638a3.6,3.6,0,0,0-2.6-.339l-1.753.437a.636.636,0,0,1-.785-.545l-1.814-16.149c-2.269,1.077-5.541.948-6.62.87l4.175,19.037h14.613Z" transform="translate(-2756.091 -4706.344)" fill="url(#linear-gradient-13)"/>
        <path id="Trazado_188505" data-name="Trazado 188505" d="M2882.959,4655.236l-.441-1.467a2.9,2.9,0,0,0-1.7-1.857l-7.988-3.212s-.12-1.025,1.688-1.721a2.4,2.4,0,0,0,1.386-2.722s-2.471,1.127-6.088,2.915a8.468,8.468,0,0,0-3.844,4.186l-18.1,22.067,2.125,1.461a5.675,5.675,0,0,0,8.227-2.019l9.806-18.8A36.553,36.553,0,0,0,2882.959,4655.236Z" transform="translate(-2811.057 -4612.972)" fill="url(#linear-gradient-13)"/>
        <g id="Grupo_128702" data-name="Grupo 128702" transform="translate(26.336)">
          <path id="Trazado_188506" data-name="Trazado 188506" d="M2808.779,4561.541l-4.654,13.025s4.121,3.222,7.129,2.133l2.345-7.467S2811.807,4560.106,2808.779,4561.541Z" transform="translate(-2804.125 -4549.955)" fill="url(#linear-gradient-15)"/>
          <g id="Grupo_128701" data-name="Grupo 128701" transform="translate(3.306)">
            <path id="Trazado_188507" data-name="Trazado 188507" d="M2844.84,4534.271c0,.2-4.484,12.692-4.484,12.692l-7.077-2.712,2.49-12.47S2844.84,4530.911,2844.84,4534.271Z" transform="translate(-2829.601 -4527.363)" fill="url(#linear-gradient-16)"/>
            <path id="Trazado_188508" data-name="Trazado 188508" d="M2827.315,4521.114l-1.825,6.462a.907.907,0,0,0-.035.252c0,.527.129,2.34,1.977,2.093,1.676-.223,3.209-.4,4.184.057a.937.937,0,0,1,.484,1.165,40.553,40.553,0,0,1-2.55,5.753.935.935,0,0,1-1.2.385,30.27,30.27,0,0,1-6.069-3.569.938.938,0,0,1-.332-.9c.31-1.654,1.234-6.68,1.275-8.122.039-1.352-1.479-2.384-2.146-2.773a.92.92,0,0,1-.435-.583,2.432,2.432,0,0,1,2.125-3.274.939.939,0,0,0,.762-1.117,2.437,2.437,0,0,1,1.832-3.137,3.437,3.437,0,0,1,3.917,1.564.938.938,0,0,0,1.163.31.744.744,0,0,1,.832.148.923.923,0,0,0,1.351-.205,2.8,2.8,0,0,1,3.452-1.14c3.2,1.034,3.044,4.721,1.872,6.726s-4.575.686-6.186-.643c-1.225-1.009-3.09-.405-3.913-.058A.93.93,0,0,0,2827.315,4521.114Z" transform="translate(-2819.906 -4513.658)" fill="url(#linear-gradient-17)"/>
            <path id="Trazado_188509" data-name="Trazado 188509" d="M2820.6,4552.587s1.892-3.58.641-4.705-3.371-.939-3.314,1.86C2818,4553.223,2820.6,4552.587,2820.6,4552.587Z" transform="translate(-2817.926 -4539.193)" fill="url(#linear-gradient-18)"/>
          </g>
        </g>
        <path id="Trazado_188510" data-name="Trazado 188510" d="M2757.919,4689.085a18.018,18.018,0,0,1-1.849-.088l-.135-.016-5.51-25.688a.188.188,0,0,1,.367-.08l5.453,25.423c.82.073,5.2.363,7.51-1.274l-4.773-22.319,1-1.877a.188.188,0,1,1,.331.176l-.932,1.757,4.8,22.421-.1.072C2762.406,4688.848,2759.716,4689.085,2757.919,4689.085Z" transform="translate(-2736.95 -4627.276)" fill="url(#linear-gradient-9)"/>
      </g>
      <g id="Grupo_128704" data-name="Grupo 128704" transform="translate(27.014 86.949)">
        <path id="Trazado_188511" data-name="Trazado 188511" d="M2808.042,4936.745a1,1,0,0,1-.428-.1,1.227,1.227,0,0,1-.568-1.555l22.757-57.742a1.053,1.053,0,0,1,1.426-.62,1.226,1.226,0,0,1,.567,1.556l-22.757,57.742A1.087,1.087,0,0,1,2808.042,4936.745Z" transform="translate(-2806.957 -4876.634)" fill="#7d97f4"/>
        <path id="Trazado_188512" data-name="Trazado 188512" d="M2842.817,4936.744a1.086,1.086,0,0,1-1-.717l-22.757-57.741a1.227,1.227,0,0,1,.568-1.556,1.053,1.053,0,0,1,1.426.62l22.757,57.742a1.227,1.227,0,0,1-.568,1.555A1,1,0,0,1,2842.817,4936.744Z" transform="translate(-2816.096 -4876.632)" fill="#7d97f4"/>
        <path id="Trazado_188513" data-name="Trazado 188513" d="M3212.42,4936.745a1,1,0,0,1-.428-.1,1.226,1.226,0,0,1-.568-1.555l22.756-57.742a1.053,1.053,0,0,1,1.426-.62,1.227,1.227,0,0,1,.568,1.556l-22.757,57.742A1.087,1.087,0,0,1,3212.42,4936.745Z" transform="translate(-3114.469 -4876.634)" fill="#7d97f4"/>
        <path id="Trazado_188514" data-name="Trazado 188514" d="M3247.195,4936.744a1.086,1.086,0,0,1-1-.717l-22.758-57.741a1.228,1.228,0,0,1,.569-1.556,1.052,1.052,0,0,1,1.425.62l22.757,57.742a1.227,1.227,0,0,1-.568,1.555A1,1,0,0,1,3247.195,4936.744Z" transform="translate(-3123.606 -4876.632)" fill="#7d97f4"/>
      </g>
      <g id="Grupo_128705" data-name="Grupo 128705" transform="translate(96.701 101.63)">
        <rect id="Rectángulo_40801" data-name="Rectángulo 40801" width="2.691" height="29.098" transform="translate(13.004 6.52)" fill="url(#linear-gradient-20)"/>
        <path id="Trazado_188515" data-name="Trazado 188515" d="M3132.15,5083.39h-23.567v-.127a1.625,1.625,0,0,1,1.625-1.625h20.19a1.752,1.752,0,0,1,1.752,1.752Z" transform="translate(-3106.017 -5047.211)" fill="url(#linear-gradient-21)"/>
        <rect id="Rectángulo_40802" data-name="Rectángulo 40802" width="29.63" height="8.403" rx="4.202" fill="url(#linear-gradient-22)"/>
      </g>
      <g id="Grupo_128706" data-name="Grupo 128706" transform="translate(56.437 83.284)">
        <path id="Trazado_188516" data-name="Trazado 188516" d="M3044.693,4884.146a23.418,23.418,0,0,0-8.494,3.625,2.242,2.242,0,0,0-.988,2.142,95,95,0,0,0,10.049,31.542,3.394,3.394,0,0,1,.325,2.329l-1.268,5.9-2.351,2.2h6.057l4.032-10.913-1.725-.544a3.265,3.265,0,0,1-2.279-3.055l-.2-11.707a13.318,13.318,0,0,0-3.2-8.813l9.673-.47Z" transform="translate(-3009.944 -4878.681)" fill="url(#linear-gradient-23)"/>
        <path id="Trazado_188517" data-name="Trazado 188517" d="M3053.49,5048.052c-.551.722,5.937,1.674,9.215.1,0,0,4.543-7.905,4.543-11.976,0,0-.361-.83-3.029-.642,0,0-1.525,9.36-3.137,10.408s-4.507.106-4.507.106A9.472,9.472,0,0,0,3053.49,5048.052Z" transform="translate(-3023.832 -4993.781)" fill="url(#linear-gradient-24)"/>
        <path id="Trazado_188518" data-name="Trazado 188518" d="M2981.789,4901.8c-.051-.089-10.414-1.246-10.414-1.246a23.958,23.958,0,0,1-.72,7.488c-1.06,4.338-16.274,23.128-16.274,23.128l1.6,5.056a25.652,25.652,0,0,1-14.558.876l9.886-5.932s9.252-31.531,14.92-37.155l10.386-3.593Z" transform="translate(-2938.632 -4883.451)" fill="url(#linear-gradient-13)"/>
        <path id="Trazado_188519" data-name="Trazado 188519" d="M3084.108,4861.333s5.969,8.879,6.46,12.93-1.636,5.7-7.9,5.967-22.987.267-22.987.267l-14.273-12.2s10.4-3.712,13.106-4.761S3084.108,4861.333,3084.108,4861.333Z" transform="translate(-3017.711 -4861.333)" fill="url(#linear-gradient-26)"/>
        <path id="Trazado_188520" data-name="Trazado 188520" d="M2946.527,5074.528s1.718,1.664.558,3.514c0,0-13.6,2.412-17.3,1.317,0,0,.767-1.75,4.927-3.744l-.307.236a.5.5,0,0,0,.328.892C2937.474,5076.588,2943.147,5076.085,2946.527,5074.528Z" transform="translate(-2929.785 -5023.458)" fill="url(#linear-gradient-27)"/>
      </g>
      <g id="Grupo_128708" data-name="Grupo 128708" transform="translate(92.524 24.78)">
        <path id="Trazado_188521" data-name="Trazado 188521" d="M3127.989,4653.032c.9.281,4.155,1.448,3.734,3.54a.383.383,0,0,0,.479.438c1.4-.377,4.5-.853,6.415,1.551,1.694,2.124.428,4.126-.6,5.226a.385.385,0,0,0,.322.651c2.576-.325,8.174-.4,9.089,4.841.853,4.889-2.55,6.269-4.568,6.657a.383.383,0,0,0-.128.7c1.007.639,2.174,1.958,1.7,4.564-.739,4.083-8.744,3.749-9.679,3.7a.4.4,0,0,1-.167-.05l-12.822-7.313a.385.385,0,0,1-.189-.268l-2.589-14.951a.384.384,0,0,1,.1-.333l8.513-8.848A.381.381,0,0,1,3127.989,4653.032Z" transform="translate(-3109.746 -4644.412)" fill="url(#linear-gradient-28)"/>
        <path id="Trazado_188522" data-name="Trazado 188522" d="M3100.4,4754.24a136.191,136.191,0,0,1-10.375-11,9.3,9.3,0,0,1-1.575-8.373c1.562-5.265,4.339-10.716,4.592-11.565.388-1.3,8.184-1.246,8.184-1.246s15.34,9.955,21.366,26.819l-6.768,2.107a79.1,79.1,0,0,0-7.963-10.992s6.848,9.046,7.089,12.75Z" transform="translate(-3086.234 -4696.914)" fill="#7d97f4"/>
        <path id="Trazado_188523" data-name="Trazado 188523" d="M3104.911,4693.579c.081.271,2.116,7.016,2.275,7.156s4.462.371,6.487-1.014l-3.436-7.192Z" transform="translate(-3099.048 -4674.461)" fill="url(#linear-gradient-29)"/>
        <g id="Grupo_128707" data-name="Grupo 128707" transform="translate(1.847)">
          <path id="Trazado_188524" data-name="Trazado 188524" d="M3095.5,4637.076s-3.673,1.551-6.171,6.858-.633,7.758,1.71,8.094a10.964,10.964,0,0,0,9.552-3.144C3104.3,4645.457,3100.28,4635.237,3095.5,4637.076Z" transform="translate(-3088.147 -4632.125)" fill="url(#linear-gradient-30)"/>
          <path id="Trazado_188525" data-name="Trazado 188525" d="M3109.1,4631.031s2.771-7.765-4.114-7.856l-1.62,1.132s-2.525-4.305,1.62-6.36,9-.358,10.763,5.228,2.066,9.325-.87,12-4.145-.357-4.145-.357,1.6-2.5.947-3.837-2.151.277-2.151.277Z" transform="translate(-3099.14 -4617.105)" fill="url(#linear-gradient-31)"/>
          <path id="Trazado_188526" data-name="Trazado 188526" d="M3132.942,4670.022s1.4-4,3.271-2.406-1.519,3.694-2.846,4.376Z" transform="translate(-3122.211 -4655.231)" fill="url(#linear-gradient-32)"/>
        </g>
        <path id="Trazado_188527" data-name="Trazado 188527" d="M3080.435,4839.875l5.107-4.924,7.066,2.985s7.034,1.09,11.059,0l4.026-1.089,9.1-2.833,1.429,4.038a2.43,2.43,0,0,1-.888,2.793,15.944,15.944,0,0,1-2.3,1.431c-1.2.524-29.532-.362-29.532-.362Z" transform="translate(-3080.435 -4782.054)" fill="url(#linear-gradient-33)"/>
      </g>
      <g id="Grupo_128709" data-name="Grupo 128709" transform="translate(53.547 58.018)">
        <path id="Trazado_188528" data-name="Trazado 188528" d="M3062.644,4859.647l-.068,0-29.631-.033a1.326,1.326,0,1,1,0-2.651l29.63.032a1.326,1.326,0,0,1,.065,2.65Z" transform="translate(-3004.337 -4832.745)" fill="url(#linear-gradient-34)"/>
        <path id="Trazado_188529" data-name="Trazado 188529" d="M2919.694,4755.859h24.676a4.7,4.7,0,0,1,4.254,2.7l11.408,24.189h-30.666a2.86,2.86,0,0,1-2.658-1.808l-8.846-22.384A1.971,1.971,0,0,1,2919.694,4755.859Z" transform="translate(-2917.721 -4755.859)" fill="url(#linear-gradient-35)"/>
        <ellipse id="Elipse_5076" data-name="Elipse 5076" cx="1.944" cy="3.16" rx="1.944" ry="3.16" transform="matrix(0.952, -0.306, 0.306, 0.952, 14.688, 10.586)" fill="url(#linear-gradient-36)"/>
      </g>
      <g id="Grupo_128710" data-name="Grupo 128710" transform="translate(20.336 80.285)">
        <path id="Trazado_188530" data-name="Trazado 188530" d="M2820.47,4854.663h-29.161v-3.009h29.161C2819.846,4851.654,2819.846,4854.663,2820.47,4854.663Z" transform="translate(-2788.38 -4850.974)" fill="url(#linear-gradient-37)"/>
        <path id="Trazado_188531" data-name="Trazado 188531" d="M2782.25,4852.5a.24.24,0,0,1-.24-.239v-2.531a.24.24,0,0,1,.24-.239h29.571a.24.24,0,0,0,.24-.239v-.2a.24.24,0,0,0-.24-.239h-31.48a1.259,1.259,0,0,0-1.259,1.259V4852a1.187,1.187,0,0,0,1.188,1.187h31.552a.24.24,0,0,0,.24-.239v-.2a.24.24,0,0,0-.24-.24Z" transform="translate(-2779.081 -4848.813)" fill="url(#linear-gradient-38)"/>
      </g>
      <path id="Trazado_188532" data-name="Trazado 188532" d="M2901.407,4868.354a1.039,1.039,0,0,0-.278-.947,1.406,1.406,0,0,0-1.018-.416H2766.656a1.584,1.584,0,0,0-1.28.608,1.17,1.17,0,0,0-.1,1.264l1.447,2.718a2.063,2.063,0,0,0,1.838,1.021H2899.2a1.493,1.493,0,0,0,1.505-1.079Z" transform="translate(-2748.14 -4782.352)" fill="#91b3fa"/>
    </g>
    <g id="Grupo_128712" data-name="Grupo 128712" transform="translate(2609.335 3676.065)">
      <path id="Trazado_188533" data-name="Trazado 188533" d="M3006.158,3977.47l-.791-1.447,55.573-30.365,51.663,22.709,44.36-43.514.087-.051,52.087-30.74.838,1.42-52,30.688-45.013,44.153-51.942-22.832Z" transform="translate(-2999.786 -3886.964)" fill="url(#linear-gradient-39)"/>
      <path id="Trazado_188534" data-name="Trazado 188534" d="M2994.019,4220.252a5.977,5.977,0,1,1-5.977-5.977A5.978,5.978,0,0,1,2994.019,4220.252Z" transform="translate(-2982.065 -4130.47)" fill="url(#linear-gradient-40)"/>
      <circle id="Elipse_5077" data-name="Elipse 5077" cx="5.977" cy="5.977" r="5.977" transform="translate(54.004 64.056) rotate(-76.718)" fill="url(#linear-gradient-41)"/>
      <circle id="Elipse_5078" data-name="Elipse 5078" cx="5.977" cy="5.977" r="5.977" transform="translate(104.544 81.243) rotate(-45)" fill="url(#linear-gradient-41)"/>
      <circle id="Elipse_5079" data-name="Elipse 5079" cx="5.977" cy="5.977" r="5.977" transform="translate(150.283 32.572)" fill="url(#linear-gradient-41)"/>
      <circle id="Elipse_5080" data-name="Elipse 5080" cx="5.977" cy="5.977" r="5.977" transform="matrix(0.383, -0.924, 0.924, 0.383, 201.961, 11.044)" fill="url(#linear-gradient-41)"/>
    </g>
    <g id="Grupo_128285" data-name="Grupo 128285" transform="translate(2849.269 3802.647)">
      <g id="Grupo_128284" data-name="Grupo 128284" transform="translate(-1.122 -1.182)">
        <g id="Grupo_128279" data-name="Grupo 128279" transform="translate(31.471 10.173)">
          <path id="Trazado_187854" data-name="Trazado 187854" d="M699.939,2651.943a.5.5,0,0,1-.233.008.505.505,0,0,1-.392-.6,24.811,24.811,0,0,1,22.206-19.724.505.505,0,1,1,.085,1.007,24.018,24.018,0,0,0-4.238.749,23.665,23.665,0,0,0-17.064,18.171A.505.505,0,0,1,699.939,2651.943Z" transform="translate(-699.303 -2631.628)" fill="#fff" opacity="0.58"/>
        </g>
        <g id="Grupo_128350" data-name="Grupo 128350" transform="translate(0 59.5)">
          <circle id="Elipse_5063" data-name="Elipse 5063" cx="17.43" cy="17.43" r="17.43" transform="translate(4.663 3.142)" fill="#ef7c00"/>
          <circle id="Elipse_5064" data-name="Elipse 5064" cx="17.43" cy="17.43" r="17.43" transform="translate(0 34.152) rotate(-78.427)" fill="#ffc459"/>
          <g id="Grupo_128320" data-name="Grupo 128320" transform="translate(4.692 4.898)">
            <path id="Trazado_187936" data-name="Trazado 187936" d="M1250.246,2745.181a15.881,15.881,0,1,1,11.229-4.652A15.775,15.775,0,0,1,1250.246,2745.181Zm0-30.814a14.934,14.934,0,1,0,14.934,14.933A14.95,14.95,0,0,0,1250.246,2714.366Z" transform="translate(-1234.365 -2713.419)" fill="#ff9f00"/>
          </g>
          <g id="Grupo_128321" data-name="Grupo 128321" transform="translate(13.618 9.051)">
            <path id="Trazado_187937" data-name="Trazado 187937" d="M1258.946,2736.939a2.617,2.617,0,0,0-.037-.922,1.908,1.908,0,0,0-.39-.766,3.616,3.616,0,0,0-.78-.688,9.5,9.5,0,0,0-1.208-.676,25.242,25.242,0,0,1-2.231-1.226,7.884,7.884,0,0,1-1.668-1.358,4.646,4.646,0,0,1-.986-1.654,5.248,5.248,0,0,1,.424-3.969,4.416,4.416,0,0,1,1.23-1.367,5.533,5.533,0,0,1,1.762-.839,7.346,7.346,0,0,1,2.2-.253l.31-2.618,2.107.25-.315,2.654a6.586,6.586,0,0,1,1.983.843,4.979,4.979,0,0,1,2.219,3.185,6.623,6.623,0,0,1,.087,2.249l-3.8-.451a3.231,3.231,0,0,0-.391-2.273,2.242,2.242,0,0,0-1.658-.935,2.84,2.84,0,0,0-1.04.044,1.945,1.945,0,0,0-.758.369,1.8,1.8,0,0,0-.489.631,2.645,2.645,0,0,0-.232.829,2.427,2.427,0,0,0,.035.835,1.783,1.783,0,0,0,.374.733,3.617,3.617,0,0,0,.786.688,12.185,12.185,0,0,0,1.256.726q1.22.628,2.208,1.254a8.022,8.022,0,0,1,1.66,1.369,4.713,4.713,0,0,1,.984,1.661,5.268,5.268,0,0,1-.434,3.993,4.368,4.368,0,0,1-1.235,1.354,5.334,5.334,0,0,1-1.772.807,7.971,7.971,0,0,1-2.211.234l-.289,2.434-2.094-.248.287-2.422a8.9,8.9,0,0,1-2.056-.727,5.628,5.628,0,0,1-1.685-1.273,5.041,5.041,0,0,1-1.057-1.893,6.139,6.139,0,0,1-.175-2.576l3.806.452a3.78,3.78,0,0,0,.072,1.479,2.443,2.443,0,0,0,.541,1.007,2.376,2.376,0,0,0,.871.6,4.065,4.065,0,0,0,1.044.266,3.39,3.39,0,0,0,1.1-.03,2.257,2.257,0,0,0,.836-.348,1.8,1.8,0,0,0,.553-.61A2.194,2.194,0,0,0,1258.946,2736.939Z" transform="translate(-1249.805 -2720.602)" fill="#ff9f00"/>
          </g>
        </g>
        <g id="Grupo_128351" data-name="Grupo 128351" transform="translate(43.736 110.797) rotate(-70)">
          <circle id="Elipse_5063-2" data-name="Elipse 5063" cx="24.806" cy="24.806" r="24.806" transform="translate(6.636 4.472)" fill="#ef7c00"/>
          <circle id="Elipse_5064-2" data-name="Elipse 5064" cx="24.806" cy="24.806" r="24.806" transform="translate(0 48.603) rotate(-78.427)" fill="#ffc459"/>
          <g id="Grupo_128320-2" data-name="Grupo 128320" transform="translate(6.677 6.97)">
            <path id="Trazado_187936-2" data-name="Trazado 187936" d="M22.6,45.2A22.6,22.6,0,0,1,6.62,6.619,22.6,22.6,0,0,1,38.582,38.581,22.451,22.451,0,0,1,22.6,45.2Zm0-43.853A21.252,21.252,0,1,0,43.853,22.6,21.276,21.276,0,0,0,22.6,1.348Z" fill="#ff9f00"/>
          </g>
          <g id="Grupo_128321-2" data-name="Grupo 128321" transform="translate(19.38 12.88)">
            <path id="Trazado_187937-2" data-name="Trazado 187937" d="M13.01,23.25a3.724,3.724,0,0,0-.053-1.312,2.715,2.715,0,0,0-.555-1.09,5.165,5.165,0,0,0-1.11-.979,13.522,13.522,0,0,0-1.72-.962A35.936,35.936,0,0,1,6.4,17.162a11.222,11.222,0,0,1-2.374-1.933,6.61,6.61,0,0,1-1.4-2.354A6.818,6.818,0,0,1,2.38,9.861a6.791,6.791,0,0,1,.845-2.635A6.285,6.285,0,0,1,4.975,5.28,7.865,7.865,0,0,1,7.483,4.086a10.452,10.452,0,0,1,3.131-.361L11.056,0l3,.356-.448,3.777a9.368,9.368,0,0,1,2.822,1.2,7.086,7.086,0,0,1,3.158,4.532,9.424,9.424,0,0,1,.123,3.2l-5.415-.642a4.6,4.6,0,0,0-.557-3.235,3.189,3.189,0,0,0-2.36-1.33,4.034,4.034,0,0,0-1.48.062,2.768,2.768,0,0,0-1.079.525,2.557,2.557,0,0,0-.7.9,3.765,3.765,0,0,0-.33,1.179,3.444,3.444,0,0,0,.049,1.188,2.535,2.535,0,0,0,.532,1.043,5.136,5.136,0,0,0,1.119.98,17.37,17.37,0,0,0,1.788,1.034q1.736.894,3.142,1.784A11.4,11.4,0,0,1,16.785,18.5a6.7,6.7,0,0,1,1.4,2.363,6.774,6.774,0,0,1,.243,3,6.832,6.832,0,0,1-.861,2.687,6.221,6.221,0,0,1-1.758,1.928,7.6,7.6,0,0,1-2.521,1.148,11.343,11.343,0,0,1-3.146.333l-.411,3.464-2.98-.353.409-3.448a12.657,12.657,0,0,1-2.927-1.035,8,8,0,0,1-2.4-1.812,7.178,7.178,0,0,1-1.5-2.694A8.739,8.739,0,0,1,.083,20.41l5.416.642a5.38,5.38,0,0,0,.1,2.1,3.478,3.478,0,0,0,.77,1.432,3.378,3.378,0,0,0,1.239.853,5.755,5.755,0,0,0,1.485.379,4.829,4.829,0,0,0,1.572-.043,3.216,3.216,0,0,0,1.19-.495,2.564,2.564,0,0,0,.787-.869A3.126,3.126,0,0,0,13.01,23.25Z" fill="#ff9f00"/>
          </g>
        </g>
        <g id="Grupo_128352" data-name="Grupo 128352" transform="matrix(0.588, -0.809, 0.809, 0.588, 76.827, 39.907)">
          <circle id="Elipse_5063-3" data-name="Elipse 5063" cx="20.897" cy="20.897" r="20.897" transform="translate(5.59 3.767)" fill="#ef7c00"/>
          <circle id="Elipse_5064-3" data-name="Elipse 5064" cx="20.897" cy="20.897" r="20.897" transform="translate(0 40.944) rotate(-78.427)" fill="#ffc459"/>
          <g id="Grupo_128320-3" data-name="Grupo 128320" transform="translate(5.625 5.872)">
            <path id="Trazado_187936-3" data-name="Trazado 187936" d="M19.039,38.078A19.039,19.039,0,0,1,5.576,5.576,19.039,19.039,0,0,1,32.5,32.5,18.912,18.912,0,0,1,19.039,38.078Zm0-36.942a17.9,17.9,0,1,0,17.9,17.9A17.923,17.923,0,0,0,19.039,1.136Z" fill="#ff9f00"/>
          </g>
          <g id="Grupo_128321-3" data-name="Grupo 128321" transform="translate(16.325 10.85)">
            <path id="Trazado_187937-3" data-name="Trazado 187937" d="M10.96,19.586a3.138,3.138,0,0,0-.045-1.105,2.287,2.287,0,0,0-.467-.918,4.347,4.347,0,0,0-.935-.825,11.366,11.366,0,0,0-1.448-.811,30.515,30.515,0,0,1-2.675-1.47,9.464,9.464,0,0,1-2-1.628,5.568,5.568,0,0,1-1.182-1.983A5.743,5.743,0,0,1,2,8.308a5.722,5.722,0,0,1,.712-2.22A5.3,5.3,0,0,1,4.191,4.448,6.627,6.627,0,0,1,6.3,3.443a8.791,8.791,0,0,1,2.638-.3L9.313,0l2.526.3-.377,3.182a7.887,7.887,0,0,1,2.377,1.011A5.967,5.967,0,0,1,16.5,8.31a7.939,7.939,0,0,1,.1,2.7l-4.562-.541a3.875,3.875,0,0,0-.469-2.725A2.687,2.687,0,0,0,9.585,6.62a3.4,3.4,0,0,0-1.247.052,2.341,2.341,0,0,0-.909.442,2.159,2.159,0,0,0-.586.756,3.181,3.181,0,0,0-.278.993,2.908,2.908,0,0,0,.042,1,2.137,2.137,0,0,0,.448.878A4.339,4.339,0,0,0,8,11.569a14.708,14.708,0,0,0,1.506.87q1.463.753,2.647,1.5a9.6,9.6,0,0,1,1.991,1.642,5.64,5.64,0,0,1,1.18,1.991,5.706,5.706,0,0,1,.205,2.523,5.758,5.758,0,0,1-.725,2.263,5.237,5.237,0,0,1-1.481,1.624,6.4,6.4,0,0,1-2.124.968,9.578,9.578,0,0,1-2.65.28L8.2,28.151l-2.51-.3.344-2.9a10.683,10.683,0,0,1-2.465-.872,6.744,6.744,0,0,1-2.02-1.526,6.044,6.044,0,0,1-1.268-2.27,7.364,7.364,0,0,1-.21-3.088l4.563.541a4.534,4.534,0,0,0,.086,1.773,2.93,2.93,0,0,0,.649,1.207,2.844,2.844,0,0,0,1.044.719,4.838,4.838,0,0,0,1.251.319,4.046,4.046,0,0,0,1.324-.036,2.711,2.711,0,0,0,1-.417,2.16,2.16,0,0,0,.663-.732A2.63,2.63,0,0,0,10.96,19.586Z" fill="#ff9f00"/>
          </g>
        </g>
      </g>
      <g id="Grupo_128349" data-name="Grupo 128349" transform="translate(22.875 2.841)">
        <circle id="Elipse_5063-4" data-name="Elipse 5063" cx="26.091" cy="26.091" r="26.091" transform="translate(6.98 4.704)" fill="#ef7c00"/>
        <circle id="Elipse_5064-4" data-name="Elipse 5064" cx="26.091" cy="26.091" r="26.091" transform="translate(0 51.121) rotate(-78.427)" fill="#ffc459"/>
        <g id="Grupo_128320-4" data-name="Grupo 128320" transform="translate(7.023 7.331)">
          <path id="Trazado_187936-4" data-name="Trazado 187936" d="M1258.136,2760.962a23.771,23.771,0,1,1,16.809-6.963A23.613,23.613,0,0,1,1258.136,2760.962Zm0-46.125a22.353,22.353,0,1,0,22.354,22.353A22.378,22.378,0,0,0,1258.136,2714.837Z" transform="translate(-1234.365 -2713.419)" fill="#ff9f00"/>
        </g>
        <g id="Grupo_128321-4" data-name="Grupo 128321" transform="translate(20.383 13.547)">
          <path id="Trazado_187937-4" data-name="Trazado 187937" d="M1263.488,2745.057a3.912,3.912,0,0,0-.056-1.38,2.856,2.856,0,0,0-.583-1.146,5.413,5.413,0,0,0-1.167-1.03,14.2,14.2,0,0,0-1.808-1.013,37.651,37.651,0,0,1-3.34-1.835,11.808,11.808,0,0,1-2.5-2.033,6.952,6.952,0,0,1-1.475-2.477,7.857,7.857,0,0,1,.635-5.941,6.61,6.61,0,0,1,1.841-2.047,8.279,8.279,0,0,1,2.637-1.256,11.006,11.006,0,0,1,3.294-.38l.465-3.918,3.153.375-.471,3.973a9.862,9.862,0,0,1,2.968,1.261,7.453,7.453,0,0,1,3.322,4.767,9.915,9.915,0,0,1,.13,3.367l-5.7-.676a4.836,4.836,0,0,0-.586-3.4,3.356,3.356,0,0,0-2.483-1.4,4.244,4.244,0,0,0-1.557.066,2.909,2.909,0,0,0-1.135.552,2.693,2.693,0,0,0-.731.944,3.959,3.959,0,0,0-.347,1.24,3.625,3.625,0,0,0,.052,1.25,2.668,2.668,0,0,0,.559,1.1,5.412,5.412,0,0,0,1.177,1.031,18.326,18.326,0,0,0,1.88,1.087q1.826.94,3.3,1.877a11.982,11.982,0,0,1,2.485,2.05,7.047,7.047,0,0,1,1.474,2.486,7.885,7.885,0,0,1-.649,5.976,6.544,6.544,0,0,1-1.849,2.028,7.989,7.989,0,0,1-2.652,1.208,11.922,11.922,0,0,1-3.309.35l-.433,3.644-3.134-.372.43-3.626a13.31,13.31,0,0,1-3.078-1.089,8.416,8.416,0,0,1-2.522-1.905,7.549,7.549,0,0,1-1.583-2.834,9.187,9.187,0,0,1-.262-3.856l5.7.676a5.666,5.666,0,0,0,.107,2.214,3.66,3.66,0,0,0,.81,1.507,3.554,3.554,0,0,0,1.3.9,6.07,6.07,0,0,0,1.562.4,5.071,5.071,0,0,0,1.654-.045,3.386,3.386,0,0,0,1.251-.521,2.7,2.7,0,0,0,.828-.914A3.291,3.291,0,0,0,1263.488,2745.057Z" transform="translate(-1249.805 -2720.602)" fill="#ff9f00"/>
        </g>
      </g>
    </g>
  </g>
</svg>
