<svg xmlns="http://www.w3.org/2000/svg" xmlns:xlink="http://www.w3.org/1999/xlink" width="292.187" height="296.63" viewBox="0 0 292.187 296.63">
  <defs>
    <linearGradient id="linear-gradient" y1="0.5" x2="1" y2="0.5" gradientUnits="objectBoundingBox">
      <stop offset="0" stop-color="#ff9f55"/>
      <stop offset="1" stop-color="#ffd255"/>
    </linearGradient>
  </defs>
  <g id="Grupo_129573" data-name="Grupo 129573" transform="translate(-180 -1328)">
    <g id="Grupo_127873" data-name="Grupo 127873" transform="translate(-1738.13 1442.261)">
      <path id="Trazado_114980" data-name="Trazado 114980" d="M2159.494,19.184,1930.259-113.165a8.086,8.086,0,0,0-12.128,7v264.7a8.086,8.086,0,0,0,12.128,7L2159.494,33.189A8.086,8.086,0,0,0,2159.494,19.184Z" transform="translate(0 0)" fill="#1b3f5e"/>
      <g id="Grupo_127884" data-name="Grupo 127884" transform="translate(1924.378 -84.352)">
        <g id="Grupo_127873-2" data-name="Grupo 127873" transform="translate(185.673 82.111)">
          <path id="Trazado_114981" data-name="Trazado 114981" d="M2307.21,116.854s13.79-4.48,14.91-3.981,1.271,1.29,0,1.765-13.222,4.729-13.222,4.729,17.039-2.455,18.052-2.262c.593.113.973,1.621.31,1.94s-17.464,3.765-17.464,3.765,15.911-2.263,16.7-1.832a1.2,1.2,0,0,1-.468,2.122c-1.172.253-15.867,3.226-15.867,3.226s11.645-.884,12.09-.1c.271.482.659,1.766-2.349,1.9s-10.1,1.218-10.1,1.218Z" transform="translate(-2307.21 -112.834)" fill="#eea886"/>
        </g>
        <g id="Grupo_127875" data-name="Grupo 127875" transform="translate(170.48 77.945)">
          <g id="Grupo_127874" data-name="Grupo 127874">
            <path id="Trazado_114982" data-name="Trazado 114982" d="M2276.408,120.3s4.463-1.774,4.782-4.589c.272-2.394,2.259-5.363,2.87-6.278.816-1.224,2.034-5.9,3.464-4.9s-1.66,7.79-2.043,9.338,5.707-1.751,7.23-1.453,5.673,10.979,1.267,12.745-10.086.644-10.809,1.114a29.122,29.122,0,0,1-3.164,1.416Z" transform="translate(-2276.408 -104.39)" fill="#eea886"/>
          </g>
        </g>
        <g id="Grupo_127876" data-name="Grupo 127876" transform="translate(14.714 59.215)">
          <path id="Trazado_114983" data-name="Trazado 114983" d="M2062.6,181.1c.1,1.29.208,2.519.307,3.618h-63.851c.023-1.075.054-2.3.077-3.618.215-10.646.53-28.1.391-34.687-.177-9.409-2.158-33.857-2.55-35.27,0,0-14.01-20.354-28.7,19.824-3.034,8.28,24.778,29.026,21.322,29.663s-3.31,7.2-3.31,7.2-26.191-22.812-25.654-29.533c.3-3.733,20.807-57.975,23.941-60.217,2.136-1.537,15.546-6.913,22.5-9.547a49.146,49.146,0,0,1,6.176-2.113c1.59-.1,21.207,1.782,21.207,1.782s2.811.96,5.691,2.281c4.908,2.25,12.558,5.776,18.042,8.387,1.774.845,3.994,1.982,5.837,2.958q-.334,10-1.183,21.46s-1.021,16.691-1.114,33.55c-.883,3.817-.729,12.688-.729,12.688-.246,8.411.691,17.044.937,21.867C2062.088,174.414,2062.342,177.948,2062.6,181.1Z" transform="translate(-1960.624 -66.418)" fill="#dbd8e3"/>
        </g>
        <g id="Grupo_127877" data-name="Grupo 127877" transform="translate(91.706 62.199)">
          <path id="Trazado_114984" data-name="Trazado 114984" d="M2144.455,184.17c-.922-5.968-1.8-12.182-2.52-18.127V166q-.172-1.452-.345-2.88a.925.925,0,0,0-.015-.146c-.461-4.025-.837-7.873-1.114-11.4a35.806,35.806,0,0,1,.353-7.926c1.091-18.027,1.636-37.037,1.636-37.037.576-7.788.907-15.054,1.129-21.837,0,0-24.632-11.636-26.867-12.3,0,0,4.67,10.968,8.172,35.493,1.353,9.416,3.848,25.27,5.661,41.453.714,6.382,1.889,12.842,3.011,18.925,1.06,5.738,2.074,11.145,2.62,15.83.039.284.069.568.1.852.085.806.185,1.736.3,2.765h8.449C2144.831,186.6,2144.638,185.384,2144.455,184.17Z" transform="translate(-2116.711 -72.468)" fill="#0e2a3a"/>
        </g>
        <g id="Grupo_127878" data-name="Grupo 127878" transform="translate(0 60.302)">
          <path id="Trazado_114985" data-name="Trazado 114985" d="M2006.857,153.541c-1.122,10.876-2.351,19.678-3.342,28.68q-.2,1.8-.384,3.618h-25.907c.338-1.2.668-2.4.983-3.618,2.781-10.484,5-21.184,5-27.674,0,0-5.392-38.773-7.2-45.018,0,0-16.306,12.059-20.116,20.408-3.41,7.466,21.576,30.27,21.284,31.038-1.7,4.493-8.2,12.7-8.2,12.7S1930.287,132.127,1930.8,127c.369-3.725,32.8-45.14,35.931-47.383,1.813-1.3,15.208-6.045,21.783-8.641,1.206-.476,5.123-1.951,6.2-2.358,1.391,1.551,11.191,12.1,14.586,52.176C2009.875,127.557,2008.07,141.859,2006.857,153.541Z" transform="translate(-1930.796 -68.622)" fill="#0e2a3a"/>
        </g>
        <g id="Grupo_127879" data-name="Grupo 127879" transform="translate(66.399 40.311)">
          <path id="Trazado_114986" data-name="Trazado 114986" d="M2068.153,49.088s-.135-6.735-2.73-20.359c-.694-3.647,21.173,9.6,21.173,9.6s-.067,1.278-.111,3c-.023.911-.038,1.945-.032,2.982,0,.366.006.73.015,1.09.021.964.064,1.887.146,2.672a12.509,12.509,0,0,0,.729,2.628C2088.245,52.779,2075.517,54.358,2068.153,49.088Z" transform="translate(-2065.407 -28.094)" fill="#eea987"/>
        </g>
        <path id="Trazado_114987" data-name="Trazado 114987" d="M2096.312,84.96l3.625,4.87s-2.123,2.844-5.895.744Z" transform="translate(-2013.518 -16.599)" fill="#4ca1f4"/>
        <path id="Trazado_114988" data-name="Trazado 114988" d="M2100.949,95.1s13.748,52.93,10.914,94.131l-4.625,8.151-4.33-8.54s-1.186-73.7-4.956-93.872Z" transform="translate(-2015.499 -21.672)" fill="#4ca1f4"/>
        <path id="Trazado_114989" data-name="Trazado 114989" d="M2094.076,74.33l-3.881,4.541s-6.228-1.207-8.058-4.461S2094.076,74.33,2094.076,74.33Z" transform="translate(-2007.4 -10.509)" fill="#eea987"/>
        <path id="Trazado_114990" data-name="Trazado 114990" d="M2103.415,67.7s-.451,3.461-4.771,8.515l4.716,6.336,2.552-13.144Z" transform="translate(-2015.85 -7.852)" fill="#c4c1cc"/>
        <path id="Trazado_114991" data-name="Trazado 114991" d="M2066.57,61.023s7.709,9.317,14.007,11.807l-2.929,7.245L2062.99,64.316Z" transform="translate(-1997.782 -4.469)" fill="#c4c1cc"/>
        <g id="Grupo_127880" data-name="Grupo 127880" transform="translate(104.679 72.884)">
          <path id="Trazado_114992" data-name="Trazado 114992" d="M2220.4,122.657s-33.226,36.1-41.066,34.169c-3.625-.892-9.115-7.149-13.651-13.031-1.5-1.938-2.963-3.971-4.358-5.983a.012.012,0,0,1,0-.008c-5.566-8.036-9.928-15.739-9.928-15.739s-16.451-19.281-3.25-27.876c0,0,5.564-.561,8.729,1.773,2.922,2.156,10.031,15.729,11.185,18.246s10.132,20.253,10.97,20.777,9.655-4.768,14.367-7.94c7.617-5.127,17.186-14.061,17.186-14.061Z" transform="translate(-2143.012 -94.129)" fill="#0e2a3a"/>
        </g>
        <g id="Grupo_127881" data-name="Grupo 127881" transform="translate(64.411 6.136)">
          <path id="Trazado_114993" data-name="Trazado 114993" d="M2096.068-30.308s4.8,8.907,2.424,10.292c-1.968,1.144,2.3,9.885,2.864,11.313s-3.564,2.465-4.44,3.384-3.471,12.229-6.867,12.57-18.695-4.98-22.861-9.311-7.584-23.9-4.8-32.15S2087.589-45.866,2096.068-30.308Z" transform="translate(-2061.376 41.188)" fill="#eea886"/>
        </g>
        <g id="Grupo_127882" data-name="Grupo 127882" transform="translate(60.343 0)">
          <path id="Trazado_114994" data-name="Trazado 114994" d="M2092.847-34.681s4.9-9.619-4-16.754-25.332,5.387-27.183,5.865-12.354,1.2-7.051,19.641c4.553,15.836,5.19,16.5,5.19,16.5s3.4-9.174,5.325-10.572c3.008-2.184,9.6-1.659,9.6-1.659s-3.141-8.343,1.769-9.524S2087.879-36.525,2092.847-34.681Z" transform="translate(-2053.128 53.628)" fill="#16202e"/>
        </g>
        <g id="Grupo_127883" data-name="Grupo 127883" transform="translate(69.291 23.122)">
          <path id="Trazado_114995" data-name="Trazado 114995" d="M2078.688-2.682c-.433-1.144-1.833-6.063-6.054-3.175S2075.264,6.3,2076,6.421,2082.333,6.947,2078.688-2.682Z" transform="translate(-2071.27 6.752)" fill="#eea886"/>
        </g>
        <path id="Trazado_114996" data-name="Trazado 114996" d="M2092.749,51.285c0,.366.006.73.015,1.09-12.509-4.2-14.931-10.516-14.931-10.516,3.9,2.759,14.949,6.444,14.949,6.444C2092.758,49.214,2092.743,50.249,2092.749,51.285Z" transform="translate(-2005.304 5.242)" fill="#a77860"/>
        <path id="Trazado_114997" data-name="Trazado 114997" d="M2009.72,255.424a4.393,4.393,0,0,0,2.438.982c2.166-.018,4.631-2.372,6.895-.234s-2.5,11.231-4.218,12.3-5.618-.849-9.792-5.895S2009.72,255.424,2009.72,255.424Z" transform="translate(-1967.852 -102.902)" fill="#eea886"/>
        <path id="Trazado_114998" data-name="Trazado 114998" d="M2024.193,255.858a89.9,89.9,0,0,1,9.049,3.783c4.1,2,8.9,5.05,8.41,6.087-.744,1.575-4.4-1.379-8.591-3.084-3.861-1.57-3.364-.606-3.364-.606s-.126-.282,3.746,2.257c4.165,2.73,8.523,5.837,8.138,6.694-.477,1.063-.626,1.154-2.3.413.87.635.819.966.588,1.359-1.2,2.032-7.942-1.015-10.62-2.225,2.052.943,3.457,1.857,1.921,2.627-1.756.881-11.1-3.862-14.608-5.236C2012.732,266.428,2024.193,255.858,2024.193,255.858Z" transform="translate(-1973.859 -103.198)" fill="#eea886"/>
        <path id="Trazado_114999" data-name="Trazado 114999" d="M1996.285,238.8s-.951,5.574-8.2,12.7c0,0-16.617-18.332-19.582-21.764l13-7.544Z" transform="translate(-1949.902 -86.138)" fill="#323657"/>
      </g>
      <rect id="Rectángulo_40518" data-name="Rectángulo 40518" width="228.635" height="3.618" transform="translate(1933.349 89.549)" fill="#fff"/>
      <rect id="Rectángulo_40519" data-name="Rectángulo 40519" width="14.967" height="14.967" rx="7.483" transform="translate(2041.74 -56.433)" fill="#4ca1f4"/>
      <g id="Grupo_127885" data-name="Grupo 127885" transform="translate(2062.305 -76.256)" opacity="0.69">
        <path id="Rectángulo_40520" data-name="Rectángulo 40520" d="M2.324,0h47.14a2.324,2.324,0,0,1,2.324,2.324v0a2.324,2.324,0,0,1-2.324,2.324H2.324A2.324,2.324,0,0,1,0,2.324v0A2.324,2.324,0,0,1,2.324,0Z" transform="translate(0 0)" fill="#d9d9d9" opacity="0.72"/>
        <path id="Rectángulo_40521" data-name="Rectángulo 40521" d="M2.324,0h54.36a2.324,2.324,0,0,1,2.324,2.324v0a2.324,2.324,0,0,1-2.324,2.324H2.324A2.324,2.324,0,0,1,0,2.324v0A2.324,2.324,0,0,1,2.324,0Z" transform="translate(0 7.515)" fill="#d9d9d9" opacity="0.72"/>
      </g>
      <rect id="Rectángulo_40522" data-name="Rectángulo 40522" width="14.967" height="14.967" rx="7.483" transform="translate(2041.74 -77.658)" fill="#4ca1f4"/>
      <g id="Grupo_127886" data-name="Grupo 127886" transform="translate(2062.305 -55.031)" opacity="0.69">
        <rect id="Rectángulo_40523" data-name="Rectángulo 40523" width="38.925" height="4.648" rx="2.324" transform="translate(0 0)" fill="#d9d9d9" opacity="0.72"/>
        <path id="Rectángulo_40524" data-name="Rectángulo 40524" d="M2.324,0H45.553a2.324,2.324,0,0,1,2.324,2.324v0a2.324,2.324,0,0,1-2.324,2.324H2.324A2.324,2.324,0,0,1,0,2.324v0A2.324,2.324,0,0,1,2.324,0Z" transform="translate(0 7.515)" fill="#d9d9d9" opacity="0.72"/>
      </g>
      <g id="Grupo_127887" data-name="Grupo 127887" transform="translate(2062.305 -33.807)" opacity="0.69">
        <rect id="Rectángulo_40525" data-name="Rectángulo 40525" width="56.475" height="4.648" rx="2.324" transform="translate(0 0)" fill="#d9d9d9" opacity="0.72"/>
        <path id="Rectángulo_40526" data-name="Rectángulo 40526" d="M2.324,0h47.14a2.324,2.324,0,0,1,2.324,2.324v0a2.324,2.324,0,0,1-2.324,2.324H2.324A2.324,2.324,0,0,1,0,2.324v0A2.324,2.324,0,0,1,2.324,0Z" transform="translate(0 7.515)" fill="#d9d9d9" opacity="0.72"/>
      </g>
      <rect id="Rectángulo_40527" data-name="Rectángulo 40527" width="14.967" height="14.967" rx="7.483" transform="translate(2041.74 -35.208)" fill="#4ca1f4"/>
      <g id="Grupo_127892" data-name="Grupo 127892" transform="translate(2044.278 -52.567)">
        <g id="Grupo_127891" data-name="Grupo 127891" transform="translate(0 0)">
          <g id="Grupo_127890" data-name="Grupo 127890">
            <g id="Grupo_127889" data-name="Grupo 127889">
              <g id="Grupo_127888" data-name="Grupo 127888">
                <path id="Trazado_115000" data-name="Trazado 115000" d="M2178.3,18.045l-4.153-3.609a.817.817,0,0,1,1.072-1.233l2.937,2.552,4.175-4.672a.817.817,0,0,1,1.218,1.089Z" transform="translate(-2173.869 -10.81)" fill="#fff"/>
              </g>
            </g>
          </g>
        </g>
      </g>
      <g id="Grupo_127897" data-name="Grupo 127897" transform="translate(2044.278 -31.342)">
        <g id="Grupo_127896" data-name="Grupo 127896" transform="translate(0 0)">
          <g id="Grupo_127895" data-name="Grupo 127895">
            <g id="Grupo_127894" data-name="Grupo 127894">
              <g id="Grupo_127893" data-name="Grupo 127893">
                <path id="Trazado_115001" data-name="Trazado 115001" d="M2178.3,61.073l-4.153-3.608a.817.817,0,0,1,1.072-1.234l2.937,2.552,4.175-4.672a.817.817,0,1,1,1.218,1.089Z" transform="translate(-2173.869 -53.839)" fill="#fff"/>
              </g>
            </g>
          </g>
        </g>
      </g>
      <g id="Grupo_127898" data-name="Grupo 127898" transform="translate(2047.806 -74.604)">
        <path id="Trazado_115002" data-name="Trazado 115002" d="M2182.161-27.611l-.026-.329a2.9,2.9,0,0,1,.785-2.191,2.785,2.785,0,0,0,.886-1.735c0-.646-.406-1.076-1.2-1.089a2.257,2.257,0,0,0-1.279.392l-.3-.8a3.323,3.323,0,0,1,1.811-.507A1.871,1.871,0,0,1,2184.947-32a3.427,3.427,0,0,1-1.09,2.2,2.506,2.506,0,0,0-.722,1.862l.013.329Zm-.279,1.773a.749.749,0,0,1,.76-.8.739.739,0,0,1,.747.8.737.737,0,0,1-.76.785A.742.742,0,0,1,2181.882-25.838Z" transform="translate(-2181.021 33.866)" fill="#fff"/>
      </g>
      <path id="Rectángulo_40528" data-name="Rectángulo 40528" d="M7.483,0h0a7.484,7.484,0,0,1,7.484,7.484v0a7.483,7.483,0,0,1-7.483,7.483h0A7.484,7.484,0,0,1,0,7.483v0A7.483,7.483,0,0,1,7.483,0Z" transform="translate(2176.96 20.123)" fill="#4ca1f4"/>
      <g id="Grupo_127899" data-name="Grupo 127899" transform="translate(2198.154 45.118)" opacity="0.69">
        <path id="Rectángulo_40529" data-name="Rectángulo 40529" d="M2.324,0h47.14a2.324,2.324,0,0,1,2.324,2.324v0a2.324,2.324,0,0,1-2.324,2.324H2.324A2.324,2.324,0,0,1,0,2.324v0A2.324,2.324,0,0,1,2.324,0Z" transform="translate(12.164 0) rotate(90)" fill="#d9d9d9" opacity="0.72"/>
        <path id="Rectángulo_40530" data-name="Rectángulo 40530" d="M2.324,0h54.36a2.324,2.324,0,0,1,2.324,2.324v0a2.324,2.324,0,0,1-2.324,2.324H2.324A2.324,2.324,0,0,1,0,2.324v0A2.324,2.324,0,0,1,2.324,0Z" transform="translate(4.648 0) rotate(90)" fill="#d9d9d9" opacity="0.72"/>
      </g>
      <rect id="Rectángulo_40531" data-name="Rectángulo 40531" width="14.967" height="14.967" rx="7.483" transform="translate(2195.318 20.123)" fill="#4ca1f4"/>
      <g id="Grupo_127900" data-name="Grupo 127900" transform="translate(2176.929 45.118)" opacity="0.69">
        <path id="Rectángulo_40532" data-name="Rectángulo 40532" d="M2.324,0H36.6a2.324,2.324,0,0,1,2.324,2.324v0A2.324,2.324,0,0,1,36.6,4.648H2.324A2.324,2.324,0,0,1,0,2.324v0A2.324,2.324,0,0,1,2.324,0Z" transform="translate(12.163 0) rotate(90)" fill="#d9d9d9" opacity="0.72"/>
        <rect id="Rectángulo_40533" data-name="Rectángulo 40533" width="47.877" height="4.648" rx="2.324" transform="translate(4.648 0) rotate(90)" fill="#d9d9d9" opacity="0.72"/>
      </g>
      <g id="Grupo_127905" data-name="Grupo 127905" transform="translate(2179.499 23.989)">
        <g id="Grupo_127904" data-name="Grupo 127904" transform="translate(0)">
          <g id="Grupo_127903" data-name="Grupo 127903">
            <g id="Grupo_127902" data-name="Grupo 127902">
              <g id="Grupo_127901" data-name="Grupo 127901">
                <path id="Trazado_115003" data-name="Trazado 115003" d="M2452.435,173.246l-4.152-3.608a.817.817,0,1,1,1.071-1.234l2.937,2.552,4.175-4.672a.817.817,0,1,1,1.218,1.089Z" transform="translate(-2448.001 -166.012)" fill="#fff"/>
              </g>
            </g>
          </g>
        </g>
      </g>
      <g id="Grupo_127912" data-name="Grupo 127912" transform="translate(1988.043 25.054)">
        <g id="Grupo_127911" data-name="Grupo 127911" transform="translate(71.971)">
          <g id="Grupo_127906" data-name="Grupo 127906" transform="translate(38.53 46.112)">
            <path id="Trazado_115004" data-name="Trazado 115004" d="M2285.688,316.931c.691,3,.572,9.959.572,9.959.188,6.6-.549,13.384-.737,17.171-.006.117-.012.234-.018.353-.049.894-.107,1.841-.173,2.8h49.4c-.018-.91-.035-1.847-.05-2.8-.1-5.59-.188-11.713-.2-16.084,11.29-2.982,23.48-6.873,23.252-9.717-.233-2.928-9.029-46.043-11.487-47.8-1.676-1.2-12.2-5.423-17.664-7.495a38.681,38.681,0,0,0-4.843-1.656c-1.249-.079-16.647,1.4-16.647,1.4s-2.21.757-4.466,1.793c-3.853,1.768-9.857,4.531-14.167,6.583-1.391.66-3.132,1.557-4.579,2.324q.264,7.848.929,16.841S2285.612,303.7,2285.688,316.931Zm48.944,4.988c.608-8.208,3.084-22.309,3.357-23.307.008,0,1.161,1.1,1.169,1.1s.381.053.386.048a2.9,2.9,0,0,1,.351.132s7.475,10.441,7.555,16.053C2347.491,318.622,2341.653,320.539,2334.632,321.918Z" transform="translate(-2283.883 -261.655)" fill="#dbd8e3"/>
          </g>
          <g id="Grupo_127907" data-name="Grupo 127907" transform="translate(38.147 48.452)">
            <path id="Trazado_115005" data-name="Trazado 115005" d="M2283.105,349.618h6.471q.222-1.368.475-2.8c1.1-6.179,2.54-13.161,3.31-20.016v0c1.422-12.7,3.38-25.146,4.437-32.539,2.75-19.249,6.418-27.861,6.418-27.861-1.752.523-21.087,9.661-21.087,9.661.172,5.321.431,11.03.883,17.138,0,0,.427,14.924,1.286,29.078a28.294,28.294,0,0,1,.277,6.22c-.216,2.768-.516,5.79-.876,8.942-.005.043-.008.084-.013.119-.086.75-.178,1.5-.267,2.263,0,.013,0,.021,0,.033-.277,2.288-.584,4.625-.91,6.964Q2283.31,348.219,2283.105,349.618Z" transform="translate(-2283.105 -266.398)" fill="#0e2a3a"/>
          </g>
          <g id="Grupo_127908" data-name="Grupo 127908" transform="translate(56.647 46.913)">
            <path id="Trazado_115006" data-name="Trazado 115006" d="M2320.619,326.744c1.47,3.469,6.537,12.036,6.537,12.036s3.668-.9,9.062-2.3c.355,3.061.713,5.941,1.056,8.752q.172,1.41.338,2.8h19.244q-.343-1.414-.653-2.8a79.691,79.691,0,0,1-2.121-13.6c12.9-3.685,25.552-7.815,25.356-9.791-.292-2.924-9.984-48.123-12.441-49.883-1.417-1.019-11.937-4.747-17.1-6.781-.942-.374-4.163-1.582-5.008-1.9-1.095,1.219-8.64,9.547-11.307,41.009-.331,3.914.355,11.056,1.118,18.212C2326.889,324.585,2320.367,326.152,2320.619,326.744Zm35.188-11.228a147.327,147.327,0,0,1,2.3-14.781,24.984,24.984,0,0,1,2.006,10.832C2360.076,312.867,2358.42,314.2,2355.807,315.516Z" transform="translate(-2320.612 -263.278)" fill="#0e2a3a"/>
          </g>
          <g id="Grupo_127909" data-name="Grupo 127909" transform="translate(61.874 31.862)">
            <path id="Trazado_115007" data-name="Trazado 115007" d="M2348.531,247.511s-1.958-3.7-1.418-14.207c.15-2.911-15.289,6.9-15.289,6.9s.053,1,.086,2.357c.018.564.028,1.181.028,1.816,0,.176,0,.351,0,.526,0,.287,0,.572-.01.856-.007.353-.019.7-.038,1.031-.017.378-.043.736-.078,1.064a9.7,9.7,0,0,1-.572,2.062C2330.529,251.552,2342.75,251.645,2348.531,247.511Z" transform="translate(-2331.208 -232.764)" fill="#eea987"/>
          </g>
          <path id="Trazado_115008" data-name="Trazado 115008" d="M2337.163,276.208l-2.845,3.822s1.667,2.232,4.627.585Z" transform="translate(-2270.91 -222.917)" fill="#4ca1f4"/>
          <path id="Trazado_115009" data-name="Trazado 115009" d="M2327.117,284.168a142.257,142.257,0,0,0-8.2,57.8l3.288,5.967,3.707-5.082s.6-42.952,3.557-58.789Z" transform="translate(-2262.948 -226.899)" fill="#4ca1f4"/>
          <path id="Trazado_115010" data-name="Trazado 115010" d="M2333.909,267.864l3.047,3.564s4.889-.948,6.325-3.5S2333.909,267.864,2333.909,267.864Z" transform="translate(-2270.702 -218.137)" fill="#eea987"/>
          <path id="Trazado_115011" data-name="Trazado 115011" d="M2330.479,262.658s.354,2.717,3.746,6.684l-3.7,4.973-2-10.317Z" transform="translate(-2267.972 -216.051)" fill="#c4c1cc"/>
          <path id="Trazado_115012" data-name="Trazado 115012" d="M2352.1,256.033s-7.07,8-12.013,9.952l2.3,5.686,11.282-12.447Z" transform="translate(-2273.833 -212.694)" fill="#c4c1cc"/>
          <g id="Grupo_127910" data-name="Grupo 127910" transform="translate(0 56.886)">
            <path id="Trazado_115013" data-name="Trazado 115013" d="M2211.358,342.3s9.385-9.1,15.539-10.615c2.845-.7,6.593-4.627,10.153-9.245,1.175-1.52,2.325-3.116,3.421-4.7a.011.011,0,0,0,0-.007c4.369-6.308,7.793-12.355,7.793-12.355s12.914-15.135,2.552-21.881c0,0-4.442-.1-6.878,1.227-2.505,1.36-7.848,12.512-8.755,14.487s-10.719,20.314-11.376,20.726a27.178,27.178,0,0,1-5.679,4.035c-4.808,2.589-12.36,10.165-12.36,10.165Z" transform="translate(-2205.771 -283.496)" fill="#0e2a3a"/>
          </g>
          <path id="Trazado_115014" data-name="Trazado 115014" d="M2302.407,407.783a5.97,5.97,0,0,0,1.874-.356s.98-.629,1.7-1.034a5.694,5.694,0,0,1,.572-.289,10.917,10.917,0,0,0,3.153-1.5c1.234-.94,5.257-4.7,5.257-4.7l-2.6-4-1.2-3.958s-9.379.933-10.63,1.676a3.542,3.542,0,0,0-.344.231,13.887,13.887,0,0,0-1.914,2.14c-.176.164-1.81,1.912-1.718,2.622a2.335,2.335,0,0,0,1.223,1.914,5.587,5.587,0,0,0,1.322,2.774,3.472,3.472,0,0,0,1.784,2.493S2301.342,407.571,2302.407,407.783Z" transform="translate(-2251.774 -281.564)" fill="#efaa88"/>
          <path id="Trazado_115015" data-name="Trazado 115015" d="M2324.441,178.584s-16.953-4.086-13.382,17.377,7.637,23.205,17.964,18.926,9.609-18.007,10.223-24.725S2329.863,178.9,2324.441,178.584Z" transform="translate(-2258.874 -173.29)" fill="#eea886"/>
          <path id="Trazado_115016" data-name="Trazado 115016" d="M2356.546,207.377c.252-1.885,3.995-2.523,4.254.313s-1.811,7.776-3.22,7.266S2356.2,209.977,2356.546,207.377Z" transform="translate(-2282.072 -187.219)" fill="#eea886"/>
          <path id="Trazado_115017" data-name="Trazado 115017" d="M2337.292,196.015s-.34-6.751-2.8-7-2.879,2.464-2.879,2.464l-2.495.433s.873-5.9-1.572-6.969-15.984,3.02-17.933,1.256-.844-13.741,2.751-15.33,13.511-5.121,20.665-.124c0,0,5.641-.559,6.411,4S2338.873,192.657,2337.292,196.015Z" transform="translate(-2257.909 -168.171)" fill="#16202e"/>
          <path id="Trazado_115018" data-name="Trazado 115018" d="M2319.689,386.052l7,12.034s18.543-4.777,22.869-6l-9.89-11.772S2325.085,383.647,2319.689,386.052Z" transform="translate(-2263.497 -275.672)" fill="#323657"/>
          <path id="Trazado_115019" data-name="Trazado 115019" d="M2332.586,253.06h0a16.215,16.215,0,0,0,12.617-7.927,18.8,18.8,0,0,1-12.569,5.514c0,.176,0,.351,0,.526,0,.287-.005.572-.01.856C2332.617,252.382,2332.6,252.727,2332.586,253.06Z" transform="translate(-2270.033 -207.17)" fill="#a77860"/>
        </g>
        <path id="Trazado_115020" data-name="Trazado 115020" d="M2238.841,338.529l4.945,45.976H2178.7l-4.945-45.976Z" transform="translate(-2117.575 -254.497)" fill="#fff59d"/>
        <rect id="Rectángulo_40534" data-name="Rectángulo 40534" width="10.871" height="4.136" transform="translate(120.52 125.872)" fill="#fff59d"/>
        <rect id="Rectángulo_40535" data-name="Rectángulo 40535" width="176.908" height="2.801" transform="translate(0 129.913)" fill="#1b3f5e"/>
        <path id="Trazado_115021" data-name="Trazado 115021" d="M2244.517,379.571c.522,2.56-.671,4.966-2.668,5.374s-4.038-1.337-4.561-3.9.671-4.966,2.667-5.374S2243.994,377.011,2244.517,379.571Z" transform="translate(-2149.708 -273.29)" fill="#e2d78d"/>
      </g>
      <g id="Grupo_127957" data-name="Grupo 127957" transform="translate(1939.779 47.274)">
        <g id="Grupo_127913" data-name="Grupo 127913" transform="translate(0)">
          <path id="Rectángulo_40536" data-name="Rectángulo 40536" d="M30.018,0h8.729A30.019,30.019,0,0,1,68.766,30.019v6.449a30.02,30.02,0,0,1-30.02,30.02H30.019A30.019,30.019,0,0,1,0,36.469v-6.45A30.018,30.018,0,0,1,30.018,0Z" fill="#e0e0e0"/>
        </g>
        <g id="Grupo_127948" data-name="Grupo 127948" transform="translate(5.898 25.218)">
          <g id="Grupo_127942" data-name="Grupo 127942">
            <g id="Grupo_127917" data-name="Grupo 127917">
              <g id="Grupo_127916" data-name="Grupo 127916">
                <g id="Grupo_127915" data-name="Grupo 127915">
                  <g id="Grupo_127914" data-name="Grupo 127914">
                    <path id="Trazado_115022" data-name="Trazado 115022" d="M1974.454,297.947l-.477-.505,12.328-11.632,12.477,2.7,11.918-13.591,10.394.586,8.1-11.166.563.408-8.318,11.474L2011,275.634l-11.965,13.644-12.519-2.713Z" transform="translate(-1973.977 -264.342)" fill="#377b93"/>
                  </g>
                </g>
              </g>
            </g>
            <g id="Grupo_127920" data-name="Grupo 127920" transform="translate(23.079 22.701)">
              <g id="Grupo_127919" data-name="Grupo 127919">
                <g id="Grupo_127918" data-name="Grupo 127918">
                  <path id="Trazado_115023" data-name="Trazado 115023" d="M2024.428,311.825a1.852,1.852,0,1,1-2.2-1.418A1.853,1.853,0,0,1,2024.428,311.825Z" transform="translate(-2020.765 -310.364)" fill="#e6e6e6"/>
                </g>
              </g>
            </g>
            <g id="Grupo_127923" data-name="Grupo 127923" transform="translate(22.732 22.354)">
              <g id="Grupo_127922" data-name="Grupo 127922">
                <g id="Grupo_127921" data-name="Grupo 127921">
                  <path id="Trazado_115024" data-name="Trazado 115024" d="M2022.727,314.009a2.2,2.2,0,1,1,1.684-2.615A2.2,2.2,0,0,1,2022.727,314.009Zm-.784-3.62a1.5,1.5,0,1,0,1.79,1.152A1.506,1.506,0,0,0,2021.943,310.389Z" transform="translate(-2020.062 -309.66)" fill="#377b93"/>
                </g>
              </g>
            </g>
            <g id="Grupo_127926" data-name="Grupo 127926" transform="translate(35.017 9.2)">
              <g id="Grupo_127925" data-name="Grupo 127925">
                <g id="Grupo_127924" data-name="Grupo 127924">
                  <path id="Trazado_115025" data-name="Trazado 115025" d="M2048.628,284.455a1.852,1.852,0,1,1-2.2-1.418A1.852,1.852,0,0,1,2048.628,284.455Z" transform="translate(-2044.966 -282.994)" fill="#e6e6e6"/>
                </g>
              </g>
            </g>
            <g id="Grupo_127929" data-name="Grupo 127929" transform="translate(34.669 8.853)">
              <g id="Grupo_127928" data-name="Grupo 127928">
                <g id="Grupo_127927" data-name="Grupo 127927">
                  <path id="Trazado_115026" data-name="Trazado 115026" d="M2046.927,286.64a2.2,2.2,0,1,1,1.684-2.615A2.2,2.2,0,0,1,2046.927,286.64Zm-.784-3.62a1.5,1.5,0,1,0,1.79,1.153A1.507,1.507,0,0,0,2046.143,283.019Z" transform="translate(-2044.263 -282.291)" fill="#377b93"/>
                </g>
              </g>
            </g>
            <g id="Grupo_127932" data-name="Grupo 127932" transform="translate(45.335 9.614)">
              <g id="Grupo_127931" data-name="Grupo 127931">
                <g id="Grupo_127930" data-name="Grupo 127930">
                  <path id="Trazado_115027" data-name="Trazado 115027" d="M2069.546,285.293a1.852,1.852,0,1,1-2.2-1.418A1.851,1.851,0,0,1,2069.546,285.293Z" transform="translate(-2065.884 -283.832)" fill="#e6e6e6"/>
                </g>
              </g>
            </g>
            <g id="Grupo_127935" data-name="Grupo 127935" transform="translate(44.988 9.267)">
              <g id="Grupo_127934" data-name="Grupo 127934">
                <g id="Grupo_127933" data-name="Grupo 127933">
                  <path id="Trazado_115028" data-name="Trazado 115028" d="M2067.846,287.478a2.2,2.2,0,1,1,1.683-2.615A2.2,2.2,0,0,1,2067.846,287.478Zm-.785-3.621a1.5,1.5,0,1,0,1.789,1.152A1.506,1.506,0,0,0,2067.061,283.857Z" transform="translate(-2065.18 -283.128)" fill="#377b93"/>
                </g>
              </g>
            </g>
            <g id="Grupo_127938" data-name="Grupo 127938" transform="translate(10.571 20.164)">
              <g id="Grupo_127937" data-name="Grupo 127937">
                <g id="Grupo_127936" data-name="Grupo 127936">
                  <path id="Trazado_115029" data-name="Trazado 115029" d="M1999.07,306.682a1.852,1.852,0,1,1-2.2-1.418A1.851,1.851,0,0,1,1999.07,306.682Z" transform="translate(-1995.408 -305.221)" fill="#e6e6e6"/>
                </g>
              </g>
            </g>
            <g id="Grupo_127941" data-name="Grupo 127941" transform="translate(10.224 19.817)">
              <g id="Grupo_127940" data-name="Grupo 127940">
                <g id="Grupo_127939" data-name="Grupo 127939">
                  <path id="Trazado_115030" data-name="Trazado 115030" d="M1997.369,308.866a2.2,2.2,0,1,1,1.684-2.615A2.2,2.2,0,0,1,1997.369,308.866Zm-.784-3.62a1.5,1.5,0,1,0,1.789,1.152A1.507,1.507,0,0,0,1996.585,305.246Z" transform="translate(-1994.704 -304.517)" fill="#377b93"/>
                </g>
              </g>
            </g>
          </g>
          <g id="Grupo_127943" data-name="Grupo 127943" transform="translate(10.571 28.901)">
            <rect id="Rectángulo_40537" data-name="Rectángulo 40537" width="7.582" height="1.46" fill="#fff"/>
          </g>
          <g id="Grupo_127944" data-name="Grupo 127944" transform="translate(15.844 13.918)">
            <rect id="Rectángulo_40538" data-name="Rectángulo 40538" width="7.582" height="1.46" fill="#fff"/>
          </g>
          <g id="Grupo_127945" data-name="Grupo 127945" transform="translate(31.573 24.359)">
            <rect id="Rectángulo_40539" data-name="Rectángulo 40539" width="7.582" height="1.46" fill="#fff"/>
          </g>
          <g id="Grupo_127946" data-name="Grupo 127946" transform="translate(38.374 3.854)">
            <rect id="Rectángulo_40540" data-name="Rectángulo 40540" width="7.582" height="1.46" fill="#fff"/>
          </g>
          <g id="Grupo_127947" data-name="Grupo 127947" transform="translate(49.387 16.072)">
            <rect id="Rectángulo_40541" data-name="Rectángulo 40541" width="7.582" height="1.46" fill="#fff"/>
          </g>
        </g>
        <g id="Grupo_127952" data-name="Grupo 127952" transform="translate(5.059 5.081)">
          <g id="Grupo_127949" data-name="Grupo 127949">
            <rect id="Rectángulo_40542" data-name="Rectángulo 40542" width="27.004" height="2.65" fill="#4e8c63"/>
          </g>
          <g id="Grupo_127950" data-name="Grupo 127950" transform="translate(0 7.131)">
            <rect id="Rectángulo_40543" data-name="Rectángulo 40543" width="27.004" height="2.651" fill="#fff"/>
          </g>
          <g id="Grupo_127951" data-name="Grupo 127951" transform="translate(0 14.261)">
            <rect id="Rectángulo_40544" data-name="Rectángulo 40544" width="27.004" height="2.65" fill="#fff"/>
          </g>
        </g>
        <g id="Grupo_127956" data-name="Grupo 127956" transform="translate(37.574 5.081)">
          <g id="Grupo_127953" data-name="Grupo 127953">
            <rect id="Rectángulo_40545" data-name="Rectángulo 40545" width="4.508" height="2.65" fill="#4e8c63"/>
          </g>
          <g id="Grupo_127954" data-name="Grupo 127954" transform="translate(0 7.131)">
            <rect id="Rectángulo_40546" data-name="Rectángulo 40546" width="4.508" height="2.651" fill="#fff"/>
          </g>
          <g id="Grupo_127955" data-name="Grupo 127955" transform="translate(0 14.261)">
            <rect id="Rectángulo_40547" data-name="Rectángulo 40547" width="4.508" height="2.65" fill="#fff"/>
          </g>
        </g>
      </g>
      <g id="Grupo_127958" data-name="Grupo 127958" transform="translate(1947.02 52.27)">
        <path id="Trazado_115031" data-name="Trazado 115031" d="M2190.51,287.7s-3.545-8.03.568-7.366a14.984,14.984,0,0,1,2.835,3.515c1.088,1.786,3.351,6.512,3.268,8.11s-1.221,2.791-2.448,5.358c0,0-2.552,4.764-2.661,5.339l-2.7-1.4s2.286-4.555,3.9-8.561Z" transform="translate(-2084.324 -252.202)" fill="#dbd8e3"/>
        <rect id="Rectángulo_40548" data-name="Rectángulo 40548" width="55.092" height="9.366" transform="translate(74.212 41.091) rotate(9.663)" fill="#e2d78d"/>
        <rect id="Rectángulo_40549" data-name="Rectángulo 40549" width="2.943" height="7.109" transform="translate(71.122 41.709) rotate(9.665)" fill="#2d3038"/>
        <path id="Trazado_115032" data-name="Trazado 115032" d="M2140.324,425.157h-.669s.223-2.526-.4-2.551-2.154,2.055-3.071,2.378-5.622.594-5.646-.273,1.807-1.213,2.377-1.461,3.343-2.947,3.838-3.269a9.505,9.505,0,0,0,1.341-2.561l2.627-.116s.148,2.092.307,3.2a9.8,9.8,0,0,1,.109,1.037A19.175,19.175,0,0,1,2140.324,425.157Z" transform="translate(-2054.656 -321.631)" fill="#eea886"/>
        <path id="Trazado_115033" data-name="Trazado 115033" d="M2176.178,424.334h-.558v-2.351c-.464.039-2.025,1.516-2.508,1.943s-1.145.408-3.179.537-2.225-1.088-1.9-1.5,1.362-.6,1.9-.854a35.031,35.031,0,0,0,3.248-3.238,5.921,5.921,0,0,0,.916-2.2l2.377.207a14.558,14.558,0,0,0,.256,2.746h0l0,.009c.023.107.048.211.076.313C2177.162,421.245,2176.178,424.334,2176.178,424.334Z" transform="translate(-2073.589 -321.307)" fill="#eea886"/>
        <path id="Trazado_115034" data-name="Trazado 115034" d="M2155.5,322.421a23.675,23.675,0,0,0-.978,2.661c-.08.537-2.183,5.621-2.791,9.048-.364,2.052-1.369,8.475-1.451,9.292-.139,1.4-.8,4.483-.9,5.911-.057.8-3.988,13.048-4.939,19.444a11.8,11.8,0,0,0,3.959-.114,67.006,67.006,0,0,0,5.367-15.986,64.411,64.411,0,0,1,3.069-10.984c.894-2.326,5.958-8.912,6.486-9.652s3.84-4.83.7-9.26S2155.5,322.421,2155.5,322.421Z" transform="translate(-2061.698 -272.685)" fill="#323657"/>
        <path id="Trazado_115035" data-name="Trazado 115035" d="M2180.077,340.176c-.287,1.907.015,4.413.614,11.387a66.181,66.181,0,0,1-1.049,15.418,8.368,8.368,0,0,1-4.454,0c.055-.491,0-17,0-18.469s-.422-3.141-.532-4.829a34.335,34.335,0,0,0-1.212-5.438c-.181-.649-.367-1.3-.548-1.933h0c-.1-.354-.2-.7-.3-1.039-.847-2.942-1.989-14.3-1.989-14.3s6.323-5.093,9.4-.3,1.5,8.281,1.389,8.88S2180.364,338.269,2180.077,340.176Z" transform="translate(-2074.958 -271.622)" fill="#323657"/>
        <path id="Trazado_115036" data-name="Trazado 115036" d="M2179.807,341.553c-.049.109-3.2,7.1-4.011,8.315-.181-.649-.367-1.3-.548-1.933h0S2179.7,341.707,2179.807,341.553Z" transform="translate(-2077.31 -283.245)" fill="#131521"/>
        <path id="Trazado_115037" data-name="Trazado 115037" d="M2176.178,426.906h-.558v-2.351c-.464.039-2.025,1.516-2.508,1.943s-1.145.408-3.179.537-2.225-1.088-1.9-1.5,1.362-.6,1.9-.854c2.176.116,4.831-2.942,6.106-2.936.677,0,.671.378.691.449h0l0,.009c.023.107.048.211.076.313C2177.162,423.817,2176.178,426.906,2176.178,426.906Z" transform="translate(-2073.589 -323.88)" fill="#c6c9cc"/>
        <path id="Trazado_115038" data-name="Trazado 115038" d="M2140.324,428.364h-.669s.223-2.526-.4-2.551-2.154,2.055-3.071,2.378-5.622.594-5.646-.273,1.807-1.213,2.377-1.461c1.94,0,5.1-2.141,6.075-2.573a3.531,3.531,0,0,1,2.038-.173,9.8,9.8,0,0,1,.109,1.037A19.175,19.175,0,0,1,2140.324,428.364Z" transform="translate(-2054.656 -324.838)" fill="#c6c9cc"/>
        <path id="Trazado_115039" data-name="Trazado 115039" d="M2178.173,268.209a7.822,7.822,0,0,1,.224,4.732s3.7-.241,3.84-.672-.148-4.432.36-5.613S2178.173,268.209,2178.173,268.209Z" transform="translate(-2078.791 -245.142)" fill="#eea886"/>
        <path id="Trazado_115040" data-name="Trazado 115040" d="M2171.212,277.547s-2.186.777-3.174.993-3.054,1.2-2.886,4.881a76.959,76.959,0,0,0,1.009,8.465,33.358,33.358,0,0,1-.281,7.573,27.71,27.71,0,0,0,11.407,0,25.706,25.706,0,0,1-1.065-4.2c.028-.864,3.643-7.976,3.812-9.1s.9-6.076-.757-7.17-3-.95-3.7-1.439S2172.235,277.2,2171.212,277.547Z" transform="translate(-2072.189 -250.65)" fill="#dbd8e3"/>
        <path id="Trazado_115041" data-name="Trazado 115041" d="M2178.031,308.767a30.637,30.637,0,0,1-16.079.009,22.179,22.179,0,0,0,1.474-3.958h0a23.747,23.747,0,0,0,.551-2.656h0a24.077,24.077,0,0,0-.221-8.613c1.033-8.506,13.9-11.045,14.935-8.349s-2,14.284-2.151,15.277S2178.031,308.767,2178.031,308.767Z" transform="translate(-2070.573 -254.168)" fill="#dbd8e3"/>
        <path id="Trazado_115042" data-name="Trazado 115042" d="M2177.73,248.1c-1.487-.51-5.508-1.053-6.537,5.117s1.213,6.276,3.517,6.1,5.909-4.34,6.185-5.606S2181.973,249.558,2177.73,248.1Z" transform="translate(-2075.124 -235.745)" fill="#eea886"/>
        <path id="Trazado_115043" data-name="Trazado 115043" d="M2173.137,249.966s1.228,2.627,2.839,3.543a7.942,7.942,0,0,0,3.194,3.92s5.8-3.841,2.434-8.406S2173.516,248.093,2173.137,249.966Z" transform="translate(-2076.24 -235.239)" fill="#16202e"/>
        <path id="Trazado_115044" data-name="Trazado 115044" d="M2178.261,258.076a.758.758,0,0,1,1.389.038c.389.88-1.01,2.432-1.393,2.348S2177.766,259.295,2178.261,258.076Z" transform="translate(-2078.668 -240.718)" fill="#eea886"/>
        <path id="Trazado_115045" data-name="Trazado 115045" d="M2187.567,252.106c.126-.2,3.967-1.976,4.765,1.739s-3.092,8.033-3.774,9.89.308,6.21.308,6.21a12.809,12.809,0,0,1-3.05-4.53C2185.038,262.872,2184.777,256.457,2187.567,252.106Z" transform="translate(-2082.399 -237.617)" fill="#16202e"/>
        <path id="Trazado_115046" data-name="Trazado 115046" d="M2188.88,252.45a3.874,3.874,0,0,0-1.326,2.4,2.88,2.88,0,0,1,.254-1.844A1.059,1.059,0,0,1,2188.88,252.45Z" transform="translate(-2083.519 -238.088)" fill="#e54242"/>
        <path id="Trazado_115047" data-name="Trazado 115047" d="M2164.941,313.2a23.746,23.746,0,0,0,.551-2.656l.107-.819a2.756,2.756,0,0,0,.682-1.037c.2-.6,1.682-7.973,1.682-7.973S2169.531,307.643,2164.941,313.2Z" transform="translate(-2072.087 -262.553)" fill="#1d3b54"/>
        <path id="Trazado_115048" data-name="Trazado 115048" d="M2145.586,326.9a8.67,8.67,0,0,1-1.527,1.262c-.373.116-1.094-.52-3.744-.717-.233-.018-.642.192-.545.5a4.137,4.137,0,0,0,1.744,1.272c.494.128,2.824,1.054,3.959.6a4.656,4.656,0,0,0,1.908-1.9Z" transform="translate(-2059.324 -275.818)" fill="#eea886"/>
        <path id="Trazado_115049" data-name="Trazado 115049" d="M2158.789,280.3s-3.066,1.215-3.248,5.477a60.318,60.318,0,0,1-.514,7.144,23.476,23.476,0,0,1-1.257,4.892c-.748,1.544-5.662,6.428-5.662,6.428l2.377,2.236s6.85-6.873,7.266-8.13,2.128-10,2.265-11.475C2160.126,285.679,2161.694,280.384,2158.789,280.3Z" transform="translate(-2063.558 -252.204)" fill="#dbd8e3"/>
        <path id="Trazado_115050" data-name="Trazado 115050" d="M2046.935,266.684c0,.146-.015.292-.025.437h5.607c.01-.146.015-.292.02-.437Zm-62.539-1.549c0,.171,0,.337.005.508.01.709.041,1.413.1,2.112a33.292,33.292,0,0,0,.951,5.823,33.916,33.916,0,0,0,8.956,15.68c.166.171.332.332.5.493.668.644,1.368,1.262,2.092,1.846a33.92,33.92,0,0,0,21.489,7.628c.135,0,.271,0,.406,0a33.9,33.9,0,0,0,16.943-4.737,34.2,34.2,0,0,0,14.966-18.471c.267-.8.508-1.609.719-2.434a34.354,34.354,0,0,0,.83-4.511v0c.035-.327.071-.654.1-.986s.055-.634.07-.956c.01-.146.015-.292.02-.437.015-.322.025-.639.03-.961,0-.2,0-.392,0-.588a34.091,34.091,0,0,0-28.906-33.694c-.317-.05-.634-.1-.955-.136-.352-.04-.7-.081-1.056-.111-.317-.03-.639-.055-.956-.075-.735-.05-1.473-.071-2.213-.071-.629,0-1.253.015-1.871.05-1.061.055-2.107.166-3.143.317a34.182,34.182,0,0,0-26.311,20.251c-.05.11-.1.226-.141.337s-.091.216-.131.322c-.261.628-.5,1.267-.714,1.911a33.483,33.483,0,0,0-1.3,5.175c-.085.468-.15.94-.216,1.418-.005.08-.015.161-.025.246,0,0,0,.01,0,.02a1,1,0,0,0-.01.121,1.15,1.15,0,0,0-.021.141v.035a.336.336,0,0,0-.01.071.771.771,0,0,0-.01.106c-.01.086-.02.171-.025.257-.05.523-.09,1.051-.115,1.579-.005.07-.01.146-.01.217,0,.115-.01.231-.015.347C1984.4,264.355,1984.4,264.742,1984.4,265.135Zm7.639,10.606-.131-.332c-.095-.247-.186-.493-.277-.744l-.206-.6c-.051-.151-.1-.3-.146-.453,0-.01,0-.02-.01-.03a.555.555,0,0,1-.025-.086c-.08-.251-.151-.508-.221-.764l-.08-.3c-.076-.271-.141-.548-.206-.825-.006-.025-.015-.055-.02-.085-.055-.256-.111-.513-.161-.769-.025-.106-.045-.211-.065-.317-.06-.322-.115-.649-.166-.976-.091-.573-.156-1.152-.211-1.735-.02-.2-.035-.4-.05-.6,0,0,.005,0,0-.005,0-.065-.005-.125-.01-.191-.015-.271-.03-.543-.04-.814v-.081c-.005-.06-.005-.126-.005-.191,0-.236-.01-.473-.01-.709s0-.443.01-.659a24.963,24.963,0,0,1,.181-2.615,2.64,2.64,0,0,1,.03-.271.019.019,0,0,1,.005-.015c-.005,0,0,0,0,0a.009.009,0,0,1,0-.015.2.2,0,0,1,0-.056v-.01c0-.01,0-.015,0-.02a28.291,28.291,0,0,1,4.229-11.652,28.6,28.6,0,0,1,10.34-9.671,27.783,27.783,0,0,1,3.46-1.609c.378-.146.765-.287,1.152-.412a27.891,27.891,0,0,1,6.794-1.383c.754-.065,1.514-.1,2.284-.1.231,0,.458,0,.688.01.267,0,.528.015.795.025.192.01.382.025.574.04a1.549,1.549,0,0,1,.156.01c.316.02.638.05.956.086l.241.03c.126.015.257.031.383.051.146.015.286.035.433.06.322.045.638.1.955.156l.085.015q.37.069.739.151c.015.005.031.005.046.01.1.02.206.045.307.07.231.05.458.106.684.166a2.892,2.892,0,0,1,.3.076c.262.071.523.141.785.221s.5.151.744.232c.115.035.231.075.342.115.493.166.981.347,1.458.543.131.05.261.106.393.161.2.086.4.171.6.261.161.07.322.141.478.221.237.106.468.221.7.337q.392.2.769.407c.292.156.573.317.855.482.583.342,1.146.7,1.7,1.087.236.161.468.327.7.5.292.206.574.423.85.644.247.2.493.4.734.6s.493.422.734.643a28.416,28.416,0,0,1,9.314,21.071c0,.2,0,.392-.005.588,0,.322-.015.639-.035.961,0,.146-.015.292-.025.437-.025.322-.051.639-.086.956-.091.905-.226,1.795-.4,2.675a27.782,27.782,0,0,1-.719,2.826c-.227.734-.483,1.459-.77,2.162a28.482,28.482,0,0,1-26.04,17.883c-.135,0-.271,0-.406,0a28.487,28.487,0,0,1-25.17-15.127c-.126-.241-.251-.483-.373-.724l-.221-.463c-.091-.181-.171-.362-.256-.548l-.081-.181c-.07-.161-.141-.322-.206-.488Z" transform="translate(-1980.599 -227.249)" fill="#323657"/>
        <circle id="Elipse_4744" data-name="Elipse 4744" cx="28.39" cy="28.39" r="28.39" transform="translate(0 24.597) rotate(-25.67)" fill="#b8b8b8" opacity="0.1"/>
        <path id="Trazado_115051" data-name="Trazado 115051" d="M2043.411,249.81s-36.975-4.583-44.343,34.44h0a28.495,28.495,0,0,1,44.343-34.44Z" transform="translate(-1986.35 -232.998)" fill="#869ac2" opacity="0.3"/>
      </g>
      <g id="Grupo_128051" data-name="Grupo 128051" transform="translate(1919.644 101.681)">
        <g id="Grupo_127959" data-name="Grupo 127959" transform="translate(25.488 33.548)">
          <rect id="Rectángulo_40550" data-name="Rectángulo 40550" width="15.693" height="0.932" fill="url(#linear-gradient)"/>
        </g>
        <g id="Grupo_127960" data-name="Grupo 127960" transform="translate(27.592 36.904)">
          <rect id="Rectángulo_40551" data-name="Rectángulo 40551" width="1.375" height="42.365" transform="translate(1.375 42.365) rotate(180)" fill="#706865"/>
        </g>
        <g id="Grupo_127961" data-name="Grupo 127961" transform="translate(38.725 33.284)">
          <rect id="Rectángulo_40552" data-name="Rectángulo 40552" width="10.908" height="1.33" fill="#ccbdb7"/>
        </g>
        <g id="Grupo_127962" data-name="Grupo 127962" transform="translate(42.114 21.934)">
          <rect id="Rectángulo_40553" data-name="Rectángulo 40553" width="4.131" height="12.546" fill="#ffab55"/>
        </g>
        <g id="Grupo_127963" data-name="Grupo 127963" transform="translate(19.859 34.496)">
          <rect id="Rectángulo_40554" data-name="Rectángulo 40554" width="60.437" height="2.409" fill="#b59074"/>
        </g>
        <g id="Grupo_127964" data-name="Grupo 127964" transform="translate(3.351 15.87)">
          <path id="Trazado_115052" data-name="Trazado 115052" d="M1932.9,359.735s-.661,9.269,1.15,10.379c1.135.695,5.658,3.039,5.524,3.479s-2.554,3.912-2.554,3.912-8.69-5.722-8.97-7.526c-.274-1.762.427-13.573,1.622-14.117.9-.407,1.368-.071,2.494.766A2.638,2.638,0,0,1,1932.9,359.735Z" transform="translate(-1927.993 -355.689)" fill="#fff59d"/>
        </g>
        <g id="Grupo_127967" data-name="Grupo 127967" transform="translate(22.411 20.091)">
          <g id="Grupo_127966" data-name="Grupo 127966">
            <g id="Grupo_127965" data-name="Grupo 127965">
              <path id="Trazado_115053" data-name="Trazado 115053" d="M1968.32,366.718l.765-.283s-.955-2.242-1.372-2.188a10.456,10.456,0,0,0-1.08.222Z" transform="translate(-1966.634 -364.246)" fill="#ead8cf"/>
            </g>
          </g>
        </g>
        <g id="Grupo_127970" data-name="Grupo 127970" transform="translate(19.375 19.941)">
          <g id="Grupo_127969" data-name="Grupo 127969">
            <g id="Grupo_127968" data-name="Grupo 127968">
              <path id="Trazado_115054" data-name="Trazado 115054" d="M1965.376,366.95c-.1-.073-1.628-3.008-1.628-3.008l-3.269.444,1.767,3.477Z" transform="translate(-1960.478 -363.942)" fill="#da9b5b"/>
            </g>
          </g>
        </g>
        <g id="Grupo_127973" data-name="Grupo 127973" transform="translate(15.401 73.243)">
          <g id="Grupo_127972" data-name="Grupo 127972">
            <g id="Grupo_127971" data-name="Grupo 127971">
              <path id="Trazado_115055" data-name="Trazado 115055" d="M1955.973,472.244s-.27,1.875-.3,2.157-3.006-.166-3.006-.166l-.24-2.233A17.593,17.593,0,0,1,1955.973,472.244Z" transform="translate(-1952.422 -472.002)" fill="#424773"/>
            </g>
          </g>
        </g>
        <g id="Grupo_127976" data-name="Grupo 127976" transform="translate(14.936 75.277)">
          <g id="Grupo_127975" data-name="Grupo 127975">
            <g id="Grupo_127974" data-name="Grupo 127974">
              <path id="Trazado_115056" data-name="Trazado 115056" d="M1955.222,476.252a8.023,8.023,0,0,0,1.853,1.623c.911.492,2.342.688,2.881,1.2.389.368,1.416,1.953-2.366,1.921s-5.607.224-6.012-.383.586-4.485.586-4.485A8,8,0,0,0,1955.222,476.252Z" transform="translate(-1951.48 -476.125)" fill="#292c47"/>
            </g>
          </g>
        </g>
        <g id="Grupo_127979" data-name="Grupo 127979" transform="translate(34.443 73.261)">
          <g id="Grupo_127978" data-name="Grupo 127978">
            <g id="Grupo_127977" data-name="Grupo 127977">
              <path id="Trazado_115057" data-name="Trazado 115057" d="M1994.577,472.28s-.27,1.876-.3,2.158-3.006-.166-3.006-.166l-.241-2.233A17.618,17.618,0,0,1,1994.577,472.28Z" transform="translate(-1991.027 -472.038)" fill="#424773"/>
            </g>
          </g>
        </g>
        <g id="Grupo_127982" data-name="Grupo 127982" transform="translate(33.979 75.295)">
          <g id="Grupo_127981" data-name="Grupo 127981">
            <g id="Grupo_127980" data-name="Grupo 127980">
              <path id="Trazado_115058" data-name="Trazado 115058" d="M1993.828,476.288a8.017,8.017,0,0,0,1.852,1.623c.911.493,4.262.9,4.8,1.407.389.368,1.035,1.85-4.287,1.712-3.781-.1-5.606.223-6.012-.384s.586-4.485.586-4.485A7.268,7.268,0,0,0,1993.828,476.288Z" transform="translate(-1990.084 -476.161)" fill="#292c47"/>
            </g>
          </g>
        </g>
        <g id="Grupo_127985" data-name="Grupo 127985" transform="translate(6.67 41.086)">
          <g id="Grupo_127984" data-name="Grupo 127984">
            <g id="Grupo_127983" data-name="Grupo 127983">
              <path id="Trazado_115059" data-name="Trazado 115059" d="M1937.417,406.809s10.806,1.829,13.246,2.212,15.674,3.676,17.329,4.68c1.317.8-.69,19.981-1.16,27.3h-5.213l-.378-21.954c-6.255.157-10.718-1.463-15.273-.771s-8.352,1.675-11.246-2.207C1934.723,416.068,1934.615,407.657,1937.417,406.809Z" transform="translate(-1934.722 -406.809)" fill="#292c47"/>
            </g>
          </g>
        </g>
        <g id="Grupo_127988" data-name="Grupo 127988" transform="translate(4.545 43.423)">
          <g id="Grupo_127987" data-name="Grupo 127987">
            <g id="Grupo_127986" data-name="Grupo 127986">
              <path id="Trazado_115060" data-name="Trazado 115060" d="M1945.884,443.419l-5.079-.314-.5-21.657a30.83,30.83,0,0,1-5.795-.367l-4.1-9.533c3.594.719,15.11,3.623,16.646,4.554C1948.377,416.9,1946.353,436.1,1945.884,443.419Z" transform="translate(-1930.414 -411.547)" fill="#292c47"/>
            </g>
          </g>
        </g>
        <g id="Grupo_127991" data-name="Grupo 127991" transform="translate(11.618 0.392)">
          <g id="Grupo_127990" data-name="Grupo 127990">
            <g id="Grupo_127989" data-name="Grupo 127989">
              <path id="Trazado_115061" data-name="Trazado 115061" d="M1947.474,324.5s3.961-1.1,5.473,1.98.826,8.9-1.171,9.453-4.867-.083-5.7-2a14.68,14.68,0,0,1-1.292-6.395A3.86,3.86,0,0,1,1947.474,324.5Z" transform="translate(-1944.753 -324.311)" fill="#eea886"/>
            </g>
          </g>
        </g>
        <g id="Grupo_127994" data-name="Grupo 127994" transform="translate(12.305 8.706)">
          <g id="Grupo_127993" data-name="Grupo 127993">
            <g id="Grupo_127992" data-name="Grupo 127992">
              <path id="Trazado_115062" data-name="Trazado 115062" d="M1951.446,343.861a12.09,12.09,0,0,0,.214,2.837c.258.5-5.516.374-5.516.374a11.728,11.728,0,0,0,.394-5.2C1946.027,339.5,1951.446,343.861,1951.446,343.861Z" transform="translate(-1946.145 -341.166)" fill="#eea886"/>
            </g>
          </g>
        </g>
        <g id="Grupo_127997" data-name="Grupo 127997" transform="translate(11.388)">
          <g id="Grupo_127996" data-name="Grupo 127996">
            <g id="Grupo_127995" data-name="Grupo 127995">
              <path id="Trazado_115063" data-name="Trazado 115063" d="M1945.286,332.042s.309.627,1.8.526,3.466-1.9,4.1-2.065.673-.522.673-.522l.335.6.65.1s-.441-1.807.521-2.443-.434-5.761-5.307-4.525c0,0-3.719.681-3.769,2.758S1944.564,330.942,1945.286,332.042Z" transform="translate(-1944.288 -323.516)" fill="#3a3f47"/>
            </g>
          </g>
        </g>
        <g id="Grupo_128000" data-name="Grupo 128000" transform="translate(12.38 12.641)">
          <g id="Grupo_127999" data-name="Grupo 127999">
            <g id="Grupo_127998" data-name="Grupo 127998">
              <path id="Trazado_115064" data-name="Trazado 115064" d="M1952.042,350.68s-.016-.953-.448-1.044a28.125,28.125,0,0,0-5.068-.447l-.228,1.257S1947.319,351.075,1952.042,350.68Z" transform="translate(-1946.298 -349.143)" fill="#e2d2ca"/>
            </g>
          </g>
        </g>
        <g id="Grupo_128003" data-name="Grupo 128003" transform="translate(17.65 4.981)">
          <g id="Grupo_128002" data-name="Grupo 128002">
            <g id="Grupo_128001" data-name="Grupo 128001">
              <path id="Trazado_115065" data-name="Trazado 115065" d="M1958.644,334.671c-.111-.781-1-1.677-1.507-.461s.343,2.987.913,2.892S1958.794,335.73,1958.644,334.671Z" transform="translate(-1956.981 -333.614)" fill="#eea886"/>
            </g>
          </g>
        </g>
        <g id="Grupo_128006" data-name="Grupo 128006" transform="translate(35.318 25.432)">
          <g id="Grupo_128005" data-name="Grupo 128005">
            <g id="Grupo_128004" data-name="Grupo 128004">
              <path id="Trazado_115066" data-name="Trazado 115066" d="M1992.807,375.076a.01.01,0,0,0-.008,0C1992.83,375.088,1992.834,375.089,1992.807,375.076Z" transform="translate(-1992.8 -375.075)" fill="#323657"/>
            </g>
          </g>
        </g>
        <g id="Grupo_128009" data-name="Grupo 128009" transform="translate(10.763 1.138)">
          <g id="Grupo_128008" data-name="Grupo 128008">
            <g id="Grupo_128007" data-name="Grupo 128007">
              <path id="Trazado_115067" data-name="Trazado 115067" d="M1945.44,325.824s-4.83-.227-.843,7.313Z" transform="translate(-1943.02 -325.823)" fill="#3a3f47"/>
            </g>
          </g>
        </g>
        <g id="Grupo_128011" data-name="Grupo 128011" transform="translate(2.422 72.124)">
          <g id="Grupo_128010" data-name="Grupo 128010">
            <path id="Trazado_115068" data-name="Trazado 115068" d="M1926.11,475.473l.36,1.011,15.18-4.7-.728-2.047Z" transform="translate(-1926.11 -469.733)" fill="#918783"/>
          </g>
        </g>
        <g id="Grupo_128013" data-name="Grupo 128013" transform="translate(16.758 56.946)">
          <g id="Grupo_128012" data-name="Grupo 128012">
            <rect id="Rectángulo_40555" data-name="Rectángulo 40555" width="1.725" height="16.505" fill="#918783"/>
          </g>
        </g>
        <g id="Grupo_128015" data-name="Grupo 128015" transform="translate(12.532 56.069)">
          <g id="Grupo_128014" data-name="Grupo 128014">
            <rect id="Rectángulo_40556" data-name="Rectángulo 40556" width="10.177" height="0.972" fill="#5e5854"/>
          </g>
        </g>
        <g id="Grupo_128017" data-name="Grupo 128017" transform="translate(17.412 71.996)">
          <g id="Grupo_128016" data-name="Grupo 128016">
            <path id="Trazado_115069" data-name="Trazado 115069" d="M1972.039,475.341l-.359,1.011-15.181-4.7.667-2.175Z" transform="translate(-1956.499 -469.473)" fill="#918783"/>
          </g>
        </g>
        <g id="Grupo_128019" data-name="Grupo 128019" transform="translate(17.412 71.996)">
          <g id="Grupo_128018" data-name="Grupo 128018">
            <path id="Trazado_115070" data-name="Trazado 115070" d="M1961.343,476.243v1.176l-4.844-5.771.667-2.175Z" transform="translate(-1956.499 -469.473)" fill="#918783"/>
          </g>
        </g>
        <g id="Grupo_128021" data-name="Grupo 128021" transform="translate(31.533 77.851)">
          <g id="Grupo_128020" data-name="Grupo 128020">
            <path id="Trazado_115071" data-name="Trazado 115071" d="M1987.964,482.762a1.418,1.418,0,1,1-1.418-1.419A1.418,1.418,0,0,1,1987.964,482.762Z" transform="translate(-1985.127 -481.343)" fill="#bfb2ac"/>
          </g>
        </g>
        <g id="Grupo_128023" data-name="Grupo 128023" transform="translate(19.539 77.851)">
          <g id="Grupo_128022" data-name="Grupo 128022">
            <path id="Trazado_115072" data-name="Trazado 115072" d="M1963.649,482.762a1.419,1.419,0,1,1-1.419-1.419A1.419,1.419,0,0,1,1963.649,482.762Z" transform="translate(-1960.811 -481.343)" fill="#bfb2ac"/>
          </g>
        </g>
        <g id="Grupo_128025" data-name="Grupo 128025" transform="translate(1.003 77.851)">
          <g id="Grupo_128024" data-name="Grupo 128024">
            <path id="Trazado_115073" data-name="Trazado 115073" d="M1926.072,482.762a1.419,1.419,0,1,1-1.419-1.419A1.419,1.419,0,0,1,1926.072,482.762Z" transform="translate(-1923.234 -481.343)" fill="#bfb2ac"/>
          </g>
        </g>
        <g id="Grupo_128026" data-name="Grupo 128026" transform="translate(5.632 52.385)">
          <rect id="Rectángulo_40557" data-name="Rectángulo 40557" width="24.11" height="3.684" rx="1.842" fill="#e2d2ca"/>
        </g>
        <g id="Grupo_128027" data-name="Grupo 128027" transform="translate(71.189 36.904)">
          <rect id="Rectángulo_40558" data-name="Rectángulo 40558" width="1.375" height="42.365" fill="#706865"/>
        </g>
        <g id="Grupo_128028" data-name="Grupo 128028" transform="translate(26.345 2.815)">
          <path id="Rectángulo_40559" data-name="Rectángulo 40559" d="M10.686,0h14.3A10.687,10.687,0,0,1,35.668,10.687v3.789A10.686,10.686,0,0,1,24.982,25.162h-14.3A10.686,10.686,0,0,1,0,14.476V10.686A10.686,10.686,0,0,1,10.686,0Z" fill="#fff59d"/>
        </g>
        <g id="Grupo_128029" data-name="Grupo 128029" transform="translate(27.742 4.175)">
          <rect id="Rectángulo_40560" data-name="Rectángulo 40560" width="32.874" height="19.859" fill="#f5f7ff"/>
        </g>
        <g id="Grupo_128030" data-name="Grupo 128030" transform="translate(27.742 4.175)">
          <rect id="Rectángulo_40561" data-name="Rectángulo 40561" width="32.874" height="1.58" fill="#cecfd6"/>
        </g>
        <g id="Grupo_128031" data-name="Grupo 128031" transform="translate(28.672 6.945)">
          <rect id="Rectángulo_40562" data-name="Rectángulo 40562" width="7.23" height="1.47" rx="0.735" fill="#cecfd6"/>
        </g>
        <g id="Grupo_128032" data-name="Grupo 128032" transform="translate(28.672 9.4)">
          <rect id="Rectángulo_40563" data-name="Rectángulo 40563" width="7.23" height="13.817" rx="3.615" fill="#cecfd6"/>
        </g>
        <g id="Grupo_128033" data-name="Grupo 128033" transform="translate(42.119 31.295)">
          <path id="Trazado_115074" data-name="Trazado 115074" d="M2016.031,390.193v-.447s-.629-2.785-5.082-2.785-4.362,3.233-4.362,3.233Z" transform="translate(-2006.587 -386.96)" fill="#2e436e"/>
        </g>
        <g id="Grupo_128035" data-name="Grupo 128035" transform="translate(41.081 29.984)">
          <g id="Grupo_128034" data-name="Grupo 128034">
            <path id="Trazado_115075" data-name="Trazado 115075" d="M2005.466,386.027a4.4,4.4,0,0,0,1.322-.289c.355-.214,2.475-1.64,2.973-1.412s3.812,1.243,3.7,1.728-.422.438-.656.352a17.1,17.1,0,0,0-2.853-.506s2.364.863,2.374,1.492-.5.783-.719,1.021-.493.829-1.1.874-3.582-.989-4.194-1.036a14.95,14.95,0,0,1-1.822-.062A16.95,16.95,0,0,1,2005.466,386.027Z" transform="translate(-2004.483 -384.302)" fill="#eea886"/>
          </g>
        </g>
        <g id="Grupo_128038" data-name="Grupo 128038" transform="translate(4.294 13.944)">
          <g id="Grupo_128037" data-name="Grupo 128037">
            <g id="Grupo_128036" data-name="Grupo 128036">
              <path id="Trazado_115076" data-name="Trazado 115076" d="M1950.065,353.339c-3.084-.542-6.331-1.32-6.331-1.32l-5.744-.234a55.9,55.9,0,0,0-7.348,2.1c-.2.089-.2,4.7-.738,5.913l1.721,3.631s.994,7.193,1.2,10.392c.095,1.469-.268,14.194-.268,14.194a22.152,22.152,0,0,0,4.437.687c3.92.433,13.715-.156,13.777-.619s-1.9-17.241-1.984-18.11c-.133-1.333.385-7.5.385-7.5.739.992,2.622,5.472,4.584,7.6,1.155,1.254,6.871,2.023,7.949,2.059,2.345.078,6.625.545,6.749.317.1-.137.373-3.8.1-3.887-.235-.078-8.18-.536-10.216-1.616-.745-.4-2.971-5.25-2.971-5.25S1951.767,354.1,1950.065,353.339Z" transform="translate(-1929.905 -351.785)" fill="#fff59d"/>
            </g>
          </g>
        </g>
        <g id="Grupo_128039" data-name="Grupo 128039" transform="translate(0 26.777)">
          <path id="Rectángulo_40564" data-name="Rectángulo 40564" d="M8.313,0h0a8.313,8.313,0,0,1,8.313,8.313v6.4a8.313,8.313,0,0,1-8.313,8.313h0A8.313,8.313,0,0,1,0,14.714v-6.4A8.313,8.313,0,0,1,8.313,0Z" fill="#e2d2ca"/>
        </g>
        <g id="Grupo_128040" data-name="Grupo 128040" transform="translate(5.013 41.478)">
          <path id="Trazado_115077" data-name="Trazado 115077" d="M1940.03,421.279a7.617,7.617,0,0,1-5.91-2.447c-3.324-3.669-2.726-10.12-2.7-10.393a.925.925,0,0,1,1.842.181c-.007.074-.537,5.921,2.233,8.973a5.77,5.77,0,0,0,4.535,1.835.925.925,0,0,1,0,1.85Z" transform="translate(-1931.362 -407.605)" fill="#e2d2ca"/>
        </g>
        <g id="Grupo_128050" data-name="Grupo 128050" transform="translate(37.362 7.287)">
          <path id="Trazado_115078" data-name="Trazado 115078" d="M1996.943,345.107a6.817,6.817,0,0,0,2.359,5.158c.078.068.158.134.24.2s.186.143.281.211a6.778,6.778,0,0,0,3.1,1.2c.2.025.406.041.613.047.074,0,.149,0,.224,0q.331,0,.654-.031a6.6,6.6,0,0,0,.709-.106,6.824,6.824,0,0,0,3.475-1.877l.124-.129a6.549,6.549,0,0,0,.433-.507,6.818,6.818,0,1,0-12.213-4.168Z" transform="translate(-1996.943 -338.289)" fill="#eef0f7"/>
          <g id="Grupo_128049" data-name="Grupo 128049" transform="translate(1.598 2.991)">
            <g id="Grupo_128041" data-name="Grupo 128041" transform="translate(0.779 6.003)">
              <path id="Trazado_115079" data-name="Trazado 115079" d="M2001.761,358.109l.5,1.8a6.78,6.78,0,0,0,3.1,1.2c.2.025.407.041.614.047q.111,0,.224,0,.331,0,.654-.031a6.557,6.557,0,0,0,.709-.106,6.779,6.779,0,0,0,2.787-1.272c.1-.6.2-1.257.291-1.874-.5-.186-2.1-.729-3.1-1.069l-.042-.014-.065-.022-.17-.058-.157-.053-.4-.135h0l-.021-.007h-.012l-1.353.1-.227.017-.071.005-.031.007c-.082.021-.319.083-.633.179h0A6.641,6.641,0,0,0,2001.761,358.109Z" transform="translate(-2001.761 -356.523)" fill="#d9c7c1"/>
            </g>
            <g id="Grupo_128042" data-name="Grupo 128042" transform="translate(3.486 0.423)">
              <path id="Trazado_115080" data-name="Trazado 115080" d="M2008.628,345.229s-1.623.274-1.348,2.815,1.708,2.317,1.8,2.314,1.44.031,1.512-3.077C2010.6,347.282,2010.616,344.984,2008.628,345.229Z" transform="translate(-2007.248 -345.211)" fill="#eea987"/>
            </g>
            <g id="Grupo_128043" data-name="Grupo 128043" transform="translate(4.106 4.539)">
              <path id="Trazado_115081" data-name="Trazado 115081" d="M2008.554,353.85a5.816,5.816,0,0,1-.043,1.274c-.1.227,1.3.948,2.175.127a8.972,8.972,0,0,1-.121-1.547C2010.619,353.3,2008.554,353.85,2008.554,353.85Z" transform="translate(-2008.506 -353.556)" fill="#eea987"/>
            </g>
            <g id="Grupo_128044" data-name="Grupo 128044" transform="translate(3.233 2.456)">
              <path id="Trazado_115082" data-name="Trazado 115082" d="M2006.988,349.415s-.181-.188-.243,0,.288,1.05.266,1.089c0,0,.034.074.076.033A9.379,9.379,0,0,0,2006.988,349.415Z" transform="translate(-2006.737 -349.332)" fill="#eea987"/>
            </g>
            <g id="Grupo_128045" data-name="Grupo 128045" transform="translate(6.728 2.381)">
              <path id="Trazado_115083" data-name="Trazado 115083" d="M2013.908,349.269s.173-.2.244-.005a3.246,3.246,0,0,1-.221,1.1s-.056.088-.1.048A9.531,9.531,0,0,1,2013.908,349.269Z" transform="translate(-2013.821 -349.181)" fill="#eea987"/>
            </g>
            <g id="Grupo_128046" data-name="Grupo 128046" transform="translate(3.368)">
              <path id="Trazado_115084" data-name="Trazado 115084" d="M2007.023,346.675c.056.348.109.606.109.606l.236.309a6.088,6.088,0,0,1,.022-.789c.013-.041.029-.113.046-.191.027-.128.055-.274.074-.322a3.475,3.475,0,0,1,2.6.083s-.01.105-.01.222c0,.136.015.289.078.312.116.042.067.8.067.8l.189-.218s.055-.395.108-.849v0c.012-.106.025-.215.036-.323a2.123,2.123,0,0,0-.613-1.772,2.926,2.926,0,0,0-2.108.009.743.743,0,0,0-.314.082A3.013,3.013,0,0,0,2007.023,346.675Z" transform="translate(-2007.011 -344.353)" fill="#e8734d"/>
            </g>
            <path id="Trazado_115085" data-name="Trazado 115085" d="M2010.682,354.957a1.034,1.034,0,0,1-.861.346,1.171,1.171,0,0,1-.863-.328,1.049,1.049,0,0,0,.866.59A1.063,1.063,0,0,0,2010.682,354.957Z" transform="translate(-2004.63 -349.727)" fill="#c78d71"/>
            <path id="Trazado_115086" data-name="Trazado 115086" d="M2010.744,356.721a1.77,1.77,0,0,1-1.261.829c-.523.045-.977-.618-1.189-.944A3.17,3.17,0,0,1,2010.744,356.721Z" transform="translate(-2004.293 -350.464)" fill="#eea987"/>
            <path id="Trazado_115087" data-name="Trazado 115087" d="M2008.445,356.317a4.5,4.5,0,0,0,1.039.9l-.439.677-.75-1.338Z" transform="translate(-2004.293 -350.416)" fill="#eddad3"/>
            <path id="Trazado_115088" data-name="Trazado 115088" d="M2011.767,356.523a3.02,3.02,0,0,1-1.062.8l.483.7.843-1.22Z" transform="translate(-2005.514 -350.52)" fill="#eddad3"/>
            <path id="Trazado_115089" data-name="Trazado 115089" d="M2010.318,358.142l-.376.573a.783.783,0,0,0,.763-.014Z" transform="translate(-2005.128 -351.34)" fill="#5073ab"/>
            <path id="Trazado_115090" data-name="Trazado 115090" d="M2000.879,358.144l.01.038c.042.147.2.713.408,1.465.078.068.158.134.24.2s.186.143.281.211a6.78,6.78,0,0,0,3.1,1.2c-.1-2.36-.382-4.453-.382-4.453q-.331.087-.628.173h0a14.4,14.4,0,0,0-2.906,1.1l-.007,0C2000.915,358.12,2000.879,358.144,2000.879,358.144Z" transform="translate(-2000.535 -350.661)" fill="#323657"/>
            <path id="Trazado_115091" data-name="Trazado 115091" d="M2013.5,361.324a6.819,6.819,0,0,0,3.475-1.877l.125-.129c.119-.507.2-.838.2-.859h0a15.453,15.453,0,0,0-3.828-1.351v0C2013.478,357.177,2013.476,359.091,2013.5,361.324Z" transform="translate(-2006.92 -350.816)" fill="#323657"/>
            <path id="Trazado_115092" data-name="Trazado 115092" d="M2010.26,359.218c.028.622.031,1.827.021,3.2q.111,0,.223,0c.221,0,.438-.01.654-.031a20.838,20.838,0,0,0-.453-3.178c-.032-.138-.053-.206-.053-.206l-.4.066C2010.256,359.119,2010.258,359.166,2010.26,359.218Z" transform="translate(-2005.285 -351.78)" fill="#5073ab"/>
            <g id="Grupo_128047" data-name="Grupo 128047" transform="translate(0 7.411)">
              <path id="Trazado_115093" data-name="Trazado 115093" d="M2000.182,360.179a6.831,6.831,0,0,0,.761.772c.079.068.158.134.24.2l-.537-1.771h0l-.006,0a.431.431,0,0,0-.1.105A3.335,3.335,0,0,0,2000.182,360.179Z" transform="translate(-2000.182 -359.378)" fill="#323657"/>
            </g>
            <g id="Grupo_128048" data-name="Grupo 128048" transform="translate(10.058 7.642)">
              <path id="Trazado_115094" data-name="Trazado 115094" d="M2020.573,360.834c.042-.042.083-.085.125-.129a6.6,6.6,0,0,0,.432-.507.788.788,0,0,0-.229-.354h0Z" transform="translate(-2020.573 -359.845)" fill="#323657"/>
            </g>
          </g>
        </g>
      </g>
      <g id="Grupo_128052" data-name="Grupo 128052" transform="translate(2201.385 23.176)">
        <path id="Trazado_115095" data-name="Trazado 115095" d="M2493.509,170.619l-.025-.329a2.909,2.909,0,0,1,.785-2.191,2.782,2.782,0,0,0,.887-1.735c0-.646-.4-1.076-1.2-1.089a2.255,2.255,0,0,0-1.28.393l-.3-.8a3.318,3.318,0,0,1,1.81-.507,1.87,1.87,0,0,1,2.115,1.862,3.426,3.426,0,0,1-1.088,2.2,2.5,2.5,0,0,0-.722,1.862l.012.329Zm-.279,1.773a.749.749,0,0,1,.76-.8.792.792,0,1,1-.76.8Z" transform="translate(-2492.37 -164.364)" fill="#fff"/>
      </g>
    </g>
  </g>
</svg>
