<svg xmlns="http://www.w3.org/2000/svg" width="190" height="188.178" viewBox="0 0 190 188.178">
  <g id="Grupo_129579" data-name="Grupo 129579" transform="translate(-180 -2170.999)">
    <g id="Grupo_128698" data-name="Grupo 128698" transform="translate(167.84 2155.684)">
      <g id="Floor" transform="translate(12.16 93.797)">
        <path id="Floor-2" data-name="Floor" d="M39.985,305.432c-37.1-21.42-37.1-56.148,0-77.567s97.25-21.42,134.35,0,37.1,56.147,0,77.567S77.084,326.852,39.985,305.432Z" transform="translate(-12.16 -211.801)" fill="#f0f0f0"/>
      </g>
      <g id="Shadows" transform="translate(31.955 100.726)">
        <path id="Shadow" d="M120.018,319.893l-56.64-32.724c-2.21-1.276-2.21-3.363,0-4.639l91.71-52.988a3.67,3.67,0,0,1,3.308,0l58.03,33.53a1.751,1.751,0,0,1,0,3.032l-93.1,53.788A3.67,3.67,0,0,1,120.018,319.893Z" transform="translate(-61.72 -229.149)" fill="#e0e0e0"/>
        <ellipse id="Shadow-2" data-name="Shadow" cx="20.992" cy="12.12" rx="20.992" ry="12.12" transform="translate(107.851 61.969)" fill="#e0e0e0"/>
      </g>
      <g id="Device" transform="translate(33.192 15.316)">
        <g id="Laptop" transform="translate(0 0)">
          <g id="Grupo_128649" data-name="Grupo 128649" transform="translate(3.308 81.717)">
            <path id="Trazado_188393" data-name="Trazado 188393" d="M73.1,275.584a4.968,4.968,0,0,0,2.317,3.847l50.442,29.129a5.123,5.123,0,0,0,4.634,0l88.823-51.283a4.353,4.353,0,0,0,0-7.695l-50.442-29.128a5.12,5.12,0,0,0-4.634,0L75.416,271.736A4.968,4.968,0,0,0,73.1,275.584Z" transform="translate(-73.098 -219.9)" fill="#455a64"/>
            <path id="Trazado_188394" data-name="Trazado 188394" d="M304.449,298.506a4.967,4.967,0,0,1-2.318,3.846l-88.825,51.284a4.775,4.775,0,0,1-2.313.552v-5.018a4.733,4.733,0,0,0,2.313-.556l88.825-51.28c1.121-.646,1.261-1.645.42-2.381A4.972,4.972,0,0,1,304.449,298.506Z" transform="translate(-155.914 -264.976)" fill="#37474f"/>
            <path id="Trazado_188395" data-name="Trazado 188395" d="M128.175,382.265v5.014a4.719,4.719,0,0,1-2.317-.551L75.414,357.6a4.339,4.339,0,0,1-.235-7.544c-1.038.744-.958,1.835.235,2.526l50.445,29.13A4.722,4.722,0,0,0,128.175,382.265Z" transform="translate(-73.097 -298.067)" fill="#263238"/>
          </g>
          <g id="Grupo_128650" data-name="Grupo 128650">
            <path id="Trazado_188396" data-name="Trazado 188396" d="M65.951,148.953c-1.133-.8-1.135-1.863-1.135-3.341V70.969a5.122,5.122,0,0,1,2.317-4.013l88.823-51.282c1.279-.739,2.46-.2,3.66.49s1.966,1.291,1.966,2.768V93.575a5.122,5.122,0,0,1-2.317,4.013L70.441,148.87C68.5,150.176,67.183,149.822,65.951,148.953Z" transform="translate(-64.815 -15.317)" fill="#37474f"/>
            <path id="Trazado_188397" data-name="Trazado 188397" d="M70.442,229.118c-1.936,1.3-3.259.951-4.49.081-1.131-.8-1.135-1.864-1.135-3.34V151.217a4.771,4.771,0,0,1,.675-2.281l3.309,1.925a4.7,4.7,0,0,0-.675,2.274V227.78C68.126,229.256,69.161,229.854,70.442,229.118Z" transform="translate(-64.816 -95.564)" fill="#263238"/>
            <path id="Trazado_188398" data-name="Trazado 188398" d="M162.6,18.928c0-1.475-1.038-2.073-2.317-1.337L71.457,68.875a4.7,4.7,0,0,0-1.637,1.732l-3.306-1.923h0a4.756,4.756,0,0,1,1.641-1.732l88.821-51.28c1.279-.739,2.459-.2,3.66.489S162.6,17.453,162.6,18.928Z" transform="translate(-65.833 -15.316)" fill="#455a64"/>
          </g>
          <g id="Grupo_128651" data-name="Grupo 128651" transform="translate(5.482 6.612)">
            <path id="Trazado_188399" data-name="Trazado 188399" d="M79.929,81.488l85.637-49.43c.768-.443,1.39-.084,1.39.8v68.464a3.073,3.073,0,0,1-1.39,2.408L79.929,153.162c-.768.443-1.39.084-1.39-.8V83.9A3.072,3.072,0,0,1,79.929,81.488Z" transform="translate(-78.539 -31.869)" fill="#263238"/>
            <path id="Trazado_188400" data-name="Trazado 188400" d="M79.929,82.211a3.072,3.072,0,0,0-1.39,2.408v68.05l85.133-49.138a3.073,3.073,0,0,0,1.39-2.408V33.072Z" transform="translate(-78.539 -32.591)" fill="#f0f8ff"/>
            <path id="Trazado_188401" data-name="Trazado 188401" d="M163.672,103.531a3.073,3.073,0,0,0,1.39-2.408V33.072Z" transform="translate(-78.539 -32.591)" fill="#f0f8ff" opacity="0.65"/>
          </g>
          <path id="Trazado_188402" data-name="Trazado 188402" d="M94.229,278.031l82.447-47.6a2.563,2.563,0,0,1,2.317,0l2.4,1.26a.706.706,0,0,1,0,1.338l-82.46,47.593a2.563,2.563,0,0,1-2.317,0l-2.386-1.253A.706.706,0,0,1,94.229,278.031Z" transform="translate(-82.192 -144.342)" fill="#37474f"/>
          <g id="Grupo_128652" data-name="Grupo 128652" transform="translate(17.96 89.619)">
            <path id="Trazado_188403" data-name="Trazado 188403" d="M110.323,287.6,192.769,240a2.363,2.363,0,0,1,2.117-.115l21.46,12.39c.529.306.44.853-.2,1.222L133.8,301.033a2.375,2.375,0,0,1-2.119.119L110.125,288.82C109.594,288.516,109.683,287.97,110.323,287.6Z" transform="translate(-109.778 -239.685)" fill="#263238"/>
            <path id="Trazado_188404" data-name="Trazado 188404" d="M183.947,262.581l2.581-1.49c.11-.064.126-.157.036-.208l-2.277-1.315a.4.4,0,0,0-.361.021l-2.581,1.491c-.11.063-.126.157-.036.208l2.277,1.315A.4.4,0,0,0,183.947,262.581Zm-3.6-5.06-2.581,1.49c-.109.064-.125.157-.036.209L180,260.535a.4.4,0,0,0,.361-.021l2.581-1.49c.11-.064.126-.157.036-.208l-2.278-1.315A.4.4,0,0,0,180.345,257.521Zm-8.34,4.815-4.369,2.522c-.109.063-.125.157-.036.208l2.278,1.315a.4.4,0,0,0,.361-.021l4.369-2.522c.109-.064.126-.157.036-.209l-2.277-1.315A.4.4,0,0,0,172.005,262.336Zm4.567-2.637-2.582,1.491c-.109.063-.125.157-.036.209l2.277,1.315a.4.4,0,0,0,.361-.021l2.581-1.49c.109-.063.126-.157.036-.208l-2.277-1.315A.4.4,0,0,0,176.572,259.7Zm-10.127,5.847-2.581,1.491c-.11.063-.126.157-.036.209l2.277,1.315a.4.4,0,0,0,.361-.021l2.582-1.491c.109-.063.126-.157.036-.209l-2.277-1.314A.4.4,0,0,0,166.445,265.546Zm-3.773,2.178-2.582,1.49c-.11.063-.125.157-.036.208l2.277,1.315a.4.4,0,0,0,.361-.021l2.581-1.491c.11-.063.126-.157.036-.208l-2.277-1.315A.4.4,0,0,0,162.672,267.724Zm9.566,5.752,2.581-1.49c.109-.063.126-.157.036-.208l-2.277-1.315a.4.4,0,0,0-.361.021l-2.581,1.49c-.11.064-.126.157-.036.209l2.277,1.315A.4.4,0,0,0,172.238,273.477Zm-3.773,2.178,2.582-1.49c.109-.063.125-.157.036-.209l-2.277-1.315a.4.4,0,0,0-.361.021l-2.581,1.49c-.11.063-.126.157-.036.208l2.277,1.315A.4.4,0,0,0,168.466,275.655Zm-3.773,2.178,2.581-1.49c.11-.063.126-.157.036-.208l-2.277-1.315a.4.4,0,0,0-.361.021l-2.582,1.49c-.11.063-.126.157-.036.209l2.277,1.315A.4.4,0,0,0,164.693,277.833Zm-3.773,2.178,2.582-1.49c.11-.063.126-.157.036-.208L161.26,277a.4.4,0,0,0-.361.021l-2.581,1.49c-.109.063-.126.157-.036.209l2.277,1.314A.4.4,0,0,0,160.92,280.011Zm19.255-15.251,2.581-1.491c.11-.063.126-.157.036-.208l-2.277-1.315a.4.4,0,0,0-.361.021l-2.581,1.49c-.11.064-.126.157-.036.208l2.277,1.315A.4.4,0,0,0,180.175,264.76Zm-4.163,6.539,5.759-3.325c.11-.064.125-.157.036-.209l-5.858-3.382a.4.4,0,0,0-.361.021l-2.979,1.72c-.11.063-.125.157-.036.208l3.256,1.88c.089.052.074.145-.036.208l-2.383,1.376c-.11.064-.126.157-.036.209l2.277,1.315A.4.4,0,0,0,176.011,271.3ZM158.9,269.9l-2.582,1.491c-.109.063-.125.157-.036.209l2.277,1.315a.4.4,0,0,0,.361-.021l2.581-1.49c.109-.063.125-.157.036-.209l-2.277-1.315A.4.4,0,0,0,158.9,269.9Zm-3.773,2.178-2.582,1.49c-.11.064-.126.157-.036.209l2.277,1.315a.4.4,0,0,0,.361-.021l2.581-1.491c.11-.063.126-.157.036-.208l-2.277-1.315A.4.4,0,0,0,155.127,272.081Zm-20.978,23.2a.4.4,0,0,0,.361-.021l2.581-1.491c.109-.063.125-.157.036-.209l-2.277-1.314a.4.4,0,0,0-.361.021l-2.581,1.49c-.11.063-.126.157-.036.208Zm-9.205-5.773L122.363,291c-.11.063-.126.157-.036.209l2.277,1.314a.4.4,0,0,0,.361-.021l2.581-1.49c.109-.064.126-.157.036-.208l-2.277-1.315A.4.4,0,0,0,124.944,289.507Zm4.631,4.279a.4.4,0,0,0,.361-.02l2.581-1.491c.11-.063.126-.157.036-.208l-2.277-1.315a.4.4,0,0,0-.361.021l-2.581,1.49c-.11.064-.126.157-.036.209Zm10.5,2.4,2.581-1.491c.11-.063.126-.157.036-.208l-2.277-1.315a.4.4,0,0,0-.361.021l-2.582,1.49c-.109.063-.125.157-.036.208l2.277,1.315A.4.4,0,0,0,140.077,296.18Zm-4.134,2.2a.4.4,0,0,0,.361-.021l2.581-1.491c.109-.063.126-.156.036-.208l-2.277-1.315a.4.4,0,0,0-.361.021l-2.581,1.491c-.11.063-.126.157-.036.209Zm-7.226-11.051-2.581,1.49c-.11.064-.126.157-.036.208l2.277,1.315a.4.4,0,0,0,.361-.021l2.581-1.491c.11-.063.126-.157.036-.208l-2.277-1.315A.4.4,0,0,0,128.717,287.329Zm18.864-10.891L145,277.928c-.109.063-.125.157-.036.208l2.277,1.315a.4.4,0,0,0,.361-.021l2.582-1.491c.109-.063.125-.157.036-.208l-2.277-1.314A.4.4,0,0,0,147.581,276.437Zm-15.091,8.713-2.581,1.49c-.109.063-.126.157-.036.208l2.277,1.315a.4.4,0,0,0,.361-.021l2.581-1.49c.11-.063.126-.157.036-.208l-2.277-1.315A.4.4,0,0,0,132.49,285.151Zm18.864-10.892-2.581,1.491c-.11.063-.126.157-.036.208l2.277,1.315a.4.4,0,0,0,.361-.021l2.581-1.49c.11-.064.126-.157.036-.208l-2.277-1.315A.4.4,0,0,0,151.354,274.259Zm-7.546,4.357-2.581,1.49c-.109.064-.126.157-.036.209l2.277,1.315a.4.4,0,0,0,.361-.021l2.581-1.49c.109-.064.126-.157.036-.209l-2.277-1.314A.4.4,0,0,0,143.808,278.616Zm-3.773,2.178-2.581,1.491c-.11.063-.126.157-.036.208l2.277,1.315a.4.4,0,0,0,.361-.021l2.581-1.49c.109-.064.125-.157.036-.209l-2.277-1.315A.4.4,0,0,0,140.035,280.794Zm-3.773,2.178-2.581,1.49c-.11.064-.126.157-.036.209l2.277,1.315a.4.4,0,0,0,.361-.021l2.581-1.49c.109-.064.126-.157.036-.209l-2.277-1.315A.4.4,0,0,0,136.263,282.972Zm17.111,1.4,2.581-1.491c.109-.063.126-.157.036-.209l-2.277-1.315a.4.4,0,0,0-.361.021l-2.581,1.49c-.11.064-.126.157-.036.209l2.277,1.315A.4.4,0,0,0,153.374,284.368Zm35.311-31.662L186.1,254.2c-.109.064-.125.157-.036.209l2.277,1.315a.4.4,0,0,0,.361-.021l2.581-1.49c.11-.064.126-.157.036-.208l-2.277-1.315A.4.4,0,0,0,188.685,252.706Zm-4.567,2.637-2.581,1.49c-.11.063-.126.157-.036.208l2.277,1.315a.4.4,0,0,0,.361-.021l2.581-1.49c.11-.063.126-.157.036-.208l-2.277-1.315A.4.4,0,0,0,184.118,255.343Zm8.34-4.815-2.581,1.49c-.109.063-.126.157-.036.208l2.277,1.315a.4.4,0,0,0,.361-.021l2.582-1.49c.109-.063.126-.157.036-.208l-2.277-1.315A.4.4,0,0,0,192.458,250.528ZM171.437,269.8l2.581-1.49c.11-.064.126-.157.036-.209l-2.277-1.315a.4.4,0,0,0-.361.021l-2.581,1.49c-.109.063-.125.157-.036.208l2.277,1.315A.406.406,0,0,0,171.437,269.8Zm25.155-21.476a.4.4,0,0,0-.361.021l-2.581,1.49c-.11.064-.126.157-.036.208l2.277,1.315a.4.4,0,0,0,.361-.021l2.581-1.491c.11-.063.126-.156.036-.208ZM157.147,282.19l2.581-1.49c.11-.064.126-.157.036-.208l-2.277-1.315a.4.4,0,0,0-.361.021l-2.581,1.491c-.109.063-.125.157-.036.208l2.277,1.315A.4.4,0,0,0,157.147,282.19Zm46.267-26.713,2.581-1.49c.109-.063.125-.157.036-.208l-2.278-1.315a.4.4,0,0,0-.361.021l-2.581,1.49c-.109.063-.126.157-.036.208l2.277,1.315A.4.4,0,0,0,203.414,255.477Zm-7.354.111,2.582-1.491c.109-.063.125-.156.036-.208l-2.277-1.315a.4.4,0,0,0-.361.021l-2.581,1.49c-.11.064-.126.157-.036.208l2.278,1.315A.4.4,0,0,0,196.06,255.588Zm4.113-5.192a.4.4,0,0,0-.361.02l-2.581,1.491c-.109.063-.126.157-.036.208l2.277,1.315a.4.4,0,0,0,.361-.02l2.581-1.491c.11-.064.126-.157.036-.208Zm.794-.459,5.858,3.382a.4.4,0,0,0,.361-.021l2.582-1.49c.11-.064.126-.157.036-.208l-5.858-3.382a.4.4,0,0,0-.361.021L201,249.729C200.894,249.792,200.878,249.886,200.968,249.938Zm-8.7,4.836-2.581,1.49c-.11.063-.126.157-.036.208l2.277,1.315a.4.4,0,0,0,.361-.021l2.581-1.49c.109-.064.126-.157.036-.208l-2.277-1.315A.4.4,0,0,0,192.266,254.774Zm-28.4,16.394-2.581,1.491c-.11.063-.126.157-.036.208l2.277,1.315a.4.4,0,0,0,.361-.021l2.581-1.49c.11-.064.126-.157.036-.208l-2.277-1.315A.4.4,0,0,0,163.871,271.167Zm35.409-13.491a.4.4,0,0,0,.361-.021l2.581-1.49c.109-.064.125-.157.036-.209l-2.277-1.315a.4.4,0,0,0-.361.021l-2.581,1.491c-.109.063-.126.157-.036.208Zm-31.637,11.313-2.581,1.49c-.11.064-.126.157-.036.209L167.3,272a.4.4,0,0,0,.361-.021l2.582-1.49c.109-.064.126-.157.036-.208L168,268.969A.4.4,0,0,0,167.643,268.989ZM137.921,293.1a.4.4,0,0,0,.361-.021l2.582-1.49c.109-.064.125-.157.036-.208l-2.277-1.315a.4.4,0,0,0-.361.021l-2.582,1.491c-.109.063-.125.157-.036.208Zm-4.234-4.508-2.581,1.491c-.109.063-.126.157-.036.208l2.277,1.315a.4.4,0,0,0,.361-.021l2.581-1.49c.11-.063.126-.157.036-.209l-2.277-1.315A.4.4,0,0,0,133.688,288.594Zm8.368,2.309,2.581-1.491c.109-.063.126-.157.036-.209l-2.277-1.314a.4.4,0,0,0-.361.021l-2.581,1.49c-.109.063-.126.157-.036.208l2.277,1.315A.4.4,0,0,0,142.056,290.9Zm3.773-2.178,2.581-1.491c.11-.064.126-.157.036-.209l-2.278-1.315a.405.405,0,0,0-.361.021l-2.582,1.49c-.109.064-.126.157-.036.209l2.277,1.315A.4.4,0,0,0,145.828,288.725Zm3.773-2.178,2.581-1.49c.11-.064.126-.157.036-.209l-2.277-1.314a.4.4,0,0,0-.361.021L147,285.043c-.11.064-.126.157-.036.209l2.277,1.315A.4.4,0,0,0,149.6,286.546Zm-12.141-.131-2.581,1.49c-.11.063-.126.157-.036.208l2.278,1.315a.4.4,0,0,0,.361-.021l2.582-1.49c.109-.063.126-.157.036-.208l-2.277-1.315A.4.4,0,0,0,137.461,286.416Zm3.773-2.178-2.581,1.49c-.11.064-.126.157-.036.209l2.277,1.315a.4.4,0,0,0,.361-.021l2.581-1.49c.11-.063.126-.157.036-.208l-2.277-1.315A.4.4,0,0,0,141.234,284.237Zm15.092-8.713-2.581,1.49c-.11.064-.126.157-.036.209l2.277,1.315a.4.4,0,0,0,.361-.021l2.582-1.49c.109-.063.126-.157.036-.208l-2.277-1.315A.4.4,0,0,0,156.325,275.524Zm-3.773,2.178-2.582,1.49c-.109.064-.126.157-.036.208l2.277,1.315a.405.405,0,0,0,.361-.021l2.581-1.49c.11-.064.126-.157.036-.209l-2.277-1.315A.4.4,0,0,0,152.552,277.7Zm7.546-4.357-2.582,1.49c-.109.064-.125.157-.036.208l2.277,1.315a.4.4,0,0,0,.361-.021l2.581-1.491c.109-.063.125-.157.036-.208l-2.277-1.315A.4.4,0,0,0,160.1,273.346Zm-15.091,8.713-2.581,1.491c-.11.064-.126.157-.036.209l2.277,1.314a.4.4,0,0,0,.361-.02l2.582-1.49c.109-.064.126-.157.036-.209l-2.277-1.314A.4.4,0,0,0,145.007,282.059Zm3.773-2.178-2.581,1.491c-.109.063-.126.157-.036.208l2.277,1.315a.4.4,0,0,0,.361-.02l2.581-1.491c.11-.063.126-.157.036-.209l-2.278-1.314A.4.4,0,0,0,148.779,279.88ZM143.849,294l2.582-1.49c.11-.063.126-.157.036-.208l-2.278-1.315a.4.4,0,0,0-.361.021l-2.581,1.49c-.109.063-.126.157-.036.209l2.277,1.315A.4.4,0,0,0,143.849,294Zm-20.04-1.023-2.277-1.315a.4.4,0,0,0-.361.021l-2.582,1.49c-.11.064-.126.157-.036.209l2.277,1.315a.4.4,0,0,0,.361-.021l2.581-1.49C123.883,293.124,123.9,293.031,123.809,292.979Zm4.971,1.265-2.278-1.314a.4.4,0,0,0-.361.021l-3.971,2.293c-.11.063-.126.157-.036.209l2.277,1.315a.4.4,0,0,0,.361-.021l3.972-2.293C128.854,294.389,128.87,294.3,128.781,294.244Zm-8.324-3.888-2.277-1.315a.4.4,0,0,0-.361.021l-3.177,1.835c-.109.063-.126.157-.036.208l2.277,1.315a.4.4,0,0,0,.361-.021l3.177-1.835C120.531,290.5,120.547,290.407,120.457,290.355Zm2.436-1.406a.4.4,0,0,0,.361-.021l2.581-1.491c.11-.063.126-.157.036-.208l-2.277-1.315a.4.4,0,0,0-.361.021l-2.581,1.49c-.11.064-.126.157-.036.209Zm10.461,6.789-2.277-1.315a.4.4,0,0,0-.361.021l-4.964,2.866c-.109.064-.126.157-.036.209l2.277,1.314a.4.4,0,0,0,.361-.02l4.964-2.866C133.428,295.884,133.444,295.79,133.354,295.739Zm1.794,3.1-2.277-1.314a.4.4,0,0,0-.361.02l-3.177,1.835c-.11.064-.126.157-.036.208l2.277,1.315a.405.405,0,0,0,.361-.021l3.177-1.835C135.222,298.983,135.238,298.89,135.148,298.838Zm15.8-26.084a.4.4,0,0,0,.361-.02l2.581-1.491c.11-.064.126-.157.036-.208l-2.277-1.315a.4.4,0,0,0-.361.02l-2.581,1.49c-.11.064-.126.157-.036.209ZM143.4,277.11a.4.4,0,0,0,.361-.021l2.581-1.491c.109-.063.125-.156.036-.208l-2.277-1.315a.4.4,0,0,0-.361.021l-2.581,1.49c-.11.064-.126.157-.036.209Zm-16.733,9.661a.4.4,0,0,0,.361-.021l2.582-1.49c.11-.063.126-.157.036-.208l-2.277-1.315a.4.4,0,0,0-.361.021l-2.581,1.49c-.109.063-.126.157-.036.209Zm20.506-11.839a.4.4,0,0,0,.361-.021l2.581-1.49c.11-.063.126-.157.036-.208l-2.277-1.315a.4.4,0,0,0-.361.021l-2.581,1.49c-.109.063-.126.157-.036.208Zm-7.546,4.357a.4.4,0,0,0,.361-.021l2.581-1.49c.11-.063.126-.157.036-.208l-2.277-1.315a.4.4,0,0,0-.361.021l-2.581,1.49c-.11.063-.126.157-.036.208Zm-2.379,19.843a.4.4,0,0,0-.361.021l-3.971,2.293c-.11.064-.126.157-.036.209l2.277,1.315a.4.4,0,0,0,.361-.021l3.972-2.293c.109-.063.125-.157.036-.208Zm-3.036-16.717a.406.406,0,0,0,.361-.021l2.581-1.49c.11-.064.126-.157.036-.209l-2.277-1.315a.4.4,0,0,0-.361.021l-2.581,1.49c-.11.063-.126.157-.036.208Zm-3.773,2.178a.4.4,0,0,0,.361-.021l2.581-1.49c.109-.064.126-.157.036-.209l-2.277-1.315a.4.4,0,0,0-.361.021l-2.582,1.49c-.11.064-.126.157-.036.209Zm76.7-25.816a.4.4,0,0,0-.361.021l-6.354,3.668c-.11.064-.126.157-.036.209l2.278,1.315a.4.4,0,0,0,.361-.021l6.354-3.669c.11-.063.126-.157.036-.208Zm-8.34,4.815a.4.4,0,0,0-.361.021l-2.581,1.49c-.109.064-.125.157-.036.208l2.277,1.315a.4.4,0,0,0,.361-.021l2.581-1.49c.109-.063.125-.157.036-.208Zm-51.181,28.232,2.581-1.49c.11-.063.126-.157.036-.209l-2.277-1.314a.4.4,0,0,0-.361.021l-2.582,1.49c-.11.063-.126.157-.036.208l2.277,1.315A.4.4,0,0,0,147.622,291.824Zm43.635-23.875a.4.4,0,0,0-.361.021l-2.581,1.49c-.11.064-.126.157-.036.208l2.277,1.315a.405.405,0,0,0,.361-.021l2.582-1.491c.11-.063.126-.157.036-.209Zm19.659-11.35a.4.4,0,0,0-.361.021l-2.581,1.491c-.109.063-.126.157-.036.208l2.277,1.315a.4.4,0,0,0,.361-.021l2.582-1.49c.11-.064.126-.157.036-.208Zm6.05-.863-5.858-3.383a.4.4,0,0,0-.361.021l-2.581,1.491c-.11.063-.126.157-.036.208l5.858,3.382a.4.4,0,0,0,.361-.021l2.582-1.491C217.04,255.881,217.056,255.787,216.967,255.736Zm-39.807,20.353a.4.4,0,0,0-.361.021l-3.177,1.835c-.11.063-.126.157-.036.208l2.277,1.315a.4.4,0,0,0,.361-.021l3.177-1.834c.11-.064.126-.157.036-.209Zm9.532-5.5a.4.4,0,0,0-.361.021l-3.971,2.293c-.109.063-.126.157-.036.208l2.277,1.315a.4.4,0,0,0,.361-.021l3.971-2.293c.11-.063.126-.156.036-.208Zm-18.268,10.547a.4.4,0,0,0-.361.021l-21.247,12.267c-.11.063-.126.157-.036.208l2.277,1.315a.4.4,0,0,0,.361-.021l21.247-12.267c.11-.064.126-.157.036-.209Zm-22.439,12.955a.4.4,0,0,0-.361.021l-3.177,1.834c-.11.063-.126.157-.036.208l2.277,1.315a.405.405,0,0,0,.361-.021l3.177-1.835c.109-.063.125-.157.036-.208Zm26.807-15.477a.4.4,0,0,0-.361.021l-3.177,1.834c-.11.063-.126.157-.036.208l2.277,1.315a.4.4,0,0,0,.361-.02l3.177-1.835c.11-.063.126-.157.036-.209Zm-31.175,18a.4.4,0,0,0-.361.021l-3.177,1.835c-.11.063-.126.157-.036.208l2.277,1.315a.4.4,0,0,0,.361-.02l3.177-1.835c.11-.064.126-.157.036-.208Zm39.912-23.043a.4.4,0,0,0-.361.021l-3.177,1.834c-.109.063-.126.157-.036.208l2.277,1.315a.4.4,0,0,0,.361-.02l3.177-1.835c.109-.063.125-.157.036-.209Zm13.5-7.8a.4.4,0,0,0-.361.021l-2.581,1.49c-.11.064-.126.157-.036.208l2.277,1.315a.4.4,0,0,0,.361-.021l2.581-1.49c.11-.064.125-.157.036-.209Zm8.191-6.047,2.581-1.49c.11-.063.126-.157.036-.208l-2.277-1.315a.4.4,0,0,0-.361.021l-2.581,1.49c-.109.063-.126.157-.036.208l2.277,1.315A.4.4,0,0,0,203.222,259.723Zm-15.5.68,2.581-1.491c.109-.063.125-.157.036-.208l-2.277-1.315a.4.4,0,0,0-.361.021l-2.581,1.49c-.11.064-.126.157-.036.208l2.277,1.315A.4.4,0,0,0,187.72,260.4ZM177.805,274.4l7.546-4.357c.109-.063.125-.157.036-.209l-2.277-1.315a.4.4,0,0,0-.361.021L175.2,272.9c-.11.063-.126.157-.036.208l2.277,1.315A.4.4,0,0,0,177.805,274.4Zm21.283-12.475a.4.4,0,0,0,.361-.021l2.581-1.49c.11-.063.126-.157.036-.209l-2.277-1.315a.4.4,0,0,0-.361.021l-2.581,1.49c-.109.064-.126.157-.036.208Zm-3.22-2.088,2.582-1.491c.109-.063.126-.157.036-.209l-2.277-1.314a.4.4,0,0,0-.361.02l-2.581,1.491c-.11.064-.126.157-.036.208l2.278,1.315A.4.4,0,0,0,195.868,259.834Zm-21.836,16.742,2.582-1.491c.11-.063.126-.157.036-.208l-2.277-1.315a.4.4,0,0,0-.361.021l-2.581,1.49c-.109.064-.126.157-.036.208l2.277,1.315A.405.405,0,0,0,174.032,276.576Zm16.716-9.839a.4.4,0,0,0,.361-.021l2.581-1.491c.11-.063.126-.157.036-.208L191.45,263.7a.4.4,0,0,0-.361.021l-2.582,1.49c-.11.064-.126.157-.036.208Zm-35.58,20.73,2.581-1.491c.11-.063.126-.156.036-.208l-2.277-1.315a.4.4,0,0,0-.361.021l-2.582,1.49c-.109.064-.125.157-.036.209l2.277,1.315A.4.4,0,0,0,155.168,287.467Zm3.773-2.178,2.581-1.49c.109-.064.126-.157.036-.209l-2.277-1.315a.4.4,0,0,0-.361.021l-2.581,1.49c-.11.063-.126.157-.036.209l2.277,1.314A.4.4,0,0,0,158.941,285.289Zm-7.546,4.357,2.582-1.49c.109-.063.126-.157.036-.209l-2.277-1.315a.4.4,0,0,0-.361.02l-2.581,1.491c-.11.063-.126.157-.036.209l2.277,1.315A.4.4,0,0,0,151.4,289.645Zm15.091-8.713,2.582-1.49c.11-.064.126-.157.036-.209l-2.277-1.315a.4.4,0,0,0-.361.021l-2.582,1.49c-.109.063-.126.157-.036.209l2.277,1.315A.405.405,0,0,0,166.487,280.933Zm-3.773,2.178,2.581-1.49c.11-.063.126-.157.036-.208l-2.278-1.315a.4.4,0,0,0-.361.021l-2.581,1.49c-.109.064-.126.157-.036.209l2.277,1.314A.4.4,0,0,0,162.714,283.111Zm7.546-4.357,2.582-1.49c.109-.063.126-.157.036-.208l-2.277-1.315a.4.4,0,0,0-.361.02l-2.582,1.49c-.109.064-.125.157-.036.209l2.277,1.315A.4.4,0,0,0,170.26,278.754ZM191.107,248.6a.4.4,0,0,0,.361-.021l2.582-1.491c.11-.063.125-.156.036-.208l-.606-.35a.4.4,0,0,0-.361.021l-2.582,1.491c-.109.063-.125.157-.036.208Zm-18.823,11.832a.4.4,0,0,0,.361-.02l2.581-1.491c.109-.063.126-.157.036-.209l-2.277-1.314a.4.4,0,0,0-.361.021l-2.581,1.49c-.11.064-.126.157-.036.209Zm7.546-4.356a.4.4,0,0,0,.361-.021l2.581-1.49c.11-.064.125-.157.036-.209l-2.277-1.315a.4.4,0,0,0-.361.021l-2.582,1.49c-.109.063-.126.157-.036.209Zm-12.153,7.016a.405.405,0,0,0,.361-.021l2.582-1.491c.109-.063.126-.157.036-.208l-2.277-1.315a.4.4,0,0,0-.361.021l-2.581,1.49c-.11.064-.126.157-.036.208Zm8.38-4.838a.4.4,0,0,0,.361-.021l2.581-1.49c.109-.064.125-.157.036-.209l-2.277-1.314a.4.4,0,0,0-.361.02l-2.581,1.491c-.11.063-.126.157-.036.209Zm-15.926,9.195a.4.4,0,0,0,.361-.021l2.581-1.49c.109-.063.125-.157.036-.208l-2.277-1.315a.4.4,0,0,0-.361.021l-2.581,1.49c-.11.064-.126.157-.036.208Zm3.773-2.178a.4.4,0,0,0,.361-.021l2.581-1.49c.109-.064.125-.157.036-.208l-2.277-1.315a.4.4,0,0,0-.361.021l-2.581,1.49c-.11.064-.126.157-.036.209Zm19.657-12.313a.406.406,0,0,0,.361-.021l2.581-1.491c.109-.063.125-.157.036-.208l-.606-.35a.4.4,0,0,0-.361.02l-2.581,1.491c-.11.064-.126.157-.036.208Zm11.319-6.535a.4.4,0,0,0,.361-.02l2.581-1.491c.109-.064.125-.157.036-.208l-.606-.35a.4.4,0,0,0-.361.021l-2.581,1.49c-.109.063-.125.157-.036.208Zm4.784,2.762a.4.4,0,0,0,.361-.02l2.581-1.491c.11-.063.126-.157.036-.208l-2.277-1.315a.4.4,0,0,0-.361.02l-2.581,1.491c-.11.064-.126.157-.036.208Zm7.331,8.36,2.582-1.491c.11-.063.126-.157.036-.208l-2.277-1.315a.4.4,0,0,0-.361.021l-2.581,1.49c-.109.064-.125.157-.036.209l2.277,1.315A.4.4,0,0,0,206.995,257.545Zm-19.661-6.765a.4.4,0,0,0,.361-.021l2.581-1.49c.11-.063.126-.157.036-.208l-.606-.35a.4.4,0,0,0-.361.021l-2.582,1.49c-.109.064-.126.157-.036.208Zm-30.976,18.849a.4.4,0,0,0,.361-.021l2.581-1.49c.11-.064.126-.157.036-.208l-2.277-1.315a.4.4,0,0,0-.361.021l-2.581,1.491c-.109.063-.126.156-.036.208Z" transform="translate(-112.643 -242.469)" fill="#455a64"/>
          </g>
          <g id="Grupo_128653" data-name="Grupo 128653" transform="translate(73.227 121.53)">
            <path id="Trazado_188405" data-name="Trazado 188405" d="M248.145,334.308l.529.305,14.059,8.115,25-14.435.52-.3-14.588-8.421Z" transform="translate(-248.145 -319.577)" fill="#263238"/>
            <path id="Trazado_188406" data-name="Trazado 188406" d="M288.647,329.737l-13.834-7.981-24.76,14.3,13.825,7.981Z" transform="translate(-249.291 -320.886)" fill="#37474f"/>
          </g>
        </g>
      </g>
      <g id="Browser" transform="translate(51.513 29.463)">
        <g id="Www">
          <g id="www-2" data-name="www" transform="translate(36.854)">
            <g id="Grupo_128654" data-name="Grupo 128654">
              <path id="Trazado_188407" data-name="Trazado 188407" d="M276.152,55.8a2.34,2.34,0,0,0-.962-2.143c-.6-.354-4.086-2.364-4.691-2.709a2.339,2.339,0,0,0-2.34.237L202.95,88.837v21.581l4.673,2.7,65.208-37.648a7.34,7.34,0,0,0,3.321-5.751Z" transform="translate(-202.95 -50.735)" fill="#909599"/>
              <path id="Trazado_188408" data-name="Trazado 188408" d="M272.831,75.467a7.34,7.34,0,0,0,3.321-5.751Z" transform="translate(-202.95 -50.735)" fill="#909599" opacity="0.15"/>
              <path id="Trazado_188409" data-name="Trazado 188409" d="M279.858,57.941c1.834-1.058,3.32-.2,3.321,1.917V73.772a7.34,7.34,0,0,1-3.321,5.751l-65.208,37.648V95.59Z" transform="translate(-209.976 -54.791)" fill="#c0c6cc"/>
              <path id="Trazado_188410" data-name="Trazado 188410" d="M281.162,81.34a4.966,4.966,0,0,0,2.238-3.877V64.611c0-1.013-.718-1.428-1.6-.921l-63.87,36.9v17.279Z" transform="translate(-211.95 -58.385)" fill="#fafafa"/>
            </g>
            <g id="Grupo_128655" data-name="Grupo 128655" transform="translate(12.45 15.043)">
              <path id="Trazado_188411" data-name="Trazado 188411" d="M238.787,161.982a.684.684,0,0,1-.07.3.443.443,0,0,1-.167.2l-1.1.637a.126.126,0,0,1-.167-.012.287.287,0,0,1-.07-.215V159.48a1.4,1.4,0,0,0-.184-.824q-.184-.244-.578-.016a1.317,1.317,0,0,0-.574.681,2.8,2.8,0,0,0-.18,1.034v3.411a.686.686,0,0,1-.07.3.443.443,0,0,1-.166.2l-1.1.637a.126.126,0,0,1-.166-.012.285.285,0,0,1-.07-.215v-8.845a.681.681,0,0,1,.07-.3.444.444,0,0,1,.166-.2l1.1-.637a.127.127,0,0,1,.166.012.287.287,0,0,1,.07.215v2.871a4.088,4.088,0,0,1,.464-.814,2.319,2.319,0,0,1,.727-.683,1.775,1.775,0,0,1,.77-.263.78.78,0,0,1,.6.213,1.564,1.564,0,0,1,.389.732,4.909,4.909,0,0,1,.141,1.295Z" transform="translate(-234.119 -128.198)" fill="#455a64"/>
              <path id="Trazado_188412" data-name="Trazado 188412" d="M249.689,152.546a.758.758,0,0,0,.087.428q.088.117.29,0l.7-.4a.128.128,0,0,1,.167.012.291.291,0,0,1,.07.216v1.362a.693.693,0,0,1-.07.3.444.444,0,0,1-.167.2l-.832.48a1.653,1.653,0,0,1-.749.25.79.79,0,0,1-.574-.195,1.349,1.349,0,0,1-.367-.623,3.508,3.508,0,0,1-.131-1.036v-2.266l-.648.375a.127.127,0,0,1-.167-.012.29.29,0,0,1-.07-.216v-1.361a.692.692,0,0,1,.07-.3.449.449,0,0,1,.167-.2l.648-.373v-2.2a.7.7,0,0,1,.07-.3.448.448,0,0,1,.167-.2l1.1-.637a.128.128,0,0,1,.167.012.29.29,0,0,1,.07.215v2.2l.99-.571a.128.128,0,0,1,.167.012.291.291,0,0,1,.07.216v1.362a.691.691,0,0,1-.07.3.447.447,0,0,1-.167.2l-.99.572Z" transform="translate(-241.993 -122.884)" fill="#455a64"/>
              <path id="Trazado_188413" data-name="Trazado 188413" d="M260.082,146.547a.754.754,0,0,0,.087.428q.087.117.289,0l.7-.4a.128.128,0,0,1,.167.011.29.29,0,0,1,.07.216v1.362a.684.684,0,0,1-.07.3.442.442,0,0,1-.167.2l-.832.481a1.644,1.644,0,0,1-.749.25A.791.791,0,0,1,259,149.2a1.346,1.346,0,0,1-.367-.623,3.5,3.5,0,0,1-.131-1.037v-2.265l-.648.374a.127.127,0,0,1-.167-.012.288.288,0,0,1-.07-.216v-1.362a.694.694,0,0,1,.07-.3.448.448,0,0,1,.167-.2l.648-.374v-2.2a.692.692,0,0,1,.07-.3.444.444,0,0,1,.167-.2l1.1-.637a.128.128,0,0,1,.167.012.291.291,0,0,1,.07.216v2.2l.99-.571a.128.128,0,0,1,.167.012.289.289,0,0,1,.069.216v1.361a.693.693,0,0,1-.069.3.451.451,0,0,1-.167.2l-.99.571Z" transform="translate(-248.234 -119.281)" fill="#455a64"/>
              <path id="Trazado_188414" data-name="Trazado 188414" d="M271.682,145.575a1.344,1.344,0,0,1-.446.177.771.771,0,0,1-.333-.01.606.606,0,0,1-.237-.127,1.036,1.036,0,0,1-.157-.172v2.871a.694.694,0,0,1-.07.3.446.446,0,0,1-.166.2l-1.1.637a.127.127,0,0,1-.166-.013.286.286,0,0,1-.07-.215v-8.844a.691.691,0,0,1,.07-.3.445.445,0,0,1,.166-.2l1.06-.612a.127.127,0,0,1,.166.012.286.286,0,0,1,.07.215v.31c.052-.12.11-.247.171-.381a2.436,2.436,0,0,1,.227-.395,2.608,2.608,0,0,1,.333-.381,2.562,2.562,0,0,1,.486-.355,1.71,1.71,0,0,1,.745-.248.821.821,0,0,1,.613.213,1.621,1.621,0,0,1,.425.719,4.422,4.422,0,0,1,.179,1.271q.009.2.009.541c0,.229,0,.413-.009.551a6.951,6.951,0,0,1-.179,1.479,5.833,5.833,0,0,1-.425,1.209,4.059,4.059,0,0,1-.613.927A3.072,3.072,0,0,1,271.682,145.575Zm.395-3.491a5.657,5.657,0,0,0,0-.755,1.36,1.36,0,0,0-.2-.707q-.175-.249-.586-.012a1.174,1.174,0,0,0-.333.287,1.71,1.71,0,0,0-.232.383,2.436,2.436,0,0,0-.145.427,2.769,2.769,0,0,0-.07.431c-.012.142-.018.3-.018.482s.005.334.018.461a1.53,1.53,0,0,0,.07.351.715.715,0,0,0,.145.26.343.343,0,0,0,.232.115.579.579,0,0,0,.333-.1,1.327,1.327,0,0,0,.586-.689A3.028,3.028,0,0,0,272.076,142.084Z" transform="translate(-255.027 -118.214)" fill="#455a64"/>
              <path id="Trazado_188415" data-name="Trazado 188415" d="M284.386,134.446a.686.686,0,0,1-.07.3.447.447,0,0,1-.167.2l-1.147.662a.126.126,0,0,1-.167-.012.286.286,0,0,1-.07-.215v-1.766a.692.692,0,0,1,.07-.3.436.436,0,0,1,.167-.2l1.147-.662a.127.127,0,0,1,.167.012.289.289,0,0,1,.07.216Zm0,4.719a.684.684,0,0,1-.07.3.439.439,0,0,1-.167.2l-1.147.662a.126.126,0,0,1-.167-.012.288.288,0,0,1-.07-.216v-1.766a.691.691,0,0,1,.07-.3.444.444,0,0,1,.167-.2l1.147-.662a.128.128,0,0,1,.167.012.289.289,0,0,1,.07.216Z" transform="translate(-263.335 -114.84)" fill="#455a64"/>
              <path id="Trazado_188416" data-name="Trazado 188416" d="M291.5,117.506a1.817,1.817,0,0,1,.131-.352.63.63,0,0,1,.254-.275l1.086-.627a.1.1,0,0,1,.136.01.237.237,0,0,1,.057.176.594.594,0,0,1-.018.131L290.2,129.18a1.742,1.742,0,0,1-.123.34.639.639,0,0,1-.263.286l-1.068.617a.1.1,0,0,1-.136-.009.233.233,0,0,1-.057-.176.62.62,0,0,1,.017-.132Z" transform="translate(-266.811 -105.113)" fill="#455a64"/>
              <path id="Trazado_188417" data-name="Trazado 188417" d="M299.025,113.164a1.791,1.791,0,0,1,.131-.352.627.627,0,0,1,.254-.275l1.086-.627a.1.1,0,0,1,.136.009.236.236,0,0,1,.057.177.6.6,0,0,1-.018.131l-2.951,12.61a1.715,1.715,0,0,1-.123.34.641.641,0,0,1-.263.286l-1.069.617a.1.1,0,0,1-.135-.009.235.235,0,0,1-.057-.176.6.6,0,0,1,.018-.132Z" transform="translate(-271.327 -102.505)" fill="#455a64"/>
              <path id="Trazado_188418" data-name="Trazado 188418" d="M311.922,112.061c.087-.05.155-.053.2-.008a.356.356,0,0,1,.1.16l.648,2.686.648-3.434a1.227,1.227,0,0,1,.1-.272.494.494,0,0,1,.2-.224l1.086-.627a.114.114,0,0,1,.149.009.259.259,0,0,1,.061.194.739.739,0,0,1-.008.113l-1.392,7.046a1.269,1.269,0,0,1-.092.282.473.473,0,0,1-.2.222l-1,.576c-.087.05-.152.052-.193,0a.548.548,0,0,1-.1-.174l-.622-2.472-.621,3.19a1.943,1.943,0,0,1-.1.284.452.452,0,0,1-.193.22l-1,.576q-.131.076-.2.006a.389.389,0,0,1-.091-.176L307.92,114.8a.61.61,0,0,1-.009-.1.618.618,0,0,1,.061-.265.391.391,0,0,1,.149-.18l1.086-.627c.088-.05.155-.053.2-.008a.351.351,0,0,1,.1.16l.648,2.686.648-3.435a1.26,1.26,0,0,1,.1-.271.5.5,0,0,1,.2-.224Z" transform="translate(-278.436 -101.562)" fill="#455a64"/>
              <path id="Trazado_188419" data-name="Trazado 188419" d="M330.908,101.1c.088-.051.155-.053.2-.008a.355.355,0,0,1,.1.161l.648,2.686.648-3.434a1.229,1.229,0,0,1,.1-.271.494.494,0,0,1,.2-.224l1.086-.627a.113.113,0,0,1,.149.008.261.261,0,0,1,.061.194.8.8,0,0,1-.008.113l-1.392,7.046a1.282,1.282,0,0,1-.092.282.472.472,0,0,1-.2.222l-1,.576c-.087.051-.151.052-.192,0a.527.527,0,0,1-.1-.173l-.622-2.472-.622,3.19a1.826,1.826,0,0,1-.1.285.448.448,0,0,1-.193.219l-1,.576c-.088.051-.153.052-.2.006a.382.382,0,0,1-.092-.176l-1.392-5.438a.6.6,0,0,1,.053-.367.385.385,0,0,1,.149-.18l1.086-.627c.087-.051.155-.053.2-.008a.35.35,0,0,1,.1.161l.648,2.686.648-3.434a1.233,1.233,0,0,1,.1-.271.492.492,0,0,1,.2-.225Z" transform="translate(-289.839 -94.979)" fill="#455a64"/>
              <path id="Trazado_188420" data-name="Trazado 188420" d="M349.894,90.138c.087-.051.154-.053.2-.009a.361.361,0,0,1,.1.161l.648,2.687.648-3.435a1.224,1.224,0,0,1,.1-.271.492.492,0,0,1,.2-.224l1.086-.627a.114.114,0,0,1,.149.008.262.262,0,0,1,.061.194.788.788,0,0,1-.008.112L351.68,95.78a1.287,1.287,0,0,1-.091.282.473.473,0,0,1-.2.222l-1,.576c-.087.051-.152.052-.193,0a.556.556,0,0,1-.1-.173l-.622-2.472-.621,3.19a1.889,1.889,0,0,1-.1.285.45.45,0,0,1-.193.219l-1,.576q-.131.075-.2.006a.39.39,0,0,1-.092-.176l-1.392-5.439a.568.568,0,0,1-.009-.1.614.614,0,0,1,.061-.265.394.394,0,0,1,.149-.18l1.086-.627c.087-.051.154-.053.2-.009a.358.358,0,0,1,.1.161l.648,2.686.648-3.435a1.262,1.262,0,0,1,.1-.271.5.5,0,0,1,.2-.224Z" transform="translate(-301.241 -88.395)" fill="#455a64"/>
              <path id="Trazado_188421" data-name="Trazado 188421" d="M366.314,98.958a.689.689,0,0,1-.07.3.44.44,0,0,1-.166.2l-1.147.662a.127.127,0,0,1-.167-.012.288.288,0,0,1-.07-.216V98.127a.691.691,0,0,1,.07-.3.444.444,0,0,1,.167-.2l1.147-.662a.126.126,0,0,1,.166.012.288.288,0,0,1,.07.216Z" transform="translate(-312.539 -93.526)" fill="#455a64"/>
            </g>
          </g>
          <g id="World" transform="translate(0 28.386)">
            <g id="Check">
              <g id="Circle">
                <path id="Trazado_188422" data-name="Trazado 188422" d="M149.332,127.933v0l-.031-.019,0,0-7.991-4.744-.007,0-.044-.027v0c-3.519-2.122-8.216-1.787-13.267,1.51-10.148,6.626-17.88,22.7-17.271,35.9.3,6.579,2.623,11.2,6.129,13.363v0l.031.019,0,0,7.993,4.745,0,0,.037.023v0c3.521,2.128,8.221,1.8,13.276-1.505,10.148-6.626,17.88-22.7,17.272-35.9C155.158,134.717,152.839,130.095,149.332,127.933Z" transform="translate(-110.684 -121.8)" fill="#37474f"/>
                <path id="Trazado_188423" data-name="Trazado 188423" d="M124.617,209.1l-7.734-4.583h-.006l-.034-.024c-3.5-2.167-5.822-6.789-6.126-13.359a42.9,42.9,0,0,1,3.636-18.269l.051-.13,7.943,4.874a42.83,42.83,0,0,0-3.636,18.269C119.009,202.316,121.236,206.878,124.617,209.1Z" transform="translate(-110.684 -152.39)" fill="#263238"/>
                <path id="Trazado_188424" data-name="Trazado 188424" d="M150.213,184.327c10.148-6.626,17.88-22.7,17.271-35.9s-9.329-18.526-19.476-11.9-17.88,22.7-17.271,35.895S140.065,190.952,150.213,184.327Z" transform="translate(-122.707 -128.937)" fill="#455a64"/>
              </g>
            </g>
            <g id="Grupo_128663" data-name="Grupo 128663" transform="translate(12.966 11.249)">
              <g id="Grupo_128656" data-name="Grupo 128656">
                <path id="Trazado_188425" data-name="Trazado 188425" d="M151.958,190.619a7.5,7.5,0,0,1-3.783-.989c-3.2-1.839-5.03-6.055-5.03-11.566,0-10.14,6.165-21.976,13.742-26.384,3.445-2,6.812-2.262,9.479-.728,3.2,1.838,5.03,6.054,5.03,11.566,0,10.14-6.165,21.975-13.741,26.383A11.44,11.44,0,0,1,151.958,190.619ZM162.581,151.5A9.934,9.934,0,0,0,157.655,153c-7.158,4.164-12.982,15.407-12.982,25.063,0,4.95,1.554,8.683,4.264,10.242,2.174,1.249,5,.993,7.95-.725,7.158-4.164,12.981-15.408,12.981-25.063,0-4.951-1.554-8.683-4.264-10.242A5.989,5.989,0,0,0,162.581,151.5Z" transform="translate(-143.145 -149.964)" fill="#f0f8ff"/>
              </g>
              <g id="Grupo_128659" data-name="Grupo 128659" transform="translate(4.093 1.937)">
                <g id="Grupo_128657" data-name="Grupo 128657" transform="translate(0.156)">
                  <path id="Trazado_188426" data-name="Trazado 188426" d="M158.345,168.176a7.252,7.252,0,0,1-4.563-1.57l.707-.9c2.334,1.829,5.489,1.75,8.882-.224,3.516-2.045,6.819-5.834,9.3-10.667l1.02.523c-2.582,5.026-6.043,8.98-9.745,11.134A11.263,11.263,0,0,1,158.345,168.176Z" transform="translate(-153.782 -154.814)" fill="#f0f8ff"/>
                </g>
                <g id="Grupo_128658" data-name="Grupo 128658" transform="translate(0 23.418)">
                  <path id="Trazado_188427" data-name="Trazado 188427" d="M154.411,226.806l-1.02-.524c2.581-5.025,6.042-8.979,9.745-11.134,3.827-2.226,7.436-2.273,10.165-.136l-.707.9c-2.335-1.829-5.49-1.749-8.882.225C160.2,218.185,156.893,221.973,154.411,226.806Z" transform="translate(-153.391 -213.444)" fill="#f0f8ff"/>
                </g>
              </g>
              <g id="Grupo_128660" data-name="Grupo 128660" transform="translate(6.734 1.367)">
                <path id="Trazado_188428" data-name="Trazado 188428" d="M165.916,191.307a3.074,3.074,0,0,1-1.548-.428c-2.693-1.549-4.365-7.13-4.365-14.566,0-10.251,3.12-20.1,7.1-22.413a3.16,3.16,0,0,1,3.315-.087c2.693,1.549,4.365,7.13,4.365,14.566,0,10.25-3.12,20.1-7.1,22.413A3.507,3.507,0,0,1,165.916,191.307Zm2.956-36.776a2.362,2.362,0,0,0-1.188.36c-3.542,2.061-6.535,11.871-6.535,21.422,0,7.87,1.9,12.487,3.791,13.572a2.022,2.022,0,0,0,2.168-.084c3.542-2.06,6.534-11.871,6.534-21.422,0-7.87-1.9-12.487-3.791-13.573A1.942,1.942,0,0,0,168.872,154.531Z" transform="translate(-160.003 -153.385)" fill="#f0f8ff"/>
              </g>
              <g id="Grupo_128661" data-name="Grupo 128661" transform="translate(13.553 2.377)">
                <rect id="Rect치ngulo_40795" data-name="Rect치ngulo 40795" width="1.146" height="35.901" fill="#f0f8ff"/>
              </g>
              <g id="Grupo_128662" data-name="Grupo 128662" transform="translate(0.477 12.058)">
                <rect id="Rect치ngulo_40796" data-name="Rect치ngulo 40796" width="30.916" height="1.146" transform="translate(0 15.549) rotate(-30.195)" fill="#f0f8ff"/>
              </g>
            </g>
          </g>
        </g>
      </g>
      <g id="Cursor" transform="translate(154.273 57.393)">
        <g id="Cursor-2" data-name="Cursor">
          <g id="Grupo_128664" data-name="Grupo 128664" transform="translate(0)">
            <path id="Trazado_188429" data-name="Trazado 188429" d="M385.782,127.379a1.233,1.233,0,0,0-.477-.556h0l-1.19-.687v0a1.526,1.526,0,0,0-1.486.2l-.743-.429h0c-.9-.544-2.155.594-2.435.868l-.322-.185h0a1.627,1.627,0,0,0-1.513.165v-4.328a1.086,1.086,0,0,0-.427-.975h0l-.012-.007-.02-.012-1.168-.676h0l-.008,0h0a1.078,1.078,0,0,0-1.07.111,3.378,3.378,0,0,0-1.528,2.647v13.258q-.091-.044-.182-.085a4.359,4.359,0,0,0-3.109-1,3.3,3.3,0,0,0-1.989,1.374c-.505.891.329,1.45,1.4,2.679s2,2.684,2.974,3.588a5.241,5.241,0,0,0,1.673,1.14V146.2l1.18.681,8.979-5.184v-1.734s1.114-4.442,1.47-6.3S386.467,128.8,385.782,127.379Z" transform="translate(-367.952 -120.659)" fill="#27debf"/>
            <path id="Trazado_188430" data-name="Trazado 188430" d="M385.782,127.379a1.233,1.233,0,0,0-.477-.556h0l-1.19-.687v0a1.526,1.526,0,0,0-1.486.2l-.743-.429h0c-.9-.544-2.155.594-2.435.868l-.322-.185h0a1.627,1.627,0,0,0-1.513.165v-4.328a1.086,1.086,0,0,0-.427-.975h0l-.012-.007-.02-.012-1.168-.676h0l-.008,0h0a1.078,1.078,0,0,0-1.07.111,3.378,3.378,0,0,0-1.528,2.647v13.258q-.091-.044-.182-.085a4.359,4.359,0,0,0-3.109-1,3.3,3.3,0,0,0-1.989,1.374c-.505.891.329,1.45,1.4,2.679s2,2.684,2.974,3.588a5.241,5.241,0,0,0,1.673,1.14V146.2l1.18.681,8.979-5.184v-1.734s1.114-4.442,1.47-6.3S386.467,128.8,385.782,127.379Z" transform="translate(-367.952 -120.659)" fill="#fff" opacity="0.8"/>
          </g>
          <path id="Trazado_188431" data-name="Trazado 188431" d="M377.62,131.067v1.468l0,0a6.429,6.429,0,0,1,1.153-.789Zm5.424-.638a2.6,2.6,0,0,0-.411.206l.381.222a1.356,1.356,0,0,1,.564.619,2.759,2.759,0,0,1,.679-.381Zm-2.794.014a5.051,5.051,0,0,0-.8.63l.778.452a.337.337,0,0,1,.044.024.875.875,0,0,1,.3.263l0,0a5.052,5.052,0,0,1,.827-.671Zm-6.867-2.635v13.258a7.6,7.6,0,0,1,1.18.729v-13.3Zm4.232,3.257.006,0v-.014ZM373.659,148.3c-.969-.9-1.909-2.369-2.972-3.588-1.008-1.153-1.808-1.718-1.479-2.52l-1.181-.682c-.329.8.469,1.367,1.479,2.523,1.065,1.216,2,2.682,2.972,3.588a5.28,5.28,0,0,0,1.674,1.14v1.734l1.181.682v-1.734A5.233,5.233,0,0,1,373.659,148.3Z" transform="translate(-367.952 -124.952)" fill="#27debf" opacity="0.2"/>
          <path id="Trazado_188432" data-name="Trazado 188432" d="M377.62,131.067v1.468l0,0a6.429,6.429,0,0,1,1.153-.789Zm5.424-.638a2.6,2.6,0,0,0-.411.206l.381.222a1.356,1.356,0,0,1,.564.619,2.759,2.759,0,0,1,.679-.381Zm-2.794.014a5.051,5.051,0,0,0-.8.63l.778.452a.337.337,0,0,1,.044.024.875.875,0,0,1,.3.263l0,0a5.052,5.052,0,0,1,.827-.671Zm-6.867-2.635v13.258a7.6,7.6,0,0,1,1.18.729v-13.3Zm4.232,3.257.006,0v-.014ZM373.659,148.3c-.969-.9-1.909-2.369-2.972-3.588-1.008-1.153-1.808-1.718-1.479-2.52l-1.181-.682c-.329.8.469,1.367,1.479,2.523,1.065,1.216,2,2.682,2.972,3.588a5.28,5.28,0,0,0,1.674,1.14v1.734l1.181.682v-1.734A5.233,5.233,0,0,1,373.659,148.3Z" transform="translate(-367.952 -124.952)" opacity="0.1"/>
          <g id="Grupo_128665" data-name="Grupo 128665" transform="translate(1.18 0.681)">
            <path id="Trazado_188433" data-name="Trazado 188433" d="M377.107,147.906v-1.734a5.242,5.242,0,0,1-1.673-1.14c-.97-.9-1.909-2.371-2.974-3.589s-1.908-1.787-1.4-2.678a3.3,3.3,0,0,1,1.989-1.374,4.538,4.538,0,0,1,3.29,1.132v-13.3a3.378,3.378,0,0,1,1.528-2.647h0c.844-.487,1.528-.092,1.528.882v5.811s2.105-1.87,2.956-.723c0,0,2.069-2.167,3-.337,0,0,1.519-1.227,2.2.2s.356,4.43,0,6.286-1.47,6.3-1.47,6.3v1.734Z" transform="translate(-370.907 -122.363)" fill="#27debf"/>
            <path id="Trazado_188434" data-name="Trazado 188434" d="M377.107,147.906v-1.734a5.242,5.242,0,0,1-1.673-1.14c-.97-.9-1.909-2.371-2.974-3.589s-1.908-1.787-1.4-2.678a3.3,3.3,0,0,1,1.989-1.374,4.538,4.538,0,0,1,3.29,1.132v-13.3a3.378,3.378,0,0,1,1.528-2.647h0c.844-.487,1.528-.092,1.528.882v5.811s2.105-1.87,2.956-.723c0,0,2.069-2.167,3-.337,0,0,1.519-1.227,2.2.2s.356,4.43,0,6.286-1.47,6.3-1.47,6.3v1.734Z" transform="translate(-370.907 -122.363)" fill="#fff" opacity="0.65"/>
          </g>
          <g id="Grupo_128666" data-name="Grupo 128666" transform="translate(9.663 6.143)" opacity="0.1">
            <path id="Trazado_188435" data-name="Trazado 188435" d="M392.148,140.956s.192-2.651,1.166-3.282l-.035.01a6.372,6.372,0,0,0-1.131.776v-.05a.061.061,0,0,0,0,.05Z" transform="translate(-392.143 -137.021)"/>
            <path id="Trazado_188436" data-name="Trazado 188436" d="M399.557,136.823v2.426s.269-2.494.828-3.1A5,5,0,0,0,399.557,136.823Z" transform="translate(-396.596 -136.106)"/>
            <path id="Trazado_188437" data-name="Trazado 188437" d="M407.075,136.418h0v2.435s.148-2.452.676-2.814A2.74,2.74,0,0,0,407.075,136.418Z" transform="translate(-401.111 -136.038)"/>
          </g>
        </g>
      </g>
      <g id="Character" transform="translate(123.64 82.716)">
        <g id="Character-2" data-name="Character">
          <path id="Shadow-3" data-name="Shadow" d="M324.577,309.353c-6.9,3.438-10.03,7.049-6.459,9.58s13.289,5.957,13.289,5.957l1.274,4.283,14.118-8.151v-4.849s-8.711-6.005-12.112-7.162S328.62,307.338,324.577,309.353Z" transform="translate(-306.497 -258.489)" opacity="0.15"/>
          <g id="Character-3" data-name="Character">
            <g id="Grupo_128675" data-name="Grupo 128675" transform="translate(7.214 42.843)">
              <g id="Grupo_128669" data-name="Grupo 128669" transform="translate(20.55 28.664)">
                <path id="Trazado_188438" data-name="Trazado 188438" d="M373.65,364.3s-2.132,5.226-2.241,7.288c-.113,2.148-.633,2.86-.268,5.2.079.509.347,1.529.413,1.942a.609.609,0,0,1-.552.762c-.932.193-2.48-1.558-3.217-3.463a56.34,56.34,0,0,1-1.846-6.718,2.938,2.938,0,0,1,.295-1.5,4.5,4.5,0,0,1,.429-.779c.308-.935.456-2.713.716-3.943Z" transform="translate(-363.867 -363.081)" fill="#ffa8a7"/>
                <g id="Grupo_128668" data-name="Grupo 128668" transform="translate(0 3.941)">
                  <path id="Trazado_188439" data-name="Trazado 188439" d="M361.02,383.568a2.214,2.214,0,0,0-.25.7,7.911,7.911,0,0,0,1.325,2.354,3.44,3.44,0,0,1,.7,2.442,5.938,5.938,0,0,0,1.436,3.823,9.426,9.426,0,0,0,4.686,3.066c2.263.7,3.061-.437,3.061-.437s.7-1.092.28-1.539S361.02,383.568,361.02,383.568Z" transform="translate(-360.77 -379.326)" fill="#263238"/>
                  <path id="Trazado_188440" data-name="Trazado 188440" d="M363.942,372.95c-.069,0-.191-.022-.368.192-.067.081-.48,1.1-.822,1.632a7.086,7.086,0,0,0-1.356,2.416c.524,1.678,2.1,2.845,2.333,4.428s.263,3.422,2.7,5.36,4.937,2.139,5.836,1.625.817-1.477-.437-3.312c-1.33-1.948-2.227-6.168-2.227-6.17a13.981,13.981,0,0,1-.235-1.8,11.824,11.824,0,0,1,.168-1.777,1.318,1.318,0,0,0-.113-.8,1.364,1.364,0,0,0-.669-.463,5.932,5.932,0,0,0-1.25-.424,1.989,1.989,0,0,0-1.289.156c-.281.151-.51.391-.8.514a1.154,1.154,0,0,1-1.2-.214.988.988,0,0,1-.323-1.1A2.494,2.494,0,0,1,363.942,372.95Z" transform="translate(-361.146 -372.948)" fill="#455a64"/>
                  <path id="Trazado_188441" data-name="Trazado 188441" d="M370.429,401.317a3.878,3.878,0,0,1,3.527-1.908c2.585.01,3.479,1.325,3.872,2.1.468.921.956,2.59-.111,3.069-1.152.517-2.486.357-4.585-.695A5.6,5.6,0,0,1,370.429,401.317Z" transform="translate(-366.571 -388.84)" fill="#fafafa"/>
                  <g id="Grupo_128667" data-name="Grupo 128667" transform="translate(4.174 3.93)">
                    <path id="Trazado_188442" data-name="Trazado 188442" d="M371.376,383.548a.266.266,0,0,0,.236,0,3.973,3.973,0,0,1,3.742.5c.159-.128.127-.362-.077-.691a4.741,4.741,0,0,0-3.921-.26.246.246,0,0,0-.1.344A.271.271,0,0,0,371.376,383.548Z" transform="translate(-371.221 -382.786)" fill="#fafafa"/>
                    <path id="Trazado_188443" data-name="Trazado 188443" d="M376.183,387.95a.8.8,0,0,0-.149-.71,4.832,4.832,0,0,0-3.74-.15.246.246,0,0,0-.1.344.273.273,0,0,0,.357.111A4.056,4.056,0,0,1,376.183,387.95Z" transform="translate(-371.785 -385.186)" fill="#fafafa"/>
                    <path id="Trazado_188444" data-name="Trazado 188444" d="M378.364,396.246a1.47,1.47,0,0,0-.33-.935,4.78,4.78,0,0,0-3.863-.223.245.245,0,0,0-.1.343.272.272,0,0,0,.356.111C374.848,395.328,377.177,394.849,378.364,396.246Z" transform="translate(-372.912 -389.99)" fill="#fafafa"/>
                    <path id="Trazado_188445" data-name="Trazado 188445" d="M373.252,391.544a.268.268,0,0,0,.236,0,4.006,4.006,0,0,1,3.7.461.9.9,0,0,0-.216-.765,4.832,4.832,0,0,0-3.74-.15.246.246,0,0,0-.1.343A.275.275,0,0,0,373.252,391.544Z" transform="translate(-372.348 -387.588)" fill="#fafafa"/>
                  </g>
                </g>
              </g>
              <g id="Grupo_128672" data-name="Grupo 128672" transform="translate(27.323 36.3)">
                <path id="Trazado_188446" data-name="Trazado 188446" d="M383.034,382.2s1.057,6.374,2.232,8.848a20.408,20.408,0,0,0,3.4,5.538c.352.408,1.156,1.165,1.444,1.495a.637.637,0,0,1-.067.982c-.72.689-3.772.852-5.483-.43s-3.268-4.014-4.288-5.046c-.383-.388-.744-.784-1.087-1.205-.331-.405-.24-.791-.27-1.245-.014-.22.018-.819.018-.819-.234-1.074-.867-2.758-1.2-3.8Z" transform="translate(-377.727 -382.199)" fill="#ffa8a7"/>
                <g id="Grupo_128671" data-name="Grupo 128671" transform="translate(0.502 6.893)">
                  <path id="Trazado_188447" data-name="Trazado 188447" d="M379.225,414.579a2.321,2.321,0,0,0,.078.778,8.276,8.276,0,0,0,2.305,1.636,3.6,3.6,0,0,1,1.752,2,6.212,6.212,0,0,0,3.067,2.977,9.863,9.863,0,0,0,5.8.808c2.452-.352,2.7-1.781,2.7-1.781s.176-1.347-.423-1.582S379.225,414.579,379.225,414.579Z" transform="translate(-379.126 -408.538)" fill="#263238"/>
                  <path id="Trazado_188448" data-name="Trazado 188448" d="M379.6,400.347c-.066.028-.19.064-.262.345-.027.107.037,1.254-.049,1.912a7.41,7.41,0,0,0-.2,2.892c1.245,1.353,3.255,1.755,4.186,3.148s1.777,3.121,4.947,3.868,5.627-.182,6.249-1.069.113-1.762-1.892-2.939c-2.129-1.249-4.863-4.842-4.864-4.844a14.719,14.719,0,0,1-1.025-1.594,12.44,12.44,0,0,1-.635-1.756,1.378,1.378,0,0,0-.467-.711,1.426,1.426,0,0,0-.84-.139,6.218,6.218,0,0,0-1.372.157,2.082,2.082,0,0,0-1.15.723,9.918,9.918,0,0,1-.532.846,1.205,1.205,0,0,1-1.226.332,1.033,1.033,0,0,1-.8-.895A2.652,2.652,0,0,1,379.6,400.347Z" transform="translate(-378.984 -399.456)" fill="#455a64"/>
                  <path id="Trazado_188449" data-name="Trazado 188449" d="M396.989,424.115a4.056,4.056,0,0,1,2.486-3.381c2.45-1.145,3.884-.3,4.6.256.854.662,2.062,2.024,1.266,2.954-.859,1-2.193,1.449-4.649,1.391A5.854,5.854,0,0,1,396.989,424.115Z" transform="translate(-389.797 -411.893)" fill="#fafafa"/>
                  <g id="Grupo_128670" data-name="Grupo 128670" transform="translate(3.883 2.692)">
                    <path id="Trazado_188450" data-name="Trazado 188450" d="M388.982,408.148a.279.279,0,0,0,.222-.106,4.158,4.158,0,0,1,3.763-1.2c.093-.192-.042-.4-.381-.619a4.962,4.962,0,0,0-3.827,1.505.257.257,0,0,0,.058.37A.281.281,0,0,0,388.982,408.148Z" transform="translate(-388.704 -406.195)" fill="#fafafa"/>
                    <path id="Trazado_188451" data-name="Trazado 188451" d="M395.5,410.161a.837.837,0,0,0-.459-.605,5.06,5.06,0,0,0-3.606,1.529.258.258,0,0,0,.059.37.287.287,0,0,0,.165.052.28.28,0,0,0,.222-.107A4.245,4.245,0,0,1,395.5,410.161Z" transform="translate(-390.31 -408.21)" fill="#fafafa"/>
                    <path id="Trazado_188452" data-name="Trazado 188452" d="M401.266,417.04a1.536,1.536,0,0,0-.731-.737,5,5,0,0,0-3.755,1.515.257.257,0,0,0,.059.37.287.287,0,0,0,.165.052.278.278,0,0,0,.222-.107C397.529,417.741,399.519,416.247,401.266,417.04Z" transform="translate(-393.522 -412.255)" fill="#fafafa"/>
                    <path id="Trazado_188453" data-name="Trazado 188453" d="M394.329,414.872a.279.279,0,0,0,.222-.107,4.2,4.2,0,0,1,3.706-1.217.947.947,0,0,0-.546-.628,5.054,5.054,0,0,0-3.606,1.529.257.257,0,0,0,.059.37A.287.287,0,0,0,394.329,414.872Z" transform="translate(-391.916 -410.231)" fill="#fafafa"/>
                  </g>
                </g>
              </g>
              <g id="Grupo_128673" data-name="Grupo 128673" transform="translate(16.181)">
                <path id="Trazado_188454" data-name="Trazado 188454" d="M352.217,291.319c2.613,1.915,11.715,7.17,15.411,10.591,1.068.988,1.419,2.289,1.156,5.125C368.428,310.883,365.4,324,365.4,324c-.417.741-1.149-.664-1.149-.664l-14.423-18.31Z" transform="translate(-349.832 -291.319)" fill="#1b3f5e"/>
                <path id="Trazado_188456" data-name="Trazado 188456" d="M366.024,324.8c-3.337-2.788-14.117-19.8-14.117-19.8l.006-.005c1.468-1.24,2.225-5.541,2.225-5.541a8.019,8.019,0,0,1-.484,5.076c.849.735,5.645,4.679,8.977,7.316a4.762,4.762,0,0,1,1.976,2.983A91.314,91.314,0,0,1,366.024,324.8Z" transform="translate(-351.078 -296.208)" fill="#1b3f5e" opacity="0.3"/>
              </g>
              <g id="Grupo_128674" data-name="Grupo 128674">
                <path id="Trazado_188457" data-name="Trazado 188457" d="M327.887,291.319h0l-18.566,4.11c.907,3.408,1.165,5.168,2.111,6.962s2,3.72,6.83,6.1c4.649,2.289,10.328,4.647,11.464,5.187.856.407,1.264,2.119,1.652,4.339a26.378,26.378,0,0,0,2.745,9.036c2.255,4.784,2.716,5.818,2.716,5.818s3.489.363,5.8-1.674c0,0-3.16-16.4-3.833-19.356a6.114,6.114,0,0,0-2.432-4.331c-1.756-1.554-9.6-7.488-9.6-7.488S329.9,295.836,327.887,291.319Z" transform="translate(-309.321 -291.319)" fill="#1b3f5e"/>
              </g>
            </g>
            <g id="Grupo_128676" data-name="Grupo 128676" transform="translate(22.869 11.637)">
              <path id="Trazado_188459" data-name="Trazado 188459" d="M373.316,213.556a1.777,1.777,0,0,0-.92.185,5.775,5.775,0,0,0-.941.614q-.693.51-1.42.969a3.942,3.942,0,0,1-1.4.662c-.172.028-.538.034-.351-.227a7.373,7.373,0,0,0,.7-1.041,1.51,1.51,0,0,0,.1-1.215.516.516,0,0,0-.239-.283c-.163-.075-.245.012-.338.118a3.4,3.4,0,0,1-.328.307c-.232.2-.463.41-.692.618-1.336,1.213-2.96,2.265-3.531,4.018a10.8,10.8,0,0,0-.473,3.334c-.012,1.925-.126,8.624-.126,8.624s-5.32-4.475-7.628-6.4a8.583,8.583,0,0,0-4.381-2.221c-1.212-.115-1.92-.108-1.92-.108l3.629,8.8s6.861,5.1,10.151,6.862c2.969,1.586,4.412.444,4.772-.389.595-1.38,1.205-2.026.368-9.727-.06-.6-.134-2.3-.2-2.9-.086-1.243.054-2.506.536-2.776a14.623,14.623,0,0,0,2.517-1.708,7.609,7.609,0,0,0,1.33-1.5,2.343,2.343,0,0,0,.455-.859c.03-.29-.1-.6-.01-.882.06-.195.191-.354.24-.563a3.288,3.288,0,0,1,.334-1.279c.148-.2.4-.384.361-.633a.518.518,0,0,0-.427-.372A1.215,1.215,0,0,0,373.316,213.556Z" transform="translate(-349.066 -213.191)" fill="#ffa8a7"/>
              <path id="Trazado_188460" data-name="Trazado 188460" d="M393.554,222.47a5.575,5.575,0,0,1-1.387,2.77,3.262,3.262,0,0,0,1.179-1.2A1.844,1.844,0,0,0,393.554,222.47Z" transform="translate(-374.731 -218.764)" fill="#f28f8f"/>
              <path id="Trazado_188461" data-name="Trazado 188461" d="M348.515,233.559a9.679,9.679,0,0,1,4.874,1.033c1.579.912,8.63,6.814,8.63,6.814s.069-3,.25-4.588c.125-1.1.307-1.442.649-1.388a3.03,3.03,0,0,0,2.344,1.068c1.733.13,2.315-.589,2.315-.589s.505-.119.687.589a70.627,70.627,0,0,1,.193,10.6c-.316,2.212-1.307,3.24-2.636,3.551s-4.408-1.551-8.106-4.038S350,241.8,350,241.8Z" transform="translate(-348.515 -225.423)" fill="#f0f8ff"/>
              <path id="Trazado_188463" data-name="Trazado 188463" d="M381.027,252.159a14.586,14.586,0,0,0,.152,4.309,9.235,9.235,0,0,1-.936-5.006Z" transform="translate(-367.522 -236.176)" opacity="0.1"/>
            </g>
            <g id="Grupo_128680" data-name="Grupo 128680" transform="translate(6.103)">
              <path id="Trazado_188464" data-name="Trazado 188464" d="M308.082,234.941c-.306,1.618-3.38,17,.117,28.462,6.3.742,17.355-2.148,19.013-6.316,0,0-1.117-3.954-1.6-5.888.1-3.172,0-9.226-.065-11.1-.127-3.712-.707-6.584-2.548-6.855,0,0-3.7-.146-5.936-.055-1.933.079-3.386.1-3.386.1Z" transform="translate(-306.541 -213.547)" fill="#fafafa"/>
              <path id="Trazado_188465" data-name="Trazado 188465" d="M317.33,264.825c-.407-.9-7.881-5.517-7.881-5.517s.114-2.137.559-6.071.577-8.646-.841-11.016l-1.429.056c-.808,4.771-2.451,17.021.46,26.568a30.251,30.251,0,0,0,11.985-1.554C319.461,266.807,317.654,265.544,317.33,264.825Z" transform="translate(-306.54 -218.99)" fill="#f0f0f0"/>
              <g id="Grupo_128679" data-name="Grupo 128679" transform="translate(3.364)">
                <path id="Trazado_188466" data-name="Trazado 188466" d="M318.325,201.186c.012-.8-1.513-3.173-2.2-5.052-1.155-3.144-1.255-5.966,1.594-7.191a7.547,7.547,0,0,1,6.272-3.225c4.491-.153,7.943,3.638,6.451,8.706Z" transform="translate(-315.203 -185.052)" fill="#455a64"/>
                <g id="Grupo_128678" data-name="Grupo 128678" transform="translate(0 5.282)">
                  <g id="Grupo_128677" data-name="Grupo 128677">
                    <path id="Trazado_188467" data-name="Trazado 188467" d="M319.194,203.277c-.586,0-.8-.842-1.2-1.294a1.736,1.736,0,0,0-2.683.334c-.83,1.2-.023,2.932.882,3.6a1.42,1.42,0,0,0,1.927.03l-.1,6.346s.2,1.407,2.794,2.224c2.994.943,5.431-.633,3.648-2.608l.066-1.672a8.614,8.614,0,0,0,2.895.161c1-.152,1.8-.9,2.312-2.444,1-3.006.724-7.014-.311-10.674-.988.781-5.56,2.246-9.677.794C319.887,200.6,319.767,203.277,319.194,203.277Z" transform="translate(-314.961 -197.282)" fill="#ffa8a7"/>
                    <path id="Trazado_188468" data-name="Trazado 188468" d="M331.356,224.954a16.693,16.693,0,0,1-3.484-1.421,4.8,4.8,0,0,1-1.533-1.748,6.413,6.413,0,0,0,1.056,2.114c1.193,1.355,3.928,1.981,3.928,1.981Z" transform="translate(-321.794 -211.998)" fill="#f28f8f"/>
                  </g>
                </g>
                <path id="Trazado_188469" data-name="Trazado 188469" d="M333.483,189.34a3.827,3.827,0,0,0,1.782-4.112c-.538.541-2.049.638-3.37.008a10.343,10.343,0,0,0-6.773-.98c-2.439.472-3.868,2.327-3.868,3.692a5.1,5.1,0,0,0,2.267,2.186,9.043,9.043,0,0,0,5.888,1.695,5.814,5.814,0,0,0,3.467-1.254A3.754,3.754,0,0,1,331,190.29,6.6,6.6,0,0,0,333.483,189.34Z" transform="translate(-318.74 -184.058)" fill="#37474f"/>
              </g>
            </g>
            <g id="Laptop-2" data-name="Laptop" transform="translate(0 21.394)">
              <path id="Trazado_188470" data-name="Trazado 188470" d="M355.681,307.946a3.647,3.647,0,0,0-.579-.679,82.009,82.009,0,0,0-9.933-7.028l-16.119,9.308a.148.148,0,0,0,0,.257l11.706,6.759Z" transform="translate(-313.911 -275.227)" opacity="0.15"/>
              <g id="Grupo_128697" data-name="Grupo 128697">
                <g id="Grupo_128690" data-name="Grupo 128690" transform="translate(15.558 21.485)">
                  <g id="Grupo_128681" data-name="Grupo 128681" transform="translate(0 6.501)">
                    <path id="Trazado_188471" data-name="Trazado 188471" d="M361.309,307.686v.261a1.073,1.073,0,0,1-.535.928l-18.742,10.82a1.059,1.059,0,0,1-.534.142,1.079,1.079,0,0,1-.539-.143l-10.216-5.879a1.075,1.075,0,0,1-.534-.928v-.361h0v0a.134.134,0,0,0,.068.118l11.219,6.479Z" transform="translate(-330.21 -307.686)" fill="#37474f"/>
                  </g>
                  <g id="Grupo_128682" data-name="Grupo 128682" transform="translate(11.288 6.501)">
                    <path id="Trazado_188472" data-name="Trazado 188472" d="M358.47,319.123v.713a1.069,1.069,0,0,0,.535-.143l18.742-10.82a1.073,1.073,0,0,0,.536-.929v-.261Z" transform="translate(-358.47 -307.684)" fill="#263238"/>
                  </g>
                  <g id="Grupo_128683" data-name="Grupo 128683" transform="translate(0)">
                    <path id="Trazado_188473" data-name="Trazado 188473" d="M361.311,297.91,350.2,291.495a.639.639,0,0,0-.638,0l-19.279,11.132a.142.142,0,0,0,0,.246L341.5,309.35Z" transform="translate(-330.21 -291.409)" fill="#455a64"/>
                  </g>
                  <g id="Grupo_128686" data-name="Grupo 128686" transform="translate(5.192 3.421)">
                    <g id="Grupo_128684" data-name="Grupo 128684" transform="translate(0 0)">
                      <path id="Trazado_188474" data-name="Trazado 188474" d="M349.2,313.551l-5.994-3.457,17.526-10.119,6.025,3.439Z" transform="translate(-343.208 -299.975)" fill="#37474f"/>
                    </g>
                    <g id="Grupo_128685" data-name="Grupo 128685" transform="translate(0.001)">
                      <path id="Trazado_188475" data-name="Trazado 188475" d="M366.76,303.413l-.229.132-5.8-3.307-17.3,9.988-.229-.132,17.524-10.119Z" transform="translate(-343.211 -299.974)" fill="#263238"/>
                    </g>
                  </g>
                  <g id="Grupo_128689" data-name="Grupo 128689" transform="translate(8.24 4.302)">
                    <g id="Grupo_128687" data-name="Grupo 128687">
                      <path id="Trazado_188476" data-name="Trazado 188476" d="M350.839,305.258l.111.064,2.938,1.7L359.111,304l.109-.062-3.048-1.76Z" transform="translate(-350.839 -302.18)" fill="#263238"/>
                    </g>
                    <g id="Grupo_128688" data-name="Grupo 128688" transform="translate(0.111 0.126)">
                      <path id="Trazado_188477" data-name="Trazado 188477" d="M351.116,305.511l2.938,1.7,5.224-3.016-2.94-1.7Z" transform="translate(-351.116 -302.495)" fill="#37474f"/>
                    </g>
                  </g>
                </g>
                <g id="Arm">
                  <path id="Trazado_188478" data-name="Trazado 188478" d="M341.58,307.577a9.94,9.94,0,0,0-3.084-2.329,5.722,5.722,0,0,0-.72-.224,8.162,8.162,0,0,0,1.053-.21,1.859,1.859,0,0,0,.89-.59c.089-.115.152-.3.04-.39a.242.242,0,0,0-.146-.054c-.768-.023-1.373-.143-2.07-.193a2.9,2.9,0,0,0-.94.017c-.286.078-.571.161-.852.258a6.786,6.786,0,0,1-4.237.417l-3.244-1.731s-.693-.173-1.715,1.557-.425,2.68-.425,2.68l3.644,1.258h0l.053.02a12.043,12.043,0,0,0,1.72.757c1.136.349,2.588-.064,3.575-.116a10.456,10.456,0,0,1,3.574.775c.915.371,2.014-1.038,2.473-.868S342.421,308.41,341.58,307.577Z" transform="translate(-312.097 -276.612)" fill="#ffa8a7"/>
                  <path id="Trazado_188479" data-name="Trazado 188479" d="M352.384,307.151a3.453,3.453,0,0,0-1.4.226,7.608,7.608,0,0,1,1.822.317,8.149,8.149,0,0,0,1.053-.21,1.941,1.941,0,0,0,.808-.494A3.977,3.977,0,0,1,352.384,307.151Z" transform="translate(-327.13 -279.281)" fill="#f28f8f"/>
                  <g id="Grupo_128691" data-name="Grupo 128691">
                    <path id="Trazado_188480" data-name="Trazado 188480" d="M298.9,237.619c.923.365,2.124,4.213,1.384,7.915l-1.718,11.578s2.1,1.246,5.059,3.076c2.047,1.267,3.8,2.43,3.8,3.369a4.266,4.266,0,0,0-2.139,4.236c-.915,1.085-9.367-3.6-12.322-5.621-1.37-.937-2.061-1.307-1.533-5.536.583-4.682.983-9.883,1.895-13.354C294.283,239.66,295.343,238.253,298.9,237.619Z" transform="translate(-291.26 -237.619)" fill="#f0f8ff"/>
                    <path id="Trazado_188481" data-name="Trazado 188481" d="M298.9,237.619c.923.365,2.124,4.213,1.384,7.915l-1.718,11.578s2.1,1.246,5.059,3.076c2.047,1.267,3.8,2.43,3.8,3.369a4.266,4.266,0,0,0-2.139,4.236c-.915,1.085-9.367-3.6-12.322-5.621-1.37-.937-2.061-1.307-1.533-5.536.583-4.682.983-9.883,1.895-13.354C294.283,239.66,295.343,238.253,298.9,237.619Z" transform="translate(-291.26 -237.619)" fill="#f0f8ff" opacity="0.7"/>
                  </g>
                </g>
                <g id="Grupo_128696" data-name="Grupo 128696" transform="translate(26.846 14.349)">
                  <g id="Grupo_128692" data-name="Grupo 128692" transform="translate(0.302 0.197)">
                    <path id="Trazado_188482" data-name="Trazado 188482" d="M359.226,299.073a1.267,1.267,0,0,0,1.094-.084l18.66-10.773a1.269,1.269,0,0,0,.617-.887l2.043-12.182a1.257,1.257,0,0,0,.017-.208,1.27,1.27,0,0,0-.375-.9l-19.391,11.2a.941.941,0,0,0-.456.657Z" transform="translate(-359.226 -274.036)" fill="#37474f"/>
                  </g>
                  <g id="Grupo_128693" data-name="Grupo 128693">
                    <path id="Trazado_188483" data-name="Trazado 188483" d="M358.47,298.62l.128.073a1.49,1.49,0,0,0,.174.084l2.208-13.183a.942.942,0,0,1,.456-.657l19.391-11.2a1.3,1.3,0,0,0-.259-.2l-19.43,11.218a.941.941,0,0,0-.456.656Z" transform="translate(-358.47 -273.543)" fill="#455a64"/>
                  </g>
                  <g id="Grupo_128694" data-name="Grupo 128694" transform="translate(0 11.469)">
                    <path id="Trazado_188484" data-name="Trazado 188484" d="M361.16,302.43l-.3-.174a.942.942,0,0,0-.178.405l-2.212,13.2.128.073a1.485,1.485,0,0,0,.174.084l2.208-13.183A.934.934,0,0,1,361.16,302.43Z" transform="translate(-358.47 -302.256)" fill="#263238"/>
                  </g>
                  <g id="Grupo_128695" data-name="Grupo 128695" transform="translate(10.792 11.293)">
                    <path id="Trazado_188485" data-name="Trazado 188485" d="M385.508,304.512a4.122,4.122,0,0,1,1.881-2.42c.9-.521,1.522-.282,1.386.534a4.124,4.124,0,0,1-1.881,2.42C385.992,305.567,385.371,305.328,385.508,304.512Z" transform="translate(-385.49 -301.817)" fill="#f0f8ff"/>
                  </g>
                </g>
              </g>
            </g>
          </g>
        </g>
      </g>
    </g>
  </g>
</svg>
