<svg xmlns="http://www.w3.org/2000/svg" width="397.886" height="421.263" viewBox="0 0 397.886 421.263">
  <g id="Grupo_128274" data-name="Grupo 128274" transform="translate(-579.1 -2484.956)">
    <g id="Grupo_128310" data-name="Grupo 128310" transform="translate(-576.147 17.895)">
      <path id="Trazado_187907" data-name="Trazado 187907" d="M1534.178,2978.39l-343.106-.2s-57.627-144.748-26.7-233.761,45.273,7.139,49.038-57.169c.129-2.177,6.467-3.741,13.544-12.593l4.052-6.681v-17.422c1.157-36.933,28.541-53.66,47.64-67.393q.926-.668,1.864-1.3c30.457-20.552,71.638-16.324,89.869,1.348,31.018,30.066,30.824,66.254,94.875,54.317s76.268,87.885,59.595,138.741C1501.188,2848.442,1590.449,2836.591,1534.178,2978.39Z" transform="translate(0 -101.078)" fill="#fffef0"/>
      <path id="Trazado_187908" data-name="Trazado 187908" d="M1406.79,2670.469a2.418,2.418,0,0,1-1.008-1.238,10.38,10.38,0,0,1-.264-2.663c-.108-1.856-2.986-4.249-4.746-4.988s.479,3.919.623,5.094a7.054,7.054,0,0,0,1.437,4.6C1404.49,2673.773,1406.79,2670.469,1406.79,2670.469Z" fill="#ffae73"/>
      <path id="Trazado_187909" data-name="Trazado 187909" d="M1461.082,2710.921a7.714,7.714,0,0,1-10.655,8.619q-.175-.079-.348-.162c-8.567-4.141-26.359-23.063-29.124-26.924-2.88-4.023-8.241-22.046-8.241-22.046s4.108-2.1,6.319-.713c0,0,8.681,15.137,11.488,17.572,2.958,2.567,28.69,12.944,29.61,18.568C1460.374,2707.322,1460.714,2709.1,1461.082,2710.921Z" fill="#ccc47d"/>
      <path id="Trazado_187910" data-name="Trazado 187910" d="M1401.8,2669.358s-.637-1.045-1.1-1.864-.854-2.4-.561-2.278a8.261,8.261,0,0,1,1.8,1.694C1402.325,2667.455,1401.8,2669.358,1401.8,2669.358Z" fill="#ffae73"/>
      <g id="Grupo_128318" data-name="Grupo 128318">
        <path id="Trazado_187911" data-name="Trazado 187911" d="M1375.407,2712.445l-9.987-9.831-9.8-9.647a1.773,1.773,0,0,1-.413-1.712c.5-1.8,3.553-3.585,5.333-5.086l.179-.152a5.594,5.594,0,0,1,7.861.667l11.981,14.2h0l3.553,4.212a5.6,5.6,0,0,1-.667,7.861l-.18.152A5.6,5.6,0,0,1,1375.407,2712.445Z" fill="#ffae73"/>
        <path id="Trazado_187912" data-name="Trazado 187912" d="M1378.314,2649.177a4.566,4.566,0,0,1-4.071,3.571,42.418,42.418,0,0,1-21.211-2.518c-9.764.047-16.677-3.509-18.77-1.669-.076.068-.055.213.054.42,1.916,3.714,31.541,28.415,31.972,31.156.456,2.894-55.108,16.509-55.108,16.509s-8.209-5.118-17.4-11.835c-4.662-3.4-9.573-7.214-13.8-10.981-4.259-3.791-7.82-7.542-9.723-10.773l-.01-.022a13.091,13.091,0,0,1-.738-1.417c-.033-.073-.064-.138-.088-.2a27.168,27.168,0,0,0-6.9-9.183,62.067,62.067,0,0,0-17.247-10.508l40.8-21.772s37.463,4.4,43.456,8.039c8.735,5.3,27.026,9.193,30.545,11.248,2.613,1.523,16.379,6.466,17.384,6.908C1377.891,2646.346,1378.464,2647.613,1378.314,2649.177Z" fill="#ffae73"/>
        <path id="Trazado_187913" data-name="Trazado 187913" d="M1338.68,2616.72s-.023.095-.086.274v0a65.349,65.349,0,0,1-7.57,15.531v0c-.185.278-.37.559-.563.839v0c-.086.125-.172.252-.258.377v0c-6.144,8.932-16.132,18.831-31.55,22.822h-.005q-1.325.342-2.706.627a57.215,57.215,0,0,1-6.7.958c-1.723.149-3.5.225-5.328.225,0,0-13.523-.714-33.755-1.8-1.105-.06-2.231-.135-3.383-.184l-12.071-.521c-7.593-1.967,2.857-49.247,41.1-62.836,31.667,8.322,9.324,9.562,30.583,15.162l.019,0c.018.006.036.008.049.014,1.358.357,2.685.708,3.97,1.045l.078.022C1327.9,2613.876,1338.68,2616.72,1338.68,2616.72Z" transform="matrix(0.995, 0.105, -0.105, 0.995, 215.992, -128.292)" fill="#d84318"/>
        <path id="Trazado_187914" data-name="Trazado 187914" d="M1276.35,2644.538a.47.47,0,0,1,.048.106c3.834,24.241,17.909,20.242,17.909,20.242l-.529,19.925c-4.662-3.4-9.573-7.214-13.8-10.981-4.259-3.791-7.82-7.542-9.723-10.773l-.01-.022c-.331-.6-.581-1.08-.738-1.417-.033-.073-.064-.138-.088-.2a27.168,27.168,0,0,0-6.9-9.183c1.5-2.56,3.249-5.469,4.978-8.317A4.988,4.988,0,0,1,1276.35,2644.538Z" fill="#fa9d65"/>
        <path id="Trazado_187915" data-name="Trazado 187915" d="M1260.8,2606.259s-13.164,11.386-18.586,19.386l3.929,6.814-6.683-.629s-3.4,12.353-1.556,16.524l18.226,1.716,21.009-33.618Z" fill="#ac3513"/>
        <path id="Trazado_187916" data-name="Trazado 187916" d="M1239.107,2651.156c-.539-4.954,4.265-15.07,4.265-15.07l16.16,3.226L1247.09,2626.2c2.809-5.813,9.546-14.683,13.713-19.939,2.076-2.616,3.513-4.337,3.513-4.337,11.968,9.1,23.109,18.162,23.109,18.162-4.885,1.893-9.456,7.031-13.26,12.71a118.186,118.186,0,0,0-10.525,20.365C1253.941,2652.243,1239.107,2651.156,1239.107,2651.156Z" fill="#f1bdae"/>
        <path id="Trazado_187917" data-name="Trazado 187917" d="M1239.107,2651.156c-.539-4.954,4.265-15.07,4.265-15.07l16.16,3.226L1247.09,2626.2c2.809-5.813,9.546-14.683,13.713-19.939.213,14.492,13.362,26.535,13.362,26.535a118.186,118.186,0,0,0-10.525,20.365C1253.941,2652.243,1239.107,2651.156,1239.107,2651.156Z" fill="#f9e3dc"/>
        <path id="Trazado_187918" data-name="Trazado 187918" d="M1257.07,2619.2a1.979,1.979,0,1,1-2.172,1.764A1.979,1.979,0,0,1,1257.07,2619.2Z" fill="#ff912b"/>
        <rect id="Rectángulo_40638" data-name="Rectángulo 40638" width="55.544" height="120.912" transform="translate(1303.355 2708.29) rotate(-84.678)" fill="#73b471"/>
        <g id="Grupo_128312" data-name="Grupo 128312">
          <rect id="Rectángulo_40639" data-name="Rectángulo 40639" width="120.912" height="55.544" transform="matrix(0.982, 0.187, -0.187, 0.982, 1315.598, 2652.177)" fill="#9bd399"/>
          <g id="Grupo_128310-2" data-name="Grupo 128310">
            <path id="Trazado_187919" data-name="Trazado 187919" d="M1421.088,2719.259l5.239-27.479v-.01l2.581-13.53-1.3-.248-22.243-4.24h0l-.253-.047-16.661-3.178-2.132-.407h0l-17.864-3.4-46.962-8.955h-.01l-.031,0-.8-.153-.023-.006-.019,0-1.2-.228-1.866,9.788-2.182,11.445-4.713,24.722,25.663,4.894,1.143.218,4.257.811.946.18,1.249.239,1.141.217,2.177.414,5.309,1.012,1.507.288,2.089.4,1.824.349,10.659,2.031h0l2.166.412,1.705.325,14.757,2.814,13.259,2.529,4.846.923,14.792,2.82Zm-7.718,1.62-23.991-4.574,0,0-2.865-.547h0l-15.008-2.86-1.394-.265-10.588-2.019-3.35-.64-2.151-.409-1.538-.293-5.008-.955-2.072-.4-1.26-.238-1.2-.228-.957-.184-4.241-.807-1.2-.229-18.366-3.5a5.289,5.289,0,0,1-4.206-6.186l2.969-15.568,3.067-16.087a5.291,5.291,0,0,1,6.187-4.207l43.347,8.266,20.3,3.869,5.778,1.1,0,0,7.268,1.387.237.044h0l18.26,3.483a5.288,5.288,0,0,1,4.205,6.186l-6.035,31.654a5.286,5.286,0,0,1-6.188,4.208Z" fill="#73b471"/>
          </g>
          <path id="Trazado_187920" data-name="Trazado 187920" d="M1366.964,2704.205a13.924,13.924,0,1,1,16.484-10.77A13.924,13.924,0,0,1,1366.964,2704.205Z" fill="#73b471"/>
          <g id="Grupo_128311" data-name="Grupo 128311">
            <path id="Trazado_187921" data-name="Trazado 187921" d="M1341.086,2690.7a5.14,5.14,0,1,1,6.086-3.976A5.14,5.14,0,0,1,1341.086,2690.7Z" fill="#73b471"/>
            <path id="Trazado_187922" data-name="Trazado 187922" d="M1396.312,2701.225a5.14,5.14,0,1,1,6.086-3.976A5.139,5.139,0,0,1,1396.312,2701.225Z" fill="#73b471"/>
          </g>
        </g>
        <g id="Grupo_128316" data-name="Grupo 128316">
          <g id="Grupo_128313" data-name="Grupo 128313">
            <path id="Trazado_187923" data-name="Trazado 187923" d="M1338.482,2713.892l-.438-1.181-2.948-7.942a5.147,5.147,0,0,1-.174-.563,5.409,5.409,0,0,1,3.354-6.369l.305-.114a5.41,5.41,0,0,1,6.933,3.18l2.748,7.4.2.538.438,1.181a5.409,5.409,0,0,1-3.18,6.932l-.3.114A5.409,5.409,0,0,1,1338.482,2713.892Z" fill="#ffae73"/>
            <path id="Trazado_187924" data-name="Trazado 187924" d="M1338.35,2707.46a31.658,31.658,0,0,1-1.534-5.006,2.1,2.1,0,0,1,.839-1.645,4.864,4.864,0,0,1,1.8-.982,5.73,5.73,0,0,1,1.149-.262,4.831,4.831,0,0,1,1.363.054,1.363,1.363,0,0,1,.966.763l0,.006a31.186,31.186,0,0,1,1.846,4.817,2.086,2.086,0,0,1-1.177,2.579l-.455.163-2.335.832A1.994,1.994,0,0,1,1338.35,2707.46Z" fill="#ffd0b1"/>
            <path id="Trazado_187925" data-name="Trazado 187925" d="M1338.35,2707.46a31.658,31.658,0,0,1-1.534-5.006,2.1,2.1,0,0,1,.839-1.645c.155-.066.319-.125.495-.182a5.728,5.728,0,0,1,1.149-.261,4.8,4.8,0,0,1,1.363.054,1.358,1.358,0,0,1,.966.763l0,.006a31.122,31.122,0,0,1,1.846,4.817,2.276,2.276,0,0,1-.323,1.941l-2.335.832A1.994,1.994,0,0,1,1338.35,2707.46Z" fill="#ffbd8f"/>
          </g>
          <g id="Grupo_128314" data-name="Grupo 128314">
            <path id="Rectángulo_40640" data-name="Rectángulo 40640" d="M3.5,0h.716a3.5,3.5,0,0,1,3.5,3.5V9.826a3.5,3.5,0,0,1-3.5,3.5H3.5A3.5,3.5,0,0,1,0,9.826V3.5A3.5,3.5,0,0,1,3.5,0Z" transform="matrix(0.967, -0.255, 0.255, 0.967, 1324.87, 2700.711)" fill="#ffae73"/>
            <path id="Trazado_187926" data-name="Trazado 187926" d="M1327.7,2706.912a27.592,27.592,0,0,1-.853-4.219,2.056,2.056,0,0,1,1.334-1.655,4.638,4.638,0,0,1,1.763-.436,3.512,3.512,0,0,1,1.044.145,1.08,1.08,0,0,1,.692.7l0,0a27.367,27.367,0,0,1,1.106,4.088,1.73,1.73,0,0,1-1.071,2.03l-.552.153-1.655.458A1.549,1.549,0,0,1,1327.7,2706.912Z" fill="#ffd0b1"/>
            <path id="Trazado_187927" data-name="Trazado 187927" d="M1327.7,2706.912a27.592,27.592,0,0,1-.853-4.219,2.056,2.056,0,0,1,1.334-1.655,3.918,3.918,0,0,1,.844-.117,3.533,3.533,0,0,1,1.044.144,1.085,1.085,0,0,1,.692.7l0,.006a27.236,27.236,0,0,1,1.1,4.088,1.843,1.843,0,0,1-.7,1.864l-1.655.458A1.549,1.549,0,0,1,1327.7,2706.912Z" fill="#ffbd8f"/>
          </g>
          <g id="Grupo_128315" data-name="Grupo 128315">
            <path id="Trazado_187928" data-name="Trazado 187928" d="M1350.187,2713.79c-.016-.043-.03-.087-.044-.132l-1.993-8.022a6.617,6.617,0,0,1,4.295-8.056l1.66-.464a6.137,6.137,0,0,1,7.367,4.355l.658,2.649,1.335,5.373a6.619,6.619,0,0,1-4.295,8.057l-1.66.463A6.125,6.125,0,0,1,1350.187,2713.79Z" fill="#ffae73"/>
            <path id="Trazado_187929" data-name="Trazado 187929" d="M1352.45,2710.139l-1.723-3.9-.005-.025a4.078,4.078,0,0,1-.094-.471c-.009-.065-.016-.132-.023-.2a.575.575,0,0,1,0-.082.618.618,0,0,1,.878-.531,3.871,3.871,0,0,0,2.636.241l.339-.09.01,0,1.107-.292a4.141,4.141,0,0,0,2.16-1.393c.066-.079.127-.162.186-.245a1.117,1.117,0,0,1,1.986.343l.007.024.613,4.274a2.033,2.033,0,0,1-1.6,2.347l-1.261.333-2.688.709C1353.921,2711.456,1352.728,2711.2,1352.45,2710.139Z" fill="#ffd0b1"/>
            <path id="Trazado_187930" data-name="Trazado 187930" d="M1352.45,2710.139l-1.723-3.9-.005-.025c-.017-.091-.062-.377-.117-.75a.618.618,0,0,1,.878-.531,3.871,3.871,0,0,0,2.636.241l.339-.09.01,0,1.107-.292a4.141,4.141,0,0,0,2.16-1.393,1.081,1.081,0,0,1,.431.615l.007.025.613,4.273a1.943,1.943,0,0,1-1.119,2.163l-2.688.709C1353.921,2711.456,1352.728,2711.2,1352.45,2710.139Z" fill="#ffbd8f"/>
          </g>
        </g>
        <g id="Grupo_128317" data-name="Grupo 128317">
          <path id="Trazado_187931" data-name="Trazado 187931" d="M1325.5,2639.7s-1.966-15.346,4.027-11.706c8.735,5.3,27.025,9.191,30.545,11.244,2.612,1.524,16.379,6.468,17.383,6.912a3.072,3.072,0,0,1,.462,3.533,8.5,8.5,0,0,1-4.311,4.142c-8.554,3.326-20.206-3.6-20.578-3.6-9.765.047-19.252-1.044-22.01-.649C1330.06,2649.717,1325.5,2639.7,1325.5,2639.7Z" fill="#ffae73"/>
          <path id="Trazado_187932" data-name="Trazado 187932" d="M1378.481,2646.405l-9.664-3.514s-.943,1.92-.48,3.129S1377.752,2649.356,1378.481,2646.405Z" fill="#ffbd8f"/>
        </g>
      </g>
      <g id="Grupo_128323" data-name="Grupo 128323">
        <g id="Grupo_128319" data-name="Grupo 128319">
          <path id="Trazado_187933" data-name="Trazado 187933" d="M1263.455,2765.838l1.923,1.563s5.262-1.887,6.45,4.365c0,0,.316,2.665-1.372,2.67s-.992-.291-3.382-.221-4.372-1.19-4.722-3.13l-1.143-1.643Z" fill="#f78840"/>
          <path id="Trazado_187934" data-name="Trazado 187934" d="M1263.237,2769.191c1.535-1.6,1.411-2.787,1.411-2.787s-17.77-14.548-19.572-15.734c-1.228-.807-14.315-12.409-20.432-19.482-3.034-3.508-6.793-2.147-11.093-.913l-3.542,1.016c-4.276,1.227-5.388,7.207-1.879,10.113,9.881,8.185,26.319,17.391,29.4,19.326,7.636,4.8,22.581,10.51,22.581,10.51A9.468,9.468,0,0,0,1263.237,2769.191Z" fill="#153d74"/>
        </g>
        <path id="Trazado_187935" data-name="Trazado 187935" d="M1283.516,2858.574a13.4,13.4,0,0,0,10.92,1.524s5.328-1.214,6.5,1.443c0,0-8.171,4.151-10.238,5.286a24.8,24.8,0,0,0-4.334,3.25,2.142,2.142,0,0,1-3.1-.239c-.36-.442-.771-.968-1.222-1.579-1.259-1.707-4.2-7.222-4.2-7.222Z" fill="#154276"/>
        <g id="Grupo_128322" data-name="Grupo 128322">
          <circle id="Elipse_5063" data-name="Elipse 5063" cx="30.151" cy="30.151" r="30.151" transform="translate(1234.315 2710.382)" fill="#ef7c00"/>
          <circle id="Elipse_5064" data-name="Elipse 5064" cx="30.151" cy="30.151" r="30.151" transform="translate(1226.249 2764.024) rotate(-78.427)" fill="#ffc459"/>
          <g id="Grupo_128320" data-name="Grupo 128320">
            <path id="Trazado_187936" data-name="Trazado 187936" d="M1261.836,2768.361a27.471,27.471,0,1,1,19.425-8.046A27.29,27.29,0,0,1,1261.836,2768.361Zm0-53.3a25.832,25.832,0,1,0,25.833,25.832A25.861,25.861,0,0,0,1261.836,2715.058Z" fill="#ff9f00"/>
          </g>
          <g id="Grupo_128321" data-name="Grupo 128321">
            <path id="Trazado_187937" data-name="Trazado 187937" d="M1265.618,2748.863a4.523,4.523,0,0,0-.065-1.595,3.3,3.3,0,0,0-.674-1.324,6.259,6.259,0,0,0-1.349-1.191,16.531,16.531,0,0,0-2.09-1.17,43.532,43.532,0,0,1-3.86-2.121,13.646,13.646,0,0,1-2.885-2.349,8.033,8.033,0,0,1-1.7-2.862,9.081,9.081,0,0,1,.734-6.866,7.64,7.64,0,0,1,2.128-2.365,9.556,9.556,0,0,1,3.048-1.451,12.71,12.71,0,0,1,3.806-.439l.537-4.528,3.644.433-.544,4.591a11.406,11.406,0,0,1,3.43,1.458,8.614,8.614,0,0,1,3.839,5.509,11.461,11.461,0,0,1,.15,3.891l-6.582-.781a5.589,5.589,0,0,0-.677-3.932,3.879,3.879,0,0,0-2.869-1.617,4.933,4.933,0,0,0-1.8.076,3.361,3.361,0,0,0-1.312.638,3.113,3.113,0,0,0-.845,1.091,4.57,4.57,0,0,0-.4,1.433,4.186,4.186,0,0,0,.06,1.444,3.086,3.086,0,0,0,.646,1.268,6.257,6.257,0,0,0,1.36,1.191,21.142,21.142,0,0,0,2.173,1.256q2.11,1.087,3.819,2.169a13.846,13.846,0,0,1,2.872,2.369,8.148,8.148,0,0,1,1.7,2.873,9.111,9.111,0,0,1-.75,6.906,7.562,7.562,0,0,1-2.137,2.343,9.23,9.23,0,0,1-3.065,1.4,13.766,13.766,0,0,1-3.824.4l-.5,4.211-3.622-.43.5-4.19a15.4,15.4,0,0,1-3.557-1.258,9.748,9.748,0,0,1-2.915-2.2,8.729,8.729,0,0,1-1.829-3.275,10.619,10.619,0,0,1-.3-4.456l6.583.781a6.542,6.542,0,0,0,.124,2.558,4.225,4.225,0,0,0,.936,1.741,4.108,4.108,0,0,0,1.506,1.037,7.018,7.018,0,0,0,1.805.461,5.852,5.852,0,0,0,1.911-.052,3.9,3.9,0,0,0,1.446-.6,3.121,3.121,0,0,0,.957-1.056A3.8,3.8,0,0,0,1265.618,2748.863Z" fill="#ff9f00"/>
          </g>
        </g>
        <path id="Trazado_187938" data-name="Trazado 187938" d="M1286.047,2856.933s-2.626,6.055-8.687,4.942c0,0-12.369-10.215-20.853-20.826a47.162,47.162,0,0,1-6.481-10.127c-5.626-13.026-20.811-32.454-30.466-42.3l24.156-8.739s7.737,15.565,18.032,34.682C1269.167,2828.339,1277.912,2843.959,1286.047,2856.933Z" fill="#25468f"/>
        <path id="Trazado_187939" data-name="Trazado 187939" d="M1261.748,2814.564l-5.241,26.485a47.162,47.162,0,0,1-6.481-10.127c-5.626-13.026-20.811-32.454-30.466-42.3l24.156-8.739S1251.453,2795.447,1261.748,2814.564Z" fill="#909599"/>
        <path id="Trazado_187940" data-name="Trazado 187940" d="M1242,2862.088s-.263,4.832,5.593,5.476c0,0,3.625.094,3.635,3.169l-17.639-.007s-.156-1.256-.276-3.912c-.092-2.04,1.977-7.374,1.977-7.374Z" fill="#154276"/>
        <path id="Trazado_187941" data-name="Trazado 187941" d="M1235.793,2779.882s10.761,11.825,17.592,33.128c3.717,11.591-6.812,40.732-8.865,50.857,0,0-7.063.6-11.892-1.268,0,0-.367-20.912,2.457-37.03,1.581-9.021-14.168-19.293-21.05-35.592-4.682-11.089,1.013-10.9,8.013-11.167Z" fill="#c0c6cc"/>
        <path id="Trazado_187942" data-name="Trazado 187942" d="M1223.37,2727.128c-5.987,3.38-18.244.262-18.244.262s4.978-5.69,2.716-14.855l4.7,2.387,5.049,2.565a41.814,41.814,0,0,1,.554,4.526c.057.748.109,1.584.145,2.5A15.7,15.7,0,0,1,1223.37,2727.128Z" fill="#ffab70"/>
        <path id="Trazado_187943" data-name="Trazado 187943" d="M1245.325,2779.271c0,1.053-1.213,1.556-1.47,1.608-2.415.441-9.158,3.064-15.232,3.665a48.7,48.7,0,0,1-15.079-1.02c-.691-.139-2.313-.576-2.428-1.238-.144-.723-20.123-40.728-4.592-57.912.365-.4,3.431.323,6.234.988a11.508,11.508,0,0,0,7.085-.578l2.629,1.383c3.229,1.8,9.339,8.191,10.053,13.207.363,2.551,1.822,4.44,2.244,6.683q.235,1.245.48,2.431.477,2.325.984,4.427c.913,3.794,1.877,7.059,2.824,9.88,1.007,3,2,5.488,2.879,7.571,1.145,2.7,2.112,4.723,2.717,6.27A7.729,7.729,0,0,1,1245.325,2779.271Z" fill="#fff59d"/>
        <path id="Trazado_187944" data-name="Trazado 187944" d="M1244.653,2776.636c-28.2-13.287-37.969-38.8-37.969-38.8s22.913,8.453,28.565,10.653q.477,2.325.984,4.427c.913,3.794,1.877,7.059,2.824,9.88,1.007,3,2,5.488,2.879,7.571C1243.081,2773.069,1244.048,2775.089,1244.653,2776.636Z" fill="#ccc47d"/>
        <path id="Trazado_187945" data-name="Trazado 187945" d="M1261.153,2768.936l2.437.893s4.88-3.45,7.919,2.162c0,0,1.1,2.451-.641,2.984s-1.107.031-3.552.845-4.855.228-5.778-1.518l-1.657-1.216Z" fill="#ffab70"/>
        <path id="Trazado_187946" data-name="Trazado 187946" d="M1263.159,2772.382c.9-2.351,1.312-3.416,1.312-3.416s-18.415-15.009-20.291-16.3c-1.278-.877-14.007-10.392-20.213-17.807a12.988,12.988,0,0,0-12.626-4.375l-3.866.811a5.749,5.749,0,0,0-2.563,9.991c10.2,8.742,27.4,18.882,30.6,20.991,7.961,5.236,25.57,12.572,25.57,12.572A4.533,4.533,0,0,0,1263.159,2772.382Z" fill="#fff59d"/>
        <path id="Trazado_187947" data-name="Trazado 187947" d="M1218.146,2722.013c-5.888.33-9.717-4.531-9.717-4.531a46.853,46.853,0,0,0,4.114-2.56l5.049,2.565A41.814,41.814,0,0,1,1218.146,2722.013Z" fill="#f78840"/>
        <path id="Trazado_187948" data-name="Trazado 187948" d="M1220.654,2715.968s-8.921,6.4-12.822.785-7.68-8.574-2.149-12.9,8.138-2.959,9.9-1.4S1222.874,2714.158,1220.654,2715.968Z" fill="#ffab70"/>
        <path id="Trazado_187949" data-name="Trazado 187949" d="M1216.521,2697.381a14.332,14.332,0,0,0-1.039-3.678s-.56,2.319-4.8,2-10.955.417-13.194,5.246a10.182,10.182,0,0,0-.383.948,11.2,11.2,0,0,1-.5-2.676,8.249,8.249,0,0,0,0,4.68h0c-.012.076-.022.152-.033.228a9.445,9.445,0,0,0-1.721,3.249,2.948,2.948,0,0,1,1.584-1.409c-.019,3.758,1.5,7.432,4.18,8.526,3.912,1.6,3.88.379,7.814,2.988,0,0,1.055-1.309.336-2.189s-3.439-2.159-1.919-3.438,2.079.16,2.638-.72-2.239-3.438,1.36-5.837S1216.841,2699.54,1216.521,2697.381Z" fill="#1e3865"/>
      </g>
      <g id="Grupo_128325" data-name="Grupo 128325">
        <g id="Grupo_128324" data-name="Grupo 128324">
          <path id="Trazado_187950" data-name="Trazado 187950" d="M1497.406,2856.03s3.225,2.944,2.6,5.036-3.54,3.486-3.934,6.042-1.967,3.951-3.383,3.951h-6.751s-1.043-1.8,1.475-2.341,3.467-3.547,3.309-6.335a49.243,49.243,0,0,1,.236-6.508l5.35-1.239Z" fill="#194279"/>
          <path id="Trazado_187951" data-name="Trazado 187951" d="M1457.832,2863.644s.579,6.7-.837,7.4l-18.124-.037s0-2.092,2.911-2.557,8.025-2.169,8.89-5.965S1457.832,2863.644,1457.832,2863.644Z" fill="#194279"/>
          <path id="Trazado_187952" data-name="Trazado 187952" d="M1442.53,2769.008s.956,11.743,2.08,25.86c1.527,19.175,3.363,42.73,3.545,47.192.314,7.748,1.574,20.143,1.574,20.143s2.988,2.944,8.969,1.7a199.981,199.981,0,0,0,6.852-36.413c.024-.307.048-.616.071-.925,1.416-19.057,3.618-59.187,3.618-59.187Z" fill="#c0c6cc"/>
          <path id="Trazado_187953" data-name="Trazado 187953" d="M1442.53,2769.008s.956,11.743,2.08,25.86l20.94,32.625c.024-.307.048-.616.071-.925,1.416-19.057,3.618-59.187,3.618-59.187Z" fill="#909599"/>
          <path id="Trazado_187954" data-name="Trazado 187954" d="M1446.9,2770.4s17.23,42.53,28.559,62.517,14.87,25.564,14.87,25.564,6.491-2.556,7.081-4.3c0,0-4.333-38.586-11.92-47.992-4.287-5.315-9.323-21.265-9.559-26.843s-1.534-16.617-1.534-16.617Z" fill="#c0c6cc"/>
        </g>
        <path id="Trazado_187955" data-name="Trazado 187955" d="M1461.753,2706.6s-11.545,5.855-18.306,3.9a14.884,14.884,0,0,1,2.624-2.509,3.712,3.712,0,0,0,1.438-3.533q-.1-.633-.172-1.189a25.2,25.2,0,0,1-.28-3.923l4.352-3.286,4.2-3.469C1455.459,2702.122,1461.753,2706.6,1461.753,2706.6Z" fill="#ffae73"/>
        <path id="Trazado_187956" data-name="Trazado 187956" d="M1473.219,2766.1a47.6,47.6,0,0,1-14.237,6.133c-6.091,1.444-13.578,1.018-16.082,1.4a1.043,1.043,0,0,1-.731-.185c-.2-.1-1.3-7.531-2.409-16.909-.049-.377-.1-.758-.121-1.14l-.017-.126c-.43-3.666-.807-7.517-1.135-11.377-.267-3-.487-5.974-.639-8.764-.192-3.491-.272-6.7-.192-9.336.035-1.206.1-2.289.213-3.23a22.867,22.867,0,0,1,5.412-12.325l2.843-2.282a9.9,9.9,0,0,0,6.582-1.824c2.493-1.641,5.183-3.406,5.691-3.111,3.82,2.09,6.931,7.507,9.152,14.661a81.645,81.645,0,0,1,2.878,13.739c.2,1.535.372,3.111.5,4.679.025.29.047.581.07.866.3,4.289.789,8.308,1.332,11.9.73,4.841,1.561,8.9,2.149,11.751.3,1.454.52,2.578.653,3.383C1475.253,2764.7,1473.847,2765.708,1473.219,2766.1Z" fill="#fff59d"/>
        <path id="Trazado_187957" data-name="Trazado 187957" d="M1455.755,2696.235s-2.839,5.428-8.418,7.041a46.013,46.013,0,0,1-.355-7.406l4.427.2Z" fill="#f99352"/>
        <path id="Trazado_187958" data-name="Trazado 187958" d="M1443.711,2697.188s10.431,4.266,12.981-2.163,5.614-10.208-.938-13.2-8.827-1.052-10.209.887S1441.064,2695.912,1443.711,2697.188Z" fill="#ffae73"/>
        <path id="Trazado_187959" data-name="Trazado 187959" d="M1463.652,2682.8c.124-.09.372-.129.884-.04a2.112,2.112,0,0,0-.883-.483,2.607,2.607,0,0,0-1.171-2.636,1.555,1.555,0,0,1,.483,1.262c-1.069-1.76-3.828-3.5-12.285-4.751-11.145-1.654-9.15,6.185-7.925,7.346s5.319-.308,7.912.509,2.216,4.747,2.992,5.477.636-.277,1.974-.546.991,1.766.341,2.991.618,3.33.618,3.33l2.1-1.425c2.1-1.425,5.451-8.736,5.063-10.549C1463.72,2683.123,1463.687,2682.961,1463.652,2682.8Z" fill="#102538"/>
        <path id="Trazado_187960" data-name="Trazado 187960" d="M1457.224,2726.406s-9.406,7.156-19.376,8.725c-.192-3.491-.272-6.7-.192-9.336Z" fill="#ccc47d"/>
        <path id="Trazado_187961" data-name="Trazado 187961" d="M1401.561,2701.7c-.094-.2-.028-6.888-3.334-7.423-2.157-.349-7.747-1.841-7.694,1.16.021,1.18,7.016,8.462,7.016,8.462Z" fill="#ffae73"/>
        <path id="Trazado_187962" data-name="Trazado 187962" d="M1459.2,2714.755a7.714,7.714,0,0,1-4.822,12.828c-.127.014-.255.026-.382.037-9.483.769-36.465-6.957-40.2-9.023-6.2-3.428-16.825-14.272-16.825-14.272s2.479-3.891,5.088-3.816c0,0,14.225,9.061,19.318,10.145,3.436.731,30.781-4.186,34.424.2C1456.771,2712.01,1457.967,2713.375,1459.2,2714.755Z" fill="#fff59d"/>
      </g>
      <g id="Grupo_128326" data-name="Grupo 128326">
        <path id="Trazado_187963" data-name="Trazado 187963" d="M1329.1,2680.662l-.856-4.823,1.857-.33.848,4.775c.244,1.375,1.057,1.964,2.191,1.763a1.774,1.774,0,0,0,1.461-2.349l-.859-4.835,1.857-.33.846,4.763c.454,2.556-.759,4.064-3.025,4.467S1329.538,2683.146,1329.1,2680.662Z" fill="#9bd399"/>
        <path id="Trazado_187964" data-name="Trazado 187964" d="M1337.489,2674.2l3.918-.7a3.1,3.1,0,0,1,2.34.355,2.114,2.114,0,0,1,.052,3.374,2.1,2.1,0,0,1,1.952,1.818c.274,1.543-.843,2.537-2.748,2.876l-4.015.713Zm4.126,2.787c.82-.146,1.292-.5,1.176-1.154-.1-.555-.588-.791-1.372-.652l-1.833.325.317,1.785Zm1.1,3.312c.82-.146,1.262-.523,1.147-1.174-.1-.567-.585-.841-1.537-.672l-2.147.381.33,1.857Z" fill="#9bd399"/>
        <path id="Trazado_187965" data-name="Trazado 187965" d="M1346.278,2672.636l1.857-.33,1.5,8.44-1.857.33Z" fill="#9bd399"/>
      </g>
      <g id="Grupo_128347" data-name="Grupo 128347" transform="translate(-8.174 6.107)">
        <path id="Trazado_187966" data-name="Trazado 187966" d="M1336.331,2866.468v3.12a1.064,1.064,0,0,1-.245.671,1.434,1.434,0,0,1-.672.45,1.6,1.6,0,0,1-.262.062,1.767,1.767,0,0,1-.253.019H1275.72a1.351,1.351,0,0,1-1.43-1.141c0-.02,0-.041,0-.061v-3.12c0-.021,0-.042,0-.062a1.351,1.351,0,0,1,1.43-1.141H1334.9a1.637,1.637,0,0,1,.253.02,1.546,1.546,0,0,1,.262.061,1.436,1.436,0,0,1,.672.45A1.065,1.065,0,0,1,1336.331,2866.468Z" fill="#ffc459"/>
        <path id="Trazado_187967" data-name="Trazado 187967" d="M1307.271,2870.79h-31.7a1.252,1.252,0,0,1-1.276-1.141c0-.02,0-.041,0-.061v-3.12c0-.021,0-.042,0-.062a1.252,1.252,0,0,1,1.276-1.141h27.811A9.686,9.686,0,0,0,1307.271,2870.79Z" fill="#fa0"/>
        <g id="Grupo_128327" data-name="Grupo 128327">
          <rect id="Rectángulo_40641" data-name="Rectángulo 40641" width="0.673" height="5.525" transform="translate(1328.457 2865.265)" fill="#ff9f00"/>
          <rect id="Rectángulo_40642" data-name="Rectángulo 40642" width="0.673" height="5.525" transform="translate(1326.18 2865.265)" fill="#ff9f00"/>
          <rect id="Rectángulo_40643" data-name="Rectángulo 40643" width="0.673" height="5.525" transform="translate(1323.45 2865.265)" fill="#ff9f00"/>
          <rect id="Rectángulo_40644" data-name="Rectángulo 40644" width="0.672" height="5.525" transform="translate(1319.265 2865.265)" fill="#ff9f00"/>
          <rect id="Rectángulo_40645" data-name="Rectángulo 40645" width="0.673" height="5.525" transform="translate(1314.84 2865.265)" fill="#ff9f00"/>
          <rect id="Rectángulo_40646" data-name="Rectángulo 40646" width="0.672" height="5.525" transform="translate(1308.056 2865.265)" fill="#ff9f00"/>
          <rect id="Rectángulo_40647" data-name="Rectángulo 40647" width="0.673" height="5.525" transform="translate(1301.703 2865.265)" fill="#ff9f00"/>
          <rect id="Rectángulo_40648" data-name="Rectángulo 40648" width="0.673" height="5.525" transform="translate(1296.031 2865.265)" fill="#ff9f00"/>
          <rect id="Rectángulo_40649" data-name="Rectángulo 40649" width="0.673" height="5.525" transform="translate(1330.624 2865.265)" fill="#ff9f00"/>
          <rect id="Rectángulo_40650" data-name="Rectángulo 40650" width="0.673" height="5.525" transform="translate(1332.056 2865.265)" fill="#ff9f00"/>
          <rect id="Rectángulo_40651" data-name="Rectángulo 40651" width="0.673" height="5.525" transform="translate(1333.439 2865.265)" fill="#ff9f00"/>
          <path id="Trazado_187968" data-name="Trazado 187968" d="M1335.152,2865.285v5.486a1.767,1.767,0,0,1-.253.019h-.42v-5.525h.42A1.637,1.637,0,0,1,1335.152,2865.285Z" fill="#ff9f00"/>
          <path id="Trazado_187969" data-name="Trazado 187969" d="M1336.086,2865.8v4.463a1.434,1.434,0,0,1-.672.45v-5.363A1.436,1.436,0,0,1,1336.086,2865.8Z" fill="#ff9f00"/>
        </g>
        <path id="Trazado_187970" data-name="Trazado 187970" d="M1330,2860.943v3.12a1.064,1.064,0,0,1-.246.671,1.425,1.425,0,0,1-.672.45,1.528,1.528,0,0,1-.262.062,1.615,1.615,0,0,1-.252.019h-59.179a1.352,1.352,0,0,1-1.431-1.14c0-.021,0-.041,0-.062v-3.12c0-.021,0-.041,0-.062a1.352,1.352,0,0,1,1.431-1.14h59.179c.038,0,.076,0,.113,0a.4.4,0,0,1,.048,0,.463.463,0,0,1,.053.006l.038.005a1.483,1.483,0,0,1,.262.062l.037.012.037.014.072.029.041.019a.3.3,0,0,1,.036.018c.023.011.046.023.068.036s.05.03.073.046.038.024.056.038l0,0c.012.009.025.018.036.028a1.158,1.158,0,0,1,.1.089l.029.028.027.029c.018.021.037.041.053.062A1.063,1.063,0,0,1,1330,2860.943Z" fill="#ffc459"/>
        <path id="Trazado_187971" data-name="Trazado 187971" d="M1300.944,2865.265h-31.7a1.251,1.251,0,0,1-1.277-1.14c0-.021,0-.041,0-.062v-3.12c0-.021,0-.041,0-.062a1.251,1.251,0,0,1,1.277-1.14h27.81l.039.136A9.663,9.663,0,0,0,1300.944,2865.265Z" fill="#fa0"/>
        <g id="Grupo_128328" data-name="Grupo 128328">
          <rect id="Rectángulo_40652" data-name="Rectángulo 40652" width="0.673" height="5.525" transform="translate(1322.13 2859.741)" fill="#ff9f00"/>
          <rect id="Rectángulo_40653" data-name="Rectángulo 40653" width="0.673" height="5.525" transform="translate(1319.853 2859.741)" fill="#ff9f00"/>
          <rect id="Rectángulo_40654" data-name="Rectángulo 40654" width="0.673" height="5.525" transform="translate(1317.123 2859.741)" fill="#ff9f00"/>
          <rect id="Rectángulo_40655" data-name="Rectángulo 40655" width="0.673" height="5.525" transform="translate(1312.938 2859.741)" fill="#ff9f00"/>
          <rect id="Rectángulo_40656" data-name="Rectángulo 40656" width="0.673" height="5.525" transform="translate(1308.513 2859.741)" fill="#ff9f00"/>
          <rect id="Rectángulo_40657" data-name="Rectángulo 40657" width="0.672" height="5.525" transform="translate(1301.728 2859.741)" fill="#ff9f00"/>
          <rect id="Rectángulo_40658" data-name="Rectángulo 40658" width="0.673" height="5.525" transform="translate(1295.376 2859.741)" fill="#ff9f00"/>
          <rect id="Rectángulo_40659" data-name="Rectángulo 40659" width="0.673" height="5.525" transform="translate(1289.704 2859.741)" fill="#ff9f00"/>
          <rect id="Rectángulo_40660" data-name="Rectángulo 40660" width="0.672" height="5.525" transform="translate(1324.297 2859.741)" fill="#ff9f00"/>
          <rect id="Rectángulo_40661" data-name="Rectángulo 40661" width="0.672" height="5.525" transform="translate(1325.729 2859.741)" fill="#ff9f00"/>
          <rect id="Rectángulo_40662" data-name="Rectángulo 40662" width="0.673" height="5.525" transform="translate(1327.111 2859.741)" fill="#ff9f00"/>
          <path id="Trazado_187972" data-name="Trazado 187972" d="M1328.824,2859.76v5.486a1.743,1.743,0,0,1-.252.019h-.421v-5.524h.421A1.615,1.615,0,0,1,1328.824,2859.76Z" fill="#ff9f00"/>
          <path id="Trazado_187973" data-name="Trazado 187973" d="M1329.758,2860.271v4.463a1.425,1.425,0,0,1-.672.45v-5.362A1.423,1.423,0,0,1,1329.758,2860.271Z" fill="#ff9f00"/>
        </g>
        <path id="Trazado_187974" data-name="Trazado 187974" d="M1333.061,2855.554v3.12a1.064,1.064,0,0,1-.245.672,1.423,1.423,0,0,1-.672.45,1.6,1.6,0,0,1-.262.062,1.711,1.711,0,0,1-.253.019H1272.45a1.644,1.644,0,0,1-.66-.136,1.227,1.227,0,0,1-.765-.951.479.479,0,0,1-.005-.054c0-.02,0-.041,0-.062v-3.12c0-.02,0-.041,0-.061a1.352,1.352,0,0,1,1.43-1.141h59.179a1.711,1.711,0,0,1,.253.019,1.6,1.6,0,0,1,.262.062,1.423,1.423,0,0,1,.672.45A1.063,1.063,0,0,1,1333.061,2855.554Z" fill="#ffc459"/>
        <path id="Trazado_187975" data-name="Trazado 187975" d="M1304,2859.877h-31.7a1.33,1.33,0,0,1-.589-.136,1.208,1.208,0,0,1-.683-.951.479.479,0,0,1-.005-.054c0-.02,0-.041,0-.062v-3.12c0-.02,0-.041,0-.061a1.252,1.252,0,0,1,1.277-1.141h27.811a9.7,9.7,0,0,0,3.7,5.389C1303.871,2859.786,1303.935,2859.832,1304,2859.877Z" fill="#fa0"/>
        <g id="Grupo_128329" data-name="Grupo 128329">
          <rect id="Rectángulo_40663" data-name="Rectángulo 40663" width="0.672" height="5.525" transform="translate(1325.188 2854.352)" fill="#ff9f00"/>
          <rect id="Rectángulo_40664" data-name="Rectángulo 40664" width="0.672" height="5.525" transform="translate(1322.911 2854.352)" fill="#ff9f00"/>
          <rect id="Rectángulo_40665" data-name="Rectángulo 40665" width="0.673" height="5.525" transform="translate(1320.181 2854.352)" fill="#ff9f00"/>
          <rect id="Rectángulo_40666" data-name="Rectángulo 40666" width="0.673" height="5.525" transform="translate(1315.996 2854.352)" fill="#ff9f00"/>
          <rect id="Rectángulo_40667" data-name="Rectángulo 40667" width="0.673" height="5.525" transform="translate(1311.57 2854.352)" fill="#ff9f00"/>
          <rect id="Rectángulo_40668" data-name="Rectángulo 40668" width="0.673" height="5.525" transform="translate(1304.786 2854.352)" fill="#ff9f00"/>
          <rect id="Rectángulo_40669" data-name="Rectángulo 40669" width="0.672" height="5.525" transform="translate(1298.434 2854.352)" fill="#ff9f00"/>
          <rect id="Rectángulo_40670" data-name="Rectángulo 40670" width="0.673" height="5.525" transform="translate(1292.762 2854.352)" fill="#ff9f00"/>
          <rect id="Rectángulo_40671" data-name="Rectángulo 40671" width="0.673" height="5.525" transform="translate(1327.355 2854.352)" fill="#ff9f00"/>
          <rect id="Rectángulo_40672" data-name="Rectángulo 40672" width="0.672" height="5.525" transform="translate(1328.787 2854.352)" fill="#ff9f00"/>
          <rect id="Rectángulo_40673" data-name="Rectángulo 40673" width="0.672" height="5.525" transform="translate(1330.169 2854.352)" fill="#ff9f00"/>
          <path id="Trazado_187976" data-name="Trazado 187976" d="M1331.882,2854.371v5.486a1.587,1.587,0,0,1-.253.02h-.42v-5.525h.42A1.711,1.711,0,0,1,1331.882,2854.371Z" fill="#ff9f00"/>
          <path id="Trazado_187977" data-name="Trazado 187977" d="M1332.816,2854.883v4.463a1.423,1.423,0,0,1-.672.45v-5.363A1.423,1.423,0,0,1,1332.816,2854.883Z" fill="#ff9f00"/>
        </g>
        <path id="Trazado_187978" data-name="Trazado 187978" d="M1334.479,2850.03v3.12a1.059,1.059,0,0,1-.246.671,1.426,1.426,0,0,1-.672.45,1.461,1.461,0,0,1-.262.062,1.613,1.613,0,0,1-.252.019h-59.179a1.351,1.351,0,0,1-1.43-1.14c0-.021,0-.042,0-.062v-3.12c0-.021,0-.041,0-.062a1.319,1.319,0,0,1,1.261-1.132,1.591,1.591,0,0,1,.169-.009h59.179a1.747,1.747,0,0,1,.514.081,1.42,1.42,0,0,1,.672.451A1.057,1.057,0,0,1,1334.479,2850.03Z" fill="#ffc459"/>
        <path id="Trazado_187979" data-name="Trazado 187979" d="M1305.419,2854.352h-31.7a1.251,1.251,0,0,1-1.276-1.14c0-.021,0-.042,0-.062v-3.12c0-.021,0-.041,0-.062a1.241,1.241,0,0,1,1.125-1.132,1.28,1.28,0,0,1,.151-.009h27.811l0,.009A9.685,9.685,0,0,0,1305.419,2854.352Z" fill="#fa0"/>
        <g id="Grupo_128330" data-name="Grupo 128330">
          <rect id="Rectángulo_40674" data-name="Rectángulo 40674" width="0.673" height="5.525" transform="translate(1326.605 2848.827)" fill="#ff9f00"/>
          <rect id="Rectángulo_40675" data-name="Rectángulo 40675" width="0.673" height="5.525" transform="translate(1324.328 2848.827)" fill="#ff9f00"/>
          <rect id="Rectángulo_40676" data-name="Rectángulo 40676" width="0.673" height="5.525" transform="translate(1321.598 2848.827)" fill="#ff9f00"/>
          <rect id="Rectángulo_40677" data-name="Rectángulo 40677" width="0.672" height="5.525" transform="translate(1317.413 2848.827)" fill="#ff9f00"/>
          <rect id="Rectángulo_40678" data-name="Rectángulo 40678" width="0.672" height="5.525" transform="translate(1312.988 2848.827)" fill="#ff9f00"/>
          <rect id="Rectángulo_40679" data-name="Rectángulo 40679" width="0.672" height="5.525" transform="translate(1306.204 2848.827)" fill="#ff9f00"/>
          <rect id="Rectángulo_40680" data-name="Rectángulo 40680" width="0.672" height="5.525" transform="translate(1299.851 2848.827)" fill="#ff9f00"/>
          <rect id="Rectángulo_40681" data-name="Rectángulo 40681" width="0.673" height="5.525" transform="translate(1294.179 2848.827)" fill="#ff9f00"/>
          <rect id="Rectángulo_40682" data-name="Rectángulo 40682" width="0.673" height="5.525" transform="translate(1328.772 2848.827)" fill="#ff9f00"/>
          <rect id="Rectángulo_40683" data-name="Rectángulo 40683" width="0.673" height="5.525" transform="translate(1330.204 2848.827)" fill="#ff9f00"/>
          <rect id="Rectángulo_40684" data-name="Rectángulo 40684" width="0.673" height="5.525" transform="translate(1331.587 2848.827)" fill="#ff9f00"/>
          <path id="Trazado_187980" data-name="Trazado 187980" d="M1333.3,2848.846v5.487a1.741,1.741,0,0,1-.252.019h-.42v-5.525h.42A1.741,1.741,0,0,1,1333.3,2848.846Z" fill="#ff9f00"/>
          <path id="Trazado_187981" data-name="Trazado 187981" d="M1334.233,2849.358v4.463a1.426,1.426,0,0,1-.672.45v-5.363A1.426,1.426,0,0,1,1334.233,2849.358Z" fill="#ff9f00"/>
        </g>
        <path id="Trazado_187982" data-name="Trazado 187982" d="M1330.128,2844.514v3.12a1.063,1.063,0,0,1-.245.671,1.428,1.428,0,0,1-.672.45,1.6,1.6,0,0,1-.262.062c-.028,0-.056.008-.084.01l-.046,0c-.015,0-.031,0-.047,0l-.076,0h-59.179a1.351,1.351,0,0,1-1.43-1.141c0-.02,0-.041,0-.061v-3.12c0-.021,0-.042,0-.062s0-.034,0-.051a1.3,1.3,0,0,1,1.073-1.052c.014,0,.029-.006.043-.009a1.658,1.658,0,0,1,.31-.029H1328.7c.044,0,.086,0,.128,0l.057.005h0l.067.01a1.5,1.5,0,0,1,.262.061,1.428,1.428,0,0,1,.672.45A1.064,1.064,0,0,1,1330.128,2844.514Z" fill="#ffc459"/>
        <path id="Trazado_187983" data-name="Trazado 187983" d="M1301.068,2848.836h-31.7a1.252,1.252,0,0,1-1.276-1.141c0-.02,0-.041,0-.061v-3.12c0-.021,0-.042,0-.062s0-.034,0-.051a1.234,1.234,0,0,1,.991-1.06.353.353,0,0,1,.055-.01,1.308,1.308,0,0,1,.226-.02h27.811c0,.014.008.026.011.04a9.684,9.684,0,0,0,3.87,5.476Z" fill="#fa0"/>
        <g id="Grupo_128331" data-name="Grupo 128331">
          <rect id="Rectángulo_40685" data-name="Rectángulo 40685" width="0.673" height="5.525" transform="translate(1322.254 2843.311)" fill="#ff9f00"/>
          <rect id="Rectángulo_40686" data-name="Rectángulo 40686" width="0.673" height="5.525" transform="translate(1319.978 2843.311)" fill="#ff9f00"/>
          <rect id="Rectángulo_40687" data-name="Rectángulo 40687" width="0.673" height="5.525" transform="translate(1317.247 2843.311)" fill="#ff9f00"/>
          <rect id="Rectángulo_40688" data-name="Rectángulo 40688" width="0.672" height="5.525" transform="translate(1313.062 2843.311)" fill="#ff9f00"/>
          <rect id="Rectángulo_40689" data-name="Rectángulo 40689" width="0.673" height="5.525" transform="translate(1308.637 2843.311)" fill="#ff9f00"/>
          <rect id="Rectángulo_40690" data-name="Rectángulo 40690" width="0.672" height="5.525" transform="translate(1301.853 2843.311)" fill="#ff9f00"/>
          <rect id="Rectángulo_40691" data-name="Rectángulo 40691" width="0.673" height="5.525" transform="translate(1295.501 2843.311)" fill="#ff9f00"/>
          <rect id="Rectángulo_40692" data-name="Rectángulo 40692" width="0.673" height="5.525" transform="translate(1289.828 2843.311)" fill="#ff9f00"/>
          <rect id="Rectángulo_40693" data-name="Rectángulo 40693" width="0.673" height="5.525" transform="translate(1324.421 2843.311)" fill="#ff9f00"/>
          <rect id="Rectángulo_40694" data-name="Rectángulo 40694" width="0.673" height="5.525" transform="translate(1325.853 2843.311)" fill="#ff9f00"/>
          <rect id="Rectángulo_40695" data-name="Rectángulo 40695" width="0.673" height="5.525" transform="translate(1327.236 2843.311)" fill="#ff9f00"/>
          <path id="Trazado_187984" data-name="Trazado 187984" d="M1328.949,2843.33v5.487a1.733,1.733,0,0,1-.253.019h-.42v-5.525h.42A1.767,1.767,0,0,1,1328.949,2843.33Z" fill="#ff9f00"/>
          <path id="Trazado_187985" data-name="Trazado 187985" d="M1329.883,2843.842v4.463a1.428,1.428,0,0,1-.672.45v-5.363A1.428,1.428,0,0,1,1329.883,2843.842Z" fill="#ff9f00"/>
        </g>
        <path id="Trazado_187986" data-name="Trazado 187986" d="M1330,2839.028v3.12a1.063,1.063,0,0,1-.246.671,1.419,1.419,0,0,1-.672.45,1.354,1.354,0,0,1-.2.052h0a.511.511,0,0,1-.056.01,1.615,1.615,0,0,1-.252.02h-59.179a1.666,1.666,0,0,1-.186-.011l-.07-.009a1.3,1.3,0,0,1-1.175-1.121c0-.021,0-.041,0-.062v-3.12c0-.02,0-.041,0-.062a1.353,1.353,0,0,1,1.431-1.14h59.179c.038,0,.076,0,.113,0l.048,0a.414.414,0,0,1,.053.006l.038,0a1.483,1.483,0,0,1,.262.062l.037.013.037.013.072.029.077.037c.023.012.046.023.068.036s.05.03.073.046l.056.038,0,0,.036.027a1.158,1.158,0,0,1,.1.089l.029.028.027.03c.018.02.037.04.053.061A1.065,1.065,0,0,1,1330,2839.028Z" fill="#ffc459"/>
        <path id="Trazado_187987" data-name="Trazado 187987" d="M1300.944,2843.351h-31.7l-.075,0c-.028,0-.055,0-.082-.008a1.24,1.24,0,0,1-1.12-1.131c0-.021,0-.041,0-.062v-3.12c0-.02,0-.041,0-.062a1.252,1.252,0,0,1,1.277-1.14h27.81l.039.136a9.676,9.676,0,0,0,3.8,5.349Z" fill="#fa0"/>
        <g id="Grupo_128332" data-name="Grupo 128332">
          <rect id="Rectángulo_40696" data-name="Rectángulo 40696" width="0.673" height="5.525" transform="translate(1322.13 2837.826)" fill="#ff9f00"/>
          <rect id="Rectángulo_40697" data-name="Rectángulo 40697" width="0.673" height="5.525" transform="translate(1319.853 2837.826)" fill="#ff9f00"/>
          <rect id="Rectángulo_40698" data-name="Rectángulo 40698" width="0.673" height="5.525" transform="translate(1317.123 2837.826)" fill="#ff9f00"/>
          <rect id="Rectángulo_40699" data-name="Rectángulo 40699" width="0.673" height="5.525" transform="translate(1312.938 2837.826)" fill="#ff9f00"/>
          <rect id="Rectángulo_40700" data-name="Rectángulo 40700" width="0.673" height="5.525" transform="translate(1308.513 2837.826)" fill="#ff9f00"/>
          <rect id="Rectángulo_40701" data-name="Rectángulo 40701" width="0.672" height="5.525" transform="translate(1301.728 2837.826)" fill="#ff9f00"/>
          <rect id="Rectángulo_40702" data-name="Rectángulo 40702" width="0.673" height="5.525" transform="translate(1295.376 2837.826)" fill="#ff9f00"/>
          <rect id="Rectángulo_40703" data-name="Rectángulo 40703" width="0.673" height="5.525" transform="translate(1289.704 2837.826)" fill="#ff9f00"/>
          <rect id="Rectángulo_40704" data-name="Rectángulo 40704" width="0.672" height="5.525" transform="translate(1324.297 2837.826)" fill="#ff9f00"/>
          <rect id="Rectángulo_40705" data-name="Rectángulo 40705" width="0.672" height="5.525" transform="translate(1325.729 2837.826)" fill="#ff9f00"/>
          <rect id="Rectángulo_40706" data-name="Rectángulo 40706" width="0.673" height="5.525" transform="translate(1327.111 2837.826)" fill="#ff9f00"/>
          <path id="Trazado_187988" data-name="Trazado 187988" d="M1328.824,2837.845v5.486a1.615,1.615,0,0,1-.252.02h-.421v-5.525h.421A1.615,1.615,0,0,1,1328.824,2837.845Z" fill="#ff9f00"/>
          <path id="Trazado_187989" data-name="Trazado 187989" d="M1329.758,2838.357v4.462a1.419,1.419,0,0,1-.672.45v-5.362A1.426,1.426,0,0,1,1329.758,2838.357Z" fill="#ff9f00"/>
        </g>
        <path id="Trazado_187990" data-name="Trazado 187990" d="M1333.061,2833.64v3.12a1.063,1.063,0,0,1-.245.671,1.425,1.425,0,0,1-.672.45,1.646,1.646,0,0,1-.262.062,1.745,1.745,0,0,1-.253.019H1272.45a1.64,1.64,0,0,1-.66-.136,1.225,1.225,0,0,1-.765-.951.478.478,0,0,1-.005-.053c0-.021,0-.042,0-.062v-3.12c0-.021,0-.042,0-.062a1.352,1.352,0,0,1,1.43-1.141h59.179a1.616,1.616,0,0,1,.253.02,1.5,1.5,0,0,1,.262.061,1.432,1.432,0,0,1,.672.45A1.064,1.064,0,0,1,1333.061,2833.64Z" fill="#ffc459"/>
        <path id="Trazado_187991" data-name="Trazado 187991" d="M1304,2837.962h-31.7a1.326,1.326,0,0,1-.589-.136,1.206,1.206,0,0,1-.683-.951.478.478,0,0,1-.005-.053c0-.021,0-.042,0-.062v-3.12c0-.021,0-.042,0-.062a1.252,1.252,0,0,1,1.277-1.141h27.811a9.7,9.7,0,0,0,3.7,5.389C1303.871,2837.872,1303.935,2837.917,1304,2837.962Z" fill="#fa0"/>
        <g id="Grupo_128333" data-name="Grupo 128333">
          <rect id="Rectángulo_40707" data-name="Rectángulo 40707" width="0.672" height="5.525" transform="translate(1325.188 2832.438)" fill="#ff9f00"/>
          <rect id="Rectángulo_40708" data-name="Rectángulo 40708" width="0.672" height="5.525" transform="translate(1322.911 2832.438)" fill="#ff9f00"/>
          <rect id="Rectángulo_40709" data-name="Rectángulo 40709" width="0.673" height="5.525" transform="translate(1320.181 2832.438)" fill="#ff9f00"/>
          <rect id="Rectángulo_40710" data-name="Rectángulo 40710" width="0.673" height="5.525" transform="translate(1315.996 2832.438)" fill="#ff9f00"/>
          <rect id="Rectángulo_40711" data-name="Rectángulo 40711" width="0.673" height="5.525" transform="translate(1311.57 2832.438)" fill="#ff9f00"/>
          <rect id="Rectángulo_40712" data-name="Rectángulo 40712" width="0.673" height="5.525" transform="translate(1304.786 2832.438)" fill="#ff9f00"/>
          <rect id="Rectángulo_40713" data-name="Rectángulo 40713" width="0.672" height="5.525" transform="translate(1298.434 2832.438)" fill="#ff9f00"/>
          <rect id="Rectángulo_40714" data-name="Rectángulo 40714" width="0.673" height="5.525" transform="translate(1292.762 2832.438)" fill="#ff9f00"/>
          <rect id="Rectángulo_40715" data-name="Rectángulo 40715" width="0.673" height="5.525" transform="translate(1327.355 2832.438)" fill="#ff9f00"/>
          <rect id="Rectángulo_40716" data-name="Rectángulo 40716" width="0.672" height="5.525" transform="translate(1328.787 2832.438)" fill="#ff9f00"/>
          <rect id="Rectángulo_40717" data-name="Rectángulo 40717" width="0.672" height="5.525" transform="translate(1330.169 2832.438)" fill="#ff9f00"/>
          <path id="Trazado_187992" data-name="Trazado 187992" d="M1331.882,2832.457v5.486a1.618,1.618,0,0,1-.253.019h-.42v-5.525h.42A1.616,1.616,0,0,1,1331.882,2832.457Z" fill="#ff9f00"/>
          <path id="Trazado_187993" data-name="Trazado 187993" d="M1332.816,2832.968v4.463a1.425,1.425,0,0,1-.672.45v-5.363A1.439,1.439,0,0,1,1332.816,2832.968Z" fill="#ff9f00"/>
        </g>
        <path id="Trazado_187994" data-name="Trazado 187994" d="M1337.9,2828.115v3.12a1.061,1.061,0,0,1-.245.671,1.423,1.423,0,0,1-.672.45,1.5,1.5,0,0,1-.262.062,1.615,1.615,0,0,1-.252.019h-59.18a1.352,1.352,0,0,1-1.43-1.14c0-.021,0-.041,0-.062v-3.12c0-.021,0-.041,0-.062a1.321,1.321,0,0,1,1.261-1.132,1.608,1.608,0,0,1,.169-.008h59.18a1.615,1.615,0,0,1,.252.019,1.548,1.548,0,0,1,.262.062,1.424,1.424,0,0,1,.672.45A1.06,1.06,0,0,1,1337.9,2828.115Z" fill="#ffc459"/>
        <path id="Trazado_187995" data-name="Trazado 187995" d="M1308.837,2832.437h-31.7a1.252,1.252,0,0,1-1.277-1.14c0-.021,0-.041,0-.062v-3.12c0-.021,0-.041,0-.062a1.242,1.242,0,0,1,1.126-1.132,1.269,1.269,0,0,1,.151-.008h27.811l0,.008A9.685,9.685,0,0,0,1308.837,2832.437Z" fill="#fa0"/>
        <g id="Grupo_128334" data-name="Grupo 128334">
          <rect id="Rectángulo_40718" data-name="Rectángulo 40718" width="0.673" height="5.525" transform="translate(1330.024 2826.913)" fill="#ff9f00"/>
          <rect id="Rectángulo_40719" data-name="Rectángulo 40719" width="0.673" height="5.525" transform="translate(1327.747 2826.913)" fill="#ff9f00"/>
          <rect id="Rectángulo_40720" data-name="Rectángulo 40720" width="0.673" height="5.525" transform="translate(1325.017 2826.913)" fill="#ff9f00"/>
          <rect id="Rectángulo_40721" data-name="Rectángulo 40721" width="0.672" height="5.525" transform="translate(1320.832 2826.913)" fill="#ff9f00"/>
          <rect id="Rectángulo_40722" data-name="Rectángulo 40722" width="0.672" height="5.525" transform="translate(1316.407 2826.913)" fill="#ff9f00"/>
          <rect id="Rectángulo_40723" data-name="Rectángulo 40723" width="0.673" height="5.525" transform="translate(1309.622 2826.913)" fill="#ff9f00"/>
          <rect id="Rectángulo_40724" data-name="Rectángulo 40724" width="0.673" height="5.525" transform="translate(1303.27 2826.913)" fill="#ff9f00"/>
          <rect id="Rectángulo_40725" data-name="Rectángulo 40725" width="0.672" height="5.525" transform="translate(1297.598 2826.913)" fill="#ff9f00"/>
          <rect id="Rectángulo_40726" data-name="Rectángulo 40726" width="0.673" height="5.525" transform="translate(1332.191 2826.913)" fill="#ff9f00"/>
          <rect id="Rectángulo_40727" data-name="Rectángulo 40727" width="0.673" height="5.525" transform="translate(1333.623 2826.913)" fill="#ff9f00"/>
          <rect id="Rectángulo_40728" data-name="Rectángulo 40728" width="0.673" height="5.525" transform="translate(1335.005 2826.913)" fill="#ff9f00"/>
          <path id="Trazado_187996" data-name="Trazado 187996" d="M1336.718,2826.932v5.486a1.615,1.615,0,0,1-.252.019h-.421v-5.524h.421A1.615,1.615,0,0,1,1336.718,2826.932Z" fill="#ff9f00"/>
          <path id="Trazado_187997" data-name="Trazado 187997" d="M1337.652,2827.444v4.462a1.423,1.423,0,0,1-.672.45v-5.362A1.424,1.424,0,0,1,1337.652,2827.444Z" fill="#ff9f00"/>
        </g>
        <path id="Trazado_187998" data-name="Trazado 187998" d="M1330.128,2822.6v3.12a1.063,1.063,0,0,1-.245.671,1.43,1.43,0,0,1-.672.45,1.552,1.552,0,0,1-.262.062l-.084.011-.066,0-.033,0h-59.249a1.351,1.351,0,0,1-1.43-1.14c0-.021,0-.042,0-.062v-3.12c0-.021,0-.041,0-.062a1.351,1.351,0,0,1,1.43-1.14H1328.7c.025,0,.051,0,.076,0a1.456,1.456,0,0,1,.177.017,1.507,1.507,0,0,1,.262.062c.042.014.084.029.124.046s.05.021.073.033l.008,0c.025.012.049.025.072.038l.012.007a.7.7,0,0,1,.064.039,1.362,1.362,0,0,1,.143.1l.04.036.007.006.025.023.005.005c.014.014.028.028.041.043s.039.043.058.066A1.062,1.062,0,0,1,1330.128,2822.6Z" fill="#ffc459"/>
        <path id="Trazado_187999" data-name="Trazado 187999" d="M1301.068,2826.921h-31.7a1.251,1.251,0,0,1-1.276-1.14c0-.021,0-.042,0-.062v-3.12c0-.021,0-.041,0-.062a1.251,1.251,0,0,1,1.276-1.14h27.811c.011.041.023.084.037.127a9.664,9.664,0,0,0,3.844,5.389Z" fill="#fa0"/>
        <g id="Grupo_128335" data-name="Grupo 128335">
          <rect id="Rectángulo_40729" data-name="Rectángulo 40729" width="0.673" height="5.525" transform="translate(1322.254 2821.397)" fill="#ff9f00"/>
          <rect id="Rectángulo_40730" data-name="Rectángulo 40730" width="0.673" height="5.525" transform="translate(1319.978 2821.397)" fill="#ff9f00"/>
          <rect id="Rectángulo_40731" data-name="Rectángulo 40731" width="0.673" height="5.525" transform="translate(1317.247 2821.397)" fill="#ff9f00"/>
          <rect id="Rectángulo_40732" data-name="Rectángulo 40732" width="0.672" height="5.525" transform="translate(1313.062 2821.397)" fill="#ff9f00"/>
          <rect id="Rectángulo_40733" data-name="Rectángulo 40733" width="0.673" height="5.525" transform="translate(1308.637 2821.397)" fill="#ff9f00"/>
          <rect id="Rectángulo_40734" data-name="Rectángulo 40734" width="0.672" height="5.525" transform="translate(1301.853 2821.397)" fill="#ff9f00"/>
          <rect id="Rectángulo_40735" data-name="Rectángulo 40735" width="0.673" height="5.525" transform="translate(1295.501 2821.397)" fill="#ff9f00"/>
          <rect id="Rectángulo_40736" data-name="Rectángulo 40736" width="0.673" height="5.525" transform="translate(1289.828 2821.397)" fill="#ff9f00"/>
          <rect id="Rectángulo_40737" data-name="Rectángulo 40737" width="0.673" height="5.525" transform="translate(1324.421 2821.397)" fill="#ff9f00"/>
          <rect id="Rectángulo_40738" data-name="Rectángulo 40738" width="0.673" height="5.525" transform="translate(1325.853 2821.397)" fill="#ff9f00"/>
          <rect id="Rectángulo_40739" data-name="Rectángulo 40739" width="0.673" height="5.525" transform="translate(1327.236 2821.397)" fill="#ff9f00"/>
          <path id="Trazado_188000" data-name="Trazado 188000" d="M1328.949,2821.416v5.486a1.637,1.637,0,0,1-.253.019h-.42V2821.4h.42A1.637,1.637,0,0,1,1328.949,2821.416Z" fill="#ff9f00"/>
          <path id="Trazado_188001" data-name="Trazado 188001" d="M1329.883,2821.928v4.462a1.43,1.43,0,0,1-.672.45v-5.362A1.422,1.422,0,0,1,1329.883,2821.928Z" fill="#ff9f00"/>
        </g>
        <path id="Trazado_188002" data-name="Trazado 188002" d="M1334.479,2817.2v3.12a1.058,1.058,0,0,1-.246.671,1.424,1.424,0,0,1-.672.45,1.482,1.482,0,0,1-.262.062,1.707,1.707,0,0,1-.252.019h-59.179a1.652,1.652,0,0,1-.64-.127,1.23,1.23,0,0,1-.786-.964.4.4,0,0,1,0-.05c0-.02,0-.041,0-.061v-3.12c0-.021,0-.041,0-.062a1.319,1.319,0,0,1,1.261-1.132,1.53,1.53,0,0,1,.169-.009h59.179a1.612,1.612,0,0,1,.252.02,1.548,1.548,0,0,1,.262.061,1.424,1.424,0,0,1,.672.451A1.056,1.056,0,0,1,1334.479,2817.2Z" fill="#ffc459"/>
        <path id="Trazado_188003" data-name="Trazado 188003" d="M1305.419,2821.524h-31.7a1.329,1.329,0,0,1-.57-.127,1.208,1.208,0,0,1-.7-.964.4.4,0,0,1,0-.05c0-.02,0-.041,0-.061v-3.12c0-.021,0-.041,0-.062a1.285,1.285,0,0,1,1.276-1.141h27.811l0,.009a9.69,9.69,0,0,0,3.709,5.389C1305.3,2821.44,1305.357,2821.482,1305.419,2821.524Z" fill="#fa0"/>
        <g id="Grupo_128336" data-name="Grupo 128336">
          <rect id="Rectángulo_40740" data-name="Rectángulo 40740" width="0.673" height="5.525" transform="translate(1326.605 2816)" fill="#ff9f00"/>
          <rect id="Rectángulo_40741" data-name="Rectángulo 40741" width="0.673" height="5.525" transform="translate(1324.328 2816)" fill="#ff9f00"/>
          <rect id="Rectángulo_40742" data-name="Rectángulo 40742" width="0.673" height="5.525" transform="translate(1321.598 2816)" fill="#ff9f00"/>
          <rect id="Rectángulo_40743" data-name="Rectángulo 40743" width="0.672" height="5.525" transform="translate(1317.413 2816)" fill="#ff9f00"/>
          <rect id="Rectángulo_40744" data-name="Rectángulo 40744" width="0.672" height="5.525" transform="translate(1312.988 2816)" fill="#ff9f00"/>
          <rect id="Rectángulo_40745" data-name="Rectángulo 40745" width="0.672" height="5.525" transform="translate(1306.204 2816)" fill="#ff9f00"/>
          <rect id="Rectángulo_40746" data-name="Rectángulo 40746" width="0.672" height="5.525" transform="translate(1299.851 2816)" fill="#ff9f00"/>
          <rect id="Rectángulo_40747" data-name="Rectángulo 40747" width="0.673" height="5.525" transform="translate(1294.179 2816)" fill="#ff9f00"/>
          <rect id="Rectángulo_40748" data-name="Rectángulo 40748" width="0.673" height="5.525" transform="translate(1328.772 2816)" fill="#ff9f00"/>
          <rect id="Rectángulo_40749" data-name="Rectángulo 40749" width="0.673" height="5.525" transform="translate(1330.204 2816)" fill="#ff9f00"/>
          <rect id="Rectángulo_40750" data-name="Rectángulo 40750" width="0.673" height="5.525" transform="translate(1331.587 2816)" fill="#ff9f00"/>
          <path id="Trazado_188004" data-name="Trazado 188004" d="M1333.3,2816.019v5.486a1.707,1.707,0,0,1-.252.019h-.42V2816h.42A1.612,1.612,0,0,1,1333.3,2816.019Z" fill="#ff9f00"/>
          <path id="Trazado_188005" data-name="Trazado 188005" d="M1334.233,2816.53v4.463a1.424,1.424,0,0,1-.672.45v-5.363A1.422,1.422,0,0,1,1334.233,2816.53Z" fill="#ff9f00"/>
        </g>
        <path id="Trazado_188006" data-name="Trazado 188006" d="M1336.331,2811.686v3.12a1.064,1.064,0,0,1-.245.671,1.436,1.436,0,0,1-.672.45,1.6,1.6,0,0,1-.262.062c-.028,0-.056.008-.084.01l-.046,0-.047,0-.076,0H1275.72a1.351,1.351,0,0,1-1.43-1.141c0-.02,0-.041,0-.061v-3.12c0-.021,0-.042,0-.062a1.351,1.351,0,0,1,1.43-1.141H1334.9a1.637,1.637,0,0,1,.253.02,1.523,1.523,0,0,1,.262.061,1.443,1.443,0,0,1,.672.45A1.065,1.065,0,0,1,1336.331,2811.686Z" fill="#ffc459"/>
        <path id="Trazado_188007" data-name="Trazado 188007" d="M1307.271,2816.008h-31.7a1.252,1.252,0,0,1-1.276-1.141c0-.02,0-.041,0-.061v-3.12c0-.021,0-.042,0-.062a1.252,1.252,0,0,1,1.276-1.141h27.811a9.689,9.689,0,0,0,3.881,5.516Z" fill="#fa0"/>
        <g id="Grupo_128337" data-name="Grupo 128337">
          <rect id="Rectángulo_40751" data-name="Rectángulo 40751" width="0.673" height="5.525" transform="translate(1328.457 2810.483)" fill="#ff9f00"/>
          <rect id="Rectángulo_40752" data-name="Rectángulo 40752" width="0.673" height="5.525" transform="translate(1326.18 2810.483)" fill="#ff9f00"/>
          <rect id="Rectángulo_40753" data-name="Rectángulo 40753" width="0.673" height="5.525" transform="translate(1323.45 2810.483)" fill="#ff9f00"/>
          <rect id="Rectángulo_40754" data-name="Rectángulo 40754" width="0.673" height="5.525" transform="translate(1319.265 2810.483)" fill="#ff9f00"/>
          <rect id="Rectángulo_40755" data-name="Rectángulo 40755" width="0.673" height="5.525" transform="translate(1314.84 2810.483)" fill="#ff9f00"/>
          <rect id="Rectángulo_40756" data-name="Rectángulo 40756" width="0.672" height="5.525" transform="translate(1308.056 2810.483)" fill="#ff9f00"/>
          <rect id="Rectángulo_40757" data-name="Rectángulo 40757" width="0.673" height="5.525" transform="translate(1301.703 2810.483)" fill="#ff9f00"/>
          <rect id="Rectángulo_40758" data-name="Rectángulo 40758" width="0.673" height="5.525" transform="translate(1296.031 2810.483)" fill="#ff9f00"/>
          <rect id="Rectángulo_40759" data-name="Rectángulo 40759" width="0.673" height="5.525" transform="translate(1330.624 2810.483)" fill="#ff9f00"/>
          <rect id="Rectángulo_40760" data-name="Rectángulo 40760" width="0.672" height="5.525" transform="translate(1332.056 2810.483)" fill="#ff9f00"/>
          <rect id="Rectángulo_40761" data-name="Rectángulo 40761" width="0.673" height="5.525" transform="translate(1333.439 2810.483)" fill="#ff9f00"/>
          <path id="Trazado_188008" data-name="Trazado 188008" d="M1335.152,2810.5v5.487a1.767,1.767,0,0,1-.253.019h-.42v-5.525h.42A1.767,1.767,0,0,1,1335.152,2810.5Z" fill="#ff9f00"/>
          <path id="Trazado_188009" data-name="Trazado 188009" d="M1336.086,2811.014v4.463a1.436,1.436,0,0,1-.672.45v-5.363A1.436,1.436,0,0,1,1336.086,2811.014Z" fill="#ff9f00"/>
        </g>
        <g id="Grupo_128340" data-name="Grupo 128340">
          <circle id="Elipse_5065" data-name="Elipse 5065" cx="28.126" cy="28.126" r="28.126" transform="translate(1225.74 2848.218) rotate(-53.35)" fill="#ef7c00"/>
          <circle id="Elipse_5066" data-name="Elipse 5066" cx="28.126" cy="28.126" r="28.126" transform="translate(1222.865 2842.441) rotate(-45)" fill="#ffc459"/>
          <g id="Grupo_128338" data-name="Grupo 128338">
            <path id="Trazado_188010" data-name="Trazado 188010" d="M1262.64,2868.4a25.625,25.625,0,1,1,18.12-7.5A25.459,25.459,0,0,1,1262.64,2868.4Zm0-49.722a24.1,24.1,0,1,0,24.1,24.1A24.124,24.124,0,0,0,1262.64,2818.677Z" fill="#ff9f00"/>
          </g>
          <g id="Grupo_128339" data-name="Grupo 128339">
            <path id="Trazado_188011" data-name="Trazado 188011" d="M1259.52,2851.533a2.91,2.91,0,0,0,.892.985,3.666,3.666,0,0,0,1.349.561,5.493,5.493,0,0,0,1.783.048,6.559,6.559,0,0,0,1.684-.43,3.835,3.835,0,0,0,1.4-.967,3.95,3.95,0,0,0,.874-1.625,6.107,6.107,0,0,0,.115-2.385l6.141-.729a9.914,9.914,0,0,1-.283,4.157,8.138,8.138,0,0,1-1.706,3.054,9.09,9.09,0,0,1-2.719,2.054,14.311,14.311,0,0,1-3.319,1.174l.464,3.908-3.378.4-.466-3.927a12.812,12.812,0,0,1-3.568-.378,8.588,8.588,0,0,1-2.859-1.3,7.032,7.032,0,0,1-1.993-2.185,8.5,8.5,0,0,1-.7-6.442,7.607,7.607,0,0,1,1.589-2.68,12.88,12.88,0,0,1,2.679-2.209q1.593-1.009,3.562-2.024a19.708,19.708,0,0,0,2.027-1.172,5.833,5.833,0,0,0,1.269-1.111,2.908,2.908,0,0,0,.6-1.182,3.939,3.939,0,0,0,.055-1.348,4.242,4.242,0,0,0-.374-1.336,2.894,2.894,0,0,0-.788-1.018,3.132,3.132,0,0,0-1.224-.595,4.6,4.6,0,0,0-1.678-.071,3.618,3.618,0,0,0-2.676,1.508,5.212,5.212,0,0,0-.632,3.668l-6.14.728a10.71,10.71,0,0,1,.14-3.629,8.038,8.038,0,0,1,3.582-5.138,10.634,10.634,0,0,1,3.2-1.361l-.508-4.282,3.4-.4.5,4.224a11.85,11.85,0,0,1,3.55.409,8.9,8.9,0,0,1,2.843,1.354,7.13,7.13,0,0,1,1.986,2.206,8.478,8.478,0,0,1,.684,6.4,7.505,7.505,0,0,1-1.59,2.67,12.737,12.737,0,0,1-2.692,2.191,40.4,40.4,0,0,1-3.6,1.979,15.393,15.393,0,0,0-1.949,1.092,5.826,5.826,0,0,0-1.258,1.11,3.082,3.082,0,0,0-.629,1.235,4.232,4.232,0,0,0-.061,1.488A3.542,3.542,0,0,0,1259.52,2851.533Z" fill="#ff9f00"/>
          </g>
        </g>
        <g id="Grupo_128346" data-name="Grupo 128346">
          <g id="Grupo_128345" data-name="Grupo 128345">
            <g id="Grupo_128344" data-name="Grupo 128344">
              <path id="Trazado_188012" data-name="Trazado 188012" d="M1309.412,2845.737a1.545,1.545,0,0,0-.275,1.651l0,.008c.4,1.1,1.714,2.329,3.242,3.556.195.158.369.3.52.434.04.035.08.069.117.1l.09.081c1.425,1.313.889,1.614,3.449,4.28,2.919,3.037,4.929,3.091,5.5,2.815.484-.236-.5-1.847-1.588-3.657-.052-.088-.1-.176-.158-.264-.145-.241-.289-.485-.433-.727-1.276-2.179-.949-3.2-.646-6.444.246-2.636,4.1-14.722,4.1-14.722l-5.594-.964s-1.684,9.625-3.54,11.107c-.993.79-2.1.8-3.058,1.386-.067.04-.133.082-.2.125A7.348,7.348,0,0,0,1309.412,2845.737Z" fill="#ffae73"/>
              <path id="Trazado_188013" data-name="Trazado 188013" d="M1309.412,2845.737a1.545,1.545,0,0,0-.275,1.651l0,.008a11.879,11.879,0,0,0,3.248,3.545c.192.16.363.307.514.445.04.035.08.069.117.1l.09.081c1.425,1.313.889,1.614,3.449,4.28,2.919,3.037,4.929,3.091,5.5,2.815.484-.236-.5-1.847-1.588-3.657a12.458,12.458,0,0,1-5.2-3.834c-1.757-2.243-2.93-5.125-4.127-6.794-.067.04-.133.082-.2.125A7.348,7.348,0,0,0,1309.412,2845.737Z" fill="#1e3865"/>
              <path id="Trazado_188014" data-name="Trazado 188014" d="M1354.518,2842.243c.346,1.727,2.807,1.439,5.557.767s2.1.127,6.01-.306,5.1-1.893,5.218-2.475c.107-.516-1.827-.7-3.9-.937-.261-.03-.523-.062-.785-.094-2.342-.294-4.057-1.8-6.184-3.046-2.015-1.176-5.022-5.965-5.022-5.965l-5.367.425s2.817,4.278,3.906,6.138a6.481,6.481,0,0,1,.527,3.657A6.89,6.89,0,0,0,1354.518,2842.243Z" fill="#ffae73"/>
              <path id="Trazado_188015" data-name="Trazado 188015" d="M1360.075,2843.01c2.75-.672,2.1.127,6.01-.306s5.1-1.893,5.218-2.475c.107-.516-1.827-.7-3.9-.937l-.019.04a11.033,11.033,0,0,1-5.605,1.742c-2.655.064-5.468-.7-7.3-.667a6.89,6.89,0,0,0,.041,1.836C1354.864,2843.97,1357.325,2843.682,1360.075,2843.01Z" fill="#1e3865"/>
              <path id="Trazado_188016" data-name="Trazado 188016" d="M1333.95,2807.924l-5.018,13.5-6.55,17.629a10.63,10.63,0,0,1-3.48-.318,15.09,15.09,0,0,1-3.365-1.638s1.819-18.928,5.212-29.794a19.346,19.346,0,0,1,2.919-6.314C1328.928,2794.773,1333.95,2807.924,1333.95,2807.924Z" fill="#909599"/>
              <path id="Trazado_188017" data-name="Trazado 188017" d="M1328.849,2786.483c-3.287-1.06-12.662.3-22.08,2.145l-1.972-3.253-20.341-1.588s-6.713,14.885-3.038,24.37a3.439,3.439,0,0,0,3.443,2.317h.3s12.107-.007,16.038-.007c10.116,0,21.409-6.953,22.87-7.246,2.392-.478,3.348,4.3,5.739,9.326s22.477,22.238,22.477,22.238a17.688,17.688,0,0,0,4.363-.447,4.3,4.3,0,0,0,1.873-1.183S1336.261,2788.874,1328.849,2786.483Z" fill="#c0c6cc"/>
              <path id="Trazado_188018" data-name="Trazado 188018" d="M1301.751,2724.783c-2.808-.881-6.742-.356-7.392-.326-7.769.356-10.817,8.843-10,15.593.756,6.23-2.464,7.774-6.349,12.46-7.788,9.4-3.464,17.889,2.167,20.315,3.378,1.455,8.329-1.511,8.329-1.511.085.039,15.541-9,21.956-14.219C1320.874,2753.638,1308.907,2727.029,1301.751,2724.783Z" fill="#102538"/>
              <path id="Trazado_188019" data-name="Trazado 188019" d="M1283.066,2785.994c.419,1.156,11.417,2.187,17.674,1.771,1.988-.129,3.5-.409,4.039-.872,2.232-1.939,2.01,2.325,2.316-18.077.148-9.951-8.445-18.814-8.445-18.814s-.686,4.251-9.207-.809c-.3-.177-3.659,4.792-6.889,10.911C1279,2766.864,1282.638,2784.806,1283.066,2785.994Z" fill="#fff59d"/>
              <path id="Trazado_188020" data-name="Trazado 188020" d="M1328.932,2821.425l-6.55,17.629a10.63,10.63,0,0,1-3.48-.318,15.09,15.09,0,0,1-3.365-1.638s1.819-18.928,5.212-29.794Z" fill="#c0c6cc"/>
              <path id="Trazado_188021" data-name="Trazado 188021" d="M1298.651,2750s7.78,1.909,9.8,5.262c2.457,4.083,14.712,22.5,14.712,22.5s-12.081,4.273-14.14,2.214-7.165-19.1-7.165-19.1Z" fill="#fff59d"/>
              <path id="Trazado_188022" data-name="Trazado 188022" d="M1289.424,2749.206a21.113,21.113,0,0,0,5.463,3.77c.91.332,2.422.7,2.422.7s1.213-1.228,1.231-1.245c1.079-1.006-.005-1.3.157-3.2.009-.09.016-.183.027-.275a34.189,34.189,0,0,1,.873-4.615l0-.007-7.528-2.152.242.416C1291.849,2746.5,1290.446,2749.092,1289.424,2749.206Z" fill="#ffae73"/>
              <path id="Trazado_188023" data-name="Trazado 188023" d="M1292.071,2742.177a8.411,8.411,0,0,0,6.782,5.757,35.756,35.756,0,0,1,.744-3.6l0-.007Z" fill="#f9924f"/>
              <path id="Trazado_188024" data-name="Trazado 188024" d="M1300.851,2746.6s-10.147-.675-9.63-6.988-.443-10.652,6.057-10.488,7.561,2.676,7.9,4.825S1303.5,2746.609,1300.851,2746.6Z" fill="#ffae73"/>
              <path id="Trazado_188025" data-name="Trazado 188025" d="M1302.675,2729.008s-2.521,7.4-8.507,8.258c-4.367.628-6.1-.553-6.1-.553a17.127,17.127,0,0,0,3.759-5.879,3.082,3.082,0,0,1,2.416-1.985C1297.35,2728.369,1301.363,2726.311,1302.675,2729.008Z" fill="#102538"/>
              <path id="Trazado_188026" data-name="Trazado 188026" d="M1300.524,2730.318a6.7,6.7,0,0,1,3.076,3.437,12.913,12.913,0,0,1,.764,6.449s2.918-6.75.8-9.792C1302.929,2727.185,1300.524,2730.318,1300.524,2730.318Z" fill="#102538"/>
              <path id="Trazado_188027" data-name="Trazado 188027" d="M1298.7,2749.226s-.62,3.746-1.388,4.446a5.447,5.447,0,0,0,2.869-3.235S1299.5,2749.311,1298.7,2749.226Z" fill="#ccc47d"/>
              <path id="Trazado_188028" data-name="Trazado 188028" d="M1305.937,2761.967s5.666,6.8,4.968,9.26-4.621,2.462-4.621,2.462.732-5.245,0-7.975S1305.091,2761.806,1305.937,2761.967Z" fill="#8aaff7"/>
              <path id="Trazado_188029" data-name="Trazado 188029" d="M1293.215,2781.555s-8.163-4.976-8.056-7.866,0-8.194-.769-7.451-3.186,6.7-2.953,8.388,8.475,13.465,9.5,13.437C1298.209,2787.859,1293.215,2781.555,1293.215,2781.555Z" fill="#ccc47d"/>
              <path id="Trazado_188030" data-name="Trazado 188030" d="M1291.007,2747.47s4.457,5.606,6.3,6.2a12.678,12.678,0,0,1-8.937-4.373S1289.608,2747.488,1291.007,2747.47Z" fill="#ccc47d"/>
              <g id="Grupo_128343" data-name="Grupo 128343">
                <circle id="Elipse_5067" data-name="Elipse 5067" cx="20.687" cy="20.687" r="20.687" transform="translate(1287.196 2759.388) rotate(-11.599)" fill="#ef7c00"/>
                <circle id="Elipse_5068" data-name="Elipse 5068" cx="20.687" cy="20.687" r="20.687" transform="matrix(0.978, -0.21, 0.21, 0.978, 1288.857, 2759.608)" fill="#ffc459"/>
                <g id="Grupo_128341" data-name="Grupo 128341">
                  <path id="Trazado_188031" data-name="Trazado 188031" d="M1300.1,2789.065a18.849,18.849,0,1,1,13.328,5.52A18.724,18.724,0,0,1,1300.1,2789.065Zm-4.4-13.328a17.723,17.723,0,1,0,17.724-17.723A17.744,17.744,0,0,0,1295.7,2775.737Z" fill="#ff9f00"/>
                </g>
                <g id="Grupo_128342" data-name="Grupo 128342">
                  <path id="Trazado_188032" data-name="Trazado 188032" d="M1311.136,2782.18a2.127,2.127,0,0,0,.656.724,2.671,2.671,0,0,0,.992.413,4.006,4.006,0,0,0,1.311.035,4.768,4.768,0,0,0,1.239-.316,2.828,2.828,0,0,0,1.033-.711,2.909,2.909,0,0,0,.642-1.2,4.476,4.476,0,0,0,.085-1.755l4.517-.536a7.31,7.31,0,0,1-.208,3.058,5.986,5.986,0,0,1-1.255,2.246,6.689,6.689,0,0,1-2,1.511,10.584,10.584,0,0,1-2.441.864l.341,2.874-2.485.295-.342-2.889a9.427,9.427,0,0,1-2.624-.277,6.337,6.337,0,0,1-2.1-.958,5.184,5.184,0,0,1-1.467-1.608,6.256,6.256,0,0,1-.514-4.738,5.612,5.612,0,0,1,1.168-1.971,9.5,9.5,0,0,1,1.971-1.625q1.172-.743,2.62-1.488a14.6,14.6,0,0,0,1.491-.862,4.321,4.321,0,0,0,.933-.817,2.143,2.143,0,0,0,.444-.87,2.915,2.915,0,0,0,.041-.991,3.156,3.156,0,0,0-.276-.983,2.122,2.122,0,0,0-.58-.749,2.276,2.276,0,0,0-.9-.437,3.381,3.381,0,0,0-1.234-.053,2.661,2.661,0,0,0-1.968,1.11,3.83,3.83,0,0,0-.465,2.7l-4.516.536a7.875,7.875,0,0,1,.1-2.669,5.921,5.921,0,0,1,2.634-3.78,7.827,7.827,0,0,1,2.354-1l-.374-3.15,2.5-.3.369,3.107a8.712,8.712,0,0,1,2.611.3,6.57,6.57,0,0,1,2.091,1,5.249,5.249,0,0,1,1.461,1.623,6.233,6.233,0,0,1,.5,4.71,5.52,5.52,0,0,1-1.169,1.964,9.373,9.373,0,0,1-1.98,1.612,29.49,29.49,0,0,1-2.649,1.455,11.548,11.548,0,0,0-1.434.8,4.3,4.3,0,0,0-.925.817,2.276,2.276,0,0,0-.463.908,3.137,3.137,0,0,0-.044,1.095A2.591,2.591,0,0,0,1311.136,2782.18Z" fill="#ff9f00"/>
                </g>
              </g>
              <path id="Trazado_188033" data-name="Trazado 188033" d="M1335.55,2779.021s.231-3.4-1.053-3.265c-1.576.164-3.251,3.9-2.482,4.625S1335.534,2779.859,1335.55,2779.021Z" fill="#ffae73"/>
              <path id="Trazado_188034" data-name="Trazado 188034" d="M1291.559,2786.886l1.917-1.148a4.96,4.96,0,0,1,1.888-.375c.7.1,2.363-.194,2.416.078s-1.6,1.485-1.6,1.485c.993,1.523,4.588,1.8,4.862,2.376.331.7-1.293,1.348-2.174,1.726s-3.135.723-4.436-.265c-.951-.723-2.515-1.674-2.515-1.674Z" fill="#ffae73"/>
              <path id="Trazado_188035" data-name="Trazado 188035" d="M1289.442,2749.2s-8.05.527-10.063,3.666-8.477,21.027-7.431,26.5,20.193,12.045,20.193,12.045a3.593,3.593,0,0,0,.847-2.7,5.6,5.6,0,0,0-.613-2.314s-11.747-9.817-10.938-11.771C1284.423,2767.405,1289.442,2749.2,1289.442,2749.2Z" fill="#fff59d"/>
            </g>
          </g>
        </g>
      </g>
      <path id="Trazado_188036" data-name="Trazado 188036" d="M1552.638,2870.621l-390.236.318c-.272,0-.494.638-.494,1.417v.863c0,.78.223,1.416.495,1.416l390.236-.317c.272,0,.494-.638.494-1.416v-.865C1553.132,2871.257,1552.91,2870.621,1552.638,2870.621Z" transform="translate(0 6.693)" fill="#99935e"/>
      <g id="Grupo_128348" data-name="Grupo 128348" transform="translate(-21.384 6.804)">
        <path id="Trazado_188037" data-name="Trazado 188037" d="M1510.61,2834.466s-3.549,5-6.8,5.066-8.2-2.316-8.2-2.316-2.988-6.659-.962-9.264a4.352,4.352,0,0,1,4.158.683,6.38,6.38,0,0,1,1.1,1.054,3.486,3.486,0,0,0,1.708,1.158c2.322.706,5.078-.955,6.109.648a10.889,10.889,0,0,0,1.8,2.126A8.235,8.235,0,0,0,1510.61,2834.466Z" fill="#ffebd9"/>
        <path id="Trazado_188038" data-name="Trazado 188038" d="M1464.336,2870.51s12.546-30.4,35.128-30.978c0,0,20.845,2.316,22,30.978Z" fill="#ffebd9"/>
        <path id="Trazado_188039" data-name="Trazado 188039" d="M1493.277,2840.461s9.052,2.012,11.845.83c0,0,.422-3.785-3.39-3.254a8,8,0,0,1-5.308-1.4C1495.009,2835.917,1492.9,2838.877,1493.277,2840.461Z" fill="#25468f"/>
        <path id="Trazado_188040" data-name="Trazado 188040" d="M1501.155,2834.755c-.579.435-2.357-6.12-2.357-6.12a6.38,6.38,0,0,1,1.1,1.054,3.486,3.486,0,0,0,1.708,1.158C1501.612,2831.038,1501.716,2834.333,1501.155,2834.755Z" fill="#eabf9b"/>
        <path id="Trazado_188041" data-name="Trazado 188041" d="M1509.51,2833.621c-.127.075-4.314,2.582-4.881,2.582s3.086-4.708,3.086-4.708A10.889,10.889,0,0,0,1509.51,2833.621Z" fill="#eabf9b"/>
        <path id="Trazado_188042" data-name="Trazado 188042" d="M1476.592,2862.018c-.232-.2,8.879-13.414,11.388-13.511s8.146,2.9,12.228,3.282,8.038-.773,8.81,1.64,2.9,10.966,1.592,12.335S1481.6,2866.3,1476.592,2862.018Z" fill="#fddbba"/>
      </g>
    </g>
  </g>
</svg>
