<svg xmlns="http://www.w3.org/2000/svg" width="84.051" height="89.477" viewBox="0 0 84.051 89.477">
  <g id="Grupo_128645" data-name="Grupo 128645" transform="translate(-6729.451 -2570.13)">
    <path id="Trazado_188352" data-name="Trazado 188352" d="M6778.276,2584.7a1.445,1.445,0,0,1,1.964.743,15.891,15.891,0,0,1-18.884,23,1.387,1.387,0,0,0-.9-.188c0,1.081.02,2.181-.009,3.28-.013.529.346.363.59.364,1.715.011,3.43.006,5.145.006q5.1,0,10.2,0a.821.821,0,0,0,.886-.528,5.216,5.216,0,0,1,2.83-2.156,1.083,1.083,0,0,1,1.3.653,1.162,1.162,0,0,1-.175,1.45,12.965,12.965,0,0,1-1.072.922c1.558.841,1.724,2.266,1.664,3.823-.055,1.454-.013,2.912-.01,4.368a3.351,3.351,0,0,1-.343,1.688c-.074.134-.224.272-.1.467.646,1.029.379,2.195.455,3.321.644-.361,16.625-16.253,18.313-18.214-1.235,0-2.378,0-3.522,0-1.552-.007-2.267-.731-2.274-2.306q-.009-1.616,0-3.233c.01-1.549.729-2.26,2.331-2.263q6.669-.014,13.34,0c.523,0,1.049-.026,1.57.014a1.907,1.907,0,0,1,1.917,2.052q.021,7.514,0,15.028a1.923,1.923,0,0,1-2.091,2.054q-1.788.029-3.575,0a1.963,1.963,0,0,1-2.123-2.124c-.018-.582,0-1.165,0-1.747v-1.756c-.384.04-.515.331-.7.521q-9.9,9.907-19.789,19.833a4.685,4.685,0,0,1-3.035,1.7c-.407.024-.366.272-.366.535,0,.816-.051,1.635.01,2.446.219,2.832-1.711,3.875-3.789,3.849-6.189-.077-12.381.008-18.572-.047-2.165-.019-4.354.333-6.5-.279-.279-.08-.4.182-.559.339q-4.844,4.846-9.687,9.692a1.028,1.028,0,0,0-.344.827c.054,3.538-1.7,5.787-5.145,6.653-.042.011-.071.079-.106.12h-2.093c-3.981-.229-7.116-5.369-4.509-9.639a6.078,6.078,0,0,1,5.029-3.166,2.543,2.543,0,0,0,1.839-.818c1.062-1.111,2.17-2.177,3.337-3.368a7.125,7.125,0,0,0-1.472-.062c-1.918-.007-3.837.008-5.755-.006-2.61-.019-3.934-1.341-3.945-3.928a40.559,40.559,0,0,1,.033-4.54,21.719,21.719,0,0,0,0-4.712,21.6,21.6,0,0,1,0-4.536,21.827,21.827,0,0,0,0-4.714,21.868,21.868,0,0,1,0-4.536,22.086,22.086,0,0,0,0-4.715,23.114,23.114,0,0,1-.006-4.624,21.054,21.054,0,0,0,.013-4.536,37.725,37.725,0,0,1-.041-4.8,3.451,3.451,0,0,1,3.746-3.772c2.818-.033,5.639-.006,8.458-.009,1.18,0,1.312-.1,1.373-1.365a21.628,21.628,0,0,1,2.026-8.083,23.42,23.42,0,0,1,12.03-11.859,19.86,19.86,0,0,1,6.795-1.689h3.837a.226.226,0,0,0,.349,0h.523c1.349.382,2.753.489,4.11.86a23.361,23.361,0,0,1,16.676,19.108,22.985,22.985,0,0,1,.223,4.09c-.048,1.022-.575,1.6-1.367,1.564s-1.24-.661-1.242-1.682c-.02-8.794-3.878-15.353-11.719-19.265-12.227-6.1-27.192,1.833-29.195,15.331-.132.891-.169,1.794-.278,2.69-.056.465.109.609.568.6,1.162-.027,2.326-.039,3.486,0,.538.02.69-.148.706-.677a15.33,15.33,0,0,1,2.177-7.445,15.877,15.877,0,0,1,22.363-5.225,1.468,1.468,0,0,1,.725,1.98,1.2,1.2,0,0,1-1.764.656c-.745-.316-1.4-.795-2.134-1.144a12,12,0,0,0-3.718-1.082,12.621,12.621,0,0,0-10.714,3.437,12.423,12.423,0,0,0-3.883,7.055,12.573,12.573,0,0,0,2.531,10.424,12.837,12.837,0,0,0,11.225,5.012,4.1,4.1,0,0,0,.859-.127,12.912,12.912,0,0,0,11.061-11.155,12.775,12.775,0,0,0-1.505-8.087C6777.245,2585.972,6777.413,2585.137,6778.276,2584.7Z"/>
    <path id="Trazado_188353" data-name="Trazado 188353" d="M6817.858,2827.627a2.058,2.058,0,0,1-.851-1.855c.041-2.3.008-4.6.017-6.9.006-1.552.694-2.242,2.224-2.247,1.831-.006,3.661-.01,5.491,0a1.835,1.835,0,0,1,2.057,2.038c.018,1.892.026,3.785-.008,5.677-.011.546.146.706.681.676a19.991,19.991,0,0,1,2.352,0c.537.033.679-.126.674-.668-.027-3.086-.014-6.172-.013-9.258,0-1.994.542-2.536,2.533-2.538q2.4,0,4.794,0c1.887,0,2.456.562,2.458,2.429,0,3.086.016,6.172-.013,9.258-.006.592.119.832.753.779a12.928,12.928,0,0,1,2.09,0c.658.052.884-.122.874-.837-.043-3.085-.021-6.172-.017-9.258,0-1.779.579-2.363,2.335-2.367s3.487-.009,5.229,0c1.561.009,2.21.662,2.214,2.246.008,3.115.032,6.231-.019,9.345-.012.763.221.936.916.871a10.5,10.5,0,0,1,2,0c.688.07.8-.2.794-.827-.024-6.754-.015-13.508-.015-20.263,0-.815-.013-1.631.007-2.445a1.794,1.794,0,0,1,1.89-1.94q2.962-.052,5.928,0a1.811,1.811,0,0,1,1.94,1.907c.03,3.2.012,6.405.011,9.607a1.425,1.425,0,0,1-1.118,1.469c-1.081.133-1.341-.042-1.689-1.133-.059-2.648-.009-5.3-.027-7.943-.007-1.013-.081-1.088-1.1-1.09-.7,0-1.393,0-2.089.024-.6.018-.834.3-.82.867.006.232,0,.466,0,.7v19.2c0,.087,0,.174,0,.262.009,1.246.009,1.246,1.244,1.334.607-.028,1.217-.033,1.823-.007.667.028.933-.253.927-.919-.015-1.827-.007-3.654,0-5.48a9.3,9.3,0,0,1,.028-1.043c.124-1.054.655-1.447,1.711-1.272a1.458,1.458,0,0,1,1.124,1.635c-.012,2.212.015,4.426-.017,6.638-.01.565.131.77.71.714.972-.094,2.282.413,2.83-.2.481-.537.143-1.825.143-2.78q0-15.2,0-30.4c0-1.822.584-2.41,2.394-2.412,1.743,0,3.486-.01,5.23,0a1.9,1.9,0,0,1,2.147,2.147q.007,17.3.015,34.591a1.881,1.881,0,0,1-.875,1.662Z" transform="translate(-67.147 -168.021)"/>
    <path id="Trazado_188354" data-name="Trazado 188354" d="M6894.333,2570.13c-.116.231-.233.177-.349,0Z" transform="translate(-126.18)" fill="#4b4b4b"/>
    <path id="Trazado_188355" data-name="Trazado 188355" d="M6885.193,2618.11c-.743.787-.786,1.159-.244,2.157a13.285,13.285,0,0,1-8.761,19.522,8.943,8.943,0,0,1-.941.114,6.721,6.721,0,0,1-2.665-1.527,13.709,13.709,0,0,1-3.444-3.951c-.146-.266-.489-.556-.071-.886a20.692,20.692,0,0,0,2.753.763c.381.05.472.385.506.722a3.371,3.371,0,0,0,.121.862,1,1,0,0,0,1.91.04,1.334,1.334,0,0,0,.116-.6c-.032-.771.379-1.063,1.1-1.166a3.6,3.6,0,0,0,3.011-1.971c1.189-2.661.365-6.482-3.62-6.4-1.016.022-2.032.037-3.048-.01a2.1,2.1,0,0,1-1.965-2.935,1.592,1.592,0,0,1,1.549-1.185c1.276-.038,2.554-.03,3.831,0a1.594,1.594,0,0,1,1.5,1.128c.1.242.14.5.232.75a.962.962,0,0,0,1.092.671c.55-.059.778-.43.845-.95a3.541,3.541,0,0,0-3.07-3.731c-1.274-.167-1.28-.167-1.463-1.471-.088-.628-.4-1.052-1.049-1.077-.681-.026-.96.442-1.046,1.053-.037.259-.021.523-.053.783-.046.357-.222.653-.592.637a9.111,9.111,0,0,0-2.6.609c-.391-.165-.2-.454-.089-.653a13.544,13.544,0,0,1,5.632-5.546c.177-.095.4-.066.581-.17a12.183,12.183,0,0,1,5.468,2.031c.936.6,1.349.535,2.118-.255Q6884.01,2616.792,6885.193,2618.11Z" transform="translate(-106.918 -33.411)" fill="#fee077"/>
    <path id="Trazado_188356" data-name="Trazado 188356" d="M7011.958,2858.739c-1.161.11-1.491.466-1.495,1.655-.006,2.17-.024,4.34.012,6.51.011.616-.1.9-.788.828-.714-.073-1.44-.034-2.162-.044a1.486,1.486,0,0,1-.282-1.153q-.012-10.177,0-20.353c0-1.222.064-1.267,1.274-1.267,1.881,0,1.865,0,1.884,1.923.024,2.472-.085,4.945.061,7.416a1.45,1.45,0,0,0,1.5.986A5.458,5.458,0,0,0,7011.958,2858.739Z" transform="translate(-213.034 -210.733)" fill="#fee076"/>
    <path id="Trazado_188357" data-name="Trazado 188357" d="M6971.942,2693.356a1.232,1.232,0,0,1-1.19-1.552,18.736,18.736,0,0,1,.758-2.393,1.273,1.273,0,0,1,2.447.528,7.909,7.909,0,0,1-.907,2.875A1.1,1.1,0,0,1,6971.942,2693.356Z" transform="translate(-185.024 -90.869)" fill="#010101"/>
    <path id="Trazado_188358" data-name="Trazado 188358" d="M6957.367,2720.01a1.28,1.28,0,0,1-1.281-1.873,14.9,14.9,0,0,1,1.572-2.172,1.132,1.132,0,0,1,1.506-.2,1.15,1.15,0,0,1,.6,1.476,7.049,7.049,0,0,1-1.866,2.566A1.466,1.466,0,0,1,6957.367,2720.01Z" transform="translate(-173.678 -111.535)" fill="#010101"/>
    <path id="Trazado_188359" data-name="Trazado 188359" d="M6803.708,2739.362c-3.662,0-7.324.017-10.985-.014a2.377,2.377,0,0,0-1.844.771c-5.124,5.161-10.276,10.3-15.391,15.466-.52.525-.826.6-1.206-.051a.934.934,0,0,0-.177-.191c-.33-.312-.974-.7-.923-.92.1-.416.584-.75.93-1.1q7.765-7.787,15.523-15.581a2.958,2.958,0,0,1,2.3-.967c7.237.031,14.474,0,21.711.033a2.766,2.766,0,0,0,2.144-.9q10.734-10.8,21.506-21.571c.165-.165.326-.333.49-.5a1.321,1.321,0,0,0-1-2.271c-1.859.006-3.72-.017-5.58.013-.546.009-.746-.11-.743-.708.011-1.87-.018-1.87,1.856-1.87,3.75,0,7.5.019,11.248-.016.692-.007.87.186.863.871q-.047,6.116,0,12.231c.008.727-.234.855-.884.842-1.7-.035-1.7-.007-1.7-1.672,0-1.368-.011-2.738,0-4.106.009-.753.013-1.5-.835-1.83-.8-.315-1.3.193-1.81.7q-11.123,11.157-22.238,22.32a3.188,3.188,0,0,1-2.528,1.032C6810.859,2739.328,6807.283,2739.362,6803.708,2739.362Z" transform="translate(-33.536 -106.493)" fill="#afbcc7"/>
    <path id="Trazado_188360" data-name="Trazado 188360" d="M6840.337,2632.963a12.448,12.448,0,0,0,3.619,4.569,29.736,29.736,0,0,0,2.651,1.772,12.356,12.356,0,0,1-8.452-1.594,13.275,13.275,0,0,1,4.9-24.667,10.224,10.224,0,0,1,3.551.054,15.353,15.353,0,0,0-5.73,5.27,3.9,3.9,0,0,0-.524,1.087.922.922,0,0,1-.3.61,4.55,4.55,0,0,0-.963,3.587,1.67,1.67,0,0,1-.037.69,8.89,8.89,0,0,0,.087,4.513,4.469,4.469,0,0,0,.655,3.181C6840.008,2632.323,6840.378,2632.525,6840.337,2632.963Z" transform="translate(-78.28 -32.812)" fill="#fed05b"/>
    <path id="Trazado_188361" data-name="Trazado 188361" d="M6863.311,2760.586q8.7-.014,17.406-.038c.629,0,.793.266.786.842-.021,1.657-.014,3.314,0,4.971,0,.5-.071.834-.7.832q-8.746-.034-17.493-.036c-.416-.2-.424-.6-.428-.975q-.033-2.311,0-4.621C6862.886,2761.185,6862.894,2760.789,6863.311,2760.586Z" transform="translate(-102.316 -146.032)" fill="#fee077"/>
    <path id="Trazado_188362" data-name="Trazado 188362" d="M6788.277,2721.249c.512.375,1.014.763,1.539,1.119a.691.691,0,0,1,.286.67c-.007,1.306-.013,2.613,0,3.919.005.527-.148.8-.739.8q-8.779-.034-17.558-.038a1.281,1.281,0,0,1-.277-.978c-.015-1.482-.023-2.965,0-4.447.017-1.015.118-1.1,1.09-1.1q7.441,0,14.879,0A2.307,2.307,0,0,1,6788.277,2721.249Z" transform="translate(-32.26 -115.847)" fill="#fed05b"/>
    <path id="Trazado_188363" data-name="Trazado 188363" d="M6775.433,2768.451c-.285-1.023-.591-1.249-1.7-1.261-.629-.007-1.259-.02-1.889-.03a1.132,1.132,0,0,1-.27-.889q-.026-2.394,0-4.789a1.132,1.132,0,0,1,.27-.889c3.707-.01,7.414-.015,11.119-.038.42,0,.531.126.525.546q-.037,2.786,0,5.572c.007.45-.154.536-.548.524-.781-.022-1.565.021-2.345-.014a1.554,1.554,0,0,0-1.631.9c-.074.259-.181.516-.487.534A6.277,6.277,0,0,1,6775.433,2768.451Z" transform="translate(-32.293 -146.037)" fill="#fee077"/>
    <path id="Trazado_188364" data-name="Trazado 188364" d="M6775.358,2793.212c.9-.01,1.8-.034,2.7-.021a.887.887,0,0,0,.83-.349c-.025,1.29.384,1.719,1.644,1.732.916.01,1.831.029,2.748.045.186,2.028.032,4.061.083,6.091.009.364-.2.424-.5.423q-5.355-.007-10.709,0c-.357,0-.581-.167-.6-.494a39.03,39.03,0,0,1,.029-5.745.528.528,0,0,1,.185-.29c.657-.01,1.314-.021,1.971-.03C6774.8,2794.558,6775.132,2794.282,6775.358,2793.212Z" transform="translate(-32.218 -170.798)" fill="#fed05b"/>
    <path id="Trazado_188365" data-name="Trazado 188365" d="M6783.084,2681.522a17.222,17.222,0,0,0,2.746,6.453h-14.014a1.325,1.325,0,0,1-.277-.982c-.013-1.485-.022-2.971,0-4.456.017-1.011.118-1.1,1.1-1.1q4.841,0,9.679,0A1.372,1.372,0,0,1,6783.084,2681.522Z" transform="translate(-32.268 -85.353)" fill="#fee076"/>
    <path id="Trazado_188366" data-name="Trazado 188366" d="M6862.981,2850.55l17.836-.029c.262,0,.526-.045.518.374-.023,1.133-.019,2.266-.03,3.4a.25.25,0,0,1-.2.249,1.4,1.4,0,0,1-.767.08q-8.268.005-16.537,0c-.986,0-1.122-.083-1.089-1.091S6862.426,2851.5,6862.981,2850.55Z" transform="translate(-102.152 -215.031)" fill="#fee076"/>
    <path id="Trazado_188367" data-name="Trazado 188367" d="M6862.971,2800.282q8.806-.016,17.609-.038c.506,0,.758.158.746.7q-.029,1.354,0,2.708c.008.367-.1.514-.49.513q-8.934-.037-17.868-.053A5.691,5.691,0,0,1,6862.971,2800.282Z" transform="translate(-102.141 -176.475)" fill="#fed05b"/>
    <path id="Trazado_188368" data-name="Trazado 188368" d="M6771.771,2840.113h10.778l-6.232,6.457c-1.387.164-2.779.029-4.167.076a.505.505,0,0,1-.595-.495,39.819,39.819,0,0,1,.031-5.747A.544.544,0,0,1,6771.771,2840.113Z" transform="translate(-32.221 -207.051)" fill="#fee077"/>
    <path id="Trazado_188369" data-name="Trazado 188369" d="M6749.25,2800.269c0,1.89.02,3.779-.015,5.668-.011.62.2.79.8.786,3.307-.024,6.613-.03,9.919,0,.683.007.823-.24.813-.862-.033-1.859-.007-3.72-.005-5.58.194.065.129.226.129.359,0,1.86-.017,3.721.007,5.58.006.461-.059.667-.594.665q-8.7-.03-17.4-.009c-.615,0-.809-.263-.8-.845q.03-2.484,0-4.97c-.008-.584.179-.844.8-.834C6745.016,2800.263,6747.132,2800.26,6749.25,2800.269Z" transform="translate(-9.7 -176.465)" fill="#fec244"/>
    <path id="Trazado_188370" data-name="Trazado 188370" d="M6765.705,2720.957l-15.327.031c-1.142,0-1.143,0-1.143,1.117q0,2.662,0,5.323c-2.12.01-4.24,0-6.359.041-.633.011-.8-.264-.79-.841.022-1.63.03-3.261,0-4.889-.015-.687.237-.922.915-.916,2.672.024,5.344.007,8.017.006q6.883,0,13.769.006C6765.09,2720.835,6765.425,2720.721,6765.705,2720.957Z" transform="translate(-9.687 -115.555)" fill="#fec244"/>
    <path id="Trazado_188371" data-name="Trazado 188371" d="M6760.524,2681.4c-3.442,0-6.887.03-10.331-.013-.789-.01-.977.237-.955.986.051,1.825.018,3.654.019,5.48-2.146.011-4.292.015-6.436.04-.531.006-.715-.222-.711-.734q.023-2.572,0-5.144c0-.514.2-.749.716-.749q8.744,0,17.488.007C6760.384,2681.275,6760.454,2681.357,6760.524,2681.4Z" transform="translate(-9.708 -85.232)" fill="#fed05b"/>
    <path id="Trazado_188372" data-name="Trazado 188372" d="M6749.216,2839.979c0,1.835.041,3.672-.022,5.5-.027.8.251.989.994.955,1.189-.055,2.383-.006,3.575,0-.2.254-.486.131-.727.132-3.3.007-6.609-.016-9.914.014-.777.007-1.093-.21-1.064-1.036.054-1.6.026-3.195.011-4.792,0-.514.1-.826.715-.817C6744.927,2839.97,6747.072,2839.969,6749.216,2839.979Z" transform="translate(-9.667 -206.918)" fill="#fed05b"/>
    <path id="Trazado_188373" data-name="Trazado 188373" d="M6749.255,2760.6v6.568c-2.146.01-4.292.013-6.436.035-.535.006-.714-.24-.71-.744.012-1.715.016-3.43,0-5.145-.007-.579.258-.757.8-.751C6745.022,2760.586,6747.139,2760.588,6749.255,2760.6Z" transform="translate(-9.707 -146.042)" fill="#fed05b"/>
    <path id="Trazado_188374" data-name="Trazado 188374" d="M6841.077,2760.59a1.523,1.523,0,0,0-.169.927q0,2.358,0,4.716a1.537,1.537,0,0,0,.168.927c-2.151.01-4.3.006-6.45.038-.587.009-.758-.245-.753-.787q.024-2.533,0-5.067c-.005-.542.17-.8.753-.79C6836.776,2760.583,6838.926,2760.581,6841.077,2760.59Z" transform="translate(-80.081 -146.036)" fill="#fed05b"/>
    <path id="Trazado_188375" data-name="Trazado 188375" d="M6840.951,2800.3q0,1.915,0,3.829c-.812.015-1.626.078-2.435.038a4.645,4.645,0,0,0-4.037,1.637.689.689,0,0,1-.551.354c0-1.8,0-3.594,0-5.383,0-.424.3-.509.66-.507Q6837.77,2800.284,6840.951,2800.3Z" transform="translate(-80.121 -176.489)" fill="#fec244"/>
    <path id="Trazado_188376" data-name="Trazado 188376" d="M6755.673,2911.718a3.624,3.624,0,0,1-.184,7.018c-.525.049-.77-.336-1.013-.686a5.181,5.181,0,0,1,.12-5.867C6754.87,2911.817,6755.157,2911.509,6755.673,2911.718Z" transform="translate(-18.538 -261.913)" fill="#fc6930"/>
    <path id="Trazado_188377" data-name="Trazado 188377" d="M6746.872,2911.343c-.761-.041-.893.638-1.186,1.09-1.051,1.623-.8,4.793,1,5.928a3.513,3.513,0,0,1-3.865-1.422,3.644,3.644,0,0,1,.056-4.3A3.535,3.535,0,0,1,6746.872,2911.343Z" transform="translate(-9.736 -261.537)" fill="#fc5426"/>
    <path id="Trazado_188378" data-name="Trazado 188378" d="M6845.756,2850.46c0,.9-.005,1.8,0,2.7.008,1.413-.155,1.28,1.236,1.281q8.446.009,16.891.007c-.147.2-.365.145-.561.145q-11.545,0-23.084,0c-.154-.291.105-.374.228-.5.875-.892,1.834-1.713,2.624-2.677A2.567,2.567,0,0,1,6845.756,2850.46Z" transform="translate(-84.927 -214.941)" fill="#fdcf5a"/>
    <path id="Trazado_188379" data-name="Trazado 188379" d="M7067.92,2833.764h-2.786a1.481,1.481,0,0,1-.282-1.153q-.011-15.328,0-30.656c0-1.233.062-1.274,1.271-1.276,1.885,0,1.885,0,1.885,1.921q0,15.11,0,30.22A1.838,1.838,0,0,1,7067.92,2833.764Z" transform="translate(-257.215 -176.81)" fill="#fff59d"/>
    <path id="Trazado_188380" data-name="Trazado 188380" d="M7063.6,2833.5q0-15.977.02-31.954c0-.846-.23-1.087-1.066-1.058-1.741.061-1.743.016-1.743,1.757q0,15.627,0,31.255c-1.588.088-1.588.088-1.588-1.46q0-15.334-.015-30.669c0-.76.131-1.1.979-1.022a16.209,16.209,0,0,0,2.7,0c.75-.058.9.221.9.926-.022,9.931-.008,19.863-.026,29.794A5.368,5.368,0,0,1,7063.6,2833.5Z" transform="translate(-252.892 -176.55)" fill="#ccc47d"/>
    <path id="Trazado_188381" data-name="Trazado 188381" d="M7006.063,2854.026c-.253-.272-.146-.608-.146-.916-.008-2.5-.024-5,.009-7.5.008-.639-.161-.855-.825-.851-1.977.012-1.977-.017-1.977,1.951q0,10.374,0,20.749c-1.609.086-1.609.086-1.609-1.516,0-6.806.011-13.613-.017-20.42,0-.732.2-.949.92-.9a24.728,24.728,0,0,0,2.873,0c.6-.03.8.135.79.765C7006.047,2848.266,7006.065,2851.146,7006.063,2854.026Z" transform="translate(-208.635 -210.505)" fill="#fed05b"/>
    <path id="Trazado_188382" data-name="Trazado 188382" d="M6949.914,2900.583c.781-.014,1.564-.009,2.343-.05.475-.026.581.178.578.613q-.021,4.314,0,8.628c0,.439-.1.631-.575.6-.78-.043-1.564-.028-2.345-.038a1.486,1.486,0,0,1-.28-1.146q-.012-3.73,0-7.461A1.59,1.59,0,0,1,6949.914,2900.583Z" transform="translate(-168.856 -253.385)" fill="#fde076"/>
    <path id="Trazado_188383" data-name="Trazado 188383" d="M6892.3,2900.249c.919-.04,2.063-.391,2.687.125.562.464.161,1.635.17,2.493.027,2.145-.006,4.291.02,6.436.006.54-.1.795-.707.746-.718-.058-1.445-.031-2.167-.04a1.485,1.485,0,0,1-.279-1.146q-.013-3.731,0-7.462A1.6,1.6,0,0,1,6892.3,2900.249Z" transform="translate(-124.671 -253.051)" fill="#fb6830"/>
    <path id="Trazado_188384" data-name="Trazado 188384" d="M6887.6,2900.5q0,4.88,0,9.759c-1.689.089-1.689.089-1.689-1.534,0-2.4.049-4.808-.025-7.209-.028-.917.26-1.2,1.109-1.059C6887.191,2900.488,6887.4,2900.485,6887.6,2900.5Z" transform="translate(-119.967 -253.301)" fill="#fa5326"/>
    <path id="Trazado_188385" data-name="Trazado 188385" d="M6945.449,2900.623q0,4.879,0,9.758c-1.637.086-1.637.086-1.637-1.485,0-2.409-.009-4.817,0-7.226.007-1.229-.216-1.071,1.114-1.088C6945.1,2900.581,6945.276,2900.609,6945.449,2900.623Z" transform="translate(-164.39 -253.425)" fill="#fed05b"/>
    <path id="Trazado_188386" data-name="Trazado 188386" d="M6836.01,2918c2.486-.139,2.486-.139,2.486,2.289,0,.955-.021,1.909.007,2.863.014.457-.138.614-.591.586-.632-.039-1.269-.027-1.9-.036A12.191,12.191,0,0,1,6836.01,2918Z" transform="translate(-81.461 -266.744)" fill="#fc6930"/>
    <path id="Trazado_188387" data-name="Trazado 188387" d="M6830.3,2918.008v5.7c-2.061.109-2.061.109-2.061-1.938,0-1.042.029-2.085-.01-3.125-.02-.541.162-.726.688-.676C6829.376,2918.014,6829.84,2918,6830.3,2918.008Z" transform="translate(-75.753 -266.754)" fill="#fb5326"/>
    <path id="Trazado_188388" data-name="Trazado 188388" d="M6864.342,2643.371a4.453,4.453,0,0,1-1.485-2.9,2.228,2.228,0,0,1,.207-1.08,1.148,1.148,0,0,1,1.532-.657,1.587,1.587,0,0,1,.985,1.029c.584,1.561.726,1.653,2.405,1.654.752,0,1.507.029,2.26-.012,1.154-.063,1.552-.538,1.515-1.754-.033-1.045-.407-1.394-1.543-1.411-1.013-.016-2.03.037-3.042-.017a4.5,4.5,0,0,1-3.986-2.229,1.674,1.674,0,0,1-.289-1.32c-.213-1.816-.045-3.516,1.456-4.812a4.248,4.248,0,0,1,2.6-.832c.454.025.5-.2.517-.577.047-1.388.449-1.97,1.3-1.966s1.279.583,1.288,1.975c0,.686.415.547.8.573a3.99,3.99,0,0,1,3.823,3.8,1.291,1.291,0,0,1-1.107,1.509,1.26,1.26,0,0,1-1.463-1.151c-.283-1.29-.582-1.541-1.88-1.549-1.075-.007-2.149-.021-3.223.007s-1.548.586-1.561,1.762c-.014,1.239.456,1.854,1.536,1.889,1.218.04,2.438-.014,3.657.023a3.988,3.988,0,0,1,4.057,4.02c.131,2.742-1.209,4.581-3.663,4.822-.842.083-1.042.346-.968,1.13a1.3,1.3,0,0,1-2.551.428,2.678,2.678,0,0,1-.039-.954c.039-.422-.111-.552-.533-.545A4.664,4.664,0,0,1,6864.342,2643.371Z" transform="translate(-102.285 -43.221)"/>
    <path id="Trazado_188389" data-name="Trazado 188389" d="M6861.926,2661.6a4.133,4.133,0,0,0,4.425,3.261c1.072,0,2.145-.021,3.215.01s1.535.579,1.547,1.761c.014,1.254-.431,1.857-1.515,1.9-1.186.046-2.375.032-3.562,0a1.473,1.473,0,0,1-1.55-1.341c-.288-1.5-1.223-1.825-2.4-.876-.612-.286-.335-.907-.374-1.316C6861.61,2663.878,6861.327,2662.7,6861.926,2661.6Z" transform="translate(-101.311 -70.152)" fill="#fee076"/>
  </g>
</svg>
