<svg xmlns="http://www.w3.org/2000/svg" xmlns:xlink="http://www.w3.org/1999/xlink" width="400" height="367.209" viewBox="0 0 400 367.209">
  <defs>
    <clipPath id="clip-path">
      <path id="Trazado_189192" data-name="Trazado 189192" d="M1427.005,306.325l-22.909-7.881-.911,10.394,23.845,15.285Z" transform="translate(-1403.185 -298.444)" fill="none"/>
    </clipPath>
    <clipPath id="clip-path-2">
      <path id="Trazado_189193" data-name="Trazado 189193" d="M1432.985,306.957,1412.423,360a39.681,39.681,0,0,0-2.665,14.3V479.052h15.432l16.881-102.718,37.383-59.784Z" transform="translate(-1409.758 -306.957)" fill="none"/>
    </clipPath>
    <clipPath id="clip-path-3">
      <path id="Trazado_189194" data-name="Trazado 189194" d="M1416.484,307.075l5.27,66.357a28.847,28.847,0,0,0,3.026,10.743l47.967,94.274,13.665-7.392L1456.281,375.8l5.068-58.188Z" transform="translate(-1416.484 -307.075)" fill="none"/>
    </clipPath>
    <clipPath id="clip-path-4">
      <path id="Trazado_189195" data-name="Trazado 189195" d="M1419.063,301.614a15.664,15.664,0,0,1,16.868-14.209,16.117,16.117,0,0,1,10.261,19.816,15.666,15.666,0,0,1-16.869,14.216A16.121,16.121,0,0,1,1419.063,301.614Z" transform="translate(-1418.401 -287.352)" fill="none"/>
    </clipPath>
    <clipPath id="clip-path-5">
      <path id="Trazado_189196" data-name="Trazado 189196" d="M1488.678,325.728c.679-14.674-7.337-27.1-18.954-29.513h0l-6.621-1.37h0c-11.666-2.409-23.675,5.882-28.535,19.706L1412.331,377.8l73.278,15.126Z" transform="translate(-1412.331 -294.431)" fill="none"/>
    </clipPath>
    <clipPath id="clip-path-6">
      <path id="Trazado_189197" data-name="Trazado 189197" d="M1474.648,302.865l3.223,12.228a12.658,12.658,0,0,1,.207,5.5h0a12.212,12.212,0,0,1-7.734,9.33l-47.763,17.621-6.487-8.6,44.155-23.68-3.521-9.336Z" transform="translate(-1416.093 -302.865)" fill="none"/>
    </clipPath>
    <clipPath id="clip-path-7">
      <path id="Trazado_189198" data-name="Trazado 189198" d="M1389.869,288.345a16.054,16.054,0,0,1,18.158,13.567,16.646,16.646,0,0,1-9.391,21,16.06,16.06,0,0,1-18.165-13.567A16.646,16.646,0,0,1,1389.869,288.345Z" transform="translate(-1379.504 -288.181)" fill="none"/>
    </clipPath>
    <clipPath id="clip-path-8">
      <path id="Trazado_189199" data-name="Trazado 189199" d="M1387.756,325.837l11.207-4.959,50.045-33.444,4.664,8.829-41.777,39.791-15.653,8.058Z" transform="translate(-1387.756 -287.434)" fill="none"/>
    </clipPath>
  </defs>
  <g id="Grupo_129278" data-name="Grupo 129278" transform="translate(-1372.198 -277.757)">
    <g id="Grupo_128391" data-name="Grupo 128391" transform="translate(1539.255 329.462)">
      <path id="Trazado_188046" data-name="Trazado 188046" d="M1435.431,337.419l.569,4.818-10.541,11.274a4.765,4.765,0,0,0-.911,5.044h0l26.56-11.543-6.726-13.494Z" transform="translate(-1273.351 -44.291)" fill="#617e9b"/>
      <g id="Grupo_128365" data-name="Grupo 128365" transform="translate(0 64.917)">
        <g id="Grupo_128364" data-name="Grupo 128364" transform="translate(22.399 9.862)">
          <path id="Trazado_188047" data-name="Trazado 188047" d="M1427,306.325l-22.9-7.881-.911,10.394,23.845,15.285Z" transform="translate(-1403.181 -298.444)" fill="#f4d2c6"/>
          <g id="Grupo_129298" data-name="Grupo 129298">
            <g id="Grupo_129297" data-name="Grupo 129297" clip-path="url(#clip-path)">
              <g id="Grupo_128363" data-name="Grupo 128363" transform="translate(15.387 2.55)">
                <path id="Trazado_188048" data-name="Trazado 188048" d="M1408.887,298.861l-3.186,20.4,13.64,8.5,1.59-28.192Z" transform="translate(-1405.702 -298.861)" fill="#eda19d"/>
              </g>
            </g>
          </g>
        </g>
        <path id="Trazado_188050" data-name="Trazado 188050" d="M1423.868,307.054s-9.647-10.871-10.712-10.192c-2.862,1.834,3.479,7.588,2.317,7.869s-15.609-1.333-15.952.073a26.935,26.935,0,0,0,4.843,12.3,164.443,164.443,0,0,0,19.015.422Z" transform="translate(-1399.521 -296.831)" fill="#f4d2c6"/>
      </g>
      <g id="Grupo_128367" data-name="Grupo 128367" transform="translate(62.591 126.829)">
        <path id="Trazado_188051" data-name="Trazado 188051" d="M1432.985,306.957,1412.423,360a39.681,39.681,0,0,0-2.665,14.3V479.052h15.432l16.881-102.718,37.383-59.784Z" transform="translate(-1409.758 -306.957)" fill="#fff"/>
        <g id="Grupo_129300" data-name="Grupo 129300">
          <g id="Grupo_129299" data-name="Grupo 129299" clip-path="url(#clip-path-2)">
            <g id="Grupo_128366" data-name="Grupo 128366" transform="translate(8.694 21.907)">
              <path id="Trazado_188052" data-name="Trazado 188052" d="M1447.456,337.766l-2.164-27.226s-24.146,42.389-24.543,49.378-9.568,103.611-9.568,103.611h11.164l16.747-105.255,8.358-20.507" transform="translate(-1411.18 -310.54)" fill="#c8cace"/>
            </g>
          </g>
        </g>
      </g>
      <g id="Grupo_128369" data-name="Grupo 128369" transform="translate(103.714 127.55)">
        <path id="Trazado_188054" data-name="Trazado 188054" d="M1416.484,307.075l5.27,66.357a28.847,28.847,0,0,0,3.026,10.743l47.967,94.274,13.665-7.392L1456.281,375.8l5.068-58.188Z" transform="translate(-1416.484 -307.075)" fill="#fff"/>
        <g id="Grupo_129302" data-name="Grupo 129302">
          <g id="Grupo_129301" data-name="Grupo 129301" clip-path="url(#clip-path-3)">
            <g id="Grupo_128368" data-name="Grupo 128368" transform="translate(1.565 9.966)">
              <path id="Trazado_188055" data-name="Trazado 188055" d="M1416.765,312.2a74,74,0,0,0,46.607,26.768l1.67-23.961-46.816-6.3-1.486,3.485" transform="translate(-1416.74 -308.705)" fill="#c8cace"/>
            </g>
          </g>
        </g>
      </g>
      <path id="Trazado_188057" data-name="Trazado 188057" d="M1425.209,335.1l-1.289,4.671-13.96,6.169a4.687,4.687,0,0,0-2.738,4.28h28.828l-1.095-15.12Z" transform="translate(-1360.143 -36.18)" fill="#617e9b"/>
      <g id="Grupo_128376" data-name="Grupo 128376" transform="translate(103.36)">
        <g id="Grupo_128373" data-name="Grupo 128373" transform="translate(12.073 3.343)">
          <path id="Trazado_188058" data-name="Trazado 188058" d="M1418.614,302.129s.611-22.39,22.622-13.121C1441.249,289.008,1427.657,303.4,1418.614,302.129Z" transform="translate(-1417.309 -286.76)" fill="#59445a"/>
          <g id="Grupo_128372" data-name="Grupo 128372" transform="translate(0 3.62)">
            <g id="Grupo_128371" data-name="Grupo 128371">
              <path id="Trazado_188108" data-name="Trazado 188108" d="M1419.063,301.614a15.664,15.664,0,0,1,16.868-14.209,16.117,16.117,0,0,1,10.261,19.816,15.666,15.666,0,0,1-16.869,14.216A16.121,16.121,0,0,1,1419.063,301.614Z" transform="translate(-1418.401 -287.352)" fill="#f4d2c6"/>
              <g id="Grupo_129304" data-name="Grupo 129304">
                <g id="Grupo_129303" data-name="Grupo 129303" clip-path="url(#clip-path-4)">
                  <g id="Grupo_128370" data-name="Grupo 128370" transform="translate(1.305 6.136)">
                    <path id="Trazado_188059" data-name="Trazado 188059" d="M1418.614,293.963a26.836,26.836,0,0,0,16.759,2.268l1.89,2.372,1.314-5.2-19.082-5.044-.881,5.607" transform="translate(-1418.614 -288.356)" fill="#eda19d"/>
                  </g>
                </g>
              </g>
            </g>
            <path id="Trazado_188060" data-name="Trazado 188060" d="M1441.394,290.417s-6.433,26-5.252,34.337a31.954,31.954,0,0,1-16.766-3.461,143.834,143.834,0,0,0,9.575-26.707Z" transform="translate(-1413.413 -271.68)" fill="#f4d2c6"/>
          </g>
          <path id="Trazado_188061" data-name="Trazado 188061" d="M1421.748,294.493a12,12,0,0,0,7.3-1.834,8.471,8.471,0,0,1-8.9,5.961Z" transform="translate(-1409.444 -256.594)" fill="#eda19d"/>
          <path id="Trazado_188062" data-name="Trazado 188062" d="M1418.864,298.267a59.542,59.542,0,0,0,16.08,3.614,10.878,10.878,0,0,1,.611,7.337c-2.4,6.689,6.419,8.5,6.419,8.5s8.4-13.182,6.727-20.458c-1.144-4.94-6.359-7.765-11.006-9.477a15.776,15.776,0,0,0-12.748.826A20.511,20.511,0,0,0,1418.864,298.267Z" transform="translate(-1416.037 -286.462)" fill="#59445a"/>
          <path id="Trazado_188063" data-name="Trazado 188063" d="M1427.3,293.741a3.054,3.054,0,0,1-3.565,2.446h-.006a3.126,3.126,0,0,1-2.378-3.669,3.055,3.055,0,0,1,3.565-2.446h.006A3.117,3.117,0,0,1,1427.3,293.741Z" transform="translate(-1403.625 -270.093)" fill="#f4d2c6"/>
        </g>
        <g id="Grupo_128375" data-name="Grupo 128375">
          <g id="Grupo_128374" data-name="Grupo 128374">
            <path id="Trazado_188064" data-name="Trazado 188064" d="M1419.352,292.269l23.233,23.747a15.261,15.261,0,0,0,1.126-23.038C1429.275,278.182,1419.352,292.269,1419.352,292.269Z" transform="translate(-1401.462 -286.213)" fill="#cbe2f7"/>
            <path id="Trazado_188065" data-name="Trazado 188065" d="M1446.22,299.58l-13.947-.85a15.385,15.385,0,0,1-10.895-5.588l-4.952-5.98,17.89.263Z" transform="translate(-1416.426 -281.363)" fill="#617e9b"/>
          </g>
          <path id="Trazado_188066" data-name="Trazado 188066" d="M1426.783,290.45c-.366.459-1.553.067-2.666-.868s-1.711-2.066-1.345-2.525,1.559-.067,2.672.868S1427.144,289.991,1426.783,290.45Z" transform="translate(-1384.516 -282.884)" fill="#617e9b"/>
        </g>
      </g>
      <g id="Grupo_128378" data-name="Grupo 128378" transform="translate(78.323 50.244)">
        <path id="Trazado_188067" data-name="Trazado 188067" d="M1488.678,325.728c.679-14.674-7.337-27.1-18.954-29.513h0l-6.621-1.37h0c-11.666-2.409-23.675,5.882-28.535,19.706L1412.331,377.8l73.278,15.126Z" transform="translate(-1412.331 -294.431)" fill="#cbe2f7"/>
        <g id="Grupo_129306" data-name="Grupo 129306">
          <g id="Grupo_129305" data-name="Grupo 129305" clip-path="url(#clip-path-5)">
            <g id="Grupo_128377" data-name="Grupo 128377" transform="translate(58.788 50.41)">
              <path id="Trazado_188068" data-name="Trazado 188068" d="M1421.946,307.879s0,33.444,16.41,38.782l1.186-43.985-17.6,5.2" transform="translate(-1421.946 -302.676)" fill="#9dc2ea"/>
            </g>
          </g>
        </g>
      </g>
      <g id="Grupo_128386" data-name="Grupo 128386" transform="translate(34.756 21.745)">
        <g id="Grupo_128381" data-name="Grupo 128381">
          <g id="Grupo_128379" data-name="Grupo 128379">
            <rect id="Rectángulo_40769" data-name="Rectángulo 40769" width="54.306" height="61.038" fill="#f3ac4a"/>
            <rect id="Rectángulo_40770" data-name="Rectángulo 40770" width="30.063" height="61.038" transform="translate(54.318)" fill="#f08f3c"/>
          </g>
          <g id="Grupo_128380" data-name="Grupo 128380" transform="translate(23.576)">
            <rect id="Rectángulo_40771" data-name="Rectángulo 40771" width="7.154" height="6.126" fill="#fdf1e6"/>
            <rect id="Rectángulo_40772" data-name="Rectángulo 40772" width="7.154" height="6.126" transform="translate(43.142)" fill="#fdf1e6"/>
          </g>
        </g>
        <g id="Grupo_128385" data-name="Grupo 128385" transform="translate(11.461 61.038)">
          <g id="Grupo_128384" data-name="Grupo 128384" transform="translate(0.003)">
            <g id="Grupo_128382" data-name="Grupo 128382">
              <rect id="Rectángulo_40773" data-name="Rectángulo 40773" width="54.306" height="61.038" fill="#f3ac4a"/>
              <rect id="Rectángulo_40774" data-name="Rectángulo 40774" width="30.063" height="61.038" transform="translate(54.318)" fill="#f08f3c"/>
            </g>
            <g id="Grupo_128383" data-name="Grupo 128383" transform="translate(23.576)">
              <rect id="Rectángulo_40775" data-name="Rectángulo 40775" width="7.154" height="6.126" fill="#fdf1e6"/>
              <rect id="Rectángulo_40776" data-name="Rectángulo 40776" width="7.154" height="6.126" transform="translate(43.142)" fill="#fdf1e6"/>
            </g>
          </g>
          <path id="Trazado_188070" data-name="Trazado 188070" d="M1407.08,299.753h42.854l-42.854,11.391Z" transform="translate(-1407.08 -299.753)" fill="#f08f3c" opacity="0.54" style="isolation: isolate"/>
        </g>
      </g>
      <path id="Trazado_188071" data-name="Trazado 188071" d="M1442.024,297.57l8.462,32.154-26.571,4.635-2.758-30.571Z" transform="translate(-1288.877 -228.135)" fill="#cbe2f7"/>
      <g id="Grupo_128389" data-name="Grupo 128389" transform="translate(85.794 101.81)">
        <g id="Grupo_128388" data-name="Grupo 128388" transform="translate(15.53)">
          <path id="Trazado_188072" data-name="Trazado 188072" d="M1474.648,302.865l3.223,12.228a12.658,12.658,0,0,1,.207,5.5h0a12.212,12.212,0,0,1-7.734,9.33l-47.763,17.621-6.487-8.6,44.155-23.68-3.521-9.336Z" transform="translate(-1416.093 -302.865)" fill="#f4d2c6"/>
          <g id="Grupo_129308" data-name="Grupo 129308">
            <g id="Grupo_129307" data-name="Grupo 129307" clip-path="url(#clip-path-6)">
              <g id="Grupo_128387" data-name="Grupo 128387" transform="translate(38.091 -2.299)">
                <path id="Trazado_188073" data-name="Trazado 188073" d="M1425.717,316.851a69.175,69.175,0,0,0,18.813-9.783l-1.418-4.579-20.788,4.4Z" transform="translate(-1422.323 -302.489)" fill="#eda19d"/>
              </g>
            </g>
          </g>
        </g>
        <path id="Trazado_188075" data-name="Trazado 188075" d="M1429.682,311.814s-12.975-4.06-12.975-3.669a9.579,9.579,0,0,0,2.544,4.28,8.357,8.357,0,0,0,1.565.7c-2.868,1.669-7.264,4.891-7.264,4.891a53.119,53.119,0,0,0,12.3,4.922,58.224,58.224,0,0,0,9.734-2.195S1432.74,312.425,1429.682,311.814Z" transform="translate(-1413.553 -275.997)" fill="#f4d2c6"/>
      </g>
      <g id="Grupo_128390" data-name="Grupo 128390" transform="translate(120.482 50.191)">
        <path id="Trazado_188076" data-name="Trazado 188076" d="M1420.352,294.455l2.14,4.891a4.038,4.038,0,0,0,4.316,2.415,13.348,13.348,0,0,0,7.338-3.669l-2.813-1.761Z" transform="translate(-1413.47 -294.256)" fill="#fff"/>
        <path id="Trazado_188077" data-name="Trazado 188077" d="M1426.108,294.615l-4.806,2.727a1.4,1.4,0,0,1-2.055-1.48,4.476,4.476,0,0,1,.27-.935A16.629,16.629,0,0,1,1426.108,294.615Z" transform="translate(-1419.226 -294.422)" fill="#fff"/>
      </g>
    </g>
    <g id="Grupo_128386-2" data-name="Grupo 128386" transform="translate(1430.37 486.922)">
      <g id="Grupo_128381-2" data-name="Grupo 128381">
        <g id="Grupo_128379-2" data-name="Grupo 128379">
          <rect id="Rectángulo_40769-2" data-name="Rectángulo 40769" width="69.44" height="78.047" fill="#f3ac4a"/>
          <rect id="Rectángulo_40770-2" data-name="Rectángulo 40770" width="38.441" height="78.047" transform="translate(69.455)" fill="#f08f3c"/>
        </g>
        <g id="Grupo_128380-2" data-name="Grupo 128380" transform="translate(30.146)">
          <rect id="Rectángulo_40771-2" data-name="Rectángulo 40771" width="9.147" height="7.834" fill="#fdf1e6"/>
          <rect id="Rectángulo_40772-2" data-name="Rectángulo 40772" width="9.147" height="7.834" transform="translate(55.164)" fill="#fdf1e6"/>
        </g>
      </g>
      <g id="Grupo_128385-2" data-name="Grupo 128385" transform="translate(14.658 78.047)">
        <g id="Grupo_128384-2" data-name="Grupo 128384">
          <g id="Grupo_128382-2" data-name="Grupo 128382">
            <rect id="Rectángulo_40773-2" data-name="Rectángulo 40773" width="69.44" height="78.047" fill="#f3ac4a"/>
            <rect id="Rectángulo_40774-2" data-name="Rectángulo 40774" width="38.441" height="78.047" transform="translate(69.455)" fill="#f08f3c"/>
          </g>
          <g id="Grupo_128383-2" data-name="Grupo 128383" transform="translate(30.147)">
            <rect id="Rectángulo_40775-2" data-name="Rectángulo 40775" width="9.147" height="7.834" fill="#fdf1e6"/>
            <rect id="Rectángulo_40776-2" data-name="Rectángulo 40776" width="9.147" height="7.834" transform="translate(55.163)" fill="#fdf1e6"/>
          </g>
        </g>
        <path id="Trazado_188070-2" data-name="Trazado 188070" d="M1384.11,324.732h54.8l-54.8,14.564Z" transform="translate(-1384.108 -324.732)" fill="#f08f3c" opacity="0.54" style="isolation: isolate"/>
      </g>
    </g>
    <g id="Grupo_128408" data-name="Grupo 128408" transform="translate(1372.198 277.757)">
      <path id="Trazado_188079" data-name="Trazado 188079" d="M1387.53,319.016l11.617-4.28,30.772-25.979,14.13-.611-36.82,32.87-15.285,7.52Z" transform="translate(-1293.788 -224.626)" fill="#eda19d"/>
      <g id="Grupo_128396" data-name="Grupo 128396" transform="translate(0 340.259)">
        <path id="Trazado_188080" data-name="Trazado 188080" d="M1388.175,337.627l-.722,4.793,10.174,11.617a4.769,4.769,0,0,1,.752,5.075h0L1372.2,346.67l7.135-13.262Z" transform="translate(-1372.199 -333.408)" fill="#617e9b"/>
        <path id="Trazado_188081" data-name="Trazado 188081" d="M1394.75,335.141l1.29,4.671L1410,345.982a4.664,4.664,0,0,1,2.739,4.28H1383.91L1385,335.141Z" transform="translate(-1312.3 -324.545)" fill="#617e9b"/>
      </g>
      <g id="Grupo_128400" data-name="Grupo 128400" transform="translate(38.452 53.786)">
        <path id="Trazado_188082" data-name="Trazado 188082" d="M1385.172,288.309a17.647,17.647,0,0,1,5.429,9.263,15.084,15.084,0,0,1-.158,3.669l-7.5-9.514Z" transform="translate(-1355.683 -277.579)" fill="#1a1949"/>
        <g id="Grupo_128399" data-name="Grupo 128399" transform="translate(6.216 9.949)">
          <g id="Grupo_128398" data-name="Grupo 128398">
            <path id="Trazado_188102" data-name="Trazado 188102" d="M1389.869,288.345a16.054,16.054,0,0,1,18.158,13.567,16.646,16.646,0,0,1-9.391,21,16.06,16.06,0,0,1-18.165-13.567A16.646,16.646,0,0,1,1389.869,288.345Z" transform="translate(-1379.504 -288.181)" fill="#f4d2c6"/>
            <g id="Grupo_129310" data-name="Grupo 129310">
              <g id="Grupo_129309" data-name="Grupo 129309" clip-path="url(#clip-path-7)">
                <g id="Grupo_128397" data-name="Grupo 128397" transform="translate(5.614 2.121)">
                  <path id="Trazado_188083" data-name="Trazado 188083" d="M1401.907,294.471s-14.222,9.312-21.485,3.094h0l16.783-9.037Z" transform="translate(-1380.422 -288.528)" fill="#eda19d"/>
                </g>
              </g>
            </g>
          </g>
          <path id="Trazado_188084" data-name="Trazado 188084" d="M1379.62,291.455s8.126,26.334,7.4,34.979a32.97,32.97,0,0,0,17.033-4.6s-11.115-21.351-11.4-26.859Z" transform="translate(-1378.91 -271.439)" fill="#f4d2c6"/>
        </g>
        <path id="Trazado_188085" data-name="Trazado 188085" d="M1388.777,295.121a12.34,12.34,0,0,1-7.619-1.449,8.683,8.683,0,0,0,9.5,5.582Z" transform="translate(-1364.828 -250.151)" fill="#eda19d"/>
        <path id="Trazado_188086" data-name="Trazado 188086" d="M1405.767,300.7a48.572,48.572,0,0,1-15.6,6.8,12.911,12.911,0,0,1-8.56-1.045s-4.892-5.57-1.479-9.024a128.971,128.971,0,0,1,23.539-10.883S1408.6,296.416,1405.767,300.7Z" transform="translate(-1376.297 -286.554)" fill="#59445a"/>
        <path id="Trazado_188087" data-name="Trazado 188087" d="M1388.777,289.873a33.464,33.464,0,0,1,3.509,11.446,87.475,87.475,0,0,1-3.895,11.91,51.813,51.813,0,0,1-9.9-13.366,20.32,20.32,0,0,1,3.124-10.633Z" transform="translate(-1378.487 -272.863)" fill="#59445a"/>
        <path id="Trazado_188088" data-name="Trazado 188088" d="M1379.766,295.758a3.632,3.632,0,0,0,4.366,2.7l.067-.018a3.759,3.759,0,0,0,2.592-4.573,3.619,3.619,0,0,0-4.365-2.69l-.067.018A3.767,3.767,0,0,0,1379.766,295.758Z" transform="translate(-1372.571 -263.445)" fill="#f4d2c6"/>
      </g>
      <g id="Grupo_128403" data-name="Grupo 128403" transform="translate(131.148)">
        <g id="Grupo_128401" data-name="Grupo 128401">
          <path id="Trazado_188104" data-name="Trazado 188104" d="M1393.648,280.071l54.27-2.122,2.237,60.995-54.263,2.122Z" transform="translate(-1393.648 -276.775)" fill="#f3ac4a"/>
          <path id="Trazado_188105" data-name="Trazado 188105" d="M1402.525,278.937l30.032-1.18,2.257,60.97-30.04,1.18Z" transform="translate(-1348.25 -277.757)" fill="#f08f3c"/>
        </g>
        <g id="Grupo_128402" data-name="Grupo 128402" transform="translate(23.552 0.404)">
          <path id="Trazado_188106" data-name="Trazado 188106" d="M1397.5,278.369l7.153-.269.227,6.108-7.148.269Z" transform="translate(-1397.5 -276.406)" fill="#fdf1e6"/>
          <path id="Trazado_188107" data-name="Trazado 188107" d="M1404.552,278.1l7.146-.275.233,6.108-7.148.275Z" transform="translate(-1361.441 -277.823)" fill="#fdf1e6"/>
        </g>
      </g>
      <g id="Grupo_128406" data-name="Grupo 128406" transform="translate(95.118 49.105)">
        <g id="Grupo_128405" data-name="Grupo 128405" transform="translate(0 10.061)">
          <path id="Trazado_188089" data-name="Trazado 188089" d="M1387.755,325.837l11.208-4.959,50.044-33.444,4.665,8.829-41.778,39.791-15.652,8.059Z" transform="translate(-1387.755 -287.434)" fill="#f4d2c6"/>
          <g id="Grupo_129312" data-name="Grupo 129312" transform="translate(0.002)">
            <g id="Grupo_129311" data-name="Grupo 129311" clip-path="url(#clip-path-8)">
              <g id="Grupo_128404" data-name="Grupo 128404" transform="translate(-2.503 35.542)">
                <path id="Trazado_188090" data-name="Trazado 188090" d="M1391.376,293.247l21.949,14.961-17.829,9.238-8.15-21.057Z" transform="translate(-1387.346 -293.247)" fill="#eda19d"/>
              </g>
            </g>
          </g>
        </g>
        <path id="Trazado_188092" data-name="Trazado 188092" d="M1397.777,295.85s9.049-11.556,11.4-9.9c1.083.758-3.325,6.524-2.359,7.184s16.637-5.423,16.7-3.534A25.28,25.28,0,0,1,1420,300.209a90.037,90.037,0,0,1-17.566,4.469Z" transform="translate(-1336.501 -285.788)" fill="#f4d2c6"/>
      </g>
      <path id="Trazado_188093" data-name="Trazado 188093" d="M1406.968,307.408l-10.395,92.972-23.79,68.65,13.3,5.594,36.354-57.43a48.057,48.057,0,0,0,6.249-12.766l18.825-59.179Z" transform="translate(-1369.207 -126.117)" fill="#c8cace"/>
      <path id="Trazado_188094" data-name="Trazado 188094" d="M1431.29,377.156l-3.784-75.92h-44.021l-4.28,31.94a91.485,91.485,0,0,0,5.417,45.9c.227.568.459,1.137.691,1.7l12.79,30.51,3.724,15.243,9.734,82.009h13.194l9.636-86.68-3.057-44.7Z" transform="translate(-1340.807 -157.682)" fill="#fff"/>
      <path id="Trazado_188095" data-name="Trazado 188095" d="M1379.176,331.558l1.125-15.97a21.4,21.4,0,0,1,19.907-20.281h.832a20.786,20.786,0,0,1,20.6,17.144l1.571,19.113Z" transform="translate(-1336.511 -188.004)" fill="#cbe2f7"/>
      <path id="Trazado_188096" data-name="Trazado 188096" d="M1381.36,309.577l36.991-16.637,12.332,26.554-29.55,15.683Z" transform="translate(-1325.343 -200.109)" fill="#cbe2f7"/>
      <path id="Trazado_188097" data-name="Trazado 188097" d="M1384.663,331.463s-5.552-29.171,9.525-35.933c0,0-18.269,2.1-14.606,34.887Z" transform="translate(-1336.917 -186.863)" fill="#fff"/>
      <path id="Trazado_188098" data-name="Trazado 188098" d="M1397.66,299l-13.708,6.83,14.833,6.842Z" transform="translate(-1312.086 -169.122)" fill="#9dc2ea"/>
      <g id="Grupo_128407" data-name="Grupo 128407" transform="translate(54.202 183.296)">
        <path id="Trazado_188099" data-name="Trazado 188099" d="M1381.063,307.736h23.081l.611,20.69a11.447,11.447,0,0,1-10.914,11.972l-.342.012h0a11.424,11.424,0,0,1-11.243-10.95Z" transform="translate(-1381.063 -307.736)" fill="#c8cace"/>
        <rect id="Rectángulo_40787" data-name="Rectángulo 40787" width="22.959" height="0.899" transform="translate(0.284 4.549)" fill="#324d90"/>
      </g>
    </g>
    <g id="Grupo_128413" data-name="Grupo 128413" transform="translate(1661.337 413.632)">
      <g id="Grupo_128409" data-name="Grupo 128409" transform="translate(2.723 158.063)">
        <rect id="Rectángulo_40788" data-name="Rectángulo 40788" width="71.578" height="53.688" fill="#f3ac4a"/>
        <rect id="Rectángulo_40789" data-name="Rectángulo 40789" width="9.116" height="10.284" transform="translate(31.231)" fill="#fdf1e6"/>
      </g>
      <g id="Grupo_128412" data-name="Grupo 128412">
        <g id="Grupo_128410" data-name="Grupo 128410">
          <path id="Trazado_188100" data-name="Trazado 188100" d="M1513.426,300.3h-17.578a3.374,3.374,0,0,0-3.375,3.375h0V509.035h-68.521a4.469,4.469,0,0,0-4.463,4.469h0a4.473,4.473,0,0,0,4.463,4.469h72.012V304.1h17.48Z" transform="translate(-1419.489 -298.323)" fill="#94b2ed"/>
          <path id="Rectángulo_40790" data-name="Rectángulo 40790" d="M1437.174,299.98h18.7a3.879,3.879,0,0,1,3.883,3.876h0a3.88,3.88,0,0,1-3.883,3.882h-18.7a3.884,3.884,0,0,1-3.882-3.882h0A3.882,3.882,0,0,1,1437.174,299.98Z" transform="translate(-1348.893 -299.98)" fill="#617e9b"/>
        </g>
        <g id="Grupo_128411" data-name="Grupo 128411" transform="translate(58.472 199.101)">
          <circle id="Elipse_5073" data-name="Elipse 5073" cx="15.805" cy="15.805" r="15.805" fill="#617e9b"/>
          <circle id="Elipse_5074" data-name="Elipse 5074" cx="6.34" cy="6.34" r="6.34" transform="translate(9.465 9.465)" fill="#324d90"/>
        </g>
      </g>
    </g>
    <path id="Trazado_188101" data-name="Trazado 188101" d="M1373.784,338.231c128.188-.819,262.106-.826,390.3,0-128.19.825-262.108.819-390.3,0Z" transform="translate(8.111 306.118)" fill="#152e60"/>
  </g>
</svg>
