<svg xmlns="http://www.w3.org/2000/svg" width="274" height="250.803" viewBox="0 0 274 250.803">
  <g id="Grupo_128166" data-name="Grupo 128166" transform="translate(-867.512 -1306.726)">
    <g id="Grupo_128099" data-name="Grupo 128099" transform="translate(900.096 1393.859)">
      <g id="Grupo_128098" data-name="Grupo 128098">
        <g id="Grupo_128094" data-name="Grupo 128094">
          <g id="Grupo_128093" data-name="Grupo 128093">
            <path id="Trazado_154637" data-name="Trazado 154637" d="M923.857,1478.728a17.556,17.556,0,0,1-12.2-30.183,135.136,135.136,0,0,1,186.327-1.365,17.556,17.556,0,0,1-24.025,25.607,100.024,100.024,0,0,0-137.906,1.012A17.5,17.5,0,0,1,923.857,1478.728Z" transform="translate(-906.3 -1410.61)" fill="#f9f0ed"/>
          </g>
          <path id="Trazado_154638" data-name="Trazado 154638" d="M1098.776,1466.55a17.557,17.557,0,0,1-24.816.791,100.023,100.023,0,0,0-137.905,1.012,17.555,17.555,0,0,1-28.989-7.5,17.557,17.557,0,0,0,28.989,17.757,100.023,100.023,0,0,1,137.905-1.012,17.555,17.555,0,0,0,28.8-17.925A17.47,17.47,0,0,1,1098.776,1466.55Z" transform="translate(-906.3 -1415.417)" fill="#1272b2" opacity="0.21" style="mix-blend-mode: multiply;isolation: isolate"/>
        </g>
        <g id="Grupo_128096" data-name="Grupo 128096" transform="translate(33.556 60.704)">
          <g id="Grupo_128095" data-name="Grupo 128095">
            <path id="Trazado_154639" data-name="Trazado 154639" d="M1060.152,1538.1a17.5,17.5,0,0,1-12.414-5.142,50.5,50.5,0,0,0-71.424,0,17.556,17.556,0,1,1-24.828-24.828,85.619,85.619,0,0,1,121.081,0,17.557,17.557,0,0,1-12.415,29.972Z" transform="translate(-946.344 -1483.051)" fill="#f9f0ed"/>
          </g>
          <path id="Trazado_154640" data-name="Trazado 154640" d="M1072.568,1530.847a17.558,17.558,0,0,1-24.829,0,50.5,50.5,0,0,0-71.424,0,17.551,17.551,0,0,1-29.567-8.686,17.554,17.554,0,0,0,29.567,16.142,50.5,50.5,0,0,1,71.424,0,17.554,17.554,0,0,0,29.567-16.143A17.475,17.475,0,0,1,1072.568,1530.847Z" transform="translate(-946.344 -1488.398)" fill="#1272b2" opacity="0.21" style="mix-blend-mode: multiply;isolation: isolate"/>
        </g>
        <g id="Grupo_128097" data-name="Grupo 128097" transform="translate(68.643 106.208)">
          <circle id="Elipse_5041" data-name="Elipse 5041" cx="28.731" cy="28.731" r="28.731" transform="translate(0)" fill="#f9f0ed"/>
          <path id="Trazado_154641" data-name="Trazado 154641" d="M1028,1539.574a24.5,24.5,0,1,1-12.92-2.141,28.7,28.7,0,1,0,12.92,2.141Z" transform="translate(-988.215 -1537.367)" fill="#1272b2" opacity="0.21" style="mix-blend-mode: multiply;isolation: isolate"/>
        </g>
      </g>
    </g>
    <g id="Grupo_128115" data-name="Grupo 128115" transform="translate(1012.86 1495.915)">
      <g id="Grupo_128114" data-name="Grupo 128114">
        <g id="Grupo_128100" data-name="Grupo 128100" transform="translate(15.053 35.956)">
          <path id="Trazado_154642" data-name="Trazado 154642" d="M1080.221,1580.606a12.891,12.891,0,0,0,5.47,5.417c3.878,1.988,13.8,5.827,14.432,6.187s4.345.626,3.618-1.394c0,0-19.85-15.9-21.958-15.5S1079.847,1580.163,1080.221,1580.606Z" transform="translate(-1062.26 -1575.306)" fill="#0a1731"/>
          <path id="Trazado_154643" data-name="Trazado 154643" d="M1064.773,1595.3s9.807-6.517,16.006-14.973c0,0,1.2-6.382-3.533-4.751s-16.226,6.453-16.226,6.453S1054.141,1593.257,1064.773,1595.3Z" transform="translate(-1058.831 -1575.306)" fill="#0a1731"/>
        </g>
        <path id="Trazado_154644" data-name="Trazado 154644" d="M1051.043,1549.307s1.058,3.429.027,5.717,4.9,1.722,5.869-.8l-1.811-5.061S1051.762,1545.842,1051.043,1549.307Z" transform="translate(-1042.501 -1534.882)" fill="#f6a36a"/>
        <g id="Grupo_128103" data-name="Grupo 128103" transform="translate(11.802 42.774)">
          <g id="Grupo_128101" data-name="Grupo 128101">
            <path id="Trazado_154645" data-name="Trazado 154645" d="M1082.715,1596.145a14.657,14.657,0,0,0,8.267,2.874c4.952.137,17.015-.79,17.837-.73s2.478-2.764.742-4.479c0,0-25.873-5.3-27.839-3.86S1082.115,1595.875,1082.715,1596.145Z" transform="translate(-1059.164 -1584.456)" fill="#1f2b54"/>
            <path id="Trazado_154646" data-name="Trazado 154646" d="M1057.26,1597.727s13.3,1.528,24.887-1.275c0,0,5.721-4.666.413-6.72s-18.831-6.29-18.831-6.29S1049.517,1588.158,1057.26,1597.727Z" transform="translate(-1054.951 -1583.443)" fill="#1f2b54"/>
          </g>
          <g id="Grupo_128102" data-name="Grupo 128102" transform="translate(49.656 2.811)">
            <path id="Trazado_154647" data-name="Trazado 154647" d="M1114.95,1593.4a16.838,16.838,0,0,0,2.975-4.083c.769-1.846,2.154-2.923,3.847-1.538s-4.616,10.462-4.616,10.462l-2.949-.362S1115.668,1593.786,1114.95,1593.4Z" transform="translate(-1114.207 -1586.854)" fill="#0a1731"/>
            <path id="Trazado_154648" data-name="Trazado 154648" d="M1118.652,1588.693s-.1.82,2.051,1.231c0,0-2.974,8-3.59,8.206l.514.052s5.128-6.822,5.026-10.206C1122.652,1587.975,1120.4,1584.9,1118.652,1588.693Z" transform="translate(-1114.678 -1586.797)" fill="#f4ecd7"/>
            <path id="Trazado_154649" data-name="Trazado 154649" d="M1118.025,1590.773l1.231,1.23-.41.513-1.129-1.026S1117.512,1590.875,1118.025,1590.773Z" transform="translate(-1114.769 -1587.441)" fill="#f4ecd7"/>
            <path id="Trazado_154650" data-name="Trazado 154650" d="M1117.168,1592.119l1.231,1.231-.41.513-1.129-1.026S1116.655,1592.221,1117.168,1592.119Z" transform="translate(-1114.63 -1587.66)" fill="#f4ecd7"/>
          </g>
        </g>
        <g id="Grupo_128113" data-name="Grupo 128113">
          <g id="Grupo_128104" data-name="Grupo 128104" transform="translate(6.706 17.126)">
            <path id="Trazado_154651" data-name="Trazado 154651" d="M1063.614,1570.784s-.079-.032-.215-.081c-.205-.925-.491-2.161-.841-3.541a3.519,3.519,0,0,0,2.049-2.019c-2.4-3.45-5.678-6.079-7.528-9.86a9.916,9.916,0,0,1-6.223,1.016l-.01,0a6.525,6.525,0,0,0-1.966,2.795c-.292,1.485,5.2,10.944,5.756,13.13a2.314,2.314,0,0,0,.74,1.119c-.037.1-.075.207-.109.318,0,0,2.931,5.455,1.671,6.625,0,0,9.547,4.972,9.166-.65Z" transform="translate(-1048.87 -1553.233)" fill="#f4ecd7"/>
            <path id="Trazado_154652" data-name="Trazado 154652" d="M1057.692,1556.168a6.176,6.176,0,0,1,.029-1.733c.159-.742-6.245.214-6.951-1.6a8.369,8.369,0,0,0-.267,2.38C1050.682,1555.646,1056.546,1557.44,1057.692,1556.168Z" transform="translate(-1049.127 -1552.836)" fill="#f4ecd7"/>
          </g>
          <g id="Grupo_128105" data-name="Grupo 128105" transform="translate(6.209 19.506)">
            <path id="Trazado_154653" data-name="Trazado 154653" d="M1050.149,1555.676s-2.228,2.1-1.824,3.583a100.112,100.112,0,0,0,6.474,18.208s-4.99,5.8-1.078,16.05c0,0,15.376.945,16.724-.27s-14.162-11.464-14.027-36.417C1056.418,1556.832,1051.434,1556.814,1050.149,1555.676Z" transform="translate(-1048.276 -1555.676)" fill="#0a1731"/>
            <path id="Trazado_154654" data-name="Trazado 154654" d="M1058.589,1595.5c-3.988-1.826-4.647-6.662-3.793-10.517.647-2.919,2.573-5.424,1-8.3-1.083-1.979-2.487-3.791-3.563-5.794-.687-1.279-1.332-2.581-1.912-3.906a98.94,98.94,0,0,0,4.807,12.317s-4.99,5.8-1.078,16.051c0,0,2.066.126,4.749.227C1058.732,1595.549,1058.658,1595.528,1058.589,1595.5Z" transform="translate(-1048.608 -1557.508)" fill="#1f2b54" opacity="0.32" style="mix-blend-mode: multiply;isolation: isolate"/>
            <path id="Trazado_154655" data-name="Trazado 154655" d="M1061.865,1587.59s-1.026,2.77-2.769,3.693l.82.821s2.667-1.744,3.077-3.488Z" transform="translate(-1050.029 -1560.847)" fill="#1f2b54" opacity="0.32" style="mix-blend-mode: multiply;isolation: isolate"/>
          </g>
          <g id="Grupo_128108" data-name="Grupo 128108" transform="translate(6.071 14.455)">
            <path id="Trazado_154656" data-name="Trazado 154656" d="M1076.038,1556.01h0a.74.74,0,0,1-.056-1.042l4.556-5.074a.739.739,0,0,1,1.042-.056h0a.741.741,0,0,1,.056,1.042l-4.556,5.074A.741.741,0,0,1,1076.038,1556.01Z" transform="translate(-1052.597 -1549.649)" fill="#f9f0ed"/>
            <g id="Grupo_128107" data-name="Grupo 128107" transform="translate(0 2.93)">
              <g id="Grupo_128106" data-name="Grupo 128106">
                <path id="Trazado_154657" data-name="Trazado 154657" d="M1074.619,1557.569s.456-3.033,1.438-2.851-.107,1.682-.107,1.682,3.395-2.1,3.737-3.068,2.6,1.895-2.718,6.181C1076.97,1559.514,1073.766,1559.789,1074.619,1557.569Z" transform="translate(-1052.383 -1553.145)" fill="#f6a36a"/>
                <path id="Trazado_154658" data-name="Trazado 154658" d="M1048.318,1559s-2.753,5.1,11.881,14.094c0,0,4.187.887,3.225-2.926S1050.2,1553.977,1048.318,1559Z" transform="translate(-1048.112 -1553.902)" fill="#0a1731"/>
                <path id="Trazado_154659" data-name="Trazado 154659" d="M1064.871,1573.1s2.1.719,9.883-12.7l-2.36-1.594s-11.965,8.476-11.7,11.869A2.819,2.819,0,0,0,1064.871,1573.1Z" transform="translate(-1050.15 -1554.064)" fill="#0a1731"/>
              </g>
            </g>
            <path id="Trazado_154660" data-name="Trazado 154660" d="M1051.747,1565.809s6.124,6.8,7.467,7.383A20.908,20.908,0,0,1,1051.747,1565.809Z" transform="translate(-1048.701 -1552.267)" fill="#1f2b54" opacity="0.32" style="mix-blend-mode: multiply;isolation: isolate"/>
            <path id="Trazado_154661" data-name="Trazado 154661" d="M1063.61,1567.911a2.4,2.4,0,0,0-.252,2.349S1062.016,1568.5,1063.61,1567.911Z" transform="translate(-1050.497 -1552.608)" fill="#1f2b54" opacity="0.32" style="mix-blend-mode: multiply;isolation: isolate"/>
          </g>
          <g id="Grupo_128112" data-name="Grupo 128112">
            <g id="Grupo_128110" data-name="Grupo 128110" transform="translate(6.287 1.929)">
              <g id="Grupo_128109" data-name="Grupo 128109">
                <path id="Trazado_154662" data-name="Trazado 154662" d="M1058.126,1540.126c-.058-.268-.191-5.189-.438-5.227-12.967-2-8.618,11.691-8.618,11.691l-.075-.031c.011.038.023.074.033.112.26.163.8.471,1.843,1.04a6.987,6.987,0,0,0,6.25-.09,2.319,2.319,0,0,0,.235-.763,5.541,5.541,0,0,1,.661-1.379c-.2-.1-1.012-.7-.691-.585a1.407,1.407,0,0,0,.791-.059s.084-1.388.505-1.481a.649.649,0,0,0,.5-.478A13.959,13.959,0,0,1,1058.126,1540.126Z" transform="translate(-1048.37 -1534.7)" fill="#f6a36a"/>
              </g>
            </g>
            <path id="Trazado_154663" data-name="Trazado 154663" d="M1051.39,1538.281s5.206-.133,6.091-.764c0,0,1.011-7.577-8.714-4.293a7.25,7.25,0,0,0-4.925,7.45c.127,6.062.792,3.306-.379,3.41a3.339,3.339,0,0,0-2.272,4.672c1.136,2.526,2.146,2.778,1.262,3.535s3.536,9.471,11.113,2.4l-1.5-10.888s-3.8.66-2.537-2.245c0,0,.379-1.515,1.263-.126S1053.256,1544.349,1051.39,1538.281Z" transform="translate(-1040.867 -1532.398)" fill="#0a1731"/>
            <g id="Grupo_128111" data-name="Grupo 128111" transform="translate(5.885 0.223)">
              <path id="Trazado_154664" data-name="Trazado 154664" d="M1050.932,1538.9c-.027,0-.052.008-.078.008v-5.547a.7.7,0,1,0-1.4,0v5.98a3.406,3.406,0,0,0-1.56,2.913,3.057,3.057,0,1,0,3.043-3.355Z" transform="translate(-1047.889 -1532.664)" fill="#f9f0ed"/>
              <path id="Trazado_154665" data-name="Trazado 154665" d="M1053.348,1543.586a2.339,2.339,0,1,1-2.306-2.73A2.545,2.545,0,0,1,1053.348,1543.586Z" transform="translate(-1048.026 -1533.991)" fill="#1272b2" opacity="0.33" style="mix-blend-mode: multiply;isolation: isolate"/>
            </g>
          </g>
        </g>
      </g>
    </g>
    <g id="Grupo_128133" data-name="Grupo 128133" transform="translate(1027.959 1355.267)">
      <path id="Trazado_154666" data-name="Trazado 154666" d="M1066.478,1450.37s2.033-1.161,1.937-2.033,1.549-19.943.29-22.363c0,0-.872-1.161-1.646,1.065s-1.355,23.622-2.711,24.3S1065.413,1451.823,1066.478,1450.37Z" transform="translate(-1059.705 -1374.457)" fill="#1272b2" opacity="0.21" style="mix-blend-mode: multiply;isolation: isolate"/>
      <path id="Trazado_154667" data-name="Trazado 154667" d="M1076.062,1450.451s3.678-4.55,2.517-7.939-3.776-21.1-3.194-21.782,11.423-4.646,12-4.066.678,1.162.193,1.646a62.6,62.6,0,0,1-9.488,4.356s2.819,22.263,2.614,23.524C1080.709,1446.191,1078,1450.258,1076.062,1450.451Z" transform="translate(-1061.545 -1372.989)" fill="#1272b2" opacity="0.21" style="mix-blend-mode: multiply;isolation: isolate"/>
      <g id="Grupo_128132" data-name="Grupo 128132" transform="translate(0)">
        <g id="Grupo_128131" data-name="Grupo 128131">
          <path id="Trazado_154668" data-name="Trazado 154668" d="M1078.311,1364.589s-4.474-.574-5.392,5.22,1.492,9.236.8,10.785-5.392,11.531,5.736,12.161,13.022-2.237,13.481-4.245,0-9.924-6.081-11.128c0,0-1.95-3.327-1.663-4.819S1083.991,1364.015,1078.311,1364.589Z" transform="translate(-1061.035 -1364.556)" fill="#0a1731"/>
          <g id="Grupo_128116" data-name="Grupo 128116" transform="translate(0 71.487)">
            <path id="Trazado_154669" data-name="Trazado 154669" d="M1065.748,1450.933a11.067,11.067,0,0,1,.247,2.711c-.2.3-3.9,4.435-4.782,4.435s-1.676-1.134.542-4.584a3.534,3.534,0,0,0,.542-2.366S1063.875,1448.419,1065.748,1450.933Z" transform="translate(-1059.117 -1449.864)" fill="#f6a36a"/>
            <path id="Trazado_154670" data-name="Trazado 154670" d="M1060.5,1455.493c.2-.187,1.4.876,2.541-.263s2.629-2.891,2.891-2.453a2.182,2.182,0,0,1,.264,1.49c-.088.525-4.469,5.607-6.4,5.169S1059.444,1456.457,1060.5,1455.493Z" transform="translate(-1058.885 -1450.325)" fill="#0a1731"/>
          </g>
          <g id="Grupo_128117" data-name="Grupo 128117" transform="translate(11.653 70.914)">
            <path id="Trazado_154671" data-name="Trazado 154671" d="M1079.5,1450.249a11.03,11.03,0,0,1,.246,2.711c-.2.3-3.893,4.436-4.781,4.436s-1.676-1.134.542-4.584a3.529,3.529,0,0,0,.542-2.365S1077.626,1447.736,1079.5,1450.249Z" transform="translate(-1072.999 -1449.181)" fill="#f6a36a"/>
            <path id="Trazado_154672" data-name="Trazado 154672" d="M1074.4,1454.343c.2-.188,1.4.875,2.541-.263s2.629-2.891,2.892-2.454a2.186,2.186,0,0,1,.263,1.49c-.088.525-4.469,5.608-6.4,5.17S1073.351,1455.306,1074.4,1454.343Z" transform="translate(-1072.792 -1449.566)" fill="#0a1731"/>
          </g>
          <g id="Grupo_128120" data-name="Grupo 128120" transform="translate(1.814 35.692)">
            <path id="Trazado_154673" data-name="Trazado 154673" d="M1075.053,1407.245s-13.443,7.583-13.806,9.448,2.047,4.313,3.928,3.691,11.228-4.885,13.35-6.75S1079.59,1406.363,1075.053,1407.245Z" transform="translate(-1061.076 -1407.149)" fill="#0a1731"/>
            <path id="Trazado_154674" data-name="Trazado 154674" d="M1081.637,1407.778s-13.979,7.447-14.037,9.5,3.18,4.953,5.22,4.4,11.955-4.608,14.034-6.527S1086.677,1407.131,1081.637,1407.778Z" transform="translate(-1062.111 -1407.243)" fill="#0a1731"/>
            <path id="Trazado_154675" data-name="Trazado 154675" d="M1067.612,1420.792a11.35,11.35,0,0,1,.378,6.8c-.887,4.164-1.663,17.934-1.663,17.934l-3.844.224s-1.918-25.691-1.318-27.234S1067.523,1416.547,1067.612,1420.792Z" transform="translate(-1061.05 -1408.814)" fill="#0a1731"/>
            <path id="Trazado_154676" data-name="Trazado 154676" d="M1074.492,1420.186a11.353,11.353,0,0,1,1.824,6.566c.026,4.257,2.215,17.873,2.215,17.873l-3.707,1.042s-7.372-24.685-7.116-26.321S1073.5,1416.059,1074.492,1420.186Z" transform="translate(-1062.128 -1408.841)" fill="#0a1731"/>
            <path id="Trazado_154677" data-name="Trazado 154677" d="M1085.108,1417.013s5.964-1.636,3.058-7.87c0,0-5.039,2.806-14.741.333C1073.425,1409.476,1072.369,1418.681,1085.108,1417.013Z" transform="translate(-1063.052 -1407.472)" fill="#0a1731"/>
            <g id="Grupo_128118" data-name="Grupo 128118" transform="translate(10.851 10.283)" opacity="0.3">
              <path id="Trazado_154678" data-name="Trazado 154678" d="M1077.017,1423.659a7.536,7.536,0,0,0-3.018-4.077l.1-.161a7.739,7.739,0,0,1,3.1,4.2Z" transform="translate(-1073.999 -1419.42)" fill="#67afe9"/>
            </g>
            <g id="Grupo_128119" data-name="Grupo 128119" transform="translate(5.39 6.175)" opacity="0.4">
              <path id="Trazado_154679" data-name="Trazado 154679" d="M1069.2,1425.8a49.575,49.575,0,0,1-1.714-7.412l0-.025.009-.024c.712-1.854,4.4-3.743,4.559-3.822l.086.17c-.037.019-3.747,1.918-4.457,3.7a49.855,49.855,0,0,0,1.7,7.34Z" transform="translate(-1067.482 -1414.518)" fill="#67afe9"/>
            </g>
          </g>
          <g id="Grupo_128129" data-name="Grupo 128129" transform="translate(8.409 0.185)">
            <g id="Grupo_128128" data-name="Grupo 128128" transform="translate(0 0.319)">
              <path id="Trazado_154680" data-name="Trazado 154680" d="M1089.118,1383.974s3.189-.248,4.513,11.2c0,0-.474,2.8-2.191,1.147S1086.161,1383.716,1089.118,1383.974Z" transform="translate(-1072.009 -1368.205)" fill="#b0becc"/>
              <path id="Trazado_154681" data-name="Trazado 154681" d="M1073.7,1385.39s-2.794-.307-4.776,12.417c0,0,.219,3.122,1.85,1.3S1076.322,1385.131,1073.7,1385.39Z" transform="translate(-1068.92 -1368.435)" fill="#b0becc"/>
              <path id="Trazado_154682" data-name="Trazado 154682" d="M1084.685,1398.035l.889-2.924.031,0,.31-1.121.033-.109,0,0,1.372-4.974s1.7-3.71-.044-4.715a12.465,12.465,0,0,0-4.742-1.144c-1.333,1.138-2.926.748-4.553.116-1.147.547-3.356,1.69-3.847,1.84-.7.215-.727,3.119-.083,5.083l.074.229-.074.074c-.881.83-.425,3.808,1.715,5.029l.1.313.043,0a7.616,7.616,0,0,1,.477,2.967c-.385.465-3.334,4.121-2.961,6.553,0,0,8.938,2.535,14.741-.333C1088.164,1404.915,1087.113,1400.45,1084.685,1398.035Z" transform="translate(-1069.644 -1368.056)" fill="#b0becc"/>
              <path id="Trazado_154683" data-name="Trazado 154683" d="M1075.746,1385.292a4.871,4.871,0,0,0,1.821.758,10.685,10.685,0,0,0,3.593.237,7.083,7.083,0,0,0,3.437-1.306,2.711,2.711,0,0,0,1.082-1.5,15.4,15.4,0,0,0-2.863-.436c-1.333,1.138-2.926.748-4.554.116-.835.4-2.232,1.112-3.121,1.528A3.52,3.52,0,0,0,1075.746,1385.292Z" transform="translate(-1069.928 -1368.056)" fill="#dd5829" opacity="0.33" style="mix-blend-mode: multiply;isolation: isolate"/>
              <path id="Trazado_154684" data-name="Trazado 154684" d="M1089.7,1405.6s-1.051-4.465-3.478-6.88l.889-2.924.032,0,.31-1.121.033-.109,0,0,1.335-4.842a16.5,16.5,0,0,1-1.151-2.425,40.525,40.525,0,0,1-1.222,6.552,12.4,12.4,0,0,1-1.242,3.526,6.1,6.1,0,0,1-2.344,2.2,2.6,2.6,0,0,1,1.644.791,5.034,5.034,0,0,1,.93,2.068,9.233,9.233,0,0,1,.179,4.355A13.33,13.33,0,0,0,1089.7,1405.6Z" transform="translate(-1071.178 -1368.745)" fill="#dd5829" opacity="0.23" style="mix-blend-mode: multiply;isolation: isolate"/>
              <g id="Grupo_128125" data-name="Grupo 128125" transform="translate(3.418)">
                <g id="Grupo_128122" data-name="Grupo 128122" transform="translate(4.843 10.122)">
                  <path id="Trazado_154685" data-name="Trazado 154685" d="M1078.778,1378.706s.465,2.8.135,3.418,3.264,1.857,4.439.189c0,0-.673-3.593-.166-4.222C1083.186,1378.092,1080.436,1375.806,1078.778,1378.706Z" transform="translate(-1078.778 -1377.236)" fill="#f0cf9a"/>
                  <g id="Grupo_128121" data-name="Grupo 128121">
                    <path id="Trazado_154686" data-name="Trazado 154686" d="M1078.778,1378.706s.465,2.8.135,3.418,3.264,1.857,4.439.189c0,0-.673-3.593-.166-4.222C1083.186,1378.092,1080.436,1375.806,1078.778,1378.706Z" transform="translate(-1078.778 -1377.236)" fill="#f6a36a"/>
                    <path id="Trazado_154687" data-name="Trazado 154687" d="M1079.023,1381.57a26.6,26.6,0,0,0,4.014-1.581,3.6,3.6,0,0,1,.149-1.9s-2.749-2.285-4.408.614A17.38,17.38,0,0,1,1079.023,1381.57Z" transform="translate(-1078.778 -1377.236)" fill="#d85369" opacity="0.3" style="mix-blend-mode: multiply;isolation: isolate"/>
                  </g>
                </g>
                <g id="Grupo_128124" data-name="Grupo 128124">
                  <path id="Trazado_154688" data-name="Trazado 154688" d="M1083.543,1370.5a5.3,5.3,0,0,0-5.309-5.334,5.412,5.412,0,0,0-4.874,5.82c.011.26-.081,1.161-.04,1.41a2.579,2.579,0,0,0-.321,1.029c-.043.572,1.458,4.021,4.383,5.733,0,0,3.9-1.752,5.382-3.6a13.843,13.843,0,0,0,.713-3.38.58.58,0,0,0-.044-.26A6.075,6.075,0,0,0,1083.543,1370.5Z" transform="translate(-1072.999 -1365.158)" fill="#f6a36a"/>
                  <g id="Grupo_128123" data-name="Grupo 128123" transform="translate(9.809 6.634)">
                    <path id="Trazado_154689" data-name="Trazado 154689" d="M1085.325,1373.2s1.22-.576,1.175.706-.865,2.3-1.8,2.076A8,8,0,0,1,1085.325,1373.2Z" transform="translate(-1084.705 -1373.074)" fill="#f6a36a"/>
                    <path id="Trazado_154690" data-name="Trazado 154690" d="M1085.184,1373.606s.787-.415.749.489-.572,1.626-1.167,1.476A6.176,6.176,0,0,1,1085.184,1373.606Z" transform="translate(-1084.715 -1373.145)" fill="#d85369" opacity="0.3" style="mix-blend-mode: multiply;isolation: isolate"/>
                  </g>
                </g>
              </g>
              <g id="Grupo_128127" data-name="Grupo 128127" transform="translate(8.182 25.708)">
                <g id="Grupo_128126" data-name="Grupo 128126">
                  <path id="Trazado_154691" data-name="Trazado 154691" d="M1091.616,1398.35s.339,1.279-11.273,6.579l-1.658-1.791s8.779-7.352,11.463-7.3S1092.026,1398,1091.616,1398.35Z" transform="translate(-1078.684 -1395.836)" fill="#b0becc"/>
                </g>
              </g>
              <path id="Trazado_154692" data-name="Trazado 154692" d="M1073.844,1393.835s-.6-1.2.8-3.8a3.92,3.92,0,0,0,.8-2.5,3.633,3.633,0,0,1-.4,2.9C1074.142,1391.935,1073.643,1392.735,1073.844,1393.835Z" transform="translate(-1069.697 -1368.783)" fill="#dd5829" opacity="0.33" style="mix-blend-mode: multiply;isolation: isolate"/>
              <path id="Trazado_154693" data-name="Trazado 154693" d="M1080.694,1405.624c.69-.338,1.387-.66,2.084-.981l2.1-.949,2.1-.935c.352-.154.7-.314,1.047-.476a8.809,8.809,0,0,0,1.022-.525,13.61,13.61,0,0,1-2,1.14c-.688.342-1.388.659-2.086.979s-1.407.616-2.117.907S1081.417,1405.361,1080.694,1405.624Z" transform="translate(-1070.828 -1371.088)" fill="#dd5829" opacity="0.23" style="mix-blend-mode: multiply;isolation: isolate"/>
              <path id="Trazado_154694" data-name="Trazado 154694" d="M1078.684,1403.285c.68-.607,1.375-1.193,2.077-1.772s1.416-1.143,2.129-1.708,1.445-1.106,2.188-1.634q.557-.394,1.127-.772c.2-.118.383-.248.584-.357l.3-.167.314-.135-.3.161-.285.187c-.192.121-.37.263-.556.393-.368.267-.732.537-1.091.816-.722.552-1.445,1.1-2.157,1.667l-2.157,1.67C1080.135,1402.186,1079.416,1402.742,1078.684,1403.285Z" transform="translate(-1070.502 -1370.275)" fill="#dd5829" opacity="0.23" style="mix-blend-mode: multiply;isolation: isolate"/>
            </g>
            <path id="Trazado_154695" data-name="Trazado 154695" d="M1077.722,1366.115a7.831,7.831,0,0,0,3.614,4.3c2.352,1.089,1.721,3.9,1.147,5.048a8.885,8.885,0,0,0,1.882-3.493c.355-1.785.642-6.432-4.693-7.177C1079.673,1364.8,1077.951,1364.51,1077.722,1366.115Z" transform="translate(-1070.346 -1364.777)" fill="#0a1731"/>
            <path id="Trazado_154696" data-name="Trazado 154696" d="M1077.839,1367.209s-2.926,3.958-4.647,4.3c0,0-.975-5.621,4.647-6.711C1077.839,1364.8,1078.584,1366.406,1077.839,1367.209Z" transform="translate(-1069.602 -1364.78)" fill="#0a1731"/>
          </g>
          <g id="Grupo_128130" data-name="Grupo 128130" transform="translate(0.52 28.205)">
            <path id="Trazado_154697" data-name="Trazado 154697" d="M1078.934,1415.3l6.65-2.212-18.278-.822-5.956,1.848Z" transform="translate(-1059.805 -1400.491)" fill="#ead4ce"/>
            <path id="Trazado_154698" data-name="Trazado 154698" d="M1078.635,1413.024l-19.129-1.286.13-13.524,18.767.986Z" transform="translate(-1059.506 -1398.214)" fill="#f9f0ed"/>
            <path id="Trazado_154699" data-name="Trazado 154699" d="M1060.028,1410.956l.122-12.715-.514-.027-.13,13.524,19.129,1.286-.014-.819Z" transform="translate(-1059.506 -1398.214)" fill="#cc9a8f" opacity="0.47"/>
            <path id="Trazado_154700" data-name="Trazado 154700" d="M1082.056,1399.373l.517-.094.1,13.863-.386.055Z" transform="translate(-1063.16 -1398.387)" fill="#efcfc7"/>
            <path id="Trazado_154701" data-name="Trazado 154701" d="M1082.795,1415.325l6.264-2.156.1-.411-6.367,1.951Z" transform="translate(-1063.279 -1400.571)" fill="#cc9a8f"/>
            <path id="Trazado_154702" data-name="Trazado 154702" d="M1071.206,1406.476a1.163,1.163,0,1,1-1.13-1.438A1.311,1.311,0,0,1,1071.206,1406.476Z" transform="translate(-1061.036 -1399.32)" fill="#cc9a8f"/>
          </g>
        </g>
      </g>
    </g>
    <g id="Grupo_128134" data-name="Grupo 128134" transform="translate(971.763 1423.417)">
      <path id="Trazado_154703" data-name="Trazado 154703" d="M1002.678,1445.882h-3.9a6.61,6.61,0,0,0-4.1,11.8c.122,1.528-.033,3.9-2.13,4.166-2.956.37,3.9,1.786,6.275-2.726h3.852a6.621,6.621,0,0,0,0-13.243Z" transform="translate(-991.823 -1445.882)" fill="#0a1731"/>
    </g>
    <g id="Grupo_128135" data-name="Grupo 128135" transform="translate(1016.588 1365.722)">
      <path id="Trazado_154704" data-name="Trazado 154704" d="M1051.355,1377.032h3.553a6.03,6.03,0,0,1,3.742,10.767c-.112,1.394.03,3.561,1.943,3.8,2.7.337-3.559,1.629-5.724-2.487h-3.514a6.04,6.04,0,1,1,0-12.08Z" transform="translate(-1045.315 -1377.032)" fill="#004563"/>
      <path id="Trazado_154705" data-name="Trazado 154705" d="M1057.317,1381.359c-1.333-1.7-2.87.181-3.322.814-.451-.633-1.988-2.51-3.32-.814-1.5,1.909,1.523,5.367,3.19,5.966v.075a1.283,1.283,0,0,0,.13-.032,1.32,1.32,0,0,0,.131.032v-.075C1055.792,1386.727,1058.816,1383.268,1057.317,1381.359Z" transform="translate(-1046.118 -1377.621)" fill="#f9f0ed"/>
    </g>
    <g id="Grupo_128136" data-name="Grupo 128136" transform="translate(961.323 1350.362)">
      <path id="Trazado_154706" data-name="Trazado 154706" d="M989.266,1358.7h-3.553a6.03,6.03,0,0,0-3.742,10.767c.111,1.394-.03,3.561-1.943,3.8-2.7.336,3.559,1.629,5.724-2.487h3.514a6.04,6.04,0,0,0,0-12.08Z" transform="translate(-979.365 -1358.702)" fill="#6699c4"/>
    </g>
    <g id="Grupo_128138" data-name="Grupo 128138" transform="translate(1055.688 1500.875)">
      <path id="Trazado_154707" data-name="Trazado 154707" d="M1102.8,1538.317h-3.883a6.591,6.591,0,0,0-4.09,11.768c.122,1.524-.033,3.893-2.124,4.154-2.948.369,3.89,1.781,6.256-2.718h3.84a6.6,6.6,0,1,0,0-13.2Z" transform="translate(-1091.975 -1538.317)" fill="#6699c4"/>
      <g id="Grupo_128137" data-name="Grupo 128137" transform="translate(4.383 2.403)">
        <ellipse id="Elipse_5042" data-name="Elipse 5042" cx="1.745" cy="1.178" rx="1.745" ry="1.178" transform="translate(0 6.092)" fill="#385087"/>
        <path id="Trazado_154708" data-name="Trazado 154708" d="M1106.21,1547.745c0,.651-.781,1.178-1.745,1.178s-1.746-.527-1.746-1.178.781-1.178,1.746-1.178S1106.21,1547.093,1106.21,1547.745Z" transform="translate(-1098.099 -1542.057)" fill="#385087"/>
        <rect id="Rectángulo_40573" data-name="Rectángulo 40573" width="0.737" height="5.687" transform="translate(2.753 1.583)" fill="#385087"/>
        <rect id="Rectángulo_40574" data-name="Rectángulo 40574" width="0.737" height="5.687" transform="translate(7.374)" fill="#385087"/>
        <rect id="Rectángulo_40575" data-name="Rectángulo 40575" width="5.359" height="1.864" transform="translate(2.753)" fill="#385087"/>
      </g>
    </g>
    <path id="Trazado_154709" data-name="Trazado 154709" d="M983.638,1318.483a3.982,3.982,0,0,0-5.059-3.845,16.726,16.726,0,0,1-12.939-6.649,5.193,5.193,0,0,1-7.987,3.9,5.2,5.2,0,0,0-3.178,9.312,2.972,2.972,0,0,0,2.434,1.275H980.13a2.972,2.972,0,0,0,2.428-1.267A3.975,3.975,0,0,0,983.638,1318.483Z" transform="translate(-13.681 -0.124)" fill="#6699c4"/>
    <path id="Trazado_154710" data-name="Trazado 154710" d="M1183.375,1361.175a3.982,3.982,0,0,0-5.059-3.845,16.724,16.724,0,0,1-12.939-6.649,5.193,5.193,0,0,1-7.987,3.9,5.2,5.2,0,0,0-3.178,9.313,2.973,2.973,0,0,0,2.434,1.275h23.22a2.971,2.971,0,0,0,2.427-1.267A3.975,3.975,0,0,0,1183.375,1361.175Z" transform="translate(-46.043 -7.041)" fill="#6699c4"/>
    <g id="Grupo_128139" data-name="Grupo 128139" transform="translate(868.012 1347.472)">
      <path id="Trazado_154711" data-name="Trazado 154711" d="M912.95,1370.376a5.739,5.739,0,0,0-7.29-5.541,7.482,7.482,0,0,0-11.224-3.091,7.489,7.489,0,0,0-14.88.324,7.488,7.488,0,0,0-8.627,12.224,4.282,4.282,0,0,0,3.508,1.838h33.457a4.283,4.283,0,0,0,3.5-1.825A5.728,5.728,0,0,0,912.95,1370.376Z" transform="translate(-868.012 -1355.254)" fill="none" stroke="#0a1731" stroke-miterlimit="10" stroke-width="1" stroke-dasharray="3"/>
      <path id="Trazado_154712" data-name="Trazado 154712" d="M894.249,1381.174v57.495h21.72" transform="translate(-872.263 -1359.454)" fill="none" stroke="#0a1731" stroke-miterlimit="10" stroke-width="1" stroke-dasharray="3"/>
    </g>
    <g id="Grupo_128140" data-name="Grupo 128140" transform="translate(1048.568 1307.226)">
      <path id="Trazado_154713" data-name="Trazado 154713" d="M1130.232,1322.96a5.973,5.973,0,0,0-7.585-5.765,7.784,7.784,0,0,0-11.678-3.216,7.791,7.791,0,0,0-15.481.338,7.791,7.791,0,0,0-8.976,12.719,4.457,4.457,0,0,0,3.649,1.912h34.81a4.455,4.455,0,0,0,3.639-1.9A5.958,5.958,0,0,0,1130.232,1322.96Z" transform="translate(-1083.478 -1307.226)" fill="none" stroke="#0a1731" stroke-miterlimit="10" stroke-width="1" stroke-dasharray="3"/>
      <line id="Línea_173" data-name="Línea 173" y2="90.394" transform="translate(24.168 22.04)" fill="none" stroke="#0a1731" stroke-miterlimit="10" stroke-width="1" stroke-dasharray="3"/>
    </g>
    <g id="Grupo_128141" data-name="Grupo 128141" transform="translate(1064.399 1397.301)">
      <path id="Trazado_154714" data-name="Trazado 154714" d="M1185.109,1429.84a5.739,5.739,0,0,0-7.29-5.542,7.481,7.481,0,0,0-11.224-3.09,31.2,31.2,0,0,1-18.928-.87,7.488,7.488,0,0,0-4.579,13.418,4.286,4.286,0,0,0,3.508,1.838h33.457a4.283,4.283,0,0,0,3.5-1.826A5.726,5.726,0,0,0,1185.109,1429.84Z" transform="translate(-1108.496 -1414.717)" fill="none" stroke="#0a1731" stroke-miterlimit="10" stroke-width="1" stroke-dasharray="3"/>
      <path id="Trazado_154715" data-name="Trazado 154715" d="M1159.866,1440.637v70.911h-57.5" transform="translate(-1102.371 -1418.917)" fill="none" stroke="#0a1731" stroke-miterlimit="10" stroke-width="1" stroke-dasharray="3"/>
    </g>
    <g id="Grupo_128151" data-name="Grupo 128151" transform="translate(932.511 1352.325)">
      <path id="Trazado_154716" data-name="Trazado 154716" d="M955.4,1422.6s.214,4.053,11.307,1.92C966.71,1424.517,976.31,1417.051,955.4,1422.6Z" transform="translate(-946.671 -1370.686)" fill="#1272b2" opacity="0.21" style="mix-blend-mode: multiply;isolation: isolate"/>
      <g id="Grupo_128150" data-name="Grupo 128150">
        <path id="Trazado_154717" data-name="Trazado 154717" d="M967.57,1379.547a2.208,2.208,0,0,1,.187-1.091s-3-2.672-4.736.813c0,0,.048.3.107.731C964.607,1379.814,966.086,1379.645,967.57,1379.547Z" transform="translate(-947.905 -1363.708)" fill="#f6a36a" opacity="0.38" style="mix-blend-mode: multiply;isolation: isolate"/>
        <path id="Trazado_154718" data-name="Trazado 154718" d="M958.742,1409.026a57.33,57.33,0,0,1,15.668-.733,17.676,17.676,0,0,1,.62,3.593c.112,1.9-5.706,3.584-6.385,5.916a9.156,9.156,0,0,1-4.27.252s-2.462-3.676-5.919-3.471l-1.017.06S957.737,1409.276,958.742,1409.026Z" transform="translate(-947.001 -1368.658)" fill="#0a1731"/>
        <g id="Grupo_128142" data-name="Grupo 128142" transform="translate(5.674 39.985)">
          <path id="Trazado_154719" data-name="Trazado 154719" d="M957.964,1427.316s-6.158.749-6.2,1.861a5.5,5.5,0,0,0,2.775,5.436l.96.56,4.254-4.484S960.99,1427.2,957.964,1427.316Z" transform="translate(-951.754 -1411.767)" fill="#004563"/>
          <path id="Trazado_154720" data-name="Trazado 154720" d="M979.424,1409.37a12.274,12.274,0,0,0-6.114,3.542c-3.132,3.093-14.668,11.537-14.668,11.537l1.9,3.312s23.356-12.965,24.369-14.337S983.16,1407.041,979.424,1409.37Z" transform="translate(-952.87 -1408.762)" fill="#0a1731"/>
        </g>
        <g id="Grupo_128144" data-name="Grupo 128144" transform="translate(8.625)">
          <path id="Trazado_154721" data-name="Trazado 154721" d="M963.021,1378.984s.547,2.8.2,3.423,3.545,1.811,4.783.122c0,0-.785-3.591-.25-4.229C967.757,1378.3,964.758,1376.052,963.021,1378.984Z" transform="translate(-956.53 -1363.708)" fill="#f6a36a"/>
          <path id="Trazado_154722" data-name="Trazado 154722" d="M961.971,1383.27s-5.038,2.017-5.979,2.263-.951,3.3-.066,5.352,2.241,5.6,2.241,5.6l13.706-.809,1.914-6.417s2.25-3.953-.1-4.96-6.931-.928-6.931-.928S966.439,1381.287,961.971,1383.27Z" transform="translate(-955.275 -1364.507)" fill="#004563"/>
          <path id="Trazado_154723" data-name="Trazado 154723" d="M958.536,1398.378s-1.04,10.2-.984,11.15,15.773.827,17.575-1c0,0-3.02-10-2.382-12.137S960.438,1391.771,958.536,1398.378Z" transform="translate(-955.643 -1366.401)" fill="#004563"/>
          <path id="Trazado_154724" data-name="Trazado 154724" d="M977.211,1384.554s4.535.616,3.47,14.134c0,0-1.381,3.085-3.366.7S973.13,1383.424,977.211,1384.554Z" transform="translate(-958.456 -1364.844)" fill="#004563"/>
          <path id="Trazado_154725" data-name="Trazado 154725" d="M969.877,1382.219c.231-.937.51-1.932-.08-1.928-.1,0-.345.033-.682.081l-.048.007c-.649.094-1.628.247-2.674.389-2.257.028-5.3-.22-5.714-.183-.589.054-.215,1.016.106,1.927s-.214,1.231-.214,1.231c.8,1.548,2.677,1.648,4.5,1.263,2.082.376,4.4.265,5.139-1.583C970.209,1383.424,969.645,1383.155,969.877,1382.219Z" transform="translate(-956.1 -1364.164)" fill="#004563"/>
          <g id="Grupo_128143" data-name="Grupo 128143" transform="translate(1.538)">
            <path id="Trazado_154726" data-name="Trazado 154726" d="M959.488,1373.169s2.073,5.99,7.067,3.212,2.37-14.848-3.486-13.739S959.264,1372.609,959.488,1373.169Z" transform="translate(-957.409 -1361.292)" fill="#f6a36a"/>
            <path id="Trazado_154727" data-name="Trazado 154727" d="M970.56,1370.1s1.136-1.786,1.878.272-1.521,3.146-1.864,2.594S970.56,1370.1,970.56,1370.1Z" transform="translate(-959.266 -1362.396)" fill="#f6a36a"/>
            <path id="Trazado_154728" data-name="Trazado 154728" d="M959.011,1370.783s-1.339-1.64-1.834.49,1.881,2.945,2.156,2.356S959.011,1370.783,959.011,1370.783Z" transform="translate(-957.109 -1362.525)" fill="#f6a36a"/>
            <path id="Trazado_154729" data-name="Trazado 154729" d="M958.811,1371.342s-.865-1.061-1.186.317,1.217,1.9,1.4,1.524A5.147,5.147,0,0,0,958.811,1371.342Z" transform="translate(-957.186 -1362.65)" fill="#f6a36a" opacity="0.38" style="mix-blend-mode: multiply;isolation: isolate"/>
            <path id="Trazado_154730" data-name="Trazado 154730" d="M970.938,1370.6s.866-1.062,1.186.317-1.217,1.905-1.4,1.524A5.127,5.127,0,0,1,970.938,1370.6Z" transform="translate(-959.308 -1362.531)" fill="#f6a36a" opacity="0.38" style="mix-blend-mode: multiply;isolation: isolate"/>
            <path id="Trazado_154731" data-name="Trazado 154731" d="M968.18,1363.806c.53-1.417.186-2.523-2.413-2.727-2.646-.207-5.862.57-6.277,1.089a6.338,6.338,0,0,0-1.4,6.537,2.847,2.847,0,0,1,1.089,1.816c.052,1.037.467-.83.312-1.92s.467-4.617,1.815-4.462c1.011.117,4.026.727,5.718.417a8.255,8.255,0,0,1,1.13,3.733,4.415,4.415,0,0,0,.259,2.7s.1-2.49.83-2.853A28.709,28.709,0,0,0,968.18,1363.806Z" transform="translate(-957.204 -1361.045)" fill="#0a1731"/>
          </g>
          <path id="Trazado_154732" data-name="Trazado 154732" d="M961.484,1381.186a23.2,23.2,0,0,0,.537,2.687,3.607,3.607,0,0,1-.49-1.3A4.594,4.594,0,0,1,961.484,1381.186Z" transform="translate(-956.275 -1364.308)" fill="#1f2b54" opacity="0.4" style="mix-blend-mode: multiply;isolation: isolate"/>
          <path id="Trazado_154733" data-name="Trazado 154733" d="M971.1,1380.82a4.608,4.608,0,0,1-.048,1.387,3.627,3.627,0,0,1-.49,1.3A23.341,23.341,0,0,0,971.1,1380.82Z" transform="translate(-957.751 -1364.249)" fill="#1f2b54" opacity="0.4" style="mix-blend-mode: multiply;isolation: isolate"/>
          <path id="Trazado_154734" data-name="Trazado 154734" d="M963.955,1381.553c.142.8.2,1.577.307,2.379a3.6,3.6,0,0,1-.323-1.168A4.615,4.615,0,0,1,963.955,1381.553Z" transform="translate(-956.673 -1364.368)" fill="#1f2b54" opacity="0.4" style="mix-blend-mode: multiply;isolation: isolate"/>
          <path id="Trazado_154735" data-name="Trazado 154735" d="M967.052,1381.553a6.429,6.429,0,0,1,.055,1.116,6.355,6.355,0,0,1-.131,1.109,6.22,6.22,0,0,1-.054-1.116A6.389,6.389,0,0,1,967.052,1381.553Z" transform="translate(-957.161 -1364.368)" fill="#1f2b54" opacity="0.4" style="mix-blend-mode: multiply;isolation: isolate"/>
          <path id="Trazado_154736" data-name="Trazado 154736" d="M969.125,1381.37a4.557,4.557,0,0,1-.055,1.763,1.214,1.214,0,0,1-.252.539,2.066,2.066,0,0,0,.112-.564c.019-.191.04-.384.051-.577C969.024,1382.146,969.046,1381.759,969.125,1381.37Z" transform="translate(-957.469 -1364.338)" fill="#1f2b54" opacity="0.4" style="mix-blend-mode: multiply;isolation: isolate"/>
        </g>
        <g id="Grupo_128145" data-name="Grupo 128145" transform="translate(0 42.171)">
          <path id="Trazado_154737" data-name="Trazado 154737" d="M975.281,1427.178s4.561,4.206,5.434,3.517a5.508,5.508,0,0,0,2.344-5.637l-.2-1.094-6.172-.335S973.234,1424.947,975.281,1427.178Z" transform="translate(-949.786 -1413.356)" fill="#004563"/>
          <path id="Trazado_154738" data-name="Trazado 154738" d="M949.8,1411.613a11.253,11.253,0,0,1,6.419,2.111c3.525,2.323,15.96,8.015,15.96,8.015l-1.182,3.631s-24.417-7.514-25.625-8.625S945.844,1410.163,949.8,1411.613Z" transform="translate(-944.982 -1411.37)" fill="#0a1731"/>
          <path id="Trazado_154739" data-name="Trazado 154739" d="M957.552,1413.883q2.152.889,4.272,1.847c1.415.635,2.814,1.3,4.218,1.965,1.391.685,2.785,1.367,4.159,2.088a31.755,31.755,0,0,1,4.011,2.363,18.232,18.232,0,0,0-2.047-1.1l-2.091-1.013-4.193-2.01-4.178-2.041Q959.617,1414.96,957.552,1413.883Z" transform="translate(-947.019 -1411.777)" fill="#f9f0ed" opacity="0.42"/>
          <path id="Trazado_154740" data-name="Trazado 154740" d="M962.864,1424.05a25.7,25.7,0,0,1,3.161.743,25.324,25.324,0,0,1,3.056,1.1,25.356,25.356,0,0,1-3.161-.744A25.677,25.677,0,0,1,962.864,1424.05Z" transform="translate(-947.88 -1413.424)" fill="#f9f0ed" opacity="0.42"/>
        </g>
        <g id="Grupo_128146" data-name="Grupo 128146" transform="translate(19.754 22.993)">
          <rect id="Rectángulo_40576" data-name="Rectángulo 40576" width="11.963" height="15.381" fill="#f9f0ed"/>
          <path id="Trazado_154741" data-name="Trazado 154741" d="M976.605,1397.383a1.163,1.163,0,1,1-1.13-1.438A1.312,1.312,0,0,1,976.605,1397.383Z" transform="translate(-969.494 -1389.692)" fill="#cc9a8f"/>
        </g>
        <g id="Grupo_128149" data-name="Grupo 128149" transform="translate(4.531 20.366)">
          <g id="Grupo_128148" data-name="Grupo 128148">
            <g id="Grupo_128147" data-name="Grupo 128147">
              <path id="Trazado_154742" data-name="Trazado 154742" d="M966.528,1398.727s1.605-1.691,2.133-.969-.8,1.028-.8,1.028,3.018.721,3.651.306.78,2.828-4.379,2.346C967.133,1401.438,965.031,1399.646,966.528,1398.727Z" transform="translate(-952.917 -1387.331)" fill="#f6a36a"/>
              <path id="Trazado_154743" data-name="Trazado 154743" d="M956.729,1385.351s-4.14-.451-6.34,13.316c0,0,.5,3.408,2.8,1.49S960.588,1385.18,956.729,1385.351Z" transform="translate(-950.389 -1385.349)" fill="#004563"/>
              <path id="Trazado_154744" data-name="Trazado 154744" d="M952.681,1403.878s.993,1.754,12-2.3l-.76-2.49s-11.389-1.747-12.765.644A2.873,2.873,0,0,0,952.681,1403.878Z" transform="translate(-950.444 -1387.475)" fill="#004563"/>
            </g>
          </g>
          <path id="Trazado_154745" data-name="Trazado 154745" d="M959,1388.056a22.262,22.262,0,0,1-.416,3.568c-.12.587-.251,1.173-.427,1.749a6.949,6.949,0,0,1-.691,1.667,17.18,17.18,0,0,0,.415-1.736l.34-1.751C958.452,1390.386,958.682,1389.217,959,1388.056Z" transform="translate(-951.535 -1385.788)" fill="#1f2b54" opacity="0.4" style="mix-blend-mode: multiply;isolation: isolate"/>
          <path id="Trazado_154746" data-name="Trazado 154746" d="M956.237,1398.5c-.467.434-.95.81-1.4,1.219a7.74,7.74,0,0,0-.643.63,2.563,2.563,0,0,0-.492.761,1.527,1.527,0,0,1,.262-.929,3.162,3.162,0,0,1,.625-.739,4.55,4.55,0,0,1,.775-.557A3.859,3.859,0,0,1,956.237,1398.5Z" transform="translate(-950.925 -1387.479)" fill="#1f2b54" opacity="0.4" style="mix-blend-mode: multiply;isolation: isolate"/>
        </g>
      </g>
    </g>
    <g id="Grupo_128165" data-name="Grupo 128165" transform="translate(944.089 1436.127)">
      <path id="Trazado_154747" data-name="Trazado 154747" d="M976.437,1466.711h0a.743.743,0,0,1-1.011.271l-5.923-3.42a.743.743,0,0,1-.271-1.011h0a.743.743,0,0,1,1.011-.271l5.923,3.42A.742.742,0,0,1,976.437,1466.711Z" transform="translate(-960.473 -1461.233)" fill="#f9f0ed"/>
      <g id="Grupo_128164" data-name="Grupo 128164">
        <path id="Trazado_154748" data-name="Trazado 154748" d="M960.056,1500.685s.515,4.639,5.927,3.35,25.256-13.4,56.955-11.081,36.853,5.154,38.915,6.958,6.958,4.124,6.958,1.8S1019.072,1469.5,960.056,1500.685Z" transform="translate(-959.003 -1465.186)" fill="#1272b2" opacity="0.21" style="mix-blend-mode: multiply;isolation: isolate"/>
        <g id="Grupo_128163" data-name="Grupo 128163">
          <g id="Grupo_128153" data-name="Grupo 128153" transform="translate(50.937 11.609)">
            <g id="Grupo_128152" data-name="Grupo 128152" transform="translate(49.96 11.485)">
              <path id="Trazado_154749" data-name="Trazado 154749" d="M1079.343,1496.531a27.738,27.738,0,0,1,4.332,3.387c.978,1.206,2.341.32,3.564-2.122a21.071,21.071,0,0,1,2.484-4.231c.8-1,1.452-4.625,1.452-4.625s-1.226-1.142-3.2,1.495-4.289,4.435-6.483,3.146S1078.955,1495.038,1079.343,1496.531Z" transform="translate(-1079.205 -1488.622)" fill="#6699c4"/>
              <path id="Trazado_154750" data-name="Trazado 154750" d="M1085.042,1500.471s1.418,1.051,2.647-1.148,5.464-8.443,4.431-10.4c0,0-.624-.775-1.9.1a3.879,3.879,0,0,0-.859.844c-.205.366.359,1.057,1.042,1.345S1087.871,1499.249,1085.042,1500.471Z" transform="translate(-1080.151 -1488.608)" fill="#f9f0ed"/>
              <path id="Trazado_154751" data-name="Trazado 154751" d="M1084.779,1494.81s.154,1.423.995,1.577c0,0,.3-.476-.51-1.775Z" transform="translate(-1080.108 -1489.581)" fill="#f9f0ed"/>
              <path id="Trazado_154752" data-name="Trazado 154752" d="M1086.071,1494.053s.266,1.407,1.115,1.494c0,0,.263-.5-.647-1.73Z" transform="translate(-1080.317 -1489.452)" fill="#f9f0ed"/>
              <path id="Trazado_154753" data-name="Trazado 154753" d="M1087.3,1493.216s.529,1.33,1.38,1.253c0,0,.164-.54-.965-1.573Z" transform="translate(-1080.516 -1489.303)" fill="#f9f0ed"/>
              <path id="Trazado_154754" data-name="Trazado 154754" d="M1085.7,1499.021a.82.82,0,1,1-1.068-.45A.819.819,0,0,1,1085.7,1499.021Z" transform="translate(-1080.002 -1490.212)" fill="#f9f0ed"/>
            </g>
            <path id="Trazado_154755" data-name="Trazado 154755" d="M1049.011,1486.969a16.494,16.494,0,0,0,7.763,4.885c5.016,1.446,17.524,3.791,18.348,4.067s3.162-1.922,1.789-3.985c0,0-25.147-11.837-27.484-11.014S1048.461,1486.557,1049.011,1486.969Z" transform="translate(-1024.206 -1475.872)" fill="#0a1731"/>
            <path id="Trazado_154756" data-name="Trazado 154756" d="M1021.538,1487.115s25.831,1.31,26.657-2.789-3.615-7.113-22.225-9.423C1025.97,1474.9,1015.309,1480.108,1021.538,1487.115Z" transform="translate(-1019.585 -1474.903)" fill="#0a1731"/>
          </g>
          <g id="Grupo_128155" data-name="Grupo 128155" transform="translate(44.605)">
            <g id="Grupo_128154" data-name="Grupo 128154" transform="translate(38.77 19.646)">
              <path id="Trazado_154757" data-name="Trazado 154757" d="M1058.294,1488.6a29.63,29.63,0,0,1,2.926,4.9c.516,1.545,2.077,1.141,4.019-.864a21.2,21.2,0,0,1,3.7-3.344c1.077-.72,2.873-4.1,2.873-4.1s-.768-1.569-3.47.368-5.455,2.914-7.077.86S1058.422,1486.972,1058.294,1488.6Z" transform="translate(-1058.294 -1484.509)" fill="#6699c4"/>
              <path id="Trazado_154758" data-name="Trazado 154758" d="M1062.033,1494.192s.976,1.546,2.844-.214,7.867-6.5,7.546-8.809c0,0-.328-.992-1.8-.571a3.711,3.711,0,0,0-1.078.541c-.312.293-.013,1.18.53,1.707S1065.072,1493.969,1062.033,1494.192Z" transform="translate(-1058.9 -1484.495)" fill="#f9f0ed"/>
              <path id="Trazado_154759" data-name="Trazado 154759" d="M1064.373,1488.078s-.324,1.473.41,1.922c0,0,.437-.369.108-1.948Z" transform="translate(-1059.267 -1485.071)" fill="#f9f0ed"/>
              <path id="Trazado_154760" data-name="Trazado 154760" d="M1065.833,1487.777s-.214,1.5.55,1.88c0,0,.409-.4-.036-1.951Z" transform="translate(-1059.511 -1485.015)" fill="#f9f0ed"/>
              <path id="Trazado_154761" data-name="Trazado 154761" d="M1067.251,1487.369s.056,1.512.875,1.735c0,0,.33-.481-.382-1.908Z" transform="translate(-1059.745 -1484.932)" fill="#f9f0ed"/>
              <path id="Trazado_154762" data-name="Trazado 154762" d="M1063.818,1492.615a.846.846,0,0,1-.771.906.832.832,0,0,1-.847-.823.846.846,0,0,1,.771-.907A.833.833,0,0,1,1063.818,1492.615Z" transform="translate(-1058.927 -1485.677)" fill="#f9f0ed"/>
            </g>
            <path id="Trazado_154763" data-name="Trazado 154763" d="M1024.227,1485.07s19.371-19.158,16.9-22.527-8.375-1.532-22.61,10.676C1018.513,1473.218,1014.852,1484.96,1024.227,1485.07Z" transform="translate(-1012.965 -1461.05)" fill="#004563"/>
            <path id="Trazado_154764" data-name="Trazado 154764" d="M1018.257,1475.109a30.2,30.2,0,0,0-6.229.318c1.1,4.2,2.743,8.185,3.557,12.442,1.98-.03,4.189-.1,6.2-.247C1027.206,1487.228,1016.172,1485.277,1018.257,1475.109Z" transform="translate(-1012.028 -1463.321)" fill="#004563"/>
            <path id="Trazado_154765" data-name="Trazado 154765" d="M1040.9,1466.13a15.07,15.07,0,0,0,3.377,7.256c2.918,3.4,10.734,10.919,11.2,11.506s3.058,0,2.976-2.184c0,0-12.654-20.5-14.656-20.95S1040.686,1465.566,1040.9,1466.13Z" transform="translate(-1016.701 -1461.159)" fill="#004563"/>
          </g>
          <g id="Grupo_128157" data-name="Grupo 128157" transform="translate(0 21.703)">
            <path id="Trazado_154766" data-name="Trazado 154766" d="M978.072,1495.961a6.529,6.529,0,0,1,4.519-.415c2.181.762.876-4.805-1.507-5.485l-4.273,2.189S974.882,1495.606,978.072,1495.961Z" transform="translate(-961.624 -1487.453)" fill="#f6a36a"/>
            <path id="Trazado_154767" data-name="Trazado 154767" d="M978.421,1491.69l-1.61.825s-1.929,3.355,1.26,3.711a7.1,7.1,0,0,1,1.465-.5A28.965,28.965,0,0,0,978.421,1491.69Z" transform="translate(-961.624 -1487.717)" fill="#f6a36a" opacity="0.35" style="mix-blend-mode: multiply;isolation: isolate"/>
            <g id="Grupo_128156" data-name="Grupo 128156">
              <path id="Trazado_154768" data-name="Trazado 154768" d="M975.3,1495.234l-.894-6.647-3.67-.322-.75,2.6-.208-2.693s-5.6,1.253-8,4.655c0,0-.83,7.467,4.646,7.965S975.052,1496.312,975.3,1495.234Z" transform="translate(-959.274 -1487.147)" fill="#f6a36a"/>
              <path id="Trazado_154769" data-name="Trazado 154769" d="M961.467,1493.035s-2.489,1.825-2.655,2.987,1.161,5.892,5.227,7.8c0,0,9.874-1.245,11.368-7.551,0,0,0-.83-.582-.249s-3.983,3.153-5.642,2.987S962.547,1502.66,961.467,1493.035Z" transform="translate(-958.799 -1487.935)" fill="#0a1731"/>
              <path id="Trazado_154770" data-name="Trazado 154770" d="M966.538,1500.32s2.821-2.9,3.153-3.4c0,0,.747.166.249.912s-1.078,1.161-.166,1.659a2.272,2.272,0,0,0,2.739-1.327c.083-.83,2.24-.332,2.987-1s-6.223,6.389-8.961,3.153" transform="translate(-960.053 -1488.564)" fill="#0a1731"/>
              <path id="Trazado_154771" data-name="Trazado 154771" d="M966.142,1489.642s1.494-3.07,1.992-2.655a4.818,4.818,0,0,1,.913,1.659S966.225,1490.389,966.142,1489.642Z" transform="translate(-959.989 -1486.949)" fill="#f6a36a"/>
            </g>
          </g>
          <g id="Grupo_128158" data-name="Grupo 128158" transform="translate(17.864 11.697)">
            <path id="Trazado_154772" data-name="Trazado 154772" d="M1010.341,1475.736a12.253,12.253,0,0,1,3.735-.716c1.38.11,2.376,10.165,2.889,12.591l-2.982.3S1013.3,1477.919,1010.341,1475.736Z" transform="translate(-985.014 -1475.009)" fill="#f4ecd7"/>
            <path id="Trazado_154773" data-name="Trazado 154773" d="M1005.864,1475.645c-1.22,0-20.129,5.313-25.008,12.123a27.937,27.937,0,0,1,2.794,6.17,22.165,22.165,0,0,0,6.033-.477,35.4,35.4,0,0,1,9.169-3.379c3.658-.545,10.671,1.635,10.976-1.634S1007.083,1475.645,1005.864,1475.645Z" transform="translate(-980.237 -1475.112)" fill="#6699c4"/>
            <path id="Trazado_154774" data-name="Trazado 154774" d="M988.867,1488.931c-.346-1.55-.867-3.042-1.292-4.566-.548.32-1.08.647-1.587.982a2.605,2.605,0,0,1,.167.642c.27,2.256,1.135,4.405,1.5,6.653.141.87.217,1.749.308,2.624.493-.053.984-.123,1.476-.2A29.869,29.869,0,0,0,988.867,1488.931Z" transform="translate(-981.068 -1476.525)" fill="#dd5829" opacity="0.33" style="mix-blend-mode: multiply;isolation: isolate"/>
            <path id="Trazado_154775" data-name="Trazado 154775" d="M994.268,1481.057c-.377.165-.754.333-1.129.5.429,2.225,1.338,4.322,1.776,6.553a29.785,29.785,0,0,1,.489,4.515c.633-.26,1.279-.5,1.921-.726C996.623,1488.2,995.969,1484.455,994.268,1481.057Z" transform="translate(-982.227 -1475.989)" fill="#dd5829" opacity="0.33" style="mix-blend-mode: multiply;isolation: isolate"/>
            <path id="Trazado_154776" data-name="Trazado 154776" d="M1010.55,1476.119a2.792,2.792,0,0,1-.175-.431.323.323,0,0,0-.143-.043,16.141,16.141,0,0,0-2.419.558c.7,2.24,2.276,4.312,2.973,6.561a42.646,42.646,0,0,1,1.553,7.377,2.946,2.946,0,0,0,1.221-.51A29.031,29.031,0,0,0,1010.55,1476.119Z" transform="translate(-984.604 -1475.112)" fill="#dd5829" opacity="0.33" style="mix-blend-mode: multiply;isolation: isolate"/>
            <path id="Trazado_154777" data-name="Trazado 154777" d="M1004.193,1482.715c-.712-1.664-1.6-3.1-2.209-4.714-.694.237-1.414.491-2.156.765a51.132,51.132,0,0,1,3.3,11.613c.931-.017,1.974.058,3.024.137A29.2,29.2,0,0,0,1004.193,1482.715Z" transform="translate(-983.311 -1475.494)" fill="#dd5829" opacity="0.33" style="mix-blend-mode: multiply;isolation: isolate"/>
            <path id="Trazado_154778" data-name="Trazado 154778" d="M984.143,1496.15l-1.755.206-2.271-6.09,1.548-1.755.1,1.755Z" transform="translate(-980.117 -1477.197)" fill="#f4ecd7"/>
          </g>
          <g id="Grupo_128162" data-name="Grupo 128162" transform="translate(11.666 1.29)">
            <g id="Grupo_128161" data-name="Grupo 128161">
              <g id="Grupo_128160" data-name="Grupo 128160">
                <g id="Grupo_128159" data-name="Grupo 128159">
                  <path id="Trazado_154779" data-name="Trazado 154779" d="M978.039,1467.806s-3.075.1-3.071-.9,1.679-.2,1.679-.2-2.687-2.97-3.7-3.134,1.4-2.9,6.588,1.566C979.535,1465.136,980.384,1468.247,978.039,1467.806Z" transform="translate(-972.72 -1462.59)" fill="#f6a36a"/>
                  <path id="Trazado_154780" data-name="Trazado 154780" d="M984.7,1490.913s5.371,1.744,11.457-13.959c0,0,.125-4.192-3.365-2.587S979.558,1489.991,984.7,1490.913Z" transform="translate(-974.423 -1464.439)" fill="#6699c4"/>
                  <path id="Trazado_154781" data-name="Trazado 154781" d="M994.907,1473.073s.331-2.2-14.309-7.46l-1.147,2.615s10.52,10.276,13.819,9.4A2.827,2.827,0,0,0,994.907,1473.073Z" transform="translate(-973.811 -1463.08)" fill="#6699c4"/>
                </g>
              </g>
              <path id="Trazado_154782" data-name="Trazado 154782" d="M984.3,1491.949a8.584,8.584,0,0,0,7.548-4.753,66.526,66.526,0,0,0,3.774-7.837s-2.733,7.451-3.384,8.864S989.508,1491.949,984.3,1491.949Z" transform="translate(-974.597 -1465.307)" fill="#dd5829" opacity="0.33" style="mix-blend-mode: multiply;isolation: isolate"/>
            </g>
            <path id="Trazado_154783" data-name="Trazado 154783" d="M979.068,1468.233l1.5-3,1.445.722-1.548,3.406Z" transform="translate(-973.749 -1463.018)" fill="#f4ecd7"/>
          </g>
        </g>
      </g>
    </g>
  </g>
</svg>
