<svg xmlns="http://www.w3.org/2000/svg" width="295" height="290.895" viewBox="0 0 295 290.895">
  <g id="Grupo_129051" data-name="Grupo 129051" transform="translate(-278.719 -30.25)">
    <g id="Grupo_128925" data-name="Grupo 128925" transform="translate(497.998 30.251)">
      <path id="Trazado_188924" data-name="Trazado 188924" d="M430.317,104.234c0,6.208-9.933,11.242-22.194,11.242s-22.185-5.034-22.185-11.242,9.935-11.242,22.185-11.242S430.317,98.022,430.317,104.234Z" transform="translate(-354.624 53.648)" fill="#e2e7e8" style="mix-blend-mode: multiply;isolation: isolate"/>
      <path id="Trazado_188925" data-name="Trazado 188925" d="M384.475,55.142a32.264,32.264,0,0,0-6.633,3.244c1.444,1.774,3.775,3.662,6.135,3.076a21.687,21.687,0,0,0,3.319-1.215c2.132-.9,1.732-1.608,2.255-3.688Z" transform="translate(-365.45 3.034)" fill="#ffccbc"/>
      <path id="Trazado_188926" data-name="Trazado 188926" d="M379.07,64.606c1.3.6,2.37,2.6,2.9,4.611,3.478.327,15.206-7.257,18.873-9.884,2.861-2.022,2.992-4.691,1.052-6.458-2.889-2.592-1.729-3.8-5.471-2.9-3.162.76-2.989,1.4-6.5,4.567-1.849,1.659-10.349,7.409-11.179,9.8Z" transform="translate(-364.245 -4.266)" fill="#ff8500"/>
      <path id="Trazado_188927" data-name="Trazado 188927" d="M395.006,43.629c2.419-2.419,10.218-2.15,11.763,1.515,1.159.869,1.412,6.049-.958,8.087-3.592,8.533-12.733,14.837-12.733,14.837s-9.655-2.837-6.9-7.47C388.945,55.986,387.066,51.613,395.006,43.629Z" transform="translate(-354.962 -14.465)" fill="#ff8500"/>
      <path id="Trazado_188928" data-name="Trazado 188928" d="M413.328,68.7c-.334,4.434-1.559,14.64-1.4,21.224.591,4.151-2.4,5.9-7.021,6.28-5.859.5-15.059-3.2-14.638-9.213.238-3.389.682-14.858.708-25.513,0-.358,0-2.05,0-2.41.026-1.557.329-4.618.488-6.039.339-3.076-1.966-5.883-.781-7.79.594-.972,3.592-3.3,7.4-3.847a10.523,10.523,0,0,1,4.878.395c6.051,2,9.314,4.466,13.53,8.816l-1.246,4.429C414.009,58.915,413.96,60.619,413.328,68.7Z" transform="translate(-348.857 -15.517)" fill="#fea600"/>
      <path id="Trazado_188929" data-name="Trazado 188929" d="M390.288,92.336h9.223a301.935,301.935,0,0,0,1.159-30.975c-.047-1.68-.112-3.366-.185-5.065-.287-6.285-2.4-5.126-2.19-15.159-.486.217,1.124.021.521.229-.958.334-2.064.638-3.108,1.019a9.588,9.588,0,0,0-3.782,2,9.269,9.269,0,0,0-2.858,5.862c-.624,9.65,1.69,28.568,1.264,36.549C390.246,88.613,390.251,90.452,390.288,92.336Z" transform="translate(-350.582 -15.693)" fill="#fea600"/>
      <path id="Trazado_188930" data-name="Trazado 188930" d="M404.992,42.871c.512-.084,3.683,2.763,3.56,2.725a5.182,5.182,0,0,0-5.906,2.784c-2.905,5.929-4.291,28.586-4.576,36.8l-4.118,2.262c.047-1.243-.488-28.537,5.495-40.193C400.149,45.877,402.141,43.289,404.992,42.871Z" transform="translate(-343.909 -13.377)" fill="#0072d4"/>
      <path id="Trazado_188931" data-name="Trazado 188931" d="M399.845,42.463a1.147,1.147,0,0,0-.757-.15c-.986.112-2.758,1.564-4.174,4.546-2.706,5.518-4.092,25.471-4.525,34.852-.239-6.946-2-12.555-1.713-22.767,0-.409.021-.788.044-1.155.021-.259.021-.528.056-.795.741-5.053,1.507-8.767,2.8-11.768,2.4-3.284,3.571-3.221,7.252-3.854C399.443,41.869,399.892,42.36,399.845,42.463Z" transform="translate(-351.007 -15.376)" fill="#0072d4"/>
      <path id="Trazado_188932" data-name="Trazado 188932" d="M412.916,100.626a60.307,60.307,0,0,1-21.757,1.2,265.529,265.529,0,0,1-2.106-33.819v-.061c.18-10.6.717-19.682,1.921-22.437a23.737,23.737,0,0,0,16.531,5.474c-.855,4.35,5.777,14,7.343,13.385-.128,1.344,0,3.747-.21,5.259-1.311,9.106,3.48,9.5,1.547,22.458C416.319,92.593,413.72,95.576,412.916,100.626Z" transform="translate(-350.489 -9.848)" fill="#0072d4"/>
      <path id="Trazado_188933" data-name="Trazado 188933" d="M401.123,38.3l.535,11.723c.075,1.975-7.365,3.555-7.365,3.555a8.25,8.25,0,0,1-.874-3.382,3.143,3.143,0,0,1,.028-.51l1.2-11.083a2.776,2.776,0,0,1,3.08-2.449C399.116,36.3,401.063,36.94,401.123,38.3Z" transform="translate(-344.619 -22.379)" fill="#f2b09e"/>
      <path id="Trazado_188934" data-name="Trazado 188934" d="M404.791,49.593c-.743.83-.393,2.646-1.987,4.427a15.065,15.065,0,0,1-4.927,3.571,3.294,3.294,0,0,1-4.046-.563,23.5,23.5,0,0,1-2.555-5.878,29.63,29.63,0,0,1-.65-12.794c2.094-5.242,5.513-6.383,11.667-5.607C409.313,33.639,410.659,42.974,404.791,49.593Z" transform="translate(-348.901 -27.204)" fill="#ffccbc"/>
      <path id="Trazado_188935" data-name="Trazado 188935" d="M394.861,39.547c1.091,1.437.778,4.258,1.795,5.871,1.2.661,2.435,1.412,2.435,1.412,2.05-1.519,2.482-3.277,3.169-5.948.552-2.244.419-5.485-.584-6.755Z" transform="translate(-342.692 -25.067)" fill="#38201c"/>
      <path id="Trazado_188936" data-name="Trazado 188936" d="M391.317,43.445c5.869,1.617,14.194,1.353,17.111-5.364.019-5.787-9.237-8.162-14.762-4.132C389.337,37.1,389.005,42.8,391.317,43.445Z" transform="translate(-349.329 -27.988)" fill="#38201c"/>
      <g id="Grupo_128917" data-name="Grupo 128917" transform="translate(55.144 16.755)">
        <path id="Trazado_188937" data-name="Trazado 188937" d="M396.454,39.321c1.4-3.359,3.52-1.519,3.585-.154a4.8,4.8,0,0,1-3.391,4.244c-.222.044-.542-1.564-.512-2.155A6.686,6.686,0,0,1,396.454,39.321Z" transform="translate(-396.134 -37.42)" fill="#ffccbc"/>
      </g>
      <path id="Trazado_188938" data-name="Trazado 188938" d="M408.682,94.489c.528,4.693-.395,6.736-.395,6.736l-.229,1.176a23.361,23.361,0,0,1-5.371.575c-2.276-.213-4.537.488-8.454.547s-8.154,0-8.694-1.928c-.6-2.061.617-4.382,6.675-5.221,6.077-.832,7.823-4.768,7.823-4.768Z" transform="translate(-355.34 51.793)"/>
      <path id="Trazado_188939" data-name="Trazado 188939" d="M408.471,70.606c.135,6.593-2.129,8.213-3.445,14.7-.907,4.48-2.4,13.89-1.274,18.324,1.751,6.881,3.534,11.237,1.6,31.51-5.156,4.394-10,2.426-12.771,0,2.844-15.954-1.564-25.723-1.945-28.441-.944-6.967-3.333-35.855-.51-42.953,2.84-7.065,10.548,2.936,16.61,5.305Z" transform="translate(-350.805 11.213)" fill="#1f4895"/>
      <path id="Trazado_188940" data-name="Trazado 188940" d="M411.255,94.626c1.624,4.983.217,16.84-5.471,18.188-1.769.416-6.318.2-7.189-1.512-1.416-2.842,1.762-6.544,3.333-9.459,1-1.823.573-3.436.383-5.406-.259-2.6,2.064-2.106,4.018-2.433Z" transform="translate(-338.174 55.001)"/>
      <path id="Trazado_188941" data-name="Trazado 188941" d="M389.05,57.782l27.591,13.853s2.143,24.861,3.108,31.868c.9,6.654,3.461,12.943,4.7,19.527,1.11,5.869,2.505,16.078,1.225,24.478-1.578,2.19-10.209,1.947-12.827,1.007a47.306,47.306,0,0,0,.425-11.417c-.222-7.594-.865-12.964-4.011-19.934-3.461-7.657-6.362-14.958-7.589-23.365-.521-3.478-1.952-10.034-3.087-15.409-2.844-2.636-6.9-6.088-8.8-10C389.534,63.919,389.01,61.26,389.05,57.782Z" transform="translate(-350.465 6.565)" fill="#0072d4"/>
      <path id="Trazado_188942" data-name="Trazado 188942" d="M388.169,57.087a4.437,4.437,0,0,0-.4-.215,6.5,6.5,0,0,0-1.814-.764c-1.617-.161-6.64.916-7.329,1.1-1.994.512-4.326,2.309-6.081,3.352a1.082,1.082,0,0,1,.093.295c1.54,1.12,3.887-.795,5.02-.907a7.278,7.278,0,0,0,1.194-.327,3.346,3.346,0,0,0-1.033.8,17.1,17.1,0,0,1-1.257,1.55,9.594,9.594,0,0,0,1.412,2.092c.486.65.86,1.386,1.33,2.04a2.235,2.235,0,0,0,.855-.217c.012.019.012.049.023.07,1.55-.021,3.894.481,4.265.157a3.918,3.918,0,0,0,.818-3.19,17.559,17.559,0,0,0,2.3-.514,5.869,5.869,0,0,0,3.195-1.711C390.992,60.427,389.242,57.764,388.169,57.087Z" transform="translate(-372.54 4.303)" fill="#ffccbc"/>
      <g id="Grupo_128920" data-name="Grupo 128920" transform="translate(35.974)">
        <path id="Trazado_188943" data-name="Trazado 188943" d="M398.919,33.133c-7.023,1.912-11.889,6.542-10.847,10.349s7.575,5.357,14.6,3.443,11.88-6.563,10.859-10.366S405.948,31.218,398.919,33.133Z" transform="translate(-387.932 -27.499)" fill="#ff8500"/>
        <path id="Trazado_188944" data-name="Trazado 188944" d="M388.96,42.922a3.919,3.919,0,0,0,1.79,2.816,3.32,3.32,0,0,0,.446.252,2.789,2.789,0,0,0,.393.192A11.237,11.237,0,0,0,395.2,47a1.64,1.64,0,0,0,.4.033,31.409,31.409,0,0,0,5.453-.283c5.813-.741,10.048-3.962,10.478-6.776a4.082,4.082,0,0,0,.016-.736v-.03c-.407-3.574-3.279-6.825-7.114-8.236a4.978,4.978,0,0,0-.788-.252,11.364,11.364,0,0,0-2.943-.449,8.421,8.421,0,0,0-1.164.007c-.173,0-.381.04-.6.061C393.288,30.976,387.978,36.368,388.96,42.922Z" transform="translate(-386.716 -30.251)" fill="#fea600"/>
        <g id="Grupo_128918" data-name="Grupo 128918" transform="translate(8.48 4.412)">
          <path id="Trazado_188945" data-name="Trazado 188945" d="M391.56,44.473a1.64,1.64,0,0,0,.4.033c.589-6.825,4.515-12.062,9.185-11.959,2.725.051,5.137,1.935,6.745,4.9a4.079,4.079,0,0,0,.016-.736v-.03c-1.671-2.746-4.06-4.485-6.75-4.541C396.269,32.042,392.158,37.455,391.56,44.473Z" transform="translate(-391.56 -32.138)" fill="#ff7d1f"/>
        </g>
        <g id="Grupo_128919" data-name="Grupo 128919" transform="translate(4.481)">
          <path id="Trazado_188946" data-name="Trazado 188946" d="M390.242,46.182v-.138c.159-7.741,4.048-14.159,9.106-15.776a8.421,8.421,0,0,0-1.164.007C393.49,32.428,390,38.63,389.849,45.99A2.8,2.8,0,0,0,390.242,46.182Z" transform="translate(-389.849 -30.251)" fill="#ff7d1f"/>
        </g>
      </g>
      <path id="Trazado_188947" data-name="Trazado 188947" d="M376.777,54.811l.641-.483L394.7,64.985l9.554,22.343h-.717Z" transform="translate(-366.874 1.946)" fill="#513029"/>
      <path id="Trazado_188948" data-name="Trazado 188948" d="M394.793,65.537l8.744,21.514-17.31-9.843-9.449-22.673Z" transform="translate(-366.874 2.222)" fill="#381b13"/>
      <path id="Trazado_188949" data-name="Trazado 188949" d="M382.478,57.944c3.417-.729,6.871,1.9,5.927,5.453l-1.141-2.648C385.607,59.914,382.962,58.273,382.478,57.944Z" transform="translate(-359.251 6.618)" fill="#d1cdcf"/>
      <path id="Trazado_188950" data-name="Trazado 188950" d="M382.676,67.566c.316.463,4.611,1.737,5.023,1.652a7.055,7.055,0,0,0,4.992-.089c2.012-.764,5.006-2.132,6-3.821l-3.527-4.179a4.591,4.591,0,0,0-1.8-.774c-.79-.157-3.592-.294-4.277.337.2.517.47.97.568,1.229-1.059.414-2.393.6-3.457,1.019C383.959,63.847,380.853,64.831,382.676,67.566Z" transform="translate(-359.722 9.829)" fill="#ffccbc"/>
      <path id="Trazado_188951" data-name="Trazado 188951" d="M380.72,55.28l13.471,8.147-.4.252a1.689,1.689,0,0,0-1.739.374c-1.884,1.727,4.784,8.222,1.809,12.032-3.693-1.575-14.925-8.673-14.925-8.673s.949-2.66-.848-6.638C376.28,56.813,376.649,52.837,380.72,55.28Z" transform="translate(-366.505 2.217)" fill="#e4e4ea"/>
      <g id="Grupo_128924" data-name="Grupo 128924" transform="translate(12.041 58.52)">
        <g id="Grupo_128921" data-name="Grupo 128921" transform="translate(0 0)">
          <rect id="Rect치ngulo_40831" data-name="Rect치ngulo 40831" width="0.381" height="13.888" transform="matrix(0.505, -0.863, 0.863, 0.505, 0, 0.328)" fill="#aaa9a9"/>
        </g>
        <g id="Grupo_128922" data-name="Grupo 128922" transform="translate(1.039 4.426)">
          <rect id="Rect치ngulo_40832" data-name="Rect치ngulo 40832" width="0.387" height="13.893" transform="translate(0 0.334) rotate(-59.711)" fill="#aaa9a9"/>
        </g>
        <g id="Grupo_128923" data-name="Grupo 128923" transform="translate(2.094 8.845)">
          <path id="Trazado_188952" data-name="Trazado 188952" d="M390.557,66.422l.208-.327-11.976-7.022-.2.325Z" transform="translate(-378.588 -59.074)" fill="#aaa9a9"/>
        </g>
      </g>
      <path id="Trazado_188953" data-name="Trazado 188953" d="M421.144,49.851a30.319,30.319,0,0,1-1.328,13.308c-1.136,3.522-2.576,7.914-4.794,10.94a27.41,27.41,0,0,1-6.5,6.4c-1.7.984-3.459,1.87-5.254,2.7-1.472.668-10.029,5.577-10.029,5.577a10.761,10.761,0,0,1-2.6-1.573c-1.575-1.475-3.98-4.868-2.412-6.138,2.513-2.029,15.914-11.078,16.751-11.5.823-.46,3.634-17.611,4.623-20.684a7.347,7.347,0,0,1,2.475-3.74,5.5,5.5,0,0,1,8.346,2.1A8.175,8.175,0,0,1,421.144,49.851Z" transform="translate(-352.246 -11.866)" fill="#ff8500"/>
    </g>
    <g id="Grupo_129027" data-name="Grupo 129027" transform="translate(278.719 91.963)">
      <g id="Grupo_128952" data-name="Grupo 128952" transform="translate(0 102.113)">
        <g id="Grupo_128927" data-name="Grupo 128927" transform="translate(0 9.885)" style="mix-blend-mode: multiply;isolation: isolate">
          <g id="Grupo_128926" data-name="Grupo 128926">
            <path id="Trazado_188954" data-name="Trazado 188954" d="M481.654,162.264,378.659,221.759l-4.453-2.543-7.393-4.307-13.27-7.694-14.635-8.445-7.4-4.245-13.281-7.693L303.978,178.6l-7.434-4.289-13.224-7.656-4.6-2.647,4.6-2.643,13.224-7.65,7.434-4.289,77.735-44.85Z" transform="translate(-278.719 -104.575)" fill="#e5e5e5"/>
          </g>
        </g>
        <g id="Grupo_128929" data-name="Grupo 128929" transform="translate(9.997 11.739)">
          <g id="Grupo_128928" data-name="Grupo 128928">
            <path id="Trazado_188955" data-name="Trazado 188955" d="M475.925,160.227l-97.916,56.532L283,161.889V159.67l97.909-54.3,95.02,52.641Z" transform="translate(-282.996 -105.368)" fill="#895b1f"/>
          </g>
        </g>
        <g id="Grupo_128931" data-name="Grupo 128931" transform="translate(9.974 9.508)">
          <g id="Grupo_128930" data-name="Grupo 128930">
            <path id="Trazado_188956" data-name="Trazado 188956" d="M475.947,159.268l-97.925,56.548-4.236-2.411-7.021-4.095-12.635-7.315-13.911-8.024-7.016-4.026-12.645-7.322-13.528-7.832-7.087-4.083-12.59-7.266-4.366-2.525,4.366-2.511,12.59-7.266,7.087-4.083,73.889-42.642Z" transform="translate(-282.986 -104.413)" fill="#b78e44"/>
          </g>
        </g>
        <g id="Grupo_128932" data-name="Grupo 128932" transform="translate(21.761 16.297)">
          <path id="Trazado_188957" data-name="Trazado 188957" d="M386.208,107.483l-97.9,56.524-.281-.169,97.893-56.521Z" transform="translate(-288.029 -107.318)" fill="#e2ac62"/>
        </g>
        <g id="Grupo_128933" data-name="Grupo 128933" transform="translate(33.629 23.164)">
          <path id="Trazado_188958" data-name="Trazado 188958" d="M391.3,110.414l-97.914,56.526-.276-.175,97.9-56.508Z" transform="translate(-293.107 -110.256)" fill="#e2ac62"/>
        </g>
        <g id="Grupo_128934" data-name="Grupo 128934" transform="translate(45.509 30)">
          <path id="Trazado_188959" data-name="Trazado 188959" d="M396.371,113.359l-97.9,56.523-.286-.167,97.887-56.534Z" transform="translate(-298.19 -113.181)" fill="#e2ac62"/>
        </g>
        <g id="Grupo_128935" data-name="Grupo 128935" transform="translate(57.389 36.861)">
          <path id="Trazado_188960" data-name="Trazado 188960" d="M401.443,116.287l-97.889,56.524-.281-.17,97.882-56.524Z" transform="translate(-303.273 -116.117)" fill="#e2ac62"/>
        </g>
        <g id="Grupo_128936" data-name="Grupo 128936" transform="translate(69.251 43.718)">
          <path id="Trazado_188961" data-name="Trazado 188961" d="M406.532,119.217l-97.891,56.531-.292-.168,97.9-56.53Z" transform="translate(-308.349 -119.05)" fill="#e2ac62"/>
        </g>
        <g id="Grupo_128937" data-name="Grupo 128937" transform="translate(81.129 50.578)">
          <path id="Trazado_188962" data-name="Trazado 188962" d="M411.618,122.163l-97.9,56.514-.285-.168,97.909-56.523Z" transform="translate(-313.431 -121.986)" fill="#e2ac62"/>
        </g>
        <g id="Grupo_128938" data-name="Grupo 128938" transform="translate(92.995 57.438)">
          <path id="Trazado_188963" data-name="Trazado 188963" d="M416.7,125.076l-97.9,56.531-.292-.169,97.912-56.517Z" transform="translate(-318.508 -124.921)" fill="#e2ac62"/>
        </g>
        <path id="Trazado_188964" data-name="Trazado 188964" d="M298.858,122.751V148.17l-12.565-7.264v-11.5C290.369,127.037,294.637,124.9,298.858,122.751Z" transform="translate(-268.591 -70.384)" fill="#774a15"/>
        <path id="Trazado_188965" data-name="Trazado 188965" d="M298.742,122.67v21.413l-7.073,4.2V122.67Z" transform="translate(-261.402 -70.492)" fill="#895b1f"/>
        <path id="Trazado_188966" data-name="Trazado 188966" d="M313.119,131.084v25.178l-12.629-7.32V131.084Z" transform="translate(-249.606 -59.242)" fill="#774a15"/>
        <path id="Trazado_188967" data-name="Trazado 188967" d="M312.924,131.084v20.94l-7.03,4.238V131.084Z" transform="translate(-242.381 -59.242)" fill="#895b1f"/>
        <path id="Trazado_188968" data-name="Trazado 188968" d="M349.9,130.6v24.844l-12.629-7.314V130.6Z" transform="translate(-200.421 -59.889)" fill="#774a15"/>
        <path id="Trazado_188969" data-name="Trazado 188969" d="M349.717,130.6v20.655l-7.041,4.189V130.6Z" transform="translate(-193.195 -59.889)" fill="#895b1f"/>
        <path id="Trazado_188970" data-name="Trazado 188970" d="M330.833,141.674v24.84L318.2,159.2V141.674Z" transform="translate(-225.922 -45.08)" fill="#774a15"/>
        <path id="Trazado_188971" data-name="Trazado 188971" d="M330.634,141.674v20.661l-7.028,4.179v-24.84Z" transform="translate(-218.695 -45.08)" fill="#895b1f"/>
        <path id="Trazado_188972" data-name="Trazado 188972" d="M355.441,124.389v7.265l12.624,7.32V124.389Z" transform="translate(-176.125 -68.194)" fill="#774a15"/>
        <path id="Trazado_188973" data-name="Trazado 188973" d="M360.843,124.389v14.585l7.03-4.191V124.389Z" transform="translate(-168.902 -68.194)" fill="#895b1f"/>
        <g id="Grupo_128941" data-name="Grupo 128941" transform="translate(9.997 2.098)">
          <g id="Grupo_128940" data-name="Grupo 128940">
            <g id="Grupo_128939" data-name="Grupo 128939">
              <path id="Trazado_188974" data-name="Trazado 188974" d="M475.925,156.1l-97.916,56.521L283,157.767v-2.076l97.909-54.448,95.02,52.77Z" transform="translate(-282.996 -101.243)" fill="#a8732c"/>
            </g>
          </g>
        </g>
        <g id="Grupo_128951" data-name="Grupo 128951" transform="translate(9.997)">
          <g id="Grupo_128943" data-name="Grupo 128943">
            <g id="Grupo_128942" data-name="Grupo 128942">
              <path id="Trazado_188975" data-name="Trazado 188975" d="M475.925,155.212l-97.916,56.54L283,156.891l97.909-56.546Z" transform="translate(-282.996 -100.345)" fill="#e2ac62"/>
            </g>
          </g>
          <g id="Grupo_128944" data-name="Grupo 128944" transform="translate(11.764 6.801)">
            <path id="Trazado_188976" data-name="Trazado 188976" d="M386.208,103.415l-97.9,56.531-.281-.169,97.893-56.522Z" transform="translate(-288.029 -103.255)" fill="#89570e"/>
          </g>
          <g id="Grupo_128945" data-name="Grupo 128945" transform="translate(23.632 13.663)">
            <path id="Trazado_188977" data-name="Trazado 188977" d="M391.3,106.347l-97.914,56.526-.276-.165,97.9-56.516Z" transform="translate(-293.107 -106.191)" fill="#89570e"/>
          </g>
          <g id="Grupo_128946" data-name="Grupo 128946" transform="translate(35.512 20.521)">
            <path id="Trazado_188978" data-name="Trazado 188978" d="M396.371,109.289l-97.9,56.515-.286-.161,97.887-56.517Z" transform="translate(-298.19 -109.125)" fill="#89570e"/>
          </g>
          <g id="Grupo_128947" data-name="Grupo 128947" transform="translate(47.392 27.371)">
            <path id="Trazado_188979" data-name="Trazado 188979" d="M401.443,112.208l-97.889,56.538-.281-.176,97.882-56.514Z" transform="translate(-303.273 -112.056)" fill="#89570e"/>
          </g>
          <g id="Grupo_128948" data-name="Grupo 128948" transform="translate(59.254 34.225)">
            <path id="Trazado_188980" data-name="Trazado 188980" d="M406.532,115.153l-97.891,56.524-.292-.165,97.9-56.523Z" transform="translate(-308.349 -114.989)" fill="#89570e"/>
          </g>
          <g id="Grupo_128949" data-name="Grupo 128949" transform="translate(71.132 41.083)">
            <path id="Trazado_188981" data-name="Trazado 188981" d="M411.618,118.085l-97.9,56.522-.285-.164,97.909-56.52Z" transform="translate(-313.431 -117.923)" fill="#89570e"/>
          </g>
          <g id="Grupo_128950" data-name="Grupo 128950" transform="translate(82.998 47.936)">
            <path id="Trazado_188982" data-name="Trazado 188982" d="M416.7,121.026l-97.9,56.522-.292-.169,97.912-56.524Z" transform="translate(-318.508 -120.855)" fill="#89570e"/>
          </g>
        </g>
        <path id="Trazado_188983" data-name="Trazado 188983" d="M378.022,185.708l-.1-2.27-94.938-54.85.023,2.249Z" transform="translate(-273.012 -62.578)" fill="#774a15"/>
      </g>
      <path id="Trazado_188984" data-name="Trazado 188984" d="M382.989,141.193l.285-.163-49.862-28.874-49.419,28.5,41.8,24.211-.3.165,49.885,28.86,89.309-53.405Z" transform="translate(-271.666 17.561)" fill="#e8e8e8" style="mix-blend-mode: multiply;isolation: isolate"/>
      <g id="Grupo_128988" data-name="Grupo 128988" transform="translate(23.666 55.31)">
        <g id="Grupo_128958" data-name="Grupo 128958" transform="translate(24.525)">
          <g id="Grupo_128953" data-name="Grupo 128953" transform="translate(0 51.774)" style="mix-blend-mode: multiply;isolation: isolate">
            <path id="Trazado_188985" data-name="Trazado 188985" d="M299.338,130.973l49.88,28.865,49.4-28.506-49.869-28.859Z" transform="translate(-299.338 -102.472)" fill="#e8e8e8"/>
          </g>
          <g id="Grupo_128957" data-name="Grupo 128957" transform="translate(20.289)">
            <g id="Grupo_128954" data-name="Grupo 128954" transform="translate(0.001)">
              <path id="Trazado_188986" data-name="Trazado 188986" d="M372.72,92.995l-5.334-3.069L350.771,80.32l-42.752,24.686,16.62,9.594,5.354,3.076,18.335,10.59,42.666-24.674.024-.014Z" transform="translate(-308.019 -80.32)" fill="#ffdda8"/>
            </g>
            <g id="Grupo_128955" data-name="Grupo 128955" transform="translate(1.501 0.865)">
              <path id="Trazado_188987" data-name="Trazado 188987" d="M349.913,80.69l-41.252,23.821,38.809,22.147,41.2-23.575Z" transform="translate(-308.661 -80.69)" fill="#f9c98a"/>
            </g>
            <path id="Trazado_188988" data-name="Trazado 188988" d="M348.328,114.143l-.055,54.9-18.421-10.52-5.329-3.049-16.5-9.421V90.882Z" transform="translate(-308.019 -66.196)" fill="#bc7c46"/>
            <g id="Grupo_128956" data-name="Grupo 128956" transform="translate(40.238 23.272)">
              <path id="Trazado_188989" data-name="Trazado 188989" d="M325.291,114.951l-.056,54.9,42.78-24.461V90.277Z" transform="translate(-325.235 -90.277)" fill="#dda866"/>
            </g>
          </g>
          <path id="Trazado_188990" data-name="Trazado 188990" d="M320.41,98.1v54.889l-5.33-3.049V95.022Z" transform="translate(-278.287 -60.661)" fill="#9b7451"/>
          <path id="Trazado_188991" data-name="Trazado 188991" d="M363.3,87.5l-14.939,8.645-5.354,3.093-22.434,12.942-.167.09-5.343-3.085.155-.081,22.443-12.96,5.345-3.105,14.959-8.608Z" transform="translate(-278.31 -74.824)" fill="#caaf8f"/>
        </g>
        <g id="Grupo_128963" data-name="Grupo 128963" transform="translate(0 25.889)">
          <g id="Grupo_128962" data-name="Grupo 128962">
            <g id="Grupo_128959" data-name="Grupo 128959" transform="translate(0.001)">
              <path id="Trazado_188992" data-name="Trazado 188992" d="M353.532,104.053,348.2,101l-16.617-9.6L288.845,116.09l16.61,9.578,5.336,3.092,18.343,10.573,42.682-24.662.023-.012Z" transform="translate(-288.845 -91.397)" fill="#ffdda8"/>
            </g>
            <g id="Grupo_128960" data-name="Grupo 128960" transform="translate(1.499 0.855)">
              <path id="Trazado_188993" data-name="Trazado 188993" d="M330.726,91.763,289.486,115.6l38.791,22.15,41.2-23.58Z" transform="translate(-289.486 -91.763)" fill="#f9c98a"/>
            </g>
            <path id="Trazado_188994" data-name="Trazado 188994" d="M329.134,125.206l-.043,54.893-18.408-10.5-5.352-3.046-16.486-9.426V101.962Z" transform="translate(-288.845 -77.27)" fill="#bc7c46"/>
            <g id="Grupo_128961" data-name="Grupo 128961" transform="translate(40.236 23.279)">
              <path id="Trazado_188995" data-name="Trazado 188995" d="M306.114,126.007l-.054,54.9,42.778-24.454v-55.1Z" transform="translate(-306.06 -101.357)" fill="#dda866"/>
            </g>
          </g>
          <path id="Trazado_188996" data-name="Trazado 188996" d="M301.251,109.175v54.891l-5.352-3.046V106.1Z" transform="translate(-279.413 -71.738)" fill="#9b7451"/>
          <path id="Trazado_188997" data-name="Trazado 188997" d="M344.118,98.559l-14.934,8.663-5.35,3.1-22.457,12.945-.144.081-5.348-3.083.155-.09L318.5,107.222l5.334-3.1,14.952-8.611Z" transform="translate(-279.43 -85.903)" fill="#caaf8f"/>
        </g>
        <g id="Grupo_128969" data-name="Grupo 128969" transform="translate(66.042 24.365)">
          <g id="Grupo_128964" data-name="Grupo 128964" transform="translate(0 51.776)" style="mix-blend-mode: multiply;isolation: isolate">
            <path id="Trazado_188998" data-name="Trazado 188998" d="M317.1,141.387l49.878,28.881,49.4-28.5L366.518,112.9Z" transform="translate(-317.102 -112.898)" fill="#e8e8e8"/>
          </g>
          <g id="Grupo_128968" data-name="Grupo 128968" transform="translate(20.297)">
            <g id="Grupo_128965" data-name="Grupo 128965">
              <path id="Trazado_188999" data-name="Trazado 188999" d="M390.48,103.406l-5.331-3.059-16.622-9.6-42.74,24.683,16.6,9.592,5.352,3.083,18.345,10.585,42.682-24.667.021-.014Z" transform="translate(-325.786 -90.745)" fill="#ffdda8"/>
            </g>
            <g id="Grupo_128966" data-name="Grupo 128966" transform="translate(1.479 0.86)">
              <path id="Trazado_189000" data-name="Trazado 189000" d="M367.68,91.113l-41.261,23.823,38.814,22.154,41.214-23.575Z" transform="translate(-326.419 -91.113)" fill="#f9c98a"/>
            </g>
            <path id="Trazado_189001" data-name="Trazado 189001" d="M366.08,124.566l-.053,54.893-18.417-10.5-5.35-3.054-16.474-9.419V101.306Z" transform="translate(-325.786 -76.623)" fill="#bc7c46"/>
            <g id="Grupo_128967" data-name="Grupo 128967" transform="translate(40.228 23.276)">
              <path id="Trazado_189002" data-name="Trazado 189002" d="M343.063,125.364l-.065,54.9L385.785,155.8V100.7Z" transform="translate(-342.998 -100.704)" fill="#dda866"/>
            </g>
          </g>
          <path id="Trazado_189003" data-name="Trazado 189003" d="M338.185,108.52v54.9l-5.35-3.054V105.446Z" transform="translate(-296.063 -71.087)" fill="#9b7451"/>
          <path id="Trazado_189004" data-name="Trazado 189004" d="M381.068,97.913l-14.948,8.654-5.332,3.093-22.466,12.95-.148.09-5.35-3.089.146-.083,22.471-12.961,5.348-3.1,14.948-8.616Z" transform="translate(-296.077 -85.252)" fill="#caaf8f"/>
        </g>
        <g id="Grupo_128973" data-name="Grupo 128973" transform="translate(41.497 50.252)">
          <g id="Grupo_128970" data-name="Grupo 128970" transform="translate(0.001)">
            <path id="Trazado_189005" data-name="Trazado 189005" d="M371.3,114.484l-5.324-3.062-16.618-9.6L306.6,126.511l16.625,9.585,5.35,3.085,18.333,10.58L389.585,125.1l.03-.023Z" transform="translate(-306.6 -101.821)" fill="#ffdda8"/>
          </g>
          <g id="Grupo_128971" data-name="Grupo 128971" transform="translate(1.504 0.874)">
            <path id="Trazado_189006" data-name="Trazado 189006" d="M348.5,102.2l-41.256,23.816,38.8,22.147,41.207-23.585Z" transform="translate(-307.243 -102.195)" fill="#f9c98a"/>
          </g>
          <path id="Trazado_189007" data-name="Trazado 189007" d="M346.907,135.635l-.05,54.9-18.408-10.51-5.343-3.061-16.506-9.41V112.385Z" transform="translate(-306.6 -87.694)" fill="#bc7c46"/>
          <g id="Grupo_128972" data-name="Grupo 128972" transform="translate(40.257 23.286)">
            <path id="Trazado_189008" data-name="Trazado 189008" d="M323.875,136.439l-.052,54.9L366.6,166.891V111.784Z" transform="translate(-323.824 -111.784)" fill="#dda866"/>
          </g>
        </g>
        <path id="Trazado_189009" data-name="Trazado 189009" d="M319.005,119.6v54.9l-5.343-3.061V116.522Z" transform="translate(-255.659 -31.911)" fill="#9b7451"/>
        <path id="Trazado_189010" data-name="Trazado 189010" d="M361.88,108.991l-14.934,8.663-5.334,3.09-22.459,12.944-.153.083-5.355-3.083.158-.085,22.454-12.949,5.354-3.105,14.943-8.62Z" transform="translate(-255.681 -46.076)" fill="#caaf8f"/>
        <g id="Grupo_128980" data-name="Grupo 128980" transform="translate(98.293 79.696)">
          <g id="Grupo_128979" data-name="Grupo 128979">
            <g id="Grupo_128974" data-name="Grupo 128974">
              <path id="Trazado_189011" data-name="Trazado 189011" d="M350.465,131.234l-19.565,11.3V125.716l19.565-11.3Z" transform="translate(-330.9 -114.419)" fill="#e5e0dc"/>
            </g>
            <path id="Trazado_189012" data-name="Trazado 189012" d="M347.545,117.649,331.691,126.8v-1.88l15.854-9.153Z" transform="translate(-329.843 -112.61)" fill="#4f2e16"/>
            <g id="Grupo_128975" data-name="Grupo 128975" transform="translate(1.849 7.587)">
              <path id="Trazado_189013" data-name="Trazado 189013" d="M347.545,118.506l-15.854,9.145v-.817l15.854-9.169Z" transform="translate(-331.691 -117.665)" fill="#b2aeab"/>
            </g>
            <g id="Grupo_128976" data-name="Grupo 128976" transform="translate(1.849 9.8)">
              <path id="Trazado_189014" data-name="Trazado 189014" d="M347.545,119.453,331.691,128.6v-.833l15.854-9.152Z" transform="translate(-331.691 -118.612)" fill="#b2aeab"/>
            </g>
            <g id="Grupo_128977" data-name="Grupo 128977" transform="translate(1.849 12.189)">
              <path id="Trazado_189015" data-name="Trazado 189015" d="M347.545,120.459l-15.854,9.152v-.833l15.854-9.145Z" transform="translate(-331.691 -119.634)" fill="#b2aeab"/>
            </g>
            <g id="Grupo_128978" data-name="Grupo 128978" transform="translate(1.849 14.394)">
              <path id="Trazado_189016" data-name="Trazado 189016" d="M347.545,121.411l-15.854,9.145v-.832l15.854-9.146Z" transform="translate(-331.691 -120.578)" fill="#b2aeab"/>
            </g>
          </g>
        </g>
        <g id="Grupo_128987" data-name="Grupo 128987" transform="translate(145.55 54.472)">
          <g id="Grupo_128986" data-name="Grupo 128986">
            <g id="Grupo_128981" data-name="Grupo 128981">
              <path id="Trazado_189017" data-name="Trazado 189017" d="M370.692,120.447l-19.572,11.29V114.923l19.572-11.3Z" transform="translate(-351.12 -103.627)" fill="#e5e0dc"/>
            </g>
            <path id="Trazado_189018" data-name="Trazado 189018" d="M367.767,106.86,351.916,116v-1.88l15.851-9.141Z" transform="translate(-350.056 -101.813)" fill="#4f2e16"/>
            <g id="Grupo_128982" data-name="Grupo 128982" transform="translate(1.86 7.595)">
              <path id="Trazado_189019" data-name="Trazado 189019" d="M367.767,107.7l-15.851,9.152v-.827l15.851-9.151Z" transform="translate(-351.916 -106.876)" fill="#b2aeab"/>
            </g>
            <g id="Grupo_128983" data-name="Grupo 128983" transform="translate(1.86 9.808)">
              <path id="Trazado_189020" data-name="Trazado 189020" d="M367.767,108.656,351.916,117.8v-.834l15.851-9.143Z" transform="translate(-351.916 -107.823)" fill="#b2aeab"/>
            </g>
            <g id="Grupo_128984" data-name="Grupo 128984" transform="translate(1.86 12.182)">
              <path id="Trazado_189021" data-name="Trazado 189021" d="M367.767,109.678l-15.851,9.145v-.841l15.851-9.143Z" transform="translate(-351.916 -108.839)" fill="#b2aeab"/>
            </g>
            <g id="Grupo_128985" data-name="Grupo 128985" transform="translate(1.86 14.395)">
              <path id="Trazado_189022" data-name="Trazado 189022" d="M367.767,110.61l-15.851,9.151v-.824l15.851-9.152Z" transform="translate(-351.916 -109.786)" fill="#b2aeab"/>
            </g>
          </g>
        </g>
      </g>
      <g id="Grupo_129024" data-name="Grupo 129024" transform="translate(23.666 0)">
        <g id="Grupo_128994" data-name="Grupo 128994" transform="translate(24.525)">
          <g id="Grupo_128989" data-name="Grupo 128989" transform="translate(0 51.772)" style="mix-blend-mode: multiply;isolation: isolate">
            <path id="Trazado_189023" data-name="Trazado 189023" d="M299.338,107.315l49.88,28.861,49.4-28.5L348.753,78.806Z" transform="translate(-299.338 -78.806)" fill="#e8e8e8"/>
          </g>
          <g id="Grupo_128993" data-name="Grupo 128993" transform="translate(20.289)">
            <g id="Grupo_128990" data-name="Grupo 128990" transform="translate(0.001)">
              <path id="Trazado_189024" data-name="Trazado 189024" d="M372.72,69.32l-5.334-3.062-16.615-9.6L308.019,81.348l16.62,9.578,5.354,3.092,18.335,10.576,42.666-24.667.024-.007Z" transform="translate(-308.019 -56.655)" fill="#ffdda8"/>
            </g>
            <g id="Grupo_128991" data-name="Grupo 128991" transform="translate(1.501 0.862)">
              <path id="Trazado_189025" data-name="Trazado 189025" d="M349.913,57.024l-41.252,23.83,38.809,22.14,41.2-23.568Z" transform="translate(-308.661 -57.024)" fill="#f9c98a"/>
            </g>
            <path id="Trazado_189026" data-name="Trazado 189026" d="M348.328,90.464l-.055,54.895-18.421-10.5-5.329-3.047-16.5-9.426V67.22Z" transform="translate(-308.019 -42.527)" fill="#bc7c46"/>
            <g id="Grupo_128992" data-name="Grupo 128992" transform="translate(40.238 23.279)">
              <path id="Trazado_189027" data-name="Trazado 189027" d="M325.291,91.268l-.056,54.9,42.78-24.466V66.615Z" transform="translate(-325.235 -66.615)" fill="#dda866"/>
            </g>
          </g>
          <path id="Trazado_189028" data-name="Trazado 189028" d="M320.41,74.429v54.892l-5.33-3.047V71.36Z" transform="translate(-278.287 -36.992)" fill="#9b7451"/>
          <path id="Trazado_189029" data-name="Trazado 189029" d="M363.3,63.826l-14.939,8.653-5.354,3.1L320.573,88.522l-.167.082-5.343-3.076.155-.1,22.443-12.952,5.345-3.105,14.959-8.609Z" transform="translate(-278.31 -51.16)" fill="#caaf8f"/>
        </g>
        <g id="Grupo_128999" data-name="Grupo 128999" transform="translate(0 25.878)">
          <g id="Grupo_128998" data-name="Grupo 128998">
            <g id="Grupo_128995" data-name="Grupo 128995" transform="translate(0.001)">
              <path id="Trazado_189030" data-name="Trazado 189030" d="M353.532,80.4,348.2,77.333l-16.617-9.606-42.738,24.7L305.456,102l5.336,3.092,18.343,10.595L371.816,91.01l.023-.016Z" transform="translate(-288.845 -67.727)" fill="#ffdda8"/>
            </g>
            <g id="Grupo_128996" data-name="Grupo 128996" transform="translate(1.499 0.876)">
              <path id="Trazado_189031" data-name="Trazado 189031" d="M330.726,68.1l-41.24,23.825,38.791,22.136,41.2-23.571Z" transform="translate(-289.486 -68.102)" fill="#f9c98a"/>
            </g>
            <path id="Trazado_189032" data-name="Trazado 189032" d="M329.134,101.552l-.043,54.883-18.408-10.516-5.352-3.04-16.486-9.409V78.3Z" transform="translate(-288.845 -53.594)" fill="#bc7c46"/>
            <g id="Grupo_128997" data-name="Grupo 128997" transform="translate(40.236 23.283)">
              <path id="Trazado_189033" data-name="Trazado 189033" d="M306.114,102.361l-.054,54.887L348.838,132.8V77.689Z" transform="translate(-306.06 -77.689)" fill="#dda866"/>
            </g>
          </g>
          <path id="Trazado_189034" data-name="Trazado 189034" d="M301.251,85.5v54.879l-5.352-3.04V82.437Z" transform="translate(-279.413 -48.057)" fill="#9b7451"/>
          <path id="Trazado_189035" data-name="Trazado 189035" d="M344.118,74.906l-14.934,8.647-5.35,3.1L301.377,99.6l-.144.091-5.348-3.077.155-.106L318.5,83.553l5.334-3.1,14.952-8.618Z" transform="translate(-279.43 -62.231)" fill="#caaf8f"/>
        </g>
        <g id="Grupo_129005" data-name="Grupo 129005" transform="translate(66.042 24.365)">
          <g id="Grupo_129000" data-name="Grupo 129000" transform="translate(0 51.767)" style="mix-blend-mode: multiply;isolation: isolate">
            <path id="Trazado_189036" data-name="Trazado 189036" d="M317.1,117.738,366.979,146.6l49.4-28.5L366.518,89.229Z" transform="translate(-317.102 -89.229)" fill="#e8e8e8"/>
          </g>
          <g id="Grupo_129004" data-name="Grupo 129004" transform="translate(20.297)">
            <g id="Grupo_129001" data-name="Grupo 129001">
              <path id="Trazado_189037" data-name="Trazado 189037" d="M390.48,79.731l-5.331-3.059L368.526,67.08l-42.74,24.695,16.6,9.571,5.352,3.083,18.345,10.59,42.682-24.665.021-.021Z" transform="translate(-325.786 -67.08)" fill="#ffdda8"/>
            </g>
            <g id="Grupo_129002" data-name="Grupo 129002" transform="translate(1.479 0.872)">
              <path id="Trazado_189038" data-name="Trazado 189038" d="M367.68,67.453,326.419,91.276l38.814,22.136,41.214-23.578Z" transform="translate(-326.419 -67.453)" fill="#f9c98a"/>
            </g>
            <path id="Trazado_189039" data-name="Trazado 189039" d="M366.08,100.89l-.053,54.895-18.417-10.508-5.35-3.051-16.474-9.42V77.647Z" transform="translate(-325.786 -52.95)" fill="#bc7c46"/>
            <g id="Grupo_129003" data-name="Grupo 129003" transform="translate(40.228 23.274)">
              <path id="Trazado_189040" data-name="Trazado 189040" d="M343.063,101.7,343,156.6l42.787-24.459v-55.1Z" transform="translate(-342.998 -77.038)" fill="#dda866"/>
            </g>
          </g>
          <path id="Trazado_189041" data-name="Trazado 189041" d="M338.185,84.856v54.891l-5.35-3.051V81.781Z" transform="translate(-296.063 -47.422)" fill="#9b7451"/>
          <path id="Trazado_189042" data-name="Trazado 189042" d="M381.068,74.244,366.12,82.905l-5.332,3.1L338.323,98.942l-.148.09-5.35-3.081.146-.093,22.471-12.953,5.348-3.1,14.948-8.624Z" transform="translate(-296.077 -61.592)" fill="#caaf8f"/>
        </g>
        <g id="Grupo_129009" data-name="Grupo 129009" transform="translate(41.497 50.252)">
          <g id="Grupo_129006" data-name="Grupo 129006" transform="translate(0.001)">
            <path id="Trazado_189043" data-name="Trazado 189043" d="M371.3,90.824l-5.324-3.076-16.618-9.592L306.6,102.844l16.625,9.578,5.35,3.092L346.908,126.1l42.677-24.674.03-.014Z" transform="translate(-306.6 -78.156)" fill="#ffdda8"/>
          </g>
          <g id="Grupo_129007" data-name="Grupo 129007" transform="translate(1.504 0.853)">
            <path id="Trazado_189044" data-name="Trazado 189044" d="M348.5,78.521l-41.256,23.835,38.8,22.152,41.207-23.582Z" transform="translate(-307.243 -78.521)" fill="#f9c98a"/>
          </g>
          <path id="Trazado_189045" data-name="Trazado 189045" d="M346.907,111.977l-.05,54.888-18.408-10.508-5.343-3.054L306.6,143.888V88.719Z" transform="translate(-306.6 -64.031)" fill="#bc7c46"/>
          <g id="Grupo_129008" data-name="Grupo 129008" transform="translate(40.257 23.272)">
            <path id="Trazado_189046" data-name="Trazado 189046" d="M323.875,112.78l-.052,54.9L366.6,143.217v-55.1Z" transform="translate(-323.824 -88.113)" fill="#dda866"/>
          </g>
        </g>
        <path id="Trazado_189047" data-name="Trazado 189047" d="M319.005,95.937v54.881l-5.343-3.054v-54.9Z" transform="translate(-255.659 -8.24)" fill="#9b7451"/>
        <path id="Trazado_189048" data-name="Trazado 189048" d="M361.88,85.336l-14.934,8.64-5.334,3.112-22.459,12.938-.153.087-5.355-3.076.158-.1,22.454-12.959,5.354-3.1,14.943-8.618Z" transform="translate(-255.681 -22.416)" fill="#caaf8f"/>
        <g id="Grupo_129016" data-name="Grupo 129016" transform="translate(98.293 79.698)">
          <g id="Grupo_129015" data-name="Grupo 129015">
            <g id="Grupo_129010" data-name="Grupo 129010">
              <path id="Trazado_189049" data-name="Trazado 189049" d="M350.465,107.573,330.9,118.862V102.047l19.565-11.292Z" transform="translate(-330.9 -90.755)" fill="#e5e0dc"/>
            </g>
            <path id="Trazado_189050" data-name="Trazado 189050" d="M347.545,93.981l-15.854,9.143v-1.878l15.854-9.137Z" transform="translate(-329.843 -88.944)" fill="#4f2e16"/>
            <g id="Grupo_129011" data-name="Grupo 129011" transform="translate(1.849 7.599)">
              <path id="Trazado_189051" data-name="Trazado 189051" d="M347.545,94.825l-15.854,9.153v-.826l15.854-9.145Z" transform="translate(-331.691 -94.006)" fill="#b2aeab"/>
            </g>
            <g id="Grupo_129012" data-name="Grupo 129012" transform="translate(1.849 9.809)">
              <path id="Trazado_189052" data-name="Trazado 189052" d="M347.545,95.788l-15.854,9.137v-.841l15.854-9.132Z" transform="translate(-331.691 -94.952)" fill="#b2aeab"/>
            </g>
            <g id="Grupo_129013" data-name="Grupo 129013" transform="translate(1.849 12.179)">
              <path id="Trazado_189053" data-name="Trazado 189053" d="M347.545,96.806l-15.854,9.146v-.834l15.854-9.151Z" transform="translate(-331.691 -95.966)" fill="#b2aeab"/>
            </g>
            <g id="Grupo_129014" data-name="Grupo 129014" transform="translate(1.849 14.407)">
              <path id="Trazado_189054" data-name="Trazado 189054" d="M347.545,97.736l-15.854,9.145v-.826l15.854-9.135Z" transform="translate(-331.691 -96.919)" fill="#b2aeab"/>
            </g>
          </g>
        </g>
        <g id="Grupo_129023" data-name="Grupo 129023" transform="translate(145.55 54.467)">
          <g id="Grupo_129022" data-name="Grupo 129022">
            <g id="Grupo_129017" data-name="Grupo 129017">
              <path id="Trazado_189055" data-name="Trazado 189055" d="M370.692,96.784,351.12,108.073V91.26l19.572-11.3Z" transform="translate(-351.12 -79.96)" fill="#e5e0dc"/>
            </g>
            <path id="Trazado_189056" data-name="Trazado 189056" d="M367.767,83.192l-15.851,9.143v-1.87l15.851-9.151Z" transform="translate(-350.056 -78.149)" fill="#4f2e16"/>
            <g id="Grupo_129018" data-name="Grupo 129018" transform="translate(1.86 7.607)">
              <path id="Trazado_189057" data-name="Trazado 189057" d="M367.767,84.03l-15.851,9.145v-.809l15.851-9.151Z" transform="translate(-351.916 -83.214)" fill="#b2aeab"/>
            </g>
            <g id="Grupo_129019" data-name="Grupo 129019" transform="translate(1.86 9.814)">
              <path id="Trazado_189058" data-name="Trazado 189058" d="M367.767,84.98l-15.851,9.146V93.3l15.851-9.141Z" transform="translate(-351.916 -84.159)" fill="#b2aeab"/>
            </g>
            <g id="Grupo_129020" data-name="Grupo 129020" transform="translate(1.86 12.194)">
              <path id="Trazado_189059" data-name="Trazado 189059" d="M367.767,86.008l-15.851,9.147v-.842l15.851-9.135Z" transform="translate(-351.916 -85.177)" fill="#b2aeab"/>
            </g>
            <g id="Grupo_129021" data-name="Grupo 129021" transform="translate(1.86 14.397)">
              <path id="Trazado_189060" data-name="Trazado 189060" d="M367.767,86.945,351.916,96.1v-.827l15.851-9.152Z" transform="translate(-351.916 -86.12)" fill="#b2aeab"/>
            </g>
          </g>
        </g>
      </g>
      <g id="Grupo_129025" data-name="Grupo 129025" transform="translate(23.342 63.296)" opacity="0.4">
        <path id="Trazado_189061" data-name="Trazado 189061" d="M370.983,131.234l-82.277-47.5v82.908l82.277,47.495Z" transform="translate(-288.706 -83.737)" fill="#fff"/>
      </g>
      <g id="Grupo_129026" data-name="Grupo 129026" transform="translate(105.619 60.404)" opacity="0.6">
        <path id="Trazado_189062" data-name="Trazado 189062" d="M323.909,132.889,411.292,82.5v82.906l-87.383,50.389Z" transform="translate(-323.909 -82.5)" fill="#fff"/>
      </g>
    </g>
  </g>
</svg>
