<svg xmlns="http://www.w3.org/2000/svg" width="178.153" height="178.157" viewBox="0 0 178.153 178.157">
  <g id="Grupo_129613" data-name="Grupo 129613" transform="translate(-786.531 -4806.336)">
    <ellipse id="Elipse_5043" data-name="Elipse 5043" cx="89.076" cy="89.078" rx="89.076" ry="89.078" transform="translate(786.531 4806.336)" fill="#fff"/>
    <g id="Grupo_129602" data-name="Grupo 129602">
      <g id="Grupo_128715" data-name="Grupo 128715" transform="translate(1410.29 4680.524)">
        <path id="Trazado_188535" data-name="Trazado 188535" d="M-547.817,263.456c-.827.006-1.656-.019-2.481.028-.541.031-.627-.209-.621-.674.02-1.659.024-3.318,0-4.976-.008-.493.129-.663.64-.65,1.368.033,2.737.017,4.107.008a3.553,3.553,0,0,0,3.513-2.318,3.606,3.606,0,0,0-.789-4.148c-1.114-1.133-2.271-2.224-3.449-3.372,3.62-3.616,7.166-7.143,10.686-10.7.4-.4.586-.264.892.052.909.939,1.845,1.85,2.761,2.782a3.648,3.648,0,0,0,4.268.966,3.646,3.646,0,0,0,2.355-3.693c-.014-1.308.018-2.616-.013-3.923-.013-.531.137-.714.693-.711q7.115.031,14.231,0c.629,0,.732.22.717.771-.036,1.243,0,2.488-.013,3.732a3.774,3.774,0,0,0,2.33,3.817,3.766,3.766,0,0,0,4.418-1.058c.882-.876,1.771-1.745,2.628-2.645.339-.356.543-.478.962-.054q5.037,5.1,10.128,10.152c.389.387.382.6-.008.969-.972.92-1.907,1.878-2.843,2.835a3.6,3.6,0,0,0-.878,4.2,3.621,3.621,0,0,0,3.593,2.349c1.56,0,3.12-.008,4.68-.013v15.7c-1.624,0-3.247-.032-4.87,0a3.514,3.514,0,0,0-3.362,2.246,3.538,3.538,0,0,0,.649,4.078c.969,1.056,2,2.06,3.033,3.05.389.372.393.585.005.97q-5.088,5.053-10.132,10.149c-.339.342-.533.392-.892.012-.986-1.041-1.99-2.068-3.042-3.041A3.768,3.768,0,0,0-509.9,291.4a2.1,2.1,0,0,0-.01,2.255,9.41,9.41,0,0,1,.538,1.09c-2.173,0-4.238.033-6.3-.018-.72-.018-.908.182-.9.9.032,4.721.019,9.442.016,14.163,0,2.591-1.145,3.749-3.706,3.749q-25.979,0-51.959,0c-2.531,0-3.672-1.144-3.674-3.672,0-4.721-.022-9.443.019-14.163.007-.819-.244-1-1.014-.977-2.026.054-4.054.018-6.218.018.655-1.313,1.25-2.5,1.841-3.689,1.062-2.134,2.175-4.244,3.168-6.41a3.672,3.672,0,0,1,3.9-2.414c1.4.083,1.4.016,1.4-1.361q0-6.891,0-13.781c0-2.4,1.189-3.613,3.552-3.616q7.4-.01,14.8,0c2.319,0,3.5,1.213,3.541,3.547a10.177,10.177,0,0,0,.105,2.651c2.887.11,5.775.007,8.662.057.592.01.555-.334.566-.737.075-2.731-.079-5.456-.217-8.181a3.236,3.236,0,0,1,1.018-2.749,2.96,2.96,0,0,1,2.618-1.113,1.566,1.566,0,0,0,1.623-1c3.415-6.6,8.832-10.543,16.177-11.371a20.213,20.213,0,0,1,20.4,10.847,19.646,19.646,0,0,1,2.415,9.648,20.488,20.488,0,0,1-14.944,19.746c-1.371.391-1.391.376-.72,1.665.321.616.438,1.54,1.045,1.753.629.221,1.034-.68,1.575-1.039a7.12,7.12,0,0,1,9.175.881c1.006.992,1.007.993,2.014-.016,1.487-1.488,2.958-2.992,4.465-4.458.545-.53.642-.97.049-1.509a7.918,7.918,0,0,1-.786-.962,7.212,7.212,0,0,1,3.527-11.384,7.526,7.526,0,0,1,2.464-.174c.791.025,1.07-.3,1.061-1.075-.027-2.233-.006-4.466-.011-6.7,0-1.23-.077-1.353-1.3-1.294a6.6,6.6,0,0,1-5.518-2.313,7.186,7.186,0,0,1-.255-9.237c.219-.274.432-.552.655-.823.709-.862.713-.865-.109-1.69q-2.225-2.237-4.457-4.467c-.9-.9-.9-.9-1.784-.018a6.988,6.988,0,0,1-9.306.793,6.831,6.831,0,0,1-2.953-5.72c-.03-1.42-.017-1.422-1.436-1.423-2.1,0-4.2-.005-6.3,0-1.059,0-1.1.046-1.124,1.049-.125,4.31-2.726,7.121-7.023,7.461a6.271,6.271,0,0,1-4.295-1.321,10.613,10.613,0,0,1-1.335-1.082c-.542-.561-.934-.425-1.424.081-1.486,1.533-3.009,3.03-4.517,4.542-.969.971-.964.967-.023,1.941a6.881,6.881,0,0,1,1.923,6.843,5.855,5.855,0,0,1-1.447,2.763,6.246,6.246,0,0,1-5.424,2.627c-1.439-.028-1.428,0-1.453,1.5C-547.537,262.5-547.389,263.041-547.817,263.456Z" transform="translate(0 -45.586)"/>
        <path id="Trazado_188536" data-name="Trazado 188536" d="M-533.4,174.162a.859.859,0,0,1,0,.1c-.218,1.878-.017,3.18,2.233,4.042,2.657,1.017,3.869,3.569,4.018,6.454.074,1.432-.008,2.871.034,4.3.017.576-.206.669-.718.678-2.426.044-2.42.059-2.428-2.32,0-.988.029-1.982-.068-2.962a4.514,4.514,0,0,0-4.31-4.1c-1.461-.068-2.928,0-4.392-.039-.543-.014-.625.23-.616.688.023,1.116.006,2.232.008,3.349.006,3.39,1.719,5.2,5.08,5.384a7.747,7.747,0,0,1,6.979,5.211,7.519,7.519,0,0,1,.444,2.433c.011,2.424-.008,4.848.021,7.272.006.539-.141.709-.689.7-1.623-.035-3.247.014-4.87-.026-.6-.015-.751.184-.738.761.037,1.626,0,3.253.023,4.88.008.48-.1.643-.619.656-2.489.065-2.489.084-2.489-2.41,0-1.148-.013-2.3.007-3.445.007-.416-.123-.577-.546-.716a7.812,7.812,0,0,1-5.732-7.963c0-1.212.026-2.425-.013-3.636-.017-.519.154-.673.646-.627.817.077,1.874-.338,2.384.178.387.391.1,1.453.111,2.216.021.988-.024,1.983.085,2.961a4.574,4.574,0,0,0,4.394,4.023c1.4.043,2.8-.008,4.2.025.517.012.731-.1.713-.674-.042-1.338.026-2.68-.027-4.018a4.663,4.663,0,0,0-4.75-4.707,7.837,7.837,0,0,1-7.741-7.938c-.023-2.328.015-4.657-.018-6.985-.008-.583.14-.767.74-.751,1.623.043,3.247-.007,4.87.027.55.012.7-.165.686-.7-.032-1.626.01-3.254-.024-4.879-.011-.542.148-.683.688-.691,2.422-.034,2.422-.053,2.422,2.386Z" transform="translate(-30.036)"/>
        <path id="Trazado_188537" data-name="Trazado 188537" d="M-427.921,183.276a4.647,4.647,0,0,1,4.674,4.652,4.683,4.683,0,0,1-4.709,4.729,4.748,4.748,0,0,1-4.654-4.717A4.7,4.7,0,0,1-427.921,183.276Z" transform="translate(-112.077 -9.211)"/>
        <path id="Trazado_188538" data-name="Trazado 188538" d="M-383.538,187.981a4.648,4.648,0,0,1,4.622-4.7,4.705,4.705,0,0,1,4.742,4.708,4.75,4.75,0,0,1-4.7,4.672A4.687,4.687,0,0,1-383.538,187.981Z" transform="translate(-148.62 -9.212)"/>
        <path id="Trazado_188539" data-name="Trazado 188539" d="M-330.011,183.271a4.662,4.662,0,0,1,4.676,4.655,4.694,4.694,0,0,1-4.713,4.728,4.736,4.736,0,0,1-4.649-4.719A4.7,4.7,0,0,1-330.011,183.271Z" transform="translate(-184.99 -9.207)"/>
        <path id="Trazado_188540" data-name="Trazado 188540" d="M-446.273,332.769a3.926,3.926,0,0,0-1.025,2.971c.056,2.646.025,5.293.072,7.939.012.669-.1.964-.871.95-2.609-.048-5.22-.016-7.83-.023-.209,0-.448.093-.625-.114,2.728-.017,5.455-.067,8.182-.031.814.011,1.014-.246.981-1.02-.06-1.428-.048-2.862,0-4.291.02-.659-.168-.881-.847-.866-1.776.038-3.553,0-5.33-.007a15.4,15.4,0,0,0,.009-1.9c-.109-.965.176-1.344,1.211-1.254a6.326,6.326,0,0,0,4.4-1.2c.532-.391.994-.878,1.488-1.32A.317.317,0,0,1-446.273,332.769Z" transform="translate(-94.248 -120.407)" fill="#1b3f5e"/>
        <path id="Trazado_188541" data-name="Trazado 188541" d="M-421.284,267.191l-.19-.172a7.05,7.05,0,0,0,.727-7.569,7.562,7.562,0,0,0-1.858-2.286c-.471-.414-.553-.676-.04-1.171q2.821-2.72,5.541-5.545c.45-.465.7-.432,1.1.018a7.2,7.2,0,0,0,4.536,2.589,6.92,6.92,0,0,0,7.911-6.832c.038-1.668.038-1.668,1.722-1.668,2.229,0,4.458.037,6.686-.02.814-.021,1.024.237.978,1.018a6.735,6.735,0,0,0,3.461,6.651c2.849,1.675,6.084,1.125,8.61-1.393.887-.884.887-.884,1.758-.011,1.666,1.669,3.306,3.366,5.012,4.993.611.582.7.931.016,1.526a6.712,6.712,0,0,0-2.453,5,6.847,6.847,0,0,0,6.865,7.243c1.717.041,1.717.041,1.717,1.8,0,2.2-.047,4.4.023,6.6.028.884-.266,1.077-1.08,1.036a6.7,6.7,0,0,0-6.759,3.74,6.763,6.763,0,0,0,.956,7.747c.337.382.694.749,1.065,1.1.276.258.372.446.048.767q-2.99,2.958-5.945,5.953c-.273.276-.457.251-.689-.026-.184-.219-.4-.41-.6-.612a6.892,6.892,0,0,0-10.445.26c-.084.092-.172.182-.345.363-.634-1.269-1.254-2.472-1.836-3.692-.324-.68.379-.471.577-.518a19.081,19.081,0,0,0,8.069-3.954c6.418-5.442,8.9-12.407,6.955-20.553-1.954-8.19-7.346-13.375-15.58-15.173a20.043,20.043,0,0,0-22.5,11.317,1.05,1.05,0,0,1-1.224.733A3.941,3.941,0,0,0-421.284,267.191Z" transform="translate(-119.236 -54.829)" fill="#1b3f5e"/>
        <path id="Trazado_188542" data-name="Trazado 188542" d="M-432.6,458.566c1.166,1.453,2.277,2.786,3.325,4.168a1.5,1.5,0,0,0,1.358.649c6.428-.021,12.857,0,19.286-.028.723,0,.974.145.967.931q-.06,6.935,0,13.871c.005.711-.169.9-.889.9q-11.648-.042-23.3-.01c-.547,0-.856-.035-.853-.747.029-6.441.017-12.882.02-19.323A2.929,2.929,0,0,1-432.6,458.566Z" transform="translate(-112.008 -214.213)" fill="#d29f6c"/>
        <path id="Trazado_188543" data-name="Trazado 188543" d="M-517.911,458.852a1.079,1.079,0,0,1,.13.8c.006,6.221-.007,12.441.021,18.662,0,.725-.149.961-.926.958q-11.605-.048-23.21,0c-.7,0-.914-.145-.908-.883q.056-6.938,0-13.877c-.007-.78.233-.941.963-.938,6.368.027,12.735.005,19.1.03a1.813,1.813,0,0,0,1.679-.785C-520.069,461.463-518.981,460.186-517.911,458.852Z" transform="translate(-30.018 -214.426)" fill="#d29f6c"/>
        <path id="Trazado_188544" data-name="Trazado 188544" d="M-358.611,321.156c3.494-2.994,7.206-3.92,11.291-2.466a10.318,10.318,0,0,1,7.183,8.85,10.88,10.88,0,0,1-11.541,12.381c-.654-.033-.85-.215-.846-.883.029-4.784.019-9.568.014-14.352,0-2.308-1.228-3.523-3.543-3.53C-356.81,321.154-357.568,321.156-358.611,321.156Z" transform="translate(-167.183 -109.548)" fill="#fff"/>
        <path id="Trazado_188545" data-name="Trazado 188545" d="M-388.477,302.96a17.027,17.027,0,0,1,10.811-8.77,17.2,17.2,0,0,1,21.6,18.272,17.25,17.25,0,0,1-18.09,15.564c-.441-.025-.625-.125-.6-.594.035-.8-.243-1.734.09-2.354.378-.7,1.363-.132,2.077-.188,7.925-.619,13.686-6.815,13.473-14.546a14.163,14.163,0,0,0-9.492-12.875,13.9,13.9,0,0,0-15.272,4.3,2.6,2.6,0,0,1-2.609,1.206A15.8,15.8,0,0,0-388.477,302.96Z" transform="translate(-144.942 -91.352)" fill="#afbcc7"/>
        <path id="Trazado_188546" data-name="Trazado 188546" d="M-400.372,446.829h-1.949q-11.019,0-22.037.013a1.514,1.514,0,0,1-1.364-.638c-1.3-1.689-2.653-3.339-3.98-5.008-.13-.164-.338-.3-.272-.655h.806c8.236,0,16.473.009,24.708-.016a1.3,1.3,0,0,1,1.391.837C-402.225,443.169-401.31,444.941-400.372,446.829Z" transform="translate(-114.031 -200.779)" fill="#b17846"/>
        <path id="Trazado_188547" data-name="Trazado 188547" d="M-533.5,440.726c-1.583,1.989-3.129,3.926-4.664,5.871a.839.839,0,0,1-.762.278q-11.938,0-23.876-.008a2.568,2.568,0,0,1-.387-.081l2.944-5.906c.137-.276.383-.295.648-.294l25.88.023C-533.689,440.608-533.664,440.634-533.5,440.726Z" transform="translate(-14.839 -200.823)" fill="#b17846"/>
        <path id="Trazado_188548" data-name="Trazado 188548" d="M-400.3,345.672c-2.353,0-4.707-.022-7.06.015-.631.01-.791-.176-.791-.8,0-2.369-.024-2.369,2.362-2.369,4.134,0,8.268.016,12.4-.016.706-.005.917.175.907.9-.032,2.264,0,2.265-2.288,2.265Z" transform="translate(-130.29 -127.785)" fill="#fdc529"/>
        <path id="Trazado_188549" data-name="Trazado 188549" d="M-400.3,370.188c-2.354,0-4.708-.023-7.062.015-.642.01-.784-.2-.784-.809,0-2.357-.019-2.357,2.365-2.357,4.135,0,8.271.018,12.406-.017.716-.006.909.18.9.9-.031,2.269,0,2.269-2.291,2.269Z" transform="translate(-130.292 -146.04)" fill="#fad56f"/>
        <path id="Trazado_188550" data-name="Trazado 188550" d="M-522.792,367.051c2.355,0,4.709.018,7.064-.013.6-.008.814.13.816.781.007,2.383.033,2.383-2.363,2.383-4.136,0-8.273-.012-12.409.013-.641,0-.881-.14-.88-.838,0-2.327-.025-2.327,2.331-2.327Z" transform="translate(-39.134 -146.054)" fill="#fdc529"/>
        <path id="Trazado_188551" data-name="Trazado 188551" d="M-522.733,391.642c2.354,0,4.708.018,7.061-.013.566-.007.755.114.758.727.012,2.4.037,2.4-2.325,2.4-4.135,0-8.27-.016-12.4.015-.684.005-.932-.127-.922-.878.032-2.249,0-2.249,2.2-2.249Z" transform="translate(-39.131 -164.367)" fill="#fbd670"/>
        <path id="Trazado_188552" data-name="Trazado 188552" d="M-522.7,419.314c-2.352,0-4.705-.025-7.057.016-.649.012-.79-.2-.794-.808-.016-2.326-.036-2.326,2.231-2.326,4.165,0,8.329.014,12.493-.014.665,0,.939.1.926.864-.038,2.267,0,2.268-2.268,2.268Z" transform="translate(-39.14 -182.65)" fill="#fec629"/>
        <path id="Trazado_188553" data-name="Trazado 188553" d="M-449.242,394.75c-2.351,0-4.7-.014-7.052.011-.547.006-.769-.093-.777-.72-.029-2.4-.055-2.4,2.322-2.4,4.129,0,8.259.014,12.388-.014.666,0,.933.1.921.862-.038,2.263,0,2.264-2.275,2.264Z" transform="translate(-93.858 -164.363)" fill="#fec629"/>
        <path id="Trazado_188554" data-name="Trazado 188554" d="M-449.246,419.306c-2.352,0-4.7-.017-7.055.012-.56.007-.761-.109-.768-.724-.027-2.408-.052-2.407,2.325-2.407,4.131,0,8.263.016,12.394-.016.687-.005.923.135.911.878-.035,2.256,0,2.256-2.278,2.256Z" transform="translate(-93.858 -182.643)" fill="#fbd670"/>
        <path id="Trazado_188555" data-name="Trazado 188555" d="M-379.272,394.745a27.63,27.63,0,0,1-4-.041c-1.419-.21-.318-1.437-.594-2.156-.139-.363-.236-.944.6-.93,2.7.044,5.408.028,8.113.006.512,0,.626.173.64.66.075,2.462.09,2.462-2.371,2.462Z" transform="translate(-148.262 -164.358)" fill="#fec629"/>
        <path id="Trazado_188556" data-name="Trazado 188556" d="M-379.245,419.261c-1.337,0-2.675-.028-4.011.009-1.02.028-.674-.772-.58-1.124.177-.667-.753-1.89.583-1.961,2.7-.142,5.41-.032,8.115-.052.509,0,.627.181.644.666.086,2.462.1,2.462-2.365,2.462Z" transform="translate(-148.285 -182.598)" fill="#fbd66f"/>
        <path id="Trazado_188557" data-name="Trazado 188557" d="M-417.129,197.043a1.589,1.589,0,0,1-1.588,1.556,1.542,1.542,0,0,1-1.5-1.524,1.55,1.55,0,0,1,1.519-1.607A1.609,1.609,0,0,1-417.129,197.043Z" transform="translate(-121.303 -18.29)" fill="#f0f8ff"/>
        <path id="Trazado_188558" data-name="Trazado 188558" d="M-369.818,198.592a1.589,1.589,0,0,1-1.561-1.583,1.613,1.613,0,0,1,1.6-1.547A1.551,1.551,0,0,1-368.283,197,1.538,1.538,0,0,1-369.818,198.592Z" transform="translate(-157.675 -18.285)" fill="#f0f8ff"/>
        <path id="Trazado_188559" data-name="Trazado 188559" d="M-319.259,197.065a1.6,1.6,0,0,1-1.623,1.526,1.551,1.551,0,0,1-1.489-1.639,1.573,1.573,0,0,1,1.554-1.489A1.624,1.624,0,0,1-319.259,197.065Z" transform="translate(-194.169 -18.286)" fill="#f0f8ff"/>
      </g>
    </g>
  </g>
</svg>
