<svg xmlns="http://www.w3.org/2000/svg" width="178.153" height="178.157" viewBox="0 0 178.153 178.157">
  <g id="Grupo_129614" data-name="Grupo 129614" transform="translate(-1156.472 -4806.336)">
    <ellipse id="Elipse_5043" data-name="Elipse 5043" cx="89.076" cy="89.078" rx="89.076" ry="89.078" transform="translate(1156.472 4806.336)" fill="#fff"/>
    <g id="Grupo_128716" data-name="Grupo 128716" transform="translate(1721.488 4644.301)">
      <path id="Trazado_188560" data-name="Trazado 188560" d="M-389.288,207.131a10.877,10.877,0,0,0,2.152.477A15.691,15.691,0,0,1-375.363,223c.029,3.821.018,7.643-.008,11.465,0,.611.122.844.792.932a4.494,4.494,0,0,1,3.849,4.276c.07,2.114.031,4.231.032,6.347,0,8.212-.025,16.424.018,24.636a4.878,4.878,0,0,1-2.9,4.955c-.185.086-.494.159-.347.448.188.37.165.881.689,1.051.657.214,1.292.5,1.953.693a.7.7,0,0,1,.6.793q-.029,5.211,0,10.422a.746.746,0,0,1-.649.85c-.573.161-1.12.411-1.687.6-.716.236-.941.669-.6,1.362.014.028.023.059.035.088.308.748,1.078,1.5.873,2.209s-1.049,1.207-1.625,1.787c-1.935,1.947-3.9,3.868-5.8,5.847a.917.917,0,0,1-1.352.191,13.851,13.851,0,0,0-1.613-.775.817.817,0,0,0-1.217.493c-.3.822-.543,1.668-.81,2.5h-11.728c-.267-.836-.507-1.682-.811-2.5a.829.829,0,0,0-1.219-.493c-.087.035-.164.1-.251.13-.723.293-1.443,1.048-2.117.864s-1.156-1.011-1.713-1.567c-1.987-1.985-3.957-3.986-5.962-5.952-.4-.4-.516-.711-.214-1.211.291-.483.494-1.018.749-1.524a.912.912,0,0,0-.563-1.466c-.757-.289-1.846-.289-2.19-.921a5.756,5.756,0,0,1-.133-2.506c-.007-2.716.018-5.433-.018-8.149-.008-.632.119-1,.785-1.142.548-.119,1.063-.389,1.608-.533.609-.161.72-.692.844-1.145.136-.5-.422-.445-.686-.6a4.805,4.805,0,0,1-2.546-4.519c.024-9.6.01-19.2.011-28.806,0-.821-.02-1.644.023-2.463A4.543,4.543,0,0,1-407.4,235.4c.671-.087.8-.322.792-.932-.025-3.727.027-7.455-.02-11.181a15.648,15.648,0,0,1,13.549-16c.072-.008.133-.1.2-.156Z" transform="translate(-82.991 0)"/>
      <path id="Trazado_188561" data-name="Trazado 188561" d="M-518.813,415.1c-.152-.292-.479-.255-.721-.369a4.629,4.629,0,0,1-2.865-4.309c-.034-1.041-.026-2.084,0-3.126a4.506,4.506,0,0,1,2.765-4.264c.545-.253.572-.445.5-1.019a17.044,17.044,0,0,1,.051-5.371c.077-.409.007-.535-.349-.69a4.667,4.667,0,0,1-2.972-4.8c.02-.82,0-1.642,0-2.463a4.59,4.59,0,0,1,2.863-4.488c.382-.174.534-.269.443-.8a16.68,16.68,0,0,1-.011-5.464c.077-.488.012-.613-.421-.811a4.6,4.6,0,0,1-2.874-4.484c0-.916,0-1.831,0-2.747a4.587,4.587,0,0,1,2.87-4.483c.38-.173.525-.279.432-.8a15.976,15.976,0,0,1-.036-5.374,4.53,4.53,0,0,1,4.4-3.618c4.254-.053,8.509-.063,12.763,0a4.614,4.614,0,0,1,4.549,4.722c.015,1.042.02,2.085,0,3.126a4.42,4.42,0,0,1-2.725,4.183c-.608.279-.6.513-.519,1.082a16.649,16.649,0,0,1-.016,5.185c-.078.473-.1.659.411.888a4.52,4.52,0,0,1,2.854,4.393c.006.979.009,1.958,0,2.937a4.5,4.5,0,0,1-2.8,4.334c-.49.225-.568.382-.476.937a16.483,16.483,0,0,1-.005,5.371c-.061.38-.151.564.318.766a4.605,4.605,0,0,1,2.964,4.7c-.02.884,0,1.768-.005,2.653a4.544,4.544,0,0,1-2.861,4.39c-.385.176-.537.268-.434.794a14.9,14.9,0,0,1,.05,5.275,4.43,4.43,0,0,1-2.748,3.372c-.275.127-.629.07-.829.361Z" transform="translate(0 -110.923)"/>
      <path id="Trazado_188562" data-name="Trazado 188562" d="M-234.506,415.118a14.654,14.654,0,0,1-1.623-.878,4.442,4.442,0,0,1-1.976-3.684c-.023-1.073-.018-2.146-.006-3.219a4.521,4.521,0,0,1,2.817-4.321c.436-.2.559-.308.464-.854a15.836,15.836,0,0,1,.006-5.459c.076-.434.046-.571-.362-.75a4.581,4.581,0,0,1-2.931-4.625c.014-.883,0-1.767,0-2.651a4.556,4.556,0,0,1,2.88-4.467c.394-.178.5-.3.41-.8a16.387,16.387,0,0,1-.014-5.461c.06-.384.147-.572-.317-.771a4.589,4.589,0,0,1-2.963-4.7c.02-.883,0-1.767,0-2.651a4.511,4.511,0,0,1,2.853-4.387c.461-.207.507-.374.421-.874a15.746,15.746,0,0,1-.024-5.276,4.569,4.569,0,0,1,4.464-3.655q6.331-.067,12.662,0a4.562,4.562,0,0,1,4.421,3.469c.035.122.034.246.186.281v4.928a4.184,4.184,0,0,1-2.486,3.517.91.91,0,0,0-.518,1c.08,1.639.071,3.281.005,4.92a.886.886,0,0,0,.513.993,4.075,4.075,0,0,1,2.485,3.6v4.739a4.185,4.185,0,0,1-2.481,3.514.918.918,0,0,0-.523,1c.074,1.668.077,3.339,0,5.007a.856.856,0,0,0,.494.906,4.468,4.468,0,0,1,2.513,3.414v5.118a4.433,4.433,0,0,1-2.379,3.324,1.08,1.08,0,0,0-.615,1.143c.084,1.229.031,2.463.031,3.694,0,2.808-1.313,4.4-4.036,4.917Z" transform="translate(-212.425 -110.939)"/>
      <path id="Trazado_188563" data-name="Trazado 188563" d="M-504.5,207.131c-.023.312-.065.624-.065.936,0,5.618.021,11.236-.028,16.854-.008.871.247,1.035,1.04,1,1.477-.065,2.959-.018,4.431-.018.21.3-.05.492-.147.686-2.053,4.141-4.131,8.271-6.179,12.414a4.08,4.08,0,0,1-3.862,2.552A4.074,4.074,0,0,1-513.07,239c-2.043-4.144-4.121-8.271-6.182-12.407a.914.914,0,0,1-.2-.693c1.513,0,3.044-.032,4.572.014.686.021.952-.1.947-.891-.041-5.965-.023-11.93-.025-17.9h3.216a1.615,1.615,0,0,1,.277,1.167q.006,9.75,0,19.5c0,1.342-.263,1.576-1.625,1.6-.378.006-.756.016-1.133,0-.69-.032-.73.26-.457.8,1.18,2.337,2.318,4.7,3.524,7.018.55,1.06,1.191,1.065,1.756,0,1.227-2.312,2.352-4.677,3.527-7.016.3-.587.092-.814-.522-.8-.378.008-.756,0-1.134,0-1.283-.023-1.439-.184-1.462-1.5,0-.126,0-.252,0-.379q0-9.418,0-18.837a2.2,2.2,0,0,1,.275-1.546Z" transform="translate(-2.211 0)"/>
      <path id="Trazado_188564" data-name="Trazado 188564" d="M-220.751,207.131c.026.343.075.685.075,1.028.005,4.861-.007,9.723.012,14.584,0,1.033-.452,2.449.183,2.991.609.521,1.978.154,3.013.167.776.01,1.552,0,2.454,0-.288.577-.523,1.047-.758,1.518-1.91,3.829-3.839,7.647-5.718,11.491a4.14,4.14,0,0,1-3.9,2.645,4.137,4.137,0,0,1-3.819-2.628c-2.017-4.094-4.067-8.171-6.1-12.256-.109-.218-.2-.444-.35-.769,1.666,0,3.231-.046,4.79.02.741.032.86-.215.857-.894-.024-5.966-.009-11.932-.006-17.9h3.027a1.616,1.616,0,0,1,.277,1.167q.007,9.8,0,19.594c0,1.341-.172,1.488-1.553,1.506-1.858.023-1.857.023-1.04,1.658q1.417,2.835,2.831,5.672a5.79,5.79,0,0,0,.405.749c.475.677.924.692,1.42.051a3.915,3.915,0,0,0,.381-.653q1.614-3.213,3.21-6.435c.458-.925.4-1.039-.588-1.038-2.472,0-2.411.121-2.409-2.457q.007-9.135.006-18.269a2.192,2.192,0,0,1,.275-1.546Z" transform="translate(-214.262 0)"/>
      <path id="Trazado_188565" data-name="Trazado 188565" d="M-208.75,207.131c0,7.04.006,14.08-.023,21.12,0,.688.211.855.853.818.9-.053,1.811-.013,2.869-.013l-1.737,3.479c-.829,1.662-1.664,3.321-2.484,4.988-.218.444-.457.843-1.012.868-.611.027-.869-.4-1.1-.873q-1.955-3.933-3.919-7.861c-.081-.162-.138-.337-.244-.6,1.055,0,2.026-.02,2.995.008.476.014.667-.121.665-.633q-.024-10.56-.02-21.12a.64.64,0,0,0-.056-.18Z" transform="translate(-229.289 0)" fill="#fee9a6"/>
      <path id="Trazado_188566" data-name="Trazado 188566" d="M-492.89,207.131c0,6.946.027,13.893-.019,20.839-.006.953.271,1.188,1.153,1.1.8-.078,1.618-.016,2.582-.016-.523,1.056-.977,1.977-1.435,2.9-.941,1.887-1.889,3.77-2.823,5.661a1.125,1.125,0,0,1-.973.776,1.046,1.046,0,0,1-1.007-.713q-2.036-4.1-4.088-8.193a2.962,2.962,0,0,1-.127-.427c.869,0,1.69-.062,2.5.017.893.087,1.165-.173,1.158-1.115-.045-6.6-.025-13.2-.021-19.8,0-.343.049-.686.074-1.029Z" transform="translate(-17.032 0)" fill="#fee9a6"/>
      <path id="Trazado_188567" data-name="Trazado 188567" d="M-398.834,348.128q0-7.533,0-15.066c0-1.65.507-2.167,2.134-2.167q15.083,0,30.166,0c1.562,0,2.089.537,2.09,2.117q0,15.113,0,30.227c0,1.579-.53,2.121-2.088,2.121q-15.083,0-30.166,0c-1.625,0-2.135-.521-2.136-2.167Q-398.836,355.661-398.834,348.128Z" transform="translate(-92.343 -92.473)" fill="#cbd0d8"/>
      <path id="Trazado_188568" data-name="Trazado 188568" d="M-389.395,479.361c-5.073,5.658-3.473,12.441.279,15.872a10.9,10.9,0,0,0,14.79.064c3.807-3.442,5.442-10.25.345-15.936,1.585,0,3.045.062,4.5-.021.991-.057,1.748.029,1.92,1.205.035.241.228.456.282.7a2.51,2.51,0,0,0,2.218,2.185c.46.066.585.353.58.805q-.031,2.985,0,5.969c.006.46-.141.745-.585.795-2.2.247-2.1,2.3-2.82,3.678-.242.464.344,1.031.59,1.527a.834.834,0,0,1-.186,1.149q-2.075,2.007-4.076,4.089c-.372.388-.706.516-1.125.189-1.757-1.375-3.093.258-4.57.691-.427.125-.437.932-.608,1.432-.152.446-.333.678-.852.671-1.985-.027-3.972-.022-5.957,0-.454,0-.731-.137-.8-.589-.2-1.224-1-1.732-2.1-2.208a3,3,0,0,0-3.289.085c-.325.238-.558.117-.813-.142-1.419-1.437-2.837-2.875-4.285-4.283a.717.717,0,0,1-.1-1.073,2.257,2.257,0,0,0,.028-2.851,1.078,1.078,0,0,1-.178-.435,2.1,2.1,0,0,0-1.921-1.862c-.6-.113-.781-.438-.767-1.053.043-1.894.014-3.79.018-5.685,0-.335-.1-.771.4-.826,2.2-.243,2.282-2.2,2.942-3.661.132-.292.156-.482.518-.479C-393.207,479.368-391.388,479.361-389.395,479.361Z" transform="translate(-92.294 -203.379)" fill="#1b3f5e"/>
      <path id="Trazado_188569" data-name="Trazado 188569" d="M-343.066,256.339c0,2.022-.02,4.044.014,6.065.01.576-.137.746-.731.742q-5.532-.043-11.065,0c-.607.005-.724-.189-.721-.751.024-3.948-.01-7.9.021-11.846a6.2,6.2,0,0,1,6.193-6.206,6.22,6.22,0,0,1,6.283,6.215C-343.046,252.484-343.067,254.412-343.066,256.339Z" transform="translate(-124.67 -27.804)" fill="#fefefe"/>
      <path id="Trazado_188570" data-name="Trazado 188570" d="M-355.254,237.533c0,2.116-.018,4.232.012,6.348.008.568-.144.75-.735.758-2.381.032-2.364.054-2.384-2.34-.03-3.663.149-7.329-.084-10.987a9.3,9.3,0,0,0-9.335-8.624,9.29,9.29,0,0,0-9.263,8.6c-.247,4.1-.073,8.209-.07,12.313,0,.837-.214,1.071-1.05,1.048-2.074-.057-2.075-.014-2.075-2.061,0-3.474-.01-6.948,0-10.422a12.543,12.543,0,0,1,10.822-12.5,12.5,12.5,0,0,1,13.848,9.657,10.814,10.814,0,0,1,.309,2.53c-.006,1.895,0,3.79,0,5.685Z" transform="translate(-106.235 -9.295)" fill="#959ea9"/>
      <path id="Trazado_188571" data-name="Trazado 188571" d="M-361.624,487.336a7.824,7.824,0,0,1,7.825-7.82,7.823,7.823,0,0,1,7.751,7.9,7.815,7.815,0,0,1-7.777,7.769A7.819,7.819,0,0,1-361.624,487.336Z" transform="translate(-120.146 -203.521)" fill="#1b3f5e"/>
      <path id="Trazado_188572" data-name="Trazado 188572" d="M-497.665,445.353q0-.378,0-.757c0-1.962.744-2.6,2.688-2.338.308.041.466.129.447.451-.007.126,0,.252,0,.378.033,2.47.032,2.459,2.574,2.293.4-.026.59-.117.538-.536a1.929,1.929,0,0,1,0-.378c.054-.713-.316-1.815.152-2.053a6.543,6.543,0,0,1,2.584-.146c.436-.011.406.29.406.58,0,.662.019,1.325-.006,1.986-.016.414.14.585.545.535a.905.905,0,0,1,.095,0c.783-.015,1.792.262,2.29-.123.536-.414.165-1.475.161-2.249,0-.573.138-.745.731-.747,1.992-.005,2.434.406,2.435,2.427,0,.694.022,1.388-.007,2.081a1.609,1.609,0,0,1-1.771,1.764q-6.042.027-12.085,0c-1.185-.005-1.754-.632-1.775-1.845C-497.672,446.236-497.665,445.794-497.665,445.353Z" transform="translate(-18.496 -175.641)" fill="#fbd66f"/>
      <path id="Trazado_188573" data-name="Trazado 188573" d="M-489.868,373.917c-1.953,0-3.906.009-5.859,0-1.388-.008-1.935-.571-1.945-1.966-.006-.821-.011-1.642,0-2.462a2.022,2.022,0,0,1,2.9-1.806c.279.127.224.348.226.554.009.663.023,1.326,0,1.988-.016.417.146.58.547.53a.917.917,0,0,1,.094,0c.784-.014,1.791.264,2.293-.12.538-.412.171-1.474.163-2.247-.006-.587.158-.795.741-.729.774.087,1.764-.326,2.273.169.472.459.144,1.442.132,2.19-.009.562.121.817.727.744.771-.093,1.8.337,2.252-.175.382-.433.161-1.439.127-2.187-.027-.572.129-.749.725-.752,2.007-.008,2.435.388,2.436,2.424,0,.663.016,1.326,0,1.988a1.651,1.651,0,0,1-1.877,1.855C-485.9,373.929-487.884,373.917-489.868,373.917Z" transform="translate(-18.489 -119.812)" fill="#fbd66f"/>
      <path id="Trazado_188574" data-name="Trazado 188574" d="M-489.888,522.732c-1.92,0-3.84,0-5.759,0-1.5,0-2.02-.54-2.025-2.065,0-.883-.015-1.766.008-2.649a1.449,1.449,0,0,1,.944-1.4,4.279,4.279,0,0,1,2.046-.078c.055.006.109.2.131.318a2.346,2.346,0,0,1,.008.378c.049,2.47.049,2.459,2.514,2.357.423-.018.676-.086.6-.572a1,1,0,0,1,0-.189c.022-.75-.246-1.788.139-2.179.505-.512,1.543-.1,2.348-.176.467-.041.731.09.657.614a1.669,1.669,0,0,0,0,.378c.06.68-.3,1.741.158,1.957a6.968,6.968,0,0,0,2.586.153c.3.009.362-.167.359-.42a7,7,0,0,1,.016-1.321c.083-.455-.4-1.151.355-1.337,1.314-.325,2.432.093,2.63,1.024a10.261,10.261,0,0,1,.006,4.128c-.162.816-.871,1.087-1.672,1.085C-485.859,522.728-487.873,522.732-489.888,522.732Z" transform="translate(-18.489 -231.07)" fill="#fbd66f"/>
      <path id="Trazado_188575" data-name="Trazado 188575" d="M-502.278,411c-1.952,0-3.9.007-5.857,0-1.312-.006-1.839-.519-1.868-1.816q-.028-1.277,0-2.556a2.066,2.066,0,0,1,2.875-1.872c.294.12.229.341.232.543.01.694.023,1.389,0,2.082-.015.416.141.553.548.537.66-.026,1.323-.028,1.983,0,.438.018.66-.119.614-.583a3.709,3.709,0,0,1,0-.378c.015-2.4.207-2.549,2.67-2.222.4.053.444.238.441.552-.007.694.015,1.389-.008,2.082-.013.4.122.6.538.543a.537.537,0,0,1,.095,0c2.47.114,2.5.114,2.5-2.36,0-.7.243-.828.872-.819,1.761.025,2.246.477,2.248,2.239,0,.757.011,1.515,0,2.272-.021,1.182-.564,1.744-1.735,1.753C-498.184,411.009-500.231,411-502.278,411Z" transform="translate(-9.27 -147.537)" fill="#fec629"/>
      <path id="Trazado_188576" data-name="Trazado 188576" d="M-502.211,485.272c-1.984,0-3.967.012-5.951,0-1.294-.011-1.821-.546-1.847-1.843-.017-.883-.025-1.767,0-2.65a2.093,2.093,0,0,1,2.891-1.758.359.359,0,0,1,.213.371c0,.189-.009.379.005.568.053.713-.318,1.811.153,2.053a6.475,6.475,0,0,0,2.581.153c.442.011.4-.312.4-.59a17.454,17.454,0,0,0-.009-1.8c-.061-.659.223-.781.814-.784,2.293-.011,2.318-.029,2.291,2.282-.008.668.1.926.857.913,2.278-.038,2.308,0,2.285-2.3-.007-.707.178-.918.894-.9,1.736.045,2.224.5,2.226,2.271,0,.694,0,1.388,0,2.082-.011,1.4-.523,1.923-1.948,1.932C-498.307,485.281-500.259,485.272-502.211,485.272Z" transform="translate(-9.264 -203.019)" fill="#fec629"/>
      <path id="Trazado_188577" data-name="Trazado 188577" d="M-502.279,559.605c-1.954,0-3.908.011-5.862,0-1.31-.01-1.841-.535-1.868-1.825-.019-.884-.026-1.769,0-2.652a2.058,2.058,0,0,1,2.883-1.759.347.347,0,0,1,.223.362c0,.189-.009.38,0,.568.053.713-.318,1.814.152,2.053a6.629,6.629,0,0,0,2.587.145c.367.011.4-.215.4-.492,0-.663.021-1.327-.007-1.989-.021-.478.131-.649.636-.675,2.463-.123,2.5-.139,2.459,2.3-.011.731.2.88.892.87,2.271-.033,2.243,0,2.291-1.756.013-.464-.363-1.137.344-1.381a2.4,2.4,0,0,1,2.492.708,1.743,1.743,0,0,1,.249.994c-.008.821,0,1.642,0,2.463,0,1.586-.486,2.061-2.1,2.065C-498.434,559.609-500.356,559.605-502.279,559.605Z" transform="translate(-9.263 -258.57)" fill="#fec629"/>
      <path id="Trazado_188578" data-name="Trazado 188578" d="M-218,410.968c-2.017,0-4.033.008-6.05,0-1.235-.007-1.8-.547-1.831-1.774-.027-.946-.045-1.9.01-2.841a2.14,2.14,0,0,1,2.936-1.615.379.379,0,0,1,.192.388c0,.158,0,.316,0,.474.017,2.52.016,2.508,2.574,2.293.417-.035.546-.177.533-.567a16,16,0,0,0-.017-1.608c-.12-.879.256-1.04,1.055-1.02,2.1.053,2.161.018,2.073,2.115-.041.983.312,1.116,1.165,1.089,1.971-.062,1.932-.021,2-1.783.018-.466-.5-1.286.518-1.4,1.493-.159,2.455.3,2.543,1.321a24.722,24.722,0,0,1,.009,3.595c-.051.845-.707,1.32-1.664,1.328C-213.969,410.978-215.986,410.968-218,410.968Z" transform="translate(-221.549 -147.508)" fill="#fbd66f"/>
      <path id="Trazado_188579" data-name="Trazado 188579" d="M-218.081,485.271c-1.89,0-3.781.005-5.671,0-1.634-.005-2.113-.5-2.119-2.165,0-.821-.037-1.644.014-2.462a2.155,2.155,0,0,1,2.936-1.62.379.379,0,0,1,.193.389c0,.158,0,.316,0,.474.017,2.5.016,2.491,2.575,2.288.415-.033.548-.168.533-.562-.02-.536.054-1.081-.017-1.608-.119-.879.256-1.042,1.056-1.022,2.1.052,2.161.018,2.071,2.118-.042.992.326,1.107,1.168,1.081,1.969-.06,1.929-.021,2-1.778.018-.466-.5-1.286.52-1.4,1.483-.159,2.456.307,2.542,1.329a24.471,24.471,0,0,1,.007,3.594c-.055.867-.72,1.326-1.761,1.335C-214.048,485.282-216.065,485.27-218.081,485.271Z" transform="translate(-221.567 -203.017)" fill="#fbd66f"/>
      <path id="Trazado_188580" data-name="Trazado 188580" d="M-218.119,559.588c-1.952,0-3.9.011-5.856,0-1.346-.01-1.88-.549-1.9-1.9-.015-.914-.043-1.832.015-2.743a2.148,2.148,0,0,1,2.951-1.575c.25.146.17.384.173.591.01.662.025,1.326,0,1.987-.017.409.113.594.531.532a.8.8,0,0,1,.094,0c.783-.016,1.782.256,2.292-.126.545-.408.185-1.464.174-2.231-.009-.633.194-.795.808-.8,2.336-.016,2.36-.037,2.338,2.333-.006.646.13.919.815.833.742-.093,1.731.314,2.172-.166.368-.4.171-1.376.124-2.091-.045-.7.154-.929.883-.912,1.783.041,2.266.471,2.268,2.224,0,.757.012,1.514,0,2.271a1.562,1.562,0,0,1-1.734,1.77C-214.027,559.606-216.073,559.588-218.119,559.588Z" transform="translate(-221.557 -258.552)" fill="#fbd66f"/>
      <path id="Trazado_188581" data-name="Trazado 188581" d="M-205.635,522.443c-1.953,0-3.906.007-5.859,0-1.344-.006-1.9-.561-1.914-1.884-.008-.884-.017-1.768,0-2.651a2.05,2.05,0,0,1,2.911-1.7.31.31,0,0,1,.182.3c0,.189-.008.38.008.568.06.713-.338,1.734.17,2.071.683.454,1.708.107,2.585.144.365.015.39-.22.387-.5-.005-.663.032-1.328-.011-1.988-.034-.519.166-.652.647-.621.781.05,1.757-.227,2.293.148s.153,1.406.164,2.147c.009.571.1.83.772.833,2.36.011,2.387.041,2.363-2.3-.007-.661.158-.846.827-.834,1.866.034,2.3.421,2.3,2.26,0,.757.02,1.516-.007,2.272a1.575,1.575,0,0,1-1.778,1.735C-201.6,522.455-203.62,522.443-205.635,522.443Z" transform="translate(-230.883 -230.781)" fill="#fec629"/>
      <path id="Trazado_188582" data-name="Trazado 188582" d="M-205.649,448.172c-1.922,0-3.843.006-5.765,0-1.456-.006-1.992-.548-2-2,0-.884-.025-1.768.007-2.651a2.058,2.058,0,0,1,2.913-1.583.46.46,0,0,1,.169.3c.029.185,0,.379.015.567.064.712-.334,1.794.172,2.053a6.556,6.556,0,0,0,2.592.149c.37.01.379-.234.377-.5,0-.6.048-1.2-.013-1.8-.072-.7.212-.82.846-.814,2.257.019,2.3,0,2.254,2.221-.015.8.28.921.974.911,2.184-.029,2.161,0,2.2-1.736.01-.453-.323-1.2.244-1.318a2.5,2.5,0,0,1,2.339.345,1.337,1.337,0,0,1,.484.991c.012,1.135.054,2.274-.008,3.406-.052.948-.684,1.444-1.754,1.454C-201.617,448.185-203.633,448.172-205.649,448.172Z" transform="translate(-230.878 -175.283)" fill="#fec629"/>
      <path id="Trazado_188583" data-name="Trazado 188583" d="M-205.635,373.894c-1.952,0-3.9.009-5.855,0-1.348-.009-1.9-.566-1.918-1.888-.009-.883-.017-1.767,0-2.649a2.024,2.024,0,0,1,2.9-1.686.444.444,0,0,1,.182.288c.031.184,0,.378.018.566.057.714-.324,1.811.16,2.058a6.609,6.609,0,0,0,2.591.148c.362.011.4-.206.392-.487-.007-.662.03-1.327-.012-1.986-.032-.514.17-.615.646-.629,2.433-.072,2.449-.086,2.461,2.3,0,.583.109.817.771.817,2.353,0,2.381.03,2.361-2.3-.006-.666.175-.841.834-.83,1.869.03,2.294.412,2.3,2.259,0,.757.02,1.515-.008,2.271a1.583,1.583,0,0,1-1.781,1.737C-201.606,373.91-203.621,373.894-205.635,373.894Z" transform="translate(-230.883 -119.79)" fill="#fec629"/>
      <path id="Trazado_188584" data-name="Trazado 188584" d="M-354.384,359.032a6.938,6.938,0,0,1-5-1.286,5.978,5.978,0,0,1-2.278-6.386,5.791,5.791,0,0,1,4.959-4.694c.98-.166,1.171-.521,1.132-1.428-.078-1.839-.023-1.841,1.85-1.841,1.219,0,1.219,0,1.219,1.267v.19c0,1.491,0,1.491,1.482,1.833A6.334,6.334,0,0,1-346.286,352c.048.529,0,.869-.654.765a3.337,3.337,0,0,0-.755,0c-.961.07-1.717.09-2-1.232a2.531,2.531,0,0,0-2.589-1.845c-1.1-.045-2.206-.031-3.308-.011a3.1,3.1,0,0,0-3.149,3,3.161,3.161,0,0,0,3.04,3.233c.974.056,1.953.008,2.93.016a6.237,6.237,0,0,1,6.489,5.591,6.19,6.19,0,0,1-5.472,6.85c-.592.1-.762.263-.761.86.005,2.408-.016,2.388-2.419,2.337-.555-.012-.692-.194-.667-.708a4.8,4.8,0,0,0-.059-2.149c-.312-.643-1.288-.363-1.953-.6a6.531,6.531,0,0,1-4.234-7.05c.041-.309.121-.468.446-.443.125.01.252,0,.378,0,.693.007,1.51-.211,2.045.084.572.316.149,1.2.252,1.831a3.121,3.121,0,0,0,3.111,2.744q1.559.033,3.119,0a3.109,3.109,0,0,0,3.146-3.009,3.163,3.163,0,0,0-2.95-3.222C-352.993,358.985-353.69,359.032-354.384,359.032Z" transform="translate(-119.932 -101.815)"/>
      <path id="Trazado_188585" data-name="Trazado 188585" d="M-384.758,445.566a1.5,1.5,0,0,1-1.566-1.511,1.5,1.5,0,0,1,1.508-1.572A1.511,1.511,0,0,1-383.247,444,1.505,1.505,0,0,1-384.758,445.566Z" transform="translate(-101.69 -175.851)" fill="#010101"/>
      <path id="Trazado_188586" data-name="Trazado 188586" d="M-284.405,444.011a1.5,1.5,0,0,1-1.521,1.557,1.5,1.5,0,0,1-1.555-1.525,1.506,1.506,0,0,1,1.523-1.558A1.5,1.5,0,0,1-284.405,444.011Z" transform="translate(-175.544 -175.853)" fill="#010101"/>
      <path id="Trazado_188587" data-name="Trazado 188587" d="M-284.4,344.955a1.507,1.507,0,0,1-1.508,1.573,1.51,1.51,0,0,1-1.567-1.515,1.5,1.5,0,0,1,1.509-1.568A1.5,1.5,0,0,1-284.4,344.955Z" transform="translate(-175.544 -101.851)" fill="#010101"/>
      <path id="Trazado_188588" data-name="Trazado 188588" d="M-384.809,346.529a1.5,1.5,0,0,1-1.514-1.567,1.491,1.491,0,0,1,1.559-1.516,1.5,1.5,0,0,1,1.516,1.562A1.512,1.512,0,0,1-384.809,346.529Z" transform="translate(-101.691 -101.852)" fill="#010101"/>
      <path id="Trazado_188589" data-name="Trazado 188589" d="M-344.679,501.346a4.7,4.7,0,0,1-4.718-4.656,4.7,4.7,0,0,1,4.675-4.7,4.7,4.7,0,0,1,4.72,4.657A4.7,4.7,0,0,1-344.679,501.346Z" transform="translate(-129.281 -212.841)"/>
      <path id="Trazado_188590" data-name="Trazado 188590" d="M-335.333,507.452a1.544,1.544,0,0,1-1.57-1.532,1.548,1.548,0,0,1,1.505-1.6,1.553,1.553,0,0,1,1.573,1.533A1.555,1.555,0,0,1-335.333,507.452Z" transform="translate(-138.616 -222.055)" fill="#fcfcfc"/>
    </g>
  </g>
</svg>
