<svg xmlns="http://www.w3.org/2000/svg" width="97.873" height="99.847" viewBox="0 0 97.873 99.847">
  <g id="Grupo_128174" data-name="Grupo 128174" transform="translate(-2655.086 -1294.617)">
    <path id="Trazado_154924" data-name="Trazado 154924" d="M2676.628,1394.318c-1.065-.011-2.426.371-3.107-.147-.643-.49-.18-1.939-.182-2.964q-.025-11.061-.009-22.122v-1.122c-.876.434-1.644.8-2.4,1.192a1.711,1.711,0,0,1-2.175-.318c-1.054-1.05-2.122-2.085-3.147-3.162a1.633,1.633,0,0,1,.054-2.557c1.252-1.291,2.518-2.569,3.813-3.816a1.628,1.628,0,0,0,.551-1.356c-.04-.933-.037-1.87,0-2.8.02-.518-.1-.8-.671-.693a.62.62,0,0,1-.207,0,5.482,5.482,0,0,0-5.8,2.352,15.052,15.052,0,0,1-1.964,1.992,1.65,1.65,0,0,1-2.628.02c-1.045-1.009-2.056-2.052-3.083-3.08a1.72,1.72,0,0,1-.35-2.174q2.409-4.813,4.808-9.63a1.953,1.953,0,0,1,1.608-1.134c2.868-.393,5.731-.821,8.693-1.249-.539-.493-1.044-.9-1.482-1.366a7.983,7.983,0,0,1-2.247-5.532q-.043-5.037,0-10.074a8.282,8.282,0,0,1,8.366-8.349c1.693-.017,3.386,0,5.079,0,1.478,0,1.478,0,1.478-1.534,0-1.662-.012-3.324,0-4.985a4.968,4.968,0,0,1,5.1-5.115c.864-.01,1.729-.032,2.591.01a3.847,3.847,0,0,1,3.521,2.321,3.619,3.619,0,0,1-.53,4.165,2.848,2.848,0,0,0-.745,2.231,5.861,5.861,0,0,1-.069,1.961c-.3.973.15.984.862.953a13.873,13.873,0,0,1,2.588.012c1.844.27,3.062-.543,4.414-1.749a8.391,8.391,0,0,0,2.818-6.029c.2-2.442.664-4.863,1.005-7.294a1.8,1.8,0,0,1,1.036-1.448q4.852-2.433,9.7-4.871a1.715,1.715,0,0,1,2.169.363c1.025,1.029,2.068,2.041,3.073,3.09a1.652,1.652,0,0,1-.038,2.633c-1.228,1.266-2.466,2.523-3.74,3.742a1.69,1.69,0,0,0-.6,1.441,14.9,14.9,0,0,1-.006,2.49c-.094.875.306.9,1.027,1a5.472,5.472,0,0,0,5.612-2.339,16.7,16.7,0,0,1,1.962-1.995,1.675,1.675,0,0,1,2.7-.034c1.019.986,2,2.009,3.01,3.005a1.768,1.768,0,0,1,.374,2.259c-1.593,3.177-3.2,6.348-4.748,9.547-.586,1.211-1.687,1.174-2.72,1.334-.625.1-.912-.065-.756.995.347,2.355.639,4.837-.4,7.143a5.233,5.233,0,0,1-4.487,3.243,43.091,43.091,0,0,1-6.521,0,6.282,6.282,0,0,1-4.708-2.885c-1.676,1.7-3.312,3.376-4.978,5.025-.394.39-.272.83-.272,1.257q-.01,28.458.017,56.915c0,1-.161,1.451-1.252,1.284a14.985,14.985,0,0,0-2.069-.043c-.495-.56-.336-1.247-.337-1.888q-.014-20.291-.007-40.582c0-2.057,0-2.057-2.015-2.058-2.348,0-4.7-.006-7.044,0a4.169,4.169,0,0,0-3.813,3.3c-.446,2.906-.9,5.814-1.229,8.734a3.806,3.806,0,0,1-2.378,3.31c-3.251,1.57-2.762.84-2.773,4.46-.024,7.68,0,15.361-.012,23.042C2676.965,1393.213,2677.081,1393.827,2676.628,1394.318Z"/>
    <path id="Trazado_154925" data-name="Trazado 154925" d="M2849.465,1509.885c.083-1.659.083-1.659,1.793-1.659,2.073,0,4.145-.008,6.217,0,1.354.007,1.971.61,1.972,1.957q.01,14.639,0,29.278c0,1.406-.61,2-2.034,2q-22.849.006-45.7,0c-1.426,0-2.029-.594-2.03-2q-.008-14.639,0-29.279c0-1.348.615-1.948,1.973-1.954,2.28-.011,4.561.048,6.839-.027.943-.031,1.308.23,1.145,1.168a2.291,2.291,0,0,0,.027.515c.543,1.419.213,1.929-1.283,1.957-.932.018-1.865.009-2.8,0-.563,0-.79.153-.457.729,1.214,2.094,2.4,4.206,3.606,6.3a1.242,1.242,0,0,0,1.182.684c.345,0,.691,0,1.036,0,1.506,0,1.506,0,1.742-1.522a1.876,1.876,0,0,1,1.863-1.759c2.242-.1,4.489-.093,6.731,0,1.175.047,1.768.777,1.9,2.059.044.421-.135,1.012.45,1.145a3.044,3.044,0,0,0,2.028-.086c.311-.15.233-.546.262-.85.16-1.7.757-2.279,2.425-2.3q2.8-.033,5.594,0c1.763.018,2.385.568,2.5,2.315.052.771.38,1.018,1.1,1.008,2.869-.042,2.246.291,3.61-2.044q1.386-2.374,2.725-4.776c.46-.821.417-.886-.554-.9-.863-.013-1.727.01-2.59-.007C2849.252,1511.813,2848.922,1511.3,2849.465,1509.885Z" transform="translate(-106.494 -147.126)"/>
    <path id="Trazado_154926" data-name="Trazado 154926" d="M2724.319,1515.628c.006-8.968.025-17.937,0-26.9a1.485,1.485,0,0,1,1.008-1.646c.988-.4,1.919-.945,2.879-1.417a1.947,1.947,0,0,0,1.128-1.615c.464-3.391.979-6.775,1.424-10.168.088-.673.57-.984.9-1.45a4.147,4.147,0,0,1,4.019-1.689c2.514.146,5.044.075,7.566.017.833-.019,1.016.235,1.015,1.035q-.036,21.3-.017,42.592c0,.415.013.831.02,1.246l-5.637,0a6.974,6.974,0,0,0,.051-3.173q-.912-10.02-1.815-20.04c-.392-4.27-.737-8.544-1.2-12.807a5.8,5.8,0,0,0-.082-.617,1.3,1.3,0,0,0-2.585,0,36.308,36.308,0,0,0-.392,3.714c-.366,4.2-.754,8.4-1.137,12.6-.448,4.923-.886,9.848-1.35,14.77-.136,1.446-.258,2.894-.388,4.34-.04.443.212.8.224,1.209Z" transform="translate(-47.691 -121.311)" fill="#b0becc"/>
    <path id="Trazado_154927" data-name="Trazado 154927" d="M2847.088,1469.341a4.715,4.715,0,0,1,.717-3.359c2.811-4.667,5.582-9.359,8.4-14.023a4.583,4.583,0,0,1,8.168,0c2.819,4.663,5.59,9.355,8.4,14.023a4.692,4.692,0,0,1,.712,3.359,1.913,1.913,0,0,1-.5,1.726,4.579,4.579,0,0,1-3.8,1.983q-8.9.014-17.8,0a4.58,4.58,0,0,1-3.8-1.983A1.932,1.932,0,0,1,2847.088,1469.341Z" transform="translate(-132.213 -106.66)"/>
    <path id="Trazado_154928" data-name="Trazado 154928" d="M2741.083,1530.472c-.464-.1-.656-.318-.605-.855q1.124-11.823,2.2-23.651.542-5.888,1.062-11.778c.111-1.251.726-1.94,1.727-1.908.961.031,1.516.693,1.627,1.906q1.313,14.306,2.631,28.612c.209,2.272.394,4.547.632,6.816.056.535-.137.759-.6.857-.311.01-.622.017-.932.029-1.78.07-1.769.07-1.926-1.722q-.646-7.394-1.311-14.786c-.013-.147.047-.345-.271-.476-.174,1.875-.345,3.708-.514,5.541-.333,3.617-.686,7.234-.98,10.854-.055.678-.263.784-.877.67A14.2,14.2,0,0,0,2741.083,1530.472Z" transform="translate(-58.817 -136.159)"/>
    <path id="Trazado_154929" data-name="Trazado 154929" d="M2831.4,1513.361a4.318,4.318,0,0,0,4.559,3.4q8.64.009,17.281,0a4.31,4.31,0,0,0,4.554-3.406q.851.041,1.7.08c.084,1.666.084,1.666,1.816,1.666h3.65c-1.58,2.769-3.082,5.4-4.577,8.03a.522.522,0,0,1-.507.279c-1.071,0-2.141-.009-3.212,0-.378,0-.466-.184-.456-.512.012-.38.02-.762-.005-1.141a1.6,1.6,0,0,0-1.636-1.658q-3.314-.055-6.629,0c-1.07.017-1.638.689-1.681,1.826-.055,1.484-.055,1.484-1.45,1.484-1.721,0-1.721,0-1.873-1.688a1.621,1.621,0,0,0-1.675-1.623q-3.262-.049-6.525,0c-1.167.016-1.724.687-1.748,1.971-.025,1.343-.051,1.177-1.378,1.381-2.079.32-3.168-.553-4.013-2.368-.94-2.018-2.17-3.9-3.352-5.981,1.528,0,2.9-.061,4.262.021.934.056,1.338-.209,1.169-1.17a2.268,2.268,0,0,1,.027-.516Z" transform="translate(-116.522 -150.68)" fill="#f1bdae"/>
    <path id="Trazado_154930" data-name="Trazado 154930" d="M2759.087,1339.453q1.573-1.572,3.146-3.144c4.3-4.308,8.578-8.643,12.922-12.907a5.008,5.008,0,0,0,1.534-3.152c.368-2.951.837-5.889,1.224-8.838a1.051,1.051,0,0,1,.68-.911c2.319-1.147,4.639-2.292,6.928-3.5.915-.482,1.123.348,1.556.721.569.491-.1.709-.328.948-.927.98-1.882,1.934-2.853,2.87a2.352,2.352,0,0,0-.782,1.836c.03,1.973,0,3.947.013,5.921.007,1.426.594,2.017,2.013,2.025,1.97.01,3.94-.017,5.91.013a2.354,2.354,0,0,0,1.837-.777q1.443-1.492,2.935-2.935c.226-.219.466-.8.873-.26.324.43,1.2.58.761,1.455q-1.8,3.558-3.556,7.142a.986.986,0,0,1-.871.584c-3.249.449-6.492.934-9.738,1.4a5.892,5.892,0,0,1-.928.046,2.949,2.949,0,0,0-3.355,2.766c-.068.462-.209.586-.627.547a7.083,7.083,0,0,0-.829,0c-1.238.033-1.954.634-1.86,1.837a3.26,3.26,0,0,1-1.231,2.861c-1.721,1.6-3.34,3.312-5,4.975a5.805,5.805,0,0,1-2.813.239c-.189-.156-.088-.382-.121-.575a3,3,0,0,0-4.439-2.315A8.072,8.072,0,0,1,2759.087,1339.453Z" transform="translate(-71.641 -8.432)" fill="#fff59d"/>
    <path id="Trazado_154931" data-name="Trazado 154931" d="M2696,1449.481c-2.234,2.223-4.222,4.288-6.311,6.244a4.837,4.837,0,0,0-1.537,3.146c-.365,2.948-.834,5.884-1.223,8.83a1.055,1.055,0,0,1-.664.925c-2.319,1.142-4.644,2.276-6.927,3.487-.927.491-1.122-.34-1.561-.7-.579-.481.074-.71.3-.951.954-1,1.937-1.973,2.925-2.939a2.273,2.273,0,0,0,.72-1.757c-.025-2.006,0-4.013-.013-6.02-.01-1.344-.62-1.94-1.982-1.948-1.968-.012-3.937.02-5.9-.014a2.436,2.436,0,0,0-1.919.825c-.956,1-1.941,1.969-2.931,2.933-.21.2-.43.714-.8.245-.327-.413-1.173-.628-.832-1.344,1.189-2.491,2.455-4.947,3.675-7.424.191-.389.507-.388.852-.437,3.21-.458,6.417-.943,9.629-1.384a2.372,2.372,0,0,0,1.7-.857,2.349,2.349,0,0,1,2.158-.875C2688.807,1449.508,2692.252,1449.481,2696,1449.481Z" transform="translate(-8.39 -106.665)" fill="#fff59d"/>
    <path id="Trazado_154932" data-name="Trazado 154932" d="M2727.207,1374.707c-3.886,3.891-7.578,7.583-11.258,11.287a1.151,1.151,0,0,1-.917.353c-1-.016-2.006-.043-3,.008-.621.031-.738-.215-.728-.774.031-1.73-.007-3.461.023-5.192.009-.531-.129-.7-.686-.713-2.61-.075-2.631-.095-2.628,2.479,0,.646-.123.917-.838.878-1.171-.063-2.348-.016-3.523-.018-.3,0-.656.073-.63-.428a19.337,19.337,0,0,1,.2-4.236,4.9,4.9,0,0,1,4.539-3.628c2.072-.053,4.146.006,6.218-.031.581-.01.651.219.671.723a4.14,4.14,0,1,0,8.276.007c.018-.389-.053-.748.553-.728C2724.632,1374.735,2725.794,1374.707,2727.207,1374.707Z" transform="translate(-33.004 -55.16)" fill="#6699c4"/>
    <path id="Trazado_154933" data-name="Trazado 154933" d="M2724.588,1414.035c0,.378,0,.689,0,1,.019,1.478.59,2.035,2.1,2.049,1.388.013,1.519.235.835,1.514a3.111,3.111,0,0,1-2.83,1.8c-5.633.025-11.266.046-16.9-.007a4.909,4.909,0,0,1-4.761-4.814c-.03-.934.026-1.871-.022-2.8-.029-.565.177-.7.7-.682,1.208.035,2.419.043,3.628,0,.576-.022.725.195.665.713a5.262,5.262,0,0,0,0,.83,1.64,1.64,0,0,0,1.727,1.784c3.835.023,7.672.04,11.507-.011C2722.437,1415.383,2723.334,1414.417,2724.588,1414.035Z" transform="translate(-33.01 -80.915)" fill="#fecdb5"/>
    <path id="Trazado_154934" data-name="Trazado 154934" d="M2826.365,1386.471c.123,0,.208-.027.252,0a9.456,9.456,0,0,0,6.42,1.315c.62-.048.787.122.816.777.15,3.281-.6,4.432-4.131,4.228-1.133-.066-2.274.012-3.411-.019a3.383,3.383,0,0,1-3.224-2.709c-.072-.423-.016-.672.491-.61a4.9,4.9,0,0,0,.62,0c1.611-.01,2.151-.552,2.167-2.178C2826.367,1387.012,2826.365,1386.742,2826.365,1386.471Z" transform="translate(-115.71 -63.265)" fill="#fecdb5"/>
    <path id="Trazado_154935" data-name="Trazado 154935" d="M2764.346,1447.751c.966-.932,1.935-1.861,2.9-2.8a1.3,1.3,0,0,1,.71-.39,7.206,7.206,0,0,0,3.862-2.091c0,1.847,0,3.515,0,5.183,0,.443-.363.33-.611.331-2.037.008-4.075,0-6.112,0h-.6Z" transform="translate(-75.264 -101.849)" fill="#6699c4"/>
    <path id="Trazado_154936" data-name="Trazado 154936" d="M2754.366,1354.207a9.036,9.036,0,0,1-.054,1.056,1.666,1.666,0,0,1-1.807,1.354c-.98-.114-1.534-.916-1.479-2.13.046-1.015.689-1.232,1.544-1.183a3.98,3.98,0,0,0,.62,0C2754.033,1353.219,2754.694,1353.308,2754.366,1354.207Z" transform="translate(-66.086 -40.408)" fill="#fdccb4"/>
    <path id="Trazado_154937" data-name="Trazado 154937" d="M2753.245,1339c-.483,0-.969-.03-1.45.006-.869.065-.723-.381-.44-.863a1.554,1.554,0,0,1,1.37-.8c.794-.016,1.588,0,2.382-.01.5-.005.965.143.936.708a.971.971,0,0,1-.935.941c-.618.046-1.242.011-1.864.011Z" transform="translate(-66.164 -29.427)" fill="#c27120"/>
    <path id="Trazado_154938" data-name="Trazado 154938" d="M2752.668,1374.907c.008.622-.24,1.059-.885,1.023-.729-.041-.844-.6-.777-1.2.027-.23-.209-.8.335-.591C2751.8,1374.316,2752.709,1373.87,2752.668,1374.907Z" transform="translate(-66.056 -54.748)" fill="#facab2"/>
    <path id="Trazado_154939" data-name="Trazado 154939" d="M2856.563,1564.346c-4.631,0-9.262-.026-13.893.022-.886.009-1.088-.25-1.064-1.1.062-2.145.045-4.294.006-6.44-.012-.646.184-.808.816-.813,2.517-.023,2.516-.047,2.517,2.418,0,2.188.4,2.584,2.6,2.585,1.8,0,3.595.01,5.392,0,1.354-.011,1.94-.61,1.96-1.975.011-.8.016-1.593,0-2.389-.021-1.034.828-.676,1.177-.574.709.208,1.835-.8,2.114.568a14.082,14.082,0,0,1,.034,2.487,1.67,1.67,0,0,0,1.842,1.88q3.11.033,6.221,0a1.681,1.681,0,0,0,1.885-1.841c.009-.242,0-.485,0-.727,0-2.659.131-2.759,2.818-2.424.425.053.5.225.5.589-.008,2.389-.018,4.778,0,7.167.007.792-.548.557-.935.558Q2863.561,1564.357,2856.563,1564.346Z" transform="translate(-128.483 -179.976)" fill="#f1bdae"/>
    <path id="Trazado_154940" data-name="Trazado 154940" d="M2827.908,1597c1.1-1.069,2.051-1.969,2.966-2.907a1.264,1.264,0,0,1,1.025-.348q15.233.006,30.464,0a1.176,1.176,0,0,1,.949.28c.949.949,1.927,1.869,3.071,2.972Z" transform="translate(-119.048 -206.054)" fill="#f1bdae"/>
    <path id="Trazado_154941" data-name="Trazado 154941" d="M2951.577,1534.048V1553.6c-1.128-1.152-2.1-2.153-3.083-3.146a.965.965,0,0,1-.188-.775q0-4.721,0-9.442a1.289,1.289,0,0,1,.087-.606C2949.4,1537.841,2950.425,1536.062,2951.577,1534.048Z" transform="translate(-201.983 -164.931)" fill="#f1bdae"/>
    <path id="Trazado_154942" data-name="Trazado 154942" d="M2820.442,1553.563v-19.632c1.174,2.062,2.211,3.866,3.22,5.684a1.572,1.572,0,0,1,.066.713q.006,4.567,0,9.135c0,.337.059.68-.229.969C2822.534,1551.4,2821.585,1552.39,2820.442,1553.563Z" transform="translate(-113.905 -164.851)" fill="#f1bdae"/>
    <path id="Trazado_154943" data-name="Trazado 154943" d="M2866.279,1548.14c0,2.5,0,2.475-2.528,2.466-.625,0-.836-.142-.806-.8.057-1.2.032-2.413.008-3.619-.009-.438.112-.657.575-.589a.561.561,0,0,0,.1,0C2866.279,1545.493,2866.279,1545.493,2866.279,1548.14Z" transform="translate(-143.181 -172.868)" fill="#fff59d"/>
    <path id="Trazado_154944" data-name="Trazado 154944" d="M2905.655,1548.089c0-2.5,0-2.475,2.528-2.467.625,0,.836.142.806.8-.056,1.2-.032,2.413-.008,3.619.009.438-.112.657-.575.589a.533.533,0,0,0-.1,0C2905.655,1550.735,2905.655,1550.735,2905.655,1548.089Z" transform="translate(-172.604 -172.904)" fill="#fff59d"/>
    <path id="Trazado_154945" data-name="Trazado 154945" d="M2867.695,1476.788c-2.865,0-5.729.007-8.594,0-1.333-.005-1.71-.636-1.041-1.757q4.166-6.983,8.356-13.952c.755-1.254,1.77-1.234,2.536.041q4.161,6.926,8.3,13.866c.708,1.187.343,1.8-1.065,1.8C2873.355,1476.794,2870.525,1476.788,2867.695,1476.788Z" transform="translate(-139.595 -114.025)" fill="#d84318"/>
    <path id="Trazado_154946" data-name="Trazado 154946" d="M2887.5,1474.15c0,.865-.052,1.733.015,2.593.064.819-.5.8-.914.651-.792-.29-2.157.853-2.36-.608a43.992,43.992,0,0,1-.068-5.387c-.008-.513.185-.616.659-.638,2.669-.125,2.668-.138,2.668,2.559Q2887.5,1473.735,2887.5,1474.15Z" transform="translate(-157.772 -121.308)"/>
    <path id="Trazado_154947" data-name="Trazado 154947" d="M2886,1497.62a1.657,1.657,0,1,1-1.654,1.627A1.662,1.662,0,0,1,2886,1497.62Z" transform="translate(-157.927 -139.838)" fill="#020101"/>
  </g>
</svg>
