<svg xmlns="http://www.w3.org/2000/svg" width="105.822" height="106.002" viewBox="0 0 105.822 106.002">
  <g id="Grupo_128176" data-name="Grupo 128176" transform="translate(-3540.519 -1255.671)">
    <path id="Trazado_154990" data-name="Trazado 154990" d="M3593.411,1361.648q-25.851,0-51.7.025c-.988,0-1.217-.265-1.187-1.213.072-2.228.025-2.29,2.275-2.2,1,.038,1.182-.285,1.181-1.219q-.041-30.6-.021-61.2c0-2.11.447-2.557,2.556-2.558h35.926c1.967,0,2.46.489,2.46,2.441,0,10.218.012,20.437-.02,30.655,0,.853.143,1.145,1.069,1.115,2.362-.074,2.363-.022,2.363-2.36v-29.266c0-2.13.445-2.584,2.529-2.585,3.376,0,6.752-.036,10.127.024.881.016,1.011-.278,1.009-1.063q-.039-13.672-.016-27.344c0-1.882.508-2.383,2.408-2.385,1.244,0,2.489-.032,3.73.014.581.022.71-.18.7-.721-.035-1.388-.024-2.777-.008-4.165a1.733,1.733,0,0,1,1.971-1.961q9.967-.014,19.935,0a1.738,1.738,0,0,1,1.97,1.964c.017,1.388.028,2.778-.008,4.165-.014.547.125.737.7.717,1.278-.045,2.558-.016,3.837-.013,1.75,0,2.3.543,2.3,2.282q0,19.28,0,38.559c0,6.551.012,13.1-.017,19.653,0,.784.123,1.1,1.009,1.063,1.94-.073,2.42.471,2.42,2.456q0,15.274-.018,30.548c0,.859.09,1.229,1.107,1.187,2.324-.1,2.273-.027,2.349,2.342.03.938-.278,1.066-1.119,1.065Q3619.316,1361.628,3593.411,1361.648Z"/>
    <path id="Trazado_154991" data-name="Trazado 154991" d="M3595.2,1430.293q-4.885.018-9.771.036c-1.589.007-2.161.584-2.166,2.188q-.022,7.45-.036,14.9a4.567,4.567,0,0,1-3.328.124c-.472-.453-.319-1.055-.375-1.606-.11-1.1-.515-1.563-1.6-1.594q-3.187-.09-6.376,0c-1.081.031-1.5.5-1.608,1.592-.056.55.1,1.153-.375,1.609a9.614,9.614,0,0,1-5.033-.125c-.012-.747-.034-1.494-.034-2.24q0-22.27-.023-44.539c0-.885.2-1.1,1.094-1.1,9.558.036,19.117.022,28.675.024.319,0,.638.022.957.034a1.82,1.82,0,0,1,.346,1.41q.012,13.938,0,27.876A1.82,1.82,0,0,1,3595.2,1430.293Z" transform="translate(-17.129 -102.866)" fill="#c1cacf"/>
    <path id="Trazado_154992" data-name="Trazado 154992" d="M3809.984,1536.585q-.017-8.542-.034-17.085-.008-5.553,0-11.107c0-.455-.117-.884.647-.879,6.607.04,13.215.04,19.823.052a1.834,1.834,0,0,1,.334,1.412c.008,7.4.023,14.8,0,22.2a5.507,5.507,0,0,1-5.715,5.734c-4.546.028-9.092.012-13.638,0A1.83,1.83,0,0,1,3809.984,1536.585Z" transform="translate(-192.637 -180.069)" fill="#c1cacf"/>
    <path id="Trazado_154993" data-name="Trazado 154993" d="M3783.252,1277.893c-4.759,0-9.52-.021-14.279.021-.8.007-1-.192-.983-.988.046-2.45.009-2.451,2.485-2.451.853,0,1.706.022,2.557-.007a1.691,1.691,0,0,0,1.794-1.815c.03-1.423.023-2.847,0-4.27-.008-.493.032-.762.66-.759q7.885.039,15.771,0c.521,0,.659.159.647.663-.031,1.387-.021,2.776-.007,4.164s.633,2.005,2.024,2.018,2.771.025,4.156-.009c.518-.012.635.156.655.659.108,2.771.124,2.771-2.587,2.771Z" transform="translate(-162.642 -8.546)" fill="#dfdfdf"/>
    <path id="Trazado_154994" data-name="Trazado 154994" d="M3642.375,1538.338q-.018-9.077-.046-18.155c0-.514.142-.655.653-.653q12.471.04,24.943.046a1.829,1.829,0,0,1,.338,1.411c.009,4.52.027,9.04,0,13.559a3.772,3.772,0,0,1-4.123,4.126c-6.784.03-13.568.013-20.353.006A1.817,1.817,0,0,1,3642.375,1538.338Z" transform="translate(-72.794 -188.659)" fill="#f4f4f4"/>
    <path id="Trazado_154995" data-name="Trazado 154995" d="M3579.917,1567.535h3.341c.012,4.341.017,8.682.045,13.023,0,.506-.138.665-.654.664q-8.738-.025-17.476,0c-.516,0-.658-.158-.654-.664.028-4.341.033-8.682.045-13.023h5.047c.412.348.342.835.351,1.288.024,1.139-.021,2.278.02,3.417.046,1.281.5,1.769,1.745,1.8q3.036.066,6.074,0c1.244-.027,1.7-.515,1.745-1.8.042-1.138,0-2.278.02-3.417C3579.574,1568.371,3579.5,1567.883,3579.917,1567.535Z" transform="translate(-17.159 -222.983)" fill="#b2bdc3"/>
    <path id="Trazado_154996" data-name="Trazado 154996" d="M3756.793,1581.186c-1.986,0-3.973-.023-5.959.014-.607.011-.774-.17-.771-.774q.038-6.077,0-12.154c0-.608.169-.776.773-.772q6.065.037,12.131,0c.606,0,.774.169.771.774q-.038,6.077,0,12.155c0,.607-.168.782-.773.772C3760.908,1581.164,3758.851,1581.186,3756.793,1581.186Z" transform="translate(-149.825 -222.957)" fill="#d84318"/>
    <path id="Trazado_154997" data-name="Trazado 154997" d="M3839.846,1341.127c0-8.189.013-16.378-.02-24.566,0-.8.184-1,.982-.985,2.449.048,2.45.01,2.45,2.484q0,23.873.022,47.745c0,.888-.2,1.12-1.091,1.094-2.341-.068-2.343-.021-2.343-2.38Z" transform="translate(-214.004 -42.831)" fill="#eaf6fd"/>
    <path id="Trazado_154998" data-name="Trazado 154998" d="M3867.2,1341.336c0,8.188-.012,16.376.02,24.563,0,.795-.179,1-.982.989-2.449-.048-2.45-.009-2.45-2.488q0-23.869-.022-47.738c0-.885.2-1.124,1.091-1.1,2.342.068,2.343.02,2.343,2.383Z" transform="translate(-231.119 -42.823)" fill="#f1bdae"/>
    <path id="Trazado_154999" data-name="Trazado 154999" d="M3780.05,1411.554c-.012-3.77-.015-7.54-.045-11.31,0-.51.147-.667.658-.662,3.194.032,6.389.034,9.583.045a1.565,1.565,0,0,1,.317,1.2c.011,1.846.032,3.693,0,5.538a5.514,5.514,0,0,1-5.487,5.5c-1.275.029-2.551.014-3.826,0A1.564,1.564,0,0,1,3780.05,1411.554Z" transform="translate(-171.233 -102.897)" fill="#d84318"/>
    <path id="Trazado_155000" data-name="Trazado 155000" d="M3720.192,1411.554c-.012-3.77-.015-7.54-.045-11.31,0-.51.147-.667.659-.662,3.194.032,6.389.034,9.583.045a1.566,1.566,0,0,1,.317,1.2c.011,1.846.031,3.693,0,5.538a5.515,5.515,0,0,1-5.487,5.5c-1.275.029-2.551.014-3.827,0A1.564,1.564,0,0,1,3720.192,1411.554Z" transform="translate(-128.434 -102.897)" fill="#d84318"/>
    <path id="Trazado_155001" data-name="Trazado 155001" d="M3672.285,1430.094v-30.7c1.1.007,2.489-.39,3.2.137.677.5.2,1.99.205,3.041.017,8.825,0,17.65.032,26.475,0,.886-.2,1.2-1.1,1.094C3673.853,1430.056,3673.065,1430.105,3672.285,1430.094Z" transform="translate(-94.213 -102.667)" fill="#b2bdc3"/>
    <path id="Trazado_155002" data-name="Trazado 155002" d="M3735.459,1459.546c4.793,0,9.585.018,14.378-.018.767-.006,1.024.141,1.008.972-.049,2.464-.006,2.464-2.481,2.464-9.053,0-18.106-.013-27.159.021-.859,0-1.142-.162-1.115-1.082.07-2.356.019-2.358,2.376-2.358Z" transform="translate(-128.391 -145.758)" fill="#b2bdc3"/>
    <path id="Trazado_155003" data-name="Trazado 155003" d="M3655.946,1603.493c4.26,0,8.52.014,12.78-.015.669,0,.9.139.9.862-.01,2.57.021,2.571-2.584,2.571-7.916,0-15.832-.011-23.748.018-.768,0-1.022-.144-1.006-.973.048-2.463.006-2.464,2.481-2.464Z" transform="translate(-72.761 -248.683)" fill="#b2bdc3"/>
    <path id="Trazado_155004" data-name="Trazado 155004" d="M3810.016,1536.638q7.674,0,15.348,0a5.2,5.2,0,0,0,5.085-5.1q.009-11.961,0-23.921c1.708-.09,1.708-.09,1.708,1.574,0,9.359-.013,18.719.022,28.077,0,.884-.2,1.109-1.094,1.1-6.5-.043-13-.023-19.5-.023C3809.926,1538.35,3809.926,1538.35,3810.016,1536.638Z" transform="translate(-192.668 -180.121)" fill="#b2bdc3"/>
    <path id="Trazado_155005" data-name="Trazado 155005" d="M3642.414,1538.376q10.978,0,21.956,0a3.354,3.354,0,0,0,3.6-3.6q.008-7.582,0-15.164c1.71-.089,1.71-.089,1.71,1.565,0,5.982-.017,11.964.021,17.945,0,.8-.188.989-.985.986-8.244-.033-16.489-.02-24.733-.02C3642.325,1540.089,3642.325,1540.089,3642.414,1538.376Z" transform="translate(-72.834 -188.697)" fill="#dfdfdf"/>
    <path id="Trazado_155006" data-name="Trazado 155006" d="M3790.247,1486.94c-1.057.012-2.114.015-3.17.038a1.74,1.74,0,0,0-1.94,1.972c-.024,2.189-.027,4.379-.039,6.568a1.4,1.4,0,0,1-1.193.327c-1.285-.113-2.618.344-3.854-.327-.012-3.77-.015-7.54-.045-11.31,0-.51.147-.667.658-.662,3.194.032,6.389.034,9.583.045A3.815,3.815,0,0,1,3790.247,1486.94Z" transform="translate(-171.233 -162.931)" fill="#d84318"/>
    <path id="Trazado_155007" data-name="Trazado 155007" d="M3728.708,1494.013c-.011-.568-.017-1.137-.035-1.7a1.729,1.729,0,0,0-1.908-1.919c-1.952-.021-3.9-.027-5.855.007-.59.01-.792-.146-.778-.762.039-1.777.025-3.556.006-5.334-.005-.488.03-.776.66-.768,3.193.042,6.387.038,9.58.049a1.293,1.293,0,0,1,.311.983c.014,2.051.047,4.1-.015,6.154a4.745,4.745,0,0,1-.883,2.576C3729.532,1493.667,3729.264,1494.069,3728.708,1494.013Z" transform="translate(-128.423 -162.921)" fill="#d84318"/>
    <path id="Trazado_155008" data-name="Trazado 155008" d="M3819.307,1325.938c0,3.1-.015,6.192.013,9.287.005.637-.076.92-.835.915-2.588-.018-2.589.019-2.589-2.561,0-5.658.022-11.316-.023-16.974-.007-.876.267-1.032,1.06-1.017,2.375.045,2.375.013,2.375,2.343Z" transform="translate(-196.877 -42.84)" fill="#f1bdae"/>
    <path id="Trazado_155009" data-name="Trazado 155009" d="M3795.386,1325.857c0,3.1-.035,6.194.023,9.29.016.834-.238.98-1,.966-2.433-.042-2.433-.009-2.433-2.5,0-5.66.012-11.32-.015-16.98,0-.756.08-1.106.993-1.08,2.432.069,2.433.017,2.433,2.5Z" transform="translate(-179.78 -42.817)" fill="#eaf6fd"/>
    <path id="Trazado_155010" data-name="Trazado 155010" d="M3771.428,1325.854c0,3.131-.021,6.263.017,9.394.008.7-.174.882-.872.878-2.557-.014-2.557.014-2.557-2.59,0-5.658.018-11.316-.021-16.974-.005-.8.182-1,.983-.988,2.449.048,2.449.009,2.449,2.486Z" transform="translate(-162.646 -42.831)" fill="#f1bdae"/>
    <path id="Trazado_155011" data-name="Trazado 155011" d="M3780.086,1411.331c1.7,0,3.409.01,5.113,0a5.208,5.208,0,0,0,5.085-5.1c.009-2.277,0-4.554,0-6.831,1.094.008,2.484-.386,3.2.14.681.5.2,1.987.209,3.037.028,3.2-.01,6.4.026,9.595.008.7-.185.889-.881.882-3.724-.034-7.448-.016-11.172-.016C3780,1413.044,3780,1413.044,3780.086,1411.331Z" transform="translate(-171.269 -102.674)" fill="#d84318"/>
    <path id="Trazado_155012" data-name="Trazado 155012" d="M3720.229,1411.331c1.7,0,3.409.01,5.113,0a5.208,5.208,0,0,0,5.084-5.1c.01-2.277,0-4.554,0-6.831,1.094.008,2.484-.386,3.2.14.681.5.2,1.987.209,3.037.028,3.2-.01,6.4.026,9.595.008.7-.185.889-.881.882-3.724-.034-7.449-.016-11.173-.016C3720.139,1413.044,3720.139,1413.044,3720.229,1411.331Z" transform="translate(-128.471 -102.674)" fill="#d84318"/>
    <path id="Trazado_155013" data-name="Trazado 155013" d="M3750.116,1493.8a4.281,4.281,0,0,0,1.661-3.511c.04-2.306.009-4.614.008-6.92,1.093.007,2.482-.387,3.194.138.683.5.2,1.985.21,3.034.029,3.2-.008,6.392.025,9.588.007.676-.146.932-.867.9-1.2-.062-2.41-.038-3.614-.007-.51.013-.686-.151-.66-.663C3750.117,1495.5,3750.1,1494.65,3750.116,1493.8Z" transform="translate(-149.83 -162.706)" fill="#d84318"/>
    <path id="Trazado_155014" data-name="Trazado 155014" d="M3756.793,1546.938c-2.021,0-4.043-.017-6.064.012-.541.008-.714-.124-.73-.7-.076-2.73-.1-2.73,2.63-2.73,3.4,0,6.809.016,10.214-.014.633-.006.837.13.839.81.008,2.623.037,2.623-2.527,2.623Z" transform="translate(-149.763 -205.801)" fill="#b2bdc3"/>
    <path id="Trazado_155015" data-name="Trazado 155015" d="M3815.942,1486.965v-3.348c.283-.012.565-.033.847-.034,2.736-.012,2.719-.012,2.582,2.772-.025.512-.17.676-.671.653C3817.782,1486.967,3816.861,1486.976,3815.942,1486.965Z" transform="translate(-196.928 -162.956)" fill="#d84318"/>
    <path id="Trazado_155016" data-name="Trazado 155016" d="M3779.971,1525.552h5.047a1.874,1.874,0,0,1,.03.21c.043,1.5.043,1.5-1.491,1.5-.849,0-1.7-.066-2.546.018-.893.089-1.237-.209-1.078-1.1A5.224,5.224,0,0,0,3779.971,1525.552Z" transform="translate(-171.153 -192.965)" fill="#d84318"/>
    <path id="Trazado_155017" data-name="Trazado 155017" d="M3592.691,1558.963q-.018,2.339-.036,4.679c-.013,1.544-.592,2.151-2.092,2.158q-3.027.015-6.053,0c-1.5-.007-2.077-.613-2.09-2.158s-.024-3.119-.036-4.679c.012-.247.032-.494.034-.741.014-2.3.4-2.675,2.734-2.675,1.766,0,3.532,0,5.3,0,1.641,0,2.194.576,2.206,2.249C3592.66,1558.186,3592.679,1558.574,3592.691,1558.963Z" transform="translate(-29.934 -214.41)"/>
    <path id="Trazado_155018" data-name="Trazado 155018" d="M3582.494,1416.711c0-1.1-.022-2.2.006-3.3a1.669,1.669,0,0,1,1.784-1.814q3.351-.043,6.7,0a1.643,1.643,0,0,1,1.731,1.756q.046,3.356,0,6.714a1.646,1.646,0,0,1-1.729,1.76q-3.349.051-6.7,0a1.673,1.673,0,0,1-1.787-1.813C3582.472,1418.914,3582.494,1417.813,3582.494,1416.711Z" transform="translate(-30.006 -111.469)"/>
    <path id="Trazado_155019" data-name="Trazado 155019" d="M3640.6,1416.709c0,1.1.022,2.2-.006,3.3a1.678,1.678,0,0,1-1.787,1.815q-3.35.044-6.7,0a1.643,1.643,0,0,1-1.729-1.758q-.045-3.357,0-6.714a1.64,1.64,0,0,1,1.728-1.758q3.35-.05,6.7,0a1.674,1.674,0,0,1,1.788,1.812C3640.625,1414.506,3640.6,1415.608,3640.6,1416.709Z" transform="translate(-64.234 -111.469)"/>
    <path id="Trazado_155020" data-name="Trazado 155020" d="M3582.493,1512.664c0-1.1-.022-2.2.007-3.3a1.671,1.671,0,0,1,1.792-1.807q3.3-.042,6.594,0a1.69,1.69,0,0,1,1.834,1.875q.033,3.25,0,6.5a1.693,1.693,0,0,1-1.847,1.864q-3.244.037-6.488,0a1.719,1.719,0,0,1-1.888-1.932C3582.478,1514.8,3582.492,1513.73,3582.493,1512.664Z" transform="translate(-30.006 -180.082)"/>
    <path id="Trazado_155021" data-name="Trazado 155021" d="M3587.6,1459.576c1.1,0,2.2-.022,3.3.006a1.673,1.673,0,0,1,1.812,1.788q.044,3.357,0,6.714a1.646,1.646,0,0,1-1.754,1.734q-3.35.046-6.7,0a1.643,1.643,0,0,1-1.754-1.733q-.049-3.356,0-6.714a1.67,1.67,0,0,1,1.808-1.79C3585.4,1459.554,3586.5,1459.576,3587.6,1459.576Z" transform="translate(-29.994 -145.786)"/>
    <path id="Trazado_155022" data-name="Trazado 155022" d="M3635.587,1459.578c1.028,0,2.057-.014,3.084,0a1.719,1.719,0,0,1,1.931,1.889q.033,3.25,0,6.5a1.694,1.694,0,0,1-1.857,1.854q-3.243.035-6.488,0a1.713,1.713,0,0,1-1.878-1.941q-.026-3.2,0-6.394a1.717,1.717,0,0,1,1.91-1.909C3633.388,1459.562,3634.488,1459.578,3635.587,1459.578Z" transform="translate(-64.24 -145.789)"/>
    <path id="Trazado_155023" data-name="Trazado 155023" d="M3829.519,1534.934c-2.271,0-4.543-.024-6.813.015-.638.011-.835-.133-.836-.812-.005-2.622-.033-2.622,2.527-2.622,3.975,0,7.949.02,11.923-.018.731-.007.954.156.944.922-.032,2.514,0,2.515-2.528,2.515Z" transform="translate(-201.166 -197.216)"/>
    <path id="Trazado_155024" data-name="Trazado 155024" d="M3829.519,1558.924c-2.271,0-4.543-.023-6.813.015-.639.011-.835-.133-.836-.812-.005-2.622-.033-2.622,2.527-2.622,3.974,0,7.949.019,11.923-.018.73-.007.954.155.944.921-.032,2.515,0,2.515-2.528,2.515Z" transform="translate(-201.166 -214.369)"/>
    <path id="Trazado_155025" data-name="Trazado 155025" d="M3829.564,1579.507c2.306,0,4.614.019,6.919-.013.59-.008.768.145.778.758.041,2.673.063,2.673-2.58,2.673-3.974,0-7.949-.016-11.923.015-.681.005-.89-.156-.887-.868.012-2.566-.018-2.566,2.582-2.566Z" transform="translate(-201.168 -231.534)"/>
    <path id="Trazado_155026" data-name="Trazado 155026" d="M3664.579,1545.231q-3.994,0-7.987,0c-1.687,0-2.256-.558-2.258-2.212q-.008-4.641,0-9.282c0-1.6.581-2.177,2.182-2.178q8.04-.006,16.079,0c1.61,0,2.2.58,2.207,2.156q.009,4.694,0,9.389c0,1.522-.606,2.122-2.13,2.126C3669.974,1545.237,3667.276,1545.231,3664.579,1545.231Z" transform="translate(-81.375 -197.258)"/>
    <path id="Trazado_155027" data-name="Trazado 155027" d="M3596.23,1567.545c1.663,0,1.663,0,1.663,1.646,0,1.772,0,1.772-1.749,1.772-1.663,0-1.663,0-1.663-1.646C3594.481,1567.545,3594.481,1567.545,3596.23,1567.545Z" transform="translate(-38.583 -222.99)" fill="#d84318"/>
    <path id="Trazado_155028" data-name="Trazado 155028" d="M3597.893,1425.351c0,1.674,0,1.674-1.635,1.674-1.777,0-1.777,0-1.777-1.744,0-1.674,0-1.674,1.635-1.674C3597.893,1423.607,3597.893,1423.607,3597.893,1425.351Z" transform="translate(-38.583 -120.074)" fill="#d84318"/>
    <path id="Trazado_155029" data-name="Trazado 155029" d="M3644.01,1427.026c-1.643,0-1.643,0-1.643-1.666,0-1.752,0-1.752,1.769-1.752,1.643,0,1.643,0,1.643,1.666C3645.779,1427.026,3645.779,1427.026,3644.01,1427.026Z" transform="translate(-72.822 -120.074)" fill="#d84318"/>
    <path id="Trazado_155030" data-name="Trazado 155030" d="M3596.23,1519.566c1.663,0,1.663,0,1.663,1.646,0,1.772,0,1.772-1.749,1.772-1.663,0-1.663,0-1.663-1.646C3594.481,1519.566,3594.481,1519.566,3596.23,1519.566Z" transform="translate(-38.583 -188.685)" fill="#d84318"/>
    <path id="Trazado_155031" data-name="Trazado 155031" d="M3594.481,1473.2c0-1.618,0-1.618,1.585-1.618,1.826,0,1.826,0,1.826,1.8,0,1.618,0,1.618-1.585,1.618C3594.48,1475.005,3594.48,1475.005,3594.481,1473.2Z" transform="translate(-38.583 -154.38)" fill="#d84318"/>
    <path id="Trazado_155032" data-name="Trazado 155032" d="M3644.087,1471.587c1.691,0,1.691,0,1.691,2.042,0,1.377,0,1.377-2.144,1.376-1.269,0-1.269,0-1.268-2.148C3642.367,1471.587,3642.367,1471.587,3644.087,1471.587Z" transform="translate(-72.821 -154.38)" fill="#d84318"/>
    <path id="Trazado_155033" data-name="Trazado 155033" d="M3671.4,1546.846c0,.96-.029,1.922.011,2.88.022.529-.167.657-.665.645-1.277-.031-2.556-.036-3.832,0-.529.015-.649-.171-.643-.668.026-1.849.029-3.7,0-5.547-.009-.527.168-.657.666-.645,1.277.032,2.556.036,3.832,0,.529-.015.662.17.642.668C3671.371,1545.067,3671.4,1545.958,3671.4,1546.846Z" transform="translate(-89.91 -205.806)" fill="#c6e1fa"/>
    <path id="Trazado_155034" data-name="Trazado 155034" d="M3701.33,1546.981c0,.925-.021,1.85.009,2.773.014.452-.107.623-.588.612-1.312-.031-2.627-.027-3.939,0-.453.009-.616-.11-.609-.591.026-1.884.023-3.769,0-5.654,0-.451.107-.623.589-.612,1.313.031,2.627.04,3.939,0,.58-.019.618.251.606.7C3701.313,1545.132,3701.33,1546.057,3701.33,1546.981Z" transform="translate(-111.313 -205.801)" fill="#c6e1fa"/>
  </g>
</svg>
