<svg xmlns="http://www.w3.org/2000/svg" width="97.873" height="96.088" viewBox="0 0 97.873 96.088">
  <g id="Grupo_128175" data-name="Grupo 128175" transform="translate(-3092.26 -1303.613)">
    <path id="Trazado_154949" data-name="Trazado 154949" d="M3190.133,1495.877c-.293.153-.26.481-.378.725a4.384,4.384,0,0,1-4.049,2.7c-2.857.057-5.716.008-8.574.022a1.578,1.578,0,0,1-1.723-1.526c-.066-.993.333-1.385,1.627-1.6,2.571,0,5.142,0,7.712-.023,1.744-.014,2.224-.485,2.236-2.2.007-1.081.026-2.163-.007-3.244a3.455,3.455,0,0,0-3.56-3.56c-.634-.02-1.269-.015-1.9-.005-1.907.009-3.813,0-5.72,0a3.887,3.887,0,0,0-3.908,3.88q0,2.769,0,5.539a2.759,2.759,0,0,1-.251,1.392,1.58,1.58,0,0,1-1.784,1.344q-36.476-.012-72.951-.012a4.46,4.46,0,0,1-4.583-4.6,28.214,28.214,0,0,1,.148-5.437,6.5,6.5,0,0,1,6.292-5.259c2.577-.036,5.156-.029,7.734,0,.609.007.845-.133.8-.78a18.828,18.828,0,0,1,0-2.294c.022-.479-.135-.646-.622-.722a6.578,6.578,0,0,1-5.958-6.951q-.011-7.174,0-14.349a5.7,5.7,0,0,1,6.022-6.062q5.537-.013,11.076,0a5.73,5.73,0,0,1,6.017,5.993c.009,1.467-.032,2.935.013,4.4a1.729,1.729,0,0,1-1.354,2c-.524.435-1.154.28-1.745.293-.731.017-1.464.032-2.194-.014-4.389.026-8.778,0-13.167.013-1.471,0-1.5.029-1.5,1.489,0,2.071-.009,4.142,0,6.214a3.515,3.515,0,0,0,3.09,3.843,59.965,59.965,0,0,0,10.448.005c2.257-.209,3.219-1.684,3.269-3.987.019-.89-.051-1.784.037-2.671a1.376,1.376,0,0,1,1.765-1.394,1.545,1.545,0,0,1,1.337,1.788,27.346,27.346,0,0,1-.125,3.913,6.545,6.545,0,0,1-5.715,5.46c-.578.073-.846.217-.794.863a21.816,21.816,0,0,1,.008,2.391c-.013.412.125.559.543.552,1.241-.021,2.484-.022,3.725,0a.763.763,0,0,0,.742-.454,6.573,6.573,0,0,1,6.077-3.256c2.387.033,4.776-.02,7.163.024.687.013.923-.2.815-.855a1.162,1.162,0,0,1,0-.191,6.931,6.931,0,0,0-.059-2.37c-.312-.8-1.374-.391-2.076-.685-2.62-1.095-4.271-2.968-4.385-5.817-.153-3.79-.062-7.589-.072-11.384,0-1.882-.017-3.764,0-5.646a5.66,5.66,0,0,1,5.979-6.005q5.588-.045,11.175,0a5.63,5.63,0,0,1,5.949,5.935q.051,8.181,0,16.362a6.57,6.57,0,0,1-6.064,6.865c-.414.054-.538.171-.526.571.024.829.049,1.661-.006,2.487-.042.618.191.736.758.729,2.387-.031,4.776.019,7.163-.021a6.594,6.594,0,0,1,6.157,3.282.763.763,0,0,0,.757.427c1.21-.019,2.42-.023,3.629,0,.44.009.633-.1.614-.581-.034-.86-.026-1.722,0-2.583.011-.4-.14-.532-.529-.61-4.214-.838-6.1-3.143-6.1-7.424q0-6.076,0-12.152a7.4,7.4,0,0,1,7.788-7.8q5.969-.01,11.939,0c5.018.011,7.906,4.411,5.952,9.054-.037.088-.063.181-.107.265a21.228,21.228,0,0,0-2.516,11.542,6.311,6.311,0,0,1-5.68,6.473c-.615.076-.916.233-.841.913.1.938-.4,2.2.2,2.738.515.467,1.751.151,2.669.156,1.783.01,3.566-.007,5.349.005a6.531,6.531,0,0,1,6.616,5.341c.018.079.1.144.148.215Z" transform="translate(0 -99.625)"/>
    <path id="Trazado_154950" data-name="Trazado 154950" d="M3190.663,1330.425c.574,1.091.525,1.477-.344,2.353-1.369,1.38-2.738,2.76-4.122,4.125a4.65,4.65,0,0,1-7.015-.029c-2.282-2.269-4.58-4.525-6.8-6.852-.637-.667-.946-.554-1.522.03-3.984,4.038-8,8.043-12.01,12.056-1.734,1.736-3.378,1.732-5.115,0-.609-.608-1.227-1.207-1.822-1.829a3,3,0,0,1-.027-4.434q8.221-8.275,16.484-16.506a4.562,4.562,0,0,1,6.6.065c2.413,2.363,4.79,4.764,7.155,7.176.437.446.662.53,1.156.028q5.4-5.486,10.873-10.895c.5-.5.55-.76.005-1.247-.9-.805-1.728-1.7-2.578-2.559a3.3,3.3,0,0,1,1.764-5.685c5.238-.862,10.473-1.745,15.718-2.567a3.289,3.289,0,0,1,3.707,3.835c-.816,5.094-1.651,10.185-2.466,15.28a3.42,3.42,0,0,1-2.294,3.015,3.33,3.33,0,0,1-3.692-1.108c-.766-.81-1.6-1.556-2.349-2.382-.434-.479-.692-.531-1.176-.026-1.7,1.77-3.464,3.476-5.183,5.227a1.563,1.563,0,0,1-2.207.32,1.28,1.28,0,0,1-.5-1.766,3.556,3.556,0,0,1,.822-1.041c1.813-1.826,3.644-3.635,5.445-5.473,1.777-2,2.712-1.9,4.431.027.439.493.928.942,1.409,1.395.428.426.842.868,1.285,1.278.6.555.811.5.956-.319.386-2.161.693-4.336,1.063-6.5.419-2.446.769-4.9,1.188-7.35.218-1.271.153-1.319-1.121-1.124-.251.039-.5.1-.75.132-3.032.367-6.022,1-9.041,1.447-1.384.207-2.768.415-4.143.677-.746.142-.818.36-.283.914,1.128,1.168,2.3,2.3,3.433,3.456a1.866,1.866,0,0,1,0,3.052q-6.639,6.669-13.3,13.319c-1.189,1.187-1.939,1.173-3.159-.043-2.595-2.584-5.172-5.187-7.767-7.771-1.353-1.348-2.087-1.343-3.452.023q-7.43,7.432-14.85,14.874c-1.041,1.043-1.04,1.044-.007,2.075.113.113.229.221.339.335.868.892.873.9,1.708.059q6.126-6.142,12.25-12.286c.294-.289.581-.586.88-.869a1.745,1.745,0,0,1,2.815-.01c1.323,1.276,2.6,2.6,3.9,3.894,1.623,1.6,3.187,3.267,4.864,4.815a1.619,1.619,0,0,0,2.229-.359c1.369-1.333,2.7-2.7,4.058-4.05a2.1,2.1,0,0,1,1.471-.8C3190.033,1329.831,3190.475,1329.91,3190.663,1330.425Z" transform="translate(-40.656)"/>
    <path id="Trazado_154951" data-name="Trazado 154951" d="M3356.158,1585.688a1.621,1.621,0,0,0-1.547,1.378c-1.256.1-2.532-.216-3.773.184-.008-2.674-.008-5.347-.032-8.02a1.177,1.177,0,0,1,.387-.911c2.128-2.169,2.123-2.177,5.161-2.172,1.461,0,2.921.022,4.382.034a3.71,3.71,0,0,1,1.591,3.091c.111,1.707.065,3.424.018,5.136-.029,1.017-.266,1.2-1.255,1.219C3359.445,1585.659,3357.8,1585.542,3356.158,1585.688Z" transform="translate(-179.201 -188.896)" fill="#d84318"/>
    <path id="Trazado_154952" data-name="Trazado 154952" d="M3155.7,1509.475c-1.177.2-1.517.588-1.527,1.767-.009.955.022,1.91-.01,2.864a3.6,3.6,0,0,1-3.047,3.624,83.444,83.444,0,0,1-10.928.043c.373-.412.876-.319,1.339-.322,2.446-.014,4.893-.047,7.338.013a2,2,0,0,0,2.079-1.307,5.23,5.23,0,0,0,.462-2.222q-.006-3.437,0-6.874a1.863,1.863,0,0,1,.293-1.363l3.993-.014Z" transform="translate(-33.22 -140.057)" fill="#fee4c1"/>
    <path id="Trazado_154953" data-name="Trazado 154953" d="M3268.728,1355.489q-2.859,2.9-5.718,5.805a1.488,1.488,0,0,0-.15,2.321q-1.37,1.306-2.737,2.612c-1.095-.6-1.482-.552-2.349.311-1.4,1.391-2.779,2.8-4.186,4.184a1.719,1.719,0,0,1-2.457.277,15.976,15.976,0,0,1,2.229-2.056q6.311-6.381,12.67-12.714C3266.791,1355.466,3267.614,1354.95,3268.728,1355.489Z" transform="translate(-110.115 -35.802)" fill="#fff59d"/>
    <path id="Trazado_154954" data-name="Trazado 154954" d="M3167.816,1316.248a1.359,1.359,0,0,1-1.412-1.464c.025-.8-.107-1.18-1.042-1.109a1.417,1.417,0,1,1,.061-2.82c.8.046,1.026-.186.98-.984a1.424,1.424,0,1,1,2.821.012c-.05.822.219,1.01,1,.971a1.418,1.418,0,1,1,.047,2.822c-.94-.073-1.067.314-1.042,1.113A1.348,1.348,0,0,1,3167.816,1316.248Z" transform="translate(-49.614 -3.221)"/>
    <path id="Trazado_154955" data-name="Trazado 154955" d="M3147.242,1351.781a1.4,1.4,0,0,1-1.448-1.338,1.369,1.369,0,0,1,1.363-1.5,1.411,1.411,0,0,1,1.471,1.414A1.452,1.452,0,0,1,3147.242,1351.781Z" transform="translate(-37.103 -31.419)" fill="#010101"/>
    <path id="Trazado_154956" data-name="Trazado 154956" d="M3236.949,1493.973c-3.342.008-6.685.061-10.026,0a3.479,3.479,0,0,1-3.356-3.212c-.125-2.546-.07-5.1-.072-7.653a1.3,1.3,0,0,1,.219-.616q1.519-2.54,3.06-5.066a1.186,1.186,0,0,1,.958-.7c2.319-.154,4.64-.027,6.961-.066a1.112,1.112,0,0,1,.98.657q1.4,2.281,2.753,4.593a2.489,2.489,0,0,1,.328,1.281c.006,2.392.083,4.787-.03,7.174A3.948,3.948,0,0,1,3236.949,1493.973Z" transform="translate(-90.953 -119.936)" fill="#fee4c1"/>
    <path id="Trazado_154957" data-name="Trazado 154957" d="M3144,1505.626c0,2.806-.02,5.613.011,8.419a5.453,5.453,0,0,1-1.155,3.257c-.308.442-.712.35-1.109.352q-4.63.031-9.26.047a3.592,3.592,0,0,1-3.374-3.386c-.069-2.734-.016-5.47-.037-8.2,0-.427.144-.532.547-.53Q3136.811,1505.616,3144,1505.626Z" transform="translate(-25.517 -139.986)" fill="#fee4c1"/>
    <path id="Trazado_154958" data-name="Trazado 154958" d="M3321.193,1514.719a3.669,3.669,0,0,1-3.365-3.629c-.046-1.594,0-3.19-.022-4.784a.947.947,0,0,1,.438-.867c1.741-1.286,3.469-2.59,5.2-3.9a.841.841,0,0,1,.949-.176c2.651,1.147,5.315,2.265,7.97,3.4a3.1,3.1,0,0,1,.533.373,1.085,1.085,0,0,1,.285.788,34.807,34.807,0,0,1-.227,6.19,4.908,4.908,0,0,1-.917,2.076,1.236,1.236,0,0,1-1.034.589C3327.729,1514.748,3324.46,1514.872,3321.193,1514.719Z" transform="translate(-156.329 -137.01)" fill="#fee4c1"/>
    <path id="Trazado_154959" data-name="Trazado 154959" d="M3110.123,1585.692c-2.134,0-4.267.007-6.4,0-1.392-.006-1.981-.595-1.991-1.974-.009-1.276-.018-2.552,0-3.828a3.7,3.7,0,0,1,3.75-3.759c2.866-.023,5.732,0,8.6-.016a1.771,1.771,0,0,1,1.1.429,4.792,4.792,0,0,1,2.232,5.022,17.231,17.231,0,0,0-.016,3.345c.026.614-.138.813-.779.8C3114.455,1585.666,3112.288,1585.692,3110.123,1585.692Z" transform="translate(-6.558 -188.873)" fill="#d84318"/>
    <path id="Trazado_154960" data-name="Trazado 154960" d="M3334.013,1483.921c-2.843-1.192-5.712-2.323-8.516-3.6-1.359-.62-2.429-.716-3.623.383a49.933,49.933,0,0,1-4.053,3.059c0-1.8-.112-3.425.028-5.026a4.251,4.251,0,0,1,3.73-3.878,1.385,1.385,0,0,1,.748-.079c3.885,0,7.77.02,11.655-.02a1.747,1.747,0,0,1,1.749,1.047,3.984,3.984,0,0,1,.476,1.64C3336.33,1479.9,3335.218,1481.924,3334.013,1483.921Z" transform="translate(-156.309 -118.624)" fill="#656d78"/>
    <path id="Trazado_154961" data-name="Trazado 154961" d="M3202.037,1577.385c-1.3,0-2.608.012-3.911,0s-1.887-.589-1.894-1.856c-.015-2.58-.027-5.161.006-7.741a3.565,3.565,0,0,1,3.619-3.638c.954-.023,1.909.023,2.861-.018a.762.762,0,0,1,.922.683q1.434,5.931,2.925,11.849c.155.614-.009.759-.618.738C3204.646,1577.355,3203.34,1577.385,3202.037,1577.385Z" transform="translate(-72.054 -180.565)" fill="#afbcc7"/>
    <path id="Trazado_154962" data-name="Trazado 154962" d="M3129.156,1481.189c-.012-1.264-.061-2.529-.024-3.792a2.653,2.653,0,0,1,2.255-2.536,1.247,1.247,0,0,1,.653-.077c3.495,0,6.99.017,10.483-.016a1.432,1.432,0,0,1,1.468.956,6.768,6.768,0,0,1,.344,2.913c.007,2.648,0,2.649-2.62,2.649q-5.766,0-11.531-.005A1.964,1.964,0,0,1,3129.156,1481.189Z" transform="translate(-25.547 -118.629)" fill="#656d78"/>
    <path id="Trazado_154963" data-name="Trazado 154963" d="M3316.083,1585.689a45.146,45.146,0,0,0,.2-6.458c.022-.827.032-1.657-.007-2.483-.024-.513.162-.65.652-.639,1.271.029,2.542.024,3.813,0a1.475,1.475,0,0,1,.915.392,4.861,4.861,0,0,1,2.258,5.094,24.267,24.267,0,0,0-.031,3.53c0,.284.054.571-.4.569C3321.007,1585.682,3318.537,1585.689,3316.083,1585.689Z" transform="translate(-155.135 -188.87)" fill="#d84318"/>
    <path id="Trazado_154964" data-name="Trazado 154964" d="M3273.507,1577.132q.995-4.176,1.991-8.352c.282-1.176.66-2.334.85-3.524.15-.942.53-1.353,1.485-1.186a6.734,6.734,0,0,0,.856.042,2.115,2.115,0,0,1,.914,1.394,7.5,7.5,0,0,1,.335,2.062q.018,3.905,0,7.81a3.255,3.255,0,0,1-.187,1.216c-.138.344-.351.632-.753.625C3277.168,1577.183,3275.335,1577.344,3273.507,1577.132Z" transform="translate(-125.625 -180.501)" fill="#afbcc7"/>
    <path id="Trazado_154965" data-name="Trazado 154965" d="M3273.484,1577.155c1.615,0,3.235-.053,4.847.026.9.044,1.276-.4,1.265-1.137-.05-3.293.247-6.592-.16-9.879a6.647,6.647,0,0,0-.77-2.031c3.516-.432,5.465,1.214,5.223,4.908-.141,2.158-.015,4.332-.032,6.5-.009,1.139-.57,1.776-1.663,1.79-2.831.035-5.662.017-8.493.016C3273.594,1577.347,3273.431,1577.361,3273.484,1577.155Z" transform="translate(-125.601 -180.524)" fill="#afbcc7"/>
    <path id="Trazado_154966" data-name="Trazado 154966" d="M3238.594,1460.6a7.616,7.616,0,0,0-3.343-.585c-2.1.035-4.2.05-6.3,0a4.825,4.825,0,0,0-4.786,2.66,3.072,3.072,0,0,1-.261.4c-.03.04-.1.051-.213.107,0-1.407-.1-2.793.029-4.159a2.468,2.468,0,0,1,2.476-2.12c3.815-.031,7.63,0,11.444.014A3.24,3.24,0,0,1,3238.594,1460.6Z" transform="translate(-91.075 -106.234)" fill="#656d78"/>
    <path id="Trazado_154967" data-name="Trazado 154967" d="M3261.8,1564.114c-1.048,4.271-2.067,8.411-3.079,12.553-.3,1.211-1.242.508-1.879.6-.709.1-.429-.564-.432-.9-.024-2.743,0-5.486-.022-8.23a1.738,1.738,0,0,1,.468-1.295,6.736,6.736,0,0,0,1.134-1.412C3258.851,1563.771,3260.279,1563.933,3261.8,1564.114Z" transform="translate(-113.741 -180.481)" fill="#f0f8ff"/>
    <path id="Trazado_154968" data-name="Trazado 154968" d="M3235.107,1572.233c0,1.432-.028,2.864.013,4.3.017.595-.172.748-.752.743-1.412-.013-1.417.02-1.765-1.383-.908-3.667-1.8-7.338-2.729-11-.168-.664-.134-.872.67-.935a3.33,3.33,0,0,1,3.018,1.438,5.448,5.448,0,0,1,1.561,4.552A17.932,17.932,0,0,0,3235.107,1572.233Z" transform="translate(-95.326 -180.437)" fill="#f0f8ff"/>
    <path id="Trazado_154969" data-name="Trazado 154969" d="M3165.441,1576.141c1.206-.011,2.412.009,3.616-.047.6-.028.745.176.736.754-.033,2.13-.01,4.262-.015,6.393a7.633,7.633,0,0,0,.267,2.434c-2.585,0-5.12,0-7.654-.007-.057,0-.114-.11-.172-.169.684-.505,1.474-.281,2.215-.281.646,0,.842-.113.791-.849-.173-2.474-.067-4.958-.06-7.438A1.061,1.061,0,0,1,3165.441,1576.141Z" transform="translate(-48.489 -188.858)" fill="#d84318"/>
    <path id="Trazado_154970" data-name="Trazado 154970" d="M3368.248,1585.691a19.861,19.861,0,0,1,4.242-.143c1.673-.045,1.674-.011,1.676-1.692,0-.922-.063-1.849.013-2.764a6.694,6.694,0,0,0-1.354-4.907c.7-.011,1.4-.047,2.1-.027a3.69,3.69,0,0,1,3.623,3.588c.045,1.4.029,2.8.006,4.207a1.623,1.623,0,0,1-1.716,1.758C3373.973,1585.726,3371.11,1585.7,3368.248,1585.691Z" transform="translate(-191.291 -188.9)" fill="#d84318"/>
    <path id="Trazado_154971" data-name="Trazado 154971" d="M3246.539,1493.817a6.233,6.233,0,0,0,1.542-4.47c-.057-1.72-.075-3.446.008-5.163a5.243,5.243,0,0,0-.955-3.383c-.736-1.07-1.353-2.225-1.991-3.36a1.5,1.5,0,0,0-1.523-.856c-2.1.052-4.2,0-6.3-.01.249-.205.546-.137.825-.137,2.416,0,4.832.019,7.248,0a1.926,1.926,0,0,1,1.938,1.1c.014.029.032.055.047.082,1.016,1.722,2.524,3.338,2.924,5.193.511,2.373.195,4.942.114,7.423A3.616,3.616,0,0,1,3246.539,1493.817Z" transform="translate(-100.544 -119.78)" fill="#fee4c1"/>
    <path id="Trazado_154972" data-name="Trazado 154972" d="M3165.354,1576.174q0,3.718,0,7.436c0,.222.017.446,0,.667-.033.412.461.926.156,1.137-.33.228-.91.1-1.381.113-.666.012-1.332,0-2,0q-.018-3.226-.038-6.452a.733.733,0,0,1,.2-.6q1.139-1.072,2.264-2.159A.837.837,0,0,1,3165.354,1576.174Z" transform="translate(-48.403 -188.892)" fill="#d84318"/>
    <path id="Trazado_154973" data-name="Trazado 154973" d="M3342.6,1483.781c.59-1.5,1.271-2.976,1.742-4.514a4.32,4.32,0,0,0-.478-3.826,1.475,1.475,0,0,0-1.413-.717c-4.095.015-8.189,0-12.285,0a1.377,1.377,0,0,1,.921-.152c4.074,0,8.149-.01,12.224.006a3.4,3.4,0,0,1,3.329,4.892c-.63,1.462-1.293,2.912-1.852,4.4-.243.646-.5.793-1.08.451C3343.352,1484.111,3342.967,1483.958,3342.6,1483.781Z" transform="translate(-164.893 -118.484)" fill="#656d78"/>
    <path id="Trazado_154974" data-name="Trazado 154974" d="M3328.844,1523.427q4.239-.018,8.476-.036a2.832,2.832,0,0,0,3.054-2.882c.241-2.22.128-4.439.168-6.659a7.342,7.342,0,0,1,2.023.726c.339.111.285.378.285.623,0,1.593.04,3.188-.018,4.779a3.613,3.613,0,0,1-3.421,3.484c-2.059.135-4.132.092-6.2.068A26.468,26.468,0,0,1,3328.844,1523.427Z" transform="translate(-163.979 -145.718)" fill="#fee4c1"/>
    <path id="Trazado_154975" data-name="Trazado 154975" d="M3129.242,1481.037c4.643,0,9.286-.016,13.928.019.765.005,1-.225.96-.975-.057-1.08.016-2.167-.023-3.248-.055-1.495-.7-2.1-2.14-2.1l-10.493-.017a1.324,1.324,0,0,1,.919-.15c3.563,0,7.127-.01,10.69,0,2.484.009,3.506,1.067,3.507,3.585,0,.829-.01,1.657,0,2.486.006.387-.11.584-.538.584q-8.3-.015-16.606-.02C3129.379,1481.2,3129.31,1481.093,3129.242,1481.037Z" transform="translate(-25.632 -118.478)" fill="#656d78"/>
    <path id="Trazado_154976" data-name="Trazado 154976" d="M3245.11,1542.668c1.26-.376,2.546-.061,3.818-.143.391-.025.33.3.331.546,0,1.239.007,2.479,0,3.718,0,.72-.664,1.038-.982,1.566a2.015,2.015,0,0,1-.181.221c-1,1.22-1,1.22-1.922-.145a14.869,14.869,0,0,0,.339-4.121c.028-.816-.075-1.449-1.089-1.449A.494.494,0,0,1,3245.11,1542.668Z" transform="translate(-105.942 -165.561)" fill="#fee4c1"/>
    <path id="Trazado_154977" data-name="Trazado 154977" d="M3343.919,1554.724c2.42-.212,2.42-.212,2.42,2.129a1.66,1.66,0,0,0,0,.379c.413,1.71-.621,2.715-1.792,3.624-.711.553-.823-.323-1.2-.574a19.055,19.055,0,0,0,.28-4.491A1.531,1.531,0,0,1,3343.919,1554.724Z" transform="translate(-174.038 -173.988)" fill="#fee4c1"/>
    <path id="Trazado_154978" data-name="Trazado 154978" d="M3154.759,1554.732c2.347-.207,2.347-.207,2.347,2.088a2.674,2.674,0,0,0,.007.662c.451,1.7-.827,2.484-1.8,3.434-.252.246-.431.161-.628-.052-.233-.253-.475-.5-.713-.746.656-1.076.471-2.273.51-3.442C3154.5,1556.021,3154.313,1555.328,3154.759,1554.732Z" transform="translate(-42.774 -173.995)" fill="#fee4c1"/>
    <path id="Trazado_154979" data-name="Trazado 154979" d="M3270.18,1460.641a5.567,5.567,0,0,0-.95-3.687c2.162-.105,3.287.932,3.306,3.061a30.642,30.642,0,0,1-.1,3.209A9.217,9.217,0,0,0,3270.18,1460.641Z" transform="translate(-122.66 -106.278)" fill="#656d78"/>
    <path id="Trazado_154980" data-name="Trazado 154980" d="M3152.284,1554.731c0,1.323.028,2.646-.014,3.968-.018.567.021,1.241-.772,1.418a2.062,2.062,0,0,1-1.077-2.208,11.314,11.314,0,0,0,0-2.278c-.082-.835.262-1.071,1.016-.958C3151.716,1554.715,3152,1554.713,3152.284,1554.731Z" transform="translate(-40.299 -173.995)" fill="#facfa1"/>
    <path id="Trazado_154981" data-name="Trazado 154981" d="M3244.917,1543.095c1.672.023,1.672.023,1.672,1.752,0,.794-.015,1.588,0,2.381a2.039,2.039,0,0,1-.612,1.631,2.81,2.81,0,0,1-1.132-2.63C3244.954,1545.192,3244.9,1544.14,3244.917,1543.095Z" transform="translate(-105.749 -165.988)" fill="#fcd1a3"/>
    <path id="Trazado_154982" data-name="Trazado 154982" d="M3341.075,1554.718c0,1.3-.018,2.6.006,3.9a2.251,2.251,0,0,1-.569,1.655,2.356,2.356,0,0,1-1.229-2.516,8.374,8.374,0,0,0,0-2.087c-.1-.863.221-1.15,1.038-1.011A7.541,7.541,0,0,0,3341.075,1554.718Z" transform="translate(-171.194 -173.982)" fill="#fdd1a3"/>
    <path id="Trazado_154983" data-name="Trazado 154983" d="M3206.327,1327.047a3.16,3.16,0,0,0-2.775,1.112c-4.213,4.288-8.474,8.529-12.729,12.776a8.7,8.7,0,0,1-2.093,1.622c-1.775-1.533-3.338-3.283-5.014-4.917-1.225-1.2-2.419-2.424-3.632-3.631-1.092-1.087-1.7-1.081-2.8,0-.246.243-.51.466-.767.7-1.75.154-2.75,1.444-3.864,2.561q-4.552,4.561-9.112,9.112c-.3.3-.541.854-1.156.569-1.7-1.463-1.7-1.46-.128-3.03q7.362-7.371,14.721-14.743c1.278-1.279,2.123-1.288,3.4-.018q4.024,4.017,8.038,8.046c1.058,1.057,1.655,1.052,2.732-.025q6.653-6.659,13.3-13.325c1.088-1.09,1.085-1.72,0-2.816q-1.819-1.83-3.646-3.652c-.447-.444-.562-.878.185-1,4.515-.74,9.036-1.439,13.555-2.152a1.416,1.416,0,0,1,.195,1.272q-.953,5.747-1.89,11.5c-.1.582-.091,1.334-.987,1.39-.679-.658-1.363-1.31-2.036-1.974-1.085-1.068-1.707-1.069-2.792,0C3206.8,1326.637,3206.561,1326.838,3206.327,1327.047Z" transform="translate(-47.715 -7.359)" fill="#fff59d"/>
    <path id="Trazado_154984" data-name="Trazado 154984" d="M3326.482,1327.583c1.024-.711.76-1.879.939-2.853.616-3.347,1.135-6.713,1.677-10.073a11.1,11.1,0,0,0,.066-1.232c2.948-.61,2.587-.7,2.163,1.882-.732,4.455-1.442,8.914-2.159,13.372-.055.341-.011.758-.4.9-.422.159-.6-.265-.836-.492C3327.431,1328.6,3326.963,1328.087,3326.482,1327.583Z" transform="translate(-162.342 -6.553)" fill="#fff59d"/>
    <path id="Trazado_154985" data-name="Trazado 154985" d="M3165.3,1393.125c.443-.011.646-.377.907-.638,3.487-3.485,6.982-6.963,10.442-10.475a3.16,3.16,0,0,1,2.782-1.129q-4.248,4.293-8.5,8.585-1.876,1.893-3.765,3.774C3166.219,1394.2,3166.218,1394.2,3165.3,1393.125Z" transform="translate(-50.626 -53.539)" fill="#fff59d"/>
    <path id="Trazado_154986" data-name="Trazado 154986" d="M3244.889,1512.307a4.3,4.3,0,0,1-1.948-.43,1.332,1.332,0,0,1-.835-1.7,1.308,1.308,0,0,1,1.69-.969,4.288,4.288,0,0,0,2.417.023,1.3,1.3,0,0,1,1.653.914,1.423,1.423,0,0,1-.862,1.786A4.756,4.756,0,0,1,3244.889,1512.307Z" transform="translate(-103.813 -142.457)" fill="#010100"/>
    <path id="Trazado_154987" data-name="Trazado 154987" d="M3150.153,1527.779a4.694,4.694,0,0,1-2.354-.579,1.418,1.418,0,0,1-.7-1.859,1.391,1.391,0,0,1,1.839-.7,3.246,3.246,0,0,0,2.228.1,1.371,1.371,0,0,1,1.836.895,1.434,1.434,0,0,1-.954,1.824A4.538,4.538,0,0,1,3150.153,1527.779Z" transform="translate(-37.923 -153.115)" fill="#010000"/>
    <path id="Trazado_154988" data-name="Trazado 154988" d="M3339.162,1527.928a4.836,4.836,0,0,1-2.212-.447,1.335,1.335,0,0,1-.846-1.7,1.308,1.308,0,0,1,1.7-.973,4.722,4.722,0,0,0,2.615.039,1.265,1.265,0,0,1,1.565.93,1.324,1.324,0,0,1-.685,1.7A3.969,3.969,0,0,1,3339.162,1527.928Z" transform="translate(-168.965 -153.266)" fill="#010101"/>
  </g>
</svg>
