<svg id="Grupo_128171" data-name="Grupo 128171" xmlns="http://www.w3.org/2000/svg" width="91.932" height="92.001" viewBox="0 0 91.932 92.001">
  <path id="Trazado_154789" data-name="Trazado 154789" d="M1495.428,1452.237c-1.286-.88-1.4-1.586-.459-2.882q5.558-7.638,11.129-15.266a2.4,2.4,0,0,0,.5-1.558c-.032-1.852-.027-3.7,0-5.557.007-.527-.047-.789-.7-.772-1.334.036-1.661-.276-2.133-1.568-.249-.68-.215-1.738-.819-1.933-.494-.16-1.261.508-1.9.821-1.23.6-1.654.538-2.619-.416-2.216-2.189-2.232-1.983-.753-4.754.421-.789.167-.942-.529-1.164-2.981-.952-2.816-.817-2.794-3.933.009-1.281.3-1.657,1.51-2.094.713-.257,1.812-.244,2.016-.868.167-.512-.519-1.322-.87-1.977a1.683,1.683,0,0,1,.159-2.211c.357-.353.038-.593-.093-.853a24.224,24.224,0,0,1-2.534-14.052c.038-.326.1-.649.147-.974.19-1.39.562-1.737,1.95-1.812,1.013.2,1.467.9,1.338,2.135a27.881,27.881,0,0,0-.324,3.564,22.818,22.818,0,0,0,2.011,8.941,2.311,2.311,0,0,0,1.329,1.113c1.869.866,1.888.879,2.572-1.08a2.168,2.168,0,0,1,1.854-1.6c.753-.093.9-.484.894-1.15-.021-3.256-.01-6.512-.009-9.768a7.857,7.857,0,0,1,.066-1.341,3.41,3.41,0,0,1,3.51-3.065c1.433-.038,2.869-.009,4.3-.01,4.154,0,8.307-.007,12.461.006a2.144,2.144,0,0,0,1.775-.641,4.687,4.687,0,0,1,2.02-.911c.842-.32.891-.427.519-1.234-1.17-2.534-1.17-2.534.777-4.471a4.444,4.444,0,0,1,.385-.375c.472-.367.351-.627-.075-.965a20.826,20.826,0,0,0-7.352-3.806,8.192,8.192,0,0,1-1.607-.555,1.422,1.422,0,0,1-.8-1.833c.533-1.143,1.064-1.409,2.269-1.112a24.164,24.164,0,0,1,11.992,6.929c.2.213.376.455.587.712,1.213-2.223,1.213-2.223,3.756-2.209,1.427.007,1.782.281,2.263,1.667.23.662.224,1.665.79,1.873.451.165,1.2-.476,1.816-.776,1.408-.69,1.7-.645,2.821.472,1.987,1.978,1.987,1.978.74,4.479-.505,1.014-.5.992.58,1.382.954.345,2.079.4,2.609,1.519.118.25.5.1.755.1q8.474.011,16.948.006c2.637,0,3.778,1.131,3.778,3.749q0,21.112-.016,42.224a2.972,2.972,0,0,0,.629,1.876q5.477,7.477,10.916,14.983c.243.335.471.681.707,1.021v.9a1.344,1.344,0,0,1-1.077,1.076Z" transform="translate(-1494.343 -1360.291)"/>
  <path id="Trazado_154790" data-name="Trazado 154790" d="M1736.683,1344.062c-4.844,0-9.688-.008-14.532.021-.625,0-.849-.149-.776-.782.084-.733-.3-1.7.142-2.152s1.419-.128,2.159-.13c4.336-.013,8.672-.006,13.008-.006Z" transform="translate(-1644.806 -1340.908)"/>
  <path id="Trazado_154791" data-name="Trazado 154791" d="M1736.8,1371.411q-7.4.017-14.793.042c-.384,0-.566-.1-.506-.5a.5.5,0,0,0,0-.089c-.1-2.481-.1-2.479,2.387-2.482q6.456-.007,12.912-.02Z" transform="translate(-1644.918 -1359.108)"/>
  <path id="Trazado_154792" data-name="Trazado 154792" d="M1754.75,1357.781c-1.785-.016-3.569-.062-5.353-.029-.644.012-.834-.192-.769-.8.078-.733-.308-1.7.146-2.147s1.41-.123,2.145-.126c1.277-.006,2.554.034,3.831.055Z" transform="translate(-1662.873 -1349.963)" fill="#010101"/>
  <path id="Trazado_154793" data-name="Trazado 154793" d="M1763.752,1611.6a3.578,3.578,0,0,0,1.077-1.076Q1765.133,1611.9,1763.752,1611.6Z" transform="translate(-1672.951 -1519.652)" fill="#e7e7e7"/>
  <path id="Trazado_154794" data-name="Trazado 154794" d="M1526.791,1373.415c.1,1.239.341,1.558,1.719,1.913a21.572,21.572,0,0,1,9.032,4.787,15.5,15.5,0,0,0-2.1,1.93,1.659,1.659,0,0,0-.319,2.122c.3.615.583,1.244.926,1.836.224.386.088.519-.265.628q-.939.29-1.87.608c-.338.116-.755.206-.9.536-.327.723-.905.691-1.543.689q-8.381-.019-16.763-.006-3.586,0-3.6,3.566c-.007,3.644-.015,7.289.012,10.933,0,.6-.11.825-.769.814-1.247-.021-1.6.29-2.012,1.482-.193.564-.412,1.121-.557,1.7-.127.506-.346.48-.743.287a10.537,10.537,0,0,0-2.433-1.1c-.27-.056-.34-.311-.444-.524a21.083,21.083,0,0,1-1.964-12.7c.217-1.4.06-1.8-1.042-2.449a13.227,13.227,0,0,1,.923-2.856c.126-.179.314-.119.481-.117a1.2,1.2,0,0,0,1.211-.713,1.329,1.329,0,0,0-.217-1.479c-.125-.151-.324-.27-.268-.518.456-.3.585-.821.847-1.253.408-.181.6.169.82.37a1.489,1.489,0,0,0,1.815.246c.188-.091.379-.176.566-.269,1.97-.983,1.9-1.123,2.625,1.131.055.17.118.338.176.508a1.712,1.712,0,0,0,1.427,1.2,6.562,6.562,0,0,0,1.518.063c1.414-.073,1.8-.374,2.259-1.725.8-2.356.526-2.253,2.792-1.129,1.343.666,1.632.614,2.675-.416,1.842-1.821,1.842-1.821.723-4.119-.554-1.138-.481-1.365.714-1.743,2.812-.889,2.381-1.138,2.417-3.316.006-.375-.092-.787.245-1.093Z" transform="translate(-1498.854 -1362.337)" fill="#fff59d"/>
  <path id="Trazado_154795" data-name="Trazado 154795" d="M1523.422,1352.007c0,.836-.011,1.671-.01,2.507a1.559,1.559,0,0,1-1.15,1.616c-.676.23-1.346.485-2.031.685-.445.13-.488.311-.27.7.335.6.614,1.224.923,1.836a1.349,1.349,0,0,1,.159,1.206,5.877,5.877,0,0,1-2.88,2.788c-.66.267-1.248-.263-1.827-.548-1.632-.8-1.629-.811-2.205.878-.671,1.969-.762,2.033-2.872,2.033-.358,0-.717,0-1.075,0a1.652,1.652,0,0,1-1.732-1.262c-.183-.6-.44-1.175-.589-1.78-.134-.543-.325-.71-.833-.369a8.321,8.321,0,0,1-.957.482c-1.859.924-1.892.919-3.423-.474-1.658-1.779-1.9-1.582-.553-4.23.539-1.059.532-1.063-.631-1.451-2.547-.851-2.547-.851-2.543-3.591,0-1.67.19-1.922,1.751-2.455.635-.217,1.594-.214,1.8-.74.162-.417-.462-1.148-.752-1.732-.724-1.462-.668-1.832.482-2.982,1.927-1.929,1.927-1.929,4.407-.69,1.019.51,1.019.51,1.378-.574.874-2.641.874-2.641,3.693-2.638,1.558,0,1.858.236,2.381,1.738.219.629.193,1.594.754,1.78.45.15,1.16-.451,1.744-.739,1.446-.715,1.785-.667,2.908.453,1.979,1.972,1.979,1.972.726,4.474-.5,1.005-.494.982.59,1.38C1521.784,1350.671,1523.026,1350.693,1523.422,1352.007Z" transform="translate(-1497.38 -1341.113)"/>
  <path id="Trazado_154796" data-name="Trazado 154796" d="M1683.911,1391.165c-3.884,0-7.768-.013-11.652.014-.6,0-.866-.092-.8-.759.075-.735-.228-1.706.143-2.158.394-.481,1.4-.143,2.135-.144,6.6-.013,13.206-.022,19.809.012.765,0,.941-.208.911-.939-.06-1.521,0-3.046-.03-4.569-.012-.517.15-.667.65-.635.77.051,1.778-.247,2.254.136.5.4.149,1.451.159,2.216.023,1.583.011,3.166.006,4.749,0,1.561-.528,2.074-2.115,2.075Q1689.647,1391.167,1683.911,1391.165Z" transform="translate(-1611.735 -1368.1)"/>
  <path id="Trazado_154797" data-name="Trazado 154797" d="M1725.328,1354.85c1.073,0,2.147.021,3.219-.01.462-.013.6.118.611.593.077,2.483.093,2.482-2.4,2.482-1.52,0-3.041-.025-4.561.013-.559.014-.693-.162-.7-.7-.03-2.374-.048-2.374,2.308-2.374Z" transform="translate(-1644.935 -1350.144)" fill="#010101"/>
  <path id="Trazado_154798" data-name="Trazado 154798" d="M1503.26,1407.383c.83.624,1.108,1.314.746,2.042a1.508,1.508,0,0,1-1.953.784q-1.268-.933-.811-2.015C1501.546,1407.476,1502.224,1407.2,1503.26,1407.383Z" transform="translate(-1498.837 -1384.943)" fill="#020201"/>
  <path id="Trazado_154799" data-name="Trazado 154799" d="M1561.318,1451.4c1.05.852,1.531.845,2.6,0a24.374,24.374,0,0,0,8.669-13.137c.3-1.118.782-2.186,1.129-3.293.15-.479.351-.448.709-.256.551.3,1.122.557,1.684.834a1.734,1.734,0,0,0,.925.3c1.483-.167,2.115-1.453,2.986-2.383.533-.569.22-1.277-.081-1.929-.317-.687-1.119-1.447-.821-2.034.244-.481,1.305-.555,2.01-.793.371-.125.844-.2,1-.546.363-.83,1.032-.723,1.709-.723,5.441.005,10.881.015,16.322-.013.66,0,.854.147.853.833q-.032,20.62,0,41.24c0,.7-.217.821-.86.821q-29.773-.025-59.546,0c-.679,0-.919-.136-.9-.87.051-2.3.019-4.6.019-6.9,0-.09,0-.179,0-.269.074-1.662.38-1.85,1.831-1.126.347.173.693.348,1.041.519a1.593,1.593,0,0,0,1.972-.3q.161-.156.32-.314c2.133-2.1,2.21-1.956.743-4.685-.382-.711-.373-1.1.523-1.214a6.971,6.971,0,0,0,1.028-.29,36.65,36.65,0,0,0,7.685-.847,1.133,1.133,0,0,1,.73.245c1.259.807,1.975.491,2.275-1a.845.845,0,0,1,.086-.248A13.145,13.145,0,0,1,1561.318,1451.4Z" transform="translate(-1524.413 -1398.268)" fill="#f0f8ff"/>
  <path id="Trazado_154800" data-name="Trazado 154800" d="M1507.84,1577.49c.413-.572.72-1,1.03-1.426,2.847-3.911,5.7-7.816,8.528-11.742a1.339,1.339,0,0,1,1.24-.64q30.583.025,61.166.011a1.182,1.182,0,0,1,1.151.46c3.122,4.338,6.275,8.654,9.416,12.978a1.757,1.757,0,0,1,.12.231c-.2.239-.452.122-.666.122-9.866.007-19.731,0-29.6.025a.979.979,0,0,1-1.087-.76c-.7-1.837-1.446-3.657-2.178-5.482-.485-1.208-.836-1.447-2.156-1.448q-5.6,0-11.211,0c-1.245,0-1.619.263-2.086,1.423-.757,1.879-1.519,3.756-2.254,5.644-.157.4-.318.617-.813.616C1528.31,1577.486,1518.177,1577.49,1507.84,1577.49Z" transform="translate(-1503.291 -1488.6)" fill="#dfdfe1"/>
  <path id="Trazado_154801" data-name="Trazado 154801" d="M1555.165,1454.133a19.181,19.181,0,0,1-7.981.74c1.469-.357,1.907-1.362,1.755-2.757-.036-.325,0-.657-.007-.986a1.742,1.742,0,0,0-1.453-1.967c-.727-.258-1.83-.262-2.079-.83s.544-1.344.873-2.033a1.744,1.744,0,0,0-.406-2.477c-2.279-2.325-2.067-2.253-4.82-.8-.656.345-.978.335-1.134-.451a6.125,6.125,0,0,1-.19-1.228c.008-4.362.022-8.724-.013-13.085-.006-.7.214-.827.862-.824,5.618.026,11.236.019,16.855.008a.969.969,0,0,1,1,.517c.469.791,1.416.812,2.188,1.088,1.212.434,1.22.412.662,1.531-1.193,2.394-1.193,2.394.7,4.275,1.246,1.241,1.5,1.28,3.122.474,1.75-.868,1.777-.877,2.36,1,.312,1,.677,1.878,2,1.873a21.125,21.125,0,0,1-5.489,9.114c-.656.65-1.394,1.217-2.1,1.82a1.591,1.591,0,0,0-.542,2.269,22.566,22.566,0,0,1-3.262,1.71c-.3-.033-.411-.307-.6-.477a1.209,1.209,0,0,0-2.086.661C1555.308,1453.574,1555.368,1453.886,1555.165,1454.133Z" transform="translate(-1524.418 -1398.27)" fill="#fff59d"/>
  <path id="Trazado_154802" data-name="Trazado 154802" d="M1506.017,1488.528c.526-1.485,1.6-2.574.875-4.264-.707-1.641-2.238-1.592-3.532-2.277,1.265-.731,2.841-.657,3.541-2.319.712-1.689-.368-2.774-.859-4.2,1.417.365,2.479,1.557,4.142.872s1.732-2.19,2.372-3.612c.716,1.38.711,2.927,2.383,3.606,1.648.669,2.708-.4,4.132-.885-.391,1.452-1.546,2.537-.834,4.2.7,1.64,2.2,1.658,3.559,2.327-1.285.732-2.865.692-3.552,2.336-.7,1.677.38,2.768.887,4.2-1.436-.4-2.512-1.556-4.183-.865-1.687.7-1.683,2.238-2.354,3.567-.721-1.281-.655-2.867-2.338-3.565S1507.49,1488.036,1506.017,1488.528Z" transform="translate(-1500.32 -1428.298)" fill="#88878f"/>
  <path id="Trazado_154803" data-name="Trazado 154803" d="M1612.532,1414.165c-.655-1.45-.7-2.97-2.392-3.651-1.641-.661-2.7.433-4.118.89.406-1.431,1.569-2.514.852-4.184-.7-1.635-2.193-1.654-3.538-2.315,1.263-.745,2.836-.685,3.533-2.322.716-1.679-.375-2.773-.854-4.221,1.432.426,2.509,1.564,4.165.873s1.7-2.155,2.338-3.549c.769,1.257.7,2.849,2.345,3.532,1.678.7,2.763-.368,4.205-.883-.4,1.453-1.569,2.532-.852,4.2.7,1.644,2.2,1.652,3.541,2.323-1.255.739-2.828.682-3.526,2.314-.717,1.676.369,2.772.855,4.229-1.438-.45-2.52-1.559-4.177-.875C1613.23,1411.222,1613.234,1412.765,1612.532,1414.165Z" transform="translate(-1566.601 -1377.223)" fill="#88878f"/>
  <path id="Trazado_154804" data-name="Trazado 154804" d="M1617.322,1590.837c1.464,0,2.928.016,4.391-.009a.868.868,0,0,1,.956.613c.435,1.141.879,2.279,1.353,3.4.2.487.079.648-.428.647q-6.229-.01-12.458,0c-.56,0-.679-.167-.454-.693.467-1.1.9-2.207,1.317-3.322a.918.918,0,0,1,1.022-.653C1614.454,1590.856,1615.888,1590.837,1617.322,1590.837Z" transform="translate(-1571.4 -1506.595)" fill="#2d2d30"/>
  <path id="Trazado_154805" data-name="Trazado 154805" d="M1510.542,1352.906c1.474.461,2.55,1.592,4.237.871,1.657-.708,1.642-2.208,2.291-3.527.759,1.214.647,2.823,2.31,3.519,1.69.708,2.782-.34,4.235-.864-.381,1.423-1.545,2.5-.877,4.157.684,1.693,2.214,1.713,3.587,2.375-1.263.743-2.84.67-3.537,2.31-.717,1.684.349,2.78.856,4.214-1.425-.356-2.481-1.549-4.145-.871s-1.716,2.2-2.382,3.572c-.724-1.323-.692-2.886-2.368-3.563-1.655-.668-2.711.4-4.129.873.356-1.427,1.54-2.507.828-4.165-.7-1.636-2.178-1.681-3.577-2.327,1.284-.748,2.861-.694,3.555-2.318C1512.147,1355.469,1511.055,1354.381,1510.542,1352.906Z" transform="translate(-1503.31 -1347.101)" fill="#88878f"/>
  <path id="Trazado_154806" data-name="Trazado 154806" d="M1615.605,1539.554c-2.33,0-4.661-.018-6.99.013-.572.007-.761-.127-.763-.733,0-2.335-.028-2.335,2.286-2.335,4.093,0,8.186.012,12.278-.013.609,0,.811.137.808.781-.012,2.288.014,2.288-2.242,2.288Z" transform="translate(-1569.595 -1470.569)"/>
  <path id="Trazado_154807" data-name="Trazado 154807" d="M1615.491,1512.325c-2.269,0-4.538-.016-6.806.011-.578.007-.838-.084-.836-.76,0-2.316-.026-2.316,2.314-2.316,4.06,0,8.12.019,12.18-.018.724-.006.89.212.88.9-.033,2.181,0,2.181-2.178,2.181Z" transform="translate(-1569.593 -1452.508)"/>
  <path id="Trazado_154808" data-name="Trazado 154808" d="M1660.82,1459.134c2.328,0,4.656.016,6.984-.012.558-.007.823.1.749.722-.091.759.326,1.777-.176,2.217-.427.375-1.417.126-2.158.127-4.059.005-8.118-.009-12.177.016-.6,0-.881-.11-.8-.77.086-.733-.3-1.691.147-2.153s1.415-.13,2.152-.14C1657.3,1459.119,1659.059,1459.134,1660.82,1459.134Z" transform="translate(-1599.634 -1419.22)"/>
  <path id="Trazado_154809" data-name="Trazado 154809" d="M1661.053,1489.555c-2.328,0-4.656-.016-6.984.012-.532.006-.708-.112-.713-.683-.022-2.385-.044-2.385,2.315-2.385,4.059,0,8.118.016,12.177-.016.658-.005.925.139.83.825-.1.727.323,1.706-.176,2.13-.421.358-1.365.113-2.077.116C1664.635,1489.56,1662.844,1489.555,1661.053,1489.555Z" transform="translate(-1599.76 -1437.419)"/>
  <path id="Trazado_154810" data-name="Trazado 154810" d="M1701.333,1432.1c.658,0,1.317-.03,1.973.007a1.455,1.455,0,0,1,1.528,1.528c.036,1.344,0,2.69.022,4.035.008.437-.152.536-.569.556-2.474.119-2.5.13-2.481-2.3,0-.624-.15-.854-.788-.787-.532.055-1.077-.014-1.613.019-.474.029-.672-.078-.687-.623-.066-2.448-.086-2.447,2.344-2.447h.269Z" transform="translate(-1629.825 -1401.357)"/>
  <path id="Trazado_154811" data-name="Trazado 154811" d="M1657.151,1475.958c-1.015,0-2.032-.036-3.045.013-.616.03-.736-.206-.739-.771-.012-2.323-.03-2.323,2.306-2.323,1.522,0,3.045.016,4.567-.009.537-.009.786.077.789.721.011,2.368.04,2.368-2.357,2.368Z" transform="translate(-1599.769 -1428.393)" fill="#000202"/>
  <path id="Trazado_154812" data-name="Trazado 154812" d="M1611.647,1522.817c1.074,0,2.149.026,3.222-.011.52-.018.678.161.644.662-.052.768.234,1.77-.152,2.247-.406.5-1.449.147-2.211.159-1.552.024-3.1-.008-4.655.016-.5.008-.659-.137-.674-.654-.069-2.42-.086-2.419,2.3-2.419Z" transform="translate(-1569.562 -1461.499)" fill="#000101"/>
  <path id="Trazado_154813" data-name="Trazado 154813" d="M1683.682,1472.871c.805,0,1.612.03,2.415-.01.528-.027.668.176.637.668-.048.771.246,1.775-.138,2.254-.407.507-1.454.143-2.221.163-1.043.027-2.088-.02-3.13.018-.527.019-.635-.177-.646-.668-.052-2.424-.067-2.424,2.367-2.424Z" transform="translate(-1617.816 -1428.386)" fill="#000202"/>
  <path id="Trazado_154814" data-name="Trazado 154814" d="M1638.233,1525.887c-.836,0-1.673-.017-2.509.006-.422.012-.615-.133-.562-.562a.563.563,0,0,0,0-.09c-.1-2.42-.1-2.42,2.3-2.42,1.075,0,2.151.018,3.225-.008.468-.011.6.152.622.616.109,2.457.123,2.457-2.356,2.457Z" transform="translate(-1587.681 -1461.505)" fill="#000101"/>
  <path id="Trazado_154815" data-name="Trazado 154815" d="M1695.764,1544.1c-1.541,0-1.541,0-1.541-1.568,0-1.518,0-1.518,1.5-1.518,1.586,0,1.586,0,1.586,1.613C1697.31,1544.1,1697.31,1544.1,1695.764,1544.1Z" transform="translate(-1626.856 -1473.57)" fill="#000505"/>
  <path id="Trazado_154816" data-name="Trazado 154816" d="M1709.46,1541.018c1.466,0,1.466,0,1.466,1.517,0,1.566,0,1.566-1.594,1.566-1.465,0-1.465,0-1.465-1.427v-.089C1707.866,1541.018,1707.866,1541.018,1709.46,1541.018Z" transform="translate(-1635.901 -1473.573)" fill="#000303"/>
  <path id="Trazado_154817" data-name="Trazado 154817" d="M1707.868,1456.137c0-1.423,0-1.423,1.464-1.423,1.594,0,1.594,0,1.594,1.561,0,1.5,0,1.5-1.463,1.5C1707.868,1457.779,1707.868,1457.779,1707.868,1456.137Z" transform="translate(-1635.902 -1416.357)" fill="#000101"/>
  <path id="Trazado_154818" data-name="Trazado 154818" d="M1709.4,1527.457c1.532,0,1.532,0,1.532,1.524s0,1.533-1.524,1.533-1.533,0-1.533-1.525S1707.869,1527.457,1709.4,1527.457Z" transform="translate(-1635.903 -1464.583)"/>
  <path id="Trazado_154819" data-name="Trazado 154819" d="M1686.56,1435.15c-1.429,0-1.429,0-1.429-1.486,0-1.578,0-1.578,1.6-1.578,1.469,0,1.469,0,1.469,1.432C1688.2,1435.15,1688.2,1435.15,1686.56,1435.15Z" transform="translate(-1620.828 -1401.356)" fill="#000202"/>
  <path id="Trazado_154820" data-name="Trazado 154820" d="M1585.5,1502.424c-.185-1.377.372-2.192,1.477-2.15a1.518,1.518,0,0,1,1.419,1.125,1.494,1.494,0,0,1-.9,1.753A1.576,1.576,0,0,1,1585.5,1502.424Z" transform="translate(-1554.754 -1446.561)" fill="#010100"/>
  <path id="Trazado_154821" data-name="Trazado 154821" d="M1692.622,1586.323c.239,0,.479-.015.717,0,.734.054,1.845-.334,2.116.145.374.659.119,1.671.148,2.531.012.337-.169.383-.446.382-1.733-.007-3.466-.01-5.2,0-.336,0-.445-.1-.48-.448-.265-2.617-.275-2.616,2.337-2.616Z" transform="translate(-1623.635 -1503.546)"/>
  <path id="Trazado_154822" data-name="Trazado 154822" d="M1720.034,1586.485c.806,0,1.614.029,2.418-.011.49-.024.612.158.587.613a15.693,15.693,0,0,0,0,1.879c.032.5-.17.593-.62.586-1.642-.024-3.285-.028-4.926,0-.49.009-.614-.166-.59-.619a15.617,15.617,0,0,0,0-1.879c-.035-.506.187-.593.625-.579C1718.362,1586.5,1719.2,1586.485,1720.034,1586.485Z" transform="translate(-1641.889 -1503.708)"/>
  <path id="Trazado_154823" data-name="Trazado 154823" d="M1597.317,1571.369c-.716,0-1.437-.056-2.146.015-.75.075-.873-.237-.864-.9.029-2.175.005-2.175,2.157-2.175,1.1,0,2.209.033,3.311-.013.573-.024.726.174.681.712a8.421,8.421,0,0,0,0,1.609c.072.667-.216.8-.813.767C1598.871,1571.333,1598.093,1571.369,1597.317,1571.369Z" transform="translate(-1560.615 -1491.655)" fill="#010101"/>
  <path id="Trazado_154824" data-name="Trazado 154824" d="M1624.632,1568.162c.269,0,.539-.018.806,0,.7.056,1.779-.325,2.021.148a6.427,6.427,0,0,1,.14,2.538c.009.34-.191.376-.46.375-1.731,0-3.463-.01-5.194,0-.353,0-.495-.126-.459-.468a.6.6,0,0,0,0-.09c-.148-2.51-.148-2.51,2.34-2.51Z" transform="translate(-1578.6 -1491.51)" fill="#010101"/>
  <path id="Trazado_154825" data-name="Trazado 154825" d="M1651.854,1571.374c-.805,0-1.613-.038-2.415.012-.576.036-.724-.182-.684-.714a12.438,12.438,0,0,0,0-1.7c-.03-.48.085-.686.625-.675,1.639.034,3.281.03,4.92,0,.484-.008.581.162.593.611.069,2.462.082,2.462-2.324,2.462Z" transform="translate(-1596.708 -1491.66)" fill="#010101"/>
  <path id="Trazado_154826" data-name="Trazado 154826" d="M1529.2,1586.483c.807,0,1.615.032,2.419-.011.529-.029.669.166.634.661-.054.768.233,1.774-.153,2.245-.41.5-1.454.136-2.22.156-1.045.028-2.091-.01-3.136.015-.434.01-.618-.068-.638-.573-.095-2.494-.113-2.493,2.377-2.493Z" transform="translate(-1515.38 -1503.706)"/>
  <path id="Trazado_154827" data-name="Trazado 154827" d="M1556.269,1589.358c-.807,0-1.615-.029-2.42.011-.484.023-.631-.145-.592-.608.069-.8-.325-1.823.157-2.327.443-.463,1.47-.114,2.239-.13,1.045-.02,2.092.02,3.137-.016.477-.016.635.131.593.6-.071.795.323,1.82-.158,2.328-.445.47-1.47.1-2.239.137C1556.748,1589.369,1556.508,1589.358,1556.269,1589.358Z" transform="translate(-1533.343 -1503.523)"/>
  <path id="Trazado_154828" data-name="Trazado 154828" d="M1583.692,1589.551c-.837,0-1.673-.019-2.509.008-.438.015-.615-.079-.633-.578-.093-2.489-.11-2.488,2.386-2.488,1.046,0,2.092.017,3.136-.008.435-.01.614.07.631.573.085,2.494.1,2.493-2.384,2.493Z" transform="translate(-1551.476 -1503.715)"/>
  <path id="Trazado_154829" data-name="Trazado 154829" d="M1665.323,1589.425c-.746,0-1.495-.029-2.24.01-.546.029-.839-.08-.763-.713.091-.76-.324-1.777.172-2.22.423-.377,1.416-.125,2.156-.133,1.046-.01,2.093.033,3.136-.016.579-.028.725.177.678.711a8.056,8.056,0,0,0,0,1.521c.065.64-.1.92-.811.855C1666.881,1589.371,1666.1,1589.425,1665.323,1589.425Z" transform="translate(-1605.655 -1503.59)"/>
  <path id="Trazado_154830" data-name="Trazado 154830" d="M1542.888,1568.311c.775,0,1.551.031,2.323-.011.529-.029.628.182.638.665.047,2.408.061,2.408-2.3,2.408-1.043,0-2.086-.022-3.127.01-.512.016-.726-.093-.737-.675-.045-2.4-.067-2.4,2.307-2.4Z" transform="translate(-1524.397 -1491.659)" fill="#010101"/>
  <path id="Trazado_154831" data-name="Trazado 154831" d="M1570.139,1571.375c-.8,0-1.611-.036-2.412.012-.572.034-.729-.185-.692-.718a12.956,12.956,0,0,0,0-1.7c-.03-.481.093-.684.629-.672q2.411.05,4.825,0c.55-.011.741.158.7.707a10.6,10.6,0,0,0,0,1.7c.048.581-.206.706-.726.682C1571.689,1571.348,1570.914,1571.375,1570.139,1571.375Z" transform="translate(-1542.532 -1491.66)" fill="#010101"/>
  <path id="Trazado_154832" data-name="Trazado 154832" d="M1679.111,1568.311c.8,0,1.61.031,2.412-.01.526-.027.63.178.639.664.048,2.41.062,2.41-2.3,2.41-1.042,0-2.087-.037-3.127.014-.617.03-.733-.206-.736-.768-.01-2.309-.029-2.309,2.3-2.309Z" transform="translate(-1614.777 -1491.659)" fill="#010101"/>
  <path id="Trazado_154833" data-name="Trazado 154833" d="M1706.392,1571.386c-.8,0-1.61-.029-2.412.01-.52.025-.713-.166-.646-.664a.606.606,0,0,0,0-.089c-.049-2.32-.049-2.32,2.266-2.32,1.1,0,2.2.014,3.306-.007.418-.008.55.126.574.558.138,2.512.151,2.511-2.373,2.511Z" transform="translate(-1632.888 -1491.671)" fill="#010101"/>
  <path id="Trazado_154834" data-name="Trazado 154834" d="M1567.754,1439.581c-1.551,0-3.1-.02-4.652.011-.509.01-.638-.147-.647-.648-.044-2.428-.059-2.428,2.351-2.428,2.535,0,5.071.02,7.605-.014.618-.008.807.152.8.789-.01,2.29.015,2.29-2.24,2.29Z" transform="translate(-1539.492 -1404.283)"/>
  <path id="Trazado_154835" data-name="Trazado 154835" d="M1567.688,1466.663c-1.525,0-3.05-.016-4.574.009-.493.008-.789-.041-.732-.658.071-.768-.234-1.777.152-2.252.411-.5,1.458-.152,2.225-.158,2.54-.02,5.082.008,7.622-.019.581-.006.758.155.76.754.008,2.325.031,2.325-2.316,2.325Z" transform="translate(-1539.419 -1422.175)" fill="#010100"/>
  <path id="Trazado_154836" data-name="Trazado 154836" d="M1583.027,1450.1c.6.1,1.568-.344,2,.173.358.432.07,1.369.146,2.074s-.2.859-.853.826c-1.072-.054-2.15-.031-3.224-.007-.426.01-.544-.13-.566-.557C1580.4,1450.1,1580.383,1450.1,1583.027,1450.1Z" transform="translate(-1551.45 -1413.241)" fill="#010100"/>
  <path id="Trazado_154837" data-name="Trazado 154837" d="M1564.586,1453.222c-.71,0-1.66.279-2.068-.072-.49-.421-.069-1.4-.172-2.13-.1-.71.2-.842.842-.811,1.042.053,2.089.04,3.132,0,.517-.018.643.162.654.661C1567.029,1453.283,1567.044,1453.282,1564.586,1453.222Z" transform="translate(-1539.38 -1413.368)" fill="#010100"/>
  <path id="Trazado_154838" data-name="Trazado 154838" d="M1521.623,1495.707a4.521,4.521,0,0,1-4.44-4.728,4.582,4.582,0,0,1,4.679-4.425,4.65,4.65,0,0,1,4.476,4.663A4.592,4.592,0,0,1,1521.623,1495.707Z" transform="translate(-1509.484 -1437.465)"/>
  <path id="Trazado_154839" data-name="Trazado 154839" d="M1621.6,1418.514a4.577,4.577,0,1,1,4.618-4.492A4.59,4.59,0,0,1,1621.6,1418.514Z" transform="translate(-1575.686 -1386.289)"/>
  <path id="Trazado_154840" data-name="Trazado 154840" d="M1530.768,1368.6a4.591,4.591,0,0,1-4.566,4.571,4.672,4.672,0,0,1-4.6-4.665,4.6,4.6,0,0,1,4.645-4.493A4.523,4.523,0,0,1,1530.768,1368.6Z" transform="translate(-1512.416 -1356.227)"/>
  <path id="Trazado_154841" data-name="Trazado 154841" d="M1527.778,1495.64a1.59,1.59,0,0,1,1.51,1.584,1.551,1.551,0,0,1-1.538,1.446,1.479,1.479,0,0,1-1.485-1.561A1.539,1.539,0,0,1,1527.778,1495.64Z" transform="translate(-1515.506 -1443.489)" fill="#d50026"/>
  <path id="Trazado_154842" data-name="Trazado 154842" d="M1627.705,1421.479a1.47,1.47,0,0,1-1.443-1.588,1.483,1.483,0,1,1,2.96.163A1.462,1.462,0,0,1,1627.705,1421.479Z" transform="translate(-1581.799 -1392.316)" fill="#d60027"/>
  <path id="Trazado_154843" data-name="Trazado 154843" d="M1532.245,1376.135a1.6,1.6,0,0,1-1.485-1.6,1.527,1.527,0,0,1,1.544-1.423,1.466,1.466,0,0,1,1.462,1.572A1.53,1.53,0,0,1,1532.245,1376.135Z" transform="translate(-1518.485 -1362.256)" fill="#d60027"/>
</svg>
