<svg xmlns="http://www.w3.org/2000/svg" width="85" height="84.914" viewBox="0 0 85 84.914">
  <g id="Grupo_128780" data-name="Grupo 128780" transform="translate(-1204.08 -314.47)">
    <path id="Trazado_188592" data-name="Trazado 188592" d="M1289.08,316.626v9.122c-.437,1.785-1.212,2.4-3.1,2.407q-11.988.014-23.976,0a3.082,3.082,0,0,1-3.384-3.258c-.021-.442-.008-.884-.016-1.326a.634.634,0,0,0-.715-.711c-.249,0-.5-.009-.746-.009h-29.369c-1.122.011-1.188.066-1.189,1.159q-.008,5.3,0,10.609c0,1.033.034,1.094,1.026,1.219a21.073,21.073,0,0,1,10.968,4.73c.5.409.758.28,1-.233.224-.475.49-.93.7-1.41a2.372,2.372,0,0,1,2.438-1.5c1.41.021,2.821,0,4.231,0q5.227,0,10.453,0c1.152,0,1.2-.057,1.207-1.227a6.818,6.818,0,0,1,.158-1.81,2.894,2.894,0,0,1,2.822-2.257c.884-.035,1.77-.011,2.655-.011h21.487a4.356,4.356,0,0,1,1.869.281,2.585,2.585,0,0,1,1.479,1.964v9.287a2.759,2.759,0,0,1-3.065,2.4q-12.034.03-24.069,0a3.167,3.167,0,0,1-3.321-3.194c-.023-.386-.008-.774-.012-1.16-.012-1.05-.061-1.1-1.147-1.108-1.632-.006-3.265,0-4.9,0-2.822,0-5.644.02-8.465-.013a1.715,1.715,0,0,0-1.628.987,2.806,2.806,0,0,0,.21,3.627,18.973,18.973,0,0,1,3.457,9.3c.065.64.324.856.934.854,3.541-.007,7.082-.013,10.624,0,.679,0,.963-.257.917-.932a11.173,11.173,0,0,1,0-1.243,3.2,3.2,0,0,1,2.941-3.251,6.19,6.19,0,0,1,.911-.052q11.495,0,22.99,0a5.236,5.236,0,0,1,1.156.091,2.735,2.735,0,0,1,2.462,2.316v9.288a2.732,2.732,0,0,1-2.461,2.314,6.752,6.752,0,0,1-1.487.092h-22.317c-.277,0-.554,0-.829-.012a3.273,3.273,0,0,1-3.368-3.527c-.031-2.1.261-1.929-1.985-1.932q-4.687-.007-9.375,0c-.991,0-1.006.017-1.129.99a21.232,21.232,0,0,1-4.642,10.827c-.805,1-.776.98.131,1.953a2.94,2.94,0,0,0,2.339,1c4.48-.034,8.96-.013,13.44-.016,1.177,0,1.211-.041,1.218-1.2a6.01,6.01,0,0,1,.221-2.13,3.044,3.044,0,0,1,2.708-2.117,7.957,7.957,0,0,1,.829-.02h23.23c.138,0,.277,0,.415,0a2.792,2.792,0,0,1,3.064,2.4v9.287a2.71,2.71,0,0,1-3.1,2.242q-11.992.013-23.985,0a3.076,3.076,0,0,1-3.376-3.257c-.024-.469,0-.939-.024-1.409a.581.581,0,0,0-.622-.621c-.276-.014-.553-.015-.829-.015-4.675,0-9.351-.023-14.026.016a3.5,3.5,0,0,1-2.934-1.23,13.877,13.877,0,0,0-.994-1c-.751-.73-.833-.742-1.674-.132a20.919,20.919,0,0,1-6.2,3.1,24.4,24.4,0,0,1-3.649.774c-1.012.147-1.077.217-1.078,1.187q-.009,5.43,0,10.861c0,.912.083,1,1,1q14.98.009,29.96,0c.97,0,1.043-.088,1.063-1.033a9.815,9.815,0,0,1,.081-1.653,2.963,2.963,0,0,1,3.052-2.608c1.632-.032,3.264-.009,4.9-.009q9.544,0,19.088,0a4.541,4.541,0,0,1,1.717.214,2.506,2.506,0,0,1,1.635,2.2v9.122a2.353,2.353,0,0,1-2.158,2.156h-25.9a2.844,2.844,0,0,1-2.39-2.928c-.031-.524-.015-1.05-.014-1.575,0-.473-.2-.723-.69-.72-.3,0-.608-.005-.913-.005h-30.533c-.249,0-.5,0-.747,0-1.78-.009-2.3-.53-2.308-2.343-.009-4.144,0-8.289,0-12.433,0-1.315,0-1.309-1.3-1.492a21.3,21.3,0,0,1-17.66-15.87c-.233-.914-.169-1.859-.388-2.769v-4.644a17.445,17.445,0,0,1,1.625-6.367,20.978,20.978,0,0,1,16.061-12.26c1.893-.34,1.649-.126,1.655-1.912.012-3.924,0-7.847,0-11.771a6.305,6.305,0,0,1,.046-1.075,1.623,1.623,0,0,1,1.681-1.51c.359-.022.719-.011,1.078-.011h30.785c.3,0,.609-.007.913,0,.492,0,.69-.246.69-.72,0-.552-.022-1.106.019-1.657a2.828,2.828,0,0,1,2.385-2.846h25.9A2.354,2.354,0,0,1,1289.08,316.626Z" transform="translate(0 0)"/>
    <path id="Trazado_188593" data-name="Trazado 188593" d="M1234.4,423.386a18.293,18.293,0,1,1-18.333,18.256A18.32,18.32,0,0,1,1234.4,423.386Z" transform="translate(-9.33 -84.772)" fill="#fecf64"/>
    <path id="Trazado_188594" data-name="Trazado 188594" d="M1475.6,487.472c3.843,0,7.687.022,11.529-.018.8-.008,1.027.214,1.006,1.015-.057,2.153-.036,4.308-.008,6.462.007.532-.129.719-.684.717q-11.737-.022-23.473,0c-.547,0-.721-.18-.716-.716.021-2.182.039-4.365-.008-6.546-.016-.718.158-.941.908-.933C1467.972,487.494,1471.787,487.472,1475.6,487.472Z" transform="translate(-201.717 -134.638)" fill="#6bf4c1"/>
    <path id="Trazado_188595" data-name="Trazado 188595" d="M1475.787,415.206c-3.9,0-7.8-.018-11.7.017-.676.006-.832-.2-.822-.837.036-2.21.029-4.421,0-6.632-.006-.53.125-.708.688-.707q11.742.028,23.484,0c.6,0,.732.177.724.746-.033,2.21-.046,4.422.005,6.631.016.7-.236.8-.847.795C1483.477,415.194,1479.632,415.206,1475.787,415.206Z" transform="translate(-201.731 -72.055)" fill="#fee076"/>
    <path id="Trazado_188596" data-name="Trazado 188596" d="M1475.794,326.395c3.844,0,7.689.012,11.533-.012.614,0,.86.105.845.8-.05,2.237-.034,4.476-.007,6.714.006.5-.12.658-.641.657q-11.782-.024-23.564,0c-.574,0-.689-.2-.684-.717.022-2.238.028-4.476,0-6.714-.008-.578.155-.747.74-.743C1467.939,326.407,1471.866,326.395,1475.794,326.395Z" transform="translate(-201.736 -9.271)" fill="#89c8fd"/>
    <path id="Trazado_188597" data-name="Trazado 188597" d="M1475.626,576.229c-3.815,0-7.631-.017-11.446.016-.694.006-.963-.119-.943-.891.057-2.181.04-4.364.007-6.545-.009-.585.168-.74.745-.739q11.7.027,23.39,0c.557,0,.767.117.757.723q-.055,3.355,0,6.711c.009.579-.148.741-.732.737C1483.478,576.217,1479.552,576.229,1475.626,576.229Z" transform="translate(-201.708 -197.384)" fill="#f1d0a4"/>
    <path id="Trazado_188598" data-name="Trazado 188598" d="M1463.614,648.834a5.073,5.073,0,0,1,.569-.063q11.715,0,23.429,0c.137,0,.274.023.411.035a1.11,1.11,0,0,1,.164.792c0,1.8.01,3.592,0,5.387a1.566,1.566,0,0,1-1.794,1.77c-7.329.007-14.658,0-21.986.015-.694,0-.9-.219-.882-.9.041-2.126.014-4.255.017-6.382A1.183,1.183,0,0,1,1463.614,648.834Z" transform="translate(-201.932 -260.194)" fill="#fd646f"/>
    <path id="Trazado_188599" data-name="Trazado 188599" d="M1463.413,648.943c0,2.321.022,4.641-.007,6.962-.007.6.148.811.785.81,7.328-.021,14.657-.01,21.985-.016a1.5,1.5,0,0,0,1.644-1.651c.01-2.044,0-4.089,0-6.133.433-.051.328.276.328.495.006,2.349-.009,4.7.014,7.046.005.5-.19.587-.633.586q-11.824-.016-23.648,0c-.473,0-.622-.151-.619-.616.017-2.376.008-4.752.009-7.129C1463.275,649.163,1463.256,649.018,1463.413,648.943Z" transform="translate(-201.732 -260.303)" fill="#fc4755"/>
    <path id="Trazado_188600" data-name="Trazado 188600" d="M1241.4,432.281a16.312,16.312,0,1,1-16.348,16.262A16.38,16.38,0,0,1,1241.4,432.281Z" transform="translate(-16.323 -91.695)"/>
    <path id="Trazado_188601" data-name="Trazado 188601" d="M1489.865,502.664q-3.362,0-6.724,0c-1.032,0-1.656-.51-1.653-1.328s.625-1.322,1.661-1.322q6.765-.005,13.53,0c1.035,0,1.658.512,1.656,1.33s-.624,1.318-1.663,1.32Q1493.268,502.67,1489.865,502.664Z" transform="translate(-215.914 -144.411)"/>
    <path id="Trazado_188602" data-name="Trazado 188602" d="M1489.953,422.042q-3.362,0-6.724,0c-1.141,0-1.749-.456-1.761-1.3-.012-.861.638-1.354,1.809-1.354q6.6,0,13.2,0c.166,0,.333-.01.5.006a1.376,1.376,0,0,1,1.346,1.4,1.306,1.306,0,0,1-1.394,1.24c-2.324.019-4.648.007-6.972.007Z" transform="translate(-215.899 -81.659)" fill="#010000"/>
    <path id="Trazado_188603" data-name="Trazado 188603" d="M1489.949,338.968c2.241,0,4.482,0,6.723,0,1.044,0,1.657.507,1.642,1.326-.014.78-.626,1.318-1.6,1.32q-6.847.017-13.694,0a1.381,1.381,0,0,1-1.56-1.358c.01-.794.6-1.283,1.6-1.286C1485.356,338.963,1487.653,338.968,1489.949,338.968Z" transform="translate(-215.893 -19.066)" fill="#000001"/>
    <path id="Trazado_188604" data-name="Trazado 188604" d="M1489.868,580.619c2.241,0,4.482-.005,6.724,0,1.063,0,1.668.481,1.683,1.3.015.829-.641,1.354-1.725,1.355q-6.723.005-13.447,0c-1.311,0-2.051-.96-1.522-1.952a1.412,1.412,0,0,1,1.4-.7C1485.275,580.625,1487.572,580.619,1489.868,580.619Z" transform="translate(-215.852 -207.149)"/>
    <path id="Trazado_188605" data-name="Trazado 188605" d="M1489.856,663.753c-2.241,0-4.481.005-6.722,0-1.063,0-1.67-.485-1.679-1.3s.615-1.347,1.65-1.349q6.8-.012,13.609,0a1.436,1.436,0,0,1,1.482.843,1.233,1.233,0,0,1-.193,1.32,1.505,1.505,0,0,1-1.343.493Q1493.258,663.748,1489.856,663.753Z" transform="translate(-215.889 -269.79)" fill="#010000"/>
    <path id="Trazado_188606" data-name="Trazado 188606" d="M1240.2,450.538a12.832,12.832,0,0,1,9.7-6.051,13.644,13.644,0,0,1,3.97,26.993c-5.768.833-10.335-1.212-13.715-5.937a1.614,1.614,0,0,1-.132-.292,16.594,16.594,0,0,1-1.746-5.121,14.259,14.259,0,0,1,1.552-8.855A7.566,7.566,0,0,0,1240.2,450.538Z" transform="translate(-26.515 -101.121)" fill="#fec238"/>
    <path id="Trazado_188607" data-name="Trazado 188607" d="M1239.27,472.118c-.214.976-.8,1.8-1.1,2.752a15.3,15.3,0,0,0,.681,11.186,1.337,1.337,0,0,1,.242.776,13.2,13.2,0,0,1-1.034-12.568A7.162,7.162,0,0,1,1239.27,472.118Z" transform="translate(-25.581 -122.702)" fill="#f1b529"/>
    <path id="Trazado_188608" data-name="Trazado 188608" d="M1283.366,471.468a4.673,4.673,0,0,1-3.612,4.844c-.762.228-1.347.374-1.252,1.4.061.659-.627,1.129-1.3,1.109a1.224,1.224,0,0,1-1.255-1.273c.05-.842-.353-1.024-1.03-1.24a5.452,5.452,0,0,1-3.635-3.473c-.354-.982-.094-1.7.689-2.007s1.408.056,1.8,1.072c.635,1.657,2.459,2.494,4.56,2.061a5.069,5.069,0,0,0,1.246-.432,1.847,1.847,0,0,0,.2-3.325,8.412,8.412,0,0,0-3.046-1,14.62,14.62,0,0,1-1.831-.509,4.557,4.557,0,0,1-3.308-4.384,4.839,4.839,0,0,1,3.379-4.548c.64-.224.994-.44.966-1.217a1.3,1.3,0,1,1,2.6.06.912.912,0,0,0,.8,1.078,5.458,5.458,0,0,1,3.443,3.023,1.339,1.339,0,1,1-2.37,1.209,3.491,3.491,0,0,0-4.724-1.591,2.156,2.156,0,0,0-1.426,2.046,1.977,1.977,0,0,0,1.466,1.813,17.554,17.554,0,0,0,2.81.689,8.327,8.327,0,0,1,2.735,1.141A4.356,4.356,0,0,1,1283.366,471.468Z" transform="translate(-52.185 -111.114)"/>
  </g>
</svg>
