<svg xmlns="http://www.w3.org/2000/svg" width="92.155" height="92.317" viewBox="0 0 92.155 92.317">
  <g id="Grupo_128172" data-name="Grupo 128172" transform="translate(-1770.218 -1324.72)">
    <path id="Trazado_154844" data-name="Trazado 154844" d="M1816.3,1417.019q-22.561,0-45.122.018c-.757,0-1-.149-.955-.943.14-2.25-.242-4.531.346-6.756a10.442,10.442,0,0,1,7.6-7.75,7.188,7.188,0,0,1,1.436-.354,1.613,1.613,0,0,0,1.638-1.6,1.053,1.053,0,0,0-.43-1.15,8.489,8.489,0,0,1-2.958-5.112.971.971,0,0,0-.649-.79,6.649,6.649,0,0,1-3.275-9.13,1.072,1.072,0,0,0,0-1.025,6.843,6.843,0,0,1,1.734-8.339,1.384,1.384,0,0,0,.521-1.182c-.015-4.372.012-8.744-.028-13.116-.007-.725.2-.913.872-.835a6.487,6.487,0,0,0,1.39-.006,1.6,1.6,0,0,0,.649-2.993,3.617,3.617,0,0,0-.417-.2c-1.683-.749-1.683-.749-.987-2.437,1.179-2.855,2.376-5.7,3.524-8.571.243-.606.508-.709,1.058-.412a10.465,10.465,0,0,0,1.284.523,1.47,1.47,0,0,0,1.863-.617,1.509,1.509,0,0,0-.14-1.969,14.785,14.785,0,0,0-1.172-1.191c-.295-.268-.3-.441-.008-.736q3.858-3.831,7.681-7.7c.281-.283.457-.322.735-.01a14.059,14.059,0,0,0,1.186,1.178,1.6,1.6,0,0,0,2.594-1.714c-.031-.087-.049-.179-.082-.266-.218-.573-.736-1.251-.58-1.688.189-.528,1.075-.583,1.662-.83,2.786-1.17,5.593-2.294,8.365-3.5.689-.3.968-.16,1.157.513a6.425,6.425,0,0,0,.489,1.2,1.513,1.513,0,0,0,1.769.875,1.538,1.538,0,0,0,1.286-1.5,13.644,13.644,0,0,0,0-1.673c-.026-.421.132-.516.528-.514q5.431.02,10.862,0c.418,0,.532.134.512.53a14.1,14.1,0,0,0,0,1.674,1.524,1.524,0,0,0,1.3,1.489,1.492,1.492,0,0,0,1.713-.817,9.248,9.248,0,0,0,.656-1.53c.151-.473.361-.53.795-.348q4.906,2.058,9.827,4.079c.455.187.629.375.368.866a11.512,11.512,0,0,0-.594,1.457,1.48,1.48,0,0,0,.643,1.857,1.462,1.462,0,0,0,1.886-.111,8.506,8.506,0,0,0,1.123-1.106c.384-.477.622-.367,1.006.023q3.683,3.742,7.422,7.429c.428.421.4.651-.025,1.01a8.883,8.883,0,0,0-1.1,1.13,1.6,1.6,0,0,0,1.7,2.527,16,16,0,0,0,1.633-.649c.37-.177.513-.115.672.273q2.071,5.06,4.189,10.1c.139.333.062.5-.257.62-.518.2-1.04.394-1.539.635a1.523,1.523,0,0,0-.931,1.824,1.583,1.583,0,0,0,1.605,1.284c.67.034,1.612-.306,1.937.141.343.471.126,1.361.126,2.068q.008,7.3-.006,14.6a1.871,1.871,0,0,0,.511,1.405,14.694,14.694,0,0,1,3.955,10.315,112.922,112.922,0,0,1-1.236,15.556,2.916,2.916,0,0,0,.608,2.544,9.582,9.582,0,0,1,2.1,6.113c.023,1.488-.035,2.978.027,4.464.029.7-.162.857-.855.857q-21.493-.034-42.986-.017Z"/>
    <path id="Trazado_154845" data-name="Trazado 154845" d="M1873.033,1370.652c-2.034-.886-3.98-1.732-5.925-2.582-.35-.153-.328-.494-.369-.8a31.081,31.081,0,0,0-61.465-1.208,2.971,2.971,0,0,1-2.176,2.738c-1.451.491-2.83,1.2-4.346,1.856,0-.7.015-1.277-.005-1.856-.013-.358.177-.433.474-.546,3.571-1.366,4.359-5.257,1.588-7.881a.63.63,0,0,1-.2-.851c.655-1.535,1.286-3.081,1.912-4.628.147-.363.328-.47.756-.448a4.558,4.558,0,0,0,4.46-6.634.671.671,0,0,1,.146-.934q1.766-1.715,3.478-3.486a.672.672,0,0,1,.933-.151,4.549,4.549,0,0,0,6.622-4.463c-.023-.431.084-.608.446-.755,1.544-.628,3.086-1.262,4.618-1.918a.622.622,0,0,1,.849.193,4.526,4.526,0,0,0,7.864-1.582.625.625,0,0,1,.73-.483c1.64.01,3.28.016,4.92,0,.434-.006.6.116.764.562a4.527,4.527,0,0,0,7.768,1.579.789.789,0,0,1,1.088-.208c1.448.617,2.9,1.226,4.362,1.81.436.174.563.376.532.884a4.564,4.564,0,0,0,6.536,4.439c.466-.219.716-.242,1.086.149,1.108,1.169,2.256,2.3,3.409,3.423a.673.673,0,0,1,.159.933,4.558,4.558,0,0,0,4.439,6.645.675.675,0,0,1,.8.518c.6,1.489,1.214,2.976,1.845,4.454a.736.736,0,0,1-.217,1,4.547,4.547,0,0,0,1.536,7.794c.489.177.617.38.587.842C1873.008,1369.55,1873.033,1370.044,1873.033,1370.652Z" transform="translate(-19.597 -6.534)" fill="#fff59d"/>
    <path id="Trazado_154846" data-name="Trazado 154846" d="M1874.614,1431.121c.007-8.177.03-16.355,0-24.532,0-.8.235-1.029.979-1.137,6.446-.939,12.887-1.916,19.329-2.88,2.129-.319,4.258-.634,6.479-.965v29.515a.7.7,0,0,1-.975.017,13.144,13.144,0,0,0-1.742-2.493,1.255,1.255,0,0,1-.277-1.032c0-2.543-.016-5.086.013-7.629.007-.581-.11-.789-.744-.778-2.506.04-5.014.03-7.521.005-.512-.005-.687.117-.674.657.036,1.55-.009,3.1.025,4.651.011.522-.135.665-.662.672-2.322.029-2.322.048-2.322-2.253,0-1.024-.031-2.048.013-3.07.023-.541-.162-.662-.674-.657q-3.807.038-7.614,0c-.548-.006-.654.178-.65.682.024,2.543-.006,5.086.024,7.629a1.805,1.805,0,0,1-.534,1.406,13.408,13.408,0,0,0-1.5,2.213A.7.7,0,0,1,1874.614,1431.121Z" transform="translate(-71.711 -52.814)" fill="#e5e8ec"/>
    <path id="Trazado_154847" data-name="Trazado 154847" d="M1996.911,1513.453a17.6,17.6,0,0,0-3.411-1.174,2.715,2.715,0,0,1-1.384-.892c-.791-.916-.775-1.294.092-2.1a8.838,8.838,0,0,0,2.919-6.69c0-1.085.014-2.17,0-3.255a4.481,4.481,0,0,0-3.947-4.446c-1.07-.152-2.147-.268-3.21-.462a3.665,3.665,0,0,1-3.238-3.888c-.01-1.235-.01-1.235-1.218-1.235-1.818,0-2.019.038-1.685,1.8.281,1.484-.225,2.065-1.389,2.8a6.748,6.748,0,0,0-3.122,5.812,29.523,29.523,0,0,0,.083,4.177,8.3,8.3,0,0,0,3.113,5.627.842.842,0,0,1,.217,1.256,2.883,2.883,0,0,1-1.8,1.5,16.816,16.816,0,0,0-3.43,1.207c-.265-2.209-.575-4.306-.755-6.414-.248-2.9-.422-5.808-.416-8.724a11.887,11.887,0,0,1,23.521-2.585,22.179,22.179,0,0,1,.2,5.652A111.515,111.515,0,0,1,1996.911,1513.453Z" transform="translate(-140.204 -110.988)" fill="#b17946"/>
    <path id="Trazado_154848" data-name="Trazado 154848" d="M1850.379,1495.308l.974.017a13.443,13.443,0,0,0,.893,12.133c1.388,2.294,3.34,4.227,4.508,6.7a3.262,3.262,0,0,0,1.133,1.208,1.2,1.2,0,0,1,.479,1.564c-.177.636-.365,1.081-1.129,1.216-3.443.606-6.375,2.082-8.312,5.3a10.842,10.842,0,0,0-5.107-4.4,15.825,15.825,0,0,0-3.381-.941c-.946-.163-.774-.881-1.007-1.43a.869.869,0,0,1,.359-1.163,8.384,8.384,0,0,0,2.714-4.018,1.961,1.961,0,0,1,.586-.916,12.637,12.637,0,0,0,3.029-15.058c.342-.717.838-.465,1.333-.213Z" transform="translate(-47.476 -117.001)" fill="#fefefe"/>
    <path id="Trazado_154849" data-name="Trazado 154849" d="M1828.424,1386.022c2.692-11.319,9.336-18.883,20.411-22.252,7.376-2.244,15.5-.661,20.219,2.235-3.085.465-6.09.921-9.1,1.372-6.384.957-12.766,1.924-19.154,2.848-.751.109-.9.4-.885,1.109.045,3.036.017,6.073.022,9.11,0,.376.019.684-.442.883-3.51,1.513-7.006,3.059-10.51,4.589A3.059,3.059,0,0,1,1828.424,1386.022Z" transform="translate(-39.983 -26.095)" fill="#fefefe"/>
    <path id="Trazado_154850" data-name="Trazado 154850" d="M1969.519,1451.93q.011-4.976.022-9.953c0-3.316,0-6.632,0-10.073,1.914.83,3.748,1.619,5.577,2.42,4.835,2.118,9.665,4.251,14.509,6.35a.985.985,0,0,1,.729,1.077c-.04,2.035-.015,4.07-.015,6.165-.931-.4-1.763-.793-2.622-1.114-.363-.135-.351-.362-.35-.642,0-.837-.02-1.675.009-2.511.016-.451-.061-.688-.592-.646-.764.061-1.739-.221-2.239.156-.475.357-.151,1.391-.132,2.122.016.605-.144.86-.766.725a2.345,2.345,0,0,0-.463-.012c-1.759-.02-1.759-.02-1.759-1.839,0-1.116-.029-2.234.011-3.349.021-.572-.094-.793-.739-.789-2.244.013-2.244-.017-2.244,2.246,0,1.271-.017,2.543.01,3.814a.7.7,0,0,1-.536.8c-.8.292-1.578.662-2.444,1.033,0-3.307-.043-6.555.027-9.8.02-.937-.261-1.109-1.121-1.077-1.875.069-1.877.021-1.877,1.872,0,3.349-.032,6.7.021,10.047a2.59,2.59,0,0,1-.846,2.213,8.351,8.351,0,0,0-.836.977C1970.391,1452.177,1969.913,1452.32,1969.519,1451.93Z" transform="translate(-136.903 -73.627)" fill="#cbd0d8"/>
    <path id="Trazado_154851" data-name="Trazado 154851" d="M1819.372,1451.942c-.44.1-.939-.176-1.333.213-.475-.68-.924-1.381-1.436-2.033a1.505,1.505,0,0,1-.223-1.053c0-3.721-.024-7.441.016-11.161.008-.7-.177-.869-.864-.857-2.125.039-2.126.007-2.126,2.177v8.114c-.921-.332-1.776-.674-2.653-.943-.471-.144-.307-.479-.31-.746-.016-1.612-.03-3.225,0-4.836.012-.571-.095-.792-.74-.789-2.244.013-2.244-.017-2.244,2.245,0,1.054-.02,2.109.009,3.162.013.445-.126.56-.569.578-2.375.1-2.4.113-2.393-2.259,0-.641-.211-.747-.784-.744-2.188.008-2.215-.011-2.189,2.185.008.639-.132.878-.8.82-.7-.061-1.674.276-2.04-.074-.452-.432-.13-1.4-.137-2.141-.009-.924-.274-2.043.147-2.717.4-.632,1.538-.8,2.357-1.161q8.861-3.887,17.725-7.768c.138-.06.28-.112.585-.234Z" transform="translate(-19.395 -73.638)" fill="#cbd0d8"/>
    <path id="Trazado_154852" data-name="Trazado 154852" d="M1885.554,1499.875a8.775,8.775,0,0,1-1.351-3.8c-.507-4.154.656-7.407,4.341-9.17a5.145,5.145,0,0,1,2.042-.571,45.411,45.411,0,0,1,8.329.112,7.242,7.242,0,0,1,5.97,6.588,11.217,11.217,0,0,1-.87,5.9,1.852,1.852,0,0,1-.545.82,4.745,4.745,0,0,0-1.709-3.569,5.241,5.241,0,0,0-3.756-1c-.988.035-1.979.007-2.969.007-.185,0-.372.009-.556-.007a1.483,1.483,0,0,1-.033-2.963c1.557-.162,1.567-.162,1.554-1.747-.012-1.4.2-1.231-1.223-1.233a4.416,4.416,0,0,0-4.529,3.254,1.2,1.2,0,0,1-.619.748A7.589,7.589,0,0,0,1885.554,1499.875Z" transform="translate(-78.22 -110.917)" fill="#656d78"/>
    <path id="Trazado_154853" data-name="Trazado 154853" d="M1808.636,1499.89c-.3-3.007-2.054-4.582-5-4.586-1.268,0-2.536.014-3.8-.005a1.481,1.481,0,0,1-1.64-1.5c.009-.884.642-1.44,1.671-1.472,1.294-.04,1.294-.04,1.294-1.354,0-1.685,0-1.685-1.673-1.62a4.369,4.369,0,0,0-3.949,2.889,1.872,1.872,0,0,1-1.141,1.328c-.029.01-.052.038-.081.045-.663.163-.91,1.243-1.756.907a4.757,4.757,0,0,1-3.026-2.688,4.021,4.021,0,0,1,3.681-5.45c2.659-.043,5.318-.017,7.977-.01a8.68,8.68,0,0,1,8.162,12.238A3.223,3.223,0,0,1,1808.636,1499.89Z" transform="translate(-13.093 -111.034)" fill="#656d78"/>
    <path id="Trazado_154854" data-name="Trazado 154854" d="M1945.2,1495.863c.439.1.941-.178,1.333.215-2.762,3.795-2.988,8.12-2.735,12.591.242,4.271.691,8.516,1.271,12.749.157,1.151-.828,1.572-1.219,2.363-.124.251-.29-.053-.377-.186a11.31,11.31,0,0,0-7.7-4.836,1.828,1.828,0,0,1-1.655-2.006c-.012-.328.211-.423.391-.572a8.984,8.984,0,0,0,2.867-4.244,1.582,1.582,0,0,1,.43-.691c4.531-4.351,5.5-9.517,3.5-15.362l.975-.017Z" transform="translate(-112.581 -117.559)" fill="#fefefe"/>
    <path id="Trazado_154855" data-name="Trazado 154855" d="M2005.177,1521.757a9.356,9.356,0,0,1-.363,3.391,5.933,5.933,0,0,1-11.513-1.833q-.044-1.577,0-3.157a4.417,4.417,0,0,1,2.836-3.99c.289-.11.586-.281.862-.019,1.462,1.394,3.335,1.64,5.208,1.89.122.016.245.03.368.045,2.453.289,2.6.458,2.6,2.931Z" transform="translate(-153.225 -131.401)" fill="#efcfb3"/>
    <path id="Trazado_154856" data-name="Trazado 154856" d="M1815.368,1523.6a6.47,6.47,0,0,1-1.245,4.568,5.93,5.93,0,0,1-10.629-3.411q-.045-1.578,0-3.158a4.421,4.421,0,0,1,1.555-3.25c.361-.326.578-.4.938.058a4.354,4.354,0,0,0,3.652,1.669c1.267-.012,2.534-.006,3.8,0,1.437.005,1.92.5,1.926,1.969C1815.37,1522.475,1815.368,1522.908,1815.368,1523.6Z" transform="translate(-22.842 -132.824)" fill="#efcfb3"/>
    <path id="Trazado_154857" data-name="Trazado 154857" d="M1898.413,1523.173a10.209,10.209,0,0,1,.156-2.437,4.94,4.94,0,0,1,1.068-1.926c.523-.6.915-.795,1.536,0a3.925,3.925,0,0,0,3.2,1.4c1.391.009,2.782-.006,4.172.007a1.523,1.523,0,0,1,1.739,1.774,20.084,20.084,0,0,1-.115,3.8,5.929,5.929,0,0,1-11.76-1.071C1898.406,1524.251,1898.413,1523.786,1898.413,1523.173Z" transform="translate(-88.057 -132.963)" fill="#efcfb3"/>
    <path id="Trazado_154858" data-name="Trazado 154858" d="M1969.573,1380.2c5.078,2.8,11.178,12.42,11.289,17.781a4.455,4.455,0,0,1-1.429-.547c-3.081-1.339-6.155-2.695-9.23-4.045-.295-.13-.641-.153-.639-.641C1969.58,1388.579,1969.573,1384.409,1969.573,1380.2Z" transform="translate(-136.934 -38.111)" fill="#fefefe"/>
    <path id="Trazado_154859" data-name="Trazado 154859" d="M1874.668,1389.534c0-.841.026-1.644-.008-2.444-.029-.667.491-.538.827-.591,2.379-.372,4.762-.711,7.144-1.068q9.341-1.4,18.673-2.808c.04.081.091.135.089.187-.043.908.413,2.087-.194,2.647-.549.507-1.694.374-2.579.508q-11.768,1.768-23.538,3.529C1874.967,1389.51,1874.852,1389.516,1874.668,1389.534Z" transform="translate(-71.742 -39.774)" fill="#cbd0d8"/>
    <path id="Trazado_154860" data-name="Trazado 154860" d="M1990.457,1570.219a6.022,6.022,0,0,0,4.181-3.577c.139-.331.27-.391.615-.3a8.323,8.323,0,0,0,4.127-.01c.3-.076.431-.032.554.268a6.034,6.034,0,0,0,4.207,3.628c-.57.735-1.1,1.405-1.615,2.093-.183.247-.418.224-.661.224q-4.544,0-9.088,0a.832.832,0,0,1-.8-.335C1991.521,1571.558,1991.014,1570.939,1990.457,1570.219Z" transform="translate(-151.286 -165.942)" fill="#efcfb3"/>
    <path id="Trazado_154861" data-name="Trazado 154861" d="M1790.037,1591.456c-3.391,0-6.574,0-9.757,0-.257,0-.555.1-.581-.364-.151-2.72.224-5.265,2.311-7.267.156-.15.325-.287.48-.437.535-.519.905-.563,1.429.141C1785.874,1586.152,1787.911,1588.715,1790.037,1591.456Z" transform="translate(-6.493 -177.414)" fill="#fff59d"/>
    <path id="Trazado_154862" data-name="Trazado 154862" d="M1832.219,1591.366l4.972-6.421c.436-.563.9-1.1,1.3-1.694.318-.471.578-.5,1.025-.147a7.587,7.587,0,0,1,3,5.541c.064.739.009,1.487.031,2.23.01.339-.07.5-.455.5C1838.861,1591.361,1835.628,1591.366,1832.219,1591.366Z" transform="translate(-42.59 -177.325)" fill="#fff59d"/>
    <path id="Trazado_154863" data-name="Trazado 154863" d="M1884.939,1591.459c-3.392,0-6.572,0-9.751,0-.258,0-.558.092-.584-.364-.164-2.792.258-5.381,2.439-7.393.114-.1.235-.2.347-.308.531-.512.9-.575,1.432.135C1880.773,1586.153,1882.81,1588.714,1884.939,1591.459Z" transform="translate(-71.682 -177.418)" fill="#6699c4"/>
    <path id="Trazado_154864" data-name="Trazado 154864" d="M1927.13,1591.381c1.238-1.6,2.364-3.061,3.492-4.518.928-1.2,1.88-2.379,2.778-3.6.338-.458.585-.49,1.028-.142a7.507,7.507,0,0,1,3.007,5.723c.136,2.535.11,2.536-2.383,2.536Z" transform="translate(-107.786 -177.339)" fill="#6699c4"/>
    <path id="Trazado_154865" data-name="Trazado 154865" d="M1979.8,1591.375c-3.352,0-6.534,0-9.716,0-.269,0-.546.064-.57-.381-.151-2.719.237-5.254,2.316-7.26,1.192-1.151,1.184-1.161,2.173.109q2.736,3.515,5.468,7.033C1979.554,1590.99,1979.627,1591.118,1979.8,1591.375Z" transform="translate(-136.877 -177.334)" fill="#d84318"/>
    <path id="Trazado_154866" data-name="Trazado 154866" d="M2022.019,1591.344l5.043-6.5c.436-.562.9-1.105,1.3-1.691.287-.418.531-.385.892-.109a7.487,7.487,0,0,1,3.078,5.872c.1,2.431.081,2.432-2.306,2.432Z" transform="translate(-172.966 -177.302)" fill="#d84318"/>
    <path id="Trazado_154867" data-name="Trazado 154867" d="M1816.137,1587.568c.323.237.657.458.963.713.637.53,1.761.878,1.819,1.577.049.595-.865,1.271-1.355,1.91-.32.418-.661.821-.958,1.255-.326.477-.568.649-.99.047-.692-.988-1.469-1.917-2.2-2.874-.135-.177-.4-.35-.067-.6.844-.628,1.681-1.266,2.523-1.9A1.762,1.762,0,0,1,1816.137,1587.568Z" transform="translate(-29.514 -180.555)" fill="#6699c4"/>
    <path id="Trazado_154868" data-name="Trazado 154868" d="M1911.013,1587.577c.1.066.228.144.348.233.743.556,1.476,1.126,2.231,1.666.318.228.37.4.1.724-.8.985-1.573,1.993-2.332,3.01-.3.4-.488.335-.757-.024-.762-1.015-1.551-2.009-2.325-3.015-.12-.156-.355-.323-.08-.533.862-.656,1.729-1.3,2.6-1.953A1.559,1.559,0,0,1,1911.013,1587.577Z" transform="translate(-94.694 -180.561)" fill="#fff59d"/>
    <path id="Trazado_154869" data-name="Trazado 154869" d="M1893.652,1471.077c0-1.177.014-2.287-.007-3.4-.008-.393.1-.59.514-.527.03,0,.062,0,.092,0,.763.047,1.845-.342,2.213.136.5.644.113,1.717.155,2.6.008.188-.015.38-.265.408A17.069,17.069,0,0,0,1893.652,1471.077Z" transform="translate(-84.783 -97.769)" fill="#f0f8ff"/>
    <path id="Trazado_154870" data-name="Trazado 154870" d="M1934.6,1471.071a12.925,12.925,0,0,0-2.574-.778c-.327-.043-.414-.2-.4-.488.008-.154,0-.309,0-.464-.009-2.5-.01-2.485,2.521-2.234.373.037.46.161.456.5C1934.587,1468.721,1934.6,1469.834,1934.6,1471.071Z" transform="translate(-110.871 -97.735)" fill="#f0f8ff"/>
    <path id="Trazado_154871" data-name="Trazado 154871" d="M1813.868,1567.069c-.011-.615.191-.871.89-.679a7.664,7.664,0,0,0,3.673-.011c.269-.057.6-.214.632.225.026.325.415.689-.059,1-.75.49-1.492.991-2.234,1.494a.4.4,0,0,1-.506,0c-.743-.5-1.49-.993-2.237-1.488C1813.828,1567.479,1813.682,1567.329,1813.868,1567.069Z" transform="translate(-29.925 -165.949)" fill="#eeceb2"/>
    <path id="Trazado_154872" data-name="Trazado 154872" d="M1909.375,1566.332a8.51,8.51,0,0,0,4.2.02c.258-.063.474-.044.481.227.008.334.426.7-.024,1.008-.739.506-1.475,1.018-2.236,1.489-.4.248-3.07-1.414-2.966-1.861C1908.9,1566.9,1908.714,1566.252,1909.375,1566.332Z" transform="translate(-95.211 -165.961)" fill="#eeceb2"/>
    <path id="Trazado_154873" data-name="Trazado 154873" d="M2009.1,1595.973c-.831,1.076-1.592,2.046-2.333,3.031-.26.346-.444.33-.7-.006-.741-.984-1.5-1.952-2.33-3.025Z" transform="translate(-160.412 -186.328)" fill="#6699c4"/>
    <path id="Trazado_154874" data-name="Trazado 154874" d="M1805.036,1578.843c-2.128,1.832-2.128,1.832-3.789-.413-.106-.144-.2-.3-.28-.434C1802.635,1576.918,1803.86,1577.768,1805.036,1578.843Z" transform="translate(-21.122 -173.637)" fill="#6699c4"/>
    <path id="Trazado_154875" data-name="Trazado 154875" d="M1925.761,1578.815c2.11-1.628,2.121-1.631,4.177-.878-.575.749-1.146,1.467-1.686,2.209-.238.327-.436.233-.684.041C1926.983,1579.735,1926.391,1579.293,1925.761,1578.815Z" transform="translate(-106.845 -173.606)" fill="#d84318"/>
    <path id="Trazado_154876" data-name="Trazado 154876" d="M1830.828,1578.879c.651-.437,1.231-.836,1.823-1.217a4.438,4.438,0,0,1,2.2.293.293.293,0,0,1,.029.24,1.662,1.662,0,0,1-.2.307C1833.12,1580.8,1833.12,1580.8,1830.828,1578.879Z" transform="translate(-41.634 -173.715)" fill="#6699c4"/>
    <path id="Trazado_154877" data-name="Trazado 154877" d="M1895.891,1577.929c2.087-.708,2.087-.708,4.1.906-.612.467-1.212.923-1.81,1.383-.208.161-.4.3-.615,0A21.848,21.848,0,0,1,1895.891,1577.929Z" transform="translate(-86.327 -173.623)" fill="#d84318"/>
    <path id="Trazado_154878" data-name="Trazado 154878" d="M1790.688,1522.291a3.408,3.408,0,0,1-1.369-3.517c.11-.351.231-.476.562-.228a1.547,1.547,0,0,0,.489.261c.769.218.889.66.6,1.377A6.629,6.629,0,0,0,1790.688,1522.291Z" transform="translate(-13.05 -133.053)" fill="#636b76"/>
    <path id="Trazado_154879" data-name="Trazado 154879" d="M1926.572,1428.748c-1.3,0-2.6-.019-3.9.01-.451.01-.57-.131-.567-.573q.029-3.9,0-7.81c0-.45.131-.571.572-.568q3.9.029,7.795,0c.45,0,.57.131.566.573q-.029,3.9,0,7.81c0,.45-.13.577-.572.568C1929.171,1428.73,1927.871,1428.748,1926.572,1428.748Z" transform="translate(-104.336 -65.317)"/>
    <path id="Trazado_154880" data-name="Trazado 154880" d="M1888.565,1428.745c-1.268,0-2.537-.021-3.8.011-.484.013-.624-.126-.619-.616q.036-3.858,0-7.717c0-.484.126-.625.615-.62q3.85.036,7.7,0c.483,0,.623.127.619.616q-.036,3.858,0,7.717c0,.484-.125.633-.615.621C1891.164,1428.723,1889.864,1428.745,1888.565,1428.745Z" transform="translate(-78.256 -65.314)"/>
    <path id="Trazado_154881" data-name="Trazado 154881" d="M1933.177,1429.347c1.424,0,1.424,0,1.424,1.458,0,1.519,0,1.519-1.547,1.519-1.424,0-1.424,0-1.424-1.457C1931.63,1429.347,1931.63,1429.347,1933.177,1429.347Z" transform="translate(-110.877 -71.87)" fill="#f0f8ff"/>
    <path id="Trazado_154882" data-name="Trazado 154882" d="M1896.639,1430.774c0,1.55,0,1.55-1.517,1.55-1.455,0-1.455,0-1.455-1.427,0-1.55,0-1.55,1.517-1.55C1896.639,1429.347,1896.639,1429.347,1896.639,1430.774Z" transform="translate(-84.8 -71.87)" fill="#f0f8ff"/>
  </g>
</svg>
