<svg xmlns="http://www.w3.org/2000/svg" width="55.701" height="55.704" viewBox="0 0 55.701 55.704">
  <g id="Grupo_129320" data-name="Grupo 129320" transform="translate(-348.092 -258.072)">
    <path id="Trazado_189235" data-name="Trazado 189235" d="M403.793,269.6v35.359a3.984,3.984,0,0,1-2.516,3.389,4.923,4.923,0,0,1-2.113.42q-7.145-.009-14.289,0c-.852,0-.835.005-1.006.821a5.324,5.324,0,0,1-3.077,3.9,7.744,7.744,0,0,1-1.476.289h-6.854a5.077,5.077,0,0,1-4.488-4.4c-.1-.513-.335-.618-.806-.617q-7.278.018-14.557,0a4.631,4.631,0,0,1-3.91-1.979,4.049,4.049,0,0,1-.609-1.823V269.5a4.008,4.008,0,0,1,2.751-3.5.694.694,0,0,0,.517-.776,5.714,5.714,0,0,1,0-.6c.014-1.165.375-1.542,1.522-1.546,2.079-.007,4.159-.014,6.238,0,.881.008,1.242.329,1.319,1.1a1.062,1.062,0,0,1-1.139,1.057c-.633.037-1.268.011-1.9.012-1.088,0-2.175.012-3.263,0-.444-.007-.612.161-.607.607.015,1.414.005,2.828.005,4.242q0,13.7,0,27.408c0,.163,0,.326,0,.49,0,.745.02.765.76.765,5.021,0,10.042.024,15.062-.011a7.693,7.693,0,0,1,5.094,1.693c.095.077.178.182.321.192.132-.089.079-.228.08-.344,0-1.341-.009-2.683.009-4.024.006-.444-.122-.632-.6-.682a16.68,16.68,0,0,1-10.044-4.706,1.356,1.356,0,0,0-1.026-.386c-1.957.008-3.915,0-5.873,0a2.6,2.6,0,0,1-.808-.079,1.053,1.053,0,0,1,.007-2.024,2.491,2.491,0,0,1,.754-.075c1.4,0,2.791,0,4.187,0,.548,0,.573-.04.3-.494a17.885,17.885,0,0,1-1.066-2.018.825.825,0,0,0-.891-.537c-.833.022-1.667.007-2.5.006a3.4,3.4,0,0,1-.6-.031,1.069,1.069,0,0,1-.949-1.081,1.048,1.048,0,0,1,.944-1.027,12.808,12.808,0,0,1,1.846-.036c1.352,0,1.139.028.93-1.149a8.432,8.432,0,0,1-.171-1.346c-.006-.388-.185-.557-.569-.552-.489.006-.979,0-1.468,0a3.044,3.044,0,0,1-.6-.038,1.065,1.065,0,0,1-.915-1.055,1.041,1.041,0,0,1,.926-1.042,13.739,13.739,0,0,1,1.846-.042c.609-.014.657-.053.663-.646.007-.616-.008-1.233,0-1.849.008-.392-.147-.565-.545-.551-.435.015-.87,0-1.3,0a4.545,4.545,0,0,1-.543-.018,1.054,1.054,0,0,1-.112-2.1,8.354,8.354,0,0,1,1.681-.057c.915-.01.914,0,1.072-.885.1-.553.237-1.1.359-1.646.11-.5.1-.51-.428-.515-.707-.006-1.414,0-2.121,0a1.941,1.941,0,0,1-.849-.154,1.033,1.033,0,0,1,.214-1.976,2.865,2.865,0,0,1,.649-.047c.979,0,1.958-.013,2.936,0a.846.846,0,0,0,.857-.519,12.557,12.557,0,0,1,1.833-2.749,15.648,15.648,0,0,1,4.932-4.192,14.061,14.061,0,0,1,4.936-1.765,13.31,13.31,0,0,0,1.337-.135h3.59a16.735,16.735,0,0,1,2.93.445,17.1,17.1,0,0,1,6.528,3.665,16.222,16.222,0,0,1,1.845,1.983,10.572,10.572,0,0,1,1.754,2.607,1.093,1.093,0,0,0,1.162.665c.923-.036,1.849-.011,2.773-.009a2.2,2.2,0,0,1,.7.075,1.027,1.027,0,0,1,.208,1.9,1.785,1.785,0,0,1-.945.205c-.743,0-1.487.012-2.23,0-.349-.007-.458.113-.362.451a14.249,14.249,0,0,1,.455,2.124.488.488,0,0,0,.55.474c.489-.006.979,0,1.468,0a3.279,3.279,0,0,1,.6.037,1.122,1.122,0,0,1,1.015,1.094,1.082,1.082,0,0,1-1.12,1.033c-.6.041-1.2.018-1.794.013-.369,0-.525.152-.521.521q.013,1.006,0,2.012c0,.374.167.521.529.514.417-.009.834,0,1.251,0,.181,0,.363-.005.543.012a1.1,1.1,0,0,1,1.114,1.1,1.082,1.082,0,0,1-1.1,1.05c-.542.042-1.087.011-1.631.016-.746.007-.747.017-.822.741a12.628,12.628,0,0,1-.286,1.769c-.094.373.022.544.423.537.652-.012,1.305,0,1.958,0a2.3,2.3,0,0,1,.7.076,1.053,1.053,0,0,1,0,2.024,2.285,2.285,0,0,1-.7.077c-.87,0-1.741.016-2.611-.006a.8.8,0,0,0-.852.514,16.167,16.167,0,0,1-1.129,2.108c-.221.337-.117.433.251.431,1.4-.008,2.792,0,4.188,0a3.458,3.458,0,0,1,.7.04,1.06,1.06,0,0,1-.022,2.1,3.73,3.73,0,0,1-.7.036c-1.94,0-3.88.006-5.82,0a1.355,1.355,0,0,0-1.021.4,16.735,16.735,0,0,1-10.049,4.7c-.355.039-.581.114-.579.533.008,1.432,0,2.865.006,4.3a.23.23,0,0,0,.1.217,8.965,8.965,0,0,0,.909-.64,6.85,6.85,0,0,1,3.987-1.235q7.75-.008,15.5,0c.819,0,.821,0,.821-.812q0-15.937,0-31.874c0-.811-.009-.818-.819-.82-1.559,0-3.118.012-4.677-.007-.872-.01-1.271-.324-1.406-1.047a1.046,1.046,0,0,1,1.031-1.1,7.039,7.039,0,0,1,.868-.021c1.9,0,3.8-.008,5.7,0,1.083.006,1.514.4,1.459,1.483a1.469,1.469,0,0,0,1.011,1.688A3.646,3.646,0,0,1,403.793,269.6Z" fill="#252525"/>
    <path id="Trazado_189236" data-name="Trazado 189236" d="M452.838,270.068a14.79,14.79,0,1,1-14.783,14.751A14.785,14.785,0,0,1,452.838,270.068Z" transform="translate(-76.908 -10.255)" fill="#f8ba3d"/>
    <path id="Trazado_189237" data-name="Trazado 189237" d="M557.952,300.027h2.8c.19.674.423.862,1.112.865,1.795.007,3.59.017,5.384,0,.363,0,.491.066.491.465q-.017,16.508,0,33.016c0,.452-.169.479-.532.479-4.949-.01-9.9.043-14.848-.028a7.858,7.858,0,0,0-6.39,2.386v-.589c0-1.632.006-3.264-.006-4.9,0-.3.043-.444.4-.473a16.221,16.221,0,0,0,10.465-4.837.914.914,0,0,1,.716-.28c1.759.01,3.517.005,5.276.005h1.088c.791,0,1.2-.29,1.205-.858s-.4-.882-1.18-.882q-2.366,0-4.732,0h-.595c.385-.66.746-1.276,1.1-1.894a1.764,1.764,0,0,0,.243-.483c.211-1.032.88-1.222,1.821-1.121a20.054,20.054,0,0,0,2.337.015c.625-.007,1.019-.368,1-.9-.017-.511-.392-.835-1-.84-.888-.008-1.777-.013-2.665,0-.323.006-.4-.077-.315-.4a11.454,11.454,0,0,0,.416-2.624c.013-.376.156-.487.525-.47.688.03,1.377.017,2.066.006a.874.874,0,1,0,0-1.736c-.707-.01-1.415-.019-2.121,0-.319.011-.394-.1-.388-.4q.027-1.359,0-2.719c-.005-.285.079-.375.367-.367.688.02,1.378.01,2.066.005.654,0,1.037-.315,1.05-.841s-.4-.89-1.064-.9c-.725-.007-1.45-.01-2.175,0-.238,0-.347-.051-.38-.315a15.086,15.086,0,0,0-.613-2.863c-.087-.265-.014-.346.265-.341.961.016,1.922.013,2.882.012.675,0,1.085-.333,1.086-.874s-.384-.859-1.082-.864q-1.768-.013-3.535-.007c-.253,0-.444-.03-.567-.3A17.7,17.7,0,0,0,557.952,300.027Z" transform="translate(-169.16 -35.867)" fill="#dfccbc"/>
    <path id="Trazado_189238" data-name="Trazado 189238" d="M390.988,300.04h2.789a17.744,17.744,0,0,0-1.977,3.17c-.124.273-.314.3-.565.3q-1.767-.006-3.534.007c-.7.005-1.08.322-1.076.868s.408.87,1.088.87c.942,0,1.885.009,2.827-.014.341-.008.4.1.3.4a13.593,13.593,0,0,0-.592,2.755c-.037.312-.158.375-.442.368-.725-.018-1.45-.014-2.175,0-.627.01-1.021.371-1.008.9s.386.834.995.84c.707.007,1.414.014,2.12,0,.281-.008.375.068.369.36q-.027,1.386,0,2.773c.007.3-.109.358-.377.351-.652-.016-1.3-.007-1.957,0-.746,0-1.141.3-1.15.855s.4.883,1.176.885c.671,0,1.341.007,2.012,0,.213,0,.341.039.353.284a17.766,17.766,0,0,0,.516,3.2c-1.021,0-2,0-2.974,0-.688,0-1.082.322-1.083.868s.393.869,1.081.871q1.6.006,3.208,0c.2,0,.383-.019.481.231a16.921,16.921,0,0,0,1.776,3.251H389.7c-.689,0-1.378-.006-2.066,0-.631.007-1.019.357-1.006.889a.88.88,0,0,0,.994.847q3.29.009,6.58,0a.911.911,0,0,1,.713.283,16.33,16.33,0,0,0,10.46,4.844c.194.016.4-.021.4.295-.008,1.84,0,3.681,0,5.521l-.171.119a1.184,1.184,0,0,0-.169-.332,6.837,6.837,0,0,0-4.943-2.019q-7.966-.006-15.933.01c-.464,0-.553-.125-.552-.566q.02-16.423,0-32.846c0-.459.117-.563.564-.556,1.776.028,3.552.014,5.329.01C390.584,300.91,390.8,300.73,390.988,300.04Z" transform="translate(-30.695 -35.878)" fill="#f6e5d4"/>
    <path id="Trazado_189239" data-name="Trazado 189239" d="M379.226,364.712c-.489.005-.979.015-1.468.015q-7.479,0-14.957,0a2.619,2.619,0,0,1-2.713-2.711q-.006-16.862,0-33.724a2.613,2.613,0,0,1,1.256-2.328c.316-.206.536-.247.486.252-.012.126,0,.254,0,.381v35.03c0,1.154.208,1.363,1.356,1.363H378.52c.235,0,.471.01.706.016A1.54,1.54,0,0,1,379.226,364.712Z" transform="translate(-10.253 -57.915)" fill="#d2e1f1"/>
    <path id="Trazado_189240" data-name="Trazado 189240" d="M586.506,363.012c.29-.005.58-.016.87-.016h15.337c.926,0,1.193-.268,1.193-1.2q0-17.65,0-35.3c0-.222-.122-.55.092-.645s.46.15.653.306a2.6,2.6,0,0,1,.986,1.979c.013.271,0,.544,0,.816q0,16.4,0,32.8a2.68,2.68,0,0,1-2.988,2.986H587.1c-.2,0-.4-.01-.6-.015A1.54,1.54,0,0,1,586.506,363.012Z" transform="translate(-203.595 -57.923)" fill="#d2e1f1"/>
    <path id="Trazado_189241" data-name="Trazado 189241" d="M392.589,551.909q3.833,0,7.667,0a5.226,5.226,0,0,1,5.464,5.472c0,.634-.015,1.269.007,1.9.011.33-.047.5-.433.465-.411-.041-.928.119-1.215-.077s-.076-.74-.106-1.13a4.364,4.364,0,0,0-4.416-4.019q-7.5-.016-15.007.007c-.456,0-.65-.074-.6-.579a9.482,9.482,0,0,0,0-1.575c-.026-.388.1-.478.48-.476C387.152,551.916,389.871,551.909,392.589,551.909Z" transform="translate(-30.648 -251.188)" fill="#dfccbc"/>
    <path id="Trazado_189242" data-name="Trazado 189242" d="M559.055,551.88c2.7,0,5.4.015,8.1-.014.5-.005.617.142.581.6a12.011,12.011,0,0,0,0,1.575c.019.356-.094.458-.451.454-1.63-.018-3.26-.008-4.891-.008q-5.027,0-10.054,0a4.335,4.335,0,0,0-4.614,4.628c0,.526-.169.616-.637.6-1.118-.03-1.126-.009-1.116-1.14a11.6,11.6,0,0,1,.144-2.7,5.211,5.211,0,0,1,5.009-3.991c2.644-.024,5.289-.005,7.934-.005Z" transform="translate(-169.153 -251.159)" fill="#c5b1a4"/>
    <path id="Trazado_189243" data-name="Trazado 189243" d="M443.322,432.538c3.4,4.925,8.039,7.669,14.044,7.665,5.98,0,10.605-2.736,14.017-7.725a14.557,14.557,0,0,1-12.313,10.257A14.7,14.7,0,0,1,443.322,432.538Z" transform="translate(-81.41 -149.097)" fill="#e79738"/>
    <path id="Trazado_189244" data-name="Trazado 189244" d="M505.924,582.063q0,.854,0,1.708c-.69.17-.878.389-.873,1.088a4.6,4.6,0,0,1-.356,2.171,3.364,3.364,0,0,1-3.132,1.97c-1.738.036-3.477.019-5.216.006a3.483,3.483,0,0,1-3.483-3.494c0-.217,0-.435,0-.652-.008-.7-.186-.918-.876-1.089q0-.854,0-1.708a2.6,2.6,0,0,1,2.613,2.507c.015.56,0,1.121.006,1.682.01.689.313,1.012.985,1.014q3.364.011,6.729,0c.672,0,.976-.326.985-1.014.008-.561-.009-1.122.006-1.682A2.6,2.6,0,0,1,505.924,582.063Z" transform="translate(-123.012 -276.974)" fill="#b0c0d2"/>
    <path id="Trazado_189245" data-name="Trazado 189245" d="M496.022,290.691c-1.233,0-2.465,0-3.7,0-.649,0-1.038.319-1.049.843-.012.538.4.89,1.067.895,1.07.007,2.139,0,3.209,0a6.076,6.076,0,0,1,1.405,12.01c-.382.089-.489.228-.471.6.032.669.014,1.341.007,2.012s-.324,1.027-.98,1.036q-1.631.023-3.263,0a.888.888,0,0,1-.974-.986c-.011-.689-.019-1.378,0-2.066.011-.327-.074-.441-.419-.432-.942.024-1.885.013-2.828.007-.805-.005-1.108-.315-1.111-1.126,0-1.015-.005-2.03,0-3.046,0-.749.306-1.046,1.062-1.047q3.644,0,7.287,0a1.465,1.465,0,0,0,.694-.091.859.859,0,0,0-.373-1.648c-1.088,0-2.175.005-3.263,0a6.094,6.094,0,0,1-1.508-12.039c.363-.081.472-.2.459-.558-.026-.688-.014-1.378-.005-2.066s.316-.995,1-1q1.6-.011,3.209,0c.687,0,1,.311,1.009.991s.019,1.378,0,2.066c-.011.331.083.438.424.43.96-.023,1.922-.012,2.882-.007.749,0,1.047.3,1.051,1.059q.008,1.55,0,3.1c0,.735-.323,1.055-1.068,1.059C498.524,290.7,497.273,290.691,496.022,290.691Z" transform="translate(-117.94 -20.442)" fill="#252525"/>
    <path id="Trazado_189246" data-name="Trazado 189246" d="M608.693,341.1a12.9,12.9,0,0,1-.894,4.662.877.877,0,1,1-1.613-.65,10.433,10.433,0,0,0,0-7.822.89.89,0,0,1,.446-1.263c.5-.185.944.062,1.178.646A12.57,12.57,0,0,1,608.693,341.1Z" transform="translate(-220.559 -66.593)" fill="#fbcf87"/>
    <path id="Trazado_189247" data-name="Trazado 189247" d="M455.967,341.229a12.833,12.833,0,0,1,.891-4.568.881.881,0,1,1,1.613.651,10.38,10.38,0,0,0-.006,7.771c.229.594.074,1.075-.413,1.276-.509.21-.96-.041-1.21-.66A12.729,12.729,0,0,1,455.967,341.229Z" transform="translate(-92.22 -66.597)" fill="#fbcf87"/>
    <path id="Trazado_189248" data-name="Trazado 189248" d="M616.845,503.973c1.212,0,2.424,0,3.635,0,.687,0,1.082.319,1.087.861s-.394.877-1.072.877q-3.717,0-7.434,0c-.672,0-1.072-.344-1.059-.889.012-.526.4-.846,1.044-.849C614.313,503.969,615.579,503.973,616.845,503.973Z" transform="translate(-225.612 -210.215)" fill="#252525"/>
    <path id="Trazado_189249" data-name="Trazado 189249" d="M406.818,505.714c-1.212,0-2.424,0-3.636,0-.689,0-1.082-.316-1.089-.86s.388-.878,1.069-.879q3.717,0,7.435,0c.676,0,1.073.34,1.062.886-.011.526-.4.85-1.042.852C409.351,505.718,408.085,505.714,406.818,505.714Z" transform="translate(-46.165 -210.216)" fill="#252525"/>
    <path id="Trazado_189250" data-name="Trazado 189250" d="M505.533,299.132c-1.052,0-2.1-.006-3.154,0a2.607,2.607,0,1,0-.037,5.214c1.142.024,2.284,0,3.426.008a4.349,4.349,0,0,1,.259,8.692c-.87.064-1.089.3-1.091,1.2,0,.635-.015,1.269.006,1.9.01.311-.1.393-.4.4-1.345.035-1.344.045-1.344-1.3,0-.417.01-.834,0-1.251a.858.858,0,0,0-.958-.932c-.979-.01-1.958-.017-2.937,0-.35.008-.461-.091-.463-.453-.006-1.3-.02-1.3,1.3-1.3,1.885,0,3.771.019,5.656-.01a2.512,2.512,0,0,0,2.4-1.578,2.456,2.456,0,0,0-.384-2.7,2.429,2.429,0,0,0-1.943-.932c-1.215-.007-2.43.022-3.644-.013a4.35,4.35,0,0,1-1.195-8.5,4.417,4.417,0,0,1,1.174-.2.9.9,0,0,0,1-1.023c.009-.689.017-1.378,0-2.067-.01-.317.107-.388.406-.4,1.342-.033,1.341-.042,1.341,1.3,0,.381,0,.762,0,1.142.011.7.328,1.032,1.033,1.04.961.012,1.922.014,2.882,0,.313-.005.439.059.444.413.02,1.334.034,1.333-1.316,1.333Z" transform="translate(-128.122 -30.623)" fill="#e79738"/>
  </g>
</svg>
