<svg xmlns="http://www.w3.org/2000/svg" width="56.712" height="56.665" viewBox="0 0 56.712 56.665">
  <g id="Grupo_129617" data-name="Grupo 129617" transform="translate(-456.284 -1555.697)">
    <g id="Grupo_128210" data-name="Grupo 128210" transform="translate(456.284 1555.697)">
      <path id="Trazado_155082" data-name="Trazado 155082" d="M1118.726,2071.618c-.35-.217-.739-.072-1.108-.119a1.882,1.882,0,0,0-1.356-.379q-16.838.011-33.675,0a4.761,4.761,0,0,1-1.116-.066.9.9,0,0,1-.772-.9c-.009-.205-.011-.412-.011-.617q0-11.341,0-22.681c0-1.454.141-1.592,1.613-1.592h51.606c1.486,0,1.616.132,1.616,1.647q0,11.2,0,22.4c0,1.652-.158,1.809-1.84,1.81-3.81,0-7.62.007-11.431-.007a1.434,1.434,0,0,0-1.284.5c-.35-.216-.739-.072-1.107-.119C1119.306,2070.932,1119.23,2070.94,1118.726,2071.618Z" transform="translate(-1079.75 -2015.354)" fill="#fffcdd"/>
      <path id="Trazado_155083" data-name="Trazado 155083" d="M1115.644,1901.829c.048-.639.142-.724.853-.724q6.219,0,12.438,0c1,0,1.081-.078,1.081-1.083q0-11.676,0-23.352c0-.928-.084-1.01-1.032-1.01h-52.441c-.9,0-1,.092-1,.989q0,11.732,0,23.465c0,.885.106.992,1,.992q17.368,0,34.736,0c.475,0,.918,0,1.008.61-.145.473-.513.522-.933.521-2.353-.007-4.705,0-7.058,0H1076.52c-1.165,0-1.794-.393-2.031-1.282a2.38,2.38,0,0,1-.061-.609q0-11.954,0-23.909a1.714,1.714,0,0,1,1.915-1.891c1.2,0,2.39-.011,3.585.006.338,0,.48-.048.479-.444q-.023-7.464,0-14.929c0-.338-.083-.438-.434-.447a1.655,1.655,0,0,1-1.731-1.778c0-.412,0-.823,0-1.235a1.7,1.7,0,0,1,1.805-1.832c.765-.006,1.532.017,2.3-.008a.714.714,0,0,1,.83.568c-.058.521-.224.691-.778.722-.669.037-1.34,0-2.01.017-.713.016-.833.144-.85.865-.03,1.339,0,1.364,1.347,1.367,2.755.006,5.51-.016,8.264.01.47.055.622-.181.595-.622a8.871,8.871,0,0,1,0-1.054c.025-.429-.154-.624-.583-.583a17.593,17.593,0,0,1-1.993-.014c-.581-.052-.752-.293-.654-.82a.653.653,0,0,1,.74-.454c.765.012,1.531-.011,2.3.011.3.009.374-.088.369-.378-.018-.9-.014-1.8,0-2.694,0-.265-.048-.377-.355-.415a1.608,1.608,0,0,1-1.479-1.672c-.013-.524-.019-1.049.007-1.571a1.655,1.655,0,0,1,1.586-1.585c.149-.009.3,0,.448,0h25.32c1.463,0,2.057.6,2.058,2.079,0,.374.01.749,0,1.122a1.61,1.61,0,0,1-1.464,1.63c-.285.036-.375.116-.37.4.016.879.028,1.759,0,2.637-.014.388.125.449.47.448,3.081-.012,6.162-.008,9.243-.007a1.732,1.732,0,0,1,1.964,1.955c0,.412.01.823,0,1.235a1.609,1.609,0,0,1-1.516,1.64c-.426.026-.419.223-.418.527.006,2.545,0,5.089,0,7.633,0,.375-.029.721-.466.848-.454.173-.648-.081-.764-.466-.049-2.336-.008-4.673-.022-7.009,0-.224.008-.449,0-.673-.031-.588-.109-.676-.706-.678q-3.47-.014-6.941,0c-.575,0-.638.067-.639.656q-.009,7.066,0,14.133c0,.607.074.677.683.679q3.442.012,6.885,0c.63,0,.691-.069.716-.717.026-.672-.015-1.346.021-2.018.1-.348.191-.7.687-.555a.736.736,0,0,1,.553.849c-.017.729.012,1.46-.012,2.188-.011.336.069.448.426.441,1.157-.025,2.315-.013,3.472-.008a1.7,1.7,0,0,1,1.853,1.9q0,11.953,0,23.907a1.691,1.691,0,0,1-1.817,1.881c-4.313.016-8.625.006-12.938.008A.712.712,0,0,1,1115.644,1901.829Z" transform="translate(-1074.426 -1845.566)" fill="#102538"/>
      <path id="Trazado_155084" data-name="Trazado 155084" d="M1361.153,1945.338a.618.618,0,0,0,.644.365,3.2,3.2,0,0,0-.084,1.1c-.536.582-.53.649.091,1.142a2.937,2.937,0,0,0-.092,1.106.722.722,0,0,0-.567.444,12.991,12.991,0,0,0-.028,1.791.431.431,0,0,1-.453.505c-.13.012-.261.017-.391.017-2.09,0-4.181.005-6.271,0-.856,0-.971-.116-.973-.976q-.009-6.283,0-12.567c0-.853.116-.966.979-.969q3.135-.011,6.271,0c.805,0,.83.038.83.865q0,3.282,0,6.564A1.615,1.615,0,0,0,1361.153,1945.338Z" transform="translate(-1311.295 -1923.553)" fill="#fffcdd"/>
      <path id="Trazado_155085" data-name="Trazado 155085" d="M1114.487,1904.048c0,.49.257.682.729.676.66-.008,1.321.009,1.982.015a3.944,3.944,0,0,1,0,2.565q-4.634.013-9.268.024a.538.538,0,0,1-.592-.592c-.009-.448,0-.9,0-1.343,0-.466.238-.675.694-.672.764.005,1.527-.016,2.29.008a.715.715,0,0,0,.828-.568c.365-.038.747.1,1.094-.113.436.578.526.611.885.307.084-.072.145-.172.264-.194C1113.758,1904.122,1114.139,1904.253,1114.487,1904.048Z" transform="translate(-1102.407 -1895.286)" fill="#fffcdd"/>
      <path id="Trazado_155086" data-name="Trazado 155086" d="M1407.887,2001.947c-.325,0-.594-.084-.649-.453-.064-.424.2-.595.558-.689.292.1.541.253.535.6A.551.551,0,0,1,1407.887,2001.947Z" transform="translate(-1357.378 -1977.551)" fill="#102538"/>
      <path id="Trazado_155087" data-name="Trazado 155087" d="M1141.248,1901.635c-.1.317-.257.594-.645.553s-.508-.313-.5-.666a.562.562,0,0,1,.613-.442C1141.039,1901.11,1141.16,1901.362,1141.248,1901.635Z" transform="translate(-1130.261 -1892.762)" fill="#102538"/>
      <path id="Trazado_155088" data-name="Trazado 155088" d="M1334.608,2217.109c-.022-.367.069-.669.491-.713s.568.245.644.594C1335.4,2217.629,1335.05,2217.665,1334.608,2217.109Z" transform="translate(-1295.632 -2160.845)" fill="#102538"/>
      <path id="Trazado_155089" data-name="Trazado 155089" d="M1118.053,2096.017q-7.2,0-14.4,0c-1.625,0-2.3-.684-2.3-2.323q0-6.876,0-13.752a1.91,1.91,0,1,1,3.811.052c-.007,3.873.008,7.746-.017,11.619,0,.506.131.625.612.6.744-.043,1.494-.032,2.24,0,.356.014.431-.1.427-.438-.018-1.646-.011-3.293-.007-4.939a1.731,1.731,0,0,1,1.905-1.913c.728,0,1.457-.01,2.185,0a1.71,1.71,0,0,1,1.823,1.828c.011,1.665.013,3.331-.005,5,0,.361.086.469.458.467,1.231-.008,1.231.008,1.231-1.208q0-3.648,0-7.3a1.688,1.688,0,0,1,1.9-1.894q1.037,0,2.073,0a1.7,1.7,0,0,1,1.913,1.94c0,2.619.018,5.239-.013,7.858-.006.517.149.618.624.6,1.068-.035,1.069-.01,1.069-1.084q0-4.94,0-9.879c0-1.4.622-2.03,2-2.032.71,0,1.419-.009,2.129,0a1.666,1.666,0,0,1,1.77,1.8c.005,3.536.011,7.072-.01,10.608,0,.462.1.607.574.583.838-.043,1.68-.013,2.52-.012a1.955,1.955,0,0,1,2.18,1.893c.012,1.167-.842,1.923-2.192,1.924Q1125.308,2096.02,1118.053,2096.017Z" transform="translate(-1097.32 -2043.104)" fill="#102538"/>
      <path id="Trazado_155091" data-name="Trazado 155091" d="M1316.287,2098.614c-1.474,0-2.949.006-4.423,0a1.715,1.715,0,0,0-.849.206c-1.958,1.037-3.924,2.059-5.888,3.085a2.82,2.82,0,0,1-.348.177.536.536,0,0,1-.727-.229.529.529,0,0,1,.233-.766c.372-.212.759-.4,1.138-.6,1.73-.909,3.463-1.816,5.189-2.734a2.166,2.166,0,0,1,1.064-.268c2.986.011,5.973.006,8.959.006a3.074,3.074,0,0,1,.391.007c.338.043.569.225.555.582a.523.523,0,0,1-.591.533h-4.7Z" transform="translate(-1269.589 -2059.75)" fill="#102538"/>
      <path id="Trazado_155092" data-name="Trazado 155092" d="M1321.845,2136.805a.514.514,0,0,1-.528-.339,1.9,1.9,0,0,1-.123-.428,2.455,2.455,0,0,0-1.763-2.042c-.3-.1-.548-.243-.541-.615s.281-.505.575-.589a2.259,2.259,0,0,0,1.6-1.644c.049-.16.1-.319.145-.481.087-.335.183-.683.609-.688s.548.311.623.665c.038.181.107.355.163.533a2.233,2.233,0,0,0,1.564,1.606c.308.089.611.209.6.623-.008.375-.265.5-.568.588a2.544,2.544,0,0,0-1.751,2.124C1322.368,2136.45,1322.287,2136.79,1321.845,2136.805Z" transform="translate(-1282.271 -2087.376)" fill="#102538"/>
      <path id="Trazado_155093" data-name="Trazado 155093" d="M1167.8,2065.4a.548.548,0,0,1-.438.573,2.525,2.525,0,0,0-1.873,2.141c-.016.072-.053.14-.069.212a.571.571,0,0,1-1.136-.015,2.647,2.647,0,0,0-1.951-2.341.539.539,0,0,1-.42-.586.533.533,0,0,1,.438-.516,2.58,2.58,0,0,0,1.895-2.192c.083-.346.179-.663.617-.663s.539.347.613.675a2.563,2.563,0,0,0,1.9,2.188A.506.506,0,0,1,1167.8,2065.4Z" transform="translate(-1148.804 -2029.588)" fill="#102538"/>
      <path id="Trazado_155094" data-name="Trazado 155094" d="M1364.755,2116.134c1.287,0,2.575.006,3.862,0,.41,0,.729.116.717.575-.011.416-.319.552-.7.552h-7.78c-.4,0-.721-.124-.712-.59.009-.438.312-.538.695-.535C1362.143,2116.138,1363.449,2116.134,1364.755,2116.134Z" transform="translate(-1317.344 -2075.603)" fill="#102538"/>
      <path id="Trazado_155095" data-name="Trazado 155095" d="M1364.724,2134.609c1.268,0,2.536,0,3.8,0,.4,0,.8.039.807.544s-.374.583-.78.583q-3.832,0-7.664,0c-.381,0-.742-.075-.748-.553-.007-.519.371-.572.776-.571C1362.188,2134.611,1363.456,2134.609,1364.724,2134.609Z" transform="translate(-1317.345 -2091.31)" fill="#102538"/>
      <path id="Trazado_155096" data-name="Trazado 155096" d="M1364.7,2181.092c1.249,0,2.5,0,3.748,0,.408,0,.85,0,.862.542s-.417.584-.833.584h-7.5c-.093,0-.187,0-.279-.008-.363-.035-.606-.2-.583-.6.022-.373.273-.511.61-.512C1362.056,2181.09,1363.38,2181.093,1364.7,2181.092Z" transform="translate(-1317.326 -2130.832)" fill="#102538"/>
      <path id="Trazado_155098" data-name="Trazado 155098" d="M1200.689,1904.461c-.011-1.589-.024-3.178-.032-4.768-.006-1.255-.4-1.657-1.627-1.658q-1.821,0-3.641,0c-1.233,0-1.62.4-1.626,1.658-.008,1.589-.021,3.178-.032,4.768a.922.922,0,0,1-.684.182q-3.435.008-6.87,0a.891.891,0,0,1-.635-.16,1.8,1.8,0,0,1-.041-.667q0-10.524,0-21.048c0-.942,0-.947.972-.947q8.179,0,16.357,0c1.755,0,3.51-.006,5.266,0,.789,0,.825.048.825.814q0,10.636,0,21.272a1.82,1.82,0,0,1-.031.558.977.977,0,0,1-.741.177q-3.358.009-6.717,0A1,1,0,0,1,1200.689,1904.461Z" transform="translate(-1168.855 -1876.388)" fill="#fffcdd"/>
      <path id="Trazado_155099" data-name="Trazado 155099" d="M1186.545,1855.667h-12.6c-.905,0-.971-.064-.973-.944,0-1.786-.146-1.668,1.657-1.668q12.261.005,24.522,0c.927,0,1,.071,1,.978,0,.355,0,.71-.005,1.065a.523.523,0,0,1-.561.563c-.168.007-.336,0-.5,0Z" transform="translate(-1158.21 -1851.931)" fill="#fffcdd"/>
      <path id="Trazado_155100" data-name="Trazado 155100" d="M1208.567,1901.126q.006-8,.013-15.994c0-1.946-.011-3.891.009-5.837,0-.442-.084-.618-.576-.616q-11.091.023-22.181.009c-.311,0-.577-.036-.576.439q.024,11,.021,22c.154.554.549.642,1.067.636,2.082-.022,4.165-.011,6.248-.006a1.183,1.183,0,0,1,.853.176c-.11.2-.3.1-.45.1-2.446.007-4.892,0-7.337.014-.384,0-.5-.09-.5-.492q.018-11.532,0-23.064c0-.48.143-.579.6-.578q11.173.021,22.347,0c.453,0,.6.1.6.578q-.023,11.532-.01,23.064c0,.274.033.5-.384.492-2.539-.018-5.078-.009-7.617-.011-.1,0-.23.04-.282-.107a1.183,1.183,0,0,1,.852-.176c2.083,0,4.166-.015,6.249.006C1208.018,1901.768,1208.413,1901.68,1208.567,1901.126Z" transform="translate(-1168.566 -1873.07)" fill="#fffcdd"/>
      <path id="Trazado_155101" data-name="Trazado 155101" d="M1353.057,1908.567l9.184-.018a.585.585,0,0,1,.674.638c.006.449,0,.9,0,1.347a.556.556,0,0,1-.623.624l-9.238-.026A3.943,3.943,0,0,1,1353.057,1908.567Z" transform="translate(-1311.137 -1899.115)" fill="#fffcdd"/>
      <path id="Trazado_155102" data-name="Trazado 155102" d="M1130.069,1941.354c0,2.431-.008,4.862.008,7.292,0,.407-.057.58-.532.575-2.444-.027-4.889-.021-7.334,0-.4,0-.543-.074-.542-.515q.025-7.376,0-14.753c0-.46.146-.557.572-.554q3.639.028,7.278,0c.436,0,.565.106.561.555C1130.058,1936.418,1130.069,1938.886,1130.069,1941.354Z" transform="translate(-1114.592 -1920.239)" fill="#fffcdd"/>
      <path id="Trazado_155103" data-name="Trazado 155103" d="M1358.287,1942.036c-.169-.172-.1-.39-.1-.588,0-2.245-.013-4.491.006-6.736,0-.418-.115-.544-.536-.54q-3.389.029-6.779,0c-.415,0-.543.112-.542.536q.022,6.54,0,13.08c0,.415.111.547.535.543q3.389-.029,6.779,0c.413,0,.552-.107.546-.534a4.206,4.206,0,0,1,.083-1.6c0,.86-.016,1.72,0,2.579.007.33-.069.456-.43.454q-3.89-.023-7.781,0c-.309,0-.417-.075-.416-.4q.014-7.487,0-14.975c0-.347.105-.441.445-.44q3.862.019,7.724,0c.39,0,.459.148.458.495C1358.275,1936.615,1358.284,1939.326,1358.287,1942.036Z" transform="translate(-1308.429 -1920.252)" fill="#fffcdd"/>
      <path id="Trazado_155104" data-name="Trazado 155104" d="M1248.437,1997.564a38.385,38.385,0,0,1,4.48,0,16.548,16.548,0,0,1,.052,2.341c.017.84-.013,1.681.011,2.521.011.392-.153.553-.514.559-1.193.022-2.386.026-3.578,0-.274-.007-.513-.072-.51-.445.011-1.625,0-3.25.011-4.875C1248.389,1997.631,1248.42,1997.6,1248.437,1997.564Z" transform="translate(-1222.321 -1974.74)" fill="#fffcdd"/>
      <path id="Trazado_155105" data-name="Trazado 155105" d="M1194.117,2033.673h-7.369c-.822,0-.822,0-.8-.805l8.167.017A2.224,2.224,0,0,1,1194.117,2033.673Z" transform="translate(-1169.238 -2004.812)" fill="#fffcdd"/>
      <path id="Trazado_155106" data-name="Trazado 155106" d="M1294.912,2032.867c.023.805.023.805-.8.805h-7.369a2.224,2.224,0,0,1,0-.789Z" transform="translate(-1254.911 -2004.811)" fill="#fffcdd"/>
      <path id="Trazado_155107" data-name="Trazado 155107" d="M1248.228,1997.934c0,1.567.019,3.134-.008,4.7-.008.454.14.571.572.56q1.674-.04,3.35,0c.432.01.58-.106.573-.56-.026-1.566-.009-3.133-.007-4.7.156.109.088.273.089.411,0,1.756-.009,3.511.005,5.267,0,.356-.081.485-.462.477-1.249-.024-2.5-.011-3.747-.007-.256,0-.464.021-.461-.359.015-1.868,0-3.735.009-5.6C1248.142,1998.058,1248.2,1998,1248.228,1997.934Z" transform="translate(-1222.113 -1975.11)" fill="#fffcdd"/>
      <path id="Trazado_155108" data-name="Trazado 155108" d="M1350.241,1908.471q0,1.282,0,2.564c-.5.124-.759.008-.693-.583a5.6,5.6,0,0,0,0-1.339C1349.466,1908.516,1349.7,1908.354,1350.241,1908.471Z" transform="translate(-1308.321 -1899.018)" fill="#fffcdd"/>
      <path id="Trazado_155110" data-name="Trazado 155110" d="M1362.377,1946.88c0-.392-.013-.785,0-1.177a1.193,1.193,0,0,1,1.206-1.212c.782-.023,1.566-.021,2.348,0a1.194,1.194,0,0,1,1.237,1.188c.04.8.039,1.606,0,2.408a1.212,1.212,0,0,1-1.271,1.217c-.764.017-1.529.02-2.292,0a1.207,1.207,0,0,1-1.232-1.246C1362.365,1947.665,1362.376,1947.272,1362.377,1946.88Z" transform="translate(-1319.24 -1929.659)" fill="#102538"/>
      <path id="Trazado_155111" data-name="Trazado 155111" d="M1362.373,1992.414c0-.373-.01-.747,0-1.12a1.179,1.179,0,0,1,1.22-1.247q1.173-.031,2.347,0a1.179,1.179,0,0,1,1.229,1.188c.038.8.037,1.606,0,2.407a1.2,1.2,0,0,1-1.228,1.2c-.781.034-1.566.035-2.347,0a1.205,1.205,0,0,1-1.224-1.312C1362.365,1993.161,1362.372,1992.788,1362.373,1992.414Z" transform="translate(-1319.238 -1968.392)" fill="#102538"/>
      <path id="Trazado_155112" data-name="Trazado 155112" d="M1124.405,2101.393H1110c-.974,0-1.179-.206-1.179-1.179q0-6.737,0-13.474a3.9,3.9,0,0,1,.006-.449.779.779,0,0,1,1.553-.027,3.406,3.406,0,0,1,.009.5q0,6.035,0,12.071c0,.895.088.982,1,.982h27.456c.746,0,1.125.267,1.129.787s-.361.784-1.119.784Z" transform="translate(-1103.67 -2049.603)" fill="#fffcdd"/>
      <path id="Trazado_155113" data-name="Trazado 155113" d="M1259.174,2106.014c-.54.009-1.081.007-1.62.031-.3.013-.384-.106-.384-.392q.01-5.354,0-10.709c0-.492.2-.768.739-.752.746.02,1.492.012,2.238,0,.5-.007.7.229.7.72-.007,3.57-.012,7.14.007,10.709,0,.5-.257.438-.565.4a1.143,1.143,0,0,1-.182-.854c0-1.891,0-3.781,0-5.671a5.25,5.25,0,0,0-.017-.617c-.026-.213-.071-.435-.337-.437s-.323.221-.372.423a3.042,3.042,0,0,0-.043.727c0,1.871,0,3.743,0,5.615A1.145,1.145,0,0,1,1259.174,2106.014Z" transform="translate(-1229.796 -2056.948)" fill="#fffcdd"/>
      <path id="Trazado_155114" data-name="Trazado 155114" d="M1208.645,2120.705c-.522.008-1.045,0-1.566.03-.318.019-.362-.128-.361-.4q.011-4.1,0-8.194c0-.473.218-.683.682-.678q1.148.009,2.3,0c.477,0,.668.24.668.7,0,2.731-.008,5.463,0,8.194,0,.538-.336.353-.606.35a1.113,1.113,0,0,1-.17-.8c-.005-1.234.008-2.467-.009-3.7,0-.33.094-.838-.408-.821-.443.016-.351.5-.355.821-.015,1.233,0,2.467-.008,3.7A1.111,1.111,0,0,1,1208.645,2120.705Z" transform="translate(-1186.901 -2071.635)" fill="#fffcdd"/>
      <path id="Trazado_155115" data-name="Trazado 155115" d="M1158.034,2138.316c-.559.009-1.118,0-1.676.031-.319.017-.362-.134-.36-.4q.013-2.522,0-5.044a.632.632,0,0,1,.721-.719q1.119,0,2.237,0a.637.637,0,0,1,.72.725c0,1.682-.013,3.363.008,5.044.006.458-.237.418-.532.37-.3-.338-.143-.75-.177-1.129-.022-.241.011-.487-.025-.728-.026-.173-.081-.343-.281-.373-.224-.034-.342.119-.417.3a2.578,2.578,0,0,0-.083.832C1158.147,2137.589,1158.262,2137.975,1158.034,2138.316Z" transform="translate(-1143.779 -2089.247)" fill="#fffcdd"/>
      <path id="Trazado_155116" data-name="Trazado 155116" d="M1270.527,2128.633q0-3.393,0-6.787a2.682,2.682,0,0,1,.01-.448c.057-.338.2-.633.6-.6.384.03.514.292.513.667-.009,2.393-.007,4.786-.009,7.179Z" transform="translate(-1241.15 -2079.567)" fill="#fffcdd"/>
      <path id="Trazado_155117" data-name="Trazado 155117" d="M1219.574,2141.339q0-2.44,0-4.88a.649.649,0,0,1,.32-.662.5.5,0,0,1,.53.028.707.707,0,0,1,.273.69q0,2.412,0,4.823Z" transform="translate(-1197.83 -2092.269)" fill="#fffcdd"/>
      <path id="Trazado_155119" data-name="Trazado 155119" d="M1332.961,2145.229a4.128,4.128,0,0,0,.819.984c.131.1.187.194.02.288-.378.213-.516.9-.893.813-.309-.072-.551-.6-.886-.867-.1-.084,0-.161.076-.214A4.137,4.137,0,0,0,1332.961,2145.229Z" transform="translate(-1293.399 -2100.342)" fill="#fffcdd"/>
      <path id="Trazado_155120" data-name="Trazado 155120" d="M1175.773,2077.123a.943.943,0,0,1,.109.131c.2.421.849.73.775,1.052-.081.351-.587.659-.851,1.071a4.221,4.221,0,0,0-1.041-1.064A5.207,5.207,0,0,0,1175.773,2077.123Z" transform="translate(-1159.735 -2042.438)" fill="#fffcdd"/>
      <path id="Trazado_155121" data-name="Trazado 155121" d="M1201.508,1946.886c0-.373-.009-.747,0-1.12a1.21,1.21,0,0,1,1.267-1.268c.745-.016,1.491-.015,2.236,0a1.222,1.222,0,0,1,1.3,1.251c.031.764.029,1.532,0,2.3a1.238,1.238,0,0,1-1.335,1.272c-.727.011-1.454.014-2.181,0a1.223,1.223,0,0,1-1.287-1.308C1201.5,1947.633,1201.507,1947.259,1201.508,1946.886Z" transform="translate(-1182.469 -1929.669)" fill="#102538"/>
      <path id="Trazado_155122" data-name="Trazado 155122" d="M1298.536,1946.936c0,.392.015.785,0,1.176a1.185,1.185,0,0,1-1.163,1.2c-.819.03-1.641.03-2.46,0a1.188,1.188,0,0,1-1.169-1.2c-.035-.8-.037-1.607,0-2.408a1.21,1.21,0,0,1,1.283-1.2q1.118-.021,2.236,0a1.211,1.211,0,0,1,1.275,1.261c.013.392,0,.784,0,1.176Z" transform="translate(-1260.866 -1929.67)" fill="#102538"/>
      <path id="Trazado_155123" data-name="Trazado 155123" d="M1203.894,1903.736c-.429,0-.858.021-1.285,0a1.146,1.146,0,0,1-1.112-1.116c-.028-.839-.027-1.68,0-2.519a1.15,1.15,0,0,1,1.143-1.153,23.371,23.371,0,0,1,2.457,0,1.2,1.2,0,0,1,1.191,1.241c.03.764.03,1.531,0,2.3a1.222,1.222,0,0,1-1.332,1.264c-.354.007-.708,0-1.062,0Z" transform="translate(-1182.444 -1890.92)" fill="#102538"/>
      <path id="Trazado_155124" data-name="Trazado 155124" d="M1296.155,1903.732c-.391,0-.783.011-1.174,0a1.187,1.187,0,0,1-1.242-1.176c-.04-.8-.036-1.606,0-2.407a1.2,1.2,0,0,1,1.214-1.219c.8-.037,1.6-.04,2.4,0a1.19,1.19,0,0,1,1.182,1.293c.013.746.014,1.494,0,2.24a1.191,1.191,0,0,1-1.26,1.267C1296.9,1903.741,1296.528,1903.732,1296.155,1903.732Z" transform="translate(-1260.863 -1890.91)" fill="#102538"/>
      <path id="Trazado_155125" data-name="Trazado 155125" d="M1250.063,1903.734c-.391,0-.783.012-1.173,0a1.149,1.149,0,0,1-1.213-1.131c-.038-.838-.037-1.68,0-2.518a1.157,1.157,0,0,1,1.2-1.155c.781-.035,1.565-.035,2.346,0a1.192,1.192,0,0,1,1.227,1.254q.039,1.147,0,2.3a1.2,1.2,0,0,1-1.326,1.259c-.354.007-.708,0-1.062,0Z" transform="translate(-1221.7 -1890.912)" fill="#102538"/>
      <path id="Trazado_155126" data-name="Trazado 155126" d="M1250.042,1949.3c-.391,0-.783.016-1.174,0a1.179,1.179,0,0,1-1.193-1.164c-.033-.838-.034-1.68,0-2.519a1.153,1.153,0,0,1,1.166-1.127c.8-.025,1.6-.024,2.4,0a1.165,1.165,0,0,1,1.193,1.161c.035.82.035,1.643,0,2.463a1.19,1.19,0,0,1-1.228,1.189C1250.826,1949.318,1250.434,1949.305,1250.042,1949.3Z" transform="translate(-1221.703 -1929.657)" fill="#102538"/>
      <path id="Trazado_155127" data-name="Trazado 155127" d="M1203.636,1994.909c-.485,0-.97,0-1.455,0a.6.6,0,0,1-.678-.693c.011-.71-.013-1.421.011-2.13a2.086,2.086,0,0,1,4.168-.019c.03.728.007,1.457.012,2.186a.586.586,0,0,1-.659.655C1204.569,1994.916,1204.1,1994.909,1203.636,1994.909Z" transform="translate(-1182.468 -1968.443)" fill="#102538"/>
      <path id="Trazado_155128" data-name="Trazado 155128" d="M1300.032,1994.909c-.448,0-.9,0-1.343,0-.475,0-.731-.2-.721-.709.013-.71-.014-1.421.013-2.13a2.086,2.086,0,0,1,4.166.007c.025.709,0,1.42.012,2.13.009.509-.258.7-.728.7S1300.5,1994.909,1300.032,1994.909Z" transform="translate(-1264.482 -1968.442)" fill="#102538"/>
      <path id="Trazado_155129" data-name="Trazado 155129" d="M1122.3,1945.516c0-2.152.012-4.3-.01-6.456,0-.443.12-.573.566-.569q3.25.033,6.5,0c.441,0,.571.12.569.566q-.024,6.513,0,13.026c0,.444-.123.573-.567.569q-3.25-.032-6.5,0c-.443,0-.572-.122-.567-.567C1122.311,1949.9,1122.3,1947.706,1122.3,1945.516Z" transform="translate(-1115.12 -1924.571)" fill="#fffcdd"/>
      <path id="Trazado_155130" data-name="Trazado 155130" d="M1369.867,1953.326c0-1.3,0-1.3,1.3-1.3,1.272,0,1.272,0,1.272,1.282,0,1.3,0,1.3-1.314,1.3C1369.867,1954.61,1369.867,1954.61,1369.867,1953.326Z" transform="translate(-1325.612 -1936.083)" fill="#fffcdd"/>
      <path id="Trazado_155131" data-name="Trazado 155131" d="M1371.115,2000.154c-1.25,0-1.25,0-1.25-1.253,0-1.321,0-1.321,1.34-1.321,1.233,0,1.233,0,1.233,1.216v.056C1372.438,2000.154,1372.438,2000.154,1371.115,2000.154Z" transform="translate(-1325.611 -1974.809)" fill="#fffcdd"/>
      <path id="Trazado_155132" data-name="Trazado 155132" d="M1271.688,2103.581c.044.418-.046.789-.543.79-.453,0-.566-.364-.57-.747,0-.4.1-.79.582-.79C1271.611,2102.835,1271.734,2103.172,1271.688,2103.581Z" transform="translate(-1241.194 -2064.298)" fill="#fffcdd"/>
      <path id="Trazado_155133" data-name="Trazado 155133" d="M1220.678,2118.609c.017.4-.089.75-.545.756-.493.008-.581-.362-.58-.781,0-.4.091-.749.548-.756C1220.6,2117.822,1220.7,2118.192,1220.678,2118.609Z" transform="translate(-1197.814 -2077.046)" fill="#fffcdd"/>
      <path id="Trazado_155134" data-name="Trazado 155134" d="M1170.7,2139.569c.039.378-.075.725-.53.731-.488.006-.593-.378-.589-.787,0-.385.106-.742.565-.754C1170.668,2138.746,1170.714,2139.137,1170.7,2139.569Z" transform="translate(-1155.326 -2094.841)" fill="#fffcdd"/>
      <path id="Trazado_155135" data-name="Trazado 155135" d="M1209,1953.322c0-1.291,0-1.291,1.3-1.291,1.267,0,1.267,0,1.267,1.286s0,1.293-1.318,1.293C1209,1954.61,1209,1954.61,1209,1953.322Z" transform="translate(-1188.844 -1936.083)" fill="#fffcdd"/>
      <path id="Trazado_155136" data-name="Trazado 155136" d="M1303.84,1953.311c0,1.3,0,1.3-1.3,1.3-1.274,0-1.274,0-1.274-1.282s0-1.3,1.312-1.3C1303.84,1952.031,1303.84,1952.031,1303.84,1953.311Z" transform="translate(-1267.287 -1936.083)" fill="#fffcdd"/>
      <path id="Trazado_155137" data-name="Trazado 155137" d="M1210.251,1909.057c-1.249,0-1.249,0-1.249-1.243,0-1.333,0-1.333,1.339-1.333,1.233,0,1.233,0,1.233,1.228C1211.574,1909.057,1211.574,1909.057,1210.251,1909.057Z" transform="translate(-1188.844 -1897.356)" fill="#fffcdd"/>
      <path id="Trazado_155138" data-name="Trazado 155138" d="M1302.565,1909.058c-1.3,0-1.3,0-1.3-1.317,0-1.259,0-1.259,1.258-1.259,1.316,0,1.316,0,1.316,1.3C1303.84,1909.058,1303.84,1909.058,1302.565,1909.058Z" transform="translate(-1267.287 -1897.357)" fill="#fffcdd"/>
      <path id="Trazado_155139" data-name="Trazado 155139" d="M1256.446,1909.058c-1.275,0-1.275,0-1.275-1.274,0-1.3,0-1.3,1.316-1.3,1.247,0,1.247,0,1.247,1.26C1257.734,1909.058,1257.734,1909.058,1256.446,1909.058Z" transform="translate(-1228.097 -1897.358)" fill="#fffcdd"/>
      <path id="Trazado_155140" data-name="Trazado 155140" d="M1257.735,1953.341c0,1.27,0,1.27-1.289,1.27s-1.274,0-1.274-1.284,0-1.3,1.316-1.3C1257.735,1952.032,1257.735,1952.032,1257.735,1953.341Z" transform="translate(-1228.098 -1936.084)" fill="#fffcdd"/>
      <path id="Trazado_155141" data-name="Trazado 155141" d="M1208.973,1999.155c0-.224-.018-.449,0-.67a.967.967,0,0,1,1.921-.022c.007.055.008.111.011.167.08,1.625.03,1.667-1.6,1.562-.273-.018-.36-.109-.344-.366.014-.223,0-.447,0-.671Z" transform="translate(-1188.807 -1974.839)" fill="#fffcdd"/>
      <path id="Trazado_155142" data-name="Trazado 155142" d="M1307.382,1999.172c.007,1.007.007,1.007-1.025,1.007-.914,0-.915,0-.914-.906,0-.261-.011-.523.013-.782a.965.965,0,0,1,1.923.01C1307.4,1998.724,1307.382,1998.949,1307.382,1999.172Z" transform="translate(-1270.837 -1974.834)" fill="#fffcdd"/>
      <path id="Trazado_155143" data-name="Trazado 155143" d="M1138.42,1946.89c0,.392.011.785,0,1.176a1.206,1.206,0,0,1-1.236,1.243c-.764.021-1.528.018-2.292,0a1.2,1.2,0,0,1-1.26-1.166,22.97,22.97,0,0,1,0-2.519,1.179,1.179,0,0,1,1.232-1.13q1.145-.027,2.292,0a1.21,1.21,0,0,1,1.261,1.275C1138.431,1946.143,1138.421,1946.516,1138.42,1946.89Z" transform="translate(-1124.733 -1929.665)" fill="#102538"/>
      <path id="Trazado_155144" data-name="Trazado 155144" d="M1136.006,1990.073c.41,0,.821-.016,1.229,0a1.161,1.161,0,0,1,1.175,1.173c.023.8.021,1.605,0,2.408a1.133,1.133,0,0,1-1.091,1.2,22.493,22.493,0,0,1-2.568.007,1.159,1.159,0,0,1-1.132-1.172c-.037-.8-.037-1.606,0-2.407a1.2,1.2,0,0,1,1.268-1.21c.372-.013.745,0,1.118,0Z" transform="translate(-1124.732 -1968.42)" fill="#102538"/>
      <path id="Trazado_155145" data-name="Trazado 155145" d="M1142.458,1952.031c1.275,0,1.275,0,1.275,1.265,0,1.314,0,1.314-1.285,1.314s-1.287,0-1.287-1.268C1141.161,1952.031,1141.161,1952.031,1142.458,1952.031Z" transform="translate(-1131.164 -1936.083)" fill="#fffcdd"/>
      <path id="Trazado_155146" data-name="Trazado 155146" d="M1143.732,1998.864c0,1.29,0,1.29-1.269,1.29-1.3,0-1.3,0-1.3-1.322,0-1.252,0-1.252,1.252-1.252h.056C1143.732,1997.58,1143.732,1997.58,1143.732,1998.864Z" transform="translate(-1131.164 -1974.809)" fill="#fffcdd"/>
    </g>
  </g>
</svg>
