<svg id="Grupo_128211" data-name="Grupo 128211" xmlns="http://www.w3.org/2000/svg" width="56.711" height="56.701" viewBox="0 0 56.711 56.701">
  <path id="Trazado_155147" data-name="Trazado 155147" d="M910.683,2129a1.4,1.4,0,0,1-.6-1.305c.026-2.1.018-4.2.008-6.3a3.484,3.484,0,0,1,1.808-3.248c.3-.176.227-.354.181-.589a3.617,3.617,0,0,1,1.339-3.789,3.558,3.558,0,0,1,4.039-.406,3.4,3.4,0,0,1,2.029,3.5,1.607,1.607,0,0,0,.776,1.78,3.384,3.384,0,0,1,1.157,2.058v7.637a.829.829,0,0,1-.664.664Z" transform="translate(-864.741 -2072.332)" fill="#102538"/>
  <path id="Trazado_155148" data-name="Trazado 155148" d="M598.551,2129.2a1.266,1.266,0,0,1-.674-1.271c.025-2.1.016-4.2.008-6.305a3.485,3.485,0,0,1,1.842-3.287c.339-.189.189-.378.146-.586a3.773,3.773,0,0,1,7.364-1.649,3.354,3.354,0,0,1-.023,1.7.42.42,0,0,0,.232.568,3.447,3.447,0,0,1,1.765,3.111c.005,2.194-.01,4.388.011,6.582a1.311,1.311,0,0,1-.6,1.141Z" transform="translate(-597.877 -2072.53)" fill="#102538"/>
  <path id="Trazado_155149" data-name="Trazado 155149" d="M806.618,2157.012a1.239,1.239,0,0,1-.668-1.276c.036-.569,0-1.143.01-1.715a3.506,3.506,0,0,1,1.765-3.118c.228-.139.321-.23.249-.543a3.748,3.748,0,0,1,1.571-4.055,3.824,3.824,0,0,1,4.218.034,3.728,3.728,0,0,1,1.515,4.026.4.4,0,0,0,.226.525,3.475,3.475,0,0,1,1.786,3.157c0,.553-.024,1.108.008,1.659a1.336,1.336,0,0,1-.608,1.3Z" transform="translate(-775.728 -2100.344)" fill="#102538"/>
  <path id="Trazado_155150" data-name="Trazado 155150" d="M702.561,2157.014a1.339,1.339,0,0,1-.609-1.3c.034-.607,0-1.217.016-1.825a3.418,3.418,0,0,1,1.73-2.963.461.461,0,0,0,.264-.6,3.723,3.723,0,0,1,1.529-3.971,3.825,3.825,0,0,1,4.218-.039,3.721,3.721,0,0,1,1.6,3.892.587.587,0,0,0,.308.773,3.409,3.409,0,0,1,1.672,2.942c.021.608-.023,1.219.013,1.825a1.246,1.246,0,0,1-.668,1.276Z" transform="translate(-686.834 -2100.347)" fill="#102538"/>
  <path id="Trazado_155151" data-name="Trazado 155151" d="M983.571,2219.748a2.146,2.146,0,0,0,.664-.664Q984.422,2219.936,983.571,2219.748Z" transform="translate(-927.557 -2163.081)" fill="#e6e6e6"/>
  <path id="Trazado_155152" data-name="Trazado 155152" d="M656.361,1857.963c.3-7.677,3.658-13.53,10.4-17.359a.988.988,0,0,0,.49-.609,9.415,9.415,0,0,1,17.917-.033.966.966,0,0,0,.471.62,19.47,19.47,0,0,1,10.238,14.828,19.838,19.838,0,1,1-39.515,2.553Z" transform="translate(-647.867 -1833.46)" fill="#102538"/>
  <path id="Trazado_155153" data-name="Trazado 155153" d="M926.867,2138.353c-1.106,0-2.212-.012-3.318.007-.325.006-.443-.056-.439-.416.02-1.806,0-3.612.014-5.419a1.636,1.636,0,0,1,1.469-1.71c1.14-.15,1.437-.806.787-1.741a1.855,1.855,0,0,1-.052-2.169,1.892,1.892,0,0,1,1.922-.8,1.922,1.922,0,0,1,1.5,1.58,1.858,1.858,0,0,1-.4,1.446c-.611.832-.3,1.556.721,1.68a1.669,1.669,0,0,1,1.592,1.775c.008,1.787-.009,3.575.012,5.363,0,.362-.117.42-.439.414C929.116,2138.342,927.991,2138.353,926.867,2138.353Z" transform="translate(-875.877 -2083.571)" fill="#fffcdd"/>
  <path id="Trazado_155154" data-name="Trazado 155154" d="M614.655,2138.386c-1.124,0-2.249-.01-3.373.006-.305,0-.406-.072-.4-.392.015-1.806,0-3.612.01-5.418a1.661,1.661,0,0,1,1.568-1.739c1.028-.124,1.35-.833.756-1.667a1.845,1.845,0,0,1,.2-2.584,1.878,1.878,0,0,1,2.707,2.588c-.568.8-.25,1.54.713,1.661a1.646,1.646,0,0,1,1.6,1.809c.008,1.77-.011,3.539.013,5.308.005.392-.142.442-.474.437C616.867,2138.375,615.761,2138.386,614.655,2138.386Z" transform="translate(-608.99 -2083.604)" fill="#fffcdd"/>
  <path id="Trazado_155155" data-name="Trazado 155155" d="M822.721,2166.22c-1.125,0-2.249-.011-3.374.007-.312.005-.433-.083-.4-.4a5.97,5.97,0,0,0,0-.608,1.715,1.715,0,0,1,1.6-1.841c1.031-.144,1.317-.817.71-1.67a1.849,1.849,0,0,1,.236-2.583,1.878,1.878,0,0,1,2.7,2.592c-.581.814-.288,1.526.683,1.657a1.7,1.7,0,0,1,1.626,1.866c.014.978.014.978-.967.978Z" transform="translate(-786.839 -2111.438)" fill="#fffcdd"/>
  <path id="Trazado_155156" data-name="Trazado 155156" d="M718.721,2166.232c-1.106,0-2.213-.015-3.318.009-.345.007-.464-.091-.423-.43.026-.218,0-.442.006-.663a1.681,1.681,0,0,1,1.565-1.754c1.034-.151,1.335-.824.742-1.66a1.866,1.866,0,0,1,.217-2.586,1.9,1.9,0,0,1,2.52.025,1.859,1.859,0,0,1,.2,2.547c-.609.855-.326,1.528.7,1.671a1.725,1.725,0,0,1,1.606,1.892c.007.949.007.949-.942.949Z" transform="translate(-697.966 -2111.45)" fill="#fffcdd"/>
  <path id="Trazado_155157" data-name="Trazado 155157" d="M678,1898.1a9.435,9.435,0,0,0,18.757,1.52,7.918,7.918,0,0,0,.1-1.154c0-.35.075-.433.391-.22a18.479,18.479,0,0,1,2.232,1.718,17.735,17.735,0,0,1,5.9,12.784c.019.445-.113.54-.539.536q-4.205-.029-8.411,0c-.377,0-.512-.075-.493-.477.035-.737.018-1.475.008-2.213s-.353-1.09-1.085-1.091q-7.416-.007-14.831,0a.958.958,0,0,0-1.1,1.079c-.011.775-.014,1.55,0,2.324.006.283-.068.377-.366.376q-4.344-.016-8.688,0c-.267,0-.4-.035-.384-.352a17.578,17.578,0,0,1,8.362-14.8A.729.729,0,0,1,678,1898.1Z" transform="translate(-659.1 -1888.715)" fill="#fffcdd"/>
  <path id="Trazado_155158" data-name="Trazado 155158" d="M747.4,1998.82c0-2.932.007-5.864-.009-8.8,0-.38.086-.495.481-.493q6.14.023,12.28,0c.371,0,.5.074.5.476q-.021,8.823,0,17.646c0,.331-.092.5-.412.593-.69.193-1.377.4-2.056.623-.35.117-.4-.012-.393-.321.011-1.53.007-3.061,0-4.592,0-.882-.32-1.21-1.191-1.212q-2.572-.007-5.145,0c-.885,0-1.2.321-1.206,1.2,0,1.53-.012,3.061.007,4.591,0,.373-.089.44-.433.324-.661-.223-1.33-.423-2-.61-.343-.1-.432-.283-.43-.633C747.411,2004.684,747.4,2001.752,747.4,1998.82Z" transform="translate(-725.68 -1966.866)" fill="#fffcdd"/>
  <path id="Trazado_155159" data-name="Trazado 155159" d="M741.093,1853.982a7.545,7.545,0,1,1,7.525,7.583A7.553,7.553,0,0,1,741.093,1853.982Z" transform="translate(-720.294 -1844.557)" fill="#fffcdd"/>
  <path id="Trazado_155160" data-name="Trazado 155160" d="M679.6,2029.406a18.13,18.13,0,0,1-8.493-10.185,19.985,19.985,0,0,1-.758-3.274c-.053-.328.011-.438.378-.436,2.838.017,5.676.013,8.514,0,.288,0,.414.041.413.378q-.019,6.662-.01,13.324A1.336,1.336,0,0,1,679.6,2029.406Z" transform="translate(-659.808 -1989.072)" fill="#fffcdd"/>
  <path id="Trazado_155161" data-name="Trazado 155161" d="M851.581,2029.307v-.468c0-4.276,0-8.552-.009-12.828,0-.388.056-.528.5-.524,2.8.025,5.6.021,8.4,0,.39,0,.454.119.4.464a17.917,17.917,0,0,1-8.9,13.217A.494.494,0,0,1,851.581,2029.307Z" transform="translate(-814.729 -1989.052)" fill="#fffcdd"/>
  <path id="Trazado_155162" data-name="Trazado 155162" d="M783.8,2095.841c0,.645-.01,1.289.005,1.933.006.245-.042.345-.319.371a17.2,17.2,0,0,1-3.141,0c-.275-.025-.323-.122-.321-.368q.017-1.961,0-3.921c0-.288.08-.378.372-.373q1.518.025,3.037,0c.289,0,.383.08.374.372C783.784,2094.515,783.8,2095.178,783.8,2095.841Z" transform="translate(-753.568 -2055.719)" fill="#fffcdd"/>
  <path id="Trazado_155163" data-name="Trazado 155163" d="M937.054,2168.765c0-.479-.018-.958.006-1.435.016-.324-.062-.5-.419-.432-.463.091-.527-.142-.522-.543.019-1.346.005-1.346,1.326-1.346.681,0,1.362.021,2.042-.008.354-.016.453.107.421.438a3.521,3.521,0,0,0,0,.771c.063.511-.051.813-.653.691-.3-.059-.317.142-.315.37.006.993-.011,1.987.01,2.98.007.33-.068.435-.42.437-1.477.008-1.477.022-1.477-1.426Z" transform="translate(-886.997 -2116.851)" fill="#102538"/>
  <path id="Trazado_155164" data-name="Trazado 155164" d="M625.514,2164.733c.478,0,.958.019,1.435-.007.324-.018.486.055.44.416a3.792,3.792,0,0,0,0,.661c.025.486.105.993-.682.825-.294-.063-.243.2-.244.37,0,.994-.017,1.988.007,2.98.008.348-.1.458-.438.426-.47-.046-1.076.195-1.378-.1-.279-.27-.069-.872-.079-1.327-.014-.625-.026-1.252,0-1.876.019-.386-.1-.551-.488-.484-.375.065-.533-.068-.487-.468.053-.452-.187-1.042.09-1.329s.871-.061,1.325-.09C625.182,2164.724,625.348,2164.733,625.514,2164.733Z" transform="translate(-619.827 -2116.574)" fill="#102538"/>
  <path id="Trazado_155165" data-name="Trazado 155165" d="M788.4,2003.528c0,.942,0,.942-.952.942s-.948,0-.948-.946,0-.942.952-.942S788.4,2002.582,788.4,2003.528Z" transform="translate(-759.11 -1978.021)" fill="#102538"/>
  <path id="Trazado_155166" data-name="Trazado 155166" d="M787.446,2030.441c-.941,0-.941,0-.941-.953,0-.934,0-.934.958-.934.941,0,.941,0,.941.951C788.4,2030.441,788.4,2030.441,787.446,2030.441Z" transform="translate(-759.111 -2000.221)" fill="#102538"/>
  <path id="Trazado_155167" data-name="Trazado 155167" d="M786.5,2055.428c0-.908,0-.908.932-.908.967,0,.967,0,.967.983,0,.906,0,.906-.932.906C786.5,2056.409,786.5,2056.409,786.5,2055.428Z" transform="translate(-759.11 -2022.416)" fill="#102538"/>
  <path id="Trazado_155168" data-name="Trazado 155168" d="M762.351,2029.529c0,.913,0,.913-.917.913-.975,0-.975,0-.975-.974,0-.912,0-.912.926-.912C762.351,2028.556,762.351,2028.556,762.351,2029.529Z" transform="translate(-736.847 -2000.222)" fill="#102538"/>
  <path id="Trazado_155169" data-name="Trazado 155169" d="M813.56,2028.556c.935,0,.935,0,.935.958,0,.928,0,.928-.911.928-.981,0-.981,0-.981-.959C812.6,2028.556,812.6,2028.556,813.56,2028.556Z" transform="translate(-781.419 -2000.222)" fill="#102538"/>
  <path id="Trazado_155170" data-name="Trazado 155170" d="M762.35,2055.512c0,.9,0,.9-.873.9-1.019,0-1.019,0-1.019-1.039,0-.848,0-.848.826-.848h.055C762.35,2054.523,762.35,2054.523,762.35,2055.512Z" transform="translate(-736.847 -2022.418)" fill="#102538"/>
  <path id="Trazado_155171" data-name="Trazado 155171" d="M812.6,2055.46c0-.937,0-.937.953-.937s.939,0,.939.955c0,.932,0,.932-.905.932h-.055C812.6,2056.411,812.6,2056.411,812.6,2055.46Z" transform="translate(-781.418 -2022.418)" fill="#102538"/>
  <path id="Trazado_155172" data-name="Trazado 155172" d="M813.511,2004.472c-.908,0-.908,0-.908-.923,0-.964,0-.964.975-.964.917,0,.917,0,.917.922C814.5,2004.472,814.5,2004.472,813.511,2004.472Z" transform="translate(-781.419 -1978.023)" fill="#102538"/>
  <path id="Trazado_155173" data-name="Trazado 155173" d="M761.415,2004.472c-.956,0-.956,0-.956-.938s0-.949.945-.949.947,0,.947.937S762.351,2004.472,761.415,2004.472Z" transform="translate(-736.847 -1978.023)" fill="#102538"/>
  <path id="Trazado_155174" data-name="Trazado 155174" d="M776.423,1859.28a1.772,1.772,0,0,0,.331,0c.508-.1.663.133.584.6-.064.376.1.568.446.754a2.667,2.667,0,0,1,1.394,1.951c.064.341.032.525-.378.475a5.527,5.527,0,0,0-.718,0c-.393,0-.76.085-.928-.484-.126-.426-.6-.521-1.033-.4a.891.891,0,0,0-.667.855.737.737,0,0,0,.6.807c.5.174,1.012.337,1.5.542a2.462,2.462,0,0,1,1.659,2.324,2.646,2.646,0,0,1-1.37,2.533c-.389.223-.585.451-.506.888s-.115.567-.52.508a3.065,3.065,0,0,0-.442,0c-.852,0-.866,0-.926-.864-.018-.263-.171-.324-.353-.422a2.779,2.779,0,0,1-1.511-2.115c-.046-.291.012-.414.325-.392a5.12,5.12,0,0,0,.829,0c.413-.038.7.013.87.491a.78.78,0,0,0,.973.439.911.911,0,0,0,.74-.855c.053-.478-.224-.707-.621-.85-.5-.18-1.011-.338-1.5-.541a2.444,2.444,0,0,1-1.641-2.391,2.7,2.7,0,0,1,1.493-2.523c.278-.152.451-.293.389-.621-.11-.581.137-.8.705-.7A1.628,1.628,0,0,0,776.423,1859.28Z" transform="translate(-748.045 -1855.508)" fill="#102538"/>
  <path id="Trazado_155175" data-name="Trazado 155175" d="M709.474,2028.557c.89,0,.89,0,.89.872,0,1.014,0,1.014-1.023,1.014-.864,0-.864,0-.864-.845v-.055C708.477,2028.557,708.477,2028.557,709.474,2028.557Z" transform="translate(-692.415 -2000.223)" fill="#102538"/>
  <path id="Trazado_155176" data-name="Trazado 155176" d="M709.443,2054.525c.919,0,.919,0,.919.914,0,.973,0,.973-.966.973-.921,0-.921,0-.921-.91C708.476,2054.525,708.476,2054.525,709.443,2054.525Z" transform="translate(-692.414 -2022.42)" fill="#102538"/>
  <path id="Trazado_155177" data-name="Trazado 155177" d="M683.507,2028.558c.892,0,.892,0,.892.87,0,1.016,0,1.016-1.021,1.016-.864,0-.864,0-.864-.843v-.055C682.513,2028.558,682.513,2028.558,683.507,2028.558Z" transform="translate(-670.221 -2000.224)" fill="#102538"/>
  <path id="Trazado_155178" data-name="Trazado 155178" d="M866.51,2029.522c0,.921,0,.921-.9.921-.988,0-.988,0-.988-.993,0-.893,0-.893.869-.893h.055C866.51,2028.557,866.51,2028.557,866.51,2029.522Z" transform="translate(-825.885 -2000.223)" fill="#102538"/>
  <path id="Trazado_155179" data-name="Trazado 155179" d="M891.535,2030.443c-.941,0-.941,0-.941-.931,0-.955,0-.955.971-.955.914,0,.914,0,.914.9v.055C892.479,2030.443,892.479,2030.443,891.535,2030.443Z" transform="translate(-848.083 -2000.224)" fill="#102538"/>
  <path id="Trazado_155180" data-name="Trazado 155180" d="M864.623,2055.413c0-.888,0-.888.89-.888,1,0,1,0,1,1,0,.884,0,.884-.892.884C864.623,2056.412,864.623,2056.412,864.623,2055.413Z" transform="translate(-825.884 -2022.42)" fill="#102538"/>
</svg>
