<svg id="Grupo_128212" data-name="Grupo 128212" xmlns="http://www.w3.org/2000/svg" width="56.712" height="51.506" viewBox="0 0 56.712 51.506">
  <path id="Trazado_155181" data-name="Trazado 155181" d="M1687.818,2047.636a4.121,4.121,0,0,1-1.789,2.082c-2.241,1.525-4.456,3.089-6.678,4.642a.864.864,0,0,1-1.073.071.8.8,0,0,1-.319-.881,1.017,1.017,0,0,1,.523-.612q3.405-2.371,6.809-4.745c.106-.074.213-.147.317-.223a.975.975,0,0,0-.862-1.748c-1.111.329-2.219.673-3.328,1.009-6.781,2.052-13.543,4.164-20.362,6.088a4.5,4.5,0,0,0-2.327,1.514,12.663,12.663,0,0,1-.822.973.819.819,0,0,1-1.259-1.035,7.233,7.233,0,0,1,3.887-3.035c2.144-.6,4.278-1.236,6.416-1.86.7-.2.93-.469.849-.946s-.4-.645-1.126-.613c-1.807.079-3.613.159-5.423.132a53.739,53.739,0,0,1-5.617-.515,10.561,10.561,0,0,0-8.307,2.4c-1.734,1.437-3.384,2.976-5.075,4.464a.631.631,0,0,0-.255.516q.014,4.66.012,9.319c0,.011.024.022.086.078l1.938-1.3a10.088,10.088,0,0,1,6.705-1.772c1.428.133,2.842.426,4.261.656a19.838,19.838,0,0,0,15.051-3.489q2.562-1.791,5.128-3.576a4.41,4.41,0,0,1,.414-.275.771.771,0,0,1,1.078.225.763.763,0,0,1-.114,1.1,5.653,5.653,0,0,1-.716.519c-2.2,1.492-4.289,3.141-6.582,4.483a21.117,21.117,0,0,1-14.262,2.7c-1.275-.2-2.546-.417-3.822-.611a8.425,8.425,0,0,0-5.972,1.277c-.979.624-1.927,1.3-2.9,1.93a.62.62,0,0,0-.31.584,1.744,1.744,0,0,1-1.939,1.9q-3.488.007-6.977,0a1.765,1.765,0,0,1-1.962-1.943q0-4.688,0-9.375c0-.074,0-.148,0-.222a.845.845,0,0,1,.831-.86.828.828,0,0,1,.823.865c.015,1.072.005,2.145.005,3.217,0,2.052.009,4.105-.008,6.158,0,.362.053.512.469.508,2.215-.022,4.43-.018,6.644,0,.353,0,.467-.081.466-.454q-.019-7.211,0-14.423c0-.35-.072-.473-.45-.469q-3.35.028-6.7,0c-.347,0-.444.1-.427.435.028.572.019,1.146,0,1.719a.828.828,0,1,1-1.653,0c-.013-.7-.019-1.406,0-2.108a1.711,1.711,0,0,1,1.7-1.7q3.738-.024,7.475,0a1.7,1.7,0,0,1,1.7,1.635c.013.2,0,.4,0,.632.254,0,.363-.2.5-.319,1.335-1.166,2.617-2.4,4.007-3.5a12.294,12.294,0,0,1,9.828-2.527,47.709,47.709,0,0,0,9.551.355,5.261,5.261,0,0,1,1.816.047,2.267,2.267,0,0,1,1.734,1.939c.059.417.18.406.518.3q7.073-2.165,14.154-4.3a2.67,2.67,0,0,1,3.445,1.256c.11.225.181.469.27.7Z" transform="translate(-1631.106 -2017.56)" fill="#102538"/>
  <path id="Trazado_155182" data-name="Trazado 155182" d="M1677.544,1885.125a13.637,13.637,0,0,1-2.906,1.032,10.558,10.558,0,1,1,7.722-14.1.721.721,0,0,0,.823.57c1.254-.033,2.51-.025,3.764,0,.348.006.428-.1.424-.432-.019-1.5-.008-2.995-.008-4.493,0-1.068.221-1.285,1.309-1.286.96,0,1.92-.021,2.878.01.4.013.492-.116.479-.495-.029-.812-.015-1.627-.007-2.44.006-.652.316-1.016.84-1.014s.814.35.818,1.021c.005.813.023,1.628-.008,2.44-.015.4.123.5.5.486,1.033-.023,2.066-.015,3.1-.005.8.007,1.063.273,1.067,1.067q.008,1.553,0,3.106c0,.659-.309,1.011-.841,1-.505-.011-.806-.36-.816-.983-.011-.7-.022-1.406.005-2.107.014-.355-.114-.429-.443-.427q-3.377.02-6.754,0c-.341,0-.476.062-.475.451q.021,7.876,0,15.752c0,.286.033.438.379.426.756-.025,1.513-.023,2.27,0,.308.009.374-.107.358-.383a8.2,8.2,0,0,1,0-1.053.811.811,0,0,1,.853-.827c.481.01.77.325.8.871,0,.018,0,.037,0,.055.014.422-.134,1,.083,1.226.284.3.868.087,1.322.1.512.013,1.186.171,1.493-.088s.094-.97.1-1.48c.009-2.9,0-5.805.006-8.708a2.787,2.787,0,0,1,.042-.6.813.813,0,0,1,1.6.09,3.533,3.533,0,0,1,.012.388q0,5.464,0,10.926c0,.913-.233,1.147-1.138,1.147h-18.324C1677.787,1886.361,1677.644,1886.232,1677.544,1885.125Z" transform="translate(-1657.436 -1862.478)" fill="#102538"/>
  <path id="Trazado_155183" data-name="Trazado 155183" d="M1918.779,1937.37c-.587,0-1.19.006-1.792,0a2.067,2.067,0,0,1-2.148-2.119q-.032-2.771,0-5.543a2.039,2.039,0,0,1,2.143-2.112q4.592-.018,9.184,0a2.046,2.046,0,0,1,2.14,2.173q.019,2.716,0,5.432a2.082,2.082,0,0,1-2.212,2.17c-.608,0-1.215,0-1.9,0l.955,2.723c.079.226.173.448.234.679a.785.785,0,0,1-.738,1.047q-3.125.029-6.251,0c-.6-.007-.9-.542-.691-1.165.316-.942.663-1.874.992-2.812A.648.648,0,0,0,1918.779,1937.37Z" transform="translate(-1872.832 -1917.949)" fill="#102538"/>
  <path id="Trazado_155184" data-name="Trazado 155184" d="M1672.487,2170.948a4.872,4.872,0,0,1,0,.5.813.813,0,0,1-1.585.157,2.614,2.614,0,0,1,0-1.361.813.813,0,0,1,1.585.157A5.46,5.46,0,0,1,1672.487,2170.948Z" transform="translate(-1664.932 -2124.2)" fill="#010101"/>
  <path id="Trazado_155185" data-name="Trazado 155185" d="M1866.443,1909.98c0,.81-.262,1.176-.834,1.169s-.827-.393-.828-1.193.27-1.19.823-1.2C1866.187,1908.748,1866.444,1909.123,1866.443,1909.98Z" transform="translate(-1830.196 -1901.908)" fill="#102538"/>
  <path id="Trazado_155186" data-name="Trazado 155186" d="M1866.332,1931.871a.952.952,0,0,1-.348.93.843.843,0,0,1-1.1-.141,1.891,1.891,0,0,1,.008-1.835.845.845,0,0,1,1.1-.124C1866.267,1930.9,1866.336,1931.123,1866.332,1931.871Z" transform="translate(-1830.086 -1920.477)" fill="#102538"/>
  <path id="Trazado_155187" data-name="Trazado 155187" d="M1851.061,1975.194a1.605,1.605,0,0,1-.152.967.779.779,0,0,1-.865.344.71.71,0,0,1-.613-.626,5.536,5.536,0,0,1-.022-.939.76.76,0,0,1,.749-.8.789.789,0,0,1,.883.724A1.88,1.88,0,0,1,1851.061,1975.194Z" transform="translate(-1817.091 -1957.609)" fill="#102538"/>
  <path id="Trazado_155188" data-name="Trazado 155188" d="M1866.259,1975.361a3.479,3.479,0,0,1,0,.443.753.753,0,0,1-.725.708.731.731,0,0,1-.833-.5,2.069,2.069,0,0,1,.008-1.412.734.734,0,0,1,.849-.47.747.747,0,0,1,.695.675,3.6,3.6,0,0,1,0,.553Z" transform="translate(-1830.024 -1957.601)" fill="#102538"/>
  <path id="Trazado_155189" data-name="Trazado 155189" d="M1880.345,1975.206a2.942,2.942,0,0,1,0-.443.821.821,0,0,1,1.068-.676c.663.234.579.811.585,1.349,0,.47-.127.843-.621.981a.805.805,0,0,1-1.028-.657,3.5,3.5,0,0,1,0-.554Z" transform="translate(-1843.45 -1957.53)" fill="#102538"/>
  <path id="Trazado_155190" data-name="Trazado 155190" d="M1849.419,1909.937a1.505,1.505,0,0,1,.077-.707.776.776,0,0,1,.816-.449.744.744,0,0,1,.71.593,2.612,2.612,0,0,1,.021,1.1.816.816,0,0,1-1.621-.094C1849.409,1910.233,1849.419,1910.084,1849.419,1909.937Z" transform="translate(-1817.103 -1901.924)" fill="#102538"/>
  <path id="Trazado_155191" data-name="Trazado 155191" d="M1866.285,1953.516a3.761,3.761,0,0,1,0,.553.737.737,0,0,1-.695.673.746.746,0,0,1-.87-.52,2.216,2.216,0,0,1-.024-1.256.742.742,0,0,1,.869-.6.753.753,0,0,1,.73.758c.011.128,0,.258,0,.388Z" transform="translate(-1830.053 -1939.06)" fill="#102538"/>
  <path id="Trazado_155192" data-name="Trazado 155192" d="M1851.065,1931.82a3.311,3.311,0,0,1-.091.583.757.757,0,0,1-.909.536c-.531-.073-.695-.427-.687-1.365,0-.49.124-.894.667-.992a.748.748,0,0,1,.938.563A4.094,4.094,0,0,1,1851.065,1931.82Z" transform="translate(-1817.073 -1920.487)" fill="#102538"/>
  <path id="Trazado_155193" data-name="Trazado 155193" d="M1849.363,1953.555a4.541,4.541,0,0,1,.026-.5.742.742,0,0,1,.74-.687.731.731,0,0,1,.849.617,3.651,3.651,0,0,1,.034.99.819.819,0,0,1-1.638-.036c-.01-.128,0-.258,0-.387Z" transform="translate(-1817.06 -1939.064)" fill="#102538"/>
  <path id="Trazado_155194" data-name="Trazado 155194" d="M1881.947,1953.594a1.553,1.553,0,0,1-.083.674.785.785,0,0,1-.858.464.767.767,0,0,1-.708-.73,4.889,4.889,0,0,1-.009-.775.83.83,0,1,1,1.657,0C1881.952,1953.338,1881.947,1953.45,1881.947,1953.594Z" transform="translate(-1843.399 -1939.05)" fill="#102538"/>
  <path id="Trazado_155195" data-name="Trazado 155195" d="M1880.327,1909.948a2.476,2.476,0,0,1,0-.443.777.777,0,0,1,.786-.712.763.763,0,0,1,.846.7,3.2,3.2,0,0,1,0,.994.761.761,0,0,1-.859.684.774.774,0,0,1-.77-.728A3.11,3.11,0,0,1,1880.327,1909.948Z" transform="translate(-1843.433 -1901.938)" fill="#102538"/>
  <path id="Trazado_155196" data-name="Trazado 155196" d="M1881.937,1931.831a1.538,1.538,0,0,1-.065.611.791.791,0,0,1-.89.5.757.757,0,0,1-.688-.687,4.31,4.31,0,0,1-.014-.83.828.828,0,1,1,1.655-.025C1881.945,1931.527,1881.937,1931.657,1881.937,1931.831Z" transform="translate(-1843.391 -1920.485)" fill="#102538"/>
  <path id="Trazado_155197" data-name="Trazado 155197" d="M1690.871,1901.419a8.872,8.872,0,1,1-8.842-8.9A8.861,8.861,0,0,1,1690.871,1901.419Z" transform="translate(-1666.908 -1888.073)" fill="#fffcdd"/>
  <path id="Trazado_155198" data-name="Trazado 155198" d="M1786.45,1947.406c0,1.571-.015,3.142.01,4.713.006.4-.114.491-.492.476-.792-.03-1.586-.021-2.379,0-.28.006-.4-.057-.375-.361a8.634,8.634,0,0,0,0-1.053.827.827,0,1,0-1.653,0,8.862,8.862,0,0,0,0,1.053c.023.306-.1.366-.377.36-.775-.017-1.55,0-2.324-.013-.177,0-.461.136-.515-.13a.733.733,0,0,1,.192-.8,9.97,9.97,0,0,0,2.1-2.487,10.409,10.409,0,0,0,1.46-6.472c-.039-.424.053-.536.48-.525,1.125.031,2.251.033,3.376,0,.436-.014.513.132.507.531C1786.437,1944.263,1786.45,1945.834,1786.45,1947.406Z" transform="translate(-1756.522 -1930.367)" fill="#fffcdd"/>
  <path id="Trazado_155199" data-name="Trazado 155199" d="M1931.186,1945.27c-1.475,0-2.95-.014-4.424.007-.5.007-.694-.186-.69-.683q.021-2.548,0-5.1c0-.5.177-.688.683-.686q4.4.022,8.793,0c.5,0,.695.172.69.678q-.026,2.549,0,5.1c0,.493-.174.7-.682.69C1934.1,1945.256,1932.643,1945.27,1931.186,1945.27Z" transform="translate(-1882.415 -1927.513)" fill="#fffcdd"/>
  <path id="Trazado_155200" data-name="Trazado 155200" d="M1947.332,1996.207c.324-.91.633-1.716.894-2.538.1-.314.314-.294.513-.251.484.1,1.138-.324,1.44.245a17.512,17.512,0,0,1,.827,2.222c.084.23.047.33-.228.328C1949.655,1996.2,1948.531,1996.207,1947.332,1996.207Z" transform="translate(-1900.529 -1973.988)" fill="#fffcdd"/>
  <path id="Trazado_155201" data-name="Trazado 155201" d="M1714.319,1919.932c0-.973-.011-1.932.005-2.891.007-.4-.333-.4-.547-.521a2.567,2.567,0,0,1-.756-4.034,1.718,1.718,0,0,1,.4-.375c.493-.288.983-.515,1.015-1.239.016-.36.444-.516.833-.459a.711.711,0,0,1,.685.736.523.523,0,0,0,.474.593,2.392,2.392,0,0,1,.5.219.757.757,0,0,1,.427.969.708.708,0,0,1-.92.5c-.408-.109-.525.021-.467.411a1.461,1.461,0,0,1,0,.388,1.564,1.564,0,0,0,1.016,1.954,2.367,2.367,0,0,1,1.3,2.6,3.042,3.042,0,0,1-1.867,2.61c-.336.152-.472.3-.463.674a.771.771,0,0,1-.772.833.8.8,0,0,1-.856-.821c-.008-.351-.119-.464-.449-.515a3.33,3.33,0,0,1-1.354-.6.828.828,0,1,1,.849-1.419A2.187,2.187,0,0,0,1714.319,1919.932Z" transform="translate(-1700.114 -1903.309)" fill="#102538"/>
  <path id="Trazado_155202" data-name="Trazado 155202" d="M1817.255,1975.477a2.138,2.138,0,0,1-.077.454.806.806,0,0,1-1.218.419,1.572,1.572,0,0,1,.039-2.156.813.813,0,0,1,1.181.425A2.567,2.567,0,0,1,1817.255,1975.477Z" transform="translate(-1788.253 -1957.562)" fill="#102538"/>
  <path id="Trazado_155203" data-name="Trazado 155203" d="M1815.806,1953.5c0-.8.272-1.171.847-1.156s.828.413.815,1.316c-.01.7-.3,1.074-.837,1.076C1816.052,1954.739,1815.8,1954.366,1815.806,1953.5Z" transform="translate(-1788.469 -1939.043)" fill="#102538"/>
  <path id="Trazado_155204" data-name="Trazado 155204" d="M1953.268,1960.431a5.124,5.124,0,0,1,.551.031.74.74,0,0,1,.678.748.748.748,0,0,1-.624.85,2.939,2.939,0,0,1-1.207.006.816.816,0,0,1,.106-1.614c.164-.015.331,0,.5,0Z" transform="translate(-1904.516 -1945.934)" fill="#102538"/>
  <path id="Trazado_155205" data-name="Trazado 155205" d="M1738.454,1960.792v-2.136A1.2,1.2,0,0,1,1738.454,1960.792Z" transform="translate(-1722.566 -1944.42)" fill="#f1f1f1"/>
  <path id="Trazado_155206" data-name="Trazado 155206" d="M1725.282,1932.553v1.151C1724.9,1933.255,1724.908,1932.946,1725.282,1932.553Z" transform="translate(-1711.102 -1922.182)" fill="#f3f3f3"/>
</svg>
