<svg id="Grupo_128207" data-name="Grupo 128207" xmlns="http://www.w3.org/2000/svg" width="56.712" height="56.844" viewBox="0 0 56.712 56.844">
  <path id="Trazado_155035" data-name="Trazado 155035" d="M213.113,1877.019c0-1.8,0-3.493,0-5.19,0-1.208.226-1.432,1.454-1.444.117,0,.234,0,.437,0,0-.862,0-1.7,0-2.544,0-.932.312-1.244,1.237-1.246,1.454,0,2.909,0,4.428,0v-3.761h1.88v3.761h3.884c1.7,0,1.811.108,1.811,1.8v1.992c.289,0,.52,0,.751,0,.8.013,1.129.348,1.14,1.167,0,.276,0,.553,0,.829v20.706h-1.886v-20.779h-13.2v33.106h5.619V1901.7h1.88v3.7h5.682v-10.344h1.879v10.378h1.888v1.909h-1.616c-.946,0-1.892.022-2.836-.01a.867.867,0,0,0-.818.431,28.047,28.047,0,0,1-16.432,11.1,28.329,28.329,0,0,1-29.64-11.013,1.067,1.067,0,0,0-1.006-.523c-1.432.032-2.866.011-4.329.011v-1.872h1.861v-.693c0-1.895.011-3.791-.007-5.685a1.253,1.253,0,0,1,.663-1.215q2.19-1.287,4.354-2.616a1.139,1.139,0,0,1,1.321-.006c1,.619,2.016,1.214,3.126,1.88,0-1.232.035-2.367-.013-3.5a1.781,1.781,0,0,1,.725-1.573c2.009-1.684,3.986-3.407,5.975-5.115.718-.617,1.035-.622,1.742-.016q2.088,1.79,4.173,3.583c.176.151.358.295.6.5.015-.241.033-.406.034-.573,0-1.54-.03-3.081.023-4.619a1.855,1.855,0,0,1,.472-1.134q3.555-3.639,7.186-7.2a1.763,1.763,0,0,1,1.085-.447C210.109,1876.99,211.582,1877.019,213.113,1877.019Zm-.042,28.4v-26.51c-1.3,0-2.558-.02-3.815.016a1.3,1.3,0,0,0-.807.338c-2.119,2.091-4.21,4.209-6.326,6.3a1.183,1.183,0,0,0-.365.935q.013,9.148.006,18.3v.618H206.5V1901.7h1.9v3.719Zm-18.853-16.715c-.158.126-.311.241-.455.365-1.616,1.385-3.224,2.779-4.85,4.152a.987.987,0,0,0-.4.848c.015,3.611.008,7.222.01,10.833,0,.17.021.341.032.5h4.714V1901.7h1.9v3.721h4.639a.51.51,0,0,0,.052-.134q.007-5.713,0-11.425a.74.74,0,0,0-.233-.493C197.846,1891.816,196.05,1890.281,194.219,1888.709Zm-1.1,18.668c1,1.584,1.924,3.063,2.879,4.522.085.13.373.178.567.179q7.088.014,14.176-.008a.967.967,0,0,0,.7-.364c.83-1.291,1.616-2.611,2.411-3.925a2.9,2.9,0,0,0,.168-.405Zm-6.488-1.955c0-1.971.007-3.9-.014-5.83a.66.66,0,0,0-.312-.428c-1.019-.634-2.042-1.263-3.089-1.851a.875.875,0,0,0-.729,0c-1.029.578-2.023,1.218-3.047,1.8a.691.691,0,0,0-.379.707c.014,1.519.006,3.038.006,4.558v1.038h2.843v-3.72h1.9v3.719Zm26.951,6.663c2.1,0,4.126.008,6.154-.011a1.035,1.035,0,0,0,.621-.258c.851-.762,1.7-1.525,2.507-2.336.629-.636,1.186-1.342,1.876-2.133H224c-2.147,0-4.3.062-6.439-.027a1.747,1.747,0,0,0-1.987,1.2A37.942,37.942,0,0,1,213.585,1912.085Zm-30.96-4.738a25.534,25.534,0,0,0,4.5,4.6.948.948,0,0,0,.55.13c1.891.009,3.781.006,5.671,0a2,2,0,0,0,.32-.045c-.817-1.5-1.613-2.968-2.427-4.428a.553.553,0,0,0-.4-.252C188.145,1907.343,185.45,1907.347,182.625,1907.347Zm15.12,6.667-.107.144c1.191,1.135,2.378,2.273,3.579,3.4a.7.7,0,0,0,.439.121q2.006.013,4.012,0a.7.7,0,0,0,.439-.121c1.2-1.125,2.382-2.264,3.57-3.4l-.11-.139Zm28.582-45.483h-9.382v1.822h9.382Zm-16.856,48.592a24.554,24.554,0,0,0,7.628-3.093c-1.549-.05-3.082-.055-4.615-.043a.68.68,0,0,0-.461.17C211.193,1915.1,210.383,1916.057,209.471,1917.124Zm-11.6-.006a24.861,24.861,0,0,1-1.95-2.242,1.973,1.973,0,0,0-1.968-.912c-1.24.068-2.485.018-3.729.018A23.213,23.213,0,0,0,197.87,1917.117Z" transform="translate(-175.283 -1862.831)" fill="#102538"/>
  <path id="Trazado_155036" data-name="Trazado 155036" d="M203.8,1866.911c.429.293.741.5,1.042.714a.946.946,0,0,1,.214,1.558q-4.179,4.677-8.382,9.333c-.478.53-.945.519-1.548.017-1.606-1.336-3.208-2.677-4.849-4.047l-4.459,4.157-1.289-1.377c.593-.558,1.164-1.1,1.736-1.632q1.576-1.477,3.155-2.95a1,1,0,0,1,1.6-.04q2.116,1.756,4.224,3.523c.179.149.362.294.577.468l7.158-7.972a20.135,20.135,0,0,1-1.791-1.234,1.569,1.569,0,0,1-.514-.966c-.037-.453.346-.7.783-.832,3.034-.906,6.065-1.824,9.1-2.729.946-.282,1.5.185,1.405,1.173q-.451,4.536-.918,9.07a.955.955,0,0,1-1.6.777c-.678-.432-1.34-.888-2.09-1.387-.134.171-.243.336-.375.479q-5.067,5.509-10.139,11.014c-.662.719-1.055.745-1.8.12l-4.759-3.97c-.183.165-.357.316-.526.473q-6.417,6-12.841,11.993a1.756,1.756,0,0,1-.913.45.852.852,0,0,1-.888-.907c-.017-1.9-.019-3.791.007-5.686a1.13,1.13,0,0,1,.324-.725c2.477-2.344,4.972-4.669,7.521-7.053l1.38,1.469a4.079,4.079,0,0,0-.56.368c-2.137,1.987-4.263,3.988-6.407,5.968a1.089,1.089,0,0,0-.392.918c.027.8.008,1.6.008,2.511.234-.2.38-.322.517-.451q5.878-5.495,11.753-10.991c.794-.743,1.075-.754,1.914-.054q2.089,1.743,4.177,3.488c.15.125.308.239.482.374,1.958-2.124,3.9-4.225,5.832-6.327q2.345-2.546,4.689-5.093c.6-.649.924-.683,1.687-.188l1.263.819.648-6.47Z" transform="translate(-175.103 -1862.822)" fill="#102538"/>
  <path id="Trazado_155037" data-name="Trazado 155037" d="M438.85,2024.875h1.823v4.679H438.85Z" transform="translate(-397.208 -1999.289)" fill="#102538"/>
  <path id="Trazado_155038" data-name="Trazado 155038" d="M462.9,2024.873h1.815v4.685H462.9Z" transform="translate(-417.461 -1999.287)" fill="#102538"/>
  <path id="Trazado_155039" data-name="Trazado 155039" d="M486.843,1982.87h1.82v4.664h-1.82Z" transform="translate(-437.624 -1963.916)" fill="#102538"/>
  <path id="Trazado_155040" data-name="Trazado 155040" d="M440.743,2071.674h-1.8v-4.685h1.8Z" transform="translate(-397.288 -2034.754)" fill="#102538"/>
  <path id="Trazado_155041" data-name="Trazado 155041" d="M462.7,2071.67v-4.643h1.84v4.643Z" transform="translate(-417.292 -2034.786)" fill="#102538"/>
  <path id="Trazado_155042" data-name="Trazado 155042" d="M486.845,2066.9h1.819v4.664h-1.819Z" transform="translate(-437.625 -2034.682)" fill="#102538"/>
  <path id="Trazado_155043" data-name="Trazado 155043" d="M464.715,1983.014v4.643h-1.84v-4.643Z" transform="translate(-417.44 -1964.037)" fill="#102538"/>
  <path id="Trazado_155044" data-name="Trazado 155044" d="M438.815,1987.576v-4.66h1.84v4.66Z" transform="translate(-397.179 -1963.955)" fill="#102538"/>
  <path id="Trazado_155045" data-name="Trazado 155045" d="M486.846,1940.849h1.819v4.664h-1.819Z" transform="translate(-437.626 -1928.53)" fill="#102538"/>
  <path id="Trazado_155046" data-name="Trazado 155046" d="M464.641,1945.65h-1.818v-4.664h1.818Z" transform="translate(-417.396 -1928.645)" fill="#102538"/>
  <path id="Trazado_155047" data-name="Trazado 155047" d="M440.679,1945.644h-1.82v-4.664h1.82Z" transform="translate(-397.216 -1928.64)" fill="#102538"/>
  <path id="Trazado_155048" data-name="Trazado 155048" d="M486.853,2024.878h1.816v4.685h-1.816Z" transform="translate(-437.632 -1999.292)" fill="#102538"/>
  <path id="Trazado_155049" data-name="Trazado 155049" d="M392.863,2029.681h-1.8V2025h1.8Z" transform="translate(-356.963 -1999.394)" fill="#102538"/>
  <path id="Trazado_155050" data-name="Trazado 155050" d="M355.074,2024.886h1.819v4.664h-1.819Z" transform="translate(-326.659 -1999.298)" fill="#102538"/>
  <path id="Trazado_155051" data-name="Trazado 155051" d="M356.919,2071.694h-1.807v-4.683h1.807Z" transform="translate(-326.691 -2034.772)" fill="#102538"/>
  <path id="Trazado_155052" data-name="Trazado 155052" d="M392.857,2071.694H391.05v-4.683h1.807Z" transform="translate(-356.955 -2034.772)" fill="#102538"/>
  <path id="Trazado_155053" data-name="Trazado 155053" d="M392.774,1987.567h-1.815v-4.685h1.815Z" transform="translate(-356.878 -1963.926)" fill="#102538"/>
  <path id="Trazado_155054" data-name="Trazado 155054" d="M271.238,2066.886h1.813v4.686h-1.813Z" transform="translate(-256.06 -2034.667)" fill="#102538"/>
  <path id="Trazado_155055" data-name="Trazado 155055" d="M307.175,2066.886h1.813v4.686h-1.813Z" transform="translate(-286.323 -2034.667)" fill="#102538"/>
</svg>
