<svg xmlns="http://www.w3.org/2000/svg" xmlns:xlink="http://www.w3.org/1999/xlink" width="223.966" height="267.751" viewBox="0 0 223.966 267.751">
  <defs>
    <linearGradient id="linear-gradient" x1="0.029" y1="0.492" x2="0.785" y2="0.504" gradientUnits="objectBoundingBox">
      <stop offset="0" stop-color="#eaedff"/>
      <stop offset="1" stop-color="#fff"/>
    </linearGradient>
    <linearGradient id="linear-gradient-2" x1="0.735" y1="1.188" x2="0.227" y2="-0.358" gradientUnits="objectBoundingBox">
      <stop offset="0.005" stop-color="#f7c564"/>
      <stop offset="0.156" stop-color="#e1ae40"/>
      <stop offset="0.318" stop-color="#c79315"/>
      <stop offset="0.433" stop-color="#deb634"/>
      <stop offset="0.566" stop-color="#f7db56"/>
      <stop offset="0.623" stop-color="#f6db5e"/>
      <stop offset="0.715" stop-color="#f4de76"/>
      <stop offset="0.798" stop-color="#f3e192"/>
      <stop offset="0.826" stop-color="#f3d88b"/>
      <stop offset="0.872" stop-color="#f3c078"/>
      <stop offset="0.93" stop-color="#f39859"/>
      <stop offset="0.997" stop-color="#f36230"/>
      <stop offset="1" stop-color="#f3602e"/>
    </linearGradient>
    <linearGradient id="linear-gradient-3" x1="0.219" y1="0.002" x2="0.825" y2="1.076" gradientUnits="objectBoundingBox">
      <stop offset="0" stop-color="#dbee70"/>
      <stop offset="0.106" stop-color="#f7c564"/>
      <stop offset="0.154" stop-color="#f5c25b"/>
      <stop offset="0.232" stop-color="#f0bb43"/>
      <stop offset="0.318" stop-color="#e9b121"/>
      <stop offset="0.525" stop-color="#c79315"/>
      <stop offset="0.566" stop-color="#cc9b1c"/>
      <stop offset="0.633" stop-color="#dcb332"/>
      <stop offset="0.717" stop-color="#f7db56"/>
      <stop offset="0.756" stop-color="#f6db5e"/>
      <stop offset="0.818" stop-color="#f4de76"/>
      <stop offset="0.874" stop-color="#f3e192"/>
      <stop offset="0.891" stop-color="#f3d88b"/>
      <stop offset="0.92" stop-color="#f3c078"/>
      <stop offset="0.956" stop-color="#f39859"/>
      <stop offset="0.998" stop-color="#f36230"/>
      <stop offset="1" stop-color="#f3602e"/>
    </linearGradient>
    <linearGradient id="linear-gradient-4" x1="0.722" y1="1.023" x2="0.127" y2="-0.378" gradientUnits="objectBoundingBox">
      <stop offset="0.27" stop-color="#6ef07f"/>
      <stop offset="0.626" stop-color="#6ef07f"/>
      <stop offset="0.826" stop-color="#37b53c"/>
      <stop offset="1" stop-color="#057f00"/>
    </linearGradient>
    <linearGradient id="linear-gradient-5" x1="0.867" y1="0.906" x2="-1.589" y2="-1.139" gradientUnits="objectBoundingBox">
      <stop offset="0" stop-color="#afa"/>
      <stop offset="0.578" stop-color="#72f182"/>
      <stop offset="0.626" stop-color="#6ef07f"/>
    </linearGradient>
    <radialGradient id="radial-gradient" cx="0.451" cy="0.419" r="1.322" gradientTransform="translate(0.13) scale(0.74 1)" gradientUnits="objectBoundingBox">
      <stop offset="0" stop-color="#711d1c"/>
      <stop offset="0.161" stop-color="#6b1b1a"/>
      <stop offset="0.363" stop-color="#5c1716"/>
      <stop offset="0.585" stop-color="#421110"/>
      <stop offset="0.821" stop-color="#1f0807"/>
      <stop offset="1"/>
    </radialGradient>
    <linearGradient id="linear-gradient-6" x1="0.722" y1="1.023" x2="0.127" y2="-0.378" gradientUnits="objectBoundingBox">
      <stop offset="0" stop-color="#f36043"/>
      <stop offset="0.525" stop-color="#f3602e"/>
      <stop offset="0.699" stop-color="#f38c50"/>
      <stop offset="1" stop-color="#f3e192"/>
    </linearGradient>
    <linearGradient id="linear-gradient-7" x1="0.867" y1="0.906" x2="-1.589" y2="-1.139" xlink:href="#linear-gradient-6"/>
    <radialGradient id="radial-gradient-2" cx="0.451" cy="0.419" r="1.322" xlink:href="#radial-gradient"/>
    <linearGradient id="linear-gradient-8" x1="0.913" y1="0.05" x2="0.22" y2="0.918" gradientUnits="objectBoundingBox">
      <stop offset="0.005" stop-color="#ffa53c"/>
      <stop offset="0.348" stop-color="#db9923"/>
      <stop offset="0.525" stop-color="#c79315"/>
      <stop offset="0.702" stop-color="#cf9a18"/>
      <stop offset="0.988" stop-color="#e7af20"/>
      <stop offset="1" stop-color="#e9b121"/>
    </linearGradient>
    <linearGradient id="linear-gradient-9" x1="0.493" y1="0.444" x2="0.568" y2="0.762" gradientUnits="objectBoundingBox">
      <stop offset="0.005" stop-color="#988c44"/>
      <stop offset="0.291" stop-color="#a59534"/>
      <stop offset="0.399" stop-color="#ac9a2d"/>
      <stop offset="0.563" stop-color="#9d7628"/>
      <stop offset="0.925" stop-color="#771c1e"/>
      <stop offset="1" stop-color="#70091c"/>
    </linearGradient>
    <linearGradient id="linear-gradient-10" x1="0.458" y1="0.297" x2="0.652" y2="1.121" gradientUnits="objectBoundingBox">
      <stop offset="0.005" stop-color="#b3a66d"/>
      <stop offset="0.126" stop-color="#b1a35d"/>
      <stop offset="0.361" stop-color="#ac9b34"/>
      <stop offset="0.399" stop-color="#ac9a2d"/>
      <stop offset="0.563" stop-color="#9d7628"/>
      <stop offset="0.925" stop-color="#771c1e"/>
      <stop offset="1" stop-color="#70091c"/>
    </linearGradient>
    <linearGradient id="linear-gradient-11" x1="0.507" y1="0.522" x2="0.377" y2="0.121" xlink:href="#linear-gradient-9"/>
    <linearGradient id="linear-gradient-12" x1="0.415" y1="0.021" x2="0.7" y2="0.961" xlink:href="#linear-gradient-8"/>
    <linearGradient id="linear-gradient-13" x1="20.358" y1="6.55" x2="20.75" y2="6.55" gradientUnits="objectBoundingBox">
      <stop offset="0" stop-color="#baac7a"/>
      <stop offset="0.03" stop-color="#c0b071"/>
      <stop offset="0.157" stop-color="#d9c052"/>
      <stop offset="0.227" stop-color="#e3c647"/>
      <stop offset="0.399" stop-color="#c9a94e"/>
      <stop offset="0.483" stop-color="#a98f4e"/>
      <stop offset="0.574" stop-color="#8c794f"/>
      <stop offset="0.626" stop-color="#827150"/>
      <stop offset="0.869" stop-color="#9e7b33"/>
      <stop offset="1" stop-color="#8b794a"/>
    </linearGradient>
    <linearGradient id="linear-gradient-14" x1="0.685" y1="-0.502" x2="0.41" y2="0.986" gradientUnits="objectBoundingBox">
      <stop offset="0" stop-color="#baac7a"/>
      <stop offset="0.015" stop-color="#baab78"/>
      <stop offset="0.371" stop-color="#c5a959"/>
      <stop offset="0.571" stop-color="#c9a94e"/>
      <stop offset="0.802" stop-color="#d9bb49"/>
      <stop offset="1" stop-color="#e3c647"/>
    </linearGradient>
    <linearGradient id="linear-gradient-15" x1="61.307" y1="23.869" x2="62.001" y2="23.869" gradientUnits="objectBoundingBox">
      <stop offset="0" stop-color="#eab154"/>
      <stop offset="0.106" stop-color="#e5e9ff"/>
      <stop offset="0.172" stop-color="#fff"/>
      <stop offset="0.404" stop-color="#dfe3fc"/>
      <stop offset="0.702" stop-color="#afb6e5"/>
      <stop offset="0.746" stop-color="#b4b7da"/>
      <stop offset="0.822" stop-color="#c1babc"/>
      <stop offset="0.921" stop-color="#d8bf8e"/>
      <stop offset="1" stop-color="#ecc464"/>
    </linearGradient>
    <linearGradient id="linear-gradient-16" x1="0.127" y1="0.062" x2="0.704" y2="1.009" gradientUnits="objectBoundingBox">
      <stop offset="0" stop-color="#ea9d54"/>
      <stop offset="0.106" stop-color="#e5e9ff"/>
      <stop offset="0.404" stop-color="#dfe3fc"/>
      <stop offset="0.702" stop-color="#afb6e5"/>
      <stop offset="0.746" stop-color="#b4b7da"/>
      <stop offset="0.822" stop-color="#c1babc"/>
      <stop offset="0.921" stop-color="#d8bf8e"/>
      <stop offset="1" stop-color="#ecc464"/>
    </linearGradient>
    <radialGradient id="radial-gradient-3" cx="0.496" cy="0.361" r="0.508" gradientTransform="matrix(1.495, 0.505, -0.874, 0.863, 0.147, -0.137)" gradientUnits="objectBoundingBox">
      <stop offset="0.485" stop-color="#fff"/>
      <stop offset="1" stop-color="#afb6e5"/>
    </radialGradient>
    <linearGradient id="linear-gradient-17" x1="0.273" y1="-0.011" x2="0.914" y2="0.908" gradientUnits="objectBoundingBox">
      <stop offset="0.106" stop-color="#e5e9ff"/>
      <stop offset="0.172" stop-color="#fff"/>
      <stop offset="0.404" stop-color="#dfe3fc"/>
      <stop offset="0.702" stop-color="#afb6e5"/>
    </linearGradient>
    <linearGradient id="linear-gradient-18" x1="0.065" y1="0.609" x2="0.725" y2="0.444" gradientUnits="objectBoundingBox">
      <stop offset="0" stop-color="#afb6e5"/>
      <stop offset="0.145" stop-color="#b5bce8"/>
      <stop offset="0.349" stop-color="#c7cdf0"/>
      <stop offset="0.581" stop-color="#e5e9ff"/>
      <stop offset="0.955" stop-color="#f4f4fb"/>
      <stop offset="1" stop-color="#f7f6fb"/>
    </linearGradient>
    <radialGradient id="radial-gradient-4" cx="0.65" cy="0.194" r="0.424" gradientTransform="translate(-0.257) scale(1.514 1)" gradientUnits="objectBoundingBox">
      <stop offset="0" stop-color="#fff"/>
      <stop offset="1"/>
    </radialGradient>
    <radialGradient id="radial-gradient-5" cx="0.531" cy="0.419" r="0.462" gradientTransform="translate(-0.096) scale(1.192 1)" xlink:href="#radial-gradient-4"/>
    <radialGradient id="radial-gradient-6" cx="0.488" cy="0.519" r="0.366" gradientTransform="matrix(0.234, 0.972, -0.972, 0.234, 0.897, -0.106)" gradientUnits="objectBoundingBox">
      <stop offset="0.005" stop-color="#e89155"/>
      <stop offset="0.007" stop-color="#e69054"/>
      <stop offset="0.08" stop-color="#c4874e"/>
      <stop offset="0.153" stop-color="#a97f49"/>
      <stop offset="0.228" stop-color="#967a45"/>
      <stop offset="0.304" stop-color="#8a7743"/>
      <stop offset="0.384" stop-color="#877643"/>
      <stop offset="0.477" stop-color="#5f532f"/>
      <stop offset="0.577" stop-color="#3d351e"/>
      <stop offset="0.68" stop-color="#221e11"/>
      <stop offset="0.783" stop-color="#0f0d07"/>
      <stop offset="0.889" stop-color="#030301"/>
      <stop offset="1"/>
    </radialGradient>
  </defs>
  <g id="Grupo_129028" data-name="Grupo 129028" transform="translate(-238.722 -2995)">
    <g id="Grupo_128901" data-name="Grupo 128901" transform="translate(238.722 2995)">
      <g id="Grupo_128888" data-name="Grupo 128888" transform="translate(51.329 155.247)" opacity="0.2">
        <path id="Trazado_188761" data-name="Trazado 188761" d="M482.629,366.932a16.554,16.554,0,0,1-8.259-1.991l-84.054-49.594a8.74,8.74,0,0,1-4.739-7.549c0-3.352,2.08-6.476,5.706-8.569l51.1-33.6a20.335,20.335,0,0,1,10.03-2.55,16.555,16.555,0,0,1,8.26,1.991l46.4,26.055,46.4,26.054a8.742,8.742,0,0,1,4.738,7.549c0,3.352-2.08,6.476-5.706,8.569l-59.849,31.085A20.344,20.344,0,0,1,482.629,366.932Z" transform="translate(-385.577 -263.08)" fill="#afb6e5" opacity="0"/>
        <path id="Trazado_188762" data-name="Trazado 188762" d="M440.307,267.882a20.868,20.868,0,0,1,8.046-2.5c.62-.059,1.247-.1,1.875-.112a16.549,16.549,0,0,1,8.2,1.842c.085.005,5.194,2.849,5.256,2.884l40.77,22.9,6.168,3.465,39.836,22.38a9.315,9.315,0,0,1,4.722,6.306,8.747,8.747,0,0,1,.107,1.066c.109,3.287-1.892,6.406-5.515,8.5L536.3,341.605c-.185.107-26.03,13.4-26.19,13.3l-18.674,9.259a20.07,20.07,0,0,1-9.748,2.317,16.41,16.41,0,0,1-8.026-1.987L424.74,335.655l-32.953-19.427a8.662,8.662,0,0,1-4.687-7.289c0-3.192,1.778-6.283,5.231-8.277L423,279.595C422.838,279.5,440.122,267.989,440.307,267.882Z" transform="translate(-385.839 -263.456)" fill="#aeb4de" opacity="0.048"/>
        <path id="Trazado_188763" data-name="Trazado 188763" d="M438.231,270.135a21.976,21.976,0,0,1,7.96-2.526c.612-.064,1.23-.121,1.851-.141a16.547,16.547,0,0,1,8.133,1.693c.171.01,5.108,2.733,5.233,2.8l40.417,22.718,6.115,3.437,39.493,22.2a9.748,9.748,0,0,1,4.779,6.158,10.044,10.044,0,0,1,.139,1.038c.219,3.223-1.7,6.336-5.324,8.426l-13.109,6.79c-.37.214-25.216,12.851-25.536,12.666l-18.163,8.556a19.829,19.829,0,0,1-9.466,2.084,16.293,16.293,0,0,1-7.794-1.984L425.337,336l-32.077-18.9c-2.724-1.573-4.636-4.262-4.636-7.029a9.078,9.078,0,0,1,4.756-7.984l28.36-20.454C421.42,281.456,437.861,270.348,438.231,270.135Z" transform="translate(-386.1 -263.832)" fill="#aeb2d7" opacity="0.095"/>
        <path id="Trazado_188764" data-name="Trazado 188764" d="M436.155,272.386a23.24,23.24,0,0,1,7.874-2.556c.6-.069,1.213-.142,1.828-.17a16.461,16.461,0,0,1,8.069,1.544c.257.015,5.022,2.617,5.209,2.724L499.2,296.462l6.061,3.409,39.149,22.018c2.27,1.31,4.408,3.789,4.836,6.01.065.335.136.668.171,1.01.329,3.159-1.516,6.266-5.133,8.355l-12.752,6.6c-.554.321-24.4,12.306-24.883,12.028L489,363.738c-2.442,1.409-6.081,1.852-9.184,1.852a16.194,16.194,0,0,1-7.56-1.981l-46.32-27.261-31.2-18.364c-2.581-1.49-4.586-4.147-4.585-6.768a8.563,8.563,0,0,1,4.281-7.692l26.054-19.839C420,283.408,435.6,272.707,436.155,272.386Z" transform="translate(-386.362 -264.206)" fill="#adb1cf" opacity="0.143"/>
        <path id="Trazado_188765" data-name="Trazado 188765" d="M434.08,274.636a24.673,24.673,0,0,1,7.789-2.586c.6-.073,1.2-.162,1.8-.2a16.432,16.432,0,0,1,8.006,1.395c.342.021,4.937,2.5,5.185,2.644l39.713,22.348,6.008,3.38,38.8,21.837c2.143,1.238,4.449,3.771,4.893,5.861.07.327.157.649.2.982.44,3.1-1.328,6.2-4.942,8.284l-12.395,6.4c-.74.427-23.589,11.76-24.23,11.39l-17.144,7.148c-2.305,1.331-5.971,1.619-8.9,1.619a16.123,16.123,0,0,1-7.328-1.976l-45.017-26.47-30.325-17.831c-2.438-1.408-4.534-4.032-4.534-6.508,0-2.714.87-5.706,3.805-7.4l23.748-19.226C418.585,285.359,433.34,275.064,434.08,274.636Z" transform="translate(-386.623 -264.579)" fill="#adafc8" opacity="0.19"/>
        <path id="Trazado_188766" data-name="Trazado 188766" d="M432,276.886a26.315,26.315,0,0,1,7.7-2.617c.588-.077,1.18-.181,1.781-.228a16.411,16.411,0,0,1,7.942,1.247c.428.026,4.851,2.385,5.162,2.565l39.36,22.162,5.955,3.353,38.46,21.655c2.018,1.165,4.494,3.756,4.951,5.714.075.32.177.63.236.953.553,3.036-1.14,6.127-4.751,8.212l-12.038,6.207c-.924.533-22.776,11.214-23.577,10.752L486.556,363.3c-2.169,1.253-5.861,1.387-8.619,1.387a16.073,16.073,0,0,1-7.095-1.973l-43.715-25.679-29.449-17.3c-2.3-1.325-4.483-3.918-4.483-6.248,0-2.554.568-5.513,3.331-7.107l21.442-18.612C417.168,287.309,431.079,277.419,432,276.886Z" transform="translate(-386.885 -264.952)" fill="#acadc1" opacity="0.238"/>
        <path id="Trazado_188767" data-name="Trazado 188767" d="M429.928,279.135a28.187,28.187,0,0,1,7.617-2.647c.582-.082,1.164-.2,1.758-.257a16.39,16.39,0,0,1,7.879,1.1,47.75,47.75,0,0,1,5.138,2.484l39.008,21.976,5.9,3.325,38.117,21.474c1.891,1.093,4.542,3.738,5.008,5.565.079.313.2.613.268.926.666,2.974-.952,6.057-4.56,8.141l-11.681,6.012c-1.109.64-21.961,10.668-22.922,10.113l-16.124,5.74c-2.034,1.175-5.751,1.154-8.337,1.154a16.065,16.065,0,0,1-6.862-1.97l-42.412-24.888L399.15,320.615c-2.151-1.243-4.432-3.8-4.431-5.988,0-2.395.265-5.32,2.855-6.816l19.136-18C415.75,289.258,428.818,279.775,429.928,279.135Z" transform="translate(-387.146 -265.323)" fill="#acabba" opacity="0.286"/>
        <path id="Trazado_188768" data-name="Trazado 188768" d="M427.852,281.382a30.408,30.408,0,0,1,7.531-2.676c.574-.087,1.146-.221,1.735-.286a16.372,16.372,0,0,1,7.815.949,40.129,40.129,0,0,1,5.116,2.4L488.7,303.564l5.849,3.3,37.773,21.294c1.765,1.019,4.594,3.721,5.065,5.417.085.306.219.594.3.9.78,2.912-.764,5.987-4.369,8.069L522,348.354c-1.294.748-21.148,10.123-22.269,9.476l-15.614,5.035c-1.9,1.1-5.642.921-8.055.921a16.089,16.089,0,0,1-6.629-1.966l-41.11-24.1-27.7-16.235c-2.008-1.16-4.38-3.689-4.38-5.728,0-2.235-.036-5.127,2.381-6.522l16.83-17.385C414.332,291.206,426.557,282.129,427.852,281.382Z" transform="translate(-387.408 -265.694)" fill="#aba9b3" opacity="0.333"/>
        <path id="Trazado_188769" data-name="Trazado 188769" d="M425.772,283.629a32.941,32.941,0,0,1,7.446-2.706c.567-.091,1.13-.24,1.711-.315a16.346,16.346,0,0,1,7.752.8,34.562,34.562,0,0,1,5.092,2.324l38.3,21.605,5.8,3.269L529.3,329.716c1.639.947,4.651,3.7,5.123,5.268.09.3.241.576.333.871.9,2.852-.576,5.918-4.178,8l-10.968,5.623c-1.479.854-20.334,9.578-21.615,8.838l-15.1,4.331c-1.764,1.018-5.532.688-7.773.688a16.159,16.159,0,0,1-6.4-1.962l-39.809-23.306-26.822-15.7c-1.865-1.076-4.329-3.573-4.329-5.467,0-2.075-.34-4.935,1.905-6.231l14.524-16.772C412.91,293.153,424.293,284.483,425.772,283.629Z" transform="translate(-387.665 -266.064)" fill="#aaa8ab" opacity="0.381"/>
        <path id="Trazado_188770" data-name="Trazado 188770" d="M423.681,285.874a35.974,35.974,0,0,1,7.36-2.736c.559-.1,1.113-.26,1.687-.345a16.337,16.337,0,0,1,7.688.651,30.287,30.287,0,0,1,5.069,2.244l37.951,21.419,5.742,3.24,37.085,20.931c1.513.874,4.974,3.626,5.181,5.12a6.376,6.376,0,0,1,.365.842c1.013,2.791-.388,5.847-3.987,7.926L517.21,350.6c-1.665.961-19.521,9.032-20.962,8.2l-14.594,3.627c-1.627.939-5.422.456-7.49.456A16.306,16.306,0,0,1,468,360.92l-38.506-22.515-25.946-15.17c-1.721-.994-4.278-3.46-4.278-5.207,0-1.916-.641-4.742,1.431-5.938l12.218-16.158C411.477,295.1,422.016,286.835,423.681,285.874Z" transform="translate(-387.911 -266.432)" fill="#aaa6a4" opacity="0.429"/>
        <path id="Trazado_188771" data-name="Trazado 188771" d="M421.576,288.118a39.729,39.729,0,0,1,7.274-2.767c.553-.1,1.1-.279,1.665-.373a16.313,16.313,0,0,1,7.624.5,26.811,26.811,0,0,1,5.046,2.164l37.6,21.233,5.689,3.213,36.741,20.749c1.388.8,5.049,3.6,5.238,4.972a6.254,6.254,0,0,1,.4.814c1.132,2.729-.2,5.778-3.8,7.854L514.8,351.716c-1.85,1.068-18.707,8.486-20.309,7.562L480.4,362.2c-1.492.862-5.312.224-7.208.224a16.511,16.511,0,0,1-5.93-1.956l-37.2-21.723-25.07-14.639c-1.578-.91-4.227-3.345-4.227-4.947,0-1.756-.944-4.549.955-5.646l9.912-15.544C410.03,297.045,419.727,289.185,421.576,288.118Z" transform="translate(-388.144 -266.799)" fill="#a9a49d" opacity="0.476"/>
        <path id="Trazado_188772" data-name="Trazado 188772" d="M419.458,290.362a44.122,44.122,0,0,1,7.189-2.8c.547-.105,1.081-.3,1.641-.4a16.3,16.3,0,0,1,7.561.353,23.988,23.988,0,0,1,5.021,2.084l37.246,21.048,5.636,3.184,36.4,20.568c1.261.728,5.122,3.578,5.295,4.823a6.09,6.09,0,0,1,.43.787c1.252,2.667-.012,5.707-3.605,7.782l-9.9,5.041c-2.035,1.174-17.893,7.941-19.655,6.923l-13.573,2.219c-1.356.783-5.2-.009-6.927-.009-1.5,0-4.623-1.332-5.7-1.952l-35.9-20.932-24.195-14.106c-1.435-.828-4.177-3.231-4.176-4.687,0-1.6-1.247-4.357.48-5.354l7.607-14.93C408.571,298.988,417.425,291.535,419.458,290.362Z" transform="translate(-388.364 -267.165)" fill="#a9a296" opacity="0.524"/>
        <path id="Trazado_188773" data-name="Trazado 188773" d="M417.33,292.6a49.769,49.769,0,0,1,7.1-2.826c.539-.11,1.064-.318,1.618-.431a16.28,16.28,0,0,1,7.5.2,21.632,21.632,0,0,1,5,2l36.894,20.862,5.582,3.157,36.053,20.387c1.135.655,5.2,3.554,5.352,4.675a6.011,6.011,0,0,1,.462.758c1.374,2.606.177,5.639-3.414,7.712l-9.542,4.845c-2.219,1.281-17.08,7.4-19,6.286l-13.063,1.515c-1.221.7-5.093-.243-6.644-.243-1.349,0-4.5-1.39-5.465-1.948l-34.6-20.141-23.32-13.574c-1.291-.746-4.124-3.116-4.124-4.427,0-1.436-1.549-4.164,0-5.061l5.3-14.317C407.1,300.931,415.112,293.884,417.33,292.6Z" transform="translate(-388.573 -267.53)" fill="#a8a08f" opacity="0.571"/>
        <path id="Trazado_188774" data-name="Trazado 188774" d="M415.194,294.844a56.786,56.786,0,0,1,7.017-2.855c.533-.115,1.047-.337,1.594-.461a16.279,16.279,0,0,1,7.434.056,19.665,19.665,0,0,1,4.974,1.924l36.542,20.676,5.529,3.129,35.709,20.206c1.009.582,5.273,3.53,5.41,4.526a6.031,6.031,0,0,1,.5.731c1.5,2.543.364,5.569-3.224,7.64l-9.185,4.651c-2.4,1.388-16.266,6.85-18.348,5.648l-12.553.81c-1.085.626-4.983-.475-6.363-.475-1.2,0-4.372-1.449-5.232-1.945l-33.3-19.35-22.443-13.042c-1.147-.663-4.073-3-4.073-4.167,0-1.277-1.851-3.972-.471-4.77l2.995-13.7C405.623,302.872,412.79,296.232,415.194,294.844Z" transform="translate(-388.773 -267.894)" fill="#a89e88" opacity="0.619"/>
        <path id="Trazado_188775" data-name="Trazado 188775" d="M413.049,297.083a66.222,66.222,0,0,1,6.931-2.886c.528-.119,1.031-.356,1.571-.489a16.257,16.257,0,0,1,7.371-.094,18.011,18.011,0,0,1,4.951,1.844l36.189,20.491,5.476,3.1L510.9,339.074c.883.51,5.347,3.507,5.467,4.379a6.025,6.025,0,0,1,.528.7c1.621,2.478.552,5.5-3.033,7.569l-8.828,4.457c-2.589,1.494-15.453,6.3-17.7,5.01L475.3,361.3c-.949.548-4.873-.707-6.079-.707-1.049,0-4.247-1.508-5-1.942l-32-18.559-21.568-12.51c-1-.58-4.022-2.887-4.022-3.906,0-1.117-2.154-3.779-.945-4.476l.688-13.09C404.137,304.812,410.46,298.578,413.049,297.083Z" transform="translate(-388.966 -268.256)" fill="#a79d80" opacity="0.667"/>
        <path id="Trazado_188776" data-name="Trazado 188776" d="M410.492,299.321c.671-.387,6.022-2.719,6.846-2.916.522-.124,1.015-.375,1.547-.518a16.232,16.232,0,0,1,7.308-.243,16.581,16.581,0,0,1,4.928,1.764l35.836,20.305,5.423,3.072L507.4,340.63c.756.437,5.421,3.483,5.524,4.23a5.966,5.966,0,0,1,.56.675c1.747,2.412.74,5.429-2.842,7.5l-8.471,4.263c-2.774,1.6-14.639,5.759-17.042,4.372l-11.533-.6c-.813.471-4.763-.94-5.8-.94-.9,0-4.121-1.566-4.765-1.938l-30.693-17.768L411.65,328.444c-.861-.5-3.971-2.772-3.971-3.646,0-.958-2.456-3.587-1.42-4.185l-1.618-12.476C402.239,306.75,407.719,300.922,410.492,299.321Z" transform="translate(-388.747 -268.617)" fill="#a69b79" opacity="0.714"/>
        <path id="Trazado_188777" data-name="Trazado 188777" d="M407.81,301.557c.558-.322,6.075-2.774,6.759-2.946.515-.129,1-.394,1.524-.547a16.207,16.207,0,0,1,7.244-.392,15.33,15.33,0,0,1,4.9,1.684l35.484,20.12,5.37,3.044,34.677,19.663c.63.364,5.5,3.458,5.581,4.081a5.945,5.945,0,0,1,.592.647c1.874,2.345.928,5.359-2.651,7.425l-8.114,4.068c-2.959,1.708-13.825,5.213-16.388,3.733l-11.023-1.3c-.678.392-4.654-1.173-5.515-1.173-.75,0-4-1.624-4.534-1.934L432.33,340.753l-19.816-11.445c-.717-.414-3.921-2.658-3.92-3.386,0-.8-2.759-3.394-1.9-3.892l-3.924-11.862C400.213,308.688,404.851,303.266,407.81,301.557Z" transform="translate(-388.401 -268.977)" fill="#a69972" opacity="0.762"/>
        <path id="Trazado_188778" data-name="Trazado 188778" d="M405.118,303.793c.447-.258,6.128-2.832,6.674-2.975.51-.134.982-.413,1.5-.577a16.187,16.187,0,0,1,7.18-.54,14.236,14.236,0,0,1,4.881,1.6l35.132,19.933,5.316,3.017,34.333,19.48c.5.292,5.571,3.435,5.639,3.934a5.888,5.888,0,0,1,.625.619c2,2.276,1.116,5.289-2.459,7.353l-7.758,3.873c-3.144,1.815-13.012,4.668-15.735,3.1l-10.513-2.005c-.543.313-4.544-1.406-5.233-1.406a25.114,25.114,0,0,1-4.3-1.931l-28.089-16.185L413.371,330.17c-.573-.331-3.868-2.543-3.868-3.125,0-.639-3.061-3.2-2.37-3.6L400.9,312.2C398.18,310.623,401.975,305.607,405.118,303.793Z" transform="translate(-388.047 -269.335)" fill="#a5976b" opacity="0.81"/>
        <path id="Trazado_188779" data-name="Trazado 188779" d="M402.417,306.026c.335-.194,6.167-2.969,6.589-3.006a12.874,12.874,0,0,1,1.477-.6,16.158,16.158,0,0,1,7.116-.689,13.272,13.272,0,0,1,4.857,1.524L457.236,323l5.263,2.989,33.989,19.3c.379.219,5.645,3.411,5.7,3.785a6.024,6.024,0,0,1,.657.591c2.13,2.206,1.3,5.219-2.269,7.282l-7.4,3.679c-3.328,1.922-12.2,4.122-15.08,2.458l-10-2.71c-.408.235-4.434-1.638-4.952-1.638a30.462,30.462,0,0,1-4.067-1.928l-26.786-15.394-18.065-10.382c-.43-.249-3.817-2.429-3.817-2.866,0-.479-3.364-3.009-2.845-3.308l-8.536-10.635C396.137,312.558,399.089,307.948,402.417,306.026Z" transform="translate(-387.684 -269.691)" fill="#a59564" opacity="0.857"/>
        <path id="Trazado_188780" data-name="Trazado 188780" d="M399.7,308.258c.224-.129,6.222-3.011,6.5-3.036a12.587,12.587,0,0,1,1.454-.634,16.121,16.121,0,0,1,7.053-.838,12.427,12.427,0,0,1,4.834,1.444l34.427,19.563,5.21,2.961,33.645,19.118c.252.145,5.72,3.387,5.754,3.636a6.039,6.039,0,0,1,.689.563c2.259,2.134,1.492,5.149-2.077,7.211l-7.044,3.484c-3.514,2.029-11.385,3.577-14.427,1.82l-9.494-3.414c-.271.157-4.324-1.871-4.669-1.871a41.311,41.311,0,0,1-3.834-1.923l-25.484-14.6-17.189-9.85c-.287-.166-3.767-2.314-3.767-2.605,0-.32-3.665-2.816-3.32-3.015l-10.842-10.022C394.082,314.49,396.19,310.286,399.7,308.258Z" transform="translate(-387.308 -270.046)" fill="#a4945c" opacity="0.905"/>
        <path id="Trazado_188781" data-name="Trazado 188781" d="M396.976,310.488c.112-.065,6.276-3.053,6.416-3.066a12.465,12.465,0,0,1,1.431-.663,16.125,16.125,0,0,1,6.99-.987,11.663,11.663,0,0,1,4.811,1.364L450.7,326.513l5.157,2.932,33.3,18.937c.126.073,5.793,3.364,5.811,3.488a6.377,6.377,0,0,1,.721.535c2.387,2.061,1.68,5.08-1.887,7.14l-6.687,3.29c-3.7,2.135-10.571,3.031-13.774,1.182l-8.983-4.119c-.135.079-4.215-2.1-4.387-2.1-.15,0-3.494-1.858-3.6-1.92l-24.182-13.812-16.314-9.318c-.143-.083-3.715-2.2-3.715-2.345s-3.969-2.623-3.8-2.723l-13.148-9.408C392.013,316.421,393.278,312.623,396.976,310.488Z" transform="translate(-386.917 -270.399)" fill="#a49255" opacity="0.952"/>
        <path id="Trazado_188782" data-name="Trazado 188782" d="M470.943,364.482l-38.827-22.1-38.826-22.1c-3.363-1.942-2.941-5.334.942-7.575l6.331-3.1c3.883-2.242,9.757-2.486,13.12-.544l38.827,22.1,38.826,22.1c3.363,1.942,2.941,5.333-.942,7.575l-6.331,3.1C480.18,366.18,474.306,366.424,470.943,364.482Z" transform="translate(-386.511 -270.75)" fill="#a3904e"/>
      </g>
      <g id="Grupo_128891" data-name="Grupo 128891" transform="translate(47.133 0)">
        <g id="Grupo_128889" data-name="Grupo 128889" transform="translate(0.387 1.022)" opacity="0.3" style="mix-blend-mode: multiply;isolation: isolate">
          <path id="Trazado_188783" data-name="Trazado 188783" d="M396.419,78.961c-6.811-3.932-12.332-.784-12.332,7.03v164.65c0,7.815,5.521,17.338,12.332,21.27l83.74,48.256c6.811,3.932,15.061.352,15.061-7.463V148.055c0-7.815-8.25-16.906-15.061-20.838Z" transform="translate(-381.512 -76.96)" fill="#d5b87a" opacity="0.238"/>
          <path id="Trazado_188784" data-name="Trazado 188784" d="M396.121,78.925c-6.8-3.927-12.317-.783-12.317,7.023V250.076c0,7.806,5.514,17.317,12.317,21.244l83.538,48.139c6.8,3.927,14.8.391,14.8-7.415V147.915c0-7.806-8-16.924-14.8-20.851Z" transform="translate(-381.464 -76.955)" fill="#d0b476" opacity="0.307"/>
          <path id="Trazado_188785" data-name="Trazado 188785" d="M395.823,78.889c-6.794-3.922-12.3-.782-12.3,7.014V249.511c0,7.8,5.507,17.294,12.3,21.217l83.335,48.023c6.794,3.922,14.534.429,14.534-7.367V147.774c0-7.8-7.74-16.941-14.534-20.864Z" transform="translate(-381.415 -76.949)" fill="#ccb172" opacity="0.377"/>
          <path id="Trazado_188786" data-name="Trazado 188786" d="M395.524,78.853c-6.784-3.917-12.285-.781-12.285,7V248.947c0,7.786,5.5,17.273,12.285,21.19l83.133,47.905c6.785,3.917,14.27.467,14.27-7.318V147.635c0-7.786-7.485-16.959-14.27-20.876Z" transform="translate(-381.367 -76.943)" fill="#c7ad6e" opacity="0.446"/>
          <path id="Trazado_188787" data-name="Trazado 188787" d="M395.227,78.818c-6.776-3.912-12.27-.78-12.27,7V248.382c0,7.776,5.494,17.251,12.27,21.163l82.931,47.788c6.776,3.912,14.007.505,14.007-7.27V147.494c0-7.776-7.231-16.976-14.007-20.888Z" transform="translate(-381.319 -76.937)" fill="#c3a96a" opacity="0.515"/>
          <path id="Trazado_188788" data-name="Trazado 188788" d="M394.929,78.781c-6.768-3.907-12.255-.779-12.255,6.987V247.817c0,7.766,5.487,17.229,12.255,21.136l82.728,47.671c6.768,3.907,13.743.543,13.743-7.222V147.354c0-7.766-6.975-16.994-13.743-20.9Z" transform="translate(-381.27 -76.931)" fill="#bea666" opacity="0.584"/>
          <path id="Trazado_188789" data-name="Trazado 188789" d="M394.631,78.746c-6.759-3.9-12.239-.778-12.239,6.978V247.252c0,7.756,5.48,17.207,12.239,21.11l82.526,47.554c6.759,3.9,13.479.582,13.479-7.173V147.213c0-7.756-6.72-17.011-13.479-20.913Z" transform="translate(-381.222 -76.926)" fill="#baa262" opacity="0.654"/>
          <path id="Trazado_188790" data-name="Trazado 188790" d="M394.332,78.71c-6.75-3.9-12.223-.777-12.223,6.969V246.687c0,7.747,5.473,17.186,12.223,21.083l82.325,47.437c6.75,3.9,13.216.62,13.216-7.126V147.073c0-7.747-6.465-17.028-13.216-20.926Z" transform="translate(-381.173 -76.92)" fill="#b59f5e" opacity="0.723"/>
          <path id="Trazado_188791" data-name="Trazado 188791" d="M394.034,78.675c-6.742-3.892-12.207-.777-12.207,6.96V246.122c0,7.737,5.465,17.163,12.207,21.056l82.123,47.32c6.742,3.892,12.951.659,12.951-7.078V146.932c0-7.736-6.209-17.046-12.951-20.938Z" transform="translate(-381.125 -76.914)" fill="#b19b5a" opacity="0.792"/>
          <path id="Trazado_188792" data-name="Trazado 188792" d="M393.736,78.639c-6.734-3.888-12.192-.776-12.192,6.951V245.557c0,7.727,5.459,17.142,12.192,21.029l81.92,47.2c6.734,3.887,12.689.7,12.689-7.029V146.792c0-7.727-5.955-17.063-12.689-20.951Z" transform="translate(-381.076 -76.908)" fill="#ac9756" opacity="0.861"/>
          <path id="Trazado_188793" data-name="Trazado 188793" d="M393.438,78.6c-6.725-3.882-12.176-.774-12.176,6.942V244.992c0,7.717,5.451,17.12,12.176,21l81.719,47.086c6.725,3.883,12.424.735,12.424-6.982V146.651c0-7.716-5.7-17.081-12.424-20.963Z" transform="translate(-381.028 -76.903)" fill="#a89452" opacity="0.931"/>
          <path id="Trazado_188794" data-name="Trazado 188794" d="M393.14,78.567c-6.716-3.877-12.161-.774-12.161,6.933V244.427c0,7.707,5.445,17.1,12.161,20.975l81.516,46.969c6.716,3.878,12.161.774,12.161-6.933V146.511c0-7.707-5.445-17.1-12.161-20.975Z" transform="translate(-380.979 -76.897)" fill="#a3904e"/>
        </g>
        <g id="Grupo_128890" data-name="Grupo 128890">
          <path id="Trazado_188795" data-name="Trazado 188795" d="M486.717,145.518c0-7.733-5.464-17.157-12.2-21.048l-81.8-47.132c-6.74-3.891-12.2-.776-12.2,6.957V228.559l106.2,61.178Z" transform="translate(-380.512 -75.663)" opacity="0.95" fill="url(#linear-gradient)"/>
          <path id="Trazado_188796" data-name="Trazado 188796" d="M392.715,302.868,474.513,350c6.739,3.891,12.2.776,12.2-6.957V321.421l-106.2-61.179V281.82C380.512,289.554,385.975,298.977,392.715,302.868Z" transform="translate(-380.512 -107.346)" fill="url(#linear-gradient-2)"/>
        </g>
        <path id="Trazado_188797" data-name="Trazado 188797" d="M474.513,124.471l-81.8-47.132c-6.739-3.891-12.2-.776-12.2,6.957v1.18c0-7.733,5.464-10.848,12.2-6.957l81.8,47.131c6.739,3.892,12.2,13.315,12.2,21.048v-1.18C486.717,137.785,481.253,128.362,474.513,124.471Z" transform="translate(-380.512 -75.663)" fill="#f5f6ff"/>
      </g>
      <path id="Trazado_188798" data-name="Trazado 188798" d="M453.325,162.034l15.368,8.872v-2.751l-15.368-8.872Zm-37.865-11.916-11.387-6.574v2.75l11.387,6.575Zm-6.024-16.174-5.363-3.1V133.6l5.363,3.1Zm2.09,7.555-7.453-4.3v2.751l7.453,4.3Zm6.27-2.728-6.392-3.691v2.751l6.392,3.691Zm4.426,15.252-4.795-2.768V154l4.795,2.768Zm4.548-3.722-13.277-7.666v2.751l13.277,7.666Zm5.779,12.434,12.17,7.027V167.01l-12.17-7.027Zm28.828,10.3,10.757,6.21v-2.75l-10.757-6.211Zm1.168,7.022,11.31,6.531v-2.751l-11.31-6.53Zm-30.488-30.3,8.606,4.968v-2.751L432.057,147Zm13.769,14.3,8.36,4.826v-2.751l-8.36-4.826Zm-12.171-7.027,10.2,5.891v-2.751l-10.2-5.891Zm13.032,11.121V170.9l3.2,1.846v-2.751Zm-16.6-22.278-10.326-5.962v2.751l10.326,5.962Zm21.76,28.011,8.729,5.04v-2.751l-8.729-5.04Zm4.3-6.615v2.751l3.258,1.881v-2.751Zm-24.465-14.124-2.951-1.7v2.751l2.951,1.7Zm10.942,2.719,8.728,5.04v-2.751l-8.728-5.04Zm28.214,16.289,8.36,4.827v-2.751l-8.36-4.827Zm4.979,15.571,3.38,1.952V186.92l-3.38-1.952Zm3.258-7.218-4.979-2.874v2.75l4.979,2.875ZM424.19,157.908l6.392,3.69v-2.751l-6.392-3.69Zm37.188,57.444,10.757,6.21v-2.751l-10.757-6.21Zm-.8,3.135-8.729-5.039v2.75l8.729,5.04ZM445.95,176.82l8.36,4.826v-2.751l-8.36-4.826Zm-20.162,5.314,12.171,7.026v-2.75l-12.171-7.027Zm31.1,24.305,8.36,4.826v-2.751l-8.36-4.826Zm-8.236-11.1,8.728,5.04v-2.751l-8.728-5.04Zm-16.6-20.281,8.606,4.968v-2.751l-8.606-4.968Zm1.6,24.292,10.2,5.891v-2.751l-10.2-5.891Zm6.27-9.051,6.762,3.9v-2.751l-6.762-3.9Zm-1.106,2.959-10.2-5.891v2.751l10.2,5.891Zm12.294,9.848,3.811,2.2v-2.751l-3.811-2.2Zm5.041,9.233,3.258,1.881v-2.751l-3.258-1.881Zm-42.537-54.183,13.278,7.666v-2.751L413.617,155.4Zm58.641,31.105-10.2-5.891v2.751l10.2,5.891Zm-22.375,25.806v-2.75l-3.2-1.846v2.751Zm-23.235-28.836-2.951-1.7v2.75l2.951,1.7Zm5.163-20.321-2.951-1.7v2.751l2.951,1.7Zm27.539,35.6,3.734,2.156v-2.751l-3.734-2.156Zm-35.53-23.263-6.392-3.691v2.751L423.82,181Zm20.162-5.314-10.2-5.891v2.751l10.2,5.891Zm.737,36.4-12.17-7.027v2.751l12.17,7.027Zm4.426-10.115-8.36-4.827v2.751l8.36,4.826Zm5.041,9.232-8.36-4.827v2.751l8.36,4.827Zm-22.5-12.989-2.951-1.7v2.751l2.951,1.7Zm-11.925-27.5,10.326,5.962v-2.751L419.764,165.2Zm4.426,32.273,6.392,3.691v-2.751l-6.392-3.691Zm35.9-18-3.811-2.2v2.751l3.811,2.2ZM408.7,169.516l-4.625-2.67v2.75l4.625,2.671Zm.737-10.273-5.363-3.1V158.9l5.363,3.1Zm-2.951,15.344-2.412-1.393v2.751l2.412,1.392Zm4.18-1.185,4.795,2.768V173.42l-4.795-2.768Zm.861,10.417-7.453-4.3v2.75l7.453,4.3ZM474.1,222.7l4.979,2.874v-2.751l-4.979-2.874Zm-6.884-10.3,7.853,4.534v-2.751l-7.853-4.534Zm11.8-2.285L464.7,201.846V204.6l14.322,8.269ZM411.65,154.265l-7.576-4.374v2.751l7.576,4.374Zm64.972,63.565,2.582,1.491V216.57l-2.582-1.491ZM417.8,164.069l-6.392-3.69v2.751l6.392,3.69Zm56.428,29.075,4.979,2.875v-2.751l-4.979-2.875Zm-52,3.2-4.795-2.768v2.75l4.795,2.768Zm-13.769-17.869,13.277,7.666v-2.75l-13.277-7.666Zm18.317,14.147-13.277-7.666v2.751l13.277,7.666Zm-11.31-.181-11.387-6.575v2.751l11.387,6.574Zm-8.974,18.236-2.412-1.393v2.751l2.412,1.393Zm5.041,15.606-7.453-4.3v2.751l7.453,4.3Zm17.211,12.688,2.951,1.7v-2.751l-2.951-1.7Zm-19.3-20.242-5.363-3.1v2.751l5.363,3.1Zm67.185,35.192,2.582,1.491v-2.751l-2.582-1.491Zm-2.4-14.08,4.979,2.874v-2.75l-4.979-2.875Zm-5.532,13.1-15.368-8.872v2.751l15.368,8.872Zm-44.873-38.6-6.392-3.691v2.751l6.392,3.691Zm14.138,8.163-12.171-7.027v2.751l12.171,7.026Zm2.7,14.258-8.606-4.968v2.751l8.606,4.968Zm-14.015-14.44-2.951-1.7v2.75l2.951,1.7Zm44.2,34.616,8.36,4.826v-2.751l-8.36-4.826Zm-24.157-29.395-6.762-3.9v2.75l6.762,3.9Zm-2.7-7.909-10.2-5.891v2.751l10.2,5.89Zm-5.163,9.715-10.2-5.891V226.2l10.2,5.891ZM459.35,237.6l3.734,2.156V237l-3.734-2.156Zm-29.26-6.947-10.326-5.962v2.751L430.09,233.4Zm42.168,5.3-10.2-5.891v2.751l10.2,5.891ZM410.666,209.49l4.795,2.768v-2.751l-4.795-2.768Zm16.1,25.592-13.277-7.666v2.751l13.277,7.666Zm-13.154-30.236,13.278,7.666v-2.751l-13.278-7.666ZM465.25,244.6l-8.36-4.826v2.751l8.36,4.826Zm-56.8-30.041,13.277,7.666v-2.751l-13.277-7.666Zm9.343,8.992-6.392-3.69v2.751l6.392,3.69ZM408.7,205.6l-4.625-2.67v2.75l4.625,2.671Zm66.371,44.668-7.853-4.534v2.751l7.853,4.534Zm3.949-4.068L464.7,237.934v2.751l14.322,8.269Zm-47.208-33.6-2.951-1.7v2.751l2.951,1.7ZM411.65,200.959l-7.576-4.374v2.751l7.576,4.374Zm15.627,54.481,4.794,2.767v-2.75l-4.794-2.768Zm2.951-4.645,13.278,7.666v-2.751l-13.278-7.666Zm-4.917.758-4.626-2.671v2.751l4.626,2.671Zm2.951-4.645-7.576-4.374v2.75l7.576,4.374Zm29.122-13.2-8.728-5.04v2.751l8.728,5.04Zm2.7-2.036v-2.751l-3.811-2.2v2.751Zm-5.163,6.965-3.811-2.2v2.75l3.811,2.2Zm-.615-13.051-8.36-4.826v2.75l8.36,4.827Zm-5.164,9.716-8.36-4.827v2.751l8.36,4.826Zm2.213,7.625-8.728-5.039v2.751l8.728,5.039Z" transform="translate(-337.423 -85.135)" fill="#afb6e5" style="mix-blend-mode: multiply;isolation: isolate"/>
      <g id="Grupo_128892" data-name="Grupo 128892" transform="translate(32.684 24.158)">
        <path id="Unión_4" data-name="Unión 4" d="M21.135,115.969a12.278,12.278,0,0,1-2.677-.525.647.647,0,1,1,.383-1.237,10.883,10.883,0,0,0,2.392.471.647.647,0,0,1-.048,1.292Zm1.989-.674a.647.647,0,0,1,.483-.778,6.449,6.449,0,0,0,2.149-.924.647.647,0,1,1,.721,1.076,7.784,7.784,0,0,1-2.577,1.109.627.627,0,0,1-.148.017A.647.647,0,0,1,23.124,115.3Zm-7.16-.872q-.481-.245-.971-.526c-.447-.257-.889-.536-1.327-.831a.647.647,0,0,1,.726-1.072q.616.418,1.249.783.456.264.907.491a.647.647,0,0,1-.583,1.156Zm11.621-1.562a.648.648,0,0,1-.142-.9,8.776,8.776,0,0,0,1.119-2.125.647.647,0,0,1,1.214.449,10.052,10.052,0,0,1-1.286,2.438.648.648,0,0,1-.9.142Zm-16.035-1.4c-.655-.555-1.308-1.16-1.939-1.8a.647.647,0,1,1,.922-.909c.6.614,1.227,1.193,1.853,1.722a.647.647,0,0,1-.836.988ZM7.51,101.067C3.145,93.6,3.1,85.5,7.412,82.983s11.345,1.49,15.71,8.957,4.41,15.563.1,18.084a5.691,5.691,0,0,1-2.911.753C16.169,110.778,10.991,107.022,7.51,101.067ZM29.7,108.193a.647.647,0,0,1-.543-.737,16.568,16.568,0,0,0,.178-2.483q0-.385-.014-.773a.647.647,0,1,1,1.293-.048c.01.275.016.548.016.822a17.968,17.968,0,0,1-.193,2.676.647.647,0,0,1-.64.55A.636.636,0,0,1,29.7,108.193Zm-21.864-.5c-.552-.661-1.092-1.363-1.61-2.087a.647.647,0,0,1,1.054-.751c.5.7,1.019,1.374,1.551,2.01a.647.647,0,0,1-.995.829Zm-3.06-4.289c-.458-.751-.892-1.525-1.289-2.3a.647.647,0,0,1,1.151-.591c.385.749.8,1.5,1.243,2.22a.647.647,0,1,1-1.1.672Zm24.3-1.709c-.124-.806-.294-1.638-.507-2.474a.647.647,0,1,1,1.255-.319c.223.876.4,1.749.532,2.6a.647.647,0,1,1-1.279.2ZM2.371,98.719c-.343-.808-.657-1.639-.934-2.468a.647.647,0,1,1,1.226-.412c.268.8.57,1.6.9,2.374a.647.647,0,0,1-.343.848.637.637,0,0,1-.253.051A.647.647,0,0,1,2.371,98.719ZM27.843,96.8c-.274-.785-.586-1.581-.928-2.365a.647.647,0,0,1,1.187-.517c.355.813.679,1.639.962,2.457a.645.645,0,0,1-.4.823.618.618,0,0,1-.212.037A.647.647,0,0,1,27.843,96.8ZM.708,93.707C.5,92.825.331,91.949.215,91.1A.647.647,0,1,1,1.5,90.925c.111.806.269,1.641.47,2.48a.648.648,0,0,1-.479.781.666.666,0,0,1-.152.018A.647.647,0,0,1,.708,93.707Zm25.1-1.563c-.392-.741-.818-1.483-1.267-2.2a.647.647,0,0,1,1.1-.684c.467.747.908,1.516,1.313,2.285a.646.646,0,0,1-.271.874.636.636,0,0,1-.3.075A.644.644,0,0,1,25.81,92.143ZM.651,89.081A.646.646,0,0,1,0,88.446l0-.412A18.453,18.453,0,0,1,.136,85.77a.647.647,0,0,1,1.285.163,16.816,16.816,0,0,0-.127,2.1l0,.387a.646.646,0,0,1-.634.659Zm22.47-1.248c-.505-.693-1.035-1.362-1.573-1.991A.647.647,0,1,1,22.532,85c.56.655,1.109,1.35,1.634,2.068a.647.647,0,0,1-1.045.764Zm-3.3-3.849c-.61-.6-1.241-1.173-1.876-1.695a.647.647,0,0,1,.821-1c.667.546,1.328,1.144,1.965,1.775a.647.647,0,0,1-.91.921ZM1.129,83.943a.648.648,0,0,1-.412-.818A10.535,10.535,0,0,1,1.9,80.642a.648.648,0,0,1,1.082.712,9.165,9.165,0,0,0-1.034,2.177.644.644,0,0,1-.818.412ZM15.917,80.8c-.3-.2-.613-.388-.924-.567-.422-.242-.84-.464-1.252-.661A.647.647,0,1,1,14.3,78.4c.441.21.892.448,1.342.708q.5.287.986.6A.647.647,0,0,1,16.27,80.9.639.639,0,0,1,15.917,80.8ZM3.674,79.5a.648.648,0,0,1,.127-.907,7.7,7.7,0,0,1,2.512-1.254.648.648,0,0,1,.359,1.244A6.406,6.406,0,0,0,4.58,79.625a.646.646,0,0,1-.907-.126Zm7.753-.8a10.276,10.276,0,0,0-2.4-.386.647.647,0,0,1,.022-1.293h.022a11.565,11.565,0,0,1,2.7.432.647.647,0,0,1-.173,1.271A.664.664,0,0,1,11.427,78.695Zm9.708-1.34a12.194,12.194,0,0,1-2.677-.526.647.647,0,1,1,.383-1.237,10.882,10.882,0,0,0,2.392.471.648.648,0,0,1-.048,1.293Zm1.989-.675a.647.647,0,0,1,.483-.777,6.464,6.464,0,0,0,2.149-.924.647.647,0,1,1,.721,1.075,7.786,7.786,0,0,1-2.577,1.11.668.668,0,0,1-.148.016A.647.647,0,0,1,23.124,76.68Zm-7.16-.871c-.321-.163-.645-.338-.971-.526q-.671-.386-1.327-.831a.647.647,0,0,1,.726-1.072q.616.419,1.249.783.456.265.907.491a.647.647,0,0,1-.583,1.156Zm11.621-1.561a.649.649,0,0,1-.142-.905,8.744,8.744,0,0,0,1.119-2.124.647.647,0,0,1,1.214.448A10.052,10.052,0,0,1,28.489,74.1a.649.649,0,0,1-.9.143ZM11.55,72.842c-.655-.553-1.308-1.159-1.939-1.8a.647.647,0,1,1,.922-.909c.6.614,1.227,1.193,1.853,1.722a.647.647,0,1,1-.836.987ZM7.51,62.452c-4.366-7.468-4.41-15.564-.1-18.084s11.345,1.49,15.71,8.957,4.41,15.563.1,18.083a5.69,5.69,0,0,1-2.911.753C16.168,72.163,10.991,68.406,7.51,62.452ZM29.7,69.577a.646.646,0,0,1-.543-.737,16.567,16.567,0,0,0,.178-2.483c0-.256,0-.514-.014-.772a.647.647,0,0,1,1.293-.049c.01.276.016.549.016.822a17.961,17.961,0,0,1-.193,2.676.647.647,0,0,1-.64.55A.635.635,0,0,1,29.7,69.577Zm-21.864-.5c-.552-.662-1.092-1.364-1.61-2.087a.648.648,0,0,1,1.054-.752c.5.7,1.019,1.374,1.551,2.011a.647.647,0,0,1-.995.829Zm-3.06-4.29c-.458-.751-.892-1.525-1.289-2.3A.647.647,0,1,1,4.64,61.9c.385.749.8,1.5,1.243,2.22a.647.647,0,1,1-1.1.672Zm24.3-1.709c-.124-.807-.294-1.639-.507-2.474a.647.647,0,0,1,1.255-.318c.223.875.4,1.748.532,2.6a.647.647,0,0,1-.541.739.759.759,0,0,1-.1.007A.648.648,0,0,1,29.079,63.084ZM2.371,60.1c-.343-.808-.657-1.639-.934-2.468a.647.647,0,0,1,1.226-.412c.268.8.57,1.6.9,2.374a.646.646,0,0,1-.343.848.637.637,0,0,1-.253.051A.647.647,0,0,1,2.371,60.1Zm25.471-1.917c-.274-.785-.586-1.581-.928-2.365A.647.647,0,0,1,28.1,55.3c.355.813.679,1.639.962,2.456a.646.646,0,0,1-.4.824.636.636,0,0,1-.212.037A.648.648,0,0,1,27.843,58.186ZM.708,55.091C.5,54.21.331,53.333.215,52.486A.647.647,0,1,1,1.5,52.31c.111.806.269,1.641.47,2.48a.647.647,0,0,1-.479.78.668.668,0,0,1-.152.019A.648.648,0,0,1,.708,55.091Zm25.1-1.563c-.392-.741-.818-1.482-1.267-2.2a.647.647,0,1,1,1.1-.684c.467.747.908,1.516,1.313,2.286a.647.647,0,0,1-.271.874.636.636,0,0,1-.3.075A.645.645,0,0,1,25.81,53.528ZM.651,50.466A.647.647,0,0,1,0,49.832l0-.412a18.432,18.432,0,0,1,.136-2.264.639.639,0,0,1,.723-.561.647.647,0,0,1,.561.723,16.834,16.834,0,0,0-.127,2.1l0,.387a.647.647,0,0,1-.634.66Zm22.47-1.249c-.505-.692-1.035-1.361-1.573-1.991a.647.647,0,1,1,.984-.841c.56.655,1.109,1.35,1.634,2.069a.647.647,0,0,1-1.045.763Zm-3.3-3.849c-.61-.6-1.241-1.173-1.876-1.694a.648.648,0,0,1,.821-1c.667.547,1.328,1.144,1.965,1.775a.647.647,0,1,1-.91.921ZM1.129,45.327a.647.647,0,0,1-.412-.817A10.507,10.507,0,0,1,1.9,42.028a.647.647,0,1,1,1.082.711,9.18,9.18,0,0,0-1.034,2.177.644.644,0,0,1-.818.412Zm14.787-3.143q-.457-.3-.924-.567-.633-.365-1.252-.661a.647.647,0,1,1,.558-1.168c.441.211.892.448,1.342.708q.5.287.986.6a.647.647,0,1,1-.708,1.084Zm-12.243-1.3a.647.647,0,0,1,.127-.907,7.689,7.689,0,0,1,2.512-1.254.647.647,0,1,1,.359,1.244A6.406,6.406,0,0,0,4.58,41.01a.646.646,0,0,1-.907-.126Zm7.753-.8a10.239,10.239,0,0,0-2.4-.386A.647.647,0,0,1,9.051,38.4h.022a11.569,11.569,0,0,1,2.7.433A.647.647,0,0,1,11.6,40.1.664.664,0,0,1,11.427,40.08Zm9.708-1.125a12.2,12.2,0,0,1-2.677-.526.647.647,0,1,1,.383-1.236,10.972,10.972,0,0,0,2.392.472.647.647,0,0,1-.048,1.292Zm1.989-.675a.647.647,0,0,1,.483-.777,6.434,6.434,0,0,0,2.149-.924.647.647,0,1,1,.721,1.075,7.74,7.74,0,0,1-2.577,1.11.626.626,0,0,1-.148.016A.647.647,0,0,1,23.124,38.28Zm-7.16-.872q-.481-.244-.971-.525-.671-.388-1.327-.833a.647.647,0,0,1,.726-1.072q.616.419,1.249.783.456.265.907.491a.647.647,0,0,1-.292,1.226A.639.639,0,0,1,15.964,37.408Zm11.621-1.561a.647.647,0,0,1-.142-.9,8.79,8.79,0,0,0,1.119-2.125.647.647,0,1,1,1.214.448A10.052,10.052,0,0,1,28.489,35.7a.648.648,0,0,1-.9.142ZM11.55,34.442c-.655-.553-1.308-1.159-1.939-1.8a.647.647,0,1,1,.922-.908c.6.613,1.227,1.192,1.853,1.721a.646.646,0,0,1,.075.912.644.644,0,0,1-.911.075ZM7.51,24.053C3.145,16.585,3.1,8.489,7.412,5.969s11.345,1.49,15.71,8.957,4.41,15.564.1,18.084a5.691,5.691,0,0,1-2.911.753C16.168,33.764,10.991,30.007,7.51,24.053ZM29.7,31.177a.646.646,0,0,1-.543-.736,16.582,16.582,0,0,0,.178-2.483c0-.256,0-.514-.014-.773a.647.647,0,0,1,1.293-.049c.01.276.016.549.016.822a17.961,17.961,0,0,1-.193,2.676.636.636,0,0,1-.737.542Zm-21.864-.5c-.552-.661-1.092-1.364-1.61-2.087a.647.647,0,0,1,1.054-.751c.5.7,1.019,1.373,1.551,2.01a.647.647,0,0,1-.995.829Zm-3.06-4.289c-.458-.751-.892-1.525-1.289-2.3A.647.647,0,1,1,4.64,23.5c.385.748.8,1.494,1.243,2.219a.647.647,0,1,1-1.1.673Zm24.3-1.709c-.124-.807-.294-1.638-.507-2.474a.647.647,0,0,1,1.255-.318c.223.875.4,1.748.532,2.6a.647.647,0,0,1-1.279.2ZM2.371,21.7c-.343-.81-.657-1.64-.934-2.468a.647.647,0,1,1,1.226-.411c.268.8.57,1.6.9,2.373a.648.648,0,0,1-.343.849.637.637,0,0,1-.253.051A.647.647,0,0,1,2.371,21.7Zm25.471-1.919c-.274-.785-.586-1.58-.928-2.364A.647.647,0,0,1,28.1,16.9c.355.813.679,1.64.962,2.458a.645.645,0,0,1-.4.823.655.655,0,0,1-.212.036A.647.647,0,0,1,27.843,19.786ZM.708,16.692C.5,15.811.331,14.935.215,14.086A.647.647,0,1,1,1.5,13.911c.111.805.269,1.64.47,2.48a.648.648,0,0,1-.479.781.71.71,0,0,1-.152.017A.647.647,0,0,1,.708,16.692Zm25.1-1.563c-.392-.742-.818-1.484-1.267-2.2a.647.647,0,1,1,1.1-.684c.467.748.908,1.516,1.313,2.285a.646.646,0,0,1-.271.874.637.637,0,0,1-.3.075A.647.647,0,0,1,25.81,15.129ZM.651,12.067A.647.647,0,0,1,0,11.432l0-.412A18.432,18.432,0,0,1,.136,8.756a.637.637,0,0,1,.723-.561.647.647,0,0,1,.561.723,16.826,16.826,0,0,0-.127,2.1l0,.386a.647.647,0,0,1-.634.661Zm22.47-1.249c-.505-.691-1.035-1.361-1.573-1.991a.647.647,0,0,1,.984-.84c.56.655,1.109,1.351,1.634,2.069a.647.647,0,1,1-1.045.763Zm-3.3-3.849c-.61-.6-1.241-1.173-1.876-1.694a.647.647,0,1,1,.821-1c.667.546,1.328,1.143,1.965,1.774a.647.647,0,1,1-.91.92ZM1.129,6.928a.647.647,0,0,1-.412-.817A10.507,10.507,0,0,1,1.9,3.628a.647.647,0,1,1,1.082.71A9.163,9.163,0,0,0,1.947,6.517a.647.647,0,0,1-.614.444A.625.625,0,0,1,1.129,6.928ZM15.917,3.785q-.457-.3-.924-.568-.633-.365-1.252-.661A.647.647,0,1,1,14.3,1.389c.441.21.892.448,1.342.707q.5.286.986.605a.647.647,0,0,1-.708,1.083ZM3.674,2.485A.647.647,0,0,1,3.8,1.578,7.674,7.674,0,0,1,6.313.324a.647.647,0,1,1,.359,1.244A6.378,6.378,0,0,0,4.58,2.612a.65.65,0,0,1-.907-.127Zm7.753-.8a10.238,10.238,0,0,0-2.4-.386A.648.648,0,0,1,9.051,0h.022a11.65,11.65,0,0,1,2.7.434A.647.647,0,0,1,11.6,1.7.663.663,0,0,1,11.427,1.681Z" fill="url(#linear-gradient-3)"/>
        <path id="Trazado_188802" data-name="Trazado 188802" d="M379.84,121.291l-2.457-1.418v-1.912A6.951,6.951,0,0,0,379,118.7a1.174,1.174,0,0,0,.972-.089,1.994,1.994,0,0,0,.64-.941l1.58.912v17.158l-2.349-1.357Z" transform="translate(-365.525 -107.03)" fill="#fff"/>
        <path id="Trazado_188803" data-name="Trazado 188803" d="M377.1,177.2a6.445,6.445,0,0,1,.513-2.854,4.843,4.843,0,0,1,1.836-1.844,5.583,5.583,0,0,0,1.8-1.678,3.953,3.953,0,0,0,.5-2.063,3.844,3.844,0,0,0-.31-1.711,2.274,2.274,0,0,0-.907-.953q-1.218-.7-1.218.988v1.838l-2.222-1.282v-1.667q0-2.084.9-2.681t2.606.389a6.751,6.751,0,0,1,2.606,2.62,7.6,7.6,0,0,1,.9,3.717,5.247,5.247,0,0,1-.652,2.688,6.608,6.608,0,0,1-2.253,2.131,4.473,4.473,0,0,0-1.41,1.257,2.8,2.8,0,0,0-.363,1.493v.368l4.464,2.577v2.452l-6.792-3.922Z" transform="translate(-365.476 -114.824)" fill="#fff"/>
        <path id="Trazado_188804" data-name="Trazado 188804" d="M377.983,225.454a7.5,7.5,0,0,1-.886-3.674v-1.4l2.222,1.282v1.52a2.536,2.536,0,0,0,1.218,2.394q.6.345.908.1t.309-1.329v-1.4a4.185,4.185,0,0,0-.363-1.889,2.892,2.892,0,0,0-1.175-1.18l-.79-.456v-2.451l.854.494q.706.406,1.058.194t.352-1.194v-1.251a3.124,3.124,0,0,0-.321-1.484,2.234,2.234,0,0,0-.854-.91q-1.133-.654-1.132.94v1.127l-2.222-1.283V212.7q0-2.059.886-2.65t2.553.371a6.621,6.621,0,0,1,2.563,2.57,7.475,7.475,0,0,1,.876,3.656v.613a3.763,3.763,0,0,1-.406,2.008,1.179,1.179,0,0,1-1.261.486v.049a5.584,5.584,0,0,1,1.325,2.039,7.255,7.255,0,0,1,.406,2.489v1.519q0,2.06-.886,2.638t-2.617-.42A6.752,6.752,0,0,1,377.983,225.454Z" transform="translate(-365.476 -122.849)" fill="#fff"/>
      </g>
      <g id="Grupo_128893" data-name="Grupo 128893" transform="translate(66.353 144.992)">
        <path id="Trazado_188805" data-name="Trazado 188805" d="M416.206,258.25l-12.487-7.55c0,3.993,0,11.792,0,14.29l12.491,7.157Z" transform="translate(-403.715 -250.7)" fill="#fff"/>
        <path id="Trazado_188806" data-name="Trazado 188806" d="M416.206,270.853l-11.935-6.836c0-2.219,0-9.606,0-12.991l-.555-.326c0,3.993,0,11.792,0,14.29l12.491,7.157Z" transform="translate(-403.715 -250.7)" fill="#afb6e5"/>
      </g>
      <g id="Grupo_128895" data-name="Grupo 128895" transform="translate(101.714 189.393)">
        <g id="Grupo_128894" data-name="Grupo 128894" transform="translate(1.217)" opacity="0.3" style="mix-blend-mode: multiply;isolation: isolate">
          <path id="Trazado_188807" data-name="Trazado 188807" d="M458.447,305.395c-4.394-2.536-7.955-.505-7.955,4.536v11.642c0,5.041,3.562,11.185,7.955,13.722l22.943,13.37c4.394,2.536,9.717.227,9.717-4.814V332.207c0-5.042-5.323-10.907-9.717-13.443Z" transform="translate(-448.322 -304.302)" fill="#ccbb8b" opacity="0"/>
          <path id="Trazado_188808" data-name="Trazado 188808" d="M458.171,305.824c-4.372-2.524-7.917-.5-7.917,4.514v11.083c0,5.017,3.545,11.131,7.917,13.655l22.682,13.218c4.372,2.525,9.518.25,9.518-4.766V332.444c0-5.017-5.146-10.878-9.518-13.4Z" transform="translate(-448.281 -304.377)" fill="#ccb780" opacity="0.091"/>
          <path id="Trazado_188809" data-name="Trazado 188809" d="M457.894,306.253c-4.35-2.512-7.878-.5-7.878,4.492v10.524c0,4.992,3.527,11.076,7.878,13.588l22.42,13.067c4.351,2.512,9.319.273,9.319-4.72V332.681c0-4.992-4.968-10.848-9.319-13.36Z" transform="translate(-448.24 -304.451)" fill="#cbb476" opacity="0.182"/>
          <path id="Trazado_188810" data-name="Trazado 188810" d="M457.617,306.682c-4.329-2.5-7.839-.5-7.839,4.47v9.965c0,4.968,3.51,11.022,7.839,13.522l22.159,12.916c4.33,2.5,9.12.3,9.12-4.673v-9.965c0-4.968-4.79-10.819-9.12-13.318Z" transform="translate(-448.199 -304.526)" fill="#cbb06b" opacity="0.273"/>
          <path id="Trazado_188811" data-name="Trazado 188811" d="M457.34,307.111c-4.307-2.487-7.8-.5-7.8,4.447v9.407c0,4.944,3.492,10.967,7.8,13.454l21.9,12.766c4.307,2.487,8.921.319,8.921-4.625v-9.406c0-4.944-4.613-10.79-8.921-13.278Z" transform="translate(-448.158 -304.601)" fill="#caac60" opacity="0.364"/>
          <path id="Trazado_188812" data-name="Trazado 188812" d="M457.063,307.54c-4.287-2.474-7.762-.494-7.762,4.426v8.847c0,4.919,3.475,10.913,7.762,13.388L478.7,346.816c4.287,2.475,8.723.341,8.723-4.577V333.39c0-4.919-4.436-10.76-8.723-13.235Z" transform="translate(-448.117 -304.675)" fill="#caa955" opacity="0.455"/>
          <path id="Trazado_188813" data-name="Trazado 188813" d="M456.786,307.969c-4.265-2.462-7.723-.491-7.723,4.4v8.288c0,4.894,3.458,10.858,7.723,13.321l21.376,12.464c4.265,2.462,8.523.364,8.523-4.53v-8.288c0-4.894-4.258-10.731-8.523-13.194Z" transform="translate(-448.076 -304.75)" fill="#c9a54b" opacity="0.545"/>
          <path id="Trazado_188814" data-name="Trazado 188814" d="M456.509,308.4c-4.244-2.449-7.684-.489-7.684,4.381v7.729a16.93,16.93,0,0,0,7.684,13.254l21.114,12.313c4.244,2.45,8.325.388,8.325-4.482v-7.729c0-4.87-4.08-10.7-8.325-13.153Z" transform="translate(-448.036 -304.824)" fill="#c9a240" opacity="0.636"/>
          <path id="Trazado_188815" data-name="Trazado 188815" d="M456.232,308.827c-4.222-2.438-7.645-.486-7.645,4.359v7.171a16.846,16.846,0,0,0,7.645,13.187l20.853,12.163c4.222,2.438,8.125.41,8.125-4.435V334.1c0-4.845-3.9-10.673-8.125-13.111Z" transform="translate(-447.995 -304.899)" fill="#c89e35" opacity="0.727"/>
          <path id="Trazado_188816" data-name="Trazado 188816" d="M455.955,309.257c-4.2-2.425-7.606-.484-7.606,4.337V320.2a16.761,16.761,0,0,0,7.606,13.12l20.592,12.011c4.2,2.425,7.927.433,7.927-4.387v-6.612c0-4.82-3.726-10.643-7.927-13.069Z" transform="translate(-447.954 -304.973)" fill="#c89a2a" opacity="0.818"/>
          <path id="Trazado_188817" data-name="Trazado 188817" d="M455.678,309.686c-4.179-2.413-7.568-.481-7.568,4.315v6.053a16.676,16.676,0,0,0,7.568,13.053l20.33,11.86c4.18,2.413,7.728.456,7.728-4.34v-6.053c0-4.8-3.548-10.614-7.728-13.027Z" transform="translate(-447.913 -305.048)" fill="#c79720" opacity="0.909"/>
          <path id="Trazado_188818" data-name="Trazado 188818" d="M455.4,310.115c-4.158-2.4-7.529-.479-7.529,4.292V319.9a16.589,16.589,0,0,0,7.529,12.986L475.47,344.6c4.158,2.4,7.529.479,7.529-4.292v-5.494a16.591,16.591,0,0,0-7.529-12.986Z" transform="translate(-447.872 -305.123)" fill="#c79315"/>
        </g>
        <path id="Trazado_188819" data-name="Trazado 188819" d="M480.261,348.893,452.937,333c-3.593-2.075-6.534-7.694-6.534-12.486v-7.072c0-4.792,2.941-7.015,6.534-4.94l27.324,15.893c3.594,2.075,6.535,7.694,6.535,12.486v7.073C486.8,348.746,483.855,350.968,480.261,348.893Z" transform="translate(-446.403 -304.89)" fill="url(#linear-gradient-4)"/>
        <path id="Trazado_188820" data-name="Trazado 188820" d="M484.383,326.172l-13.968-8.094v24.5l13.968,8.094c3.594,2.075,6.535-.147,6.535-4.939v-7.073C490.918,333.865,487.977,328.247,484.383,326.172Z" transform="translate(-450.525 -306.667)" fill="url(#linear-gradient-5)"/>
        <path id="Trazado_188821" data-name="Trazado 188821" d="M480.261,324.395,452.937,308.5c-3.593-2.075-6.534.148-6.534,4.94v.733c0-4.792,2.941-7.014,6.534-4.939l27.324,15.893c3.594,2.075,6.535,7.694,6.535,12.486v-.734C486.8,332.088,483.855,326.47,480.261,324.395Z" transform="translate(-446.403 -304.89)" fill="url(#radial-gradient)" style="mix-blend-mode: color-dodge;isolation: isolate"/>
      </g>
      <g id="Grupo_128897" data-name="Grupo 128897" transform="translate(57.34 163.655)">
        <g id="Grupo_128896" data-name="Grupo 128896" transform="translate(1.218)" opacity="0.3" style="mix-blend-mode: multiply;isolation: isolate">
          <path id="Trazado_188822" data-name="Trazado 188822" d="M404.879,274.323c-4.394-2.536-7.955-.506-7.955,4.536V290.5c0,5.041,3.562,11.185,7.955,13.722l22.943,13.369c4.394,2.537,9.716.228,9.716-4.814V301.135c0-5.042-5.322-10.907-9.716-13.443Z" transform="translate(-394.754 -273.23)" fill="#ccbb8b" opacity="0"/>
          <path id="Trazado_188823" data-name="Trazado 188823" d="M404.6,274.752c-4.373-2.524-7.917-.5-7.917,4.514v11.083c0,5.017,3.544,11.131,7.917,13.655l22.681,13.218c4.373,2.525,9.518.25,9.518-4.767V301.372c0-5.017-5.145-10.877-9.518-13.4Z" transform="translate(-394.713 -273.305)" fill="#ccb780" opacity="0.091"/>
          <path id="Trazado_188824" data-name="Trazado 188824" d="M404.325,275.181c-4.351-2.512-7.878-.5-7.878,4.491V290.2c0,4.992,3.527,11.076,7.878,13.588l22.42,13.067c4.35,2.512,9.318.272,9.318-4.72V301.608c0-4.992-4.968-10.848-9.318-13.36Z" transform="translate(-394.672 -273.379)" fill="#cbb476" opacity="0.182"/>
          <path id="Trazado_188825" data-name="Trazado 188825" d="M404.049,275.61c-4.33-2.5-7.84-.5-7.84,4.47v9.965c0,4.968,3.51,11.022,7.84,13.521l22.159,12.916c4.329,2.5,9.119.3,9.119-4.672v-9.965c0-4.968-4.79-10.819-9.119-13.319Z" transform="translate(-394.631 -273.454)" fill="#cbb06b" opacity="0.273"/>
          <path id="Trazado_188826" data-name="Trazado 188826" d="M403.772,276.039c-4.308-2.487-7.8-.5-7.8,4.447v9.407c0,4.943,3.492,10.966,7.8,13.454l21.9,12.766c4.308,2.488,8.921.319,8.921-4.625v-9.406c0-4.944-4.612-10.79-8.921-13.278Z" transform="translate(-394.59 -273.528)" fill="#caac60" opacity="0.364"/>
          <path id="Trazado_188827" data-name="Trazado 188827" d="M403.495,276.468c-4.287-2.475-7.762-.494-7.762,4.425v8.848c0,4.919,3.475,10.913,7.762,13.388l21.637,12.615c4.287,2.474,8.722.341,8.722-4.577v-8.848c0-4.919-4.435-10.76-8.722-13.235Z" transform="translate(-394.549 -273.603)" fill="#caa955" opacity="0.455"/>
          <path id="Trazado_188828" data-name="Trazado 188828" d="M403.218,276.9c-4.265-2.463-7.723-.491-7.723,4.4v8.288c0,4.894,3.458,10.858,7.723,13.32l21.375,12.464c4.265,2.463,8.523.364,8.523-4.529v-8.288c0-4.894-4.258-10.731-8.523-13.194Z" transform="translate(-394.508 -273.678)" fill="#c9a54b" opacity="0.545"/>
          <path id="Trazado_188829" data-name="Trazado 188829" d="M402.941,277.326c-4.244-2.45-7.685-.489-7.685,4.381v7.729a16.932,16.932,0,0,0,7.685,13.254L424.054,315c4.244,2.45,8.324.388,8.324-4.482v-7.729c0-4.87-4.081-10.7-8.324-13.153Z" transform="translate(-394.467 -273.752)" fill="#c9a240" opacity="0.636"/>
          <path id="Trazado_188830" data-name="Trazado 188830" d="M402.664,277.755c-4.223-2.438-7.646-.486-7.646,4.359v7.171a16.845,16.845,0,0,0,7.646,13.186l20.853,12.163c4.222,2.437,8.125.41,8.125-4.435v-7.171c0-4.845-3.9-10.672-8.125-13.11Z" transform="translate(-394.427 -273.827)" fill="#c89e35" opacity="0.727"/>
          <path id="Trazado_188831" data-name="Trazado 188831" d="M402.387,278.185c-4.2-2.425-7.607-.484-7.607,4.336v6.612a16.76,16.76,0,0,0,7.607,13.12l20.591,12.011c4.2,2.425,7.927.433,7.927-4.387v-6.612c0-4.82-3.726-10.643-7.927-13.069Z" transform="translate(-394.386 -273.901)" fill="#c89a2a" opacity="0.818"/>
          <path id="Trazado_188832" data-name="Trazado 188832" d="M402.11,278.614c-4.18-2.413-7.568-.481-7.568,4.315v6.053a16.674,16.674,0,0,0,7.568,13.052l20.33,11.861c4.179,2.413,7.728.456,7.728-4.34V303.5c0-4.8-3.549-10.614-7.728-13.027Z" transform="translate(-394.345 -273.976)" fill="#c79720" opacity="0.909"/>
          <path id="Trazado_188833" data-name="Trazado 188833" d="M401.832,279.043c-4.158-2.4-7.528-.479-7.528,4.293v5.494a16.59,16.59,0,0,0,7.528,12.986l20.069,11.71c4.158,2.4,7.529.48,7.529-4.292v-5.494a16.587,16.587,0,0,0-7.529-12.985Z" transform="translate(-394.304 -274.05)" fill="#c79315"/>
        </g>
        <path id="Trazado_188834" data-name="Trazado 188834" d="M426.693,317.821l-27.324-15.893c-3.594-2.075-6.535-7.694-6.535-12.486V282.37c0-4.792,2.941-7.015,6.535-4.94l27.324,15.893c3.593,2.075,6.534,7.694,6.534,12.486v7.072C433.227,317.673,430.286,319.9,426.693,317.821Z" transform="translate(-392.834 -273.818)" fill="url(#linear-gradient-6)"/>
        <path id="Trazado_188835" data-name="Trazado 188835" d="M430.815,295.1l-13.968-8.095v24.5l13.968,8.095c3.594,2.075,6.534-.148,6.534-4.94v-7.072C437.349,302.793,434.409,297.175,430.815,295.1Z" transform="translate(-396.956 -275.595)" fill="url(#linear-gradient-7)"/>
        <path id="Trazado_188836" data-name="Trazado 188836" d="M426.693,293.323,399.369,277.43c-3.594-2.075-6.535.148-6.535,4.94v.733c0-4.792,2.941-7.015,6.535-4.94l27.324,15.894c3.594,2.075,6.534,7.693,6.534,12.485v-.733C433.227,301.016,430.287,295.4,426.693,293.323Z" transform="translate(-392.834 -273.818)" fill="url(#radial-gradient-2)" style="mix-blend-mode: color-dodge;isolation: isolate"/>
      </g>
      <path id="Trazado_188837" data-name="Trazado 188837" d="M461.416,323.912l7.459,16.244L482.742,325.6c.485-.508.148-1.8-.659-2.536l-4.253-3.873c-.565-.514-1.166-.562-1.432-.113l-7.523,12.683-3.258-7.819a2.3,2.3,0,0,0-1.422-1.4l-2.172-.423C461.242,321.961,460.937,322.866,461.416,323.912Z" transform="translate(-347.227 -117.392)" fill="#cb923d" opacity="0.437" style="mix-blend-mode: multiply;isolation: isolate"/>
      <path id="Trazado_188838" data-name="Trazado 188838" d="M460.8,324.16l7.458,16.243,13.867-14.556c.484-.509.148-1.8-.659-2.537l-4.253-3.873c-.565-.514-1.166-.562-1.432-.113l-7.524,12.683L465,324.189a2.3,2.3,0,0,0-1.421-1.4l-2.172-.423C460.621,322.209,460.315,323.115,460.8,324.16Z" transform="translate(-347.12 -117.435)" fill="#fff"/>
      <path id="Trazado_188839" data-name="Trazado 188839" d="M423.832,308.708l-4.21-7.261,4.21-2.4c.274-.157.274-.666,0-1.138L421,293.028c-.273-.472-.717-.729-.992-.572l-4.21,2.4-4.21-7.26c-.273-.473-.717-.729-.992-.573l-2.83,1.614c-.274.156-.274.665,0,1.138l4.21,7.261-3.97,2.263c-.274.157-.274.666,0,1.138l2.83,4.881c.273.472.717.729.992.572l3.97-2.264,4.21,7.261c.274.472.718.729.992.572l2.829-1.613C424.106,309.689,424.106,309.18,423.832,308.708Z" transform="translate(-338.022 -111.935)" fill="#cb923d" opacity="0.437" style="mix-blend-mode: multiply;isolation: isolate"/>
      <path id="Trazado_188840" data-name="Trazado 188840" d="M423.17,309.019l-4.211-7.261,4.211-2.4c.273-.156.273-.665,0-1.137l-2.83-4.881c-.274-.472-.718-.729-.992-.572l-4.21,2.4-4.21-7.261c-.273-.472-.717-.728-.992-.572l-2.83,1.614c-.273.156-.273.665,0,1.137l4.21,7.261-3.97,2.264c-.274.157-.274.666,0,1.138l2.83,4.881c.274.472.718.728.992.572l3.97-2.264,4.211,7.261c.273.472.717.729.992.572l2.83-1.613C423.443,310,423.443,309.491,423.17,309.019Z" transform="translate(-337.909 -111.988)" fill="#fff"/>
      <g id="Grupo_128900" data-name="Grupo 128900" transform="translate(0 154.164)">
        <g id="Grupo_128898" data-name="Grupo 128898" transform="translate(0 81.122)" opacity="0.2">
          <path id="Trazado_188841" data-name="Trazado 188841" d="M356.54,359.7a7.5,7.5,0,0,1,3.742.9l1.305,1.21a3.962,3.962,0,0,1,2.148,3.421,4.6,4.6,0,0,1-2.586,3.883l-10.916,5.523-10.916,5.522a9.212,9.212,0,0,1-4.545,1.156,7.494,7.494,0,0,1-3.743-.9l-5.271-2.351a3.96,3.96,0,0,1-2.147-3.42,4.607,4.607,0,0,1,2.585-3.883l12.9-4.952,12.9-4.953A9.219,9.219,0,0,1,356.54,359.7Z" transform="translate(-323.612 -359.705)" fill="#afb6e5" opacity="0"/>
          <path id="Trazado_188842" data-name="Trazado 188842" d="M361.58,362.008a3.645,3.645,0,0,1,2.014,3.342,4.612,4.612,0,0,1-2.6,3.738l-10.744,5.359-.719.359-10.024,5a9.332,9.332,0,0,1-4.463,1.139,8.746,8.746,0,0,1-2.417-.314,6.455,6.455,0,0,1-1.257-.512c-.036.007-3.162-1.376-3.187-1.392l-1.987-.9a3.642,3.642,0,0,1-2.011-3.343,4.617,4.617,0,0,1,2.6-3.739l11.726-4.467.955-.364,12.685-4.832a9.073,9.073,0,0,1,3.135-1.04,9.708,9.708,0,0,1,1.33-.1,7.462,7.462,0,0,1,3.356.708c.105.052.218.113.318.171Z" transform="translate(-323.71 -359.746)" fill="#aeb4de" opacity="0.048"/>
          <path id="Trazado_188843" data-name="Trazado 188843" d="M361.571,362.2a3.638,3.638,0,0,1,1.86,2.66,4.317,4.317,0,0,1,.02.606c0,1.374-1.128,2.734-2.615,3.593l-10.572,5.2-.709.348-9.861,4.848a9.448,9.448,0,0,1-4.38,1.123,9.168,9.168,0,0,1-2.371-.277,6.527,6.527,0,0,1-1.236-.473c-.072.013-3.084-1.3-3.134-1.337l-1.946-.888a3.637,3.637,0,0,1-1.849-2.608,4.239,4.239,0,0,1-.026-.659c0-1.374,1.134-2.736,2.62-3.594l11.526-4.355.938-.355,12.471-4.712a9.367,9.367,0,0,1,3.081-1.017,9.726,9.726,0,0,1,1.305-.11,7.259,7.259,0,0,1,3.294.689c.1.05.216.113.311.168Z" transform="translate(-323.808 -359.787)" fill="#aeb2d7" opacity="0.095"/>
          <path id="Trazado_188844" data-name="Trazado 188844" d="M361.561,362.386a3.414,3.414,0,0,1,1.745,2.608,5.188,5.188,0,0,1,0,.578c0,1.3-1.223,2.635-2.631,3.448l-10.4,5.034-.7.338-9.7,4.7a9.6,9.6,0,0,1-4.3,1.106,9.726,9.726,0,0,1-2.324-.239,6.883,6.883,0,0,1-1.214-.434c-.109.02-3.005-1.235-3.08-1.284l-1.9-.879a3.414,3.414,0,0,1-1.736-2.559,4.986,4.986,0,0,1,0-.63c0-1.3,1.229-2.637,2.637-3.451l11.324-4.243.921-.345,12.257-4.591a9.636,9.636,0,0,1,3.026-.995,9.486,9.486,0,0,1,1.28-.118A7.016,7.016,0,0,1,360,361.1c.094.048.215.113.3.166Z" transform="translate(-323.904 -359.829)" fill="#adb1cf" opacity="0.143"/>
          <path id="Trazado_188845" data-name="Trazado 188845" d="M361.55,362.574a3.2,3.2,0,0,1,1.631,2.557c.016.176-.019.371-.019.553,0,1.229-1.315,2.535-2.646,3.3l-10.228,4.872-.688.327-9.536,4.543a9.773,9.773,0,0,1-4.216,1.09,10.329,10.329,0,0,1-2.277-.2,7.169,7.169,0,0,1-1.194-.394c-.144.026-2.926-1.165-3.025-1.23l-1.863-.87a3.2,3.2,0,0,1-1.623-2.511c-.02-.191.019-.4.019-.6,0-1.229,1.325-2.538,2.655-3.306l11.124-4.131.9-.335,12.043-4.471a9.989,9.989,0,0,1,2.971-.972,9.218,9.218,0,0,1,1.255-.128,6.784,6.784,0,0,1,3.17.649c.09.045.213.114.3.162Z" transform="translate(-323.998 -359.87)" fill="#adafc8" opacity="0.19"/>
          <path id="Trazado_188846" data-name="Trazado 188846" d="M361.537,362.764a2.986,2.986,0,0,1,1.518,2.506c.01.166-.039.355-.039.525,0,1.158-1.409,2.435-2.661,3.158L350.3,373.661l-.677.316-9.374,4.392a9.977,9.977,0,0,1-4.133,1.074,11.147,11.147,0,0,1-2.23-.166,7.591,7.591,0,0,1-1.172-.355,26.89,26.89,0,0,1-2.972-1.176l-1.822-.861a2.983,2.983,0,0,1-1.508-2.462c-.014-.181.041-.388.041-.573,0-1.157,1.421-2.438,2.673-3.161l10.923-4.019.887-.326,11.829-4.351a10.419,10.419,0,0,1,2.917-.949,9.236,9.236,0,0,1,1.23-.135,6.545,6.545,0,0,1,3.108.629c.084.043.211.114.292.161Z" transform="translate(-324.092 -359.911)" fill="#acadc1" opacity="0.238"/>
          <path id="Trazado_188847" data-name="Trazado 188847" d="M361.524,362.952a2.785,2.785,0,0,1,1.4,2.454c.005.156-.059.34-.059.5,0,1.085-1.5,2.335-2.676,3.013l-9.884,4.547-.666.3-9.211,4.239a10.207,10.207,0,0,1-4.051,1.058,12.056,12.056,0,0,1-2.184-.129,7.927,7.927,0,0,1-1.151-.316,21.508,21.508,0,0,1-2.918-1.122l-1.78-.853a2.778,2.778,0,0,1-1.4-2.413c-.007-.17.064-.37.064-.544,0-1.085,1.517-2.339,2.69-3.017l10.723-3.907.87-.317,11.615-4.23a10.852,10.852,0,0,1,2.863-.927,8.954,8.954,0,0,1,1.2-.144,6.319,6.319,0,0,1,3.046.61c.079.04.21.113.286.157Z" transform="translate(-324.186 -359.952)" fill="#acabba" opacity="0.286"/>
          <path id="Trazado_188848" data-name="Trazado 188848" d="M361.505,363.14a2.33,2.33,0,0,1,1.29,2.4c.026.142-.078.323-.078.472,0,1.013-1.6,2.236-2.691,2.868l-9.712,4.384-.656.295-9.048,4.087a10.5,10.5,0,0,1-3.969,1.04,13.147,13.147,0,0,1-2.135-.092,8.63,8.63,0,0,1-1.131-.277,17.619,17.619,0,0,1-2.864-1.068l-1.739-.845a2.311,2.311,0,0,1-1.282-2.364c-.031-.156.086-.354.086-.516,0-1.012,1.612-2.24,2.708-2.873l10.522-3.795.853-.308,11.4-4.11a11.413,11.413,0,0,1,2.808-.9,9.146,9.146,0,0,1,1.18-.152,6.1,6.1,0,0,1,2.984.59c.074.037.209.114.279.155Z" transform="translate(-324.273 -359.993)" fill="#aba9b3" opacity="0.333"/>
          <path id="Trazado_188849" data-name="Trazado 188849" d="M361.488,363.33a2.14,2.14,0,0,1,1.175,2.352c.025.133-.1.308-.1.446,0,.94-1.688,2.135-2.705,2.723l-9.54,4.221-.645.284-8.886,3.935a10.829,10.829,0,0,1-3.886,1.025,14.751,14.751,0,0,1-2.089-.055,9.53,9.53,0,0,1-1.109-.238,14.828,14.828,0,0,1-2.81-1.014l-1.7-.836a2.123,2.123,0,0,1-1.169-2.316c-.03-.145.109-.336.109-.487,0-.94,1.708-2.141,2.725-2.729l10.321-3.683.836-.3,11.188-3.99a12,12,0,0,1,2.753-.882,8.736,8.736,0,0,1,1.155-.161,5.877,5.877,0,0,1,2.922.569c.068.036.207.115.272.152Z" transform="translate(-324.361 -360.034)" fill="#aaa8ab" opacity="0.381"/>
          <path id="Trazado_188850" data-name="Trazado 188850" d="M361.469,363.518a1.969,1.969,0,0,1,1.062,2.3c.022.123-.118.292-.118.42,0,.868-1.782,2.036-2.721,2.578l-9.368,4.059-.635.273-8.723,3.782a11.235,11.235,0,0,1-3.8,1.009,16.672,16.672,0,0,1-2.042-.018,10.1,10.1,0,0,1-1.088-.2,12.565,12.565,0,0,1-2.756-.959l-1.655-.828a1.95,1.95,0,0,1-1.056-2.267c-.027-.133.132-.32.132-.459,0-.868,1.8-2.042,2.742-2.584l10.122-3.571.818-.289,10.974-3.87a12.764,12.764,0,0,1,2.7-.859,8.611,8.611,0,0,1,1.13-.17,5.652,5.652,0,0,1,2.859.55c.063.032.205.114.266.149Z" transform="translate(-324.448 -360.074)" fill="#aaa6a4" opacity="0.429"/>
          <path id="Trazado_188851" data-name="Trazado 188851" d="M361.448,363.707a1.809,1.809,0,0,1,.948,2.249c.021.113-.138.276-.138.393,0,.8-1.875,1.936-2.735,2.432l-9.2,3.9-.624.263-8.561,3.63a11.732,11.732,0,0,1-3.721.991,19.467,19.467,0,0,1-2,.02c-.356-.06-.721-.067-1.067-.16a10.856,10.856,0,0,1-2.7-.905l-1.614-.819a1.79,1.79,0,0,1-.943-2.218c-.025-.123.154-.3.154-.43,0-.8,1.9-1.942,2.759-2.439l9.92-3.459.8-.28,10.759-3.749a13.691,13.691,0,0,1,2.644-.837,8.483,8.483,0,0,1,1.105-.177,5.438,5.438,0,0,1,2.8.529c.057.03.2.115.259.147Z" transform="translate(-324.534 -360.115)" fill="#a9a49d" opacity="0.476"/>
          <path id="Trazado_188852" data-name="Trazado 188852" d="M361.427,363.9a1.665,1.665,0,0,1,.834,2.2c.019.1-.157.261-.157.367,0,.724-1.967,1.836-2.75,2.288l-9.024,3.733-.613.253-8.4,3.477a12.316,12.316,0,0,1-3.639.976c-.42,0-1.579.113-1.948.056-.347-.053-.7-.041-1.045-.12a9.381,9.381,0,0,1-2.648-.852l-1.573-.809a1.648,1.648,0,0,1-.828-2.17c-.022-.111.176-.286.176-.4,0-.723,1.995-1.843,2.777-2.3l9.72-3.346.785-.271,10.546-3.629a14.756,14.756,0,0,1,2.589-.814,8.375,8.375,0,0,1,1.08-.186,5.22,5.22,0,0,1,2.735.51c.052.027.2.115.253.144Z" transform="translate(-324.619 -360.156)" fill="#a9a296" opacity="0.524"/>
          <path id="Trazado_188853" data-name="Trazado 188853" d="M361.4,364.084a1.536,1.536,0,0,1,.721,2.146c.017.092-.177.244-.177.34,0,.651-2.062,1.735-2.766,2.142l-8.852,3.571-.6.242-8.235,3.326a13.106,13.106,0,0,1-3.556.959c-.379,0-1.569.137-1.9.094s-.688-.016-1.025-.081a8.244,8.244,0,0,1-2.594-.8l-1.532-.8a1.52,1.52,0,0,1-.716-2.121c-.02-.1.2-.269.2-.373,0-.651,2.09-1.744,2.794-2.151l9.519-3.235.768-.261,10.332-3.509a16.1,16.1,0,0,1,2.536-.793,8.1,8.1,0,0,1,1.054-.194,5.013,5.013,0,0,1,2.673.49c.046.025.2.115.246.142Z" transform="translate(-324.703 -360.197)" fill="#a8a08f" opacity="0.571"/>
          <path id="Trazado_188854" data-name="Trazado 188854" d="M361.382,364.272a1.42,1.42,0,0,1,.606,2.095c.015.082-.2.229-.2.314,0,.579-2.155,1.636-2.78,2l-8.68,3.408-.592.232-8.073,3.173a14.03,14.03,0,0,1-3.474.943,13.711,13.711,0,0,1-1.854.13,4.339,4.339,0,0,1-1-.042,7.244,7.244,0,0,1-2.541-.744l-1.489-.793a1.405,1.405,0,0,1-.6-2.073c-.017-.089.222-.252.222-.345,0-.579,2.185-1.645,2.811-2.006l9.319-3.123.75-.252,10.118-3.389a17.93,17.93,0,0,1,2.481-.77,8.114,8.114,0,0,1,1.03-.2,4.8,4.8,0,0,1,2.611.47c.041.022.2.115.239.138Z" transform="translate(-324.786 -360.237)" fill="#a89e88" opacity="0.619"/>
          <path id="Trazado_188855" data-name="Trazado 188855" d="M361.358,364.461a1.317,1.317,0,0,1,.492,2.044c.013.071-.216.213-.216.287,0,.506-2.248,1.536-2.8,1.852l-8.508,3.245-.581.221-7.911,3.021a15.322,15.322,0,0,1-3.391.926,15.156,15.156,0,0,1-1.807.168,4.189,4.189,0,0,1-.982,0,6.439,6.439,0,0,1-2.487-.69l-1.448-.784a1.3,1.3,0,0,1-.489-2.024c-.016-.078.244-.235.244-.316,0-.506,2.282-1.546,2.83-1.862l9.118-3.01.734-.243,9.9-3.268a20.048,20.048,0,0,1,2.426-.748,8,8,0,0,1,1-.211,4.611,4.611,0,0,1,2.55.451c.036.019.2.116.234.136Z" transform="translate(-324.868 -360.278)" fill="#a79d80" opacity="0.667"/>
          <path id="Trazado_188856" data-name="Trazado 188856" d="M361.332,364.649a1.227,1.227,0,0,1,.379,1.992c.011.061-.237.2-.237.261,0,.434-2.341,1.436-2.811,1.707l-8.336,3.084-.571.21-7.748,2.869a17.057,17.057,0,0,1-5.07,1.115,4.047,4.047,0,0,1-.962.036,5.722,5.722,0,0,1-2.432-.636l-1.407-.775a1.215,1.215,0,0,1-.375-1.976c-.014-.067.266-.218.266-.287,0-.434,2.377-1.447,2.847-1.718l8.917-2.9.717-.234,9.691-3.148a23.241,23.241,0,0,1,2.372-.725,7.735,7.735,0,0,1,.979-.22,4.407,4.407,0,0,1,2.488.43c.031.017.2.117.227.133Z" transform="translate(-324.949 -360.318)" fill="#a69b79" opacity="0.714"/>
          <path id="Trazado_188857" data-name="Trazado 188857" d="M361.307,364.837a1.149,1.149,0,0,1,.265,1.941c.009.051-.256.182-.256.235,0,.361-2.435,1.336-2.825,1.562l-8.164,2.921-.56.2-7.586,2.716a19.4,19.4,0,0,1-3.226.894c-.21,0-1.536.3-1.714.241a3.808,3.808,0,0,1-.94.075,5.109,5.109,0,0,1-2.378-.582l-1.365-.767a1.139,1.139,0,0,1-.263-1.927c-.011-.055.289-.2.289-.259,0-.361,2.473-1.347,2.864-1.573l8.717-2.786.7-.224,9.476-3.028c.222-.128,2.048-.634,2.317-.7a7.653,7.653,0,0,1,.954-.229,4.214,4.214,0,0,1,2.425.411c.026.014.2.116.22.131Z" transform="translate(-325.03 -360.359)" fill="#a69972" opacity="0.762"/>
          <path id="Trazado_188858" data-name="Trazado 188858" d="M361.281,365.026a1.081,1.081,0,0,1,.151,1.889c.007.041-.276.166-.276.208,0,.29-2.527,1.237-2.84,1.417l-7.992,2.758-.55.189-7.423,2.564a23.057,23.057,0,0,1-3.144.877c-.168,0-1.524.323-1.667.279a3.659,3.659,0,0,1-.919.114,4.594,4.594,0,0,1-2.324-.528l-1.324-.759a1.074,1.074,0,0,1-.148-1.878c-.009-.045.311-.184.311-.23,0-.289,2.569-1.248,2.881-1.429l8.517-2.675.683-.215,9.263-2.908c.177-.1,2.048-.623,2.262-.68a7.539,7.539,0,0,1,.929-.236,4.017,4.017,0,0,1,2.363.39l.214.128Z" transform="translate(-325.11 -360.399)" fill="#a5976b" opacity="0.81"/>
          <path id="Trazado_188859" data-name="Trazado 188859" d="M361.254,365.214a1.024,1.024,0,0,1,.036,1.838c.006.031-.295.15-.295.182a19.091,19.091,0,0,1-2.856,1.272l-7.82,2.6-.539.178-7.261,2.411a29,29,0,0,1-3.062.862c-.127,0-1.513.349-1.62.316a3.477,3.477,0,0,1-.9.154,4.132,4.132,0,0,1-2.271-.475l-1.282-.749a1.019,1.019,0,0,1-.035-1.83c-.007-.034.334-.167.334-.2a19.806,19.806,0,0,1,2.9-1.285l8.316-2.562.666-.205,9.049-2.787c.133-.077,2.047-.614,2.208-.658a7.259,7.259,0,0,1,.9-.245,3.832,3.832,0,0,1,2.3.371l.207.125Z" transform="translate(-325.189 -360.44)" fill="#a59564" opacity="0.857"/>
          <path id="Trazado_188860" data-name="Trazado 188860" d="M361.226,365.4c.768.494.715,1.27-.077,1.787,0,.02-.316.134-.316.155a29.305,29.305,0,0,1-2.87,1.127l-7.648,2.433-.529.167-7.1,2.26c-.123.07-2.823.845-2.98.845-.084,0-1.5.374-1.572.353a3.387,3.387,0,0,1-.877.193,3.737,3.737,0,0,1-2.217-.421l-1.241-.741c-.766-.493-.712-1.267.078-1.781,0-.022.357-.15.357-.173a30.275,30.275,0,0,1,2.916-1.141l8.115-2.45.649-.2,8.835-2.666c.089-.051,2.047-.6,2.154-.635a7.123,7.123,0,0,1,.879-.253,3.644,3.644,0,0,1,2.239.35l.2.123Z" transform="translate(-325.267 -360.48)" fill="#a4945c" opacity="0.905"/>
          <path id="Trazado_188861" data-name="Trazado 188861" d="M361.2,365.59c.749.485.654,1.25-.191,1.735,0,.01-.335.118-.335.129,0,.072-2.806.937-2.885.982l-7.476,2.271-.518.157-6.936,2.106c-.061.036-2.819.829-2.9.829-.042,0-1.49.4-1.526.389a3.179,3.179,0,0,1-.857.232,3.38,3.38,0,0,1-2.162-.366l-1.2-.732c-.748-.485-.653-1.248.191-1.732,0-.012.379-.133.379-.145,0-.072,2.855-.951,2.933-1l7.915-2.338.631-.186,8.621-2.547c.044-.025,2.046-.6,2.1-.612a6.894,6.894,0,0,1,.854-.262,3.46,3.46,0,0,1,2.177.331l.194.119Z" transform="translate(-325.345 -360.52)" fill="#a49255" opacity="0.952"/>
          <path id="Trazado_188862" data-name="Trazado 188862" d="M360.011,365.053l1.157.724c.729.476.592,1.23-.3,1.684L349.8,370.655l-11.067,3.194a3.272,3.272,0,0,1-2.944-.041l-1.157-.724c-.729-.476-.592-1.23.3-1.683L346,368.206l11.067-3.193A3.269,3.269,0,0,1,360.011,365.053Z" transform="translate(-325.423 -360.56)" fill="#a3904e"/>
        </g>
        <path id="Trazado_188863" data-name="Trazado 188863" d="M333.686,374.785c.818.059,2.357-.567,2.357-.925s-1.492-1.462-1.73-1.552a4.766,4.766,0,0,0-.806-.149l-.03-1.76s-1.1-.776-1.73-1.283a10.875,10.875,0,0,0-1.313-.895,26.109,26.109,0,0,0-1.939,2c-.328.477.328,1.4,1.671,2.118S333.268,374.755,333.686,374.785Z" transform="translate(-324.436 -280.045)" fill="#70091c"/>
        <path id="Trazado_188864" data-name="Trazado 188864" d="M328.275,370.778a1.391,1.391,0,0,0,.686,2.118c.955.478,4.058,2.536,4.625,2.745a3.594,3.594,0,0,0,2.387-.984c.06-.268,0-.359,0-.359s-1.313.9-2.058.627a12.892,12.892,0,0,1-3.283-2.536A10.6,10.6,0,0,0,328.275,370.778Z" transform="translate(-324.366 -280.484)" fill="#4d3b10"/>
        <path id="Trazado_188865" data-name="Trazado 188865" d="M340.737,311.213s-1.309.393-1.309,5.17.262,22.774.262,22.774l-9.529,19.8a24.381,24.381,0,0,0,2.24,1.7,5.441,5.441,0,0,0,1.485.589l11.985-19.5a57.491,57.491,0,0,0,4.769-14.755c.847-4.691,1.284-12.247,1.284-12.247Z" transform="translate(-324.736 -270.259)" fill="#43470a"/>
        <path id="Trazado_188866" data-name="Trazado 188866" d="M347.4,317.707l-3.165,23.181-11.036,20.3a5.431,5.431,0,0,0,1.211.441l11.985-19.5a57.492,57.492,0,0,0,4.769-14.755c.847-4.691,1.284-12.247,1.284-12.247l-5.253-1.655Z" transform="translate(-325.257 -270.647)" fill="#ced3f4" style="mix-blend-mode: multiply;isolation: isolate"/>
        <path id="Trazado_188867" data-name="Trazado 188867" d="M359.487,366.453s-.564,1.518.128,1.846a3.512,3.512,0,0,0,2.638.164,4.942,4.942,0,0,1,2.151-.7,13.533,13.533,0,0,0,5.2-2.406c.692-.794,0-1.7-1.716-1.588s-4.175.3-4.61.443S359.487,366.453,359.487,366.453Z" transform="translate(-329.733 -279.278)" fill="#4d3b10"/>
        <path id="Trazado_188868" data-name="Trazado 188868" d="M360.28,367.558c1.61.172,2.126-.234,3.612-.514s5.71-1.842,5.633-2.707-1.048-.68-1.868-.61-3.432.234-3.636.234-4.457,1.753-4.457,1.753-.307,1.262-.026,1.448S359.845,367.511,360.28,367.558Z" transform="translate(-329.758 -279.262)" fill="#70091c"/>
        <path id="Trazado_188869" data-name="Trazado 188869" d="M348.206,312.922a11.607,11.607,0,0,0-.789,8.419c1.286,4.983,17.294,15.746,17.294,15.746S357.4,355.12,357.4,357.51c0,.723,1.537,1.06,3.158.526,2.028-.668,1.995-1.228,2.1-2.17.1-.827,9.35-16.477,9.153-21.082-.26-6.06-12.019-16.1-12.019-16.1Z" transform="translate(-327.626 -270.553)" fill="#594e0d"/>
        <path id="Trazado_188870" data-name="Trazado 188870" d="M361.4,319.353l-5.074-2.522,1.93,4.126s12.381,12.254,13.087,15.141-8.89,21.922-8.968,22.53c1.791-.634,1.784-1.186,1.889-2.091.1-.827,9.35-16.477,9.153-21.081C373.155,329.4,361.4,319.353,361.4,319.353Z" transform="translate(-329.227 -271.224)" fill="#ced3f4" style="mix-blend-mode: multiply;isolation: isolate"/>
        <path id="Trazado_188871" data-name="Trazado 188871" d="M349.39,276.878c-2.134.214-4.3.644-5.1,5.653-.659,4.114-3.553,29.208-3.553,29.208s3.45,3.7,13.274,4.171c6.7.323,6.968-1.347,6.968-1.347s1.47-14.649,2.418-23.733c.443-4.242-.033-5.388-1.334-6.655a61.94,61.94,0,0,0-6.081-4.946C354.255,278.031,351.227,276.694,349.39,276.878Z" transform="translate(-326.552 -264.363)" fill="url(#linear-gradient-8)"/>
        <path id="Trazado_188872" data-name="Trazado 188872" d="M362.65,317.184s1.468-14.626,2.416-23.712c0-.149,0-.3-.007-.448l-5.377-.895c.3,9.066-2.4,24.413-2.4,24.413s-.271,1.642-6.819,1.352h0a34.257,34.257,0,0,0,5.22.636C362.383,318.854,362.65,317.184,362.65,317.184Z" transform="translate(-328.221 -266.984)" fill="#ced3f4" style="mix-blend-mode: multiply;isolation: isolate"/>
        <path id="Trazado_188873" data-name="Trazado 188873" d="M360.645,281.334c-.073,1.117-1.927,1.905-4.142,1.761s-3.952-1.166-3.879-2.282,1.927-1.905,4.142-1.761S360.717,280.217,360.645,281.334Z" transform="translate(-328.591 -264.736)" fill="#fff"/>
        <path id="Trazado_188874" data-name="Trazado 188874" d="M353.327,277.524a.8.8,0,0,0,.135.742,4.563,4.563,0,0,0,3.264,1.4,5.479,5.479,0,0,0,3.09-.615.928.928,0,0,0,.435-.638l.43-2.343s1.827.169,2.4-.5,2.691-9.34.157-11.6-8.25-1.833-9.287,2.1.682,6.136.807,7.061C354.856,273.89,353.767,276.547,353.327,277.524Z" transform="translate(-328.705 -261.914)" fill="#ffd4c0"/>
        <g id="Grupo_128899" data-name="Grupo 128899" transform="translate(9.083 1.037)">
          <path id="Trazado_188875" data-name="Trazado 188875" d="M399.44,269.472l-2.254-5.653s8.513-1.238,8.807-.624S399.44,269.472,399.44,269.472Z" transform="translate(-345.324 -263.024)" fill="#ffd4c0"/>
          <path id="Trazado_188876" data-name="Trazado 188876" d="M335.229,288.775l50.756-24.59a2.3,2.3,0,0,1,1.143-.224l1.006.064a.475.475,0,0,1,.356.749l-.774.818-51.48,25.13Z" transform="translate(-334.689 -263.184)" fill="url(#linear-gradient-9)"/>
          <path id="Trazado_188877" data-name="Trazado 188877" d="M336.467,290.709l51.484-24.866,1.086.543a.469.469,0,0,1,.327.682l-.62,1.158-50.939,24.658Z" transform="translate(-334.902 -263.508)" fill="url(#linear-gradient-10)"/>
          <path id="Trazado_188878" data-name="Trazado 188878" d="M338.083,293.378l.168,1.831,50.839-24.618a1.1,1.1,0,0,0,.6-.791l.1-.537a.378.378,0,0,0-.329-.515l-.439-.028Z" transform="translate(-335.179 -264.002)" fill="url(#linear-gradient-11)"/>
          <path id="Trazado_188879" data-name="Trazado 188879" d="M404.96,263.081a4.786,4.786,0,0,1,1,1.853c.862-.854,1.461-1.545,1.368-1.739S406.241,262.993,404.96,263.081Z" transform="translate(-346.659 -263.024)" fill="#46400d"/>
          <path id="Trazado_188880" data-name="Trazado 188880" d="M338.256,297.333l-.619,2.161-2.019-.994-1.04-2.324.577-2.293,2.061,1.126Z" transform="translate(-334.578 -268.321)" fill="#ffd4c0"/>
          <path id="Trazado_188881" data-name="Trazado 188881" d="M337.1,298.187c.321-.153.367-.724.1-1.274s-.736-.872-1.057-.718-.367.724-.1,1.274S336.782,298.341,337.1,298.187Z" transform="translate(-334.8 -268.712)" fill="#46400d"/>
        </g>
        <path id="Trazado_188882" data-name="Trazado 188882" d="M354.572,273.671a7.665,7.665,0,0,0,2.946.533c1.585-.4,1.638-4.033,2.716-4.83.641-.475,1.161.115,1.082.764-.065.533.048.9.245.969s1.321-3.047,1.321-3.047,4.159-1.314,3-4.944c-1.941.324-9.924-4.314-12.575,1.981C351.212,270.064,353.621,273.361,354.572,273.671Z" transform="translate(-328.566 -261.773)" fill="#070404"/>
        <path id="Trazado_188883" data-name="Trazado 188883" d="M388.111,274.39l-.225-.966c-.152-.422-.326-.466-.538-.335s-.236.552-.18.793l.048.624-.157.915-.2.547.215-.845a.477.477,0,0,0,.022-.2l-.115-1.132a.458.458,0,0,0-.041-.152l-.543-1.083a.313.313,0,0,0-.533-.106.733.733,0,0,0-.094.761l.271.755.1.951-.247.961.091-.783a.463.463,0,0,0,.007-.188l-.239-1.46a.478.478,0,0,0-.056-.16l-.683-1.164a.344.344,0,0,0-.564-.056c-.192.181-.1.6.028.832l.348.787.158.866-.041.794-.11-1.267a.468.468,0,0,0-.076-.221l-.712-1c-.145-.222-.451-.317-.574-.086a.929.929,0,0,0,.128.861l.295.653.1,1.17a5.053,5.053,0,0,1-.5,1.751,3.77,3.77,0,0,1-1.3.909c-.294.293.475.959.475.959l.437.457,2.3,1.011a15.562,15.562,0,0,0,1-1.221,5.629,5.629,0,0,0,.745-1.37l.738-2.061a.483.483,0,0,0,.036-.114l.187-1.206A.455.455,0,0,0,388.111,274.39Z" transform="translate(-333.656 -263.519)" fill="#ffd4c0"/>
        <path id="Trazado_188884" data-name="Trazado 188884" d="M361.718,288.906c-1.149,1.892.359,3.915,3.686,6.687,3.612,3.01,4.644,4.127,7.562,4.891s4.321-2.27,5.027-3.865,4.452-14.426,4.452-14.426a4.962,4.962,0,0,0-1.86-1.667,2.2,2.2,0,0,0-1.815-.114l-5.639,12s-4.326-4.405-5.836-5.915c-.09-.089-.866-.919-.979-.881a12.754,12.754,0,0,0-2.444,1.2A4.507,4.507,0,0,0,361.718,288.906Z" transform="translate(-330.087 -264.949)" fill="url(#linear-gradient-12)"/>
        <path id="Trazado_188885" data-name="Trazado 188885" d="M383.781,280.836l-5.176,13.385s1.466,4.758-.982,6.316c1.692-.582,2.63-2.613,3.166-3.823.707-1.595,4.452-14.426,4.452-14.426A5.321,5.321,0,0,0,383.781,280.836Z" transform="translate(-332.883 -265.045)" fill="#ced3f4" style="mix-blend-mode: multiply;isolation: isolate"/>
      </g>
    </g>
    <g id="Grupo_128906" data-name="Grupo 128906" transform="matrix(0.891, 0.454, -0.454, 0.891, 356.198, 3009.449)">
      <g id="Grupo_128902" data-name="Grupo 128902" transform="translate(126.761 188.155)" opacity="0.4" style="mix-blend-mode: multiply;isolation: isolate">
        <ellipse id="Elipse_5085" data-name="Elipse 5085" cx="14.611" cy="8.328" rx="14.611" ry="8.328" transform="translate(0 0)" fill="#9ea5cf" opacity="0"/>
        <ellipse id="Elipse_5086" data-name="Elipse 5086" cx="14.249" cy="8.122" rx="14.249" ry="8.122" transform="translate(0.13 0.233)" fill="#999fc5" opacity="0.024"/>
        <ellipse id="Elipse_5087" data-name="Elipse 5087" cx="13.888" cy="7.916" rx="13.888" ry="7.916" transform="translate(0.261 0.466)" fill="#9499bb" opacity="0.048"/>
        <ellipse id="Elipse_5088" data-name="Elipse 5088" cx="13.527" cy="7.71" rx="13.527" ry="7.71" transform="translate(0.391 0.699)" fill="#8f93b2" opacity="0.071"/>
        <ellipse id="Elipse_5089" data-name="Elipse 5089" cx="13.165" cy="7.504" rx="13.165" ry="7.504" transform="translate(0.521 0.932)" fill="#8a8da8" opacity="0.095"/>
        <ellipse id="Elipse_5090" data-name="Elipse 5090" cx="12.804" cy="7.298" rx="12.804" ry="7.298" transform="translate(0.651 1.166)" fill="#85879e" opacity="0.119"/>
        <ellipse id="Elipse_5091" data-name="Elipse 5091" cx="12.442" cy="7.092" rx="12.442" ry="7.092" transform="translate(0.782 1.399)" fill="#808294" opacity="0.143"/>
        <ellipse id="Elipse_5092" data-name="Elipse 5092" cx="12.081" cy="6.886" rx="12.081" ry="6.886" transform="translate(0.912 1.632)" fill="#7b7c8a" opacity="0.167"/>
        <ellipse id="Elipse_5093" data-name="Elipse 5093" cx="11.72" cy="6.68" rx="11.72" ry="6.68" transform="translate(1.042 1.865)" fill="#767681" opacity="0.19"/>
        <ellipse id="Elipse_5094" data-name="Elipse 5094" cx="11.358" cy="6.474" rx="11.358" ry="6.474" transform="translate(1.172 2.098)" fill="#717077" opacity="0.214"/>
        <ellipse id="Elipse_5095" data-name="Elipse 5095" cx="10.997" cy="6.268" rx="10.997" ry="6.268" transform="translate(1.303 2.331)" fill="#6c6a6d" opacity="0.238"/>
        <ellipse id="Elipse_5096" data-name="Elipse 5096" cx="10.635" cy="6.062" rx="10.635" ry="6.062" transform="translate(1.433 2.564)" fill="#676463" opacity="0.262"/>
        <ellipse id="Elipse_5097" data-name="Elipse 5097" cx="10.274" cy="5.856" rx="10.274" ry="5.856" transform="translate(1.563 2.797)" fill="#625e59" opacity="0.286"/>
        <ellipse id="Elipse_5098" data-name="Elipse 5098" cx="9.912" cy="5.65" rx="9.912" ry="5.65" transform="translate(1.693 3.03)" fill="#5d584f" opacity="0.31"/>
        <ellipse id="Elipse_5099" data-name="Elipse 5099" cx="9.551" cy="5.444" rx="9.551" ry="5.444" transform="translate(1.824 3.263)" fill="#585246" opacity="0.333"/>
        <ellipse id="Elipse_5100" data-name="Elipse 5100" cx="9.19" cy="5.238" rx="9.19" ry="5.238" transform="translate(1.954 3.497)" fill="#534c3c" opacity="0.357"/>
        <ellipse id="Elipse_5101" data-name="Elipse 5101" cx="8.828" cy="5.032" rx="8.828" ry="5.032" transform="translate(2.084 3.73)" fill="#4e4732" opacity="0.381"/>
        <ellipse id="Elipse_5102" data-name="Elipse 5102" cx="8.467" cy="4.826" rx="8.467" ry="4.826" transform="translate(2.214 3.963)" fill="#494128" opacity="0.405"/>
        <ellipse id="Elipse_5103" data-name="Elipse 5103" cx="8.105" cy="4.62" rx="8.105" ry="4.62" transform="translate(2.345 4.196)" fill="#443b1e" opacity="0.429"/>
        <ellipse id="Elipse_5104" data-name="Elipse 5104" cx="7.744" cy="4.414" rx="7.744" ry="4.414" transform="translate(2.475 4.429)" fill="#3f3515" opacity="0.452"/>
        <ellipse id="Elipse_5105" data-name="Elipse 5105" cx="7.383" cy="4.208" rx="7.383" ry="4.208" transform="translate(2.605 4.662)" fill="#3a2f0b" opacity="0.476"/>
        <ellipse id="Elipse_5106" data-name="Elipse 5106" cx="7.021" cy="4.002" rx="7.021" ry="4.002" transform="translate(2.735 4.895)" fill="#352901" opacity="0.5"/>
      </g>
      <g id="Grupo_128903" data-name="Grupo 128903" transform="translate(93.258 121.553)">
        <ellipse id="Elipse_5107" data-name="Elipse 5107" cx="7.523" cy="7.523" rx="7.523" ry="7.523" transform="translate(32.532 67.67) rotate(-24.018)" fill="#4d3b10"/>
        <path id="Trazado_188886" data-name="Trazado 188886" d="M16.287,0,0,8.777,30.328,64.552l0,0c.011.022.021.046.033.067,1.411,2.619,6.2,2.778,10.7.354s7-6.511,5.588-9.13c-.011-.022-.025-.042-.037-.064h0Z" transform="translate(2.963 9.649)" fill="url(#linear-gradient-13)"/>
        <path id="Trazado_188887" data-name="Trazado 188887" d="M16.681,2.073c1.411,2.618-1.091,6.707-5.588,9.13S1.8,13.468.394,10.849s1.091-6.707,5.588-9.13S15.269-.546,16.681,2.073Z" transform="translate(2.587 7.61)" fill="url(#linear-gradient-14)"/>
        <path id="Trazado_188888" data-name="Trazado 188888" d="M9.688,0,0,5.22,5.786,15.763h0c.007.013.012.027.02.04.839,1.558,3.688,1.652,6.364.211s4.164-3.873,3.324-5.431c-.006-.013-.015-.025-.022-.037h0Z" fill="url(#linear-gradient-15)"/>
      </g>
      <g id="Grupo_128905" data-name="Grupo 128905">
        <path id="Trazado_188889" data-name="Trazado 188889" d="M55.036,106.234C29.443,91.459,8.7,55.675,8.7,26.309c0-11.8,3.35-20.76,9.015-26.309C6.927,3.508,0,14.621,0,31.589,0,60.955,20.746,96.74,46.337,111.515c15.312,8.84,28.887,8.154,37.324-.111C75.781,113.967,65.84,112.471,55.036,106.234Z" transform="translate(15.441 14.454)" fill="url(#linear-gradient-16)"/>
        <ellipse id="Elipse_5108" data-name="Elipse 5108" cx="35.693" cy="61.824" rx="35.693" ry="61.824" transform="matrix(0.863, -0.505, 0.505, 0.863, 0, 37.029)" fill="#f4f4f4" opacity="0.5" style="mix-blend-mode: screen;isolation: isolate"/>
        <ellipse id="Elipse_5109" data-name="Elipse 5109" cx="35.693" cy="61.824" rx="35.693" ry="61.824" transform="matrix(0.863, -0.505, 0.505, 0.863, 0, 36.027)" fill="url(#radial-gradient-3)" style="mix-blend-mode: multiply;isolation: isolate"/>
        <g id="Grupo_128904" data-name="Grupo 128904" transform="translate(26.662 7.651)">
          <path id="Trazado_188890" data-name="Trazado 188890" d="M44.943,6.364C32.358-.9,20.946-1.735,12.6,2.788,12.362,2.915.377,9.6,0,10.18c8.5-6.41,21.078-6.312,35.116,1.793C60.708,26.749,81.454,62.532,81.454,91.9c0,14.984-5.4,25.4-14.094,30.046a10.464,10.464,0,0,0,2.261-.995c.248-.138,8.419-5.089,8.66-5.238,8.048-4.919,13-15.079,13-29.423C91.281,56.923,70.534,21.139,44.943,6.364Z" fill="url(#linear-gradient-17)"/>
        </g>
        <path id="Trazado_188891" data-name="Trazado 188891" d="M46.337,6.364C20.746-8.411,0,3.416,0,32.783s20.746,65.151,46.337,79.926,46.338,2.947,46.338-26.419S71.929,21.14,46.337,6.364Zm-.324,102.824C22.386,95.546,3.232,62.509,3.232,35.4S22.387-2.635,46.014,11.007s42.78,46.677,42.78,73.79S69.641,122.828,46.014,109.188Z" transform="translate(15.441 13.26)" fill="url(#linear-gradient-18)"/>
        <path id="Trazado_188892" data-name="Trazado 188892" d="M31.7,6.354C19.435-.728,8.289-1.684,0,2.462,7.727.3,19.093,1.47,29.479,7.466,55.071,22.242,75.817,58.025,75.817,87.392c0,15.288-7.41,26.254-16.414,30.756,11.312-3.164,18.637-14.42,18.637-31.868C78.04,56.914,57.294,21.13,31.7,6.354Z" transform="translate(32.3 12.158)" fill="url(#radial-gradient-4)" style="mix-blend-mode: screen;isolation: isolate"/>
        <path id="Trazado_188893" data-name="Trazado 188893" d="M37.725,41.095A143.137,143.137,0,0,1,62.309,21.353,77.341,77.341,0,0,0,43.852,6.022C19.633-7.96,0,3.234,0,31.024,0,45,4.969,60.514,12.986,74.261A140.662,140.662,0,0,1,37.725,41.095Z" transform="translate(20.152 14.857)" opacity="0.5" fill="url(#radial-gradient-5)" style="mix-blend-mode: screen;isolation: isolate"/>
        <ellipse id="Elipse_5110" data-name="Elipse 5110" cx="36.097" cy="36.097" rx="36.097" ry="36.097" transform="translate(9.608 73.294) rotate(-76.49)" opacity="0.8" fill="url(#radial-gradient-6)" style="mix-blend-mode: color-dodge;isolation: isolate"/>
      </g>
    </g>
  </g>
</svg>
