<svg xmlns="http://www.w3.org/2000/svg" width="85" height="84.931" viewBox="0 0 85 84.931">
  <g id="Grupo_128908" data-name="Grupo 128908" transform="translate(-337.497 -247.824)">
    <path id="Trazado_188894" data-name="Trazado 188894" d="M422.458,295.893v1.658c-.2,1.354-.157,2.728-.342,4.082-.067.487,0,1.079-.673,1.253a1.537,1.537,0,0,1-.484-1.266,9.408,9.408,0,0,0-8.1-8.555,23.2,23.2,0,0,0-2.724-.14H392.146c-.332,0-.663,0-.995,0-1.082-.029-1.344-.3-1.365-1.405-.015-.773.011-1.547-.011-2.321-.032-1.141-.425-1.561-1.563-1.565q-8.206-.029-16.411,0c-1.131,0-1.533.425-1.541,1.581q-.032,4.766,0,9.532c.008,1.269.365,1.6,1.656,1.606q8.081.012,16.163,0c1.376,0,1.68-.32,1.7-1.732.012-.8-.01-1.6.01-2.4.026-1.034.3-1.317,1.355-1.325,2.818-.02,5.636-.007,8.454-.007,3.9,0,7.791-.026,11.687.012a7.544,7.544,0,0,1,7.72,6.629,8.124,8.124,0,0,1-1.095,5.56,6.95,6.95,0,0,1-5.409,3.4c-4.6.406-9.218.1-13.828.166-.986.013-1.117-.223-.814-1.213.2-.647-.324-.876-.678-1.185a.637.637,0,0,0-.958.051c-.924.912-1.839,1.833-2.756,2.753a.619.619,0,0,0-.012,1c.929.983,1.964,1.864,2.806,2.931a.566.566,0,0,0,.879.077c.393-.342,1-.581.787-1.3-.283-.954-.167-1.128.879-1.133,3.951-.02,7.9.019,11.852-.017a10.623,10.623,0,0,0,6.82-2.121A12.559,12.559,0,0,0,418.9,309.1a1.317,1.317,0,0,1,.724-.515c.549.144.338.55.262.864a11.139,11.139,0,0,1-.764,1.916,43.448,43.448,0,0,1-6.944,10.9,4.754,4.754,0,0,1-1.33,1.093c-1.538.159-3.079.04-4.618.074-.523.012-1.046,0-1.569,0-1.709.013-2.059.365-2.075,2.106-.011,1.156,0,2.312-.006,3.468a3.574,3.574,0,0,1-.081,1.065,2.475,2.475,0,0,1-1.122,1.053,43.681,43.681,0,0,1-10.267,4.263c-.367.1-.749.235-1.1-.067a1.115,1.115,0,0,1-.216-.7c-.016-.994-.035-1.989.007-2.982.032-.754.329-1.051,1.071-1.1a13.944,13.944,0,0,1,2.07.007c.669.06.793.283.6.929a1.351,1.351,0,0,0,.764,1.455c.477.278.712-.092.977-.352.83-.81,1.63-1.651,2.469-2.452.478-.456.537-.824.033-1.308-.876-.841-1.722-1.715-2.583-2.572-.287-.285-.6-.583-.98-.183-.338.361-1,.585-.56,1.339.421.725.205,1.079-.621,1.136a17.843,17.843,0,0,1-2.153,0c-.751-.04-1.045-.329-1.087-1.077-.047-.827,0-1.657-.023-2.485-.032-1.132-.431-1.55-1.572-1.553q-8.2-.025-16.4,0c-1.132,0-1.54.425-1.548,1.572-.021,3.038,0,6.076-.011,9.113a1.841,1.841,0,0,1-.218,1.2.906.906,0,0,1-.936.118,41.276,41.276,0,0,1-5.094-1.7,1.211,1.211,0,0,1-.585-.441c-.166-.41.111-.675.323-.956a27.1,27.1,0,0,1,2.789-2.932c.456-.446.484-.762.006-1.21-.9-.848-1.792-1.717-2.627-2.631-.537-.587-.9-.338-1.379.043-.5.4-.761.715-.239,1.326.411.481.242.882-.381.893a66.526,66.526,0,0,1-8.084-.078,40.242,40.242,0,0,1-10.145-11.173c-.273-.435-.611-.876-.358-1.454a6.3,6.3,0,0,1,4.935-2.144c6.877-.083,13.755-.041,20.633-.024,1.078,0,1.34.3,1.367,1.406.019.8-.018,1.6.018,2.4.049,1.084.409,1.47,1.461,1.474q8.286.031,16.573,0c1.053,0,1.444-.391,1.455-1.474q.049-4.889,0-9.778c-.012-1-.43-1.4-1.428-1.441s-1.988-.015-2.983-.015q-6.381,0-12.761,0c-.332,0-.664-.011-.994.018a1.237,1.237,0,0,0-1.311,1.3c-.053.661-.021,1.325-.022,1.988-.005,2.1-.061,2.158-2.122,2.159q-9.613,0-19.225,0a10.314,10.314,0,0,0-5.955,1.7,1.49,1.49,0,0,1-.989.359c-.45-.153-.577-.577-.743-.942a36.71,36.71,0,0,1-3.579-13.064,85.053,85.053,0,0,1,.11-11.632,8.424,8.424,0,0,1,.3-1.7c.084-.287.12-.615.533-.621.423.334.363.854.451,1.294a9.3,9.3,0,0,0,9.268,7.666q6.217,0,12.434,0a5.359,5.359,0,0,1,.993.035c.529.1.764.381.567.948-.238.687-.051,1.069.588,1.472.565.356.865-.037,1.2-.366.8-.8,1.6-1.608,2.406-2.4.431-.421.407-.762-.012-1.188a32.616,32.616,0,0,1-2.639-2.747.6.6,0,0,0-.934-.16c-.4.333-1.01.574-.809,1.288.275.979.177,1.146-.852,1.149-4.531.016-9.063.055-13.593-.012-3.209-.047-6.387-3.251-6.622-6.466a7.615,7.615,0,0,1,1.527-5.594,7.217,7.217,0,0,1,5.743-2.841c6.879-.081,13.759-.037,20.639-.022.993,0,1.273.3,1.3,1.294.024.884-.012,1.768.017,2.652.034,1.054.431,1.5,1.453,1.5q8.247.037,16.495,0c1.112-.007,1.548-.466,1.559-1.6q.049-4.807,0-9.615c-.009-1.13-.389-1.494-1.511-1.5q-8.247-.019-16.495,0c-1.108,0-1.466.377-1.5,1.51-.027.8,0,1.6-.013,2.4-.024,1.086-.3,1.372-1.393,1.377-3.785.018-7.571.006-11.356.007-2.846,0-5.692.028-8.538-.007a10.224,10.224,0,0,0-7.539,3.036,1.567,1.567,0,0,1-.66.483c-.43,0-.378-.316-.358-.585a2.233,2.233,0,0,1,.234-.7,43.5,43.5,0,0,1,7.26-11.582,7.05,7.05,0,0,1,1.121-.968,2.855,2.855,0,0,1,1.143-.135c1.851,0,3.7.01,5.552-.007,1.281-.012,1.691-.406,1.743-1.676.035-.855-.012-1.713.018-2.568.032-.9.309-1.184,1.21-1.212a14.34,14.34,0,0,1,2.152.025c.675.081.79.346.478.955-.324.633-.195.906.567,1.528.5.4.751.038,1.037-.243.886-.872,1.743-1.774,2.646-2.627.507-.479.469-.839-.021-1.29-.588-.542-1.148-1.117-1.7-1.7-.263-.278-.558-.554-.464-1a1.223,1.223,0,0,1,.7-.542,42.2,42.2,0,0,1,4.98-1.653c.368-.094.764-.181,1.046.217a2.659,2.659,0,0,1,.15,1.3c.01,2.871,0,5.742.009,8.612.006,1.508.351,1.857,1.86,1.86q7.826.016,15.651,0c1.6,0,1.977-.4,2-2.025.009-.745-.019-1.491.017-2.236.041-.851.326-1.182,1.153-1.185,4.554-.019,9.108-.068,13.66.019a14.977,14.977,0,0,1,3.571,2.629,43.051,43.051,0,0,1,7.933,9.244,2.082,2.082,0,0,1,.552,1.51,1.664,1.664,0,0,1-.74.862,7.225,7.225,0,0,1-4.105,1.337c-4.225-.019-8.45-.006-12.675-.007a4.919,4.919,0,0,1-.745-.022c-.659-.1-.787-.332-.535-.953.233-.576-.017-1.054-.725-1.5-.535-.34-.8,0-1.089.357a32.3,32.3,0,0,1-2.478,2.556c-.434.43-.535.762-.041,1.231.9.855,1.789,1.727,2.633,2.638.563.608.938.242,1.392-.113.42-.329.653-.6.25-1.147-.477-.65-.279-.99.546-1.052.66-.05,1.325-.016,1.988-.016,3.783,0,7.566-.016,11.349.006a9.418,9.418,0,0,0,5.225-1.589c.336-.215.629-.572,1.109-.451a8.831,8.831,0,0,1,1.459,2.756,36.474,36.474,0,0,1,2.687,9.442c.16,1.251.117,2.52.3,3.77v1.492a2.217,2.217,0,0,0,0,1.326v.995A2.217,2.217,0,0,0,422.458,295.893Z" transform="translate(0 -3.794)" fill="#fabc5e"/>
    <path id="Trazado_188895" data-name="Trazado 188895" d="M492.575,601.489a2.13,2.13,0,0,1-.83-1.218q.01-5.1.02-10.192c0-1.629.371-2,2-2q8.122,0,16.243,0c1.564,0,1.942.386,1.945,1.972,0,.856.007,1.713,0,2.569,0,.316.047.532.442.526,1.038-.014,2.076,0,3.1,0,.018-.112.033-.142.024-.161-.185-.43-.948-.742-.775-1.055a8.235,8.235,0,0,1,1.508-1.628c.245-.247.395-.009.541.14,1.2,1.226,2.382,2.461,3.585,3.68.251.254.253.423,0,.675-1.2,1.181-2.388,2.379-3.579,3.57-.058.059-.127.17-.178.163-.874-.116-1.151-.979-1.763-1.43-.377-.277-.025-.461.14-.652.141-.163.292-.319.587-.638-1.218,0-2.272-.01-3.325.005-.391.006-.292.338-.293.564,0,1.3.009,2.6.016,3.894.3.8-.266,1.009-.831,1.22Z" transform="translate(-121.843 -268.773)" fill="#183651"/>
    <path id="Trazado_188896" data-name="Trazado 188896" d="M644.316,593.813q.023-2.6.046-5.2c.012-1.56.389-1.928,1.973-1.935q3.388-.014,6.776-.033a2.444,2.444,0,0,1,1.258-.34c2.809.005,5.619-.005,8.428.007.852,0,1.515.258,1.737,1.177v11.771a.986.986,0,0,1-.829.829H645.3c-1.081-.36-1.306-.659-1.336-1.842-.027-1.066,0-2.133-.012-3.2A1.948,1.948,0,0,1,644.316,593.813Z" transform="translate(-242.075 -267.369)" fill="#183651"/>
    <path id="Trazado_188897" data-name="Trazado 188897" d="M597.023,622.056c.016,1.507.042,3.014.042,4.521a1.688,1.688,0,0,0,.943,1.751H584.082a2.135,2.135,0,0,0,.831-1.219A43.012,43.012,0,0,0,597.023,622.056Z" transform="translate(-194.782 -295.612)" fill="#fefefe"/>
    <path id="Trazado_188898" data-name="Trazado 188898" d="M737.967,648.8l.829-.829Q739.019,649.019,737.967,648.8Z" transform="translate(-316.338 -316.08)" fill="#f2f3f5"/>
    <path id="Trazado_188899" data-name="Trazado 188899" d="M741.214,453.586a1.275,1.275,0,0,1,0-1.326Z" transform="translate(-318.756 -161.488)" fill="#fbc87b"/>
    <path id="Trazado_188900" data-name="Trazado 188900" d="M741.214,442.538a1.275,1.275,0,0,1,0-1.326Z" transform="translate(-318.756 -152.761)" fill="#fbc87b"/>
    <path id="Trazado_188901" data-name="Trazado 188901" d="M342.307,348.749a10.185,10.185,0,0,1,2.006-6.5,10.791,10.791,0,0,1,8.92-3.874c6.547.084,13.1.012,19.644.041.7,0,.9-.19.851-.872-.06-.935-.028-1.878-.011-2.817.02-1.171.459-1.628,1.6-1.63q8.5-.012,16.992,0c1.107,0,1.578.453,1.584,1.561q.027,5.139,0,10.278a1.387,1.387,0,0,1-1.539,1.558q-8.579.025-17.158,0c-.991,0-1.449-.5-1.475-1.513-.029-1.077-.031-2.156,0-3.232.016-.517-.1-.711-.672-.709-6.908.021-13.815-.02-20.722.03a6.788,6.788,0,0,0-6.615,4.279,6.858,6.858,0,0,0,1.222,7.642,6.76,6.76,0,0,0,5.277,2.36c4.5.022,9.007.011,13.511.01a1.667,1.667,0,0,0,.3-.052c-.005-.091.012-.158-.014-.188-.859-.985-.86-.985.111-1.887.2-.188.419-.363.606-.565.257-.278.445-.3.731.007,1.174,1.247,2.373,2.471,3.575,3.691.246.25.259.415,0,.67-1.2,1.179-2.4,2.365-3.575,3.575-.3.307-.485.255-.734-.012-.169-.181-.364-.338-.546-.508-.993-.922-.993-.922-.157-1.956-.265-.227-.581-.111-.866-.111-4.2-.009-8.4,0-12.6-.009C346.834,358,342.885,354.417,342.307,348.749Z" transform="translate(-3.792 -67.353)" fill="#183651"/>
    <path id="Trazado_188902" data-name="Trazado 188902" d="M543.359,433.247a11.972,11.972,0,0,1-1.605,5.561,10.183,10.183,0,0,1-6.315,4.216,13.094,13.094,0,0,1-2.555.214q-6.133.006-12.267,0h-.934a1.241,1.241,0,0,0,.06.285c.2.365.933.612.679.985a9.175,9.175,0,0,1-1.728,1.645c-.154.131-.282-.1-.388-.21-1.2-1.227-2.379-2.465-3.585-3.681-.279-.282-.274-.456.008-.73q1.779-1.736,3.519-3.513c.258-.263.459-.364.731-.042a5.614,5.614,0,0,0,.424.4c.358.344.858.632,1.031,1.053.194.472-.618.591-.718,1.057.218.174.447.1.656.1q6.3.008,12.6,0c3.1-.006,5.576-1.191,6.926-4.074,1.875-4,.371-9.435-4.809-10.722a9.029,9.029,0,0,0-2.137-.206c-6.686-.015-13.372.005-20.057-.028-.752,0-.942.209-.9.923.062.991.033,1.989.01,2.983-.026,1.109-.478,1.56-1.585,1.561q-8.5.012-16.991,0c-1.143,0-1.6-.458-1.6-1.628q-.02-5.056,0-10.112c0-1.2.468-1.661,1.666-1.663q8.413-.014,16.825,0c1.239,0,1.677.464,1.691,1.724.01.967.033,1.935-.01,2.9-.024.552.165.692.7.688,3.122-.023,6.244-.011,9.366-.011,3.757,0,7.515-.025,11.272.007a9.759,9.759,0,0,1,9.764,7.934C543.256,431.644,543.275,432.452,543.359,433.247Z" transform="translate(-121.9 -134.121)" fill="#183651"/>
    <path id="Trazado_188903" data-name="Trazado 188903" d="M491.745,249.052c.217-.946.847-1.232,1.767-1.228q8.347.03,16.694,0c.922,0,1.549.284,1.767,1.229.471.5.346,1.135.35,1.731.016,2.137-.154,2,2.036,2,1.764,0,3.528.017,5.291-.007a8.482,8.482,0,0,1,2.609.335c3.75.01,7.5-.009,11.249.038a9.68,9.68,0,0,1,9.551,8.031,10.279,10.279,0,0,1-3.284,9.968,11.078,11.078,0,0,1-7.414,2.293c-4.245-.075-8.493-.02-12.707-.02-.126.164-.037.245.036.324.841.92.841.92-.109,1.8-1.014.935-1.014.934-1.972-.053-.942-.97-1.875-1.95-2.837-2.9-.326-.322-.448-.522-.049-.913,1.182-1.159,2.327-2.357,3.46-3.565.3-.325.516-.331.79-.009a4.17,4.17,0,0,0,.363.338c1.136,1.051,1.136,1.051.28,2.214.068.037.133.1.2.1,4.747-.009,9.495.011,14.241-.057a6.068,6.068,0,0,0,4.328-1.971,3.044,3.044,0,0,1,.341-.832,7.858,7.858,0,0,0,1.488-4.043,6.8,6.8,0,0,0-5.63-7.549,38.04,38.04,0,0,0-6.017-.158,4.837,4.837,0,0,1-1.852-.323c-4.746-.009-9.493-.011-14.239-.036-.477,0-.533.208-.527.6.017,1.048.016,2.1,0,3.146-.015,1.214-.5,1.713-1.722,1.715q-8.362.012-16.725,0c-1.292,0-1.732-.453-1.737-1.758Q491.748,254.268,491.745,249.052Z" transform="translate(-121.843 0)" fill="#183651"/>
    <path id="Trazado_188904" data-name="Trazado 188904" d="M361.733,527.856c-3.005-.018-6.011-.044-9.016-.051a10.68,10.68,0,0,1-5.326-1.254,9.709,9.709,0,0,1-1.914-15.612c.12-.113.234-.233.351-.35a11.214,11.214,0,0,1,7.255-2.31c6.629.051,13.259.007,19.889.032.653,0,.853-.166.818-.819-.055-1.019-.031-2.044-.009-3.065.024-1.095.486-1.574,1.583-1.576q8.494-.019,16.989,0c1.138,0,1.6.482,1.606,1.637q.02,5.055,0,10.11c0,1.209-.456,1.652-1.66,1.654q-8.412.009-16.823,0c-1.253,0-1.684-.438-1.7-1.7-.012-.994-.02-1.989.006-2.983.012-.44-.08-.631-.581-.63-6.989.017-13.978-.009-20.966.03a6.639,6.639,0,0,0-5.019,2.157,2.669,2.669,0,0,1-.453,1.045,6.619,6.619,0,0,0-.378,7.2,6.334,6.334,0,0,0,5.874,3.489q1.947.018,3.895,0a3.286,3.286,0,0,1,1.6.353h8.474c-.007-.092.006-.152-.018-.187-.274-.4-1.048-.811-.891-1.07a8.879,8.879,0,0,1,1.663-1.689c.2-.189.348,0,.48.14,1.211,1.242,2.408,2.5,3.638,3.722.387.385.085.555-.135.785l-3.7,3.88c-.307-.037-.472-.3-.716-.443a2.412,2.412,0,0,1-.558-.344c-.654-.406-1.192-.862-.66-1.765C364.055,528.112,362.847,528.381,361.733,527.856Z" transform="translate(-3.853 -201.442)" fill="#183651"/>
    <path id="Trazado_188905" data-name="Trazado 188905" d="M361.082,252.479c-.371-.342-.387-.662.054-.96a1.408,1.408,0,0,0,.174-.171c.389-.379.734-.989,1.179-1.074.486-.092.742.692,1.216.953.923.944,1.825,1.909,2.778,2.823.38.364.346.563-.013.909q-1.785,1.722-3.507,3.508c-.322.333-.554.391-.842,0a3.358,3.358,0,0,0-.348-.353c-1.053-1.053-1.053-1.053-.046-2.286h-3.342c-.452,0-.345.345-.347.595-.01,1.02.005,2.039-.007,3.059-.016,1.329-.476,1.785-1.8,1.794q-3.471.024-6.942.035-4.719-.017-9.438-.034c-1.635-.005-1.984-.352-1.984-1.994q0-4.844,0-9.689c0-1.322.407-1.725,1.737-1.726q8.364-.005,16.728,0c1.26,0,1.679.417,1.7,1.688.016.966.039,1.934-.01,2.9-.029.577.137.8.724.725a11.1,11.1,0,0,1,1.157-.035C360.267,252.875,361,253.257,361.082,252.479Z" transform="translate(-0.288 -0.034)" fill="#183651"/>
    <path id="Trazado_188906" data-name="Trazado 188906" d="M612.509,404.362c1.289,0,1.289,0,1.288,1.493,0,1.164,0,1.175-1.527,1.161-1.351-.013-1.116.2-1.126-1.566C611.137,404.17,611.017,404.382,612.509,404.362Z" transform="translate(-216.151 -123.651)" fill="#1b3751"/>
    <path id="Trazado_188907" data-name="Trazado 188907" d="M652.319,405.737c0,1.273,0,1.273-1.5,1.273-1.157,0-1.168,0-1.152-1.626.012-1.217-.224-1.023,1.587-1.025C652.521,404.358,652.295,404.178,652.319,405.737Z" transform="translate(-246.586 -123.642)" fill="#1a3751"/>
    <path id="Trazado_188908" data-name="Trazado 188908" d="M690.2,405.685c0,1.326,0,1.326-1.446,1.325-1.209,0-1.221,0-1.2-1.574.013-1.282-.238-1.073,1.617-1.077C690.389,404.356,690.175,404.194,690.2,405.685Z" transform="translate(-276.506 -123.642)" fill="#1a3751"/>
    <path id="Trazado_188909" data-name="Trazado 188909" d="M382.252,484.133c0,1.3,0,1.3-1.49,1.3-1.166,0-1.166,0-1.164-1.613,0-1.043,0-1.053,1.564-1.04C382.461,482.786,382.228,482.609,382.252,484.133Z" transform="translate(-33.256 -185.59)" fill="#1a3751"/>
    <path id="Trazado_188910" data-name="Trazado 188910" d="M418.847,485.426c-1.371,0-1.371,0-1.37-1.49,0-1.167,0-1.167,1.523-1.166,1.132,0,1.139,0,1.129,1.568C420.122,485.572,420.306,485.41,418.847,485.426Z" transform="translate(-63.178 -185.588)" fill="#1a3751"/>
    <path id="Trazado_188911" data-name="Trazado 188911" d="M458.616,484.132c-.027,1.523.22,1.287-1.49,1.29-1.384,0-1.147.207-1.165-1.526-.011-1.126,0-1.133,1.563-1.122C458.8,482.782,458.6,482.621,458.616,484.132Z" transform="translate(-93.573 -185.589)" fill="#1b3751"/>
    <path id="Trazado_188912" data-name="Trazado 188912" d="M598.214,257.732c-3.247.009-6.493.008-9.74.038-.506,0-.586-.2-.575-.632.029-1.155.021-2.31.027-3.465A39.338,39.338,0,0,1,598.214,257.732Z" transform="translate(-197.797 -4.62)" fill="#fabc5e"/>
    <path id="Trazado_188913" data-name="Trazado 188913" d="M434.518,621.917h4.342c0,.087.021.155,0,.184-.847.988-.846.986.095,1.886.138.132.256.284.383.427A20.01,20.01,0,0,1,434.518,621.917Z" transform="translate(-76.639 -295.502)" fill="#fabc5e"/>
    <path id="Trazado_188914" data-name="Trazado 188914" d="M443.95,269.822l.722.667h-1.9Z" transform="translate(-83.155 -17.377)" fill="#f7bc60"/>
    <path id="Trazado_188915" data-name="Trazado 188915" d="M511.864,600.653c2.208,0,4.416.017,6.624-.011.582-.007.837.107.825.766-.039,2.207-.033,4.416,0,6.623.008.59-.192.742-.759.74q-6.707-.029-13.414,0c-.593,0-.746-.194-.739-.76q.041-3.312,0-6.624c-.008-.586.188-.753.759-.746C507.393,600.669,509.629,600.653,511.864,600.653Z" transform="translate(-131.839 -278.697)" fill="#4fbe9e"/>
    <path id="Trazado_188916" data-name="Trazado 188916" d="M665.915,608.766c-2.237,0-4.474-.017-6.71.012-.56.007-.77-.13-.761-.728q.049-3.313,0-6.627c-.01-.643.219-.777.816-.774q6.669.034,13.338,0c.581,0,.75.162.742.742-.032,2.209-.04,4.419,0,6.627.013.651-.207.77-.8.762C670.333,608.746,668.124,608.766,665.915,608.766Z" transform="translate(-253.52 -278.702)" fill="#ef6151"/>
    <path id="Trazado_188917" data-name="Trazado 188917" d="M511.79,353.781c-2.238,0-4.475-.013-6.713.01-.495.005-.671-.116-.664-.642.028-2.292.025-4.586,0-6.878,0-.474.139-.6.607-.6q6.837.024,13.675,0c.55,0,.624.2.62.675-.02,2.238-.028,4.476,0,6.713.008.576-.146.752-.734.743C516.321,353.761,514.055,353.781,511.79,353.781Z" transform="translate(-131.849 -77.285)" fill="#dfe3e7"/>
    <path id="Trazado_188918" data-name="Trazado 188918" d="M511.858,438.306c-2.236,0-4.471-.017-6.707.012-.575.007-.761-.162-.753-.746q.045-3.312,0-6.624c-.007-.568.155-.763.744-.76q6.707.032,13.414,0c.578,0,.76.173.753.752q-.043,3.311,0,6.624c.008.573-.159.762-.745.755C516.33,438.288,514.094,438.306,511.858,438.306Z" transform="translate(-131.838 -144.052)" fill="#4fbe9e"/>
    <path id="Trazado_188919" data-name="Trazado 188919" d="M511.88,260.46c2.236,0,4.471.014,6.707-.01.531-.006.725.141.719.695q-.038,3.353,0,6.706c.005.522-.131.729-.692.726q-6.748-.028-13.5,0c-.53,0-.725-.148-.719-.7.025-2.235.03-4.471,0-6.706-.009-.615.237-.725.779-.719C507.408,260.473,509.644,260.46,511.88,260.46Z" transform="translate(-131.835 -9.973)" fill="#4fbe9e"/>
    <path id="Trazado_188920" data-name="Trazado 188920" d="M511.947,515.44c2.238,0,4.476.013,6.713-.01.5-.005.669.12.663.644q-.041,3.439,0,6.878c0,.477-.143.6-.609.6q-6.837-.023-13.675,0c-.45,0-.625-.1-.62-.589q.036-3.439,0-6.879c-.006-.507.136-.662.651-.656C507.361,515.455,509.654,515.44,511.947,515.44Z" transform="translate(-131.853 -211.385)" fill="#dfe3e7"/>
    <path id="Trazado_188921" data-name="Trazado 188921" d="M357.9,268.569c-2.264,0-4.529-.012-6.793.01-.493,0-.675-.12-.668-.645q.04-3.438,0-6.876c0-.478.155-.6.616-.6q6.834.021,13.669,0c.49,0,.6.185.6.632-.015,2.264-.02,4.529,0,6.793.005.542-.174.708-.717.7C362.375,268.553,360.138,268.569,357.9,268.569Z" transform="translate(-10.223 -9.977)" fill="#ef6151"/>
  </g>
</svg>
